<?xml version="1.0" encoding="iso-8859-1"?>
<!-- Generator: Adobe Illustrator 22.0.1, SVG Export Plug-In . SVG Version: 6.00 Build 0)  -->
<svg version="1.1" xmlns="http://www.w3.org/2000/svg" xmlns:xlink="http://www.w3.org/1999/xlink" x="0px" y="0px"
	 viewBox="0 0 64 64" style="enable-background:new 0 0 64 64;" xml:space="preserve">
<g id="_x31_">
	<path style="fill:#CEDBF4;" d="M61.15,35.314H18.085c0-13.965,9.643-25.292,21.532-25.292S61.15,21.349,61.15,35.314z"/>
	<path style="fill:#6A80B9;" d="M62.174,35.144c-0.08-12.61-9.075-23.143-20.986-25.603c-0.245-2.727-2.54-4.873-5.33-4.873
		c-2.79,0-5.086,2.147-5.33,4.875C18.804,11.964,9.905,22.205,9.552,34.551c-4.712,1.938-9.99,4.677-9.523,7.082
		c0.307,1.581,2.336,2.226,7.003,2.226h15.123l11.596,14.318c0.528,0.66,1.315,1.077,2.158,1.145c0.081,0.006,0.162,0.01,0.243,0.01
		c0.76,0,1.503-0.284,2.071-0.798l16.077-14.675H64v-5.127C64,37.26,63.28,35.953,62.174,35.144z M32.717,8.997
		c0.432-1.321,1.677-2.279,3.141-2.279c1.464,0,2.709,0.957,3.141,2.279H32.717z M35.858,11.048
		c13.037,0,23.705,10.335,24.245,23.241h-0.546H11.613C12.152,21.383,22.821,11.048,35.858,11.048z M36.844,57.017
		c-0.212,0.191-0.487,0.283-0.771,0.261c-0.286-0.023-0.542-0.158-0.724-0.386L24.794,43.859h2.799l8.76,10.689l11.654-10.689h3.252
		L36.844,57.017z M30.245,43.859h14.729l-8.408,7.712L30.245,43.859z M61.949,41.808H7.032c-3.541,0-4.634-0.427-4.935-0.604
		c0.528-0.977,4.339-3.166,8.499-4.864h48.961c1.319,0,2.392,1.073,2.392,2.392V41.808z"/>
</g>
<g id="Layer_1">
</g>
</svg>
