<?xml version="1.0" encoding="iso-8859-1"?>
<!-- Generator: Adobe Illustrator 22.0.1, SVG Export Plug-In . SVG Version: 6.00 Build 0)  -->
<svg version="1.1" xmlns="http://www.w3.org/2000/svg" xmlns:xlink="http://www.w3.org/1999/xlink" x="0px" y="0px"
	 viewBox="0 0 64 64" style="enable-background:new 0 0 64 64;" xml:space="preserve">
<g id="_x31_0">
	<ellipse style="fill:#CEDBF4;" cx="24.56" cy="8.541" rx="2.675" ry="3.2"/>
	<path style="fill:#6A80B9;" d="M51.002,57.376l-2.435-9.808c-1.95-0.838-4.887-3.3-4.34-7.799c0.605-4.97-0.849-6.828-0.863-6.846
		c-0.18-0.21-0.241-0.497-0.163-0.762c0.078-0.265,0.285-0.473,0.55-0.551c0.267-0.08,0.546-0.17,0.832-0.263
		c2.178-0.707,5.824-1.89,7.137,2.125c1.189,3.638,5.17,7.505,8.991,8.305c-0.832-0.958-1.4-2.123-2.019-3.392
		c-1.092-2.239-2.45-5.024-5.938-7.919c-3.752-3.113-6.501-1.604-8.71-0.391c-0.258,0.141-0.505,0.277-0.741,0.399
		c-0.294,0.152-0.652,0.111-0.905-0.105c-1.07-0.914-2.647-1.837-4.963-2.906l0.685-1.483c2.169,1.001,3.746,1.898,4.903,2.793
		c0.078-0.042,0.156-0.086,0.236-0.129c2.361-1.298,5.93-3.259,10.539,0.566c3.758,3.119,5.203,6.081,6.363,8.46
		c0.972,1.994,1.675,3.435,3.375,4.248c0.321,0.154,0.506,0.497,0.457,0.85c-0.049,0.353-0.321,0.633-0.672,0.692
		c-4.408,0.75-11.109-3.228-13.153-9.479c-0.719-2.199-2.144-2.026-4.984-1.11c0.512,1.168,1.112,3.417,0.665,7.097
		c-0.577,4.747,3.493,6.16,3.667,6.218c0.266,0.088,0.467,0.306,0.535,0.578l2.538,10.221L51.002,57.376z M20.943,45.679
		l0.332-0.381c-0.865-0.753-6.876-8.151-7.397-10.012c0.681-0.341,1.529-0.255,2.289-0.178c0.856,0.087,1.666,0.17,2.211-0.408
		c0.51-0.541,0.388-1.296,0.347-1.544c-0.222-1.374-0.991-4.738-3.312-6.283c-1.194-0.794-2.605-1.003-4.19-0.623
		c-0.316,0.076-0.558,0.333-0.614,0.654c-0.427,2.448-1.28,5.391-1.913,5.879c-0.656,0.506-1.168,1.445-1.663,2.353
		c-0.282,0.518-0.741,1.358-1.012,1.585c-2.292-0.715-1.978-1.912-1.859-2.367c0.523-1.996,0.792-8.455-0.093-9.617
		c-0.213-0.279-0.605-0.665-1.066-1.111c1.133,0.181,2.343,0.175,3.09-0.583l0.134-0.138c2.879-2.988,8.831-7.257,16.349-2.293
		c1.517,1.002,3.409,1.977,6.136,3.161l0.651-1.498c-2.636-1.145-4.452-2.078-5.887-3.026c-6.303-4.162-12.847-3.266-18.425,2.523
		l-0.121,0.125c-0.447,0.454-2.325-0.003-3.032-0.176c-0.309-0.075-0.574-0.139-0.764-0.17c-0.54-0.088-0.886,0.187-1.03,0.473
		c-0.361,0.719,0.221,1.282,1.626,2.642c0.413,0.4,0.881,0.852,1.011,1.017c0.368,0.756,0.406,6.1-0.159,8.258
		c-0.537,2.05,0.592,3.648,3.097,4.383c1.272,0.374,2.043-1.039,2.789-2.406c0.395-0.725,0.843-1.546,1.227-1.842
		c1.259-0.971,2.088-4.599,2.422-6.336c0.92-0.126,1.705,0.035,2.392,0.492c1.786,1.189,2.417,4.022,2.605,5.185
		c0.007,0.047,0.012,0.087,0.015,0.12c-0.2,0.005-0.537-0.028-0.796-0.054c-1.031-0.106-2.442-0.248-3.66,0.628
		c-0.182,0.131-0.484,0.439-0.463,1.027c0.087,2.407,7.674,11.214,8.141,11.501L20.943,45.679z M44.865,59.958l-1.029-8.522
		c-0.034-0.283-0.213-0.527-0.473-0.645c-9.693-4.407-7.255-11.513-7.147-11.81c0.108-0.292,0.04-0.62-0.174-0.846
		c-0.215-0.225-0.539-0.309-0.835-0.217c-6.441,2.009-8.392-1.095-8.466-1.22c-0.133-0.234-0.372-0.387-0.64-0.41
		c-8.144-0.702-8.51,0.109-8.729,0.595c-0.066,0.145-0.237,0.648,0.238,1.136l4.674,5.635l1.257-1.042l-4.081-4.922
		c1.325-0.087,3.856,0.011,6.127,0.194c0.762,0.952,3.245,3.253,8.781,1.956c-0.366,2.653-0.093,8.419,7.901,12.243l0.975,8.072
		L44.865,59.958z M8.004,26.855l-1.372-0.886l-0.741,1.148l1.372,0.886L8.004,26.855z M26.974,19.351 M34.403,31.789
		c-0.022-0.046-2.251-4.614-2.761-6.76c-0.259-1.093,2.438-3.39,4.484-4.628l-0.844-1.398c-0.986,0.595-5.87,3.701-5.229,6.403
		c0.551,2.321,2.788,6.906,2.882,7.1L34.403,31.789z M36.135,35.378c0.508-0.097,0.961-0.392,1.256-0.819
		c0.312-0.453,0.42-1.02,0.299-1.551l-1.579-7.13c1.739-0.752,6.124-2.873,6.885-5.422c0.813-2.725-2.072-4.46-3.947-5.072
		c-8.248-3.942-10.703-3.991-11.433-3.667c-0.523,0.232-1.21,0.651-2.006,1.136c-1.345,0.82-3.85,2.345-4.716,2.093
		c-0.758-0.221-2.147-1.015-3.372-1.715c-1.754-1.002-2.778-1.572-3.446-1.631l-0.146,1.627c0.378,0.049,1.824,0.875,2.781,1.422
		c1.368,0.782,2.783,1.591,3.726,1.865c1.449,0.422,3.494-0.725,6.023-2.266c0.716-0.437,1.392-0.849,1.805-1.032
		c0.91-0.271,5.971,1.676,10.129,3.665c0.033,0.016,0.069,0.03,0.104,0.041c0.035,0.011,3.505,1.151,2.933,3.067
		c-0.507,1.698-4.295,3.745-6.563,4.637c-0.374,0.147-0.586,0.544-0.499,0.937l1.727,7.803c0.029,0.126-0.02,0.221-0.051,0.267
		c-0.031,0.046-0.103,0.125-0.231,0.143c-0.054,0.007-0.106,0.02-0.157,0.039l-3.307,1.169l0.544,1.54L36.135,35.378z M27.996,8.892
		c0.38-2.371-1.239-4.609-3.611-4.99c-1.146-0.183-2.299,0.09-3.243,0.771c-0.942,0.682-1.563,1.69-1.747,2.839
		c-0.38,2.371,1.239,4.609,3.611,4.99c0.232,0.037,0.464,0.055,0.692,0.055C25.799,12.558,27.653,11.031,27.996,8.892z
		 M24.127,5.515c1.482,0.238,2.494,1.637,2.256,3.119c-0.238,1.482-1.63,2.492-3.118,2.256c-1.482-0.238-2.494-1.637-2.256-3.119
		l0,0c0.115-0.718,0.502-1.348,1.092-1.774c0.469-0.339,1.021-0.517,1.59-0.517C23.835,5.48,23.981,5.491,24.127,5.515z"/>
</g>
<g id="Layer_1">
</g>
</svg>
