<?xml version="1.0" encoding="iso-8859-1"?>
<!-- Generator: Adobe Illustrator 22.0.1, SVG Export Plug-In . SVG Version: 6.00 Build 0)  -->
<svg version="1.1" xmlns="http://www.w3.org/2000/svg" xmlns:xlink="http://www.w3.org/1999/xlink" x="0px" y="0px"
	 viewBox="0 0 64 64" style="enable-background:new 0 0 64 64;" xml:space="preserve">
<g id="_x31_2">
	<path style="fill:#CEDBF4;" d="M37.042,44.748c-1.078-4.636,0.894-9.055,4.405-9.872s7.231,2.279,8.309,6.915L37.042,44.748z"/>
	<path style="fill:#6A80B9;" d="M58.009,55.85c-0.012-0.047-1.182-4.692-0.882-7.333c0.331-2.908-2.191-15.718-5.03-29.723
		c-0.61-3.008-1.137-5.606-1.407-7.064c-0.902-4.866-4.448-7.33-7.309-7.177c-0.734,0.039-1.384,0.246-1.928,0.58
		c-1.392-3.124-3.328-4.232-4.554-4.62c-1.856-0.586-3.8-0.11-5.202,1.27c-0.133,0.132-0.247,0.279-0.352,0.434
		c-1.469-1.78-3.469-2.509-5.167-2.112c-1.821,0.425-3.58,2.255-3.447,6.003c-0.402-0.227-0.818-0.42-1.26-0.539
		c-1.731-0.468-3.501,0.014-4.735,1.292c-1.612,1.668-2.021,4.3-1.122,7.222c1.597,5.191,4.142,14.207,5.616,19.476l-3.857-3.322
		c-2.71-2.333-5.705-2.886-8.219-1.516c-2.268,1.235-3.744,3.859-3.432,6.103c0.201,1.452,1.167,2.511,2.583,2.833
		c2.892,0.657,15.875,12.205,23.54,19.476L34.468,64l23.853-6.923L58.009,55.85z M8.884,35.104c-0.307-0.07-0.509-0.201-0.57-0.638
		c-0.141-1.014,0.684-2.678,2.091-3.444c1.547-0.844,3.366-0.429,5.258,1.201l10.395,8.952l-1.147-4.151
		c-0.044-0.159-4.44-16.054-6.795-23.71c-0.601-1.953-0.413-3.685,0.502-4.632c0.57-0.591,1.362-0.803,2.168-0.585
		c1.428,0.386,2.62,2.005,3.188,4.329l0.001,0c1.971,7.736,4.111,13.823,4.135,13.893l2.469-0.873
		c-0.028-0.078-2.796-7.951-4.911-17.143c-0.814-3.533-0.032-5.382,1.104-5.647c1.138-0.273,3.088,0.912,3.774,3.816
		c0.153,0.647,0.328,1.351,0.517,2.089c0.016,0.064,0.032,0.129,0.046,0.182l0.001,0c1.607,6.238,4.232,14.895,4.261,14.993
		l2.506-0.76c-0.03-0.098-2.655-8.757-4.243-14.931c-0.479-1.843-0.529-3.972-0.1-4.395c0.709-0.698,1.647-0.931,2.573-0.638
		c0.882,0.28,3.035,1.487,3.978,6.672l2.531,13.907l2.576-0.469L42.662,9.214c-0.079-0.435-0.168-0.845-0.263-1.238
		c0.076-0.324,0.312-0.763,1.121-0.806c1.519-0.061,3.926,1.43,4.595,5.039c0.274,1.479,0.778,3.963,1.415,7.107
		c1.855,9.145,5.306,26.168,4.995,28.906c-0.022,0.197-0.031,0.408-0.042,0.618l-21.167,6.085
		C28.96,50.801,13.165,36.077,8.884,35.104z M36.054,60.814l-1.361-3.56l19.895-5.72c0.148,1.41,0.401,2.783,0.601,3.726
		L36.054,60.814z M50.513,42.77l-0.297-1.275c-0.6-2.583-2.171-4.777-4.422-6.178c-2.252-1.402-4.913-1.845-7.496-1.242
		c-2.583,0.601-4.777,2.171-6.178,4.422c-1.402,2.25-1.843,4.912-1.242,7.495l0.297,1.275L50.513,42.77z M34.344,39.881
		c1.032-1.657,2.647-2.813,4.549-3.255c0.554-0.129,1.114-0.193,1.67-0.193c1.349,0,2.675,0.376,3.848,1.106
		c1.281,0.798,2.262,1.943,2.846,3.3l-14.01,3.258C33.172,42.623,33.547,41.162,34.344,39.881z"/>
</g>
<g id="Layer_1">
</g>
</svg>
