<?xml version="1.0" encoding="iso-8859-1"?>
<!-- Generator: Adobe Illustrator 22.0.1, SVG Export Plug-In . SVG Version: 6.00 Build 0)  -->
<svg version="1.1" xmlns="http://www.w3.org/2000/svg" xmlns:xlink="http://www.w3.org/1999/xlink" x="0px" y="0px"
	 viewBox="0 0 64 64" style="enable-background:new 0 0 64 64;" xml:space="preserve">
<g id="_x31_3">
	<path style="fill:#CEDBF4;" d="M52.182,12.794c2.338-2.295,4.387,3.566-1.679,9.322c-7.135,6.77-31.172,6.182-32.539-0.699
		c-0.353-1.778-1.47-6.293,1.679-7.924C22.367,12.082,42.095,22.699,52.182,12.794z"/>
	<path style="fill:#6A80B9;" d="M63.515,14.027c-1.459-2.16-4.235-3.087-6.753-2.253l-1.687,0.743
		c-0.312-0.568-0.765-0.977-1.321-1.167c-0.479-0.165-1.442-0.294-2.521,0.659c-7.516,6.648-20.611,3.423-28.434,1.497
		c-4.201-1.034-6.271-1.507-7.439-0.963c-1.342,0.626-2.117,1.572-2.545,2.63c-3.839-1.069-5.921-2.211-5.922-2.211
		c-0.32-0.197-3.19-1.893-5.22-0.783c-1.073,0.585-1.635,1.745-1.671,3.448c-0.08,3.777,2.553,5.655,5.339,7.642
		c2.404,1.714,4.889,3.487,6.29,6.735c0.578,1.341,1.12,3.107,1.693,4.977c2.223,7.245,5.456,17.785,15.918,17.784
		c1.3,0,2.712-0.163,4.247-0.515c9.999-2.293,12.311-8.766,14.169-13.969c1.224-3.426,2.19-6.131,4.936-7.061
		c5.644-1.911,9.304-7.508,10.723-11.719C63.801,18.064,64.471,15.441,63.515,14.027z M16.241,14.447
		c0.086-0.033,0.214-0.048,0.377-0.048c1.034,0,3.483,0.603,5.679,1.144c8.224,2.024,21.985,5.412,30.326-1.962
		c0.269-0.238,0.429-0.253,0.453-0.246c0.065,0.023,0.236,0.22,0.321,0.663c0.238,1.241-0.34,4.181-4.015,7.322
		c-5.567,4.758-21.966,5.74-30.142,3.002c-2.498-0.837-4.017-1.948-4.277-3.129l-0.069-0.307
		C14.274,18.157,14.009,15.488,16.241,14.447z M31.03,34.191c2.722,0,4.97,2.068,5.257,4.715H25.772
		C26.06,36.258,28.307,34.191,31.03,34.191z M61.328,18.831c-1.366,4.055-4.805,8.844-9.408,10.402
		c-3.706,1.256-4.936,4.698-6.238,8.343c-1.774,4.965-3.784,10.594-12.662,12.63c-11.994,2.751-15.15-7.558-17.691-15.84
		c-0.591-1.926-1.149-3.746-1.773-5.192c-1.632-3.785-4.483-5.819-6.998-7.612c-2.884-2.057-4.514-3.345-4.46-5.89
		c0.013-0.615,0.124-1.402,0.578-1.65c0.69-0.377,2.27,0.212,3.154,0.75c0.103,0.058,2.357,1.305,6.546,2.457
		c-0.097,1.591,0.253,3.158,0.473,4.122l0.066,0.294c0.438,1.985,2.342,3.555,5.659,4.666c3.03,1.015,7.075,1.574,11.407,1.629
		v4.238c-3.39,0.485-6.042,3.274-6.31,6.729H21.68v2.098h18.699v-2.098h-1.991c-0.268-3.455-2.919-6.244-6.31-6.729v-4.257
		c1.135-0.028,2.276-0.078,3.421-0.177c3.984-0.342,11.262-1.424,15.245-4.828c3.542-3.028,4.786-6.112,4.797-8.312l1.925-0.851
		c1.618-0.518,3.384,0.079,4.31,1.451C61.946,15.451,62.058,16.667,61.328,18.831z"/>
</g>
<g id="Layer_1">
</g>
</svg>
