<?xml version="1.0" encoding="iso-8859-1"?>
<!-- Generator: Adobe Illustrator 22.0.1, SVG Export Plug-In . SVG Version: 6.00 Build 0)  -->
<svg version="1.1" xmlns="http://www.w3.org/2000/svg" xmlns:xlink="http://www.w3.org/1999/xlink" x="0px" y="0px"
	 viewBox="0 0 64 64" style="enable-background:new 0 0 64 64;" xml:space="preserve">
<g id="_x31_4">
	<path style="fill:#CEDBF4;" d="M3.39,32c0-4.765,3.156-8.628,7.049-8.628s7.049,3.863,7.049,8.628s-3.156,8.628-7.049,8.628
		S3.39,36.765,3.39,32z M55.834,40.628c3.893,0,7.049-3.863,7.049-8.628s-3.156-8.628-7.049-8.628S48.785,27.235,48.785,32
		S51.941,40.628,55.834,40.628z"/>
	<path style="fill:#6A80B9;" d="M54.255,22.255c-4.996,0-9.12,3.78-9.676,8.629H40.23c-0.47-1.399-1.779-2.416-3.334-2.416v2.233
		c0.717,0,1.299,0.583,1.299,1.299c0,0.717-0.583,1.299-1.299,1.299v2.233c1.555,0,2.864-1.017,3.334-2.416h4.349
		c0.556,4.849,4.68,8.629,9.676,8.629C59.629,41.745,64,37.374,64,32S59.629,22.255,54.255,22.255z M54.255,39.512
		c-4.142,0-7.512-3.37-7.512-7.512s3.37-7.512,7.512-7.512s7.512,3.37,7.512,7.512S58.398,39.512,54.255,39.512z M25.919,32
		c0-0.717,0.584-1.299,1.3-1.299v-2.233c-1.555,0-2.864,1.017-3.335,2.416h-4.464c-0.556-4.849-4.68-8.629-9.676-8.629
		C4.371,22.255,0,26.626,0,32s4.371,9.745,9.745,9.745c4.996,0,9.12-3.78,9.676-8.629h4.464c0.47,1.399,1.779,2.416,3.335,2.416
		v-2.233C26.503,33.299,25.919,32.717,25.919,32z M9.745,39.512c-4.142,0-7.512-3.37-7.512-7.512s3.37-7.512,7.512-7.512
		s7.512,3.37,7.512,7.512S13.887,39.512,9.745,39.512z M36.9,32c0,0.616-0.5,1.116-1.116,1.116h-7.741
		c-0.616,0-1.116-0.5-1.116-1.116s0.5-1.116,1.116-1.116h7.741C36.4,30.884,36.9,31.384,36.9,32z"/>
</g>
<g id="Layer_1">
</g>
</svg>
