<?xml version="1.0" encoding="iso-8859-1"?>
<!-- Generator: Adobe Illustrator 22.0.1, SVG Export Plug-In . SVG Version: 6.00 Build 0)  -->
<svg version="1.1" xmlns="http://www.w3.org/2000/svg" xmlns:xlink="http://www.w3.org/1999/xlink" x="0px" y="0px"
	 viewBox="0 0 64 64" style="enable-background:new 0 0 64 64;" xml:space="preserve">
<g id="_x31_5">
	<path style="fill:#CEDBF4;" d="M52.085,20.214v25.388l-16.61,10.055l-1.286-3.003l0.756-0.418l-0.667-0.04l0.929-15.23
		c-1.382-0.723-2.645-1.648-2.677-3.665c-0.048-2.299-0.312-4.385,1.858-4.868l-0.483,3.275c-0.748,0.169,0.451,1.529,0.483,2.96
		c0,0.354,1.405,1.313,2.651,1.538c3.336,0.611,3.061,2.251,4.749,4.462c0.265,0.346,0.547,0.715,0.852,1.101
		c0.281,0.354,2.943,0.711,3.401,0.663c0.217-0.024,2.4-2.33,1.395-4.72c0.394-1.214-3.167-7.29-7.62-12.997l0,0l1.36-1.35
		c0.916-0.49,1.549-2.961,0.818-2.717c-1.021,0.354-2.752,0.66-4.022,2.051l-0.777,0.755c-0.241-0.056-7.147-1.829-11.206,3.661
		c-1.8,2.427-4.48,7.586-4.48,11.581c0,2.403-0.116,5.416-2.23,7.41l0.008-0.484l-0.008-0.008l-3.977-1.696l0.362-22.103
		c5.04-1.326,10.619-7.476,11.808-13.255h12.006C40.667,14.338,47.046,18.887,52.085,20.214z"/>
	<path style="fill:#6A80B9;" d="M54.31,12.327c-0.03,0-0.142,0.007-0.171,0.009c-4.064-0.039-7.37-3.373-7.37-7.431
		C46.769,2.2,44.573,0,41.873,0H22.136c-2.7,0-4.895,2.2-4.895,4.905c0,4.059-3.307,7.392-7.376,7.429
		c-0.03-0.002-0.135-0.007-0.165-0.007c-2.704,0-4.905,2.2-4.905,4.905v29.528c0,1.785,0.972,3.429,2.535,4.289l22.298,12.335
		C30.352,63.787,31.172,64,32,64c0.835,0,1.658-0.213,2.379-0.615L56.676,51.05c1.56-0.858,2.529-2.502,2.529-4.291V17.231
		C59.205,14.527,57.01,12.327,54.31,12.327z M56.805,46.759c0,0.913-0.492,1.751-1.289,2.189L33.213,61.286
		c-0.729,0.406-1.674,0.414-2.42-0.002L8.49,48.946c-0.799-0.439-1.295-1.278-1.295-2.187V17.231c0-1.381,1.123-2.504,2.491-2.504
		c0,0,0.001,0,0.002,0c0.062,0.005,0.13,0.009,0.204,0.009c0,0,0.001,0,0.002,0c5.375-0.052,9.748-4.462,9.748-9.832
		c0-1.381,1.119-2.504,2.495-2.504h19.737c1.376,0,2.495,1.124,2.495,2.504c0,5.37,4.373,9.78,9.759,9.832
		c0.06,0,0.125-0.004,0.206-0.009c1.365,0.013,2.472,1.131,2.472,2.504V46.759z M52.917,18.398
		c-6.104-1.397-10.979-6.24-12.421-12.337c-0.128-0.542-0.612-0.924-1.168-0.924H24.682c-0.556,0-1.04,0.383-1.168,0.924
		c-1.442,6.097-6.317,10.94-12.422,12.337c-0.545,0.125-0.932,0.61-0.932,1.17v26.097c0,0.437,0.238,0.839,0.62,1.05l20.64,11.415
		c0.181,0.1,0.381,0.15,0.581,0.15s0.4-0.05,0.581-0.15l20.649-11.415c0.382-0.211,0.62-0.613,0.62-1.05V19.568
		C53.849,19.008,53.462,18.523,52.917,18.398z M32,55.708l-12.796-7.077c1.635-1.971,3.364-5.097,3.364-7.603
		c0-2.533,0.605-5.637,1.505-8.203c0.357,0.935,0.885,1.83,1.659,2.243l0.755-1.411c-0.646-0.345-1.161-1.935-1.4-3.222
		c0.186-0.362,0.378-0.697,0.575-0.997c0.286,1.152,0.795,2.398,1.708,2.951l0.83-1.369c-0.611-0.37-1.032-1.918-1.208-3.2
		c0.351-0.359,0.709-0.68,1.073-0.964c0.144,1.185,0.501,2.499,1.348,3.162l0.986-1.26c-0.502-0.393-0.743-1.702-0.805-2.899
		c3.3-1.746,6.48-1.114,6.657-1.076l0.677,0.151l0.469-0.512c1.299-1.42,2.682-2.125,3.716-2.475
		c-0.324,0.851-0.882,1.812-1.832,2.318l-1.262,0.672l0.881,1.127c4.502,5.76,8.091,11.9,7.688,13.118
		c-1.198,2.207-2.006,2.44-2.225,2.46c-0.471,0.025-1.01-0.552-1.294-0.91c-0.309-0.389-0.594-0.761-0.864-1.114
		c-1.7-2.222-3.044-3.978-6.397-4.593c-1.266-0.232-1.365-2.046-1.372-2.407c-0.027-1.453,0.593-2.824,1.356-2.994l-0.524-2.343
		c-2.18,0.487-3.276,3.076-3.232,5.383c0.039,2.037,0.913,3.643,2.303,4.367L33.245,55.02L32,55.708z M51.448,44.956l-15.716,8.688
		l0.965-15.892c1.508,0.593,2.326,1.662,3.598,3.324c0.279,0.364,0.572,0.748,0.891,1.149c1.037,1.305,2.189,1.914,3.383,1.807
		c1.493-0.13,2.843-1.342,4.126-3.705c1.463-2.695-3.525-10.019-7.145-14.757c2.048-1.886,2.356-4.907,2.369-5.055l0.125-1.334
		l-1.34,0.022c-0.149,0.002-3.539,0.095-6.623,3.125c-2.007-0.248-7.878-0.394-12.098,5.313c-2.389,3.23-3.816,9.342-3.816,13.386
		c0,1.902-1.69,4.835-3.109,6.417l-4.498-2.488V20.499c6.245-1.774,11.229-6.726,13.046-12.961h12.796
		c1.818,6.236,6.801,11.187,13.046,12.961V44.956z M39.201,31.81l-0.474-2.354l2.211-0.445l0.474,2.354L39.201,31.81z"/>
</g>
<g id="Layer_1">
</g>
</svg>
