<?xml version="1.0" encoding="iso-8859-1"?>
<!-- Generator: Adobe Illustrator 22.0.1, SVG Export Plug-In . SVG Version: 6.00 Build 0)  -->
<svg version="1.1" xmlns="http://www.w3.org/2000/svg" xmlns:xlink="http://www.w3.org/1999/xlink" x="0px" y="0px"
	 viewBox="0 0 64 64" style="enable-background:new 0 0 64 64;" xml:space="preserve">
<g id="_x32_">
	<path style="fill:#CEDBF4;" d="M48.678,1.232c0,20.116-13.083,36.423-13.083,36.423c-7.226,0-13.083-16.307-13.083-36.423H48.678z"
		/>
	<path style="fill:#6A80B9;" d="M49.888,3.163c0.015-0.639,0.022-1.282,0.022-1.931V0H14.09v1.232c0,0.648,0.007,1.291,0.022,1.931
		H2.013v1.232c0,9.483,5.712,17.198,12.734,17.198v-2.465c-5.373,0-9.796-5.952-10.234-13.501h9.692
		c0.832,15.689,6.075,28.177,13.144,32.027h-0.176c0,14.334-9.419,17.727-10.731,18.129h-0.771V64h32.945v-8.216h-1.63
		c-1.235-0.392-10.643-3.849-10.734-17.922c7.27-3.591,12.695-16.252,13.542-32.234h9.692c-0.438,7.55-4.86,13.501-10.234,13.501
		v2.465c7.022,0,12.734-7.715,12.734-17.198V3.163H49.888z M46.151,61.535H18.136v-3.286h28.015V61.535z M40.064,54.339
		c0.58,0.552,1.161,1.031,1.723,1.445H21.637c0.562-0.414,1.143-0.893,1.723-1.445c2.763-2.628,6.039-7.474,6.265-15.765
		c1.362,0.363,2.802,0.411,4.178,0.134C34.061,46.917,37.316,51.725,40.064,54.339z M32,36.423c-8.192,0-15.14-15.426-15.436-33.958
		h30.871C47.139,20.996,40.191,36.423,32,36.423z"/>
</g>
<g id="Layer_1">
</g>
</svg>
