<?xml version="1.0" encoding="iso-8859-1"?>
<!-- Generator: Adobe Illustrator 22.0.1, SVG Export Plug-In . SVG Version: 6.00 Build 0)  -->
<svg version="1.1" xmlns="http://www.w3.org/2000/svg" xmlns:xlink="http://www.w3.org/1999/xlink" x="0px" y="0px"
	 viewBox="0 0 64 64" style="enable-background:new 0 0 64 64;" xml:space="preserve">
<g id="_x33_">
	<path style="fill:#CEDBF4;" d="M14.341,5.353C1.823,13.645-0.44,32.349,9.3,47.053c3.766,5.686,8.781,9.953,14.24,12.565
		c3.26,1.562,6.669,2.533,10.07,2.863l1.245-4.043c0,0-14.891-5.59-20.024-16.119C6.401,25.03,14.341,5.353,14.341,5.353z"/>
	<path style="fill:#6A80B9;" d="M34.621,64l-1.148-0.111c-3.572-0.347-7.119-1.355-10.544-2.996
		c-5.897-2.821-11.018-7.337-14.808-13.06c-4.896-7.39-7.045-15.987-6.051-24.205c1.004-8.302,5.084-15.211,11.49-19.454
		c13.167-8.723,32.153-3.329,42.322,12.022l0,0c3.79,5.723,5.951,12.2,6.248,18.73c0.175,3.793-0.281,7.453-1.354,10.877
		l-0.346,1.101l-18.598-1.901l1.351-13.225l4.331,0.441c-0.616-2.828-1.807-5.619-3.494-8.165
		c-5.836-8.811-15.974-12.41-22.606-8.018c-6.627,4.391-7.271,15.131-1.434,23.942c1.687,2.547,3.792,4.733,6.155,6.402l1.283-4.161
		l12.704,3.915L34.621,64z M27.734,2.82c-4.464,0-8.812,1.194-12.612,3.712c-5.703,3.778-9.342,9.97-10.245,17.436
		c-0.913,7.552,1.076,15.473,5.601,22.304c3.508,5.296,8.235,9.47,13.672,12.071c2.759,1.322,5.598,2.193,8.455,2.595l3.984-12.934
		l-7.3-2.25l-1.526,4.949l-1.541-0.904c-3.348-1.965-6.322-4.822-8.598-8.259c-6.697-10.111-5.696-22.609,2.231-27.861
		c7.927-5.253,19.827-1.298,26.525,8.814c2.277,3.436,3.746,7.288,4.25,11.139l0.232,1.771l-5.152-0.524l-0.777,7.599l13.464,1.377
		c0.744-2.788,1.049-5.741,0.909-8.797c-0.274-6.02-2.274-12.002-5.782-17.299l0,0C47.198,8.207,37.209,2.82,27.734,2.82z
		 M25.259,53.058c-1.08-0.517-2.143-1.121-3.162-1.796l-1.042,1.571c1.092,0.723,2.232,1.371,3.39,1.925L25.259,53.058z
		 M15.154,47.674c-0.94-1.067-1.82-2.217-2.615-3.417c-0.652-0.985-1.253-2.013-1.786-3.056l1.679-0.858
		c0.501,0.98,1.066,1.947,1.679,2.873c0.748,1.129,1.574,2.209,2.457,3.211L15.154,47.674z M8.115,33.822
		c-0.418-1.952-0.63-3.929-0.63-5.875c0-0.653,0.024-1.313,0.073-1.961l1.88,0.14C9.393,26.727,9.37,27.34,9.37,27.946
		c0,1.814,0.198,3.657,0.589,5.48L8.115,33.822z M51.277,23.396c-0.573-1.192-1.24-2.365-1.983-3.486
		c-0.619-0.934-1.295-1.839-2.011-2.692l1.443-1.212c0.761,0.907,1.481,1.87,2.139,2.863c0.79,1.193,1.5,2.441,2.11,3.709
		L51.277,23.396z M11.119,19.053l-1.735-0.738c1.068-2.511,2.549-4.726,4.403-6.585l1.335,1.331
		C13.439,14.749,12.092,16.765,11.119,19.053z M41.874,12.251c-2.048-1.434-4.242-2.55-6.52-3.319l0.602-1.787
		c2.449,0.827,4.804,2.025,6.999,3.561L41.874,12.251z M21.107,9.089L20.4,7.342c2.434-0.986,5.051-1.489,7.779-1.497l0.006,1.885
		C25.698,7.737,23.317,8.195,21.107,9.089z M55.891,33.929c-0.058-1.284-0.21-2.587-0.449-3.873l-1.854,0.346
		c0.225,1.2,0.365,2.416,0.42,3.612L55.891,33.929z"/>
</g>
<g id="Layer_1">
</g>
</svg>
