<?xml version="1.0" encoding="iso-8859-1"?>
<!-- Generator: Adobe Illustrator 22.0.1, SVG Export Plug-In . SVG Version: 6.00 Build 0)  -->
<svg version="1.1" xmlns="http://www.w3.org/2000/svg" xmlns:xlink="http://www.w3.org/1999/xlink" x="0px" y="0px"
	 viewBox="0 0 64 64" style="enable-background:new 0 0 64 64;" xml:space="preserve">
<g id="_x34_">
	<path style="fill:#CEDBF4;" d="M27.668,28.061h-9.693v-5.908h9.693V28.061z M46.572,22.154h-9.693v5.908h9.693V22.154z
		 M27.668,40.664h-9.693v-5.908h9.693V40.664z M46.572,34.757h-9.693v5.908h9.693V34.757z"/>
	<path style="fill:#6A80B9;" d="M64,15.616c0-3.746-3.048-6.794-6.794-6.794s-6.794,3.048-6.794,6.794v1.182h2.658v4.175h-5.317
		H35.698h-6.848H16.793h-5.864v-4.175h2.658v-1.182c0-3.746-3.048-6.794-6.794-6.794S0,11.869,0,15.616v1.182h2.658v38.381h8.271
		V41.846h5.864h12.056h6.848h12.056h5.317v13.332h8.271V16.797H64V15.616z M53.071,23.335v3.545h-5.317v-3.545H53.071z
		 M53.071,29.243v4.332h-5.317H35.698h-6.848H16.793h-5.864v-4.332h5.864h12.056h6.848h12.056H53.071z M45.391,23.335v3.545h-7.33
		v-3.545H45.391z M35.698,23.335v3.545h-6.848v-3.545H35.698z M26.486,23.335v3.545h-7.33v-3.545H26.486z M16.793,23.335v3.545
		h-5.864v-3.545H16.793z M2.523,14.434c0.518-1.872,2.237-3.249,4.271-3.249s3.752,1.378,4.271,3.249h-0.135v-0.047H2.658v0.047
		H2.523z M8.566,52.815H5.022V16.751h3.545v4.222v8.271v4.332v8.271V52.815z M10.929,39.483v-3.545h5.864v3.545H10.929z
		 M19.156,39.483v-3.545h7.33v3.545H19.156z M28.849,39.483v-3.545h6.848v3.545H28.849z M38.061,39.483v-3.545h7.33v3.545H38.061z
		 M47.754,39.483v-3.545h5.317v3.545H47.754z M58.978,52.815h-3.545V41.846v-8.271v-4.332v-8.271v-4.222h3.545V52.815z
		 M61.342,14.434v-0.047h-8.271v0.047h-0.135c0.518-1.872,2.237-3.249,4.271-3.249s3.752,1.378,4.271,3.249H61.342z"/>
</g>
<g id="Layer_1">
</g>
</svg>
