<?xml version="1.0" encoding="iso-8859-1"?>
<!-- Generator: Adobe Illustrator 22.0.1, SVG Export Plug-In . SVG Version: 6.00 Build 0)  -->
<svg version="1.1" xmlns="http://www.w3.org/2000/svg" xmlns:xlink="http://www.w3.org/1999/xlink" x="0px" y="0px"
	 viewBox="0 0 64 64" style="enable-background:new 0 0 64 64;" xml:space="preserve">
<g id="_x35_">
	<path style="fill:#CEDBF4;" d="M12.618,39.985C17.205,37.118,12.618,39.985,12.618,39.985l-7.323,2.507
		c1.06-14.022,11.363-21.638,11.363-21.638l-8.27,1.325c0,0,10.178-16.837,33.384-14.028c0,0-8.264,0.22-18.686,12.433
		C14.796,30.301,12.618,39.985,12.618,39.985z"/>
	<path style="fill:#6A80B9;" d="M62.94,38.309c-2.261,4.164-4.58,6.294-7.088,6.513c-1.992,0.175-3.877-0.864-5.639-3.082
		c-0.592-0.745-1.135-1.456-1.653-2.132c-2.641-3.453-4.362-5.699-8.043-6.795L38.624,64l-2.926-0.177l1.928-31.771
		c-2.629-1.085-4.255-3.909-4.328-7.689c-0.077-3.991,1.761-8.46,5.425-9.279l0.639,2.861c-1.819,0.406-3.196,3.201-3.134,6.362
		c0.044,2.257,0.906,4.818,3.195,5.237c5.965,1.094,8.392,4.267,11.465,8.284c0.507,0.662,1.04,1.359,1.62,2.089
		c1.111,1.399,2.138,2.062,3.089,1.986c1.391-0.122,3.084-1.894,4.766-4.992c1.319-2.429-6.392-15.059-14.421-25.331l-1.075-1.376
		l1.541-0.821c2.547-1.355,3.718-4.232,4.235-6.149c-2.059,0.474-5.503,1.758-8.684,5.235l-0.561,0.613l-0.814-0.167
		C36.835,8.15,29.792,8.935,29.723,8.942c-9.06,1.276-15.233,7.55-18.145,11.242l10.794-1.73l-4.842,3.578
		C17.44,22.1,8.851,28.62,7.017,40.354l8.645-2.959l-1.751,3.281c-0.277,0.519-6.84,12.748-11.703,15.787l-1.553-2.486
		c2.634-1.645,6.35-7.259,8.783-11.354l-5.771,1.976l0.167-2.217c0.694-9.181,5.109-15.696,8.376-19.33l-6.623,1.062l1.531-2.664
		c0.314-0.546,7.851-13.39,22.234-15.414c0.324-0.038,6.737-0.755,11.002-0.133c5.606-5.7,11.828-5.87,12.098-5.875L54.089,0
		l-0.153,1.629c-0.026,0.275-0.623,6.15-4.714,9.399C54.175,17.485,65.64,33.333,62.94,38.309z M49.875,21.191l-0.578-2.874
		l-4.127,0.831l0.578,2.874L49.875,21.191z"/>
</g>
<g id="Layer_1">
</g>
</svg>
