<?xml version="1.0" encoding="iso-8859-1"?>
<!-- Generator: Adobe Illustrator 22.0.1, SVG Export Plug-In . SVG Version: 6.00 Build 0)  -->
<svg version="1.1" xmlns="http://www.w3.org/2000/svg" xmlns:xlink="http://www.w3.org/1999/xlink" x="0px" y="0px"
	 viewBox="0 0 64 64" style="enable-background:new 0 0 64 64;" xml:space="preserve">
<g id="_x36_">
	<rect x="15.581" y="56.76" style="fill:#CEDBF4;" width="36.34" height="6.849"/>
	<path style="fill:#6A80B9;" d="M49.573,54.808c-0.289-7.048-4.742-13.036-10.96-15.569V0H25.359v39.25
		c-6.203,2.539-10.643,8.521-10.931,15.557h-3.52V64h42.186v-9.192H49.573z M27.702,2.344h8.567v36.127
		c-1.368-0.342-2.797-0.527-4.269-0.527c-1.482,0-2.922,0.186-4.298,0.533V2.344z M32,40.288c8.162,0,14.827,6.451,15.211,14.52
		H16.789C17.173,46.739,23.838,40.288,32,40.288z M50.749,61.656H13.251v-4.505h37.498V61.656z M31.986,16.351
		c-1.655,0-3.001-1.347-3.001-3.001s1.347-3.001,3.001-3.001s3.001,1.347,3.001,3.001S33.641,16.351,31.986,16.351z M31.986,11.911
		c-0.793,0-1.439,0.645-1.439,1.439s0.645,1.439,1.439,1.439c0.793,0,1.439-0.645,1.439-1.439S32.779,11.911,31.986,11.911z
		 M31.986,24.163c-1.655,0-3.001-1.347-3.001-3.001c0-1.655,1.347-3.001,3.001-3.001s3.001,1.347,3.001,3.001
		C34.987,22.817,33.641,24.163,31.986,24.163z M31.986,19.723c-0.793,0-1.439,0.645-1.439,1.439s0.645,1.439,1.439,1.439
		c0.793,0,1.439-0.645,1.439-1.439S32.779,19.723,31.986,19.723z M31.986,31.975c-1.655,0-3.001-1.347-3.001-3.001
		c0-1.655,1.347-3.001,3.001-3.001s3.001,1.347,3.001,3.001C34.987,30.629,33.641,31.975,31.986,31.975z M31.986,27.535
		c-0.793,0-1.439,0.645-1.439,1.439s0.645,1.439,1.439,1.439c0.793,0,1.439-0.645,1.439-1.439S32.779,27.535,31.986,27.535z"/>
</g>
<g id="Layer_1">
</g>
</svg>
