<?xml version="1.0" encoding="iso-8859-1"?>
<!-- Generator: Adobe Illustrator 22.0.1, SVG Export Plug-In . SVG Version: 6.00 Build 0)  -->
<svg version="1.1" xmlns="http://www.w3.org/2000/svg" xmlns:xlink="http://www.w3.org/1999/xlink" x="0px" y="0px"
	 viewBox="0 0 64 64" style="enable-background:new 0 0 64 64;" xml:space="preserve">
<g id="_x37_">
	<path style="fill:#CEDBF4;" d="M20.46,55.534c0.608-3.571,5.485-9.244,5.485-9.244l-1.072-0.713l-0.897-0.597
		c0,0-3.346,6.692-6.404,8.633c-3.058,1.941-5.23,5.761-5.23,5.761l2.326,1.547l0.175,0.117l2.326,1.547
		C17.17,62.585,19.853,59.105,20.46,55.534z"/>
	<path style="fill:#6A80B9;" d="M44.189,20.718L55.278,4.044L49.197,0L38.108,16.675l2.231,1.484L23.535,43.427
		c-0.399-0.213-0.863-0.276-1.304-0.156c-0.494,0.135-0.905,0.477-1.128,0.939c-0.684,1.412-3.118,6.108-5.735,7.241
		c-3.92,1.697-6.105,5.774-6.196,5.947l-0.449,0.852L17.371,64l0.612-0.744c0.124-0.151,3.039-3.741,3.088-8.012
		c0.033-2.853,3.422-6.913,4.46-8.089c0.339-0.384,0.495-0.896,0.429-1.403c-0.059-0.453-0.297-0.856-0.649-1.142L42.116,19.34
		L44.189,20.718z M18.937,55.219c-0.028,2.464-1.289,4.749-2.045,5.9l-5.328-3.543c0.77-1.143,2.389-3.189,4.651-4.167
		c2.835-1.228,5.175-5.05,6.482-7.614l0.756,0.503C21.593,48.494,18.973,52.129,18.937,55.219z M47.521,11.854l-1.689,2.54
		l-2.526-1.68l1.689-2.54L47.521,11.854z M45.782,8.989l1.689-2.54l2.527,1.68l-1.689,2.54L45.782,8.989z M49.792,2.959l2.526,1.681
		l-1.533,2.305l-2.527-1.68L49.792,2.959z M42.518,13.898l2.526,1.68l-1.451,2.181l-2.526-1.68L42.518,13.898z"/>
</g>
<g id="Layer_1">
</g>
</svg>
