<?xml version="1.0" encoding="iso-8859-1"?>
<!-- Generator: Adobe Illustrator 22.0.1, SVG Export Plug-In . SVG Version: 6.00 Build 0)  -->
<svg version="1.1" xmlns="http://www.w3.org/2000/svg" xmlns:xlink="http://www.w3.org/1999/xlink" x="0px" y="0px"
	 viewBox="0 0 64 64" style="enable-background:new 0 0 64 64;" xml:space="preserve">
<g id="_x38_">
	<path style="fill:#CEDBF4;" d="M50.335,55.268c-1.835-0.011-6.64,0.149-10.233,1.962c-4.531,2.286-12.003,3.585-17.011,2.026
		c-5.008-1.559,10.97-5.923,13.514-14.185s4.154-17.417,0.934-31.211S50.914-4.376,50.755,8.95
		c-0.159,13.327-2.312,28.155-1.261,34.38c0.554,3.283,1.113,8.858,1.261,10.268C50.903,55.009,50.335,55.268,50.335,55.268z"/>
	<path style="fill:#6A80B9;" d="M51.687,53.47l-0.058-0.427c-0.254-1.878-0.93-6.866-1.604-9.917
		c-0.763-3.456-0.167-9.82,0.522-17.189c0.497-5.304,1.06-11.317,1.148-16.971c0.06-3.838-1.569-6.724-4.587-8.128
		c-3.536-1.646-8.445-0.807-11.668,1.996c-3.177,2.763-4.225,6.883-2.877,11.303c4.212,13.805,1.915,22.856-1.194,30.58
		c-1.672,4.154-8.677,7.493-13.312,9.701c-4.001,1.907-5.827,2.777-5.677,4.196c0.015,0.146,0.053,0.276,0.106,0.396
		c0.081,0.558,0.174,1.637-0.077,2.831l-0.135,0.639l0.55,0.354C13.864,63.503,19.284,64,24.441,64c4.18,0,8.187-0.327,9.548-1.153
		c1.934-1.174,5.035-1.874,6.665-2.181v2.433l11.069-1.258l-0.216-6.693C51.688,54.731,51.785,54.186,51.687,53.47z M49.807,53.728
		c0.041,0.3,0.022,0.485-0.005,0.591c-1.695,0.006-4.631,0.103-7.708,0.593c0.379-6.553,4.147-9.511,6.23-10.653
		c0.606,2.996,1.192,7.325,1.425,9.039L49.807,53.728z M43.47,1.896c0.129,5.322-0.159,9.283-0.528,11.243
		C42.439,11.214,41.88,7.297,41.641,2C42.254,1.905,42.868,1.869,43.47,1.896z M18.873,56.131
		c5.194-2.475,12.308-5.866,14.256-10.706c3.239-8.047,5.632-17.473,1.249-31.842c-1.534-5.028,0.787-7.997,2.307-9.318
		c0.904-0.786,1.963-1.383,3.079-1.786c0.16,3.281,0.453,6.321,0.843,8.688c0.595,3.61,1.245,4.97,2.386,4.97
		c0.017,0,0.034,0,0.051-0.001c1.172-0.04,1.738-1.43,2.088-5.125c0.228-2.406,0.311-5.487,0.242-8.799
		c0.321,0.096,0.635,0.207,0.935,0.347c1.625,0.756,3.55,2.476,3.489,6.378c-0.087,5.581-0.646,11.554-1.139,16.824
		c-0.634,6.771-1.187,12.705-0.69,16.557c-0.868,0.426-2.121,1.17-3.371,2.365c-1.938,1.852-4.226,5.175-4.417,10.586
		c-1.273,0.274-2.532,0.625-3.7,1.076c-5.632,2.173-15.281,3.51-21.677,1.989c-0.046-0.011-0.089-0.022-0.129-0.032
		C15.53,57.724,17.349,56.857,18.873,56.131z M42.551,60.974v-2.522l-1.08,0.151c-0.22,0.031-5.424,0.776-8.466,2.622
		c-2.424,1.473-15.515,0.85-18.604,0.18c0.051-0.429,0.069-0.834,0.068-1.206c2.065,0.481,4.378,0.694,6.767,0.694
		c5.714-0.001,11.843-1.202,15.928-2.779c4.213-1.626,9.795-1.881,12.48-1.898l0.127,3.936L42.551,60.974z"/>
</g>
<g id="Layer_1">
</g>
</svg>
