<?xml version="1.0" encoding="iso-8859-1"?>
<!-- Generator: Adobe Illustrator 22.0.1, SVG Export Plug-In . SVG Version: 6.00 Build 0)  -->
<svg version="1.1" id="Layer_1" xmlns="http://www.w3.org/2000/svg" xmlns:xlink="http://www.w3.org/1999/xlink" x="0px" y="0px"
	 viewBox="0 0 64 64" style="enable-background:new 0 0 64 64;" xml:space="preserve">
<g id="_x39_">
	<path style="fill:#CEDBF4;" d="M44.959,49.828c0,7.155-4.418,12.951-9.862,12.951s-9.862-5.796-9.862-12.951
		c0-2.385,0.494-4.619,1.352-6.531c1.485-3.341,4.078-5.727,7.12-6.287c0.451-0.088,0.915-0.132,1.39-0.132
		c0.397,0,0.791,0.031,1.179,0.1c3.047,0.466,5.668,2.769,7.207,6.041C44.418,44.996,44.959,47.331,44.959,49.828z"/>
	<path style="fill:#6A80B9;" d="M60.58,12.791L49.282,0.393C49.067,0.158,48.768,0.02,48.457,0L15.411,0.022
		c-0.274,0.05-0.527,0.185-0.712,0.402L3.393,13.715c-0.306,0.36-0.377,0.865-0.182,1.296l11.825,26.052
		c0.19,0.415,0.594,0.691,1.05,0.714c0.021,0.001,0.042,0.002,0.063,0.002c0.432,0,0.835-0.229,1.055-0.605
		c2.665-4.563,7.18-7.599,12.388-8.329c0.381-0.053,0.714-0.283,0.901-0.621c0.186-0.337,0.201-0.742,0.042-1.093l-6.18-13.633
		H39.66L33.094,31.98c-0.175,0.385-0.137,0.835,0.099,1.186c0.237,0.352,0.648,0.562,1.063,0.538
		c4.872-0.203,9.476,2.456,12.343,7.102c0.224,0.361,0.618,0.58,1.039,0.58c0.025,0,0.051-0.001,0.078-0.002
		c0.45-0.029,0.848-0.304,1.035-0.714L60.79,14.118C60.991,13.673,60.909,13.151,60.58,12.791z M16.348,38.048L5.755,14.708
		l9.557-11.234l12.349,27.242C23.118,31.735,19.135,34.321,16.348,38.048z M23.285,15.057v0.09L17.426,2.222h29.157l-5.989,13.211
		v-0.376H23.285z M47.412,37.709c-2.931-3.731-6.976-6.017-11.333-6.4l12.647-27.9l9.507,10.432L47.412,37.709z M33.721,35.769
		c-1.183-0.163-2.515-0.146-3.706,0.032c-4.305,0.603-8.036,3.11-10.234,6.876c-1.271,2.159-1.943,4.632-1.943,7.152
		C17.837,57.642,24.195,64,32.009,64S46.18,57.642,46.18,49.829c0-2.641-0.734-5.218-2.12-7.451
		C41.775,38.677,37.998,36.267,33.721,35.769z M32.009,61.558c-6.467,0-11.729-5.262-11.729-11.729c0-2.083,0.555-4.128,1.608-5.917
		c1.821-3.119,4.907-5.194,8.477-5.694c0.531-0.078,1.085-0.119,1.644-0.119c0.479,0,0.944,0.03,1.406,0.093
		c3.553,0.413,6.676,2.407,8.568,5.472c1.148,1.848,1.754,3.98,1.754,6.165C43.737,56.296,38.476,61.558,32.009,61.558z"/>
</g>
<g id="Layer_1_1_">
</g>
</svg>
