<svg xmlns="http://www.w3.org/2000/svg" viewBox="0 0 124.12 123"><defs><style>.cls-1{fill:#333;}.cls-2,.cls-3,.cls-4{fill:none;stroke:#333;stroke-linecap:round;}.cls-2,.cls-4{stroke-miterlimit:10;}.cls-2,.cls-3{stroke-width:2px;}.cls-3{stroke-linejoin:round;}.cls-4{stroke-width:4px;}</style></defs><title>Articles - List</title><g id="Layer_2" data-name="Layer 2"><g id="Articles_-_List" data-name="Articles - List"><g id="Articles_-_Image" data-name="Articles - Image"><circle class="cls-1" cx="11" cy="29" r="1"/><path class="cls-2" d="M65,28.62A9.89,9.89,0,0,1,66,33,10,10,0,1,1,56,23a9.87,9.87,0,0,1,3.89.79"/><polyline class="cls-3" points="56 81 92 45 122 77"/><polyline class="cls-3" points="2 86 32 57 49.95 74.95"/><path class="cls-3" d="M27.11,10s-9-1-13,3S11,24,11,24"/><g id="Post_Frame" data-name="Post Frame"><line class="cls-3" x1="14" y1="115" x2="110" y2="115"/><line class="cls-3" x1="14" y1="122" x2="82" y2="122"/><circle class="cls-1" cx="88" cy="122" r="1"/><circle class="cls-1" cx="122" cy="34" r="2"/><path class="cls-4" d="M122,39.93V94.54c1,6.3-4.16,11.46-10.46,11.46H13.46A11.5,11.5,0,0,1,2,94.54V13.46A11.5,11.5,0,0,1,13.46,2h98.08C117.84,2,123,7.16,122,13.46v10.2"/></g></g></g></g></svg>