<svg xmlns="http://www.w3.org/2000/svg" viewBox="0 0 124 123"><defs><style>.cls-1,.cls-2{fill:none;stroke:#333;stroke-linecap:round;}.cls-1{stroke-miterlimit:10;stroke-width:4px;}.cls-2{stroke-linejoin:round;stroke-width:2px;}.cls-3{fill:#333;}</style></defs><title>Articles - Excerpt</title><g id="Layer_2" data-name="Layer 2"><g id="Articles_-_Excerpt" data-name="Articles - Excerpt"><g id="Articles_-_List" data-name="Articles - List"><path class="cls-1" d="M121.52,10.93a12.16,12.16,0,0,1,.48,3.38V27.69A12.35,12.35,0,0,1,109.69,40H14.31A12.35,12.35,0,0,1,2,27.69V14.31A12.35,12.35,0,0,1,14.31,2h95.38a12.11,12.11,0,0,1,4.4.82"/><path class="cls-1" d="M121.52,76.93a12.16,12.16,0,0,1,.48,3.38V93.69A12.35,12.35,0,0,1,109.69,106H14.31A12.35,12.35,0,0,1,2,93.69V80.31A12.35,12.35,0,0,1,14.31,68h95.38a12.11,12.11,0,0,1,4.4.82"/><g id="Post_Frame" data-name="Post Frame"><line class="cls-2" x1="14" y1="115" x2="110" y2="115"/><line class="cls-2" x1="14" y1="122" x2="82" y2="122"/><circle class="cls-3" cx="88" cy="122" r="1"/></g><g id="Post_Frame-2" data-name="Post Frame"><line class="cls-2" x1="14" y1="49" x2="110" y2="49"/><line class="cls-2" x1="14" y1="56" x2="82" y2="56"/><circle class="cls-3" cx="88" cy="56" r="1"/></g><circle class="cls-3" cx="118" cy="6" r="2"/><circle class="cls-3" cx="118" cy="72" r="2"/></g></g></g></svg>