<svg xmlns="http://www.w3.org/2000/svg" viewBox="0 0 124.12 124"><defs><style>.cls-1,.cls-3{fill:none;stroke:#333;stroke-linecap:round;}.cls-1{stroke-linejoin:round;stroke-width:2px;}.cls-2{fill:#333;}.cls-3{stroke-miterlimit:10;stroke-width:4px;}</style></defs><title>Articles - Date</title><g id="Layer_2" data-name="Layer 2"><g id="Articles_-_Date" data-name="Articles - Date"><g id="Articles_-_Date-2" data-name="Articles - Date"><circle class="cls-1" cx="20" cy="52" r="2"/><circle class="cls-1" cx="34" cy="52" r="2"/><circle class="cls-1" cx="48" cy="52" r="2"/><circle class="cls-1" cx="62" cy="52" r="2"/><circle class="cls-1" cx="76" cy="52" r="4"/><circle class="cls-1" cx="90" cy="52" r="2"/><circle class="cls-1" cx="104" cy="52" r="2"/><circle class="cls-1" cx="20" cy="36" r="2"/><circle class="cls-1" cx="34" cy="36" r="2"/><circle class="cls-1" cx="48" cy="36" r="2"/><circle class="cls-1" cx="62" cy="36" r="2"/><circle class="cls-1" cx="76" cy="36" r="2"/><circle class="cls-1" cx="90" cy="36" r="2"/><circle class="cls-1" cx="104" cy="36" r="2"/><circle class="cls-1" cx="90" cy="68" r="2"/><circle class="cls-1" cx="104" cy="68" r="2"/><circle class="cls-1" cx="20" cy="68" r="2"/><circle class="cls-1" cx="34" cy="68" r="2"/><circle class="cls-1" cx="48" cy="68" r="2"/><circle class="cls-1" cx="62" cy="68" r="2"/><circle class="cls-1" cx="76" cy="68" r="2"/><circle class="cls-1" cx="90" cy="84" r="2"/><circle class="cls-1" cx="76" cy="84" r="2"/><circle class="cls-1" cx="20" cy="84" r="2"/><circle class="cls-1" cx="34" cy="84" r="2"/><circle class="cls-1" cx="48" cy="84" r="2"/><circle class="cls-1" cx="62" cy="84" r="2"/><g id="Post_Frame" data-name="Post Frame"><line class="cls-1" x1="14" y1="116" x2="110" y2="116"/><line class="cls-1" x1="14" y1="123" x2="82" y2="123"/><circle class="cls-2" cx="88" cy="123" r="1"/><circle class="cls-2" cx="122" cy="35" r="2"/><path class="cls-3" d="M122,40.93V95.54c1,6.3-4.16,11.46-10.46,11.46H13.46A11.5,11.5,0,0,1,2,95.54V21.46A11.5,11.5,0,0,1,13.46,10h98.08c6.3,0,11.46,5.16,10.46,11.46v3.2"/></g><line class="cls-3" x1="22" y1="2" x2="22" y2="14"/><line class="cls-3" x1="102" y1="3" x2="102" y2="15"/></g></g></g></svg>