<svg xmlns="http://www.w3.org/2000/svg" viewBox="0 0 124.12 123"><defs><style>.cls-1,.cls-3{fill:none;stroke:#333;stroke-linecap:round;}.cls-1{stroke-linejoin:round;stroke-width:2px;}.cls-2{fill:#333;}.cls-3{stroke-miterlimit:10;stroke-width:4px;}</style></defs><title>Articles - Title</title><g id="Layer_2" data-name="Layer 2"><g id="Articles_-_Title" data-name="Articles - Title"><g id="Articles_-_Title-2" data-name="Articles - Title"><path class="cls-1" d="M70.92,74.41v8h8V83H45.32v-.64h8V27.72a17.65,17.65,0,0,0-2.48.2,10.47,10.47,0,0,0-2.8.84,14.08,14.08,0,0,0-3,1.84,13.71,13.71,0,0,0-2.88,3.28,25.81,25.81,0,0,0-3.48,7,24.61,24.61,0,0,0-.92,6.8H37V27H87V47.88h-.72A18.19,18.19,0,0,0,85,41.08a38.93,38.93,0,0,0-3.84-7,19.42,19.42,0,0,0-2.8-3.32,13.06,13.06,0,0,0-2.64-1.92,8.14,8.14,0,0,0-2.48-.88,14.45,14.45,0,0,0-2.32-.2V65.86"/><circle class="cls-2" cx="71" cy="70" r="1"/><g id="Post_Frame" data-name="Post Frame"><line class="cls-1" x1="14" y1="115" x2="110" y2="115"/><line class="cls-1" x1="14" y1="122" x2="82" y2="122"/><circle class="cls-2" cx="88" cy="122" r="1"/><circle class="cls-2" cx="122" cy="34" r="2"/><path class="cls-3" d="M122,39.93V94.54c1,6.3-4.16,11.46-10.46,11.46H13.46A11.5,11.5,0,0,1,2,94.54V13.46A11.5,11.5,0,0,1,13.46,2h98.08C117.84,2,123,7.16,122,13.46v10.2"/></g></g></g></g></svg>