<svg xmlns="http://www.w3.org/2000/svg" viewBox="0 0 124.12 123"><defs><style>.cls-1,.cls-3{fill:none;stroke:#333;stroke-linecap:round;}.cls-1{stroke-linejoin:round;stroke-width:2px;}.cls-2{fill:#333;}.cls-3{stroke-miterlimit:10;stroke-width:4px;}</style></defs><title>Articles - Image</title><g id="Layer_2" data-name="Layer 2"><g id="Articles_-_Image" data-name="Articles - Image"><g id="Articles_-_Excerpt" data-name="Articles - Excerpt"><line class="cls-1" x1="27" y1="62" x2="97" y2="62"/><line class="cls-1" x1="27" y1="76" x2="77" y2="76"/><line class="cls-1" x1="27" y1="48" x2="97" y2="48"/><line class="cls-1" x1="27" y1="34" x2="97" y2="34"/><g id="Post_Frame" data-name="Post Frame"><line class="cls-1" x1="14" y1="115" x2="110" y2="115"/><line class="cls-1" x1="14" y1="122" x2="82" y2="122"/><circle class="cls-2" cx="88" cy="122" r="1"/><circle class="cls-2" cx="122" cy="34" r="2"/><path class="cls-3" d="M122,39.93V94.54c1,6.3-4.16,11.46-10.46,11.46H13.46A11.5,11.5,0,0,1,2,94.54V13.46A11.5,11.5,0,0,1,13.46,2h98.08C117.84,2,123,7.16,122,13.46v10.2"/></g></g></g></g></svg>