<svg xmlns="http://www.w3.org/2000/svg" viewBox="0 0 124 52"><defs><style>.cls-1{fill:#333;}.cls-2,.cls-3{fill:none;stroke:#333;stroke-linecap:round;stroke-miterlimit:10;}.cls-2{stroke-width:2px;}.cls-3{stroke-width:4px;}</style></defs><title>Forms - Number Range</title><g id="Layer_2" data-name="Layer 2"><g id="Forms_-_Number_Range" data-name="Forms - Number Range"><g id="Forms_-_Number_Range-2" data-name="Forms - Number Range"><path class="cls-1" d="M54.1,35a2,2,0,0,1-2,2,1.94,1.94,0,0,1-1.43-.6A1.9,1.9,0,0,1,50,35V21H47.16a1.92,1.92,0,0,1-1.44-.61,2,2,0,0,1,1.44-3.47h4.9a2,2,0,0,1,2,2Z"/><line class="cls-2" x1="85.4" y1="26" x2="123" y2="26"/><line class="cls-3" x1="8" y1="26" x2="27" y2="26"/><circle class="cls-3" cx="51" cy="26" r="24"/><circle class="cls-1" cx="2" cy="26" r="2"/></g></g></g></svg>