<svg xmlns="http://www.w3.org/2000/svg" viewBox="0 0 124 68"><defs><style>.cls-1,.cls-2{fill:none;stroke:#333;stroke-linecap:round;}.cls-1{stroke-linejoin:round;stroke-width:2px;}.cls-2{stroke-miterlimit:10;stroke-width:4px;}.cls-3{fill:#333;}</style></defs><title>Forms - File Field</title><g id="Layer_2" data-name="Layer 2"><g id="Forms_-_File_Field" data-name="Forms - File Field"><g id="Forms_-_File_Field-2" data-name="Forms - File Field"><path class="cls-1" d="M109,20s6,.49,6-5.75a7,7,0,0,0-4.65-6.84,2.67,2.67,0,0,1-1.57-1.71C108.28,3.93,106.59,1,101,1c-5.31,0-6.21,4-6.22,6.63a2.23,2.23,0,0,1-2.24,2.2c-2.35,0-5.65.51-6.54,3.17,0,0-3,7,7,7Z"/><path class="cls-1" d="M88,7a4,4,0,0,1,4-4"/><path class="cls-2" d="M122,30.92V60.63A5.38,5.38,0,0,1,116.63,66H7.37A5.38,5.38,0,0,1,2,60.63V23.37A5.38,5.38,0,0,1,7.37,18H64.48"/><circle class="cls-3" cx="71" cy="18" r="2"/></g></g></g></svg>