<svg xmlns="http://www.w3.org/2000/svg" viewBox="0 0 124 66.2"><defs><style>.cls-1,.cls-2{fill:none;stroke:#333;stroke-linecap:round;stroke-miterlimit:10;}.cls-1{stroke-width:4px;}.cls-2{stroke-width:2px;}.cls-3{fill:#333;}</style></defs><title>Forms - Hidden Field</title><g id="Layer_2" data-name="Layer 2"><g id="Forms_-_Hidden_Field" data-name="Forms - Hidden Field"><g id="Forms_-_Hidden_Field-2" data-name="Forms - Hidden Field"><path class="cls-1" d="M122,29.12V58.83a5.38,5.38,0,0,1-5.37,5.37H7.37A5.38,5.38,0,0,1,2,58.83V21.57A5.38,5.38,0,0,1,7.37,16.2H64.48"/><path class="cls-2" d="M86,10.2c2.75-5.91,8.57-7.8,15-8,9.52-.3,14.76,7.62,15,8"/><path class="cls-2" d="M86,10.19c2.75,5.92,8.57,7.8,15,8,9.52.3,14.76-7.62,15-8"/><line class="cls-2" x1="86" y1="18.4" x2="115" y2="1"/><circle class="cls-3" cx="71" cy="16.2" r="2"/></g></g></g></svg>