<svg xmlns="http://www.w3.org/2000/svg" viewBox="0 0 124 52"><defs><style>.cls-1,.cls-2,.cls-3{fill:none;stroke:#333;stroke-linecap:round;}.cls-1,.cls-2{stroke-miterlimit:10;}.cls-1{stroke-width:4px;}.cls-2,.cls-3{stroke-width:2px;}.cls-3{stroke-linejoin:round;}.cls-4{fill:#333;}</style></defs><title>Forms - Input Field</title><g id="Layer_2" data-name="Layer 2"><g id="Forms_-_Input_Field" data-name="Forms - Input Field"><g id="Forms_-_Input_Field-2" data-name="Forms - Input Field"><path class="cls-1" d="M113.21,2h2.47A6.32,6.32,0,0,1,122,8.32V43.68A6.32,6.32,0,0,1,115.68,50H8.32A6.32,6.32,0,0,1,2,43.68V8.32A6.32,6.32,0,0,1,8.32,2H99.79"/><path class="cls-2" d="M24,21c0-4.42-.47-5-6-5"/><path class="cls-2" d="M24,21c0-4.42.47-5,6-5"/><path class="cls-2" d="M24,31c0,4.42-.47,5-6,5"/><path class="cls-2" d="M24,31c0,4.42.47,5,6,5"/><line class="cls-3" x1="24" y1="17" x2="24" y2="35"/><circle class="cls-4" cx="107" cy="2" r="2"/></g></g></g></svg>