<svg xmlns="http://www.w3.org/2000/svg" viewBox="0 0 124 65"><defs><style>.cls-1,.cls-2,.cls-3{fill:none;stroke:#333;stroke-linecap:round;}.cls-1,.cls-3{stroke-miterlimit:10;}.cls-1,.cls-2{stroke-width:2px;}.cls-2{stroke-linejoin:round;}.cls-3{stroke-width:4px;}.cls-4{fill:#333;}</style></defs><title>Forms - Big Text Field</title><g id="Layer_2" data-name="Layer 2"><g id="Forms_-_Big_Text_Field" data-name="Forms - Big Text Field"><g id="Forms_-_Big_Text_Field-2" data-name="Forms - Big Text Field"><path class="cls-1" d="M24,34c0-4.42-.47-5-6-5"/><path class="cls-1" d="M24,34c0-4.42.47-5,6-5"/><path class="cls-1" d="M24,44c0,4.42-.47,5-6,5"/><path class="cls-1" d="M24,44c0,4.42.47,5,6,5"/><line class="cls-2" x1="24" y1="30" x2="24" y2="48"/><line class="cls-1" x1="106" y1="1" x2="106" y2="17"/><line class="cls-1" x1="106" y1="17" x2="114" y2="17"/><line class="cls-1" x1="99" y1="1" x2="88" y2="17"/><line class="cls-1" x1="99" y1="17" x2="88" y2="1"/><path class="cls-3" d="M122,27.92V57.63A5.38,5.38,0,0,1,116.63,63H7.37A5.38,5.38,0,0,1,2,57.63V20.37A5.38,5.38,0,0,1,7.37,15H64.48"/><circle class="cls-4" cx="71" cy="15" r="2"/></g></g></g></svg>