<svg xmlns="http://www.w3.org/2000/svg" viewBox="0 0 122.11 122.18"><defs><style>.cls-1,.cls-2,.cls-3{fill:none;stroke:#333;stroke-linecap:round;}.cls-1{stroke-linejoin:round;stroke-dasharray:6 15;}.cls-1,.cls-2{stroke-width:4px;}.cls-2,.cls-3{stroke-miterlimit:10;}.cls-3{stroke-width:2px;}.cls-4{fill:#333;}</style></defs><title>Free Positioning - Polygone Tooltip</title><g id="Layer_2" data-name="Layer 2"><g id="Free_Positioning_-_Polygone_Tooltip" data-name="Free Positioning - Polygone Tooltip"><g id="Free_Positioning_-_Polygone_Tooltip-2" data-name="Free Positioning - Polygone Tooltip"><path class="cls-1" d="M13.31,31.14,15.75,22A8.57,8.57,0,0,1,21.8,15.9L72.29,2.3a8.56,8.56,0,0,1,8.28,2.2l37,36.92a8.56,8.56,0,0,1,2.23,8.27l-13.46,50.53a8.56,8.56,0,0,1-6,6.06L49.82,119.89a8.59,8.59,0,0,1-8.28-2.21l-37-36.92a8.55,8.55,0,0,1-2.23-8.27L5,62.32"/><path class="cls-2" d="M64.94,41.59h6.92a6.21,6.21,0,0,1,6.19,6.2v15.6a6.21,6.21,0,0,1-6.19,6.2H47.07l-6,7-6.18-7H10.25a6.22,6.22,0,0,1-6.2-6.2V47.79a6.22,6.22,0,0,1,6.2-6.2H49.48"/><line class="cls-3" x1="19.05" y1="53.09" x2="64.05" y2="53.09"/><line class="cls-3" x1="19.05" y1="58.09" x2="52.05" y2="58.09"/><circle class="cls-4" cx="56.05" cy="42.09" r="2"/></g></g></g></svg>