<svg xmlns="http://www.w3.org/2000/svg" viewBox="0 0 122.11 122.18"><defs><style>.cls-1{fill:none;stroke:#333;stroke-linecap:round;stroke-linejoin:round;stroke-width:4px;stroke-dasharray:6 15;}</style></defs><title>Free Positioning - Polygone</title><g id="Layer_2" data-name="Layer 2"><g id="Free_Positioning_-_Polygone" data-name="Free Positioning - Polygone"><path id="Free_Positioning_-_Polygone-2" data-name="Free Positioning - Polygone" class="cls-1" d="M100.31,106.28,49.82,119.89a8.59,8.59,0,0,1-8.28-2.21l-8.1-8.08L22.9,99.09l-9.77-9.75L4.52,80.76a8.55,8.55,0,0,1-2.23-8.27L15.75,22A8.57,8.57,0,0,1,21.8,15.9L72.29,2.3a8.56,8.56,0,0,1,8.28,2.2l37,36.92a8.56,8.56,0,0,1,2.23,8.27l-13.46,50.53A8.56,8.56,0,0,1,100.31,106.28Z"/></g></g></svg>