<svg xmlns="http://www.w3.org/2000/svg" viewBox="0 0 123.94 122"><defs><style>.cls-1{fill:#333;}.cls-2{fill:none;stroke:#333;stroke-linecap:round;stroke-miterlimit:10;stroke-width:4px;}</style></defs><title>General - Text</title><g id="Layer_2" data-name="Layer 2"><g id="General_-_Text" data-name="General - Text"><g id="General_-_Text-2" data-name="General - Text"><path class="cls-1" d="M29.54,68.05H10a1.43,1.43,0,0,0-1.26.75L2.28,80.89A1.41,1.41,0,0,1,1,81.64H0L23.92,36.91a1.42,1.42,0,0,1,1.23-.75h0a1.43,1.43,0,0,1,1.42,1.16l8.34,43.34a.83.83,0,0,1-.81,1H34a.83.83,0,0,1-.81-.67L30.94,69.21A1.43,1.43,0,0,0,29.54,68.05ZM12.41,66.36H28.66a1.42,1.42,0,0,0,1.4-1.68L25.87,42.24a1.43,1.43,0,0,0-2.66-.41l-12,22.44A1.41,1.41,0,0,0,12.41,66.36Z"/><path class="cls-1" d="M54.41,82.27a12.38,12.38,0,0,1-6.21-1.53,9.32,9.32,0,0,1-2.94-2.6.82.82,0,0,0-1.47.34L43.34,81a.82.82,0,0,1-.81.67h0a.82.82,0,0,1-.81-1l8-46.35a.84.84,0,0,1,.82-.69h0a.83.83,0,0,1,.81,1L48.42,51a.82.82,0,0,0,1.4.71A15.44,15.44,0,0,1,53.36,49a13.63,13.63,0,0,1,6.76-1.75,9.51,9.51,0,0,1,5.6,1.62,9.32,9.32,0,0,1,3.39,4.77,19.13,19.13,0,0,1,1,6.95,35.46,35.46,0,0,1-.37,3.84l-.41,2.07A24.44,24.44,0,0,1,63.72,78,12.32,12.32,0,0,1,54.41,82.27ZM67.94,64.39l.37-3.34a17.8,17.8,0,0,0-.58-6.31A8,8,0,0,0,65,50.36a7.74,7.74,0,0,0-4.79-1.47,13.7,13.7,0,0,0-7.83,2.5,12.16,12.16,0,0,0-4.9,6.12.83.83,0,0,0,0,.15L44.66,72.91a1,1,0,0,0,0,.35A8.84,8.84,0,0,0,48,78.64a10.43,10.43,0,0,0,6.43,1.94,10.79,10.79,0,0,0,8.53-4.14q3.5-4.14,4.87-11.39Z"/><path class="cls-1" d="M87.34,80.58a12.21,12.21,0,0,0,7.71-2.53,12,12,0,0,0,4.18-6,.83.83,0,0,1,.79-.59h0a.82.82,0,0,1,.8,1,13.61,13.61,0,0,1-4.63,6.81,13.77,13.77,0,0,1-8.81,3,10.18,10.18,0,0,1-7.55-2.89,13.09,13.09,0,0,1-3.49-8,23,23,0,0,1,.1-6l.18-1.31a25.9,25.9,0,0,1,3.11-8.9,16.75,16.75,0,0,1,5.57-6,13.46,13.46,0,0,1,7.2-2,10.14,10.14,0,0,1,8,3.31,10.8,10.8,0,0,1,2.58,7.67.83.83,0,0,1-.83.8h0a.83.83,0,0,1-.82-.88,8.93,8.93,0,0,0-2.13-6.42,8.63,8.63,0,0,0-6.77-2.8,12.1,12.1,0,0,0-9.81,4.83Q78.81,58.55,78,66.64l-.12,2.25a.2.2,0,0,0,0,.07q0,5.48,2.47,8.54A8.48,8.48,0,0,0,87.34,80.58Z"/><line class="cls-2" x1="108.94" y1="7.5" x2="108.94" y2="114.5"/><path class="cls-2" d="M108.94,112c0,4.42,7.47,8,13,8"/><path class="cls-2" d="M108.94,112c0,4.42-7.48,8-13,8"/><path class="cls-2" d="M108.94,10c0-4.42,7.47-8,13-8"/><path class="cls-2" d="M108.94,10c0-4.42-7.48-8-13-8"/></g></g></g></svg>