<svg xmlns="http://www.w3.org/2000/svg" viewBox="0 0 124 124"><defs><style>.cls-1,.cls-2{fill:none;stroke:#333;stroke-linecap:round;}.cls-1{stroke-miterlimit:10;stroke-width:4px;}.cls-2{stroke-linejoin:round;stroke-width:2px;}.cls-3{fill:#333;}</style></defs><title>General - Self Hosted Video</title><g id="Layer_2" data-name="Layer 2"><g id="General_-_Self_Hosted_Video" data-name="General - Self Hosted Video"><g id="General_-_Self_Hosted_Video-2" data-name="General - Self Hosted Video"><path class="cls-1" d="M40,122H13.09A11.2,11.2,0,0,1,2,110.75V13.25A11.2,11.2,0,0,1,13.09,2H39.81"/><path class="cls-1" d="M122,25.7V13.25A11.2,11.2,0,0,0,110.91,2H84.19"/><path class="cls-1" d="M84,122h26.91A11.2,11.2,0,0,0,122,110.75v-60"/><path class="cls-2" d="M66.68,52.21l-14.1-7.59a2.09,2.09,0,0,0-3.08,1.84V77.29a2.1,2.1,0,0,0,3.19,1.79L79.41,62.63A2.09,2.09,0,0,0,79.3,59L73.62,56"/><circle class="cls-3" cx="122" cy="37" r="2"/></g></g></g></svg>