<svg xmlns="http://www.w3.org/2000/svg" viewBox="0 0 123.01 120.38"><defs><style>.cls-1,.cls-2{fill:none;stroke:#333;stroke-linecap:round;}.cls-1{stroke-miterlimit:10;stroke-width:4px;}.cls-2{stroke-linejoin:round;stroke-width:2px;}.cls-3{fill:#333;}</style></defs><title>General - Icon</title><g id="Layer_2" data-name="Layer 2"><g id="General_-_Icon" data-name="General - Icon"><g id="General_-_Icon-2" data-name="General - Icon"><path class="cls-1" d="M26.59,87.36l1.12-6.55A6.1,6.1,0,0,0,26,75.42L3.85,53.86A6.09,6.09,0,0,1,7.22,43.47L37.78,39a6.11,6.11,0,0,0,4.59-3.33L57.89,4.24a4,4,0,0,1,7.22,0l13.3,27"/><path class="cls-1" d="M91.73,41.32,117.38,45c3.12.53,5.39,5.3,1.77,8.82L97,75.42a6.1,6.1,0,0,0-1.75,5.39l5.22,30.44a6.09,6.09,0,0,1-8.84,6.42L64.34,103.3a6.13,6.13,0,0,0-5.68,0L31.33,117.67a6.09,6.09,0,0,1-8.84-6.42l1.33-7.77"/><path class="cls-2" d="M66.79,33.5S71.25,47,74.62,49.36s16.59,4.23,16.59,4.23"/><circle class="cls-3" cx="97.5" cy="54.57" r="1"/><circle class="cls-3" cx="25.5" cy="94.57" r="2"/></g></g></g></svg>