<svg xmlns="http://www.w3.org/2000/svg" viewBox="0 0 124 124"><defs><style>.cls-1,.cls-2{fill:none;stroke:#333;stroke-linecap:round;stroke-linejoin:round;}.cls-1{stroke-width:2px;}.cls-2{stroke-width:4px;}.cls-3{fill:#333;}</style></defs><title>General - Video</title><g id="Layer_2" data-name="Layer 2"><g id="General_-_Video" data-name="General - Video"><g id="General_-_Video-2" data-name="General - Video"><path class="cls-1" d="M62.34,49.88l-9.81-5.29a2.06,2.06,0,0,0-3,1.81v31a2.05,2.05,0,0,0,3.13,1.75L79.46,62.6a2.06,2.06,0,0,0-.1-3.56l-5.54-3"/><path class="cls-2" d="M110,119a443.51,443.51,0,0,1-48,3,443.51,443.51,0,0,1-48-3A12,12,0,0,1,2,107V17A12,12,0,0,1,14,5S39,2,61,2s49,3,49,3a12,12,0,0,1,12,12v90A12,12,0,0,1,110,119Z"/><path class="cls-1" d="M92,14s13,0,16,3,3,14,3,14"/><circle class="cls-3" cx="111" cy="38" r="1"/></g></g></g></svg>