<svg xmlns="http://www.w3.org/2000/svg" viewBox="0 0 124 124"><defs><style>.cls-1,.cls-2{fill:none;stroke:#333;stroke-linecap:round;stroke-linejoin:round;}.cls-1{stroke-width:2px;}.cls-2{stroke-width:4px;}.cls-3{fill:#333;}</style></defs><title>General - Tabs</title><g id="Layer_2" data-name="Layer 2"><g id="General_-_Tabs" data-name="General - Tabs"><g id="General_-_Tabs-2" data-name="General - Tabs"><path class="cls-1" d="M50.49,3H111a12,12,0,0,1,12,12v5"/><path class="cls-2" d="M2,81.88V14A12,12,0,0,1,14,2H45.1l3.36,20H110a12,12,0,0,1,12,12v76a12,12,0,0,1-12,12H14A12,12,0,0,1,2,110V99"/><circle class="cls-3" cx="2" cy="89" r="2"/><line class="cls-1" x1="27" y1="77" x2="97" y2="77"/><line class="cls-1" x1="27" y1="91" x2="77" y2="91"/><line class="cls-1" x1="27" y1="63" x2="97" y2="63"/><line class="cls-1" x1="27" y1="49" x2="97" y2="49"/></g></g></g></svg>