<svg xmlns="http://www.w3.org/2000/svg" viewBox="0 0 124 124"><defs><style>.cls-1,.cls-2{fill:none;stroke:#333;stroke-linecap:round;}.cls-1{stroke-miterlimit:10;stroke-width:4px;}.cls-2{stroke-linejoin:round;stroke-width:2px;}.cls-3{fill:#333;}</style></defs><title>General - Google Map</title><g id="Layer_2" data-name="Layer 2"><g id="General_-_Google_Map" data-name="General - Google Map"><g id="General_-_Google_Map-2" data-name="General - Google Map"><path class="cls-1" d="M2,86.24v-73A11.28,11.28,0,0,1,13.25,2h97.5A11.28,11.28,0,0,1,122,13.25v97.5A11.28,11.28,0,0,1,110.75,122H13.25A11.28,11.28,0,0,1,2,110.75v-6.37"/><polyline class="cls-2" points="121.88 36.39 85 74 122.27 110.56"/><polyline class="cls-2" points="108.8 121.52 73.35 86.76 38.79 122"/><path class="cls-3" d="M39.49,11.33a25,25,0,0,0-25,25A24.59,24.59,0,0,0,14.94,41c0,.09.07.37.17.84a24.85,24.85,0,0,0,1.68,4.92c2.69,6.34,8.61,16.08,21.6,26.51a1.77,1.77,0,0,0,2.22,0c13-10.43,18.91-20.17,21.6-26.51a24.42,24.42,0,0,0,1.68-4.92c.1-.47.15-.75.17-.84a26.32,26.32,0,0,0,.44-4.69A25.06,25.06,0,0,0,39.49,11.33ZM60.55,40.4s0,.05,0,.07,0,.27-.12.57v0A20.2,20.2,0,0,1,59,45.32l0,.06C56.5,51.16,51.14,60,39.49,69.63,27.83,60,22.47,51.16,20,45.38c0,0,0,0,0-.06a21.83,21.83,0,0,1-1.45-4.26v0c-.08-.3-.1-.5-.12-.57s0,0,0-.09a21.46,21.46,0,1,1,42.13,0Z"/><path class="cls-3" d="M39.49,20.73A15.87,15.87,0,1,0,55.35,36.59,15.89,15.89,0,0,0,39.49,20.73Zm0,28.2A12.34,12.34,0,1,1,51.82,36.59,12.35,12.35,0,0,1,39.49,48.93Z"/><line class="cls-2" x1="108.8" y1="23.32" x2="121" y2="11"/><line class="cls-2" x1="11" y1="122" x2="95.13" y2="37.1"/><circle class="cls-3" cx="2" cy="98" r="2"/><circle class="cls-3" cx="100" cy="32" r="1"/></g></g></g></svg>