<svg xmlns="http://www.w3.org/2000/svg" viewBox="0 0 108 120"><defs><style>.cls-1{fill:#333;}.cls-2,.cls-3{fill:none;stroke:#333;stroke-linecap:round;stroke-linejoin:round;}.cls-2{stroke-width:2px;}.cls-3{stroke-width:4px;}</style></defs><title>General - Headings</title><g id="Layer_2" data-name="Layer 2"><g id="General_-_Headings" data-name="General - Headings"><g id="General_-_Headings-2" data-name="General - Headings"><circle class="cls-1" cx="72" cy="96" r="2"/><line class="cls-2" x1="54" y1="18" x2="54" y2="102"/><path class="cls-3" d="M9.17,22.27a43.78,43.78,0,0,0-3.59,8.56A50.44,50.44,0,0,0,3.66,44.92H2V2H106V45.25h-1.5a37.51,37.51,0,0,0-2.66-14.08,81.76,81.76,0,0,0-8-14.59A40.45,40.45,0,0,0,88,9.71a27.32,27.32,0,0,0-5.49-4,16.93,16.93,0,0,0-5.16-1.82,29,29,0,0,0-4.83-.42v77M72,103v14l17.19-.33V118H19.31v-1.33H36V3.49a35.26,35.26,0,0,0-5.16.42A22,22,0,0,0,25,5.65a28.87,28.87,0,0,0-6.15,3.81,24.39,24.39,0,0,0-3.72,3.69"/></g></g></g></svg>