<svg xmlns="http://www.w3.org/2000/svg" viewBox="0 0 122 122"><defs><style>.cls-1,.cls-2,.cls-4{fill:none;stroke:#333;stroke-linecap:round;}.cls-1{stroke-miterlimit:10;}.cls-1,.cls-2{stroke-width:2px;}.cls-2,.cls-4{stroke-linejoin:round;}.cls-3{fill:#333;}.cls-4{stroke-width:4px;}</style></defs><title>General - Free Positioning</title><g id="Layer_2" data-name="Layer 2"><g id="General_-_Free_Positioning" data-name="General - Free Positioning"><g id="General_-_Free_Positioning-2" data-name="General - Free Positioning"><line class="cls-1" x1="6" y1="44" x2="14" y2="44"/><line class="cls-1" x1="6" y1="29" x2="14" y2="29"/><line class="cls-1" x1="6" y1="61" x2="14" y2="61"/><line class="cls-1" x1="6" y1="93" x2="14" y2="93"/><line class="cls-1" x1="6" y1="77" x2="14" y2="77"/><line class="cls-1" x1="78" y1="108" x2="78" y2="116"/><line class="cls-1" x1="93" y1="108" x2="93" y2="116"/><line class="cls-1" x1="61" y1="108" x2="61" y2="116"/><line class="cls-1" x1="29" y1="108" x2="29" y2="116"/><line class="cls-1" x1="45" y1="108" x2="45" y2="116"/><line class="cls-2" x1="10" y1="121" x2="10" y2="13"/><line class="cls-2" x1="1" y1="112" x2="109" y2="112"/><polyline class="cls-2" points="1 11 10 1 19 11"/><polyline class="cls-2" points="111 103 121 112 111 121"/><circle class="cls-3" cx="101" cy="41" r="2"/><path class="cls-4" d="M101,47.16V64.89A4.12,4.12,0,0,1,96.89,69H57.11A4.12,4.12,0,0,1,53,64.89V25.11A4.12,4.12,0,0,1,57.11,21H96.89A4.12,4.12,0,0,1,101,25.11v8.22"/></g></g></g></svg>