<svg xmlns="http://www.w3.org/2000/svg" viewBox="0 0 124 126"><defs><style>.cls-1{fill:#333;}.cls-2,.cls-3,.cls-4,.cls-5{fill:none;stroke:#333;stroke-linecap:round;}.cls-2,.cls-3{stroke-miterlimit:10;}.cls-2,.cls-4{stroke-width:2px;}.cls-3,.cls-5{stroke-width:4px;}.cls-4,.cls-5{stroke-linejoin:round;}</style></defs><title>General - Image</title><g id="Layer_2" data-name="Layer 2"><g id="General_-_Image" data-name="General - Image"><g id="General_-_Image-2" data-name="General - Image"><circle class="cls-1" cx="12" cy="30" r="1"/><path class="cls-2" d="M66,29.62A9.89,9.89,0,0,1,67,34,10,10,0,1,1,57,24a9.87,9.87,0,0,1,3.89.79"/><path class="cls-3" d="M122,55.19V98.75A11.28,11.28,0,0,1,110.75,110H13.25A11.28,11.28,0,0,1,2,98.75V13.25A11.28,11.28,0,0,1,13.25,2h97.5A11.28,11.28,0,0,1,122,13.25v9.6"/><polyline class="cls-4" points="57 82 93 46 123 78"/><polyline class="cls-4" points="3 87 33 58 50.95 75.95"/><circle class="cls-1" cx="122" cy="31" r="2"/><line class="cls-5" x1="8" y1="124" x2="116" y2="124"/><path class="cls-4" d="M28.11,11s-9-1-13,3S12,25,12,25"/></g></g></g></svg>