<svg xmlns="http://www.w3.org/2000/svg" viewBox="0 0 124 124"><defs><style>.cls-1{fill:#333;}.cls-2,.cls-3{fill:none;stroke:#333;stroke-linecap:round;}.cls-2{stroke-miterlimit:10;stroke-width:4px;}.cls-3{stroke-linejoin:round;stroke-width:2px;}</style></defs><title>General - Background</title><g id="Layer_2" data-name="Layer 2"><g id="General_-_Background" data-name="General - Background"><g id="General_-_Background-2" data-name="General - Background"><path class="cls-1" d="M41,28A10,10,0,1,1,31,38,10,10,0,0,1,41,28m0-2A12,12,0,1,0,53,38,12,12,0,0,0,41,26Z"/><path class="cls-2" d="M122,49.41v61.34A11.28,11.28,0,0,1,110.75,122H13.25A11.28,11.28,0,0,1,2,110.75V13.25A11.28,11.28,0,0,1,13.25,2h97.5A11.28,11.28,0,0,1,122,13.25v15.5"/><polyline class="cls-3" points="61.28 89.72 92 59 122 91"/><polyline class="cls-3" points="2 100 32 71 56 95"/><path class="cls-3" d="M28.11,11s-9-1-13,3-3,11-3,11"/><circle class="cls-1" cx="122" cy="42" r="2"/></g></g></g></svg>