<svg xmlns="http://www.w3.org/2000/svg" viewBox="0 0 124 126"><defs><style>.cls-1,.cls-2{fill:none;stroke:#333;stroke-linecap:round;stroke-linejoin:round;}.cls-1{stroke-width:2px;}.cls-2{stroke-width:4px;}.cls-3{fill:#333;}</style></defs><title>General - Accordion</title><g id="Layer_2" data-name="Layer 2"><g id="General_-_Accordion" data-name="General - Accordion"><g id="General_-_Accrodion" data-name="General - Accrodion"><polyline class="cls-1" points="31 60 25 67 19 60"/><path class="cls-2" d="M122,77.75V83a4,4,0,0,1-4,4H6a4,4,0,0,1-4-4V43a4,4,0,0,1,4-4H118a4,4,0,0,1,4,4V61.27"/><rect class="cls-1" x="2" y="1" width="120" height="26" rx="2.09"/><rect class="cls-1" x="2" y="99" width="120" height="26" rx="2.09"/><circle class="cls-3" cx="122" cy="68" r="2"/><circle class="cls-3" cx="25" cy="14" r="2"/><circle class="cls-3" cx="25" cy="112" r="2"/></g></g></g></svg>