<svg xmlns="http://www.w3.org/2000/svg" viewBox="0 0 124 124"><defs><style>.cls-1,.cls-2,.cls-3{fill:none;stroke:#333;stroke-linecap:round;}.cls-1,.cls-3{stroke-miterlimit:10;}.cls-1{stroke-width:4px;}.cls-2{stroke-linejoin:round;}.cls-2,.cls-3{stroke-width:2px;}.cls-4{fill:#333;}</style></defs><title>General - Form Container</title><g id="Layer_2" data-name="Layer 2"><g id="General_-_Form_Container" data-name="General - Form Container"><g id="General_-_Form_Container-2" data-name="General - Form Container"><path class="cls-1" d="M2,94V13.25A11.28,11.28,0,0,1,13.25,2h97.5A11.28,11.28,0,0,1,122,13.25v97.5A11.28,11.28,0,0,1,110.75,122H13.25A11.28,11.28,0,0,1,2,110.75v-5.53"/><polyline class="cls-2" points="54 100 62 108 73 97"/><path class="cls-3" d="M100.41,19h3.85c2.62,0,2.74,1.18,2.74,2.64V36.36c0,1.46-.12,2.64-2.74,2.64H19.74C17.12,39,17,37.82,17,36.36V21.64c0-1.46.12-2.64,2.74-2.64h70.6"/><path class="cls-3" d="M100.41,44h3.85c2.62,0,2.74,1.18,2.74,2.64V61.36c0,1.46-.12,2.64-2.74,2.64H19.74C17.12,64,17,62.82,17,61.36V46.64c0-1.46.12-2.64,2.74-2.64h70.6"/><path class="cls-3" d="M100.41,69h3.85c2.62,0,2.74,1.18,2.74,2.64V86.36c0,1.46-.12,2.64-2.74,2.64H19.74C17.12,89,17,87.82,17,86.36V71.64c0-1.46.12-2.64,2.74-2.64h70.6"/><circle class="cls-4" cx="93.5" cy="19" r="1"/><circle class="cls-4" cx="94" cy="44" r="1"/><circle class="cls-4" cx="94" cy="69" r="1"/></g></g></g></svg>