<svg xmlns="http://www.w3.org/2000/svg" viewBox="0 0 124 108"><defs><style>.cls-1,.cls-2{fill:none;stroke:#333;stroke-linecap:round;stroke-miterlimit:10;}.cls-1{stroke-width:4px;}.cls-2{stroke-width:2px;}.cls-3{fill:#333;}</style></defs><title>General - Unordered List List</title><g id="Layer_2" data-name="Layer 2"><g id="General_-_Unordered_List_List" data-name="General - Unordered List List"><g id="General_-_Unordered_List" data-name="General - Unordered List"><line class="cls-1" x1="30" y1="4" x2="122" y2="4"/><line class="cls-2" x1="29" y1="13" x2="89" y2="13"/><line class="cls-1" x1="30" y1="96" x2="122" y2="96"/><line class="cls-2" x1="29" y1="105" x2="89" y2="105"/><line class="cls-1" x1="30" y1="50" x2="122" y2="50"/><line class="cls-2" x1="29" y1="59" x2="89" y2="59"/><path class="cls-3" d="M8,4A4,4,0,1,1,4,8,4,4,0,0,1,8,4M8,0a8,8,0,1,0,8,8A8,8,0,0,0,8,0Z"/><path class="cls-3" d="M8,50a4,4,0,1,1-4,4,4,4,0,0,1,4-4m0-4a8,8,0,1,0,8,8,8,8,0,0,0-8-8Z"/><path class="cls-3" d="M8,96a4,4,0,1,1-4,4,4,4,0,0,1,4-4m0-4a8,8,0,1,0,8,8,8,8,0,0,0-8-8Z"/></g></g></g></svg>