<svg xmlns="http://www.w3.org/2000/svg" viewBox="0 0 124 124"><defs><style>.cls-1{fill:#333;}.cls-2,.cls-3,.cls-4{fill:none;stroke:#333;stroke-linecap:round;}.cls-2,.cls-4{stroke-miterlimit:10;}.cls-2{stroke-width:4px;}.cls-3{stroke-linejoin:round;}.cls-3,.cls-4{stroke-width:2px;}</style></defs><title>General - Magnific popup</title><g id="Layer_2" data-name="Layer 2"><g id="General_-_Magnific_popup" data-name="General - Magnific popup"><g id="General_-_Magnific_Popup-2" data-name="General - Magnific Popup"><circle class="cls-1" cx="111" cy="31" r="1"/><path class="cls-2" d="M2,77.35V13.25A11.28,11.28,0,0,1,13.25,2h97.5A11.28,11.28,0,0,1,122,13.25v97.5A11.28,11.28,0,0,1,110.75,122H13.25A11.28,11.28,0,0,1,2,110.75V93.94"/><polyline class="cls-3" points="53 91 62 101 71 91"/><polyline class="cls-3" points="53 34 62 24 71 34"/><line class="cls-4" x1="62" y1="91" x2="62" y2="34"/><polyline class="cls-3" points="90.5 71.5 100.5 62.5 90.5 53.5"/><polyline class="cls-3" points="33.5 71.5 23.5 62.5 33.5 53.5"/><line class="cls-4" x1="90.5" y1="62.5" x2="33.5" y2="62.5"/><path class="cls-3" d="M95,12s9-1,13,3,3,11,3,11"/></g></g></g></svg>