<svg xmlns="http://www.w3.org/2000/svg" viewBox="0 0 124 114"><defs><style>.cls-1,.cls-2,.cls-4{fill:none;stroke:#333;}.cls-1,.cls-4{stroke-linecap:round;stroke-linejoin:round;}.cls-1{stroke-width:4px;}.cls-2{stroke-miterlimit:10;}.cls-2,.cls-4{stroke-width:2px;}.cls-3{fill:#333;}</style></defs><title>Products - Stock Counter</title><g id="Layer_2" data-name="Layer 2"><g id="Products_-_Stock_Counter" data-name="Products - Stock Counter"><g id="Products_-_Stock_Counter-2" data-name="Products - Stock Counter"><path class="cls-1" d="M116.7,14.06A12,12,0,0,1,122,24v76a12,12,0,0,1-12,12H14A12,12,0,0,1,2,100V24A12,12,0,0,1,14,12H75.8"/><path class="cls-2" d="M91.15,1h4a1.15,1.15,0,0,1,1.11.84c.28,1,1.13,2.49,3.75,2.49s3.47-1.5,3.75-2.49A1.15,1.15,0,0,1,104.86,1h4A1.16,1.16,0,0,1,110,2.15V6a1.16,1.16,0,0,1-1.15,1.15h-1a1.15,1.15,0,0,0-1.15,1.15V19.85A1.16,1.16,0,0,1,105.51,21h-11a1.16,1.16,0,0,1-1.16-1.15V8.26a1.15,1.15,0,0,0-1.15-1.15h-1A1.16,1.16,0,0,1,90,6V2.15A1.16,1.16,0,0,1,91.15,1Z"/><circle class="cls-3" cx="82" cy="12" r="2"/><path class="cls-4" d="M85.8,52H92a10,10,0,0,1,10,10h0A10,10,0,0,1,92,72H32A10,10,0,0,1,22,62h0A10,10,0,0,1,32,52H74.2"/><line class="cls-4" x1="35" y1="56" x2="35" y2="68"/><line class="cls-4" x1="45" y1="56" x2="45" y2="68"/><line class="cls-4" x1="55" y1="56" x2="55" y2="68"/><circle class="cls-3" cx="78" cy="52" r="1"/></g></g></g></svg>