<svg xmlns="http://www.w3.org/2000/svg" viewBox="0 0 124 62"><defs><style>.cls-1,.cls-3,.cls-4{fill:none;stroke:#333;}.cls-1,.cls-3{stroke-linecap:round;}.cls-1,.cls-4{stroke-miterlimit:10;}.cls-1{stroke-width:4px;}.cls-2{fill:#333;}.cls-3{stroke-linejoin:round;}.cls-3,.cls-4{stroke-width:2px;}</style></defs><title>Products - Cart Button</title><g id="Layer_2" data-name="Layer 2"><g id="Products_-_Cart_Button" data-name="Products - Cart Button"><g id="Products_-_Cart_Button-2" data-name="Products - Cart Button"><path class="cls-1" d="M113.21,12h2.47A6.32,6.32,0,0,1,122,18.32V53.68A6.32,6.32,0,0,1,115.68,60H8.32A6.32,6.32,0,0,1,2,53.68V18.32A6.32,6.32,0,0,1,8.32,12H72"/><circle class="cls-2" cx="80" cy="12" r="2"/><polyline class="cls-3" points="49 27 53 27 57 42 69 42 72 30 62 30"/><line class="cls-3" x1="59" y1="47" x2="60" y2="47"/><line class="cls-3" x1="65" y1="47" x2="66" y2="47"/><path class="cls-4" d="M88.15,1h4a1.15,1.15,0,0,1,1.11.84c.28,1,1.13,2.49,3.75,2.49s3.47-1.5,3.75-2.49A1.15,1.15,0,0,1,101.86,1h4A1.16,1.16,0,0,1,107,2.15V6a1.16,1.16,0,0,1-1.15,1.15h-1a1.15,1.15,0,0,0-1.15,1.15V19.85A1.16,1.16,0,0,1,102.51,21h-11a1.16,1.16,0,0,1-1.16-1.15V8.26a1.15,1.15,0,0,0-1.15-1.15h-1A1.16,1.16,0,0,1,87,6V2.15A1.16,1.16,0,0,1,88.15,1Z"/></g></g></g></svg>