<svg xmlns="http://www.w3.org/2000/svg" viewBox="0 0 124 114"><defs><style>.cls-1{fill:#333;}.cls-2,.cls-3{fill:none;stroke:#333;}.cls-2{stroke-linecap:round;stroke-linejoin:round;stroke-width:4px;}.cls-3{stroke-miterlimit:10;stroke-width:2px;}</style></defs><title>Products - Price</title><g id="Layer_2" data-name="Layer 2"><g id="Products_-_Price" data-name="Products - Price"><g id="Products_-_Price-2" data-name="Products - Price"><path class="cls-1" d="M58,56.52A3.78,3.78,0,0,1,57.13,54q0-3.53,5.25-3.52,4.93,0,7.42,1.47l-1,.76a.9.9,0,0,1-.82.15,18.45,18.45,0,0,0-5.59-.62,5.78,5.78,0,0,0-2.82.46,1.47,1.47,0,0,0-.72,1.3,2,2,0,0,0,.39,1.29,1.81,1.81,0,0,0,1.44.47h3a15,15,0,0,1,5.94,1.12A11.91,11.91,0,0,1,74,59.91a13.7,13.7,0,0,1,2.61,4.47,16,16,0,0,1,.91,5.41,14.72,14.72,0,0,1-.66,4.44,12.76,12.76,0,0,1-2,3.86,14,14,0,0,1-3.2,3,15,15,0,0,1-4.45,2,20.57,20.57,0,0,1-5.57.72,26.76,26.76,0,0,1-8.83-1.43,19.52,19.52,0,0,1-6-3.28.86.86,0,0,1,.06-1.35h0a.86.86,0,0,1,1.07,0,17.68,17.68,0,0,0,5.72,3,25.52,25.52,0,0,0,8,1.23,17.93,17.93,0,0,0,6-1,12.16,12.16,0,0,0,4.44-2.65,11.69,11.69,0,0,0,2.69-3.91,12.24,12.24,0,0,0,.94-4.78,13.61,13.61,0,0,0-1.37-6.14,10.86,10.86,0,0,0-4.16-4.46,12.44,12.44,0,0,0-6.61-1.71H60.67A3.41,3.41,0,0,1,58,56.52Zm8.1,10.73a3.76,3.76,0,0,1,.84,2.54q0,3.51-5.25,3.51c-3.31,0-5.79-.48-7.45-1.46l1-.76a.87.87,0,0,1,.82-.15,18.59,18.59,0,0,0,5.62.62,5.75,5.75,0,0,0,2.82-.47,1.46,1.46,0,0,0,.72-1.29,1.89,1.89,0,0,0-.41-1.28A1.85,1.85,0,0,0,63.31,68H60.67a16.15,16.15,0,0,1-6.09-1.1,11.8,11.8,0,0,1-4.47-3,13.49,13.49,0,0,1-2.67-4.46A15.83,15.83,0,0,1,46.51,54a14.79,14.79,0,0,1,.66-4.45,12.48,12.48,0,0,1,2-3.85,13.62,13.62,0,0,1,3.2-3,14.62,14.62,0,0,1,4.44-2,20.69,20.69,0,0,1,5.58-.72,26.64,26.64,0,0,1,8.81,1.42,19.37,19.37,0,0,1,6,3.29A.86.86,0,0,1,77.16,46h0a.87.87,0,0,1-1.07,0,17.48,17.48,0,0,0-5.7-3,25.17,25.17,0,0,0-8-1.24,17.88,17.88,0,0,0-6,1,12.15,12.15,0,0,0-4.45,2.65,11.62,11.62,0,0,0-2.68,3.9A12.11,12.11,0,0,0,48.27,54a13.56,13.56,0,0,0,1.39,6.2,10.58,10.58,0,0,0,4.25,4.43,13.09,13.09,0,0,0,6.76,1.67h2.68A3.37,3.37,0,0,1,66.06,67.25ZM59.91,38.37V35.5a.87.87,0,0,0-.86-.87h0a.87.87,0,0,0-.87.87v2.87a.87.87,0,0,0,1,.86h0A.87.87,0,0,0,59.91,38.37Zm0,50.13V85.63a.87.87,0,0,0-.75-.86h0a.87.87,0,0,0-1,.86V88.5a.87.87,0,0,0,.87.87h0A.87.87,0,0,0,59.91,88.5Zm3.52-53v2.81a.87.87,0,0,0,.81.87h0a.86.86,0,0,0,.93-.86V35.5a.87.87,0,0,0-.87-.87h0A.87.87,0,0,0,63.43,35.5Zm0,50.19V88.5a.87.87,0,0,0,.87.87h0a.87.87,0,0,0,.87-.87V85.68a.86.86,0,0,0-.93-.86h0A.87.87,0,0,0,63.43,85.69Z"/><path class="cls-2" d="M116.7,14.06A12,12,0,0,1,122,24v76a12,12,0,0,1-12,12H14A12,12,0,0,1,2,100V24A12,12,0,0,1,14,12H75.8"/><path class="cls-3" d="M91.15,1h4a1.15,1.15,0,0,1,1.11.84c.28,1,1.13,2.49,3.75,2.49s3.47-1.5,3.75-2.49A1.15,1.15,0,0,1,104.86,1h4A1.16,1.16,0,0,1,110,2.15V6a1.16,1.16,0,0,1-1.15,1.15h-1a1.15,1.15,0,0,0-1.15,1.15V19.85A1.16,1.16,0,0,1,105.51,21h-11a1.16,1.16,0,0,1-1.16-1.15V8.26a1.15,1.15,0,0,0-1.15-1.15h-1A1.16,1.16,0,0,1,90,6V2.15A1.16,1.16,0,0,1,91.15,1Z"/><circle class="cls-1" cx="82" cy="12" r="2"/></g></g></g></svg>