<svg xmlns="http://www.w3.org/2000/svg" viewBox="0 0 124 108"><defs><style>.cls-1,.cls-2,.cls-4{fill:none;stroke:#333;}.cls-1,.cls-4{stroke-linecap:round;stroke-linejoin:round;}.cls-1{stroke-width:4px;}.cls-2{stroke-miterlimit:10;}.cls-2,.cls-4{stroke-width:2px;}.cls-3{fill:#333;}</style></defs><title>Products - Images list</title><g id="Layer_2" data-name="Layer 2"><g id="Products_-_Images_list" data-name="Products - Images list"><g id="Products_-_Images_List-2" data-name="Products - Images List"><path class="cls-1" d="M116.7,8.06A12,12,0,0,1,122,18V37a12,12,0,0,1-12,12H14A12,12,0,0,1,2,37V18A12,12,0,0,1,14,6H80.8"/><path class="cls-2" d="M97.69,1h2.39a.7.7,0,0,1,.67.5,2.44,2.44,0,0,0,4.5,0,.7.7,0,0,1,.67-.5h2.39a.69.69,0,0,1,.69.69V4a.69.69,0,0,1-.69.7h-.62a.69.69,0,0,0-.69.69v7a.69.69,0,0,1-.69.69H99.69a.69.69,0,0,1-.69-.69V5.36a.69.69,0,0,0-.69-.69h-.62A.69.69,0,0,1,97,4V1.69A.69.69,0,0,1,97.69,1Z"/><circle class="cls-3" cx="88" cy="6" r="2"/><path class="cls-1" d="M116.7,65.06A12,12,0,0,1,122,75V94a12,12,0,0,1-12,12H14A12,12,0,0,1,2,94V75A12,12,0,0,1,14,63H80.8"/><path class="cls-2" d="M97.69,58h2.39a.7.7,0,0,1,.67.5,2.44,2.44,0,0,0,4.5,0,.7.7,0,0,1,.67-.5h2.39a.69.69,0,0,1,.69.69V61a.69.69,0,0,1-.69.7h-.62a.69.69,0,0,0-.69.69v7a.69.69,0,0,1-.69.69H99.69a.69.69,0,0,1-.69-.69v-7a.69.69,0,0,0-.69-.69h-.62A.69.69,0,0,1,97,61V58.69A.69.69,0,0,1,97.69,58Z"/><circle class="cls-3" cx="88" cy="63" r="2"/><path class="cls-3" d="M44,72a5,5,0,1,1-5,5,5,5,0,0,1,5-5m0-2a7,7,0,1,0,7,7,7,7,0,0,0-7-7Z"/><polyline class="cls-4" points="49 106 79 76 105 104"/><polyline class="cls-4" points="13 106 31 88 49 106"/><path class="cls-3" d="M45,15a5,5,0,1,1-5,5,5,5,0,0,1,5-5m0-2a7,7,0,1,0,7,7,7,7,0,0,0-7-7Z"/><polyline class="cls-4" points="50 49 80 19 106 47"/><polyline class="cls-4" points="14 49 32 31 50 49"/></g></g></g></svg>