<svg xmlns="http://www.w3.org/2000/svg" viewBox="0 0 124 114"><defs><style>.cls-1,.cls-2,.cls-4{fill:none;stroke:#333;}.cls-1,.cls-4{stroke-linecap:round;stroke-linejoin:round;}.cls-1{stroke-width:4px;}.cls-2{stroke-miterlimit:10;}.cls-2,.cls-4{stroke-width:2px;}.cls-3{fill:#333;}</style></defs><title>Products - Quantity</title><g id="Layer_2" data-name="Layer 2"><g id="Products_-_Quantity" data-name="Products - Quantity"><g id="Products_-_Quantity-2" data-name="Products - Quantity"><path class="cls-1" d="M116.7,14.06A12,12,0,0,1,122,24v76a12,12,0,0,1-12,12H14A12,12,0,0,1,2,100V24A12,12,0,0,1,14,12H75.8"/><path class="cls-2" d="M91.15,1h4a1.15,1.15,0,0,1,1.11.84c.28,1,1.13,2.49,3.75,2.49s3.47-1.5,3.75-2.49A1.15,1.15,0,0,1,104.86,1h4A1.16,1.16,0,0,1,110,2.15V6a1.16,1.16,0,0,1-1.15,1.15h-1a1.15,1.15,0,0,0-1.15,1.15V19.85A1.16,1.16,0,0,1,105.51,21h-11a1.16,1.16,0,0,1-1.16-1.15V8.26a1.15,1.15,0,0,0-1.15-1.15h-1A1.16,1.16,0,0,1,90,6V2.15A1.16,1.16,0,0,1,91.15,1Z"/><circle class="cls-3" cx="82" cy="12" r="2"/><polyline class="cls-4" points="91 72 101 63 91 54"/><polyline class="cls-4" points="34 72 24 63 34 54"/><path class="cls-3" d="M65.66,51.21V72.79a.76.76,0,0,1-.76.76h-.16a.76.76,0,0,1-.76-.76V52.73a.76.76,0,0,0-.76-.76H59.1a.76.76,0,0,1-.76-.76h0a.76.76,0,0,1,.76-.76h5.8A.76.76,0,0,1,65.66,51.21Z"/></g></g></g></svg>