<svg xmlns="http://www.w3.org/2000/svg" viewBox="0 0 124 114"><defs><style>.cls-1,.cls-2,.cls-4{fill:none;stroke:#333;}.cls-1,.cls-4{stroke-linecap:round;stroke-linejoin:round;}.cls-1{stroke-width:4px;}.cls-2{stroke-miterlimit:10;}.cls-2,.cls-4{stroke-width:2px;}.cls-3{fill:#333;}</style></defs><title>Products - Status</title><g id="Layer_2" data-name="Layer 2"><g id="Products_-_Status" data-name="Products - Status"><g id="Products_-_Status-2" data-name="Products - Status"><path class="cls-1" d="M116.7,14.06A12,12,0,0,1,122,24v76a12,12,0,0,1-12,12H14A12,12,0,0,1,2,100V24A12,12,0,0,1,14,12H75.8"/><path class="cls-2" d="M91.15,1h4a1.15,1.15,0,0,1,1.11.84c.28,1,1.13,2.49,3.75,2.49s3.47-1.5,3.75-2.49A1.15,1.15,0,0,1,104.86,1h4A1.16,1.16,0,0,1,110,2.15V6a1.16,1.16,0,0,1-1.15,1.15h-1a1.15,1.15,0,0,0-1.15,1.15V19.85A1.16,1.16,0,0,1,105.51,21h-11a1.16,1.16,0,0,1-1.16-1.15V8.26a1.15,1.15,0,0,0-1.15-1.15h-1A1.16,1.16,0,0,1,90,6V2.15A1.16,1.16,0,0,1,91.15,1Z"/><circle class="cls-3" cx="82" cy="12" r="2"/><path class="cls-4" d="M57.78,75.39c-1.66,0-1.62-.87-2.49-2.28-2.2-3.58-6.84-10.2-6.84-14.46,0-5.58,3.19-14.34,13.55-14.34,9.56,0,13.55,8,13.55,14.34,0,4.77-4.46,11.77-6.71,15-.76,1.09-.4,1.75-1.74,1.75Z"/><path class="cls-4" d="M62.46,86.54h0a5.23,5.23,0,0,1-5.24-5.24l0-5.27L67,75.65,67,81C67,83.83,65.29,86.54,62.46,86.54Z"/><line class="cls-4" x1="57.22" y1="80.17" x2="67" y2="79"/><line class="cls-4" x1="58.02" y1="83.36" x2="67" y2="82"/><line class="cls-4" x1="77.14" y1="43.11" x2="81.13" y2="39.93"/><line class="cls-4" x1="62" y1="36.74" x2="62" y2="31.96"/><line class="cls-4" x1="47.66" y1="43.11" x2="42.88" y2="39.13"/><line class="cls-4" x1="81.13" y1="55.86" x2="87.5" y2="55.86"/><line class="cls-4" x1="42.88" y1="55.07" x2="36.5" y2="55.07"/><polyline class="cls-4" points="57.5 58 62 63 67.5 56"/></g></g></g></svg>