<svg xmlns="http://www.w3.org/2000/svg" viewBox="0 0 124 114"><defs><style>.cls-1,.cls-2{fill:none;stroke:#333;}.cls-1{stroke-linecap:round;stroke-linejoin:round;stroke-width:4px;}.cls-2{stroke-miterlimit:10;stroke-width:2px;}.cls-3{fill:#333;}</style></defs><title>Products - SKU</title><g id="Layer_2" data-name="Layer 2"><g id="Products_-_SKU" data-name="Products - SKU"><g id="Products_-_SKU-2" data-name="Products - SKU"><path class="cls-1" d="M116.7,14.06A12,12,0,0,1,122,24v76a12,12,0,0,1-12,12H14A12,12,0,0,1,2,100V24A12,12,0,0,1,14,12H75.8"/><path class="cls-2" d="M91.15,1h4a1.15,1.15,0,0,1,1.11.84c.28,1,1.13,2.49,3.75,2.49s3.47-1.5,3.75-2.49A1.15,1.15,0,0,1,104.86,1h4A1.16,1.16,0,0,1,110,2.15V6a1.16,1.16,0,0,1-1.15,1.15h-1a1.15,1.15,0,0,0-1.15,1.15V19.85A1.16,1.16,0,0,1,105.51,21h-11a1.16,1.16,0,0,1-1.16-1.15V8.26a1.15,1.15,0,0,0-1.15-1.15h-1A1.16,1.16,0,0,1,90,6V2.15A1.16,1.16,0,0,1,91.15,1Z"/><circle class="cls-3" cx="82" cy="12" r="2"/><path d="M35.77,72.84a9.9,9.9,0,0,1-3.05-1.75A.85.85,0,0,1,32.54,70l.41-.67a9,9,0,0,0,3.28,2.09,11.78,11.78,0,0,0,4.34.81,8.31,8.31,0,0,0,5-1.25,3.89,3.89,0,0,0,1.69-3.27,3.44,3.44,0,0,0-.89-2.48,6.05,6.05,0,0,0-2.22-1.42,29.75,29.75,0,0,0-3.56-1,35.16,35.16,0,0,1-4.08-1.22,6.55,6.55,0,0,1-2.6-1.83,4.87,4.87,0,0,1-1.07-3.32,5.56,5.56,0,0,1,.89-3.08,6,6,0,0,1,2.72-2.23A11.12,11.12,0,0,1,41,50.29a12.69,12.69,0,0,1,3.76.56A11.31,11.31,0,0,1,47.35,52a.82.82,0,0,1,.3,1.06l-.31.69a10.79,10.79,0,0,0-3.06-1.46A11.44,11.44,0,0,0,41,51.77a7.77,7.77,0,0,0-4.85,1.29,4,4,0,0,0-1.65,3.33,3.46,3.46,0,0,0,.89,2.48,5.91,5.91,0,0,0,2.21,1.41,32.48,32.48,0,0,0,3.6,1.06,36.06,36.06,0,0,1,4.06,1.22,6.81,6.81,0,0,1,2.59,1.8,4.73,4.73,0,0,1,1.07,3.25A5.47,5.47,0,0,1,48,70.68a6.14,6.14,0,0,1-2.79,2.21,11.47,11.47,0,0,1-4.62.82A13.51,13.51,0,0,1,35.77,72.84Z"/><path d="M60.86,62.82l-4.31,4.41a.87.87,0,0,0-.24.59v4.89a.85.85,0,0,1-.84.84h0a.84.84,0,0,1-.84-.84V51.29a.84.84,0,0,1,.84-.84h0a.85.85,0,0,1,.84.84V63.23a.84.84,0,0,0,1.45.58l12.72-13.1a.83.83,0,0,1,.61-.26h1.69l-9.63,9.94a.85.85,0,0,0,0,1.14l10.35,12H71.81a.86.86,0,0,1-.64-.29L62.09,62.85A.84.84,0,0,0,60.86,62.82Z"/><path d="M79.72,71.17C78.11,69.48,77.3,67,77.3,63.75V51.29a.85.85,0,0,1,.84-.84h0a.84.84,0,0,1,.84.84V63.68q0,4.26,2,6.37a7.29,7.29,0,0,0,5.64,2.11,7.25,7.25,0,0,0,5.61-2.11q1.95-2.11,1.95-6.37V51.29a.85.85,0,0,1,.84-.84h0a.84.84,0,0,1,.84.84V63.75c0,3.25-.81,5.73-2.44,7.42a9,9,0,0,1-6.83,2.54A9,9,0,0,1,79.72,71.17Z"/></g></g></g></svg>