<svg xmlns="http://www.w3.org/2000/svg" viewBox="0 0 124 114"><defs><style>.cls-1,.cls-2,.cls-3{fill:none;stroke:#333;}.cls-1,.cls-2{stroke-linecap:round;stroke-linejoin:round;}.cls-1,.cls-3{stroke-width:2px;}.cls-2{stroke-width:4px;}.cls-3{stroke-miterlimit:10;}.cls-4{fill:#333;}</style></defs><title>Products - Product</title><g id="Layer_2" data-name="Layer 2"><g id="Products_-_Product" data-name="Products - Product"><g id="Products_-_Product-2" data-name="Products - Product"><line class="cls-1" x1="64" y1="55" x2="104" y2="55"/><line class="cls-1" x1="64" y1="62" x2="104" y2="62"/><line class="cls-1" x1="64" y1="69" x2="84" y2="69"/><path class="cls-2" d="M116.7,14.06A12,12,0,0,1,122,24v76a12,12,0,0,1-12,12H14A12,12,0,0,1,2,100V24A12,12,0,0,1,14,12H75.8"/><path class="cls-3" d="M91.15,1h4a1.15,1.15,0,0,1,1.11.84c.28,1,1.13,2.49,3.75,2.49s3.47-1.5,3.75-2.49A1.15,1.15,0,0,1,104.86,1h4A1.16,1.16,0,0,1,110,2.15V6a1.16,1.16,0,0,1-1.15,1.15h-1a1.15,1.15,0,0,0-1.15,1.15V19.85A1.16,1.16,0,0,1,105.51,21h-11a1.16,1.16,0,0,1-1.16-1.15V8.26a1.15,1.15,0,0,0-1.15-1.15h-1A1.16,1.16,0,0,1,90,6V2.15A1.16,1.16,0,0,1,91.15,1Z"/><path class="cls-3" d="M24.73,46h6a1.72,1.72,0,0,1,1.66,1.26C32.79,48.74,34.08,51,38,51s5.21-2.26,5.63-3.74A1.72,1.72,0,0,1,45.29,46h6A1.72,1.72,0,0,1,53,47.73v5.71a1.73,1.73,0,0,1-1.73,1.73H49.73A1.72,1.72,0,0,0,48,56.9V74.27A1.72,1.72,0,0,1,46.27,76H29.73A1.72,1.72,0,0,1,28,74.27V56.9a1.72,1.72,0,0,0-1.73-1.73H24.73A1.73,1.73,0,0,1,23,53.44V47.73A1.72,1.72,0,0,1,24.73,46Z"/><circle class="cls-4" cx="82" cy="12" r="2"/></g></g></g></svg>