<svg xmlns="http://www.w3.org/2000/svg" viewBox="0 0 124 114"><defs><style>.cls-1,.cls-2,.cls-4{fill:none;stroke:#333;}.cls-1,.cls-4{stroke-linecap:round;stroke-linejoin:round;}.cls-1{stroke-width:4px;}.cls-2{stroke-miterlimit:10;}.cls-2,.cls-4{stroke-width:2px;}.cls-3{fill:#333;}</style></defs><title>Products - Title</title><g id="Layer_2" data-name="Layer 2"><g id="Products_-_Title" data-name="Products - Title"><g id="Products_-_Title-2" data-name="Products - Title"><path class="cls-1" d="M116.7,14.06A12,12,0,0,1,122,24v76a12,12,0,0,1-12,12H14A12,12,0,0,1,2,100V24A12,12,0,0,1,14,12H75.8"/><path class="cls-2" d="M91.15,1h4a1.15,1.15,0,0,1,1.11.84c.28,1,1.13,2.49,3.75,2.49s3.47-1.5,3.75-2.49A1.15,1.15,0,0,1,104.86,1h4A1.16,1.16,0,0,1,110,2.15V6a1.16,1.16,0,0,1-1.15,1.15h-1a1.15,1.15,0,0,0-1.15,1.15V19.85A1.16,1.16,0,0,1,105.51,21h-11a1.16,1.16,0,0,1-1.16-1.15V8.26a1.15,1.15,0,0,0-1.15-1.15h-1A1.16,1.16,0,0,1,90,6V2.15A1.16,1.16,0,0,1,91.15,1Z"/><circle class="cls-3" cx="82" cy="12" r="2"/><path class="cls-4" d="M70.21,79.85v7.32h7.36v.59H46.65v-.59H54V36.9a15,15,0,0,0-2.28.19,9.86,9.86,0,0,0-2.57.77,13.09,13.09,0,0,0-2.73,1.69,12.72,12.72,0,0,0-2.65,3,23.88,23.88,0,0,0-3.2,6.48,22.63,22.63,0,0,0-.84,6.25H39V36.24H85V55.45h-.66a16.83,16.83,0,0,0-1.18-6.26,36.27,36.27,0,0,0-3.53-6.47,17.92,17.92,0,0,0-2.58-3.06,11.55,11.55,0,0,0-2.43-1.76,7.28,7.28,0,0,0-2.28-.81,12.21,12.21,0,0,0-2.13-.19V72"/><circle class="cls-3" cx="70.28" cy="76.72" r="0.92"/></g></g></g></svg>