<svg xmlns="http://www.w3.org/2000/svg" viewBox="0 0 124 44.81"><defs><style>.cls-1,.cls-2,.cls-3,.cls-4{fill:none;stroke:#333;}.cls-1,.cls-2,.cls-3{stroke-linecap:round;stroke-linejoin:round;}.cls-1,.cls-2,.cls-4{stroke-width:2px;}.cls-2{stroke-dasharray:0 4;}.cls-3{stroke-width:4px;}.cls-4{stroke-miterlimit:10;}</style></defs><title>Rows - Sticky Header</title><g id="Layer_2" data-name="Layer 2"><g id="Rows_-_Sticky_Header" data-name="Rows - Sticky Header"><g id="Rows_-_Sticky_Header-2" data-name="Rows - Sticky Header"><line class="cls-1" x1="117.62" y1="7.81" x2="117.62" y2="7.81"/><path class="cls-2" d="M121.62,7.82A1.54,1.54,0,0,1,123,9.35V42.28a1.54,1.54,0,0,1-1.54,1.53H2.54A1.54,1.54,0,0,1,1,42.28V9.35A1.54,1.54,0,0,1,2.54,7.81H86.1"/><line class="cls-1" x1="88.1" y1="7.81" x2="88.1" y2="7.81"/><path class="cls-3" d="M112.12,15.81h2.21A1.18,1.18,0,0,1,115.5,17V34.64a1.18,1.18,0,0,1-1.17,1.17H9.67A1.18,1.18,0,0,1,8.5,34.64V17a1.18,1.18,0,0,1,1.17-1.17h79"/><line class="cls-1" x1="19" y1="25.81" x2="28" y2="25.81"/><line class="cls-1" x1="41" y1="25.81" x2="46" y2="25.81"/><line class="cls-1" x1="52" y1="25.81" x2="56" y2="25.81"/><line class="cls-1" x1="62" y1="25.81" x2="66" y2="25.81"/><path class="cls-4" d="M95.31,10a1.33,1.33,0,0,1,.25-2.16c1.44-.77,3.62-1.63,5.44-1,3,1,5-2,5-3A9,9,0,0,1,106.35,2a1.33,1.33,0,0,1,2.23-.6l3.14,3.14a1.33,1.33,0,0,1-.94,2.28H110c-2,0-5,3-4,5,.59,1.18.14,3.39-.33,5a1.34,1.34,0,0,1-2.18.61Z"/><line class="cls-1" x1="99" y1="13.81" x2="95" y2="17.81"/></g></g></g></svg>