<svg id="Layer_1" data-name="Layer 1" xmlns="http://www.w3.org/2000/svg" viewBox="0 0 128 128"><title>ALARM</title><path d="M118.694,34.522h-8.869V31.89a7.33,7.33,0,0,0-7.322-7.322H92.17a7.33,7.33,0,0,0-7.322,7.322v2.632h-41.7V31.89a7.33,7.33,0,0,0-7.322-7.322H25.5a7.33,7.33,0,0,0-7.322,7.322v2.632H9.306a2,2,0,0,0-2,2V90.569a9.906,9.906,0,0,0,9.9,9.895H26.54v.448a5.871,5.871,0,0,0,5.864,5.864h8.039a5.87,5.87,0,0,0,5.864-5.864v-.448H81.693v.448a5.87,5.87,0,0,0,5.864,5.864H95.6a5.871,5.871,0,0,0,5.864-5.864v-.448H110.8a9.906,9.906,0,0,0,9.9-9.895V36.522A2,2,0,0,0,118.694,34.522ZM88.848,31.89a3.326,3.326,0,0,1,3.322-3.322H102.5a3.326,3.326,0,0,1,3.322,3.322v2.632H88.848Zm-66.673,0A3.326,3.326,0,0,1,25.5,28.568H35.83a3.326,3.326,0,0,1,3.322,3.322v2.632H22.175Zm20.132,69.022a1.866,1.866,0,0,1-1.864,1.864H32.4a1.866,1.866,0,0,1-1.864-1.864v-.448H42.307Zm55.154,0a1.866,1.866,0,0,1-1.864,1.864H87.557a1.866,1.866,0,0,1-1.864-1.864v-.448H97.46Zm19.233-10.343a5.9,5.9,0,0,1-5.9,5.895H17.2a5.9,5.9,0,0,1-5.9-5.895V38.522H116.694Z"/><path d="M100.084,44.384H27.916a9.752,9.752,0,0,0-9.741,9.74v12.57a9.752,9.752,0,0,0,9.741,9.74h72.169a9.752,9.752,0,0,0,9.741-9.74V54.124A9.752,9.752,0,0,0,100.084,44.384Zm5.741,22.311a5.747,5.747,0,0,1-5.741,5.74H27.916a5.747,5.747,0,0,1-5.741-5.74V54.124a5.747,5.747,0,0,1,5.741-5.74h72.169a5.747,5.747,0,0,1,5.741,5.74Z"/><path d="M36.957,53.481c-3.605,0-6.158,2.865-6.158,6.918,0,4.073,2.553,6.938,6.158,6.938,3.625,0,6.158-2.865,6.158-6.938C43.115,56.346,40.582,53.481,36.957,53.481Zm0,10.835c-1.6,0-2.729-1.637-2.729-3.917s1.131-3.9,2.729-3.9c1.617,0,2.747,1.617,2.747,3.9S38.574,64.316,36.957,64.316Z"/><path d="M53.192,58.353a5.079,5.079,0,0,0-3.1,1.052c.293-1.89,1.306-3.021,2.884-3.021A3.977,3.977,0,0,1,55.628,57.4l1.539-2.514a6.669,6.669,0,0,0-4.209-1.4c-3.917,0-6.392,2.923-6.392,7.172,0,3.937,1.891,6.684,5.885,6.684,2.982,0,5.262-1.871,5.262-4.7A4.237,4.237,0,0,0,53.192,58.353Zm-.935,6.158c-1.364,0-1.949-.721-2.163-2.2a2.251,2.251,0,0,1,2.085-1.286A1.9,1.9,0,0,1,54.3,62.777,1.841,1.841,0,0,1,52.257,64.512Z"/><path d="M63.445,63.323a2.008,2.008,0,1,0,1.969,1.968A2,2,0,0,0,63.445,63.323Z"/><path d="M75.216,53.481c-3.605,0-6.158,2.865-6.158,6.918,0,4.073,2.553,6.938,6.158,6.938,3.625,0,6.158-2.865,6.158-6.938C81.375,56.346,78.841,53.481,75.216,53.481Zm0,10.835c-1.6,0-2.729-1.637-2.729-3.917s1.131-3.9,2.729-3.9c1.617,0,2.747,1.617,2.747,3.9S76.834,64.316,75.216,64.316Z"/><path d="M91.043,53.481c-3.605,0-6.159,2.865-6.159,6.918,0,4.073,2.553,6.938,6.159,6.938,3.625,0,6.158-2.865,6.158-6.938C97.2,56.346,94.668,53.481,91.043,53.481Zm0,10.835c-1.6,0-2.728-1.637-2.728-3.917s1.13-3.9,2.728-3.9c1.617,0,2.747,1.617,2.747,3.9S92.66,64.316,91.043,64.316Z"/><path d="M43.35,80.276H29.5a2,2,0,0,0,0,4H43.35a2,2,0,0,0,0-4Z"/><path d="M43.35,87.831H29.5a2,2,0,0,0,0,4H43.35a2,2,0,0,0,0-4Z"/><path d="M98.5,80.276H84.65a2,2,0,0,0,0,4H98.5a2,2,0,1,0,0-4Z"/><path d="M98.5,87.831H84.65a2,2,0,0,0,0,4H98.5a2,2,0,1,0,0-4Z"/></svg>