<svg id="Layer_1" data-name="Layer 1" xmlns="http://www.w3.org/2000/svg" viewBox="0 0 128 128"><title>AROMATHERAPY</title><path d="M106.1,98.254h-2.459V76.346a36.4,36.4,0,0,0-10.167-25.3,20.723,20.723,0,0,1-5.948-14.328V28.65a9.5,9.5,0,0,0,8.145-6.378l3.059-8.916a2,2,0,0,0-1.892-2.649H31.163a2,2,0,0,0-1.892,2.649l3.059,8.916a9.5,9.5,0,0,0,8.145,6.378v8.067a20.724,20.724,0,0,1-5.948,14.328,36.4,36.4,0,0,0-10.167,25.3V98.254H21.9a9.52,9.52,0,1,0,0,19.04h84.2a9.52,9.52,0,1,0,0-19.04ZM36.114,20.973l-2.15-6.267H94.035l-2.149,6.267A5.5,5.5,0,0,1,86.68,24.69H41.32A5.505,5.505,0,0,1,36.114,20.973ZM28.36,76.346a32.422,32.422,0,0,1,9.055-22.533,24.7,24.7,0,0,0,7.06-17.1V28.69H83.524v8.026a24.7,24.7,0,0,0,7.06,17.1,32.42,32.42,0,0,1,9.056,22.533V98.254H88.478V80.617A22.684,22.684,0,0,0,65.819,57.959H62.18A22.684,22.684,0,0,0,39.522,80.617V98.254H28.36Zm35.164,3.137a2,2,0,0,0-2,2V84.53A3.305,3.305,0,0,1,60.092,83.4a3.766,3.766,0,0,1-.36-3.478,18.088,18.088,0,0,1,2.2-4.026A17.811,17.811,0,0,0,63.8,72.6c2.386,2.653,4.475,7.144,3.862,9.9a2.62,2.62,0,0,1-2.14,2.115V81.482A2,2,0,0,0,63.524,79.482Zm8.968,14.795v3.977H55.508V94.277Zm2-4H65.523V88.7c4.328-.723,5.649-3.552,6.045-5.337,1.256-5.655-3.751-14.1-8.405-16.273a2,2,0,0,0-2.831,2.063c.2,1.542-.46,2.612-1.734,4.526a21.605,21.605,0,0,0-2.634,4.9,7.811,7.811,0,0,0,.859,7.125,7.485,7.485,0,0,0,4.7,2.986v1.582H53.508a2,2,0,0,0-2,2v5.977H43.522V80.617A18.679,18.679,0,0,1,62.18,61.959h3.639A18.68,18.68,0,0,1,84.478,80.617V98.254H76.492V92.277A2,2,0,0,0,74.492,90.277ZM106.1,113.294H21.9a5.52,5.52,0,1,1,0-11.04h84.2a5.52,5.52,0,1,1,0,11.04Z"/></svg>