<svg id="Layer_1" data-name="Layer 1" xmlns="http://www.w3.org/2000/svg" viewBox="0 0 128 128"><title>BATHUP</title><path d="M114.789,85l2.7-23.855a6.485,6.485,0,0,0-1.3-12.84h-2.183V24.274A10.237,10.237,0,0,0,103.78,14.05H94.192A10.237,10.237,0,0,0,83.967,24.274v3.671H82.861a2,2,0,0,0-2,2v6.522a2,2,0,0,0,2,2H96.837a2,2,0,0,0,2-2V29.945a2,2,0,0,0-2-2h-.855V26.064h6.009V48.31H97.551a9.035,9.035,0,0,0-8.675,6.43,3.812,3.812,0,0,1-3.671,2.71H42.795a3.813,3.813,0,0,1-3.672-2.714,9.035,9.035,0,0,0-8.674-6.426H11.812a6.485,6.485,0,0,0-1.3,12.84l2.7,23.857a23.337,23.337,0,0,0,6.242,13.411l-5.132,5.836a5.835,5.835,0,0,0,4.4,9.692,5.8,5.8,0,0,0,3.846-1.446l8.453-7.428a23.393,23.393,0,0,0,5.376.637H91.608a23.418,23.418,0,0,0,5.376-.637l8.451,7.427a5.86,5.86,0,0,0,7.979-.249l.005-.006a5.869,5.869,0,0,0,.256-8l-5.128-5.831A23.339,23.339,0,0,0,114.789,85ZM94.837,34.468H84.861V31.945h9.976Zm8.943-12.4H94.192a2.213,2.213,0,0,0-2.21,2.21v3.671H87.967V24.274a6.232,6.232,0,0,1,6.225-6.225h9.588a6.232,6.232,0,0,1,6.226,6.225V48.31H105.99V24.274A2.213,2.213,0,0,0,103.78,22.064ZM9.326,54.795a2.489,2.489,0,0,1,2.486-2.485H30.449a5.054,5.054,0,0,1,4.849,3.6,7.789,7.789,0,0,0,7.5,5.544h42.41a7.789,7.789,0,0,0,7.5-5.54,5.055,5.055,0,0,1,4.85-3.6h18.637a2.485,2.485,0,1,1,0,4.971h-17.3a2,2,0,0,0-1.851,1.242,12.721,12.721,0,0,1-11.83,7.9H42.795a12.721,12.721,0,0,1-11.83-7.9,2,2,0,0,0-1.851-1.242h-17.3A2.489,2.489,0,0,1,9.326,54.795ZM19.92,109.5a1.841,1.841,0,0,1-2.592-2.605l5.11-5.811c.087.065.178.124.265.187q.222.16.447.315.3.2.6.4.231.148.464.292c.206.126.414.247.624.367.159.09.317.18.478.267.215.116.432.226.65.335.16.08.32.161.481.237.069.032.135.069.2.1Zm16.472-7.788a19.369,19.369,0,0,1-5.355-.752,19.608,19.608,0,0,1-2.049-.715,19.328,19.328,0,0,1-11.8-15.686L14.555,61.28H27.832a16.708,16.708,0,0,0,14.963,9.14h42.41a16.708,16.708,0,0,0,14.963-9.14h13.277l-2.63,23.273a19.316,19.316,0,0,1-13.852,16.4h0a19.4,19.4,0,0,1-5.352.75Zm74.2,7.7a1.849,1.849,0,0,1-2.517.083l-6.731-5.915c.067-.031.131-.066.2-.1.168-.079.334-.163.5-.246.212-.106.424-.214.633-.327.164-.089.327-.181.489-.273.206-.117.411-.237.613-.361q.238-.145.472-.3.3-.193.593-.394.23-.158.456-.321c.086-.062.176-.12.261-.184l5.107,5.806A1.857,1.857,0,0,1,110.594,109.413Z"/></svg>