<svg id="Layer_1" data-name="Layer 1" xmlns="http://www.w3.org/2000/svg" viewBox="0 0 128 128"><title>BED</title><path d="M99.1,6.755H28.9a2,2,0,0,0-2,2V117.583a2,2,0,0,0,2,2H99.1a2,2,0,0,0,2-2V8.755A2,2,0,0,0,99.1,6.755Zm-2,4V61.169H53.081a2,2,0,0,0-.37.037l-.027,0a1.959,1.959,0,0,0-.253.077c-.039.014-.08.021-.118.037s-.073.039-.111.058-.076.04-.113.062l-.035.019c-.027.016-.058.028-.084.046a2.007,2.007,0,0,0-.3.249L30.9,82.52V10.755ZM81.861,65.169v50.414H77.507V65.169Zm-15.685,0v50.414H61.823V65.169ZM33.731,85.348l8.675-8.675L51.081,68V85.348H33.731Zm16.762,4v26.235H46.139V89.348Zm-19.591,0H34.81v26.235H30.9Zm7.907,26.235V89.348h3.329v26.235Zm15.684,0V88.765l0,0c.023-.023.041-.052.063-.076a2.008,2.008,0,0,0,.181-.22c.023-.033.037-.072.058-.107a1.967,1.967,0,0,0,.127-.233,2.005,2.005,0,0,0,.066-.213c.016-.055.039-.106.051-.163a2.009,2.009,0,0,0,.041-.4V65.169h2.742v50.414Zm15.684,0V65.169h3.33v50.414Zm15.685,0V65.169H89.19v50.414Zm11.236,0H93.19V65.169H97.1Z"/><path d="M42.3,40.849a5.715,5.715,0,0,0,3.973,9.635l.184,0a5.748,5.748,0,0,0,4.033-1.661,205.136,205.136,0,0,0,27.019,0A5.718,5.718,0,0,0,85.7,40.842a61.482,61.482,0,0,0,0-13.815,5.8,5.8,0,0,0,.424-7.343A5.737,5.737,0,0,0,81.94,17.4a5.679,5.679,0,0,0-4.432,1.646,205.488,205.488,0,0,0-27.02,0A5.718,5.718,0,0,0,42.3,27.033,61.487,61.487,0,0,0,42.3,40.849Zm3.028-19.038a1.633,1.633,0,0,1,1.086-.393,1.917,1.917,0,0,1,1.347.56l.093.093a3.407,3.407,0,0,0,2.634.987,201.174,201.174,0,0,1,27.019,0,3.423,3.423,0,0,0,2.637-.989l.177-.177a1.721,1.721,0,0,1,2.6.2,1.817,1.817,0,0,1-.263,2.324,3.388,3.388,0,0,0-.97,2.806,57.452,57.452,0,0,1,0,13.435v0a3.389,3.389,0,0,0,.975,2.808l.087.086a1.722,1.722,0,0,1-.086,2.513,1.814,1.814,0,0,1-2.433-.167l-.094-.095a3.411,3.411,0,0,0-2.633-.986,201.174,201.174,0,0,1-27.019,0,3.413,3.413,0,0,0-2.639.991l-.175.175a1.768,1.768,0,0,1-1.272.5,1.708,1.708,0,0,1-1.24-.589,1.816,1.816,0,0,1,.172-2.437,3.387,3.387,0,0,0,.97-2.805,57.473,57.473,0,0,1,0-13.437,3.392,3.392,0,0,0-.979-2.812l-.082-.082a1.721,1.721,0,0,1,.085-2.513Z"/></svg>