<svg id="Layer_1" data-name="Layer 1" xmlns="http://www.w3.org/2000/svg" viewBox="0 0 128 128"><title>BILB</title><path d="M63.023,23.916a31.76,31.76,0,0,0-15.2,59.077,3.744,3.744,0,0,1,1.818,3.212v3.033a4.049,4.049,0,0,0,.125.956A6,6,0,0,0,48.4,99.365a5.984,5.984,0,0,0,0,8.042,6.01,6.01,0,0,0,4.468,10.041h2.583a7.989,7.989,0,0,0,7.718,5.982h1.669a7.989,7.989,0,0,0,7.718-5.982h2.583A6.01,6.01,0,0,0,79.6,107.407a5.984,5.984,0,0,0,0-8.042,6,6,0,0,0-1.367-9.171,4.049,4.049,0,0,0,.125-.956V86.206a3.815,3.815,0,0,1,1.873-3.247A31.927,31.927,0,0,0,95.763,55.664a31.763,31.763,0,0,0-32.74-31.748ZM59.1,93.324H75.135a2.021,2.021,0,0,1,0,4.041H52.865a2.021,2.021,0,0,1,0-4.041H59.1Zm1.677-4-4.36-24.6c1.644-1.07,3.372-.306,6.635,1.563,2,1.145,4.447,2.547,6.981,2.546a6.581,6.581,0,0,0,.833-.059L67.223,89.324Zm16.379,14.062a2.023,2.023,0,0,1-2.021,2.021H52.865a2.021,2.021,0,0,1,0-4.042H75.135A2.023,2.023,0,0,1,77.156,103.386ZM64.834,119.431H63.166a3.984,3.984,0,0,1-3.442-1.982h8.554A3.984,3.984,0,0,1,64.834,119.431Zm10.3-5.982H52.865a2.021,2.021,0,1,1,0-4.041H75.135a2.021,2.021,0,1,1,0,4.041Zm3.051-33.925a7.833,7.833,0,0,0-3.825,6.683v3.032a.086.086,0,0,1-.085.086h-2.99l4.2-23.706v-.005l1.364-7.7a2,2,0,1,0-3.938-.7L71.677,64.2c-1.616,1.256-3.29.536-6.637-1.38-2.612-1.5-5.976-3.408-9.346-2.179l-.607-3.422a2,2,0,1,0-3.938.7l1.135,6.4v0l4.432,25h-2.99a.086.086,0,0,1-.085-.086V86.205a7.764,7.764,0,0,0-3.778-6.653A27.759,27.759,0,0,1,63.143,27.914c.289-.009.576-.013.864-.013A27.761,27.761,0,0,1,91.763,55.664,27.909,27.909,0,0,1,78.187,79.523Z"/><path d="M64,18.858a2,2,0,0,0,2-2V6.569a2,2,0,1,0-4,0V16.858A2,2,0,0,0,64,18.858Z"/><path d="M25.242,61.438H14.953a2,2,0,0,0,0,4H25.242a2,2,0,0,0,0-4Z"/><path d="M32.291,30.674,25.016,23.4a2,2,0,0,0-2.828,2.828L29.463,33.5a2,2,0,0,0,2.828-2.828Z"/><path d="M113.047,61.438H102.758a2,2,0,0,0,0,4h10.289a2,2,0,0,0,0-4Z"/><path d="M105.813,23.4a2,2,0,0,0-2.828,0l-7.275,7.275A2,2,0,1,0,98.537,33.5l7.275-7.275A2,2,0,0,0,105.813,23.4Z"/></svg>