<svg id="Layer_1" data-name="Layer 1" xmlns="http://www.w3.org/2000/svg" viewBox="0 0 128 128"><title>BISCUIT</title><path d="M89.292,38.374a33.266,33.266,0,0,0-10.136,1.575A40.908,40.908,0,0,0,36.263,24.176a2,2,0,0,0-1.269,2.92,15.965,15.965,0,0,1-9.172,23.027,13.464,13.464,0,0,1-2.251.535,1.98,1.98,0,0,0-.564.172,8.214,8.214,0,0,0-2.488,1.809,2.016,2.016,0,0,0-.536,1.474c.01.2.021.4.021.6a12.727,12.727,0,0,1-1.082,5.168A12.913,12.913,0,0,1,7.352,67.617,2,2,0,0,0,5.408,69.9,40.951,40.951,0,0,0,68.873,97.975a33.3,33.3,0,1,0,20.419-59.6Zm-4.528,12.4a3.049,3.049,0,0,1,1.46,5.479c-.008-.04-.02-.079-.027-.12-.041-.208-.091-.413-.135-.62-.094-.442-.2-.883-.308-1.324-.077-.311-.148-.623-.232-.932q-.294-1.08-.648-2.154c-.025-.076-.052-.152-.078-.228C84.783,50.844,84.775,50.809,84.764,50.775ZM82.49,83.139a3.984,3.984,0,0,1-3.161,5.188A47.646,47.646,0,0,0,82.49,83.139Zm-58-28.578c.411-.069.814-.154,1.216-.251.145-.035.288-.079.431-.118.2-.055.406-.1.608-.166a4.277,4.277,0,0,1,1.553,8.18h0a4.284,4.284,0,0,1-5.35-1.6c.051-.135.086-.274.133-.41q.1-.295.193-.592c.1-.319.182-.641.259-.965.047-.2.1-.389.135-.586.071-.353.124-.71.173-1.069.023-.17.053-.338.071-.509.055-.53.09-1.064.095-1.6A4.374,4.374,0,0,1,24.489,54.561ZM61.081,97.755h0A37,37,0,0,1,9.731,71.414a16.947,16.947,0,0,0,11.222-7.021,8.269,8.269,0,1,0,10.69-12.6A20.09,20.09,0,0,0,39,43.627l3.206,1.452a2,2,0,1,0,1.649-3.644l-3.471-1.571a19.955,19.955,0,0,0-.759-12.311,36.939,36.939,0,0,1,37.05,15.822c.014.023.022.049.037.071a37.114,37.114,0,0,1,3.01,5.441c.2.454.388.911.572,1.368.221.547.424,1.1.619,1.661.051.147.109.292.158.44.215.643.408,1.293.587,1.948.08.293.147.588.22.883.093.377.183.754.264,1.134q.112.527.207,1.056c.057.311.107.623.156.935.06.39.122.779.169,1.169.05.407.084.815.121,1.222q.088.994.123,1.986c.009.251.018.5.022.752.007.481.006.962-.006,1.442,0,.145-.012.29-.018.435a37.01,37.01,0,0,1-.51,4.917c-.013.077-.028.155-.042.232a37.245,37.245,0,0,1-1.211,4.85q-.058.179-.117.357a37.319,37.319,0,0,1-1.911,4.664l-.06.125a37.139,37.139,0,0,1-3.627,5.864c-.061.081-.121.163-.183.243q-.453.591-.933,1.163c-.126.151-.255.3-.383.446-.661.767-1.352,1.511-2.079,2.226-.037.037-.072.076-.11.112-.282.274-.576.538-.867.8-.259.236-.519.471-.785.7q-.359.309-.727.61c-.477.388-.96.769-1.456,1.131A36.958,36.958,0,0,1,61.081,97.755Zm28.211,3.236a29.2,29.2,0,0,1-17.075-5.505c.216-.18.423-.371.636-.555.121-.105.242-.209.361-.316q.635-.563,1.245-1.155l.149-.144q.675-.659,1.318-1.35l.033-.035L76,91.886a7.815,7.815,0,0,0,2.707.489,7.964,7.964,0,0,0,5.517-13.728c.219-.57.418-1.145.611-1.722q.063-.188.123-.377a40.962,40.962,0,0,0,1.34-5.357c.018-.1.037-.2.054-.3.1-.584.192-1.168.267-1.755a1.989,1.989,0,0,0,.609.536l4.652,2.642a2,2,0,1,0,1.976-3.479L89.2,66.193a2,2,0,0,0-2.331.269c.018-.3.025-.6.036-.9.008-.206.02-.412.025-.619q.018-.759.006-1.519c0-.323-.016-.647-.028-.971-.022-.59-.053-1.18-.1-1.77-.007-.083-.016-.167-.024-.25A7.032,7.032,0,0,0,83.2,46.875c-.234-.51-.476-1.015-.729-1.512-.039-.077-.082-.152-.121-.229q-.418-.808-.868-1.591c-.019-.033-.035-.067-.054-.1a29.312,29.312,0,1,1,7.867,57.547Z"/><path d="M106.268,71.965a7.04,7.04,0,1,0,7.04,7.04A7.047,7.047,0,0,0,106.268,71.965Zm0,10.079a3.04,3.04,0,1,1,3.04-3.04A3.043,3.043,0,0,1,106.268,82.044Z"/><path d="M101.229,63.377a1.993,1.993,0,0,0,1.414-.586l3.783-3.783a2,2,0,0,0-2.828-2.828l-3.783,3.783a2,2,0,0,0,1.414,3.414Z"/><path d="M95.238,83.457a2,2,0,0,0-3.823,1.176l1.572,5.113A2,2,0,0,0,96.81,88.57Z"/><path d="M67.189,56.909a8.217,8.217,0,1,0-3.378.728A8.221,8.221,0,0,0,67.189,56.909Zm-7.283-5.8a4.274,4.274,0,1,1,2.378,2.247A4.246,4.246,0,0,1,59.907,51.1Z"/><path d="M49.232,79.278a8.275,8.275,0,1,0,4.6,4.35A8.218,8.218,0,0,0,49.232,79.278Zm-1.2,11.632a4.274,4.274,0,1,1,2.154-5.648A4.24,4.24,0,0,1,48.031,90.91Z"/><path d="M69.26,76.554a2,2,0,0,0,1.425-3.737l-6.223-2.373a2,2,0,1,0-1.425,3.737Z"/><path d="M32.653,73.363l-5.01,4.388a2,2,0,1,0,2.636,3.009l5.01-4.388a2,2,0,1,0-2.636-3.009Z"/><path d="M48.855,69.482c.065.006.129.009.193.009a2,2,0,0,0,1.988-1.81l.634-6.63a2,2,0,1,0-3.981-.381l-.634,6.63A2,2,0,0,0,48.855,69.482Z"/></svg>