<svg id="Layer_1" data-name="Layer 1" xmlns="http://www.w3.org/2000/svg" viewBox="0 0 128 128"><title>BLANKET</title><path d="M91.592,15.976H35.772c-.029,0-.056.007-.084.008A26.567,26.567,0,0,0,9.479,42.492v42.5a2,2,0,0,0,4,0V75h8.016v10a2,2,0,0,0,4,0V75H33.51v10a2,2,0,0,0,4,0V75h8.016v10a2,2,0,0,0,4,0V75h8.362v35.027a2,2,0,0,0,4,0v-10h7.326v10a2,2,0,0,0,4,0v-10h7.327v10a2,2,0,0,0,4,0v-10h7.327v10a2,2,0,0,0,4,0v-10h7.326v10a2,2,0,0,0,4,0v-10h7.327v10a2,2,0,0,0,4,0V42.905A26.96,26.96,0,0,0,91.592,15.976ZM13.479,54.74H57.888v6.524H13.479ZM61.888,75h52.634v6.524H61.888Zm29.7-55.021a22.956,22.956,0,0,1,22.93,22.93V71H61.888V42.091c0-.525-.02-1.045-.051-1.563-.01-.166-.025-.33-.038-.495q-.042-.534-.1-1.062c-.022-.184-.044-.368-.07-.55-.05-.356-.11-.709-.175-1.06-.028-.155-.052-.311-.083-.465q-.141-.693-.319-1.372c-.057-.219-.123-.435-.185-.652-.072-.25-.146-.5-.225-.746s-.163-.495-.25-.74c-.072-.2-.147-.4-.224-.6-.1-.265-.2-.53-.312-.791-.035-.084-.075-.165-.111-.248q-.412-.95-.9-1.859c-.043-.081-.084-.162-.127-.242-.17-.312-.348-.618-.53-.922l-.145-.239A26.257,26.257,0,0,0,55.131,24.6l-.01-.012a26.3,26.3,0,0,0-5.471-4.611Zm-55.717,0A22.159,22.159,0,0,1,57.888,42.091V50.74H13.479V42.492A22.557,22.557,0,0,1,35.875,19.979Zm-22.4,45.285H57.888V71H13.479ZM61.888,85.521h52.634V96.028H61.888Z"/></svg>