<svg id="Layer_1" data-name="Layer 1" xmlns="http://www.w3.org/2000/svg" viewBox="0 0 128 128"><title>BREAMCHATCHER</title><path d="M64,20.084a25.74,25.74,0,1,0,25.739,25.74A25.769,25.769,0,0,0,64,20.084ZM85.019,40.275,82.445,37.7a25.992,25.992,0,0,0-5.9-4.422,26,26,0,0,0-4.42-5.9L69.548,24.8A21.819,21.819,0,0,1,85.019,40.275Zm-5.272,5.378a26.263,26.263,0,0,0-.641-5.586c.168.158.348.3.512.463l5.294,5.295-5.294,5.295c-.164.164-.344.3-.512.463a26.263,26.263,0,0,0,.641-5.586c0-.057.017-.112.017-.171S79.751,45.71,79.746,45.653ZM57.062,41.714a8.016,8.016,0,0,0-.876,2.109H52.343a22.13,22.13,0,0,1,1.259-5.57Zm-.632-6.288A22.132,22.132,0,0,1,62,34.167V38.01a8.015,8.015,0,0,0-2.11.876Zm-.243,12.4a8.016,8.016,0,0,0,.876,2.109L53.6,53.393a22.129,22.129,0,0,1-1.259-5.57Zm3.7,4.938a8.015,8.015,0,0,0,2.11.876v3.844a22.134,22.134,0,0,1-5.571-1.26Zm.035-6.938A4.074,4.074,0,1,1,64,49.9,4.079,4.079,0,0,1,59.926,45.824ZM66,38.01V34.167a22.134,22.134,0,0,1,5.57,1.259l-3.461,3.46A8.015,8.015,0,0,0,66,38.01Zm0,15.627a8.015,8.015,0,0,0,2.11-.876l3.461,3.461A22.133,22.133,0,0,1,66,57.482Zm4.938-3.7a8.016,8.016,0,0,0,.876-2.109h3.844a22.129,22.129,0,0,1-1.259,5.57Zm.876-6.109a8.016,8.016,0,0,0-.876-2.109l3.461-3.46a22.13,22.13,0,0,1,1.259,5.57ZM64,24.913l5.295,5.294c.164.164.3.343.461.51a26.263,26.263,0,0,0-5.6-.641c-.052,0-.1-.016-.155-.016s-.1.012-.155.016a26.263,26.263,0,0,0-5.6.641c.158-.168.3-.346.461-.51ZM58.452,24.8l-2.575,2.575a26,26,0,0,0-4.42,5.9,25.992,25.992,0,0,0-5.9,4.422l-2.573,2.574A21.819,21.819,0,0,1,58.452,24.8Zm-10.2,21.191a26.263,26.263,0,0,0,.641,5.586c-.168-.158-.348-.3-.512-.463l-5.294-5.295,5.294-5.295c.164-.164.344-.3.512-.462a26.266,26.266,0,0,0-.641,5.586c0,.057-.017.112-.017.171S48.249,45.938,48.254,45.995Zm-5.272,5.378,2.573,2.574a25.99,25.99,0,0,0,5.9,4.421,26,26,0,0,0,4.42,5.9l2.575,2.575A21.819,21.819,0,0,1,42.981,51.373ZM64,66.735,58.705,61.44c-.164-.164-.3-.343-.461-.511a26.264,26.264,0,0,0,5.6.641c.053,0,.1.016.158.016s.105-.012.158-.016a26.264,26.264,0,0,0,5.6-.641c-.158.168-.3.347-.461.511Zm5.548.108,2.575-2.575a26,26,0,0,0,4.42-5.9,25.99,25.99,0,0,0,5.9-4.421l2.573-2.574A21.819,21.819,0,0,1,69.548,66.843Z"/><path d="M85.092,90.454l-.558-1.5a5.715,5.715,0,0,0-3.745-10.065l-1.805-4.852A31.944,31.944,0,0,0,66,13.938V5.732a2,2,0,0,0-4,0v8.205a31.944,31.944,0,0,0-12.984,60.1l-1.805,4.852a5.714,5.714,0,0,0-3.745,10.065l-.558,1.5c-.191.074-.388.134-.576.216a16.183,16.183,0,0,0-8.049,7.65l0,0,0,.007v0a16.09,16.09,0,0,0-1.672,7.8l.449,11.244a2,2,0,0,0,3.458,1.287l7.69-8.215,0,0a16.149,16.149,0,0,0,2.452-18.6l.553-1.486h0A5.749,5.749,0,0,0,52.6,86.627h0a5.754,5.754,0,0,0-1.636-6.349l1.7-4.582A31.723,31.723,0,0,0,62,77.71v4.313a5.731,5.731,0,0,0,0,10.754v1.592c-.153.136-.317.261-.464.4a16.193,16.193,0,0,0-4.876,9.978v.011h0a16.108,16.108,0,0,0,1.153,7.9l4.343,10.38a2,2,0,0,0,3.689,0l4.343-10.38v0A16.153,16.153,0,0,0,66,94.369V92.776a5.731,5.731,0,0,0,0-10.754V77.71A31.723,31.723,0,0,0,75.334,75.7l1.7,4.582A5.754,5.754,0,0,0,75.4,86.627h0a5.75,5.75,0,0,0,5.387,3.736h0l.553,1.485a16.177,16.177,0,0,0-1.385,11.591l0,.006v.008a16.116,16.116,0,0,0,3.833,6.995l0,0,7.69,8.215a2,2,0,0,0,3.458-1.287l.449-11.246a16.149,16.149,0,0,0-10.3-15.679ZM41.28,107.719l-4.421,4.722-.259-6.464a12.112,12.112,0,0,1,.412-3.555,16.191,16.191,0,0,0,6.282,2.333A12.151,12.151,0,0,1,41.28,107.719Zm3.2-6.994c-.006.053-.014.105-.021.158a12.555,12.555,0,0,1-5.791-2.155c.027-.041.054-.083.082-.124a12.054,12.054,0,0,1,.869-1.133c.044-.05.092-.1.136-.146a11.917,11.917,0,0,1,.937-.928c.06-.054.118-.11.18-.162A11.929,11.929,0,0,1,42,95.386c.083-.055.167-.107.251-.16a12.058,12.058,0,0,1,1.28-.713,12.065,12.065,0,0,1,.5,1.371c.03.1.061.2.089.3a11.933,11.933,0,0,1,.3,1.37c.013.087.021.175.032.263a11.909,11.909,0,0,1,.1,1.273c0,.079.009.157.009.236A12.081,12.081,0,0,1,44.477,100.725Zm4.372-15.493a1.75,1.75,0,0,1-3.226.111,1.716,1.716,0,0,1-.049-1.329,1.745,1.745,0,0,1,1.633-1.139,1.751,1.751,0,0,1,1.642,2.357ZM66.5,111.118,64,117.085l-2.5-5.968a12.125,12.125,0,0,1-.853-3.476,16.315,16.315,0,0,0,6.7,0A12.132,12.132,0,0,1,66.5,111.118Zm-.486-10.392a11.881,11.881,0,0,1,.542,1.169c.028.069.06.137.086.207a12.06,12.06,0,0,1,.416,1.356c.012.049.022.1.034.146a12.73,12.73,0,0,1-6.179,0c.01-.045.02-.089.031-.134a12.066,12.066,0,0,1,.424-1.38c.022-.058.049-.114.072-.172a11.9,11.9,0,0,1,.558-1.205c.038-.071.072-.144.111-.214a11.94,11.94,0,0,1,.762-1.189c.059-.081.121-.161.182-.241A12.07,12.07,0,0,1,64,97.956a12.073,12.073,0,0,1,.948,1.111c.062.081.125.162.185.244a11.913,11.913,0,0,1,.758,1.182C65.933,100.57,65.971,100.648,66.011,100.725ZM62.253,87.4A1.747,1.747,0,1,1,64,89.142,1.749,1.749,0,0,1,62.253,87.4Zm1.755-13.625h-.016a27.955,27.955,0,1,1,.016,0ZM82.377,85.343a1.743,1.743,0,1,1,.05-1.329A1.719,1.719,0,0,1,82.377,85.343Zm1.166,15.541c-.006-.05-.014-.1-.02-.15a12.062,12.062,0,0,1-.083-1.419c0-.07.007-.139.008-.209a11.921,11.921,0,0,1,.1-1.3c.011-.083.018-.167.031-.251a11.915,11.915,0,0,1,.3-1.375c.027-.1.058-.2.088-.293a12.053,12.053,0,0,1,.5-1.372,12.07,12.07,0,0,1,1.275.711c.087.055.174.108.26.165a11.925,11.925,0,0,1,1.121.843c.067.057.131.119.2.178a11.915,11.915,0,0,1,.906.9c.053.059.11.114.163.175a12.071,12.071,0,0,1,.855,1.115c.03.044.058.089.087.133a12.545,12.545,0,0,1-5.791,2.154Zm7.6,11.558-4.421-4.722a12.14,12.14,0,0,1-2.014-2.964,16.176,16.176,0,0,0,6.282-2.333,12.117,12.117,0,0,1,.412,3.553Z"/></svg>