<svg id="Layer_1" data-name="Layer 1" xmlns="http://www.w3.org/2000/svg" viewBox="0 0 128 128"><title>BUNK BED</title><path d="M113.5,15.16a5.627,5.627,0,0,0-5.621,5.621v9.232a8.654,8.654,0,0,0-4.126-3.174,5.929,5.929,0,0,0-5.4-8.415H88.743a5.927,5.927,0,0,0-5.608,7.886H57.079V20.78a5.62,5.62,0,0,0-11.24,0v5.53H27.188a8.612,8.612,0,0,0-7.068,3.7v-9.23a5.621,5.621,0,1,0-11.241,0v89.978a2,2,0,0,0,2,2H117.121a2,2,0,0,0,2-2V20.781A5.627,5.627,0,0,0,113.5,15.16Zm-5.621,69.293a8.654,8.654,0,0,0-4.126-3.174,5.929,5.929,0,0,0-5.4-8.413H88.743a5.926,5.926,0,0,0-5.609,7.884H57.079V58.32h50.8ZM86.8,78.807a1.944,1.944,0,0,1,1.941-1.941h9.614a1.942,1.942,0,0,1,0,3.883H88.743A1.944,1.944,0,0,1,86.8,78.807ZM107.879,41.2V54.32h-50.8V41.2h50.8Zm-50.8,43.55h43.729a4.625,4.625,0,0,1,4.62,4.62v2.27H57.079ZM88.743,22.424h9.614a1.942,1.942,0,0,1,0,3.883H88.743a1.942,1.942,0,0,1,0-3.883Zm12.065,7.886a4.625,4.625,0,0,1,4.62,4.62V37.2H57.079V30.31ZM45.839,91.64H22.568V89.37a4.625,4.625,0,0,1,4.62-4.62h18.65ZM27.188,80.75a8.612,8.612,0,0,0-7.068,3.7V76.98H45.839v3.77ZM20.12,72.98V58.32H45.839V72.98Zm0-18.66V49.76H45.839v4.56Zm0,41.32H45.839v4.56H20.12ZM45.839,45.76H20.12V41.2H45.839ZM20.12,104.2H45.839v4.56H20.12Zm2.448-69.27a4.625,4.625,0,0,1,4.62-4.62h18.65V37.2H22.568ZM12.879,20.781a1.621,1.621,0,1,1,3.241,0v87.978h-3.24ZM49.839,93.64V20.78a1.62,1.62,0,0,1,3.24,0v87.98h-3.24Zm7.24,2h50.8v13.12h-50.8Zm58.042,13.119h-3.242V20.781a1.621,1.621,0,1,1,3.242,0Z"/><path d="M89.07,100.2H80.532a2,2,0,0,0,0,4H89.07a2,2,0,0,0,0-4Z"/><path d="M80.532,49.76H89.07a2,2,0,0,0,0-4H80.532a2,2,0,0,0,0,4Z"/></svg>