<svg id="Layer_1" data-name="Layer 1" xmlns="http://www.w3.org/2000/svg" viewBox="0 0 128 128"><title>CABINET</title><path d="M106.508,7.514H21.492a2,2,0,0,0-2,2v11.7a2,2,0,0,0,2,2h3.167v88.952a2,2,0,0,0,2,2h4.667l2.807,3.993a5.478,5.478,0,0,0,4.476,2.324h8.927a5.476,5.476,0,0,0,4.476-2.324l2.807-3.993H73.182l2.807,3.993a5.478,5.478,0,0,0,4.476,2.324h8.928a5.472,5.472,0,0,0,4.475-2.324l2.808-3.993h4.667a2,2,0,0,0,2-2V23.217h3.166a2,2,0,0,0,2-2V9.514A2,2,0,0,0,106.508,7.514ZM48.714,49.2l3.933,5.595a6.624,6.624,0,0,0,5.415,2.812H69.94a6.627,6.627,0,0,0,5.415-2.812L79.287,49.2H99.342V77.708H28.658V49.2Zm4.89,0H74.4l-2.314,3.294a2.623,2.623,0,0,1-2.143,1.112H58.061a2.621,2.621,0,0,1-2.142-1.112ZM74.4,81.708,72.082,85a2.622,2.622,0,0,1-2.143,1.113H58.061A2.622,2.622,0,0,1,55.919,85L53.6,81.708ZM48.739,115.861a1.471,1.471,0,0,1-1.2.625H38.608a1.472,1.472,0,0,1-1.2-.625l-1.19-1.692H49.928Zm41.856,0a1.47,1.47,0,0,1-1.2.624H80.465a1.473,1.473,0,0,1-1.2-.625l-1.189-1.692H91.785Zm5.042-5.693H28.658V81.708H48.714L52.647,87.3a6.625,6.625,0,0,0,5.414,2.812H69.94A6.631,6.631,0,0,0,75.355,87.3l3.932-5.595H99.342v28.461ZM99.342,45.2H28.658V23.217H48.714l3.933,5.595a6.624,6.624,0,0,0,5.415,2.812H69.94a6.627,6.627,0,0,0,5.415-2.812l3.932-5.595H99.342ZM53.6,23.217H74.4l-2.314,3.294a2.623,2.623,0,0,1-2.143,1.112H58.061a2.621,2.621,0,0,1-2.142-1.112Zm50.9-4H23.492v-7.7h81.016Z"/></svg>