<svg id="Layer_1" data-name="Layer 1" xmlns="http://www.w3.org/2000/svg" viewBox="0 0 128 128"><title>CANDLE</title><path d="M104.335,96.35H89.925v-37.7a6.148,6.148,0,0,0,2.21-4.7V43.22a2,2,0,0,0-2-2H79.675V39.365c6.732-.782,8.411-5.485,8.788-8.4C89.6,22.2,82.169,9.348,76.647,7.895a2,2,0,0,0-2.479,2.275c.673,3.894-.535,6.152-2.364,9.57a48.724,48.724,0,0,0-3.337,7.279,9.619,9.619,0,0,0,.971,8.739,9.05,9.05,0,0,0,6.237,3.569V41.22H65.215a2,2,0,0,0-2,2v12.8a6.149,6.149,0,0,0,2.21,4.713V96.35h-.73c-.016,0-.032,0-.048,0H60.975C60.242,78.205,49.487,74.32,40.415,74.32c-13.757,0-18.75,10.2-18.75,17.05a6,6,0,0,0,12,0c0-.682.22-6.661,6.75-6.661,4,0,8.6,1.55,8.6,13.639v5.53A16.308,16.308,0,0,0,65.3,120.17h24.74a16.308,16.308,0,0,0,16.29-16.29V98.35A2,2,0,0,0,104.335,96.35ZM72.7,33.444a5.638,5.638,0,0,1-.458-5.1,45.417,45.417,0,0,1,3.088-6.713c1.371-2.562,2.613-4.882,2.943-7.812,3.184,3.61,6.933,11.14,6.222,16.643-.242,1.868-1.037,4.264-4.821,4.88V31.764a2,2,0,0,0-4,0v3.507A4.827,4.827,0,0,1,72.7,33.444ZM67.215,45.22h20.92v8.73a2.173,2.173,0,0,1-1.128,1.894,2.208,2.208,0,0,1-1.021.256,2.157,2.157,0,0,1-2.16-2.149V49.442a2,2,0,1,0-4,0V60.52a2.15,2.15,0,0,1-4.3,0v-4.5a2,2,0,1,0-4,0,2.158,2.158,0,0,1-2.16,2.15,2.1,2.1,0,0,1-1-.234,2.171,2.171,0,0,1-1.152-1.916Zm2.21,16.95c.08,0,.155-.02.235-.024a6.5,6.5,0,0,0,.765-.079c.115-.02.226-.046.338-.072a5.812,5.812,0,0,0,.883-.261A6.151,6.151,0,0,0,83.825,60.52v-.811a5.878,5.878,0,0,0,.873.244c.084.018.167.037.253.051a6.2,6.2,0,0,0,.8.078c.061,0,.118.017.179.018V96.35h-16.5Zm32.91,41.71a12.3,12.3,0,0,1-12.29,12.29H65.3a12.3,12.3,0,0,1-12.29-12.29V98.35c0-11.7-4.239-17.639-12.6-17.639-8.5,0-10.75,6.973-10.75,10.659a2,2,0,0,1-4,0c0-5.246,3.928-13.05,14.75-13.05,10.6,0,16.019,5.91,16.547,18.024h-.689a2,2,0,0,0,0,4h2.693c.016,0,.032,0,.048,0h43.32Z"/></svg>