<svg id="Layer_1" data-name="Layer 1" xmlns="http://www.w3.org/2000/svg" viewBox="0 0 128 128"><title>CLOCK</title><path d="M97.325,78.921A33.325,33.325,0,1,0,64,112.246,33.362,33.362,0,0,0,97.325,78.921Zm-62.649,0A29.325,29.325,0,1,1,64,108.246,29.358,29.358,0,0,1,34.675,78.921Z"/><path d="M64,81.484a2.563,2.563,0,1,0-2.562-2.563A2.566,2.566,0,0,0,64,81.484Z"/><path d="M64,60.07a2,2,0,0,0,2-2V55.821a2,2,0,0,0-4,0V58.07A2,2,0,0,0,64,60.07Z"/><path d="M66,102.021V99.772a2,2,0,0,0-4,0v2.249a2,2,0,1,0,4,0Z"/><path d="M54.182,57.916a2,2,0,1,0-3.464,2l1.125,1.948a2,2,0,1,0,3.464-2Z"/><path d="M73.818,99.926a2,2,0,0,0,3.464-2l-1.125-1.947a2,2,0,1,0-3.464,2Z"/><path d="M46.942,66.764,45,65.639A2,2,0,1,0,43,69.1l1.947,1.125a2,2,0,1,0,2-3.464Z"/><path d="M81.058,91.079,83,92.2a2,2,0,1,0,2-3.464l-1.947-1.124a2,2,0,1,0-2,3.464Z"/><path d="M45.149,78.921a2,2,0,0,0-2-2H40.9a2,2,0,0,0,0,4h2.249A2,2,0,0,0,45.149,78.921Z"/><path d="M82.851,78.921a2,2,0,0,0,2,2H87.1a2,2,0,0,0,0-4H84.851A2,2,0,0,0,82.851,78.921Z"/><path d="M44.942,87.615,43,88.739A2,2,0,1,0,45,92.2l1.947-1.124a2,2,0,1,0-2-3.464Z"/><path d="M82.06,70.5a1.988,1.988,0,0,0,1-.269L85,69.1a2,2,0,1,0-2-3.464l-1.947,1.125a2,2,0,0,0,1,3.732Z"/><path d="M54.575,95.247a2,2,0,0,0-2.732.732l-1.125,1.947a2,2,0,1,0,3.464,2l1.125-1.947A2,2,0,0,0,54.575,95.247Z"/><path d="M73.425,62.6a2,2,0,0,0,2.732-.732l1.125-1.948a2,2,0,1,0-3.464-2l-1.125,1.948A2,2,0,0,0,73.425,62.6Z"/><path d="M96.233,105.181A41.553,41.553,0,0,0,81.779,41.323h8.08a2,2,0,0,0,2-2c0-11.341-8.77-20.907-20.645-23.717v-4.1a7.215,7.215,0,0,0-14.43,0v4.1C44.91,18.416,36.14,27.982,36.14,39.323a2,2,0,0,0,2,2h8.08a41.553,41.553,0,0,0-14.453,63.858l-6.21,6.209a7.215,7.215,0,0,0,10.2,10.2l6.952-6.952a41.49,41.49,0,0,0,42.576,0l6.952,6.952a7.215,7.215,0,1,0,10.2-10.2ZM60.785,14.929v-3.42a3.215,3.215,0,0,1,6.43,0v3.42c-.059-.006-.119-.008-.178-.013-.336-.032-.675-.055-1.015-.077-.165-.01-.33-.025-.495-.033-.506-.024-1.015-.038-1.527-.038s-1.021.014-1.527.038c-.165.008-.33.023-.495.033-.34.022-.678.045-1.015.077C60.9,14.921,60.844,14.923,60.785,14.929ZM40.252,37.323c1.019-9.052,8.883-16.4,19.063-18.152.542-.093,1.091-.157,1.641-.217.22-.024.434-.062.656-.081a28.241,28.241,0,0,1,4.776,0c.222.019.436.057.656.081.55.06,1.1.124,1.641.217,10.179,1.754,18.044,9.1,19.063,18.152Zm-.944,75.065-6.376,6.376a3.215,3.215,0,0,1-4.546-4.546l6.047-6.047c.16.162.336.307.5.466q.694.679,1.419,1.326.437.389.884.766c.619.522,1.249,1.032,1.9,1.518C39.192,112.293,39.248,112.344,39.308,112.389Zm3.9-2.163c-.42-.279-.831-.571-1.238-.866q-.583-.423-1.147-.868c-.3-.239-.608-.478-.9-.726s-.605-.517-.9-.782c-.225-.2-.446-.405-.666-.611a37.6,37.6,0,1,1,51.3,0c-.22.205-.44.41-.665.609-.3.265-.6.527-.9.782s-.6.486-.9.724q-.568.446-1.152.872c-.407.295-.817.586-1.235.864a37.5,37.5,0,0,1-41.589,0Zm56.409,8.54a3.219,3.219,0,0,1-4.546,0l-6.376-6.376c.06-.045.116-.1.176-.141.649-.486,1.279-1,1.9-1.518q.448-.377.884-.766.725-.646,1.419-1.326c.163-.159.339-.3.5-.466l6.047,6.047a3.215,3.215,0,0,1,0,4.546Z"/></svg>