<svg id="Layer_1" data-name="Layer 1" xmlns="http://www.w3.org/2000/svg" viewBox="0 0 128 128"><title>CLOUD AND MOON</title><path d="M23.887,33.732l14.09,1.754a2.057,2.057,0,0,0,.25.015,2,2,0,0,0,.244-3.985l-9.231-1.149L39.1,22.842a2,2,0,0,0-.947-3.572L25.239,17.541a2,2,0,0,0-.531,3.965l8.127,1.087-9.914,7.564a2,2,0,0,0,.966,3.575Z"/><path d="M45.509,41.517a2,2,0,0,0,1.684,1.463L59.422,44.5a2.057,2.057,0,0,0,.25.015,2,2,0,0,0,.244-3.985l-7.371-.917,8.048-6.14a2,2,0,0,0-.947-3.573L48.434,28.4a2,2,0,0,0-.531,3.965l6.422.859-8.1,6.178A2,2,0,0,0,45.509,41.517Z"/><path d="M124.484,58.161A39.536,39.536,0,0,0,102.309,22.5a2,2,0,0,0-2.679,2.68,35.4,35.4,0,0,1,3.7,15.83A35.969,35.969,0,0,1,86.6,71.286a19.971,19.971,0,0,0-6.192-.989,20.9,20.9,0,0,0-2.365.133A29.2,29.2,0,0,0,24.228,70.3c-.122,0-.243,0-.362,0a20.339,20.339,0,1,0,0,40.677H99.137a13.522,13.522,0,0,0,10.62-21.919A39.92,39.92,0,0,0,124.484,58.161ZM99.137,106.974H23.865a16.339,16.339,0,1,1,0-32.677c.462,0,.95.025,1.5.078a2.015,2.015,0,0,0,2.07-1.3,25.2,25.2,0,0,1,47.442.252,2,2,0,0,0,2.284,1.291,16.314,16.314,0,0,1,3.248-.319,15.936,15.936,0,0,1,5.764,1.059,16.343,16.343,0,0,1,10.01,11.088A2,2,0,0,0,98.3,87.921c.274-.026.549-.045.832-.045s.585.013.874.04a9.579,9.579,0,0,1,8.669,9.515A9.554,9.554,0,0,1,99.137,106.974Zm7.692-20.693c-.124-.086-.254-.163-.381-.245-.1-.064-.2-.13-.3-.192-.256-.156-.516-.3-.781-.439-.056-.029-.11-.062-.167-.091q-.484-.244-.986-.446c-.091-.037-.184-.067-.275-.1-.246-.094-.494-.182-.745-.261-.123-.039-.247-.073-.372-.108q-.342-.1-.688-.176c-.13-.03-.26-.058-.391-.084-.243-.048-.487-.086-.733-.121-.116-.016-.231-.036-.348-.049-.361-.041-.725-.071-1.091-.083a20.223,20.223,0,0,0-.779-1.878c-.089-.189-.188-.372-.283-.558-.215-.423-.441-.837-.683-1.243-.12-.2-.242-.4-.368-.593-.257-.4-.53-.784-.815-1.163-.123-.164-.239-.331-.366-.491-.413-.517-.845-1.018-1.306-1.493-.073-.075-.154-.142-.228-.216q-.6-.6-1.24-1.141c-.179-.152-.366-.293-.551-.439-.348-.274-.7-.538-1.07-.79-.2-.141-.41-.279-.62-.412-.124-.078-.24-.167-.365-.243A40.016,40.016,0,0,0,107.333,41.01a39.385,39.385,0,0,0-1.841-11.97,35.515,35.515,0,0,1,14.992,29.121A35.913,35.913,0,0,1,106.829,86.28Z"/><path d="M71.306,45.308l-1.26,7.343a2,2,0,0,0,2.9,2.108l6.594-3.466,6.594,3.466a2,2,0,0,0,2.9-2.108l-1.26-7.343,5.335-5.2A2,2,0,0,0,92,36.7l-7.372-1.072-3.3-6.68a2,2,0,0,0-3.586,0l-3.3,6.68L67.079,36.7a2,2,0,0,0-1.108,3.411Zm4.762-5.876a2,2,0,0,0,1.5-1.094l1.97-3.99,1.97,3.99a2,2,0,0,0,1.5,1.094l4.4.64-3.186,3.105a2,2,0,0,0-.575,1.77l.752,4.385-3.937-2.07a2,2,0,0,0-1.861,0l-3.937,2.07.752-4.385a2,2,0,0,0-.575-1.77l-3.186-3.105Z"/></svg>