<svg id="Layer_1" data-name="Layer 1" xmlns="http://www.w3.org/2000/svg" viewBox="0 0 128 128"><title>COFFEE</title><path d="M90.811,87.871a27.962,27.962,0,0,0,24.378-27.586V51.84a6.063,6.063,0,0,0-6.057-6.057H94.425V41.359a2,2,0,0,0-2-2H29.577a2,2,0,0,0-2,2V72.784A33.453,33.453,0,0,0,45.16,102.208H18.335a5.524,5.524,0,1,0,0,11.049H31.494a17.241,17.241,0,0,0,14.885,8.513H75.622a17.241,17.241,0,0,0,14.885-8.513h13.159a5.524,5.524,0,1,0,0-11.049H76.842A33.649,33.649,0,0,0,90.811,87.871ZM94.425,57.9h8.651v2.389A15.733,15.733,0,0,1,94.386,74.3c.023-.5.039-1.008.039-1.517Zm14.708-8.113a2.059,2.059,0,0,1,2.057,2.057v8.445A23.961,23.961,0,0,1,92.665,83.493c.027-.08.046-.162.072-.242a33.123,33.123,0,0,0,1.093-4.214c.011-.057.027-.113.038-.17a19.755,19.755,0,0,0,13.209-18.582V55.9a2,2,0,0,0-2-2H94.425V49.783ZM75.622,117.77H46.379a13.255,13.255,0,0,1-9.982-4.513H85.6A13.256,13.256,0,0,1,75.622,117.77Zm28.044-11.562a1.524,1.524,0,1,1,0,3.049H18.335a1.524,1.524,0,1,1,0-3.049Zm-42.666-4h0A29.458,29.458,0,0,1,31.577,72.784V43.359H90.425V72.784a29.525,29.525,0,0,1-.315,4.281c-.1.656-.217,1.308-.357,1.955-.022.1-.048.206-.071.309q-.188.828-.425,1.643c-.03.1-.058.211-.09.316q-.274.906-.606,1.794c-.046.123-.1.243-.144.365q-.277.712-.593,1.409A29.458,29.458,0,0,1,61,102.208Z"/><path d="M54.151,35.465A2,2,0,0,0,55.6,32.087c-5.549-5.837-3.75-8.169-1.026-11.7,2.328-3.017,5.516-7.15,1.216-13.3a2,2,0,1,0-3.278,2.291c2.617,3.745,1.216,5.561-1.1,8.569-2.792,3.62-6.617,8.576,1.294,16.9A2,2,0,0,0,54.151,35.465Z"/><path d="M70.25,35.465A2,2,0,0,0,71.7,32.087c-5.549-5.837-3.75-8.169-1.026-11.7,2.328-3.017,5.516-7.15,1.216-13.3a2,2,0,0,0-3.278,2.291c2.617,3.745,1.216,5.561-1.1,8.569-2.792,3.62-6.617,8.576,1.294,16.9A2,2,0,0,0,70.25,35.465Z"/></svg>