<svg id="Layer_1" data-name="Layer 1" xmlns="http://www.w3.org/2000/svg" viewBox="0 0 128 128"><title>DO NOT DISTURB</title><path d="M86.064,51.225a7.066,7.066,0,0,0,7.058-7.059V38.6A30.182,30.182,0,0,0,84.1,17.2,28.618,28.618,0,0,0,63.438,8.873a29.267,29.267,0,0,0-28.56,29.118v79.14a2,2,0,0,0,2,2H91.122a2,2,0,0,0,2-2V81.867a2,2,0,0,0-.816-1.612L52.786,51.244A9.907,9.907,0,0,1,48.973,43.4V38.9a15.245,15.245,0,0,1,14.288-15.48,15.019,15.019,0,0,1,15.746,15v5.747A7.066,7.066,0,0,0,86.064,51.225ZM77.115,24.657a18.885,18.885,0,0,0-14.042-5.234A19.239,19.239,0,0,0,44.973,38.9v4.5a13.913,13.913,0,0,0,5.4,11.026L89.122,82.88v32.251H38.878V37.991A25.246,25.246,0,0,1,63.514,12.873,24.614,24.614,0,0,1,81.3,20.057,26.153,26.153,0,0,1,89.122,38.6v5.564a3.058,3.058,0,1,1-6.115,0V38.419A18.855,18.855,0,0,0,77.115,24.657Z"/><path d="M46.935,99.816l5.841.03-6.643,6.564a2,2,0,0,0,1.406,3.423h.009l10.778-.046a2,2,0,0,0-.009-4h-.009l-5.88.025,6.6-6.519a2,2,0,0,0-1.4-3.423l-10.674-.056h-.011a2,2,0,0,0-.011,4Z"/><path d="M65.937,84.825l8.793.045L65.3,94.19a2,2,0,0,0,1.406,3.423h.009l13.462-.059a2,2,0,0,0-.009-4h-.009l-8.562.037,9.383-9.273a2,2,0,0,0-1.4-3.423l-13.626-.07h-.011a2,2,0,0,0-.011,4Z"/></svg>