<svg id="Layer_1" data-name="Layer 1" xmlns="http://www.w3.org/2000/svg" viewBox="0 0 128 128"><title>DOUBLE BED</title><path d="M119.07,76.4V47.069A20.581,20.581,0,0,0,98.512,26.512H29.488A20.581,20.581,0,0,0,8.93,47.069V76.4A2,2,0,0,0,6.99,78.4v7.974a2,2,0,0,0,2,2H10.8V99.488a2,2,0,0,0,2,2h7.973a2,2,0,0,0,2-2V88.371h82.456V99.488a2,2,0,0,0,2,2H115.2a2,2,0,0,0,2-2V88.371h1.809a2,2,0,0,0,2-2V78.4A2,2,0,0,0,119.07,76.4Zm-98.3,7.968H10.99V80.4H117.01v3.974H20.772Zm6.395-29.162a48.734,48.734,0,0,1,0-11.457,3.2,3.2,0,0,0-.918-2.627l-.076-.075a1.195,1.195,0,0,1,.053-1.731,1.268,1.268,0,0,1,1.7.129l.11.109a3.265,3.265,0,0,0,2.45.9,170.7,170.7,0,0,1,23.13,0,3.282,3.282,0,0,0,2.458-.933l.155-.155a1.161,1.161,0,0,1,.917-.344,1.192,1.192,0,0,1,.884.5,1.042,1.042,0,0,1,.21.647,1.366,1.366,0,0,1-.414.956,3.242,3.242,0,0,0-.913,2.64,48.732,48.732,0,0,1,0,11.459,3.216,3.216,0,0,0-.02.355H27.186A3.471,3.471,0,0,0,27.167,55.209Zm-2.907,4.426c.358-.034.715-.051,1.081-.051h77.32c.377,0,.746.017,1.114.051h.007a12.359,12.359,0,0,1,7.366,3.281H16.926A12.322,12.322,0,0,1,24.259,59.635Zm46.827-4.426a48.709,48.709,0,0,1,0-11.454,3.234,3.234,0,0,0-.914-2.625l-.08-.08a1.169,1.169,0,0,1-.344-.874,1.187,1.187,0,0,1,.412-.862,1.254,1.254,0,0,1,1.683.134l.11.109a3.266,3.266,0,0,0,2.45.9,170.86,170.86,0,0,1,23.13,0,3.28,3.28,0,0,0,2.458-.933l.15-.15a1.168,1.168,0,0,1,.928-.35,1.19,1.19,0,0,1,.878.5,1.042,1.042,0,0,1,.21.647,1.366,1.366,0,0,1-.414.956,3.2,3.2,0,0,0-.913,2.64,48.727,48.727,0,0,1,0,11.462,3.3,3.3,0,0,0-.019.353H71.106A3.472,3.472,0,0,0,71.086,55.209Zm42.9,11.708A12.485,12.485,0,0,1,115.07,72v4.39H12.93V72a12.243,12.243,0,0,1,1.12-5.087Zm-84.5-36.406H98.512A16.576,16.576,0,0,1,115.07,47.069V61.235a16.291,16.291,0,0,0-9.859-5.436,5.118,5.118,0,0,0-.363-.493,52.652,52.652,0,0,0,0-11.64,5.359,5.359,0,0,0,1.312-3.492,5.008,5.008,0,0,0-1.019-3.059,5.177,5.177,0,0,0-7.717-.671,174.568,174.568,0,0,0-22.934,0,5.183,5.183,0,0,0-7.419,7.227,52.643,52.643,0,0,0,0,11.652c-.07.081-.124.175-.189.26H61.139c-.072-.091-.132-.192-.21-.278a52.682,52.682,0,0,0,0-11.64,5.359,5.359,0,0,0,1.312-3.492,5.008,5.008,0,0,0-1.019-3.059,5.179,5.179,0,0,0-7.718-.671,174.553,174.553,0,0,0-22.933,0,5.183,5.183,0,0,0-7.419,7.228,52.66,52.66,0,0,0,0,11.65,5.281,5.281,0,0,0-.342.476,16.372,16.372,0,0,0-9.881,5.539V47.069A16.576,16.576,0,0,1,29.488,30.512ZM18.772,97.488H14.8V88.371h3.973Zm94.429,0h-3.973V88.371H113.2Z"/></svg>