<svg id="Layer_1" data-name="Layer 1" xmlns="http://www.w3.org/2000/svg" viewBox="0 0 128 128"><title>DREAM</title><path d="M39.27,68.763l-9.137-.015L40,59.1a2,2,0,0,0-1.377-3.43l-14.083-.149h-.021a2,2,0,0,0-.021,4l9.25.1L23.836,69.31a2,2,0,0,0,1.4,3.43l14.032.023h0a2,2,0,0,0,0-4Z"/><path d="M68.128,67.639,51.67,67.612l16.847-16.47a2,2,0,0,0-1.377-3.43l-21.431-.228h-.021a2,2,0,0,0-.021,4l16.6.176L45.373,68.174a2,2,0,0,0,1.4,3.43l21.354.035h0a2,2,0,0,0,0-4Z"/><path d="M103.48,66.689l-22.639-.037,22.737-22.229a2,2,0,0,0-1.377-3.43L74.567,40.7h-.021a2,2,0,0,0-.021,4l22.8.242L74.545,67.214a2,2,0,0,0,1.4,3.43l27.534.044h0a2,2,0,0,0,0-4Z"/><path d="M83.148,20.2h-38.3A36.536,36.536,0,0,0,40.438,93a17.44,17.44,0,0,1,7.521,2.723L65.683,107.47a2,2,0,0,0,3.054-2.114l-2.771-12.09H83.148a36.534,36.534,0,1,0,0-73.069Zm0,69.069H64.443a2.787,2.787,0,0,0-2.717,3.41l1.993,8.694L50.169,92.392a21.461,21.461,0,0,0-9.252-3.361A32.536,32.536,0,0,1,44.852,24.2h38.3a32.534,32.534,0,1,1,0,65.069Z"/></svg>