<svg id="Layer_1" data-name="Layer 1" xmlns="http://www.w3.org/2000/svg" viewBox="0 0 128 128"><title>DRINKING WATER</title><path d="M111.174,47.4V37.515a16.447,16.447,0,0,0-13.756-16.2V19.432h.244a2,2,0,0,0,2-2V7.58a2,2,0,0,0-2-2H75.526a2,2,0,0,0-2,2v9.852a2,2,0,0,0,2,2h.244v1.887a16.446,16.446,0,0,0-13.756,16.2V47.4a2,2,0,0,0,1.172,1.816,7.889,7.889,0,0,0-1.172,4.133v9.583a7.889,7.889,0,0,0,1.172,4.133,2,2,0,0,0-1.172,1.816V108.2a12.038,12.038,0,0,0,12.03,12.02h5.921a8.884,8.884,0,0,0,5.838,2.2h1.58a8.885,8.885,0,0,0,5.839-2.2h5.921a12.038,12.038,0,0,0,12.03-12.02V68.88A2,2,0,0,0,110,67.064a7.889,7.889,0,0,0,1.172-4.133V53.349A7.889,7.889,0,0,0,110,49.216,2,2,0,0,0,111.174,47.4ZM77.526,9.58H95.661v5.852H77.526Zm15.891,9.852V21.08H79.77V19.432Zm-27.4,18.083A12.449,12.449,0,0,1,78.449,25.08H94.739a12.449,12.449,0,0,1,12.435,12.435V45.4H66.014Zm41.16,15.834v9.583a3.953,3.953,0,0,1-3.948,3.948H69.962a3.953,3.953,0,0,1-3.948-3.948V53.349A3.953,3.953,0,0,1,69.962,49.4h33.264A3.953,3.953,0,0,1,107.174,53.349Zm0,54.852a8.034,8.034,0,0,1-8.03,8.02h-3.3a8.886,8.886,0,0,0,.415-2.67,2,2,0,0,0-4,0,4.783,4.783,0,0,1-1.295,3.3l-.006.008-.007.006a4.805,4.805,0,0,1-3.562,1.559H85.8a4.8,4.8,0,0,1-3.562-1.559l-.007-.006-.006-.008a4.783,4.783,0,0,1-1.295-3.3,2,2,0,0,0-4,0,8.886,8.886,0,0,0,.415,2.67h-3.3a8.034,8.034,0,0,1-8.03-8.02V70.88h41.16Z"/><path d="M82.7,63.9a6.75,6.75,0,0,0,7.785,0,5.274,5.274,0,0,0,1.125-7.534l-3.436-4.441a2.069,2.069,0,0,0-3.164,0l-3.437,4.441A5.276,5.276,0,0,0,82.7,63.9Zm2.038-5.087,1.854-2.4,1.854,2.4a1.274,1.274,0,0,1-.273,1.821,2.741,2.741,0,0,1-3.164,0h0a1.276,1.276,0,0,1-.272-1.821Z"/><path d="M54.033,66.88H18.826a2,2,0,0,0-1.987,2.229L22.555,118.5a2,2,0,0,0,1.987,1.771H48.318A2,2,0,0,0,50.3,118.5L56.02,69.109a2,2,0,0,0-1.987-2.229Zm-2.245,4L50.166,84.9c-2.117,1.38-6.112.241-10.691-1.069-5.338-1.525-11.3-3.229-17.126-1.91L21.071,70.88ZM26.323,116.269,22.813,85.928c4.983-1.275,10.576.325,15.562,1.752,4.1,1.173,8.041,2.3,11.276,1.672l-3.114,26.917Z"/></svg>