<svg id="Layer_1" data-name="Layer 1" xmlns="http://www.w3.org/2000/svg" viewBox="0 0 128 128"><title>GHOST</title><path d="M114.828,41.71H100.475a36.508,36.508,0,0,0-72.949,0H13.172a5.665,5.665,0,0,0-5.714,5.6c0,13.03,14.869,17.332,20.035,18.433V113.11c0,4.64,5.8,8.138,13.5,8.138a19.109,19.109,0,0,0,9.553-2.3,3.834,3.834,0,0,1,3.9,0,19.109,19.109,0,0,0,9.553,2.3,19.109,19.109,0,0,0,9.553-2.3,3.834,3.834,0,0,1,3.9,0,19.109,19.109,0,0,0,9.553,2.3c7.7,0,13.5-3.5,13.5-8.138V65.743c5.166-1.1,20.035-5.4,20.035-18.433A5.665,5.665,0,0,0,114.828,41.71ZM100.507,61.628V56.079a2,2,0,1,0-4,0V113.11c0,1.688-3.7,4.138-9.5,4.138a15.319,15.319,0,0,1-7.52-1.746,7.841,7.841,0,0,0-7.966,0A15.319,15.319,0,0,1,64,117.248a15.319,15.319,0,0,1-7.52-1.746,7.839,7.839,0,0,0-7.966,0A15.319,15.319,0,0,1,41,117.248c-5.8,0-9.5-2.45-9.5-4.138V56.079a2,2,0,0,0-4,0v5.553c-4.912-1.188-16.035-4.917-16.035-14.322a1.683,1.683,0,0,1,1.714-1.6h15.87a2.454,2.454,0,0,0,2.451-2.451,32.507,32.507,0,0,1,65.014,0,2.454,2.454,0,0,0,2.451,2.451h15.87a1.683,1.683,0,0,1,1.714,1.6C116.542,56.686,105.42,60.431,100.507,61.628Z"/><path d="M78.294,35.575a7.448,7.448,0,1,0,7.448,7.448A7.456,7.456,0,0,0,78.294,35.575Zm0,10.9a3.448,3.448,0,1,1,3.448-3.448A3.452,3.452,0,0,1,78.294,46.472Z"/><path d="M49.706,50.472a7.448,7.448,0,1,0-7.448-7.448A7.456,7.456,0,0,0,49.706,50.472Zm0-10.9a3.448,3.448,0,1,1-3.448,3.448A3.452,3.452,0,0,1,49.706,39.575Z"/><path d="M82.479,57.151H45.521a2,2,0,0,0-2,2v3.41a20.479,20.479,0,1,0,40.959,0v-3.41A2,2,0,0,0,82.479,57.151Zm-2,5.41a16.479,16.479,0,1,1-32.959,0v-1.41H80.479Z"/></svg>