<svg id="Layer_1" data-name="Layer 1" xmlns="http://www.w3.org/2000/svg" viewBox="0 0 128 128"><title>LAMP</title><path d="M113.052,7.691H102.846a6.611,6.611,0,0,0-6.6,6.6v4.979H67.251A23.333,23.333,0,0,0,44,41.13H36.179a2,2,0,0,0-2,2v6.109H32.12a2,2,0,0,0-1.769,1.066L13.179,82.85a2,2,0,0,0,1.769,2.934H36.594a14.419,14.419,0,0,0,.3,2.354,15.258,15.258,0,0,0,29.823.027,14.464,14.464,0,0,0,.311-2.382H88.677a2,2,0,0,0,1.769-2.934L73.274,50.306A2,2,0,0,0,71.5,49.239H69.446V43.13a2,2,0,0,0-2-2H58.53a8.781,8.781,0,0,1,8.721-7.948H96.243v5.638a6.611,6.611,0,0,0,6.6,6.6h10.206a2,2,0,0,0,2-2V9.691A2,2,0,0,0,113.052,7.691ZM62.816,87.3A11.256,11.256,0,0,1,40.8,87.275a10.317,10.317,0,0,1-.224-1.492H63.046A10.531,10.531,0,0,1,62.816,87.3Zm22.545-5.52h-20.3c-.014,0-.027,0-.041,0H38.6c-.014,0-.027,0-.041,0h-20.3L33.326,53.239H70.3ZM65.446,49.239H38.179V45.13H65.446Zm1.8-20.058A12.891,12.891,0,0,0,54.494,41.13H48A19.332,19.332,0,0,1,67.251,23.274H96.243v5.907Zm43.8,12.241h-8.206a2.607,2.607,0,0,1-2.6-2.6V14.295a2.607,2.607,0,0,1,2.6-2.6h8.206Z"/><path d="M31.427,90.976a2,2,0,0,0-2-2H17.135a2,2,0,1,0,0,4H29.427A2,2,0,0,0,31.427,90.976Z"/><path d="M36.837,102.324l-8.022,7.556a2,2,0,1,0,2.742,2.912l8.022-7.556a2,2,0,1,0-2.742-2.912Z"/><path d="M86.491,88.976H74.2a2,2,0,0,0,0,4H86.491a2,2,0,0,0,0-4Z"/><path d="M66.77,102.324a2,2,0,1,0-2.742,2.912l8.02,7.553a2,2,0,1,0,2.742-2.912Z"/><path d="M51.8,105.98a2,2,0,0,0-2,2v10.181c0,.049-.005.1-.005.147a2,2,0,0,0,2,2,2.048,2.048,0,0,0,.256-.017,2,2,0,0,0,1.749-1.984V107.98A2,2,0,0,0,51.8,105.98Z"/></svg>