<svg id="Layer_1" data-name="Layer 1" xmlns="http://www.w3.org/2000/svg" viewBox="0 0 128 128"><title>LOTUS</title><path d="M120.833,73.922,110.346,66.07a33.378,33.378,0,0,0-10.686-5.324,33.149,33.149,0,0,0,3.777-11.315l1.876-12.958a2,2,0,0,0-2.265-2.266L90.094,36.072a32.986,32.986,0,0,0-11.32,3.785,33.312,33.312,0,0,0-5.331-10.675L65.6,18.692a2,2,0,0,0-1.6-.8h0a2,2,0,0,0-1.6.8l-7.838,10.49a33.315,33.315,0,0,0-5.328,10.677,33.079,33.079,0,0,0-11.319-3.788l-12.97-1.864a2,2,0,0,0-2.264,2.267l1.877,12.96a33.3,33.3,0,0,0,3.785,11.313,33.385,33.385,0,0,0-10.688,5.326L7.168,73.922a2,2,0,0,0,0,3.2L17.65,84.962A33.432,33.432,0,0,0,33.816,91.39a20.737,20.737,0,0,0,17.19,9.24H76.994a20.734,20.734,0,0,0,17.189-9.24,33.441,33.441,0,0,0,16.167-6.43l10.48-7.837a2,2,0,0,0,0-3.2ZM78.6,44.626a28.972,28.972,0,0,1,12.063-4.595l10.311-1.483L99.479,48.861a29.183,29.183,0,0,1-3.888,10.965c-.044-.007-.088-.011-.132-.018-.219-.034-.439-.06-.658-.089-.315-.042-.63-.085-.946-.119-.211-.022-.422-.037-.633-.056-.326-.028-.651-.055-.977-.074-.2-.011-.41-.017-.615-.025-.333-.013-.665-.024-1-.026-.2,0-.4,0-.6,0-.336,0-.671.009-1.007.022-.2.008-.4.019-.6.031-.336.019-.67.042-1.005.071-.2.017-.4.038-.6.058q-.5.052-1,.119-.3.04-.6.086-.495.076-.986.166c-.2.036-.4.074-.6.114-.326.066-.65.137-.974.213-.2.046-.4.092-.594.142-.321.081-.64.168-.958.258-.2.056-.4.111-.593.17-.316.1-.629.2-.943.3-.195.065-.39.128-.584.2-.313.111-.622.23-.931.35-.19.074-.381.145-.57.222-.31.127-.617.263-.923.4-.184.082-.369.159-.551.244-.314.146-.623.3-.932.458-.169.085-.34.166-.508.254-.335.176-.664.363-.993.551-.137.078-.277.151-.413.231q-.693.409-1.368.851c-.728.482-1.429,1-2.115,1.535-.107.084-.216.165-.322.25q-.975.78-1.887,1.632c-.114.106-.226.214-.339.321-.169.162-.343.318-.509.483,0-.031,0-.062,0-.093q0-.769-.039-1.534v-.019c-.028-.553-.071-1.1-.126-1.652v-.006c-.056-.55-.127-1.1-.21-1.641,0-.027-.01-.055-.014-.082-.061-.391-.122-.781-.2-1.169.015-.068.031-.135.047-.2.083-.368.171-.735.268-1.1.036-.134.076-.268.114-.4.089-.316.18-.631.28-.943.057-.179.12-.356.181-.533.09-.266.181-.532.279-.8.081-.217.169-.432.255-.647s.175-.443.268-.662c.108-.251.223-.5.338-.747.083-.18.163-.361.25-.54.135-.278.279-.551.422-.824.077-.146.15-.293.229-.438.161-.3.332-.585.5-.875.071-.12.138-.241.21-.359.186-.305.382-.605.579-.9.065-.1.128-.2.194-.3.207-.305.423-.6.641-.9.065-.089.127-.179.192-.267.221-.294.451-.582.683-.868.07-.087.137-.177.209-.263.226-.273.462-.539.7-.8.084-.094.165-.192.25-.285.218-.239.445-.469.671-.7.111-.114.219-.232.332-.344.191-.189.39-.371.586-.555.156-.147.309-.3.469-.441.128-.115.261-.223.391-.335A28.988,28.988,0,0,1,78.6,44.626ZM57.76,31.577,64,23.23l6.243,8.346a29.32,29.32,0,0,1,5.006,10.5c-.042.03-.08.064-.121.094q-.8.582-1.557,1.211c-.137.114-.27.231-.4.347q-.613.523-1.2,1.075c-.128.121-.257.24-.383.363a33.651,33.651,0,0,0-2.8,3.081c-.092.115-.182.231-.273.347q-.565.723-1.091,1.475c-.053.077-.109.151-.162.228q-.6.874-1.143,1.784c-.054.09-.1.182-.156.272q-.449.768-.857,1.56c-.076.147-.153.294-.227.443-.3.611-.6,1.228-.863,1.857L64,56.236c-.269-.635-.565-1.259-.872-1.875-.074-.148-.15-.294-.225-.44q-.4-.766-.83-1.511c-.065-.112-.127-.226-.194-.337q-.527-.879-1.105-1.726c-.082-.12-.168-.235-.251-.354q-.475-.676-.982-1.328c-.116-.149-.231-.3-.349-.444-.422-.524-.854-1.039-1.306-1.537l-.017-.02c-.464-.51-.948-1-1.443-1.482-.123-.119-.247-.236-.372-.353q-.631-.6-1.293-1.159c-.092-.078-.182-.159-.275-.237q-.824-.685-1.693-1.318l-.033-.026A29.329,29.329,0,0,1,57.76,31.577ZM27.015,38.548l10.323,1.483a29.106,29.106,0,0,1,12.048,4.586c.007,0,.011.011.018.016a29.115,29.115,0,0,1,3.432,2.66c.048.044.094.09.142.134.3.277.6.558.894.847.1.1.2.212.305.317.23.235.46.47.682.713.125.137.244.28.367.419.193.219.387.436.573.66.125.151.244.307.366.461.176.22.353.439.522.664.117.156.228.316.342.475.166.23.334.459.493.693.105.155.2.314.306.471.16.245.321.489.473.738.092.15.177.3.266.455.154.263.309.525.455.792.078.143.151.29.227.434.148.281.3.562.434.848.066.135.126.274.19.41.14.3.279.6.409.9.054.127.1.257.156.385.13.318.259.636.378.958.044.12.084.242.127.363.118.334.234.669.341,1.007.036.114.068.229.1.344.1.347.205.7.3,1.047.029.112.054.224.082.336.066.269.128.539.186.81-.022.113-.037.227-.058.341-.066.364-.131.727-.185,1.092-.025.171-.043.344-.066.515-.047.361-.1.722-.13,1.085-.01.1-.014.2-.023.3-.083.944-.133,1.891-.134,2.839-.157-.157-.323-.305-.484-.459-.116-.111-.232-.223-.35-.332q-.911-.847-1.884-1.629c-.106-.084-.214-.166-.321-.249-.689-.537-1.394-1.057-2.128-1.544-.612-.4-1.241-.777-1.877-1.138q-.236-.134-.474-.264c-.638-.348-1.282-.682-1.939-.986l-.009,0c-.664-.307-1.34-.585-2.021-.848q-.248-.1-.5-.187c-.673-.248-1.351-.481-2.037-.685l-.034-.011c-.7-.207-1.406-.384-2.117-.546-.173-.039-.345-.077-.519-.114-.69-.146-1.383-.277-2.08-.38l-.074-.012c-.72-.1-1.443-.178-2.168-.236-.177-.014-.354-.026-.531-.038-.693-.045-1.388-.074-2.083-.076-.03,0-.059,0-.089,0h-.02c-.775,0-1.551.036-2.326.091-.17.012-.34.024-.51.039-.761.065-1.521.152-2.278.27-.033.005-.067.007-.1.012a29.241,29.241,0,0,1-3.9-10.968ZM37.164,87.631c-.555-.01-1.113-.045-1.671-.086-.111-.008-.221-.008-.331-.018a29.442,29.442,0,0,1-15.117-5.769L11.7,75.521l8.335-6.242a29.249,29.249,0,0,1,11.8-5.286,29.779,29.779,0,0,1,22.148,4.286A29.39,29.39,0,0,1,61.3,75.171c.086.115.164.235.249.35-.065.089-.127.182-.193.271-.187.25-.382.494-.576.737-.215.269-.431.537-.654.8-.2.233-.4.459-.61.685-.235.257-.472.512-.715.76-.207.211-.418.417-.631.622-.258.247-.518.491-.784.728q-.317.283-.641.556-.424.357-.86.7-.316.246-.637.484-.467.344-.946.669c-.206.14-.412.278-.621.412-.342.22-.69.431-1.04.636-.2.115-.392.23-.59.34-.376.209-.758.407-1.143.6-.183.091-.365.184-.55.272-.412.2-.83.377-1.25.553-.166.07-.332.142-.5.209-.449.178-.9.341-1.362.5-.147.05-.292.1-.44.152-.487.157-.979.3-1.474.43-.126.034-.25.072-.377.1-.523.132-1.051.245-1.581.349-.1.02-.208.046-.314.065-.556.1-1.116.184-1.679.255-.085.011-.169.026-.254.036-.582.068-1.169.114-1.758.147-.07,0-.139.012-.208.016-.594.029-1.191.036-1.79.029C37.3,87.628,37.232,87.632,37.164,87.631Zm39.83,9H51.006a16.719,16.719,0,0,1-11.9-5.022c.133-.006.265-.02.4-.027.252-.013.5-.033.754-.052.406-.031.81-.068,1.214-.114.255-.029.508-.059.762-.094.4-.055.8-.119,1.2-.188.244-.042.488-.083.73-.13.424-.083.844-.179,1.263-.278.211-.05.423-.095.633-.148.532-.137,1.059-.289,1.582-.451.092-.029.186-.052.277-.081q.924-.3,1.828-.645c.164-.063.325-.135.488-.2.434-.175.866-.353,1.291-.546.214-.1.423-.2.635-.3.37-.177.738-.357,1.1-.547.224-.117.446-.24.667-.362q.519-.287,1.027-.591.331-.2.657-.4c.337-.213.669-.433,1-.659.206-.14.412-.279.615-.424.347-.248.686-.507,1.023-.769.174-.135.351-.265.523-.4.43-.347.85-.707,1.263-1.076.07-.063.144-.121.214-.185q.721-.655,1.4-1.355c.133-.136.259-.279.39-.418.318-.336.633-.675.938-1.025.161-.185.316-.376.473-.565.178-.214.363-.422.537-.641.174.22.359.429.539.644.156.188.31.378.47.562.3.349.618.687.935,1.022.132.14.26.285.394.422q.683.7,1.4,1.353c.074.068.153.13.228.2.409.365.823.721,1.248,1.064.174.141.354.273.531.41.335.26.671.516,1.014.762.2.146.413.287.62.428.327.224.657.443.992.654.219.139.44.274.663.407q.505.3,1.021.587c.223.123.446.247.672.365.361.189.728.368,1.1.544.213.1.425.207.64.3.425.192.855.37,1.288.544.164.066.325.138.491.2q.9.348,1.828.645c.091.029.183.052.274.08.525.163,1.053.315,1.587.452.209.054.421.1.632.148.42.1.841.2,1.266.278.242.047.486.088.73.13.4.069.8.133,1.2.188.255.035.51.066.766.094q.6.068,1.207.113c.255.019.509.039.765.052.133.007.264.022.4.027A16.719,16.719,0,0,1,76.994,96.631Zm30.962-14.874a29.447,29.447,0,0,1-15.119,5.771q-1,.085-1.994.1c-.135,0-.27-.005-.4,0-.525,0-1.05,0-1.571-.025-.176-.008-.349-.029-.524-.04-.478-.031-.956-.065-1.429-.12-.2-.022-.389-.057-.584-.083-.448-.06-.9-.122-1.34-.2-.209-.038-.416-.087-.624-.129-.424-.087-.849-.175-1.268-.28-.219-.055-.434-.12-.651-.179-.4-.11-.8-.223-1.2-.35-.227-.073-.45-.155-.674-.233-.38-.132-.759-.266-1.133-.414-.231-.091-.458-.19-.686-.287-.359-.152-.717-.307-1.07-.473-.233-.11-.463-.227-.693-.343-.339-.171-.676-.345-1.008-.528-.234-.129-.464-.264-.694-.4-.319-.188-.636-.38-.948-.58-.231-.148-.46-.3-.687-.457q-.45-.307-.89-.629-.341-.251-.674-.513-.422-.33-.833-.677-.331-.279-.654-.568-.4-.354-.778-.724c-.212-.2-.422-.409-.628-.62-.246-.252-.487-.51-.724-.771-.2-.22-.4-.441-.595-.668-.229-.268-.452-.543-.672-.82-.188-.236-.375-.471-.556-.713-.069-.092-.133-.189-.2-.283.08-.11.152-.227.235-.335A29.43,29.43,0,0,1,96.169,63.994a29.237,29.237,0,0,1,11.785,5.281l8.342,6.246Z"/></svg>