<svg id="Layer_1" data-name="Layer 1" xmlns="http://www.w3.org/2000/svg" viewBox="0 0 128 128"><title>LULLABY</title><path d="M84.008,16.064c-6.308-1.2-12.5.417-18.478,1.975-5.812,1.513-11.3,2.938-16.729,1.916a2,2,0,0,0-2.371,1.965V69.042a20.131,20.131,0,0,0-10.32-1.376C23.932,68.9,14.044,80.009,14.044,92.182a19.735,19.735,0,0,0,20.01,20.171,22.732,22.732,0,0,0,2.5-.139C48.717,110.869,58.615,99.871,58.615,87.7V48.848c2.677-.463,5.334-1.154,7.92-1.827,5.813-1.513,11.3-2.942,16.729-1.914a2,2,0,0,0,2.372-1.965V18.029A2,2,0,0,0,84.008,16.064ZM81.637,40.854c-5.491-.468-10.877.935-16.108,2.3a77.76,77.76,0,0,1-9.174,2,2,2,0,0,0-1.739,1.982V87.7c0,10.2-8.3,19.413-18.5,20.54a16.246,16.246,0,0,1-12.834-3.9,16.04,16.04,0,0,1-5.232-12.158c0-10.2,8.306-19.377,18.506-20.539,6.459-.736,11.864,3.054,12.636,3.722A2,2,0,0,0,51.8,72.339c-.44-.381-.9-.727-1.372-1.064V24.208c5.487.467,10.875-.937,16.106-2.3s10.2-2.655,15.1-2.152Z"/><path d="M83.637,72h-.009l-10.2.044,10.635-10.51a2,2,0,0,0-1.4-3.423l-14.95-.078h-.011a2,2,0,0,0-.011,4l10.117.053L67.134,72.644a2,2,0,0,0,1.406,3.423h.009L83.645,76a2,2,0,0,0-.009-4Z"/><path d="M111.956,54.867h-.009l-13.956.061L112.529,40.56a2,2,0,0,0-1.4-3.423l-19.085-.1h-.011a2,2,0,0,0-.011,4l14.253.074L91.694,55.526A2,2,0,0,0,93.1,58.949h.009l18.855-.082a2,2,0,0,0-.009-4Z"/></svg>