<svg id="Layer_1" data-name="Layer 1" xmlns="http://www.w3.org/2000/svg" viewBox="0 0 128 128"><title>MILK</title><polygon points="58.416 85.774 55.519 80.536 53.017 80.536 53.017 90.589 55.519 90.589 55.519 84.765 58.416 90.004 61.314 84.765 61.314 90.589 63.816 90.589 63.816 80.536 61.314 80.536 58.416 85.774"/><rect x="67.244" y="80.536" width="2.502" height="10.053"/><polygon points="75.572 80.536 73.084 80.536 73.084 90.589 80.415 90.589 80.415 88.35 75.572 88.35 75.572 80.536"/><polygon points="88.613 84.809 92.431 80.536 89.461 80.536 85.73 84.824 85.73 80.536 83.227 80.536 83.227 90.589 85.73 90.589 85.73 87.853 86.886 86.609 89.71 90.589 92.724 90.589 88.613 84.809"/><path d="M100.675,42.819c0-.033,0-.066-.01-.1a1.976,1.976,0,0,0-.139-.438c0-.008,0-.017-.008-.026l-9.17-19.778V10.856a2,2,0,0,0-2-2H39.092a2,2,0,0,0-2,2v11.6L27.5,42.224c-.006.013-.007.027-.013.039a1.973,1.973,0,0,0-.148.439c0,.01,0,.021,0,.031a2,2,0,0,0-.037.364v74.046a2,2,0,0,0,2,2H98.7a2,2,0,0,0,2-2V43.1A1.977,1.977,0,0,0,100.675,42.819ZM96.7,106.955H49.038v-7.6H96.7ZM31.3,45.1H45.038V95.355H31.3Zm0,54.257H45.038v7.6H31.3Zm17.741-4V45.1H96.7V95.355ZM48.4,41.1,42.029,24.92H88.07l7.5,16.178ZM41.092,12.856H87.347V20.92H41.092ZM38.9,27.893l5.2,13.2H32.491Zm-7.6,83.061H45.038v4.189H31.3Zm17.741,4.189v-4.189H96.7v4.189Z"/><path d="M72.871,49.121A12.357,12.357,0,1,0,85.228,61.478,12.371,12.371,0,0,0,72.871,49.121Zm0,20.713a8.357,8.357,0,1,1,8.357-8.356A8.366,8.366,0,0,1,72.871,69.834Z"/></svg>