<svg id="Layer_1" data-name="Layer 1" xmlns="http://www.w3.org/2000/svg" viewBox="0 0 128 128"><title>MOBILE TOY</title><path d="M122.084,80.185a2,2,0,0,0-1.615-1.361l-8.515-1.237-3.6-7.3V61.758a5.859,5.859,0,0,0,3.664-5.519c-.048-14.148-7.817-17.118-14.327-17.118H66.555V17.145a5.976,5.976,0,0,0-1.739-4.194,5.932,5.932,0,0,0-10.128,4.194V39.121H23.552c-6.511,0-14.281,2.971-14.327,17.118a5.859,5.859,0,0,0,3.664,5.519v7.894A14.685,14.685,0,1,0,33.674,88.707a2,2,0,0,0-2.68-2.679,10.572,10.572,0,0,1-4.729,1.1A10.7,10.7,0,0,1,15.579,76.444a10.584,10.584,0,0,1,1.1-4.729c.006-.012.006-.025.012-.037a1.972,1.972,0,0,0,.162-.522c.006-.039.007-.076.012-.115a1.966,1.966,0,0,0,.021-.212v-9a5.748,5.748,0,0,0,3.879-5.444c0-2.607.483-5.715,2.784-5.715H54.688v5.479a5.938,5.938,0,0,0,3.934,5.579v7.529a12.509,12.509,0,0,0-8.245,7.015,8.942,8.942,0,1,0-1.993,17.66H72.86a8.943,8.943,0,0,0,.328-17.881,12.5,12.5,0,0,0-10.566-7.188V61.721a5.938,5.938,0,0,0,3.934-5.579V50.664H97.691c2.3,0,2.784,3.108,2.784,5.715a5.744,5.744,0,0,0,3.879,5.442v8.466l-3.6,7.3-8.515,1.237a2,2,0,0,0-1.109,3.411l6.162,6.006-1.455,8.48a2,2,0,0,0,2.9,2.108l7.616-4,7.615,4a2,2,0,0,0,2.9-2.108l-1.455-8.48,6.162-6.006A2,2,0,0,0,122.084,80.185Zm-63.4-63.04a1.934,1.934,0,0,1,3.867,0V39.121H58.688ZM26.266,91.13H26.4A10.7,10.7,0,0,1,11.58,76.307c0,.046,0,.091,0,.137A14.7,14.7,0,0,0,26.266,91.13ZM69.957,78.736A2.006,2.006,0,0,0,72.146,80.1a4.94,4.94,0,1,1,.714,9.827H48.383a4.943,4.943,0,1,1,0-9.887,4.877,4.877,0,0,1,2.29.566,2,2,0,0,0,2.871-1.29,8.539,8.539,0,0,1,16.413-.579Zm-7.4-22.594a1.934,1.934,0,0,1-3.867,0V50.664h3.867Zm35.136-9.479H23.552c-2.04,0-6.784.947-6.784,9.715a1.764,1.764,0,0,1-.643,1.362,1.8,1.8,0,0,1-1.5.37,1.843,1.843,0,0,1-1.4-1.855c.037-11.643,5.539-13.136,10.327-13.136H97.691c4.788,0,10.29,1.493,10.327,13.136v.005a1.841,1.841,0,0,1-1.395,1.849,1.781,1.781,0,0,1-1.5-.37,1.76,1.76,0,0,1-.644-1.362C104.475,47.611,99.731,46.664,97.691,46.664ZM111.871,86.11a2,2,0,0,0-.575,1.77l.947,5.522L107.284,90.8a2,2,0,0,0-1.861,0l-4.96,2.608.947-5.523a2,2,0,0,0-.575-1.77L96.823,82.2l5.545-.806a2,2,0,0,0,1.507-1.094l2.479-5.024,2.479,5.024a2,2,0,0,0,1.507,1.094l5.545.806Z"/></svg>