<svg id="Layer_1" data-name="Layer 1" xmlns="http://www.w3.org/2000/svg" viewBox="0 0 128 128"><title>MOON</title><path d="M109.658,53.349c0-.022,0-.044-.01-.066-.011-.049-.028-.1-.039-.145a46.47,46.47,0,0,0-1.729-5.656c-.045-.119-.094-.235-.139-.353q-.443-1.146-.945-2.261c-.09-.2-.179-.4-.272-.6-.361-.775-.739-1.539-1.14-2.29-.045-.083-.084-.169-.13-.253-.428-.789-.882-1.56-1.352-2.321-.175-.283-.358-.56-.538-.839q-.471-.726-.967-1.434c-.219-.313-.438-.626-.665-.935-.38-.514-.774-1.017-1.174-1.515-.357-.445-.725-.881-1.1-1.314-.332-.384-.665-.766-1.01-1.139-.139-.151-.266-.31-.407-.459-.033-.035-.076-.052-.111-.084A46.809,46.809,0,0,0,47.765,20.008c-.026.008-.053.01-.078.019-.53.2-1.047.416-1.567.63-.135.056-.273.107-.407.164-.62.263-1.229.543-1.835.831-.082.039-.165.076-.247.115-.659.318-1.308.653-1.949,1l-.023.012A46.831,46.831,0,0,0,22.777,41.663l-.005.01q-.523.967-1.005,1.96c-.038.079-.074.16-.112.239-.289.608-.57,1.219-.834,1.841-.058.136-.109.274-.165.411-.214.519-.433,1.035-.629,1.563-.009.025-.011.052-.019.077a46.818,46.818,0,0,0,13.364,51.7c.039.04.068.088.111.125.145.125.3.235.447.358.469.393.949.773,1.433,1.148q.629.486,1.272.95c.507.365,1.019.724,1.541,1.07.32.212.643.417.967.621q.81.509,1.643.983c.251.143.5.294.751.432q1.195.655,2.432,1.239c.22.1.443.2.664.3q1.031.469,2.087.89c.213.085.426.171.64.253a46.453,46.453,0,0,0,5.62,1.74c.157.038.315.073.472.109q1.336.308,2.7.541c.055.009.109.024.164.033l.036,0a46.857,46.857,0,0,0,53.306-56.909Zm-13.422-17.6c.185.211.37.421.551.636s.368.44.549.663q.413.51.811,1.031c.2.261.392.527.584.792.236.325.471.649.7.981s.456.69.679,1.038c.173.269.352.535.519.808q.579.949,1.109,1.924c.054.1.1.2.154.3.308.58.605,1.166.886,1.759.079.166.151.335.227.5.247.539.486,1.082.71,1.631.072.176.14.354.21.531q.328.836.623,1.685.084.243.165.487.3.919.568,1.853c.021.075.043.149.063.223a9.7,9.7,0,0,1-9.106-16.845ZM55.722,38.414a17.291,17.291,0,0,1-31.575,9.76c.087-.219.169-.44.26-.657.063-.15.128-.3.192-.448.231-.536.469-1.069.722-1.594l.067-.137A43.174,43.174,0,0,1,45.366,25.372l.09-.044c.54-.26,1.089-.505,1.641-.743.132-.057.264-.114.4-.169.225-.094.455-.179.682-.269A17.165,17.165,0,0,1,55.722,38.414Zm-.013,67.667-.025,0a42.542,42.542,0,0,1-4.836-1.255c-.171-.055-.339-.115-.508-.172q-.881-.3-1.748-.63-.337-.13-.672-.265c-.532-.215-1.058-.444-1.581-.681-.222-.1-.447-.2-.668-.3q-.939-.445-1.855-.936c-.221-.119-.44-.242-.659-.364-.526-.293-1.048-.6-1.562-.911-.31-.191-.614-.391-.918-.589-.342-.222-.682-.447-1.018-.68s-.658-.461-.982-.7c-.3-.22-.594-.446-.888-.674-.238-.184-.476-.369-.71-.558a10.328,10.328,0,1,1,18.629,8.722Zm8.291.812c-1.39,0-2.763-.072-4.119-.2a14.165,14.165,0,0,0,1.239-5.8,14.326,14.326,0,0,0-27.181-6.332A42.783,42.783,0,0,1,22.628,52.7a21.1,21.1,0,0,0,15.787,7.018A21.331,21.331,0,0,0,59.722,38.414,21.1,21.1,0,0,0,52.7,22.628,42.764,42.764,0,0,1,93.452,32.861a13.669,13.669,0,0,0,12.769,23.63A42.845,42.845,0,0,1,64,106.893Z"/><path d="M71.814,56.756A11.306,11.306,0,1,0,83.121,68.063,11.319,11.319,0,0,0,71.814,56.756Zm0,18.612a7.306,7.306,0,1,1,7.307-7.306A7.314,7.314,0,0,1,71.814,75.368Z"/><path d="M46.953,68.177H30.62a2,2,0,0,0,0,4H46.953a2,2,0,0,0,0-4Z"/><path d="M75.421,88.042H68.208a2,2,0,1,0,0,4h7.213a2,2,0,0,0,0-4Z"/><path d="M68.208,46.015h7.213a2,2,0,0,0,0-4H68.208a2,2,0,0,0,0,4Z"/><path d="M86.206,88.042h-2.96a2,2,0,0,0,0,4h2.96a2,2,0,0,0,0-4Z"/><path d="M96.4,72.089H93.437a2,2,0,0,0,0,4H96.4a2,2,0,0,0,0-4Z"/></svg>