<svg id="Layer_1" data-name="Layer 1" xmlns="http://www.w3.org/2000/svg" viewBox="0 0 128 128"><title>MOON AND STAR </title><path d="M84.418,19.832a2,2,0,0,0-2.68,2.68,47.468,47.468,0,0,1,4.951,21.224A48.007,48.007,0,0,1,38.736,91.688a47.462,47.462,0,0,1-21.224-4.951,2,2,0,0,0-2.68,2.68A51.954,51.954,0,1,0,84.418,19.832Zm-23,94.541A47.64,47.64,0,0,1,21.292,92.683a51.473,51.473,0,0,0,17.444,3A52.012,52.012,0,0,0,90.689,43.735a51.485,51.485,0,0,0-3-17.444,47.957,47.957,0,0,1-26.264,88.081Z"/><path d="M41.359,47.7,37.34,55.84l-8.985,1.306a2,2,0,0,0-1.108,3.411l6.5,6.338-1.535,8.949a2,2,0,0,0,2.9,2.109l8.037-4.225,8.037,4.225a2,2,0,0,0,2.9-2.108L52.556,66.9l6.5-6.338a2,2,0,0,0-1.108-3.411L48.964,55.84,44.946,47.7a2,2,0,0,0-3.587,0Zm4.484,10.855a2,2,0,0,0,1.506,1.094l6.016.875-4.353,4.243a2,2,0,0,0-.575,1.77l1.027,5.992L44.083,69.7a2,2,0,0,0-1.861,0l-5.381,2.829,1.028-5.991a2,2,0,0,0-.575-1.771L32.94,60.522l6.016-.875a2,2,0,0,0,1.506-1.094l2.69-5.451Z"/><path d="M26.868,29.739,41.5,31.561a2.055,2.055,0,0,0,.25.015,2,2,0,0,0,.245-3.985l-9.771-1.216,10.391-7.928a2,2,0,0,0-.948-3.572L28.252,13.08a2,2,0,1,0-.53,3.965L36.343,18.2,25.9,26.165a2,2,0,0,0,.966,3.575Z"/><path d="M49.382,37.878a2,2,0,0,0,1.684,1.463l12.7,1.581a2.055,2.055,0,0,0,.25.015,2,2,0,0,0,.245-3.985l-7.839-.976,8.5-6.488a2,2,0,0,0-.948-3.573L52.335,24.358a2,2,0,1,0-.53,3.965l6.851.917L50.1,35.766A2,2,0,0,0,49.382,37.878Z"/></svg>