<svg id="Layer_1" data-name="Layer 1" xmlns="http://www.w3.org/2000/svg" viewBox="0 0 128 128"><title>NECKPILLOW</title><path d="M115.92,86.4a56.83,56.83,0,0,0-2.729-29.644l-.005-.019c-.012-.032-.027-.062-.039-.093q-.6-1.581-1.289-3.122c-.041-.09-.083-.18-.124-.27q-.674-1.481-1.437-2.921l-.146-.274q-.775-1.445-1.639-2.842c-.042-.068-.083-.137-.126-.205q-.9-1.448-1.9-2.841c-.011-.016-.021-.033-.033-.049l-.008-.009c-.178-.247-.341-.5-.523-.748C96,30.041,81.112,22.707,64,22.707c-14.3,0-27.042,5.141-36.637,14.6-.357.352-.716.7-1.064,1.065-.29.3-.572.617-.856.928q-.531.58-1.044,1.175c-.224.261-.447.521-.667.787-.569.688-1.126,1.384-1.658,2.1s-1.054,1.47-1.562,2.235c-.217.325-.429.652-.638.981-.236.373-.466.753-.694,1.135q-.884,1.465-1.672,2.979c-.025.048-.052.095-.077.143l0,.009a55.97,55.97,0,0,0-6.114,22.542l0,.013v.045c-.052.958-.072,1.916-.076,2.874,0,.215,0,.43,0,.646.007.947.033,1.893.087,2.838.009.162.024.324.035.486q.083,1.259.221,2.515c.023.206.042.413.067.619q.167,1.376.4,2.745c.043.25.09.5.136.748.153.833.322,1.663.512,2.49.031.133.056.266.087.4v.006q.374,1.571.836,3.129A17.907,17.907,0,0,0,22.2,103.587a15.912,15.912,0,0,0,12.62.758,17.665,17.665,0,0,0,9.653-7.688l.066-.109q.348-.591.647-1.207c.093-.19.188-.379.273-.571s.163-.386.241-.581q.2-.486.359-.981c.033-.1.069-.2.1-.3.135-.436.246-.877.345-1.321.019-.086.039-.172.056-.258q.147-.717.23-1.444c.006-.05.009-.1.015-.15a16.513,16.513,0,0,0,.032-3.069c-.006-.074-.011-.148-.018-.222q-.071-.738-.207-1.475c-.015-.081-.033-.162-.05-.243-.1-.507-.221-1.013-.371-1.516-.118-.394-.222-.791-.318-1.19-.085-.356-.16-.716-.228-1.079-.006-.029-.013-.058-.018-.088a23.723,23.723,0,0,1-.316-2.443c0-.01,0-.02-.006-.03a21.968,21.968,0,0,1,4.026-14.705C51.7,60.5,56.171,56.707,64,56.707S76.294,60.5,78.661,63.674a20.87,20.87,0,0,1,3.665,8.473c0,.019,0,.037.005.055a23.43,23.43,0,0,1,.4,5.547v.013c-.021.431-.056.86-.1,1.288,0,.039-.006.079-.011.118-.043.391-.1.781-.162,1.169-.011.07-.019.141-.031.211-.062.366-.139.729-.219,1.09-.019.086-.033.172-.053.258Q82,82.558,81.8,83.21a16.96,16.96,0,0,0-.434,1.857c-.008.044-.011.088-.019.132a16.675,16.675,0,0,0-.207,1.818c0,.02-.005.038-.007.058s0,.019,0,.03a17.266,17.266,0,0,0,12.034,17.24,17.842,17.842,0,0,0,5.618.945,15.017,15.017,0,0,0,7-1.7,15.941,15.941,0,0,0,2.641-1.752c.021-.016.046-.021.066-.037s.061-.056.093-.082c.065-.054.125-.113.189-.167q.493-.421.957-.883c.131-.13.258-.264.385-.4.224-.238.441-.483.653-.734.148-.175.3-.347.439-.527.188-.24.364-.49.54-.74q.373-.527.708-1.08c.137-.224.274-.448.4-.677s.24-.454.354-.684c.138-.275.267-.552.39-.832.084-.191.169-.381.246-.575.2-.49.376-.984.525-1.484a57.265,57.265,0,0,0,1.537-6.527V86.4ZM102.891,47.069a6.881,6.881,0,0,1,.78.046l.067.1q.755,1.093,1.451,2.228l.13.213q.694,1.142,1.327,2.323l.109.2q.633,1.193,1.2,2.422l.084.184q.572,1.248,1.08,2.53l.024.061a7.053,7.053,0,1,1-6.255-10.307ZM21.465,51.76c.273-.5.55-1,.836-1.493.337-.573.681-1.142,1.042-1.7.164-.257.332-.506.5-.757.458-.685.924-1.366,1.418-2.03l.021-.029.023-.03c.485-.65.989-1.278,1.5-1.9.159-.193.319-.385.481-.576q.725-.852,1.48-1.665c.214-.228.435-.449.653-.673.2-.209.41-.411.616-.615A8.294,8.294,0,1,1,21.4,51.883ZM16.183,86.534q-.15-.784-.275-1.571-.113-.707-.207-1.415-.1-.782-.185-1.566-.074-.716-.127-1.432c-.039-.522-.073-1.044-.1-1.567-.022-.476-.035-.952-.044-1.428-.01-.526-.015-1.052-.009-1.579,0-.2.011-.408.016-.612a6,6,0,0,1,1.061,11.819C16.273,86.966,16.225,86.751,16.183,86.534Zm25.66-4.261c.05.237.1.474.153.709.111.463.231.921.366,1.372a12.922,12.922,0,0,1,.31,1.269c.014.072.018.144.03.216a12.635,12.635,0,0,1-.2,5.252,12.85,12.85,0,0,1-1.226,3.116,8.264,8.264,0,0,1,.458-12.442C41.766,81.936,41.807,82.1,41.843,82.273Zm44.166.676c.037-.155.067-.311.1-.466.07-.316.137-.633.2-.951.035-.192.065-.384.1-.576.045-.283.088-.566.125-.85.027-.21.051-.421.073-.632q.041-.4.071-.795c.017-.225.033-.45.044-.675.012-.246.019-.491.024-.737s.013-.485.012-.728c0-.211-.009-.421-.014-.632-.007-.276-.012-.552-.027-.827,0-.075-.013-.149-.018-.223-.024-.379-.049-.759-.089-1.136a6,6,0,0,1-1.276,11.926,12.282,12.282,0,0,1,.309-1.292C85.773,83.89,85.9,83.421,86.01,82.949Zm8.422,17.6a13.414,13.414,0,0,1-9.217-10.906c.208.013.416.027.624.027a10,10,0,0,0,.012-20,24.507,24.507,0,0,0-3.982-8.388c-2.914-3.913-8.38-8.577-17.869-8.577s-14.954,4.664-17.87,8.576a25.872,25.872,0,0,0-4.869,16.03,12.232,12.232,0,0,0-2.416,20.054,13.886,13.886,0,0,1-5.278,3.181,11.852,11.852,0,0,1-9.513-.508,13.838,13.838,0,0,1-6.6-8.25c-.073-.245-.128-.494-.2-.74a9.985,9.985,0,0,0-1.762-19.668,52.076,52.076,0,0,1,3.848-15.247A12.293,12.293,0,1,0,33.574,37.115,47.692,47.692,0,0,1,64,26.707c14.722,0,27.648,5.864,36.746,16.575a11.053,11.053,0,1,0,9.97,18.651,52.921,52.921,0,0,1,1.543,21.883c-.1,0-.208-.021-.311-.021A9.968,9.968,0,0,0,104.1,99.948c-.053.028-.1.065-.155.092A11.853,11.853,0,0,1,94.431,100.548Zm17-12.138q-.086.378-.178.754c-.214.878-.441,1.755-.7,2.626-.007.025-.018.048-.026.073a13.86,13.86,0,0,1-.515,1.405c-.041.1-.09.189-.133.285-.182.4-.379.8-.6,1.182-.045.079-.092.156-.138.234-.236.4-.49.786-.761,1.159-.043.059-.085.12-.13.179a14.246,14.246,0,0,1-.947,1.135c-.021.022-.04.046-.06.068a5.921,5.921,0,0,1-1.293-3.717,6,6,0,0,1,5.6-5.984C111.508,88.009,111.474,88.21,111.428,88.41Z"/><path d="M67.57,30.063A10.058,10.058,0,1,0,77.628,40.12,10.069,10.069,0,0,0,67.57,30.063Zm0,16.115a6.058,6.058,0,1,1,6.058-6.058A6.065,6.065,0,0,1,67.57,46.178Z"/></svg>