<svg id="Layer_1" data-name="Layer 1" xmlns="http://www.w3.org/2000/svg" viewBox="0 0 128 128"><title>NIGHT CREAM</title><path d="M99.976,49.374h-.034V45.8h.033a2,2,0,1,0,0-4h-.033V36.231a2,2,0,0,0-2-2H96.568a22.952,22.952,0,0,0-3.757-16.067C86.354,8.908,74.338,6.709,73.829,6.62a1.987,1.987,0,0,0-1.993.893,2.045,2.045,0,0,0,0,2.217,6.546,6.546,0,0,1-.618,5.53c-1.843,2.861-5.863,2.923-8.912,2.469-16.564-2.458-24.228,2.748-27.322,6.07a14.166,14.166,0,0,0-3.861,10.432H30.059a2,2,0,0,0-2,2V41.8h-.033a2,2,0,0,0,0,4h.033v3.571h-.034A12.108,12.108,0,0,0,15.931,61.468V97.807A12.108,12.108,0,0,0,28.024,109.9h.034v6.636a4.879,4.879,0,0,0,4.874,4.874H95.068a4.879,4.879,0,0,0,4.873-4.874V109.9h.034a12.107,12.107,0,0,0,12.094-12.094V61.468A12.107,12.107,0,0,0,99.976,49.374ZM37.916,26.525c2.559-2.747,9.056-7.029,23.807-4.839,7.742,1.148,11.312-1.757,12.949-4.4a10.628,10.628,0,0,0,1.51-5.916c3.639,1.179,9.694,3.824,13.364,9.1,2.647,3.808,3.653,8.429,3,13.757H35.106A10.085,10.085,0,0,1,37.916,26.525ZM32.059,38.231H95.941V41.8H32.059Zm0,7.571H95.941v3.571H32.059Zm63.883,70.734a.874.874,0,0,1-.873.874H32.932a.875.875,0,0,1-.874-.874V109.9H95.941Zm12.128-18.729a8.1,8.1,0,0,1-8.094,8.094H28.024a8.1,8.1,0,0,1-8.094-8.094V61.468a8.1,8.1,0,0,1,8.094-8.094H99.976a8.1,8.1,0,0,1,8.094,8.094Z"/><path d="M79.914,82.955a15.552,15.552,0,0,1-6.955,1.622A15.733,15.733,0,0,1,57.244,68.861a15.553,15.553,0,0,1,1.622-6.954,2,2,0,0,0-2.68-2.68A19.716,19.716,0,1,0,82.594,85.634a2,2,0,0,0-2.68-2.679Zm-15,9.667A15.727,15.727,0,0,1,53.425,66.167a19.957,19.957,0,0,0-.181,2.694A19.738,19.738,0,0,0,72.959,88.576a19.951,19.951,0,0,0,2.694-.181A15.625,15.625,0,0,1,64.915,92.621Z"/></svg>