<svg id="Layer_1" data-name="Layer 1" xmlns="http://www.w3.org/2000/svg" viewBox="0 0 128 128"><title>OWL</title><path d="M45.87,69.723A5.623,5.623,0,1,0,40.247,64.1,5.629,5.629,0,0,0,45.87,69.723Zm0-7.246A1.623,1.623,0,1,1,44.247,64.1,1.625,1.625,0,0,1,45.87,62.477Z"/><path d="M87.753,64.1a5.623,5.623,0,1,0-5.623,5.623A5.629,5.629,0,0,0,87.753,64.1Zm-7.246,0a1.623,1.623,0,1,1,1.623,1.623A1.625,1.625,0,0,1,80.507,64.1Z"/><path d="M111.974,15.967c-.008-.014-.019-.026-.027-.04s-.034-.049-.05-.074a1.977,1.977,0,0,0-.178-.232l-.048-.05a1.968,1.968,0,0,0-.239-.212l-.034-.026a2,2,0,0,0-.314-.186h0a1.994,1.994,0,0,0-1.135-.169h-.02c-.01,0-.019.006-.029.007-.059.01-.117.015-.176.031s-.107.038-.161.057l-.045.016a1.994,1.994,0,0,0-.329.161l-.007,0a2,2,0,0,0-.745.83c-.009.019-.016.038-.025.057a1.98,1.98,0,0,0-.1.282c-.008.029-.016.058-.022.087a1.983,1.983,0,0,0-.042.282c0,.031-.007.063-.008.094s-.005.042-.005.064a7.73,7.73,0,0,1-3.358,6.215c-7,5.562-23.077,6.748-29.428,5.886a48.086,48.086,0,0,0-22.958.006c-6.375.828-22.344-.431-29.407-6.041-2.23-1.771-3.314-3.755-3.314-6.066,0-.022,0-.042-.005-.064s-.005-.063-.008-.094a1.983,1.983,0,0,0-.042-.282c-.007-.03-.014-.058-.022-.087a1.98,1.98,0,0,0-.1-.282c-.008-.019-.016-.038-.025-.057a2,2,0,0,0-.745-.83l-.007,0a1.994,1.994,0,0,0-.329-.161l-.045-.016c-.054-.019-.105-.042-.161-.057S18.16,15,18.1,14.987c-.01,0-.019-.006-.029-.008h-.021a2,2,0,0,0-1.128.165l-.036.019a1.991,1.991,0,0,0-.273.162l-.066.049a1.952,1.952,0,0,0-.2.182c-.025.026-.051.051-.074.078a2,2,0,0,0-.15.2c-.024.035-.05.068-.072.105-.007.011-.015.02-.021.031-9,15.9-1.705,28.171,3.441,34.069A11.186,11.186,0,0,1,22,59.9a38.227,38.227,0,0,0-.913,8.356c0,.789.031,1.615.1,2.587,0,.056,0,.11,0,.166a190.564,190.564,0,0,0,2.522,20.58c.252,1.5.5,2.95.723,4.435a9.764,9.764,0,0,0,11.512,8.1,7.511,7.511,0,0,1,6.34,1.718l5.445,4.781a9.825,9.825,0,0,0,11.011,1.3l1.767-.934a7.453,7.453,0,0,1,6.973,0l1.767.934a9.821,9.821,0,0,0,11.01-1.3l5.445-4.781a7.5,7.5,0,0,1,6.34-1.718,9.764,9.764,0,0,0,11.511-8.1c.227-1.484.471-2.937.723-4.435A190.564,190.564,0,0,0,106.806,71c0-.055.005-.11,0-.165.066-.972.1-1.8.1-2.588A38.225,38.225,0,0,0,106,59.9a11.187,11.187,0,0,1,2.536-9.862C113.679,44.138,120.97,31.868,111.974,15.967ZM107.362,26.3q.516-.41.977-.84a18.913,18.913,0,0,1-4.345,9.547,22.829,22.829,0,0,1-7.1,5.408A53.643,53.643,0,0,0,86.006,33C93.444,32.358,102.121,30.462,107.362,26.3ZM75.714,78.87q-.606-.262-1.187-.574a16.254,16.254,0,0,1-6.5-6.4h0a16.113,16.113,0,1,1,14.1,8.316A15.761,15.761,0,0,1,75.714,78.87Zm-4,2.422L64,89.9l-7.71-8.6c.1-.059.19-.126.287-.187.138-.087.275-.177.411-.267q.455-.3.892-.63c.111-.083.224-.163.333-.248.393-.306.776-.623,1.145-.957.041-.037.079-.077.119-.114q.491-.452.951-.936c.1-.106.2-.215.3-.324q.377-.412.73-.845c.089-.109.18-.217.267-.329.3-.387.6-.782.87-1.191l.015-.021q.361-.539.687-1.1l.7-.624.7.624q.324.56.684,1.1c.019.029.041.056.061.085.26.385.535.758.821,1.123.1.122.194.24.292.359q.338.413.7.808c.108.118.215.237.325.353q.43.451.887.873c.061.057.119.117.181.174.361.326.735.636,1.118.935.127.1.258.192.386.288q.406.3.826.584c.153.1.306.2.461.3C71.533,81.175,71.62,81.237,71.71,81.292ZM61.979,64.1a16.143,16.143,0,0,1-9.707,14.772,15.737,15.737,0,0,1-6.4,1.332,16.11,16.11,0,1,1,16.1-16.1ZM80.751,43.991a1.979,1.979,0,0,0-.582.1A20.127,20.127,0,0,0,64,55.46,20.127,20.127,0,0,0,47.832,44.088a1.979,1.979,0,0,0-.582-.1,38.25,38.25,0,0,1-12.015-1.864A46.693,46.693,0,0,1,53.4,32.957c.481-.065.907-.138,1.259-.22a41.429,41.429,0,0,1,18.685,0c.335.078.735.149,1.187.212a46.69,46.69,0,0,1,18.2,9.187A38.266,38.266,0,0,1,80.751,43.991ZM20.594,26.151c5.3,4.208,13.99,6.144,21.425,6.81A53.638,53.638,0,0,0,31.077,40.4a22.812,22.812,0,0,1-7.071-5.394,18.932,18.932,0,0,1-4.364-9.672C19.943,25.613,20.259,25.885,20.594,26.151Zm84.923,21.256a15.155,15.155,0,0,0-3.425,13.363,34.207,34.207,0,0,1,.816,7.481c0,.737-.031,1.522-.1,2.472,0,.055-.005.11,0,.165a186.933,186.933,0,0,1-2.464,20.032c-.255,1.519-.5,2.989-.733,4.494a5.762,5.762,0,0,1-6.8,4.777,11.546,11.546,0,0,0-9.74,2.64l-5.445,4.781a5.8,5.8,0,0,1-6.5.766l-1.767-.934a11.454,11.454,0,0,0-10.711,0l-1.766.934a5.8,5.8,0,0,1-6.5-.766l-5.445-4.781a11.539,11.539,0,0,0-9.74-2.64,5.762,5.762,0,0,1-6.8-4.778c-.23-1.5-.478-2.975-.733-4.493A186.95,186.95,0,0,1,25.2,70.891c0-.056,0-.111,0-.167-.068-.949-.1-1.734-.1-2.472a34.209,34.209,0,0,1,.817-7.485,15.154,15.154,0,0,0-3.427-13.36c-4-4.586-7.709-11.312-6.451-19.75a22.781,22.781,0,0,0,4.937,9.953,29.675,29.675,0,0,0,15.08,8.959,20.1,20.1,0,0,0,9.825,37.64,19.786,19.786,0,0,0,6.63-1.146L62.489,94.2a1.98,1.98,0,0,0,1.013.6,2.012,2.012,0,0,0,.52.068h.055a2,2,0,0,0,1.435-.664L75.5,83.062a19.788,19.788,0,0,0,6.63,1.146,20.1,20.1,0,0,0,9.825-37.64,29.675,29.675,0,0,0,15.08-8.959,22.781,22.781,0,0,0,4.937-9.953C113.226,36.094,109.519,42.821,105.517,47.407Z"/></svg>