<svg id="Layer_1" data-name="Layer 1" xmlns="http://www.w3.org/2000/svg" viewBox="0 0 128 128"><title>PIJAMA</title><path d="M111.9,38.725l-24.27-18.03-.014-.007a2.009,2.009,0,0,0-.25-.13,1.982,1.982,0,0,0-.929-.258H74.25c-.01,0-.019,0-.029,0H53.779c-.01,0-.019,0-.029,0H41.56a1.982,1.982,0,0,0-.929.258,2.009,2.009,0,0,0-.25.13l-.014.007L16.1,38.725a2,2,0,0,0-.792,1.845l7.12,59a2,2,0,0,0,1.985,1.761H34.421v9.128a2,2,0,0,0,2,2H91.579a2,2,0,0,0,2-2V101.33H103.59a2,2,0,0,0,1.985-1.761l7.12-59A2,2,0,0,0,111.9,38.725ZM64,36.392,47.632,24.3h4.488l10.691,7.9a2,2,0,0,0,2.376,0l10.691-7.9h4.488ZM58.852,24.3h10.3L64,28.1ZM34.42,97.33H26.183L19.415,41.243,41.561,24.791,62,39.887V100.9H38.421V48.248a2,2,0,0,0-4,0Zm55.159,11.128H38.421V104.9H89.579ZM101.817,97.33H93.58V48.25a2,2,0,1,0-4,0V100.9H66V39.887l20.439-15.1,22.146,16.453Z"/><path d="M85.006,51.368H71.112a2,2,0,0,0,0,4H85.006a2,2,0,0,0,0-4Z"/></svg>