<svg id="Layer_1" data-name="Layer 1" xmlns="http://www.w3.org/2000/svg" viewBox="0 0 128 128"><title>PILLS</title><path d="M93.935,42.3H34.065a21.7,21.7,0,0,0,0,43.408H93.935a21.7,21.7,0,1,0,0-43.408ZM62,81.7H34.065a17.7,17.7,0,0,1,0-35.408H62Zm31.935,0H66V46.3H93.935a17.7,17.7,0,1,1,0,35.408Z"/><path d="M75.955,24.754l7.676.04-8.375,8.277a2,2,0,0,0,1.406,3.422h.009L89.3,36.44a2,2,0,0,0-.018-4l-7.732.033,8.329-8.231a2,2,0,0,0-1.4-3.422l-12.509-.065h-.011a2,2,0,0,0-.011,4Z"/><path d="M95.641,9.768l11.135.058L95.134,21.332a2,2,0,0,0,1.406,3.422h.009l15.776-.069a2,2,0,0,0-.009-4h-.009l-10.877.047L113.025,9.273a2,2,0,0,0-1.4-3.422L95.662,5.768h-.011a2,2,0,0,0-.011,4Z"/></svg>