<svg id="Layer_1" data-name="Layer 1" xmlns="http://www.w3.org/2000/svg" viewBox="0 0 128 128"><title>PILLOW</title><path d="M111.857,94.667l-.208-.208a1.229,1.229,0,0,1-.345-1.021,139.238,139.238,0,0,0,0-32.48,1.228,1.228,0,0,1,.346-1.021,10.761,10.761,0,0,0,1.208-14,10.568,10.568,0,0,0-15.942-1.153L96.5,45.2a1.224,1.224,0,0,1-.948.353,470.126,470.126,0,0,0-63.11,0A1.216,1.216,0,0,1,31.5,45.2L31.292,45a10.739,10.739,0,0,0-14.638-.687,10.481,10.481,0,0,0-3.6,7.605,10.606,10.606,0,0,0,3.089,7.814l.208.208a1.229,1.229,0,0,1,.345,1.021,139.238,139.238,0,0,0,0,32.48,1.228,1.228,0,0,1-.346,1.021,10.74,10.74,0,0,0-.685,14.638,10.48,10.48,0,0,0,7.605,3.6c.113,0,.225.005.338.005a10.606,10.606,0,0,0,7.476-3.094l.413-.413a1.214,1.214,0,0,1,.948-.353,469.979,469.979,0,0,0,63.111,0,1.231,1.231,0,0,1,.948.353l.206.206a10.739,10.739,0,0,0,14.638.686,10.48,10.48,0,0,0,3.6-7.605A10.6,10.6,0,0,0,111.857,94.667Zm-3.15,12.414a6.734,6.734,0,0,1-9.17-.509l-.206-.206a5.222,5.222,0,0,0-4.046-1.516,465.831,465.831,0,0,1-62.571,0,5.219,5.219,0,0,0-4.046,1.516l-.413.413a6.566,6.566,0,0,1-9.586-.322,6.734,6.734,0,0,1,.509-9.17,5.205,5.205,0,0,0,1.49-4.315,135.2,135.2,0,0,1,0-31.546,5.2,5.2,0,0,0-1.49-4.315l-.208-.208a6.567,6.567,0,0,1,.322-9.586,6.359,6.359,0,0,1,4.221-1.566,7.016,7.016,0,0,1,4.949,2.076l.206.206a5.233,5.233,0,0,0,4.046,1.516,465.845,465.845,0,0,1,62.572,0,5.21,5.21,0,0,0,4.045-1.516l.413-.413a6.569,6.569,0,0,1,9.919.731,6.746,6.746,0,0,1-.842,8.761,5.2,5.2,0,0,0-1.49,4.315,135.2,135.2,0,0,1,0,31.546,5.205,5.205,0,0,0,1.49,4.315l.208.208a6.566,6.566,0,0,1-.322,9.586Z"/><path d="M29.578,58.6a2,2,0,0,0-1.449,2.429,65.356,65.356,0,0,1,0,32.341,2,2,0,1,0,3.878.979,69.3,69.3,0,0,0,0-34.3A2,2,0,0,0,29.578,58.6Z"/><path d="M59.461,27.91a2,2,0,0,0,1.684,1.463l12.938,1.611a2.055,2.055,0,0,0,.25.015,2,2,0,0,0,.245-3.985L66.5,26.008l8.74-6.667a2,2,0,0,0-.948-3.573L62.428,14.181a2,2,0,0,0-.53,3.965l7.071.946L60.179,25.8A2,2,0,0,0,59.461,27.91Z"/><path d="M80.862,36.4a2,2,0,0,0,1.684,1.463l11.23,1.4a2.055,2.055,0,0,0,.25.015,2,2,0,0,0,.245-3.985L87.9,34.5l7.072-5.4a2,2,0,0,0-.948-3.573l-10.3-1.378a2,2,0,0,0-.53,3.965l5.505.737L81.58,34.29A2,2,0,0,0,80.862,36.4Z"/></svg>