<svg id="Layer_1" data-name="Layer 1" xmlns="http://www.w3.org/2000/svg" viewBox="0 0 128 128"><title>SHEEP</title><path d="M95.992,55.03,77.128,45.023c-.24-.2-.479-.4-.73-.593a2,2,0,0,0-2.049-.23,5.475,5.475,0,0,1-6.928-2.059,2,2,0,0,0-3.377,0,5.489,5.489,0,0,1-9.287,0,2,2,0,0,0-3.377,0A5.475,5.475,0,0,1,44.452,44.2a2,2,0,0,0-2.048.231c-.251.192-.49.393-.73.593L22.812,55.03a2,2,0,0,0-.975,2.353,12.561,12.561,0,0,0,5.749,6.95,10.011,10.011,0,0,0,4.585,1.075,12.3,12.3,0,0,0,2.014-.179c1.2,15,12.467,27.643,25.216,27.643S83.415,80.233,84.619,65.229a12.3,12.3,0,0,0,2.013.179,10.011,10.011,0,0,0,4.585-1.075,12.561,12.561,0,0,0,5.749-6.95A2,2,0,0,0,95.992,55.03ZM53.07,46.283a9.5,9.5,0,0,0,12.664,0A9.473,9.473,0,0,0,74.8,48.3c.285.248.545.518.81.783.172.172.359.333.523.512.3.325.564.674.834,1.021.119.153.252.3.365.452.3.411.561.846.819,1.285.065.111.142.212.2.325.26.466.487.955.705,1.45.044.1.1.193.142.294.085.2.146.42.223.627A10.445,10.445,0,0,0,72,51.918H47.088a10.83,10.83,0,0,0-7.754,3.252c.093-.253.168-.516.271-.762.007-.017.017-.033.024-.05a17.2,17.2,0,0,1,.82-1.687c.061-.109.135-.207.2-.315.259-.441.525-.878.822-1.291.129-.18.281-.343.417-.517.254-.324.5-.651.78-.955.18-.2.384-.374.574-.562.25-.248.493-.5.761-.735a9.474,9.474,0,0,0,9.068-2.013ZM78.4,62.76a6.577,6.577,0,0,1-6.686,5.98,12.043,12.043,0,0,1-7.882-2.967,6.765,6.765,0,0,0-8.863,0,12.044,12.044,0,0,1-7.883,2.967H46.8A6.413,6.413,0,0,1,40.4,61.9a6.577,6.577,0,0,1,6.686-5.98H72a6.411,6.411,0,0,1,6.4,6.842ZM29.422,60.778a7.63,7.63,0,0,1-3.078-3.093l9.7-5.146-.006.017a22.5,22.5,0,0,0-1.305,4c-.012.054-.026.107-.038.161q-.22,1-.362,2.038c-.013.092-.023.185-.034.278-.088.7-.157,1.412-.191,2.141h0A6.873,6.873,0,0,1,29.422,60.778ZM61.4,88.736V84.344a9.754,9.754,0,0,0,4.575-2.751A2,2,0,1,0,63.112,78.8a5.359,5.359,0,0,1-3.71,1.8,5.355,5.355,0,0,1-3.709-1.8,2,2,0,1,0-2.866,2.79A9.752,9.752,0,0,0,57.4,84.344v4.391C48.8,87.59,41.136,79.2,38.8,68.974c.133.159.259.322.4.474a10.45,10.45,0,0,0,7.6,3.292h.288a16.046,16.046,0,0,0,10.5-3.946,2.835,2.835,0,0,1,3.619,0,16.048,16.048,0,0,0,10.5,3.946,10.814,10.814,0,0,0,8.312-3.868C77.72,79.149,70.037,87.586,61.4,88.736Zm27.98-27.958a6.864,6.864,0,0,1-4.685.4h0c-.034-.728-.1-1.438-.191-2.138-.012-.094-.022-.189-.035-.282q-.141-1.038-.361-2.032c-.013-.058-.027-.114-.04-.172a22.5,22.5,0,0,0-1.3-3.99l-.008-.022,9.7,5.145A7.632,7.632,0,0,1,89.382,60.778Z"/><path d="M104.25,52.983a15.626,15.626,0,0,0-7.2-9.72,15.626,15.626,0,0,0-4.818-11.094A15.571,15.571,0,0,0,81.139,27.35,16.485,16.485,0,0,0,59.4,21.525a15.622,15.622,0,0,0-12.017-1.374,15.624,15.624,0,0,0-9.72,7.2A15.653,15.653,0,0,0,26.57,32.168a15.626,15.626,0,0,0-4.819,11.095,15.628,15.628,0,0,0-7.2,9.72A15.628,15.628,0,0,0,15.927,65a16.484,16.484,0,0,0,5.825,21.737A15.626,15.626,0,0,0,26.57,97.832a15.635,15.635,0,0,0,11.095,4.819,15.628,15.628,0,0,0,9.72,7.2,17.466,17.466,0,0,0,4.513.6,14.443,14.443,0,0,0,7.5-1.974,16.484,16.484,0,0,0,21.737-5.825A16.484,16.484,0,0,0,97.052,86.737,16.485,16.485,0,0,0,102.876,65,15.62,15.62,0,0,0,104.25,52.983ZM98.885,66.269c1.908,2.326,2.484,6.048,1.5,9.713s-3.341,6.6-6.157,7.661a2,2,0,0,0-1.27,2.2c.49,2.968-.872,6.479-3.555,9.163s-6.2,4.043-9.164,3.556a2.007,2.007,0,0,0-2.2,1.269c-1.06,2.816-4,5.175-7.66,6.157s-7.388.407-9.714-1.5a2,2,0,0,0-2.537,0c-2.326,1.908-6.048,2.484-9.713,1.5s-6.6-3.342-7.661-6.158a2,2,0,0,0-2.2-1.269c-2.967.49-6.479-.873-9.163-3.557s-4.046-6.194-3.556-9.163a2,2,0,0,0-1.269-2.2c-2.816-1.06-5.175-4-6.158-7.661s-.406-7.388,1.5-9.713a2,2,0,0,0,0-2.537c-1.908-2.326-2.484-6.048-1.5-9.713s3.342-6.6,6.158-7.661a2,2,0,0,0,1.269-2.2c-.49-2.969.873-6.48,3.557-9.163s6.192-4.045,9.163-3.556a2,2,0,0,0,2.2-1.269c1.06-2.816,4-5.175,7.661-6.157s7.387-.406,9.713,1.5a2,2,0,0,0,2.537,0c2.326-1.908,6.045-2.484,9.714-1.5s6.6,3.341,7.66,6.157a2,2,0,0,0,2.2,1.269c2.977-.486,6.481.873,9.164,3.556s4.045,6.195,3.555,9.163a2,2,0,0,0,1.27,2.2c2.815,1.06,5.175,4,6.157,7.661s.406,7.387-1.5,9.713A2,2,0,0,0,98.885,66.269Z"/><path d="M85.76,16.861,91,16.917l-6.106,5.969a2,2,0,0,0,1.4,3.43l10.035.016h0a2,2,0,0,0,0-4l-5.14-.008L97.251,16.4a2,2,0,0,0-1.377-3.43L85.8,12.861h-.021a2,2,0,0,0-.021,4Z"/><path d="M112.05,16.227l-5.139-.008,6.062-5.926a2,2,0,0,0-1.377-3.43l-10.07-.107H101.5a2,2,0,0,0-.021,4l5.238.056-6.106,5.969a2,2,0,0,0,1.4,3.43l10.034.016h0a2,2,0,0,0,0-4Z"/></svg>