<svg id="Layer_1" data-name="Layer 1" xmlns="http://www.w3.org/2000/svg" viewBox="0 0 128 128"><title>SHOWER</title><path d="M113.425,60.928H108.63A9.78,9.78,0,0,0,99,52.751H84.271A25.316,25.316,0,0,0,59.026,28.864H25.452V24.47a6.037,6.037,0,0,0-6.03-6.03H10.487a2,2,0,0,0-2,2V49.971a2,2,0,0,0,2,2h8.935a6.037,6.037,0,0,0,6.03-6.03V43.692H59.026c5.157,0,9.139,3.808,9.745,9.059H55.112a9.78,9.78,0,0,0-9.63,8.177h-4.8a6.088,6.088,0,1,0,0,12.177h72.739a6.088,6.088,0,1,0,0-12.177ZM21.452,45.94a2.033,2.033,0,0,1-2.03,2.03H12.487V22.439h6.935a2.033,2.033,0,0,1,2.03,2.03V45.94Zm37.575-6.248H25.452V32.864H59.026a21.314,21.314,0,0,1,21.24,19.887H72.8A13.915,13.915,0,0,0,59.026,39.692ZM55.112,56.751H99a5.783,5.783,0,0,1,5.548,4.177H49.563A5.783,5.783,0,0,1,55.112,56.751ZM113.425,69.1H40.686a2.088,2.088,0,1,1,0-4.177h72.739a2.088,2.088,0,1,1,0,4.177Z"/><path d="M43.7,77.456a2,2,0,0,0-2,2v2a2,2,0,0,0,4,0v-2A2,2,0,0,0,43.7,77.456Z"/><path d="M43.7,89.1a2,2,0,0,0-2,2v4.821a2,2,0,0,0,4,0V91.1A2,2,0,0,0,43.7,89.1Z"/><path d="M43.7,103.561a2,2,0,0,0-2,2v2a2,2,0,1,0,4,0v-2A2,2,0,0,0,43.7,103.561Z"/><path d="M60.378,77.456a2,2,0,0,0-2,2v2a2,2,0,0,0,4,0v-2A2,2,0,0,0,60.378,77.456Z"/><path d="M60.378,89.1a2,2,0,0,0-2,2v4.821a2,2,0,0,0,4,0V91.1A2,2,0,0,0,60.378,89.1Z"/><path d="M60.378,103.561a2,2,0,0,0-2,2v2a2,2,0,0,0,4,0v-2A2,2,0,0,0,60.378,103.561Z"/><path d="M77.056,77.456a2,2,0,0,0-2,2v2a2,2,0,0,0,4,0v-2A2,2,0,0,0,77.056,77.456Z"/><path d="M77.056,89.1a2,2,0,0,0-2,2v4.821a2,2,0,0,0,4,0V91.1A2,2,0,0,0,77.056,89.1Z"/><path d="M77.056,103.561a2,2,0,0,0-2,2v2a2,2,0,0,0,4,0v-2A2,2,0,0,0,77.056,103.561Z"/><path d="M93.733,77.456a2,2,0,0,0-2,2v2a2,2,0,0,0,4,0v-2A2,2,0,0,0,93.733,77.456Z"/><path d="M93.733,89.1a2,2,0,0,0-2,2v4.821a2,2,0,0,0,4,0V91.1A2,2,0,0,0,93.733,89.1Z"/><path d="M93.733,103.561a2,2,0,0,0-2,2v2a2,2,0,0,0,4,0v-2A2,2,0,0,0,93.733,103.561Z"/><path d="M110.41,77.456a2,2,0,0,0-2,2v2a2,2,0,0,0,4,0v-2A2,2,0,0,0,110.41,77.456Z"/><path d="M110.41,89.1a2,2,0,0,0-2,2v4.821a2,2,0,0,0,4,0V91.1A2,2,0,0,0,110.41,89.1Z"/><path d="M110.41,103.561a2,2,0,0,0-2,2v2a2,2,0,0,0,4,0v-2A2,2,0,0,0,110.41,103.561Z"/></svg>