<svg id="Layer_1" data-name="Layer 1" xmlns="http://www.w3.org/2000/svg" viewBox="0 0 128 128"><title>SILENT</title><path d="M116.15,20.119a2,2,0,0,0-.6-1.425l-7.06-6.957a2,2,0,0,0-2.808,0L92.37,24.861V17.911A2,2,0,0,0,89.186,16.3l-35.7,26.2H40.831a2,2,0,0,0-2,2v7.265H36.591a11.082,11.082,0,0,0-11.07,11.07v3.733a11.082,11.082,0,0,0,11.07,11.07h2.221L12.447,103.618a2,2,0,0,0,0,2.85l7.06,6.957a2,2,0,0,0,2.808,0L49.23,86.9h4.255l35.7,26.2a2,2,0,0,0,3.184-1.612V44.39l23.184-22.846A2,2,0,0,0,116.15,20.119ZM88.37,28.8,56.14,60.561V45.511L88.37,21.859ZM42.831,46.5h9.31v18l-9.31,9.174ZM29.521,66.566V62.833a7.079,7.079,0,0,1,7.07-7.07H38.83V73.637H36.591A7.079,7.079,0,0,1,29.521,66.566ZM88.37,107.539,56.14,83.888v-3.8L88.37,48.331Zm.6-65.414,0,0-36.23,35.7,0,.005-.091.089-5.634,5.552v0l-26.1,25.715-4.21-4.149L42.23,79.885l0,0,13.31-13.116L70.017,52.5,107.09,15.97l4.21,4.149Z"/></svg>