<svg id="Layer_1" data-name="Layer 1" xmlns="http://www.w3.org/2000/svg" viewBox="0 0 128 128"><title>SINGLE BED</title><path d="M114.8,78.559h-.231V44.528A23.371,23.371,0,0,0,91.225,21.184H36.775A23.371,23.371,0,0,0,13.432,44.528V78.559H13.2a2,2,0,0,0-2,2V89.73a2,2,0,0,0,2,2h2.38v13.086a2,2,0,0,0,2,2h9.17a2,2,0,0,0,2-2V91.73h70.5v13.086a2,2,0,0,0,2,2h9.17a2,2,0,0,0,2-2V91.73h2.38a2,2,0,0,0,2-2V80.559A2,2,0,0,0,114.8,78.559ZM42.838,58.621a1.989,1.989,0,0,0,.5.069c.063,0,.126,0,.19-.009.424-.041.839-.06,1.271-.06h51.2c.445,0,.874.02,1.316.061a14.5,14.5,0,0,1,9.17,4.374H21.6a14.489,14.489,0,0,1,9.13-4.375c.424-.041.84-.06,1.272-.06Zm3.763-4.7a56.375,56.375,0,0,1,0-13.243,3.372,3.372,0,0,0-.965-2.773l-.092-.092a1.673,1.673,0,0,1,.075-2.429,1.761,1.761,0,0,1,2.36.158l.125.125a3.474,3.474,0,0,0,2.59.955,197.018,197.018,0,0,1,26.641,0,3.451,3.451,0,0,0,2.6-.985l.178-.178A1.639,1.639,0,0,1,81.4,34.98a1.669,1.669,0,0,1,1.235.691,1.488,1.488,0,0,1,.3.925,1.85,1.85,0,0,1-.566,1.313,3.426,3.426,0,0,0-.961,2.787,56.381,56.381,0,0,1,0,13.247,3.5,3.5,0,0,0-.008.678H46.61A3.619,3.619,0,0,0,46.6,53.924ZM17.432,73.206a14.386,14.386,0,0,1,1.4-6.15h90.389a14.652,14.652,0,0,1,1.352,6.15v5.349H17.432ZM36.775,25.184H91.225a19.366,19.366,0,0,1,19.344,19.344V61.649A18.464,18.464,0,0,0,97.675,54.7c-.561-.052-1.11-.078-1.68-.078H85.823a5.689,5.689,0,0,0-.4-.519,60.31,60.31,0,0,0,0-13.589A5.862,5.862,0,0,0,86.939,36.6a5.46,5.46,0,0,0-1.112-3.337,5.656,5.656,0,0,0-8.522-.644,200.793,200.793,0,0,0-26.6,0,5.658,5.658,0,0,0-9.643,3.85A5.69,5.69,0,0,0,42.6,40.519a60.3,60.3,0,0,0,0,13.6,5.79,5.79,0,0,0-.373.5H32.005c-.559,0-1.1.025-1.634.076a18.533,18.533,0,0,0-12.94,7.067V44.528A19.366,19.366,0,0,1,36.775,25.184ZM24.751,102.816h-5.17V91.73h5.17Zm83.667,0h-5.17V91.73h5.17ZM112.8,87.73H15.2V82.559h97.6Z"/></svg>