<svg id="Layer_1" data-name="Layer 1" xmlns="http://www.w3.org/2000/svg" viewBox="0 0 128 128"><title>SINK</title><path d="M115.619,43.885a8.094,8.094,0,0,0-8.086-8.085H96.956V33.948a7.592,7.592,0,0,0-7.584-7.583h-.7a7.591,7.591,0,0,0-7.583,7.583V35.8h-10.1V25.259h2.724a2,2,0,0,0,2-2V17.132a2,2,0,0,0-2-2H70.991V13.7a6.991,6.991,0,0,0-13.983,0v1.428H54.284a2,2,0,0,0-2,2v6.127a2,2,0,0,0,2,2h2.724V35.8h-10.1V33.948a7.592,7.592,0,0,0-7.583-7.583h-.7a7.591,7.591,0,0,0-7.583,7.583V35.8H20.467a8.081,8.081,0,0,0-2.936,15.611v9.937A26.248,26.248,0,0,0,40.752,87.386v31.9a2,2,0,0,0,2,2h42.5a2,2,0,0,0,2-2v-31.9a26.248,26.248,0,0,0,23.221-26.038V51.411A8.092,8.092,0,0,0,115.619,43.885ZM61.008,13.7a2.991,2.991,0,0,1,5.983,0v1.428H61.008Zm-4.724,5.428h15.43v2.127H56.284Zm10.707,6.127V35.794H61.008V25.259Zm18.1,8.689a3.587,3.587,0,0,1,3.583-3.583h.7a3.587,3.587,0,0,1,3.584,3.583V35.8H85.092Zm-50.047,0a3.587,3.587,0,0,1,3.583-3.583h.7a3.587,3.587,0,0,1,3.583,3.583V35.8H35.044Zm9.708,83.339V87.562h38.5v29.726Zm61.716-55.939A22.241,22.241,0,0,1,85.452,83.528a2,2,0,0,0-.2-.021h-42.5a2.006,2.006,0,0,0-.2.021A22.241,22.241,0,0,1,21.531,61.348V51.971h84.938Zm1.064-13.377H20.467a4.085,4.085,0,1,1,0-8.171h87.066a4.085,4.085,0,1,1,0,8.171Z"/></svg>