<svg id="Layer_1" data-name="Layer 1" xmlns="http://www.w3.org/2000/svg" viewBox="0 0 128 128"><title>SLEEPING MASK </title><path d="M54.7,75.862a2,2,0,0,0-2.814.285A14.306,14.306,0,0,1,40.647,81a14.249,14.249,0,0,1-11.24-4.846A2,2,0,1,0,26.3,78.671,18.457,18.457,0,0,0,40.647,85a18.508,18.508,0,0,0,14.342-6.321A2,2,0,0,0,54.7,75.862Z"/><path d="M101.41,75.862a2,2,0,0,0-2.814.285A14.306,14.306,0,0,1,87.353,81a14.249,14.249,0,0,1-11.24-4.847,2,2,0,0,0-3.105,2.521,19.43,19.43,0,0,0,28.687,0A2,2,0,0,0,101.41,75.862Z"/><path d="M121.045,82.248a56.668,56.668,0,0,0-16.711-40.334A57.362,57.362,0,0,0,83.808,28.768c0-.057.009-.116.009-.173a9.983,9.983,0,0,0-9.966-9.977h-19.7A9.969,9.969,0,0,0,44.184,28.6c0,.052.007.105.008.158a57.018,57.018,0,0,0-37.236,53.5h.019c0,.206-.014.41-.014.616,0,8.142,2.956,15.37,8.324,20.353a23,23,0,0,0,17.533,6.1c7.2-.538,13.434-2.617,18.937-4.452,4.7-1.567,8.762-2.921,12.246-2.921s7.545,1.354,12.246,2.921c5.5,1.834,11.74,3.914,18.937,4.452q.91.067,1.811.067a22.912,22.912,0,0,0,15.723-6.165c5.368-4.982,8.324-12.21,8.324-20.353,0-.155-.008-.307-.011-.462C121.033,82.351,121.045,82.3,121.045,82.248ZM49.932,24.367a5.924,5.924,0,0,1,4.217-1.748h19.7A5.978,5.978,0,0,1,79.816,28.6a5.968,5.968,0,0,1-5.966,5.966h-19.7A5.952,5.952,0,0,1,48.3,29.72a5.854,5.854,0,0,1-.112-1.125A5.94,5.94,0,0,1,49.932,24.367Zm-4.861,8.32a9.958,9.958,0,0,0,9.079,5.874h19.7A9.857,9.857,0,0,0,82.905,32.7,53.085,53.085,0,0,1,113.56,63.307a26.413,26.413,0,0,0-17.646-8.763C85.377,53.772,74.641,53.375,64,53.363c-10.639.012-21.375.41-31.912,1.181a26.409,26.409,0,0,0-17.625,8.741A53.013,53.013,0,0,1,45.071,32.687Zm64.924,67.6a19,19,0,0,1-14.514,5.04c-6.7-.5-12.687-2.5-17.969-4.257C72.479,99.39,68.134,97.941,64,97.941s-8.479,1.449-13.511,3.126c-5.282,1.761-11.268,3.757-17.969,4.257a19.023,19.023,0,0,1-14.514-5.04c-4.543-4.217-7.045-10.4-7.045-17.42,0-12.764,9.408-23.451,21.418-24.331,10.441-.765,21.082-1.158,31.62-1.17,10.543.012,21.183.406,31.625,1.17,12.01.88,21.418,11.567,21.418,24.331C117.04,89.881,114.538,96.068,109.995,100.285Z"/></svg>