<svg id="Layer_1" data-name="Layer 1" xmlns="http://www.w3.org/2000/svg" viewBox="0 0 128 128"><title>SLEEPING</title><path d="M68.86,96.614H59.02a2,2,0,1,0,0,4h9.84a2,2,0,1,0,0-4Z"/><path d="M105.78,71.59a21.963,21.963,0,0,0,.74-3.739,1.987,1.987,0,0,0,.17-.8V47.62A11.643,11.643,0,0,0,95.06,35.99H93.319A18.636,18.636,0,0,0,75.16,21.91H54.2A33.051,33.051,0,0,0,21.19,54.924V65.1a22.825,22.825,0,0,0,.958,6.6,5.374,5.374,0,0,0-.958,3.061V81.82a9.394,9.394,0,0,0,8.423,9.331A31.669,31.669,0,0,0,60.9,118.22h6.08A31.669,31.669,0,0,0,98.266,91.158a9.389,9.389,0,0,0,8.544-9.338V74.76A5.369,5.369,0,0,0,105.78,71.59ZM95.542,79.222a13.605,13.605,0,0,1-8.253,1.994,54,54,0,0,1-13.177-3.125c-3.77-1.256-7.025-2.341-10.173-2.341s-6.4,1.085-10.173,2.341q-.728.242-1.48.49a49.01,49.01,0,0,1-11.7,2.635l-.058,0a14.081,14.081,0,0,1-3.2-.134c-.049-.008-.1-.021-.147-.029-.3-.051-.6-.108-.889-.178-.136-.033-.268-.076-.4-.112-.2-.055-.407-.108-.608-.173s-.391-.141-.585-.214c-.133-.05-.268-.094-.4-.149-.235-.1-.466-.208-.7-.319-.086-.042-.174-.078-.259-.121-.256-.131-.507-.274-.756-.422-.079-.047-.161-.087-.239-.136l-.042-.025q-.521-.324-1.008-.692a14.912,14.912,0,0,1-5.036-7.032A18.646,18.646,0,0,1,25.19,65.01c.044-9.129,6.8-16.774,15.376-17.4,7.745-.564,15.61-.855,23.371-.865,7.324.01,14.744.271,22.056.774l1.325.091c.367.026.733.068,1.1.12a15.236,15.236,0,0,1,2.838.686A17.4,17.4,0,0,1,102.69,65.1c0,.6-.027,1.194-.083,1.783a17.829,17.829,0,0,1-.975,4.545A14.944,14.944,0,0,1,95.542,79.222ZM95.06,39.99a7.639,7.639,0,0,1,7.63,7.63V52.3q-.413-.588-.865-1.146c-.053-.066-.112-.126-.166-.191-.273-.329-.552-.652-.844-.963-.132-.141-.273-.274-.409-.412-.223-.225-.446-.449-.679-.664-.161-.148-.327-.289-.493-.432-.222-.192-.446-.381-.676-.564-.177-.141-.358-.276-.54-.411q-.349-.259-.71-.5c-.187-.126-.374-.251-.566-.371-.253-.159-.511-.309-.771-.457-.189-.107-.375-.216-.568-.317-.29-.153-.588-.293-.886-.432-.172-.08-.339-.165-.514-.24-.036-.015-.069-.034-.105-.049v-4.5q0-.325-.011-.649ZM25.317,52.2A29.056,29.056,0,0,1,54.2,25.91H75.16A14.718,14.718,0,0,1,89.9,40.64v3.278c-.22-.042-.442-.073-.664-.108-.142-.022-.283-.05-.426-.069-.4-.054-.806-.1-1.213-.126l-1.329-.091c-7.4-.511-14.912-.774-22.331-.784-7.861.01-15.822.3-23.663.876-.608.045-1.206.125-1.8.225-.089.015-.178.027-.266.043-.562.1-1.114.231-1.659.381l-.307.087c-.543.159-1.078.337-1.6.54-.076.03-.151.063-.226.093-.533.215-1.057.448-1.567.706l-.052.025c-.517.264-1.018.556-1.509.863-.078.048-.156.1-.233.145q-.7.452-1.365.961c-.082.063-.163.127-.245.191-.442.349-.873.712-1.286,1.1-.051.048-.1.1-.151.146-.414.392-.814.8-1.2,1.224-.022.025-.045.048-.067.072-.386.434-.752.888-1.1,1.353-.056.074-.113.147-.168.221S25.367,52.126,25.317,52.2ZM25.19,81.82V77.926c.07.1.148.182.22.276.143.188.29.37.439.551q.264.32.54.628.238.265.486.519c.191.2.386.386.584.573.172.162.345.321.523.475.206.179.416.35.629.518.184.146.369.291.558.429.038.027.073.058.111.085V86.59c0,.15.009.3.011.448A5.384,5.384,0,0,1,25.19,81.82Zm41.79,32.4H60.9A27.658,27.658,0,0,1,33.4,89.112V84.167l.014,0q.775.286,1.573.5c.1.027.21.051.315.076.535.131,1.075.241,1.622.321l.087.015c.58.082,1.166.128,1.756.152l.3.01c.145,0,.289.015.434.015q.688,0,1.384-.053a57.173,57.173,0,0,0,14.142-3.318c3.44-1.146,6.41-2.136,8.909-2.136s5.469.989,8.909,2.136A57.171,57.171,0,0,0,86.992,85.2c.589.045,1.175.051,1.758.039.162,0,.323-.012.484-.02q.694-.033,1.378-.119c.13-.016.26-.027.389-.047q.856-.127,1.692-.336c.1-.026.2-.059.3-.087q.689-.187,1.361-.43c.08-.029.164-.047.243-.077V86.59A27.656,27.656,0,0,1,66.98,114.22Zm35.83-32.4a5.39,5.39,0,0,1-4.21,5.252V81.987c.061-.044.117-.094.177-.138.184-.136.361-.28.54-.423.219-.175.437-.35.648-.536.177-.155.347-.318.518-.48.2-.189.4-.379.586-.577.169-.176.332-.357.495-.54.178-.2.354-.4.524-.612s.312-.393.463-.594c.084-.112.175-.216.257-.33Z"/><path d="M55.155,65.785a9.163,9.163,0,0,1-7.215,3.093,9.127,9.127,0,0,1-7.213-3.089,2,2,0,1,0-3.105,2.521A13.282,13.282,0,0,0,47.94,72.878a13.316,13.316,0,0,0,10.314-4.563,2,2,0,1,0-3.1-2.529Z"/><path d="M87.156,65.785a9.964,9.964,0,0,1-14.428,0,2,2,0,1,0-3.105,2.521,13.939,13.939,0,0,0,20.633,0,2,2,0,1,0-3.1-2.529Z"/></svg>