<svg id="Layer_1" data-name="Layer 1" xmlns="http://www.w3.org/2000/svg" viewBox="0 0 128 128"><title>SLIPPER</title><path d="M57.016,56.838a7.025,7.025,0,0,0,4.236-5.894,7,7,0,0,0-6.424-7.522c-.352-.03-.7-.039-1.05-.06l-.441-1.843v0A26.168,26.168,0,0,0,41.457,25.158,22.544,22.544,0,0,0,9.922,33.605a26.174,26.174,0,0,0-2.108,20.11l.537,1.811c-.292.194-.587.38-.878.579a7,7,0,0,0,4.814,12.721l6.094,20.618a23.235,23.235,0,0,0,22.04,16.683,21.7,21.7,0,0,0,5.628-.741c11.729-3.143,18.907-15.542,16-27.642ZM13.411,35.562a18.7,18.7,0,0,1,11.5-9.071,18.36,18.36,0,0,1,4.751-.627A19.06,19.06,0,0,1,39.413,28.6,22.147,22.147,0,0,1,49.446,42.452l.182.757h-.051c-.364,0-.728.009-1.092.012-.5,0-1,.007-1.5.022-.469.014-.937.04-1.406.063-.4.02-.8.038-1.2.065-.484.032-.966.073-1.449.115-.391.034-.782.068-1.173.108q-.715.073-1.428.161-.6.074-1.208.158c-.46.064-.92.13-1.379.2-.427.067-.852.142-1.277.216s-.866.151-1.3.235c-.476.092-.95.2-1.424.3-.38.082-.761.158-1.14.245-.7.161-1.395.336-2.089.518-.2.053-.4.1-.6.157q-1.194.323-2.377.685c-.277.085-.552.178-.828.267-.57.182-1.139.366-1.7.561-.315.109-.628.225-.941.338-.523.188-1.044.38-1.562.58-.327.126-.651.256-.976.387q-.752.3-1.5.621-.491.21-.978.426-.739.329-1.47.676c-.318.15-.636.3-.952.453-.5.246-1,.5-1.5.759-.291.151-.583.3-.872.452-.576.308-1.145.629-1.712.953-.2.114-.4.222-.6.338l-.071.04-.219-.738A22.149,22.149,0,0,1,13.411,35.562ZM8.972,63.583a3.01,3.01,0,0,1,.766-4.18c.671-.462,1.348-.905,2.024-1.336q1.08-.686,2.187-1.33c.246-.143.5-.278.745-.418.495-.28.989-.561,1.491-.829.3-.161.606-.312.909-.468.457-.235.913-.471,1.375-.7.325-.159.654-.309.982-.462.446-.209.893-.418,1.343-.617.342-.151.687-.3,1.031-.442.444-.188.888-.375,1.335-.553.352-.141.706-.276,1.059-.41.447-.17.894-.338,1.344-.5q.539-.193,1.081-.376.674-.229,1.353-.445.549-.174,1.1-.34.681-.2,1.366-.393c.369-.1.739-.2,1.11-.3.461-.12.923-.233,1.386-.343.37-.089.74-.178,1.111-.26.47-.1.941-.2,1.413-.294.367-.074.734-.15,1.1-.218.487-.09.975-.169,1.463-.248.355-.058.71-.12,1.066-.172.519-.076,1.039-.14,1.559-.2.328-.041.655-.087.983-.123.6-.066,1.2-.117,1.808-.167.249-.021.5-.049.746-.067q1.271-.092,2.545-.138c.224-.008.448-.006.672-.012.625-.016,1.251-.03,1.876-.029.936,0,1.873.021,2.807.061.792.026,1.588.07,2.394.138a3,3,0,0,1,2.757,3.223h0A3.01,3.01,0,0,1,54.417,53.4a2.03,2.03,0,0,1-.377-.007c-.161-.013-.322-.016-.483-.027a63.763,63.763,0,0,0-38.079,9.459q-1.179.734-2.328,1.521l-.006,0a2.738,2.738,0,0,1-.308.183c-.032.017-.058.033-.1.051a2.684,2.684,0,0,1-.523.2A3,3,0,0,1,8.972,63.583Zm14.241-.443q1.169-.562,2.362-1.075L25.723,62a60.432,60.432,0,0,1,16.19-4.346l.275-.033q1.218-.145,2.439-.237l.067-.005.172-.012,5.2,23.855c.985,4.91-2.3,9.842-7.478,11.229S32.1,91.212,30.51,86.5L23.074,63.208Zm21.8,38.384c-9.658,2.585-19.883-3.339-22.8-13.211L16,67.261q.4-.269.81-.531c.329-.212.657-.427.99-.632.373-.23.752-.451,1.13-.672.185-.108.369-.217.555-.323l7.23,22.64A13.658,13.658,0,0,0,39.8,96.822a14.741,14.741,0,0,0,3.823-.506c7.21-1.932,11.763-8.906,10.358-15.912L48.926,57.213c.226,0,.452,0,.678,0,.424,0,.847,0,1.271.017.4.012.8.034,1.2.054.314.016.629.032.943.053L58.16,78.68C60.565,88.689,54.667,98.937,45.014,101.523Z"/><path d="M120.528,56.106c-.291-.2-.586-.386-.878-.58l.538-1.814a26.171,26.171,0,0,0-2.109-20.107,22.544,22.544,0,0,0-31.535-8.447A26.168,26.168,0,0,0,74.665,41.516v0l-.441,1.843c-.346.021-.7.031-1.037.06a7,7,0,0,0-6.438,7.523h0a7.042,7.042,0,0,0,4.233,5.9l-5.031,20.9c-2.906,12.1,4.271,24.5,16,27.641a21.7,21.7,0,0,0,5.628.741,23.238,23.238,0,0,0,22.04-16.683l6.094-20.618a7,7,0,0,0,4.815-12.721ZM78.554,42.452A22.147,22.147,0,0,1,88.587,28.6a18.544,18.544,0,0,1,26,6.965,22.145,22.145,0,0,1,1.763,17.016l-.22.741-.071-.04c-.188-.11-.38-.212-.569-.32-.579-.331-1.16-.657-1.748-.972-.266-.142-.536-.278-.8-.417-.521-.271-1.044-.538-1.572-.8-.285-.139-.572-.274-.86-.41q-.787-.372-1.582-.727-.423-.188-.848-.371-.836-.359-1.682-.7c-.257-.1-.513-.207-.771-.307-.636-.247-1.276-.482-1.918-.711-.187-.067-.373-.137-.561-.2q-2.577-.9-5.213-1.6l-.081-.021q-1.245-.332-2.5-.62c-.184-.042-.369-.08-.554-.121q-1.026-.228-2.058-.429c-.236-.045-.472-.088-.708-.131q-.966-.177-1.937-.328-.38-.059-.761-.115-.962-.14-1.927-.253c-.25-.03-.5-.061-.749-.088-.681-.074-1.362-.135-2.045-.19-.206-.016-.411-.037-.616-.052-.871-.062-1.743-.111-2.615-.142l-.044,0q-1.256-.044-2.512-.045h-.453Zm27.229,45.86c-2.914,9.872-13.141,15.8-22.8,13.211S67.436,88.689,69.84,78.681l5.138-21.341c.326-.021.653-.039.979-.055.384-.019.769-.04,1.153-.052.456-.013.911-.015,1.366-.018.2,0,.4,0,.6,0l-5.06,23.224c-1.4,6.974,3.154,13.948,10.365,15.88a14.727,14.727,0,0,0,3.821.506,13.673,13.673,0,0,0,13.1-9.108l7.22-22.611c.179.1.356.207.534.311.387.227.775.453,1.158.689.33.2.655.416.981.627q.407.263.811.531ZM83.369,57.386q1.225.094,2.447.237l.211.024.013,0a60.428,60.428,0,0,1,16.25,4.358l.026.011.125.054q1.172.5,2.319,1.055l.167.081L97.5,86.468c-1.6,4.744-6.906,7.372-12.085,5.985s-8.463-6.319-7.485-11.2l5.2-23.887Zm35.658,6.2a2.987,2.987,0,0,1-3.242,1.2,2.9,2.9,0,0,1-.585-.229,2.49,2.49,0,0,1-.34-.2q-1.061-.728-2.15-1.408c-.236-.148-.477-.287-.715-.432-.493-.3-.987-.6-1.487-.885-.288-.165-.579-.322-.869-.482-.459-.253-.919-.5-1.384-.746-.31-.161-.623-.317-.935-.473q-.682-.34-1.37-.664-.481-.226-.966-.444-.693-.311-1.394-.6c-.322-.135-.643-.271-.967-.4-.487-.2-.977-.381-1.469-.565-.307-.114-.612-.232-.92-.342-.552-.2-1.108-.38-1.664-.561-.252-.082-.5-.17-.754-.249q-1.217-.379-2.447-.711c-.082-.022-.165-.04-.247-.062q-1.11-.293-2.229-.547c-.274-.062-.551-.115-.826-.173-.558-.118-1.117-.235-1.679-.338-.318-.059-.638-.11-.957-.164-.523-.088-1.047-.173-1.572-.248-.336-.048-.672-.091-1.008-.134q-.773-.1-1.549-.178-.508-.052-1.017-.1c-.524-.045-1.049-.082-1.575-.114-.33-.02-.659-.041-.99-.056-.554-.025-1.109-.039-1.664-.049-.3-.006-.6-.016-.9-.017-.1,0-.2-.006-.3-.006-.5,0-1.007.017-1.51.029-.263.006-.526.006-.79.015-.864.032-1.728.078-2.592.146a2.688,2.688,0,0,1-.327.006c-.042,0-.077,0-.127,0a2.989,2.989,0,0,1-2.773-2.759h0a3,3,0,0,1,2.771-3.224c.792-.066,1.589-.11,2.4-.138a68.327,68.327,0,0,1,7.933.122c1.145.084,2.288.207,3.429.348a70.257,70.257,0,0,1,28.969,10.327h0c.677.432,1.353.874,2.023,1.335A3.01,3.01,0,0,1,119.027,63.585Z"/></svg>