<svg id="Layer_1" data-name="Layer 1" xmlns="http://www.w3.org/2000/svg" viewBox="0 0 128 128"><title>SOPORIFIC</title><path d="M46.345,56.833A21.365,21.365,0,1,0,67.711,78.2,21.389,21.389,0,0,0,46.345,56.833Zm0,38.729A17.365,17.365,0,1,1,63.711,78.2,17.385,17.385,0,0,1,46.345,95.563Z"/><path d="M111.98,85.566A19.689,19.689,0,0,0,87.444,82.94c-.012.007-.025.012-.036.019l-.017.012a18.692,18.692,0,0,0-4.975,4.646V52.112a9.755,9.755,0,0,0-2.7-6.758L69.985,35.142V29.227h2.441a2,2,0,0,0,2-2V10.869a2,2,0,0,0-2-2H20.265a2,2,0,0,0-2,2V27.227a2,2,0,0,0,2,2h2.441v5.915L12.98,45.354a9.755,9.755,0,0,0-2.7,6.759v55.906a11.126,11.126,0,0,0,11.113,11.112H71.3a11.123,11.123,0,0,0,10.742-8.315,19.64,19.64,0,0,0,26.682,5.173c.007,0,.014-.005.021-.01l.021-.015a19.446,19.446,0,0,0,5.807-5.809l.012-.017c.008-.012.012-.025.02-.037A19.689,19.689,0,0,0,111.98,85.566Zm-44.96-72.7h3.406V25.227H67.02Zm-7.47,0h3.47V25.227H59.55Zm-7.47,0h3.47V25.227h-3.47Zm-7.47,0h3.47V25.227h-3.47Zm-7.47,0h3.47V25.227h-3.47Zm-7.47,0h3.47V25.227h-3.47ZM26.707,29.227H65.985v4.715H26.707Zm-4.441-4V12.869h3.406V25.227H22.265Zm56.15,82.792a7.121,7.121,0,0,1-7.113,7.112H21.389a7.121,7.121,0,0,1-7.113-7.112V52.112a5.775,5.775,0,0,1,1.6-4l9.687-10.171H67.128l9.688,10.172a5.771,5.771,0,0,1,1.6,4ZM87,110.544a15.676,15.676,0,0,1-3.265-17.338l20.6,20.6A15.679,15.679,0,0,1,87,110.544Zm23.281-1.267a15.324,15.324,0,0,1-1.132,1.267,15.516,15.516,0,0,1-1.266,1.13l-.014.01-22.01-22.01.009-.013A15.509,15.509,0,0,1,87,88.395a15.3,15.3,0,0,1,1.266-1.13l.013-.009,22.011,22.011Zm2.133-3.543-20.6-20.6a15.639,15.639,0,0,1,20.6,20.6Z"/><path d="M42.78,84.679h-.009l-2.438.011,3.378-3.338a2,2,0,0,0-1.4-3.423l-7.267-.038h-.011a2,2,0,0,0-.011,4l2.434.013-3.425,3.384a2,2,0,0,0,1.406,3.423h.009l7.338-.031a2,2,0,0,0-.009-4Z"/><path d="M47.984,67.686h-.011a2,2,0,0,0-.011,4l4.442.022-5.321,5.26a2,2,0,0,0,1.406,3.423H48.5l9.163-.04a2,2,0,0,0-.009-4h-.009l-4.264.019,5.274-5.213a2,2,0,0,0-1.4-3.423Z"/></svg>