<svg id="Layer_1" data-name="Layer 1" xmlns="http://www.w3.org/2000/svg" viewBox="0 0 128 128"><title>STORY BOOK</title><path d="M100.924,104.477a6.657,6.657,0,0,1-.106-13.314h.1a2.005,2.005,0,0,0,2-2.005V9.98a2,2,0,0,0-2-2H35.751A10.687,10.687,0,0,0,25.076,18.656V97.822a10.666,10.666,0,0,0,10.654,10.654h2.731v9.543a2,2,0,0,0,2.894,1.789l8.58-4.285,8.58,4.285a2,2,0,0,0,2.894-1.789v-9.543h39.515a2,2,0,0,0,0-4ZM30.56,88.505c-.124.069-.242.147-.363.221q-.387.237-.751.5c-.123.09-.25.176-.368.272V41.868a6.682,6.682,0,0,1,6.675-6.675H98.923V87.157H35.731c-.249,0-.494.021-.739.037-.07,0-.142,0-.212.011-.213.019-.421.051-.629.082-.118.018-.236.033-.353.054-.2.036-.388.081-.581.128-.125.03-.249.061-.372.1q-.277.078-.547.17c-.125.043-.248.089-.371.136-.174.067-.348.135-.517.21-.123.055-.243.116-.364.176C30.883,88.338,30.718,88.417,30.56,88.505ZM98.923,31.193H35.751a10.62,10.62,0,0,0-6.675,2.35V30.269a6.682,6.682,0,0,1,6.675-6.675H98.923ZM35.751,11.98H98.923v7.614H35.751a10.618,10.618,0,0,0-6.675,2.357v-3.3A6.683,6.683,0,0,1,35.751,11.98Zm-.021,92.5a6.657,6.657,0,0,1,0-13.314H92.608a10.625,10.625,0,0,0-2.145,4.66H35.806a2,2,0,0,0,0,4h2.656v4.654Zm21.678,10.309-6.58-3.286a2,2,0,0,0-1.787,0l-6.58,3.286V99.822H57.408v14.963Zm4-10.309V99.822H90.463a10.616,10.616,0,0,0,2.145,4.654Z"/><path d="M54.936,62.788,53.481,71.27a2,2,0,0,0,2.9,2.108l7.617-4,7.617,4a2,2,0,0,0,2.9-2.109l-1.455-8.481,6.162-6.007a2,2,0,0,0-1.108-3.411L69.6,52.132l-3.808-7.717a2,2,0,0,0-3.587,0L58.4,52.132,49.882,53.37a2,2,0,0,0-1.108,3.411Zm5.078-6.849a2,2,0,0,0,1.506-1.094L64,49.82l2.479,5.026a2,2,0,0,0,1.507,1.094l5.546.806-4.014,3.912a2,2,0,0,0-.575,1.771l.948,5.523L64.93,65.343a2,2,0,0,0-1.861,0l-4.96,2.607.947-5.523a2,2,0,0,0-.575-1.77l-4.013-3.912Z"/></svg>