<svg id="Layer_1" data-name="Layer 1" xmlns="http://www.w3.org/2000/svg" viewBox="0 0 128 128"><title>TEA</title><path d="M97.012,71.067a30.225,30.225,0,0,0,22.654-29.192V32.661a6.433,6.433,0,0,0-6.426-6.426H97.012V21.227a2,2,0,0,0-2-2H26.443a2,2,0,0,0-2,2v59.4A11.116,11.116,0,0,0,27.06,87.8H14.179a5.845,5.845,0,1,0,0,11.69H28.64a18.628,18.628,0,0,0,16.135,9.288h31.9a18.628,18.628,0,0,0,16.135-9.288h14.462a5.845,5.845,0,0,0,0-11.69H94.4a11.116,11.116,0,0,0,2.617-7.17Zm16.229-40.832a2.429,2.429,0,0,1,2.426,2.426v9.214A26.221,26.221,0,0,1,97.012,66.921V61.786a21.442,21.442,0,0,0,13.8-19.911V37.086a2,2,0,0,0-2-2h-11.8V30.235ZM97.012,39.086h9.8v2.789a17.415,17.415,0,0,1-9.8,15.558ZM76.68,104.773h-31.9A14.644,14.644,0,0,1,33.49,99.486H87.965A14.645,14.645,0,0,1,76.68,104.773Zm32.442-11.133a1.847,1.847,0,0,1-1.845,1.845h-93.1a1.845,1.845,0,1,1,0-3.69h93.1A1.847,1.847,0,0,1,109.122,93.641ZM35.614,87.8a7.179,7.179,0,0,1-7.17-7.17v-57.4H73.658V38.45H64.426a2,2,0,0,0-2,2V62.915a2,2,0,0,0,2,2H86.891a2,2,0,0,0,2-2V40.45a2,2,0,0,0-2-2H77.658V23.227H93.012v57.4a7.179,7.179,0,0,1-7.17,7.17ZM84.891,52.069,76.172,49.75a2,2,0,0,0-1.028,0l-8.718,2.319V42.45H84.891ZM66.426,56.208l9.232-2.456,9.232,2.456v4.708H66.426Z"/></svg>