<svg id="Layer_1" data-name="Layer 1" xmlns="http://www.w3.org/2000/svg" viewBox="0 0 128 128"><title>TOOTBRUSH AND TOOTHPASTE</title><path d="M65.6,109.437l-5.391-78.86a2,2,0,0,0-2-1.864H55.613V25.234h1.436a2,2,0,0,0,2-2V9.659a2,2,0,0,0-2-2H32.955a2,2,0,0,0-2,2V23.234a2,2,0,0,0,2,2H34.39v3.479H31.785a2,2,0,0,0-2,1.864L24.4,109.437c0,.022,0,.044,0,.065s-.007.047-.007.071v8.768a2,2,0,0,0,2,2H63.61a2,2,0,0,0,2-2v-8.768c0-.024-.006-.047-.007-.071S65.607,109.459,65.6,109.437ZM34.955,11.659H55.048v9.575H34.955ZM38.39,25.234H51.613v3.479H38.39Zm-4.737,7.479h22.7l5.117,74.86H28.535ZM61.61,116.341H28.393v-4.768H61.61Z"/><path d="M45,62.2a12.39,12.39,0,1,0,12.39,12.39A12.4,12.4,0,0,0,45,62.2Zm0,20.78a8.39,8.39,0,1,1,8.39-8.39A8.4,8.4,0,0,1,45,82.977Z"/><path d="M101.607,6.715H94.093A2,2,0,0,0,92.1,8.6H81.372a2,2,0,0,0-2,2V34.243a2,2,0,0,0,2,2H92.093v.14l-7.072,8.787a2,2,0,0,0-.442,1.254v69.1a5.757,5.757,0,1,0,11.515,0v-66.2l7.071-8.787a2,2,0,0,0,.442-1.254V8.715A2,2,0,0,0,101.607,6.715ZM83.372,32.243V12.6h8.722V32.243Zm16.235,6.336-7.071,8.787a2,2,0,0,0-.442,1.254v66.908a1.757,1.757,0,1,1-3.515,0v-68.4l7.072-8.787a2,2,0,0,0,.442-1.254V10.715h3.514Z"/></svg>