<svg id="Layer_1" data-name="Layer 1" xmlns="http://www.w3.org/2000/svg" viewBox="0 0 128 128"><title>TURN OFF</title><path d="M89.4,7.514H38.6a7.868,7.868,0,0,0-7.859,7.859v97.254a7.868,7.868,0,0,0,7.859,7.859H89.4a7.868,7.868,0,0,0,7.859-7.859V15.373A7.868,7.868,0,0,0,89.4,7.514Zm3.859,105.113a3.864,3.864,0,0,1-3.859,3.859H38.6a3.864,3.864,0,0,1-3.859-3.859V15.373A3.864,3.864,0,0,1,38.6,11.514H89.4a3.864,3.864,0,0,1,3.859,3.859Z"/><path d="M87.713,15.4H74.55a2,2,0,0,0-1.414.586l-5.62,5.62a4.979,4.979,0,0,1-7.031,0l-5.62-5.62A2,2,0,0,0,53.45,15.4H40.287a2,2,0,0,0-2,2v93.2a2,2,0,0,0,2,2H87.713a2,2,0,0,0,2-2V17.4A2,2,0,0,0,87.713,15.4Zm-2,93.2H42.287V19.4H52.622l5.034,5.034a8.981,8.981,0,0,0,12.688,0L75.378,19.4H85.713Z"/><path d="M62.253,18.706h3.494a2,2,0,1,0,0-4H62.253a2,2,0,0,0,0,4Z"/><path d="M58.317,74.459h-.009l-5.88.025,6.6-6.52a2,2,0,0,0-1.4-3.423l-10.674-.055h-.01a2,2,0,0,0-.01,4l5.84.03-6.643,6.564A2,2,0,0,0,47.539,78.5h.009l10.778-.046a2,2,0,0,0-.009-4Z"/><path d="M65.947,49.5a2,2,0,0,0-.011,4l8.794.046L65.3,62.86a2,2,0,0,0,1.406,3.423h.009l13.462-.059a2,2,0,0,0-.009-4h-.009l-8.562.037,9.383-9.272a2,2,0,0,0-1.4-3.423L65.958,49.5Z"/></svg>