<svg id="Layer_1" data-name="Layer 1" xmlns="http://www.w3.org/2000/svg" viewBox="0 0 128 128"><title>VINYL</title><path d="M64,10.922A53.078,53.078,0,1,0,117.078,64,53.138,53.138,0,0,0,64,10.922Zm0,102.156A49.078,49.078,0,1,1,113.078,64,49.134,49.134,0,0,1,64,113.078Z"/><path d="M64,46.294A17.706,17.706,0,1,0,81.706,64,17.727,17.727,0,0,0,64,46.294Zm0,31.412A13.706,13.706,0,1,1,77.706,64,13.721,13.721,0,0,1,64,77.706Z"/><path d="M64,57.214A6.786,6.786,0,1,0,70.786,64,6.793,6.793,0,0,0,64,57.214Zm0,9.572A2.786,2.786,0,1,1,66.786,64,2.789,2.789,0,0,1,64,66.786Z"/><path d="M53.9,87.1a25.174,25.174,0,0,1-13-13,2,2,0,0,0-3.664,1.605A29.164,29.164,0,0,0,52.293,90.763,2,2,0,1,0,53.9,87.1Z"/><path d="M53.653,99.592A37.343,37.343,0,0,1,28.408,74.347a2,2,0,0,0-3.842,1.115,41.379,41.379,0,0,0,27.972,27.972,2,2,0,0,0,1.115-3.842Z"/><path d="M75.707,37.237A2,2,0,0,0,74.1,40.9a25.174,25.174,0,0,1,13,13,2,2,0,1,0,3.664-1.605A29.164,29.164,0,0,0,75.707,37.237Z"/><path d="M103.434,52.538A41.374,41.374,0,0,0,75.462,24.566a2,2,0,0,0-1.115,3.842A37.339,37.339,0,0,1,99.592,53.653a2,2,0,0,0,3.842-1.115Z"/></svg>