<svg id="Layer_1" data-name="Layer 1" xmlns="http://www.w3.org/2000/svg" viewBox="0 0 128 128"><title>WATCH</title><path d="M80.664,7.716H47.336a9.06,9.06,0,0,0-9.049,9.05V50.093A9.056,9.056,0,0,0,45.813,59v41.254a18.188,18.188,0,0,0,36.375,0V59a9.056,9.056,0,0,0,7.525-8.91V16.766A9.06,9.06,0,0,0,80.664,7.716Zm-2.477,92.541a14.188,14.188,0,0,1-28.375,0V59.142H78.188Zm7.525-50.164a5.054,5.054,0,0,1-5.049,5.049H47.336a5.054,5.054,0,0,1-5.049-5.049V16.766a5.055,5.055,0,0,1,5.049-5.05H80.664a5.055,5.055,0,0,1,5.049,5.05Z"/><path d="M78.079,15.241H49.921a4.113,4.113,0,0,0-4.108,4.108V47.508a4.114,4.114,0,0,0,4.108,4.109H78.079a4.114,4.114,0,0,0,4.108-4.109V19.35A4.113,4.113,0,0,0,78.079,15.241Zm.108,32.267a.109.109,0,0,1-.108.109H49.921a.109.109,0,0,1-.108-.109V19.35a.109.109,0,0,1,.108-.108H78.079a.109.109,0,0,1,.108.108Z"/><path d="M62.085,67.946h3.83a2,2,0,0,0,0-4h-3.83a2,2,0,0,0,0,4Z"/><path d="M62.085,81.536h3.83a2,2,0,0,0,0-4h-3.83a2,2,0,0,0,0,4Z"/><path d="M62.085,95.126h3.83a2,2,0,0,0,0-4h-3.83a2,2,0,0,0,0,4Z"/><path d="M59.033,23.535c-2.264,0-3.867,1.8-3.867,4.344s1.6,4.356,3.867,4.356,3.867-1.8,3.867-4.356S61.31,23.535,59.033,23.535Zm0,6.8c-1,0-1.713-1.028-1.713-2.46s.71-2.447,1.713-2.447,1.726,1.016,1.726,2.447S60.049,30.339,59.033,30.339Z"/><path d="M68.759,32.235a3.024,3.024,0,0,0,3.3-2.949,2.662,2.662,0,0,0-2.84-2.692,3.192,3.192,0,0,0-1.945.661c.184-1.187.819-1.9,1.811-1.9a2.5,2.5,0,0,1,1.665.636l.967-1.578a4.19,4.19,0,0,0-2.644-.881c-2.46,0-4.014,1.835-4.014,4.5C65.063,30.51,66.25,32.235,68.759,32.235Zm-.171-3.965a1.193,1.193,0,0,1,1.334,1.1,1.156,1.156,0,0,1-1.285,1.089c-.856,0-1.224-.452-1.358-1.383A1.414,1.414,0,0,1,68.588,28.271Z"/><path d="M59.033,35.215c-2.264,0-3.867,1.8-3.867,4.344s1.6,4.356,3.867,4.356,3.867-1.8,3.867-4.356S61.31,35.215,59.033,35.215Zm0,6.8c-1,0-1.713-1.028-1.713-2.46s.71-2.447,1.713-2.447,1.726,1.016,1.726,2.447S60.049,42.019,59.033,42.019Z"/><path d="M68.967,35.215c-2.264,0-3.867,1.8-3.867,4.344s1.6,4.356,3.867,4.356,3.867-1.8,3.867-4.356S71.243,35.215,68.967,35.215Zm0,6.8c-1,0-1.713-1.028-1.713-2.46s.71-2.447,1.713-2.447,1.726,1.016,1.726,2.447S69.982,42.019,68.967,42.019Z"/></svg>