<svg id="Layer_1" data-name="Layer 1" xmlns="http://www.w3.org/2000/svg" viewBox="0 0 128 128"><title>WIGHT CAP</title><path d="M121.141,27.994a2,2,0,0,0-1.395-1.585l-7.872-2.376-2.5-7.832a2,2,0,0,0-3.548-.532l-4.691,6.752-8.224-.037H92.9a2,2,0,0,0-1.593,3.209l2.468,3.251c-24.755-5.831-45.026-2.764-58.831,8.965q-1.079.914-2.1,1.9a51.163,51.163,0,0,0-11.495,16.94c-3.839,8.968-5.853,19.7-6.038,31.889a10.441,10.441,0,0,0,1.967,20.695H84.824a10.437,10.437,0,0,0,1.521-20.763c-3.19-10.365-4.647-19.651-4.293-27.6.322-7.6,2.231-13.925,5.676-18.807.03-.043.06-.087.086-.132a21.545,21.545,0,0,1,7.448-6.707L93.7,39.951a2,2,0,0,0,2.558,2.516l7.766-2.705,6.63,4.864a2,2,0,0,0,3.183-1.655l-.173-8.221,6.674-4.8A2,2,0,0,0,121.141,27.994ZM36.857,46.658A9.548,9.548,0,0,1,27.32,56.2,9.747,9.747,0,0,1,26,56.105c.041-.084.077-.173.118-.257.117-.24.239-.473.359-.71q.4-.8.831-1.581.212-.386.429-.766.444-.776.911-1.525c.13-.21.258-.424.391-.631.446-.693.9-1.374,1.377-2.034.047-.065.1-.126.144-.191q.648-.891,1.333-1.74c.159-.2.323-.39.485-.585q.543-.651,1.107-1.278c.179-.2.359-.4.542-.593q.611-.653,1.247-1.274c.147-.144.29-.294.439-.435.044-.042.091-.08.135-.122A9.557,9.557,0,0,1,36.857,46.658Zm54.41,52.128a6.451,6.451,0,0,1-6.443,6.443H17.275a6.442,6.442,0,0,1-.037-12.885c.012,0,.023,0,.034,0H84.823c.011,0,.021,0,.032,0A6.45,6.45,0,0,1,91.267,98.786ZM83.248,41.642c-.163.272-.321.548-.477.826q-.36.644-.691,1.312c-.141.283-.283.566-.417.856-.221.477-.427.967-.628,1.46-.111.272-.227.538-.332.815-.232.615-.445,1.246-.647,1.885-.053.169-.116.33-.167.5q-.368,1.221-.664,2.5c-.055.238-.1.487-.149.728-.133.623-.26,1.251-.369,1.894-.056.333-.1.675-.15,1.013-.083.57-.161,1.145-.225,1.73-.041.372-.075.749-.108,1.127-.025.286-.061.563-.081.852a10.559,10.559,0,0,1-1.394.091A10.311,10.311,0,1,1,83.532,41.15C83.432,41.309,83.345,41.48,83.248,41.642Zm2.621-3.726a14.3,14.3,0,1,0-9.12,25.318c.425,0,.845-.025,1.262-.061a89.121,89.121,0,0,0,4.1,25.171H19.289c.186-10.834,1.908-20.384,5.088-28.48a13.518,13.518,0,0,0,14.57-20.118c12.6-9.791,30.789-12.273,53-7.22A26.211,26.211,0,0,0,85.869,37.915Zm24.6-5.8a2,2,0,0,0-.832,1.666l.109,5.22-4.21-3.088a2,2,0,0,0-1.841-.276l-4.932,1.718L100.4,32.4a2,2,0,0,0-.307-1.836L96.941,26.4l5.223.023h.009a2,2,0,0,0,1.643-.859l2.979-4.288,1.59,4.973a2,2,0,0,0,1.327,1.305l5,1.509Z"/><path d="M52.058,61.3a9.385,9.385,0,1,0,9.386,9.385A9.4,9.4,0,0,0,52.058,61.3Zm0,14.771a5.385,5.385,0,1,1,5.386-5.385A5.392,5.392,0,0,1,52.058,76.069Z"/></svg>