<svg id="Layer_1" data-name="Layer 1" xmlns="http://www.w3.org/2000/svg" viewBox="0 0 128 128"><title>WINDOW</title><path d="M114.52,60.25V28.737h3.237a2,2,0,0,0,2-2v-7.9a2,2,0,0,0-2-2H10.243a2,2,0,0,0-2,2v7.9a2,2,0,0,0,2,2H13.48V99.263H10.243a2,2,0,0,0-2,2v7.9a2,2,0,0,0,2,2H117.757a2,2,0,0,0,2-2v-7.9a2,2,0,0,0-2-2H114.52V60.25Zm-48.77,7.5V99.26h-3.5V67.75a2,2,0,0,0-2-2H34.19v-3.5H60.25a2,2,0,0,0,2-2V28.74h3.5V60.25a2,2,0,0,0,2,2H93.81v3.5H67.75A2,2,0,0,0,65.75,67.75Zm-48.265-5.5H30.19v3.5H17.485Zm12.705,7.5V99.26H25.835V69.75Zm1.217-11.5H26.862c1.71-4.539,4.577-14.345,4.812-29.51h10.2C41.334,47.245,33.448,56.229,31.407,58.25Zm-8.861,0H17.485V28.74H27.674C27.4,45.242,23.856,55.14,22.547,58.25Zm-5.062,11.5h4.35V99.26h-4.35Zm80.325,0h4.355V99.26H97.81Zm0-4v-3.5h12.706v3.5Zm12.706-7.5h-5.066c-1.313-3.1-4.856-12.935-5.124-29.51h10.19ZM96.326,28.74c.235,15.165,3.1,24.971,4.813,29.51H96.586c-2.052-2.006-9.925-10.892-10.457-29.51Zm9.839,41.01h4.351V99.26h-4.351ZM82.127,28.737c.415,15.516,5.609,24.887,9.152,29.513H69.75V28.737ZM58.25,58.25H36.721c3.544-4.626,8.738-14,9.152-29.513H58.25ZM34.19,69.75H58.25V99.263H34.19Zm35.56,0H93.81V99.263H69.75ZM12.243,20.841H115.757v3.9H12.243Zm103.514,86.317H12.243v-3.9H115.757Z"/></svg>