<?xml version="1.0" encoding="utf-8"?>
<!-- Generator: Adobe Illustrator 21.0.0, SVG Export Plug-In . SVG Version: 6.00 Build 0)  -->
<svg version="1.1" xmlns="http://www.w3.org/2000/svg" xmlns:xlink="http://www.w3.org/1999/xlink" x="0px" y="0px"
	 viewBox="0 0 32 32" style="enable-background:new 0 0 32 32;" xml:space="preserve">
<g id="bulb_x5F_saver">
</g>
<g id="flash">
</g>
<g id="coal">
</g>
<g id="diode">
</g>
<g id="battery">
</g>
<g id="battery_x5F_charge">
</g>
<g id="accumulator">
</g>
<g id="socket">
</g>
<g id="power_x5F_plant">
</g>
<g id="barrel">
	<path d="M28,3V0H4v3h1v7l-1,0v2h1v8l-1,0v2h1v7H4v3h24v-3h-1v-6l-6-1h6v0h1v-2h-1v-7l-5.9-1H28v-2h-1V4l-6-1h6H28z M16,19.8
		c-1.7,0-3-1.1-3-2.5c0-1.8,3-5.5,3-5.5s3,3.6,3,5.5C19,18.7,17.7,19.8,16,19.8z"/>
</g>
<g id="Layer_11">
</g>
<g id="gasoline_x5F_station">
</g>
<g id="plug">
</g>
<g id="bulb">
</g>
<g id="sun">
</g>
<g id="transmission">
</g>
<g id="nuclear">
</g>
<g id="oil_x5F_pump">
</g>
<g id="generator">
</g>
<g id="electricity">
</g>
</svg>
