<?xml version="1.0" encoding="utf-8"?>
<!-- Generator: Adobe Illustrator 21.0.0, SVG Export Plug-In . SVG Version: 6.00 Build 0)  -->
<svg version="1.1" xmlns="http://www.w3.org/2000/svg" xmlns:xlink="http://www.w3.org/1999/xlink" x="0px" y="0px"
	 viewBox="0 0 32 32" style="enable-background:new 0 0 32 32;" xml:space="preserve">
<g id="bulb_x5F_saver">
</g>
<g id="flash">
</g>
<g id="coal">
</g>
<g id="diode">
</g>
<g id="battery">
</g>
<g id="battery_x5F_charge">
	<g>
		<rect x="9" width="8" height="3"/>
		<path d="M28,24c0-3.7-2.6-6.8-6-7.7V5.6L20.4,4H5.6L4,5.6v24.8L5.6,32h14.8l0,0C24.6,31.7,28,28.3,28,24z M10,10h2V8h2v2h2v2h-2v2
			h-2v-2h-2V10z M10,24h2c0,0.7,0.1,1.4,0.3,2H10V24z M20,30c-3.3,0-6-2.7-6-6s2.7-6,6-6s6,2.7,6,6S23.3,30,20,30z"/>
		<polygon points="21,19 17,25 20,25 19,29 23,23 20,23 		"/>
	</g>
</g>
<g id="accumulator">
</g>
<g id="socket">
</g>
<g id="power_x5F_plant">
</g>
<g id="barrel">
</g>
<g id="Layer_11">
</g>
<g id="gasoline_x5F_station">
</g>
<g id="plug">
</g>
<g id="bulb">
</g>
<g id="sun">
</g>
<g id="transmission">
</g>
<g id="nuclear">
</g>
<g id="oil_x5F_pump">
</g>
<g id="generator">
</g>
<g id="electricity">
</g>
</svg>
