<?xml version="1.0" encoding="utf-8"?>
<!-- Generator: Adobe Illustrator 21.0.0, SVG Export Plug-In . SVG Version: 6.00 Build 0)  -->
<svg version="1.1" xmlns="http://www.w3.org/2000/svg" xmlns:xlink="http://www.w3.org/1999/xlink" x="0px" y="0px"
	 viewBox="0 0 32 32" style="enable-background:new 0 0 32 32;" xml:space="preserve">
<g id="bulb_x5F_saver">
	<path d="M23.7,9.5C22.9,9,21.8,9,21,9.4l-10.8,5.4c-0.4,0.2-0.7,0-0.8,0C9.3,14.7,9,14.5,9,14.1c0-0.3,0.2-0.6,0.4-0.7l14-7
		C24.4,5.9,25,5,25,3.9c0-1-0.5-1.9-1.3-2.4C22.8,1,21.8,1,21,1.4L10.1,6.8c-0.4,0.2-0.7,0-0.8,0S9,6.5,9,6.1c0-0.3,0.2-0.6,0.4-0.7
		l7-3.5c0.5-0.2,0.7-0.8,0.4-1.3c-0.2-0.5-0.8-0.7-1.3-0.4l-7,3.5C7.6,4.1,7,5,7,6.1c0,1,0.5,1.9,1.3,2.4C9.1,9,10.2,9,11,8.6
		l10.8-5.4c0.4-0.2,0.7,0,0.8,0C22.7,3.3,23,3.5,23,3.9c0,0.3-0.2,0.6-0.4,0.7l-14,7C7.6,12.1,7,13,7,14.1c0,1,0.5,1.9,1.3,2.4
		C9.1,17,10.2,17,11,16.6l0.8-0.4l0.9,0.9c0.2,0.2,0.3,0.4,0.3,0.7V20h-3l0,2.2l0.2,0.3c1.2,1.8,1.8,3.9,1.8,6v0.8l1,1V32h6v-1.6
		l1-1v-0.8c0-2.2,0.6-4.3,1.8-6.1l0.2-0.3V20h-3v-2.8c0-0.4,0.2-0.7,0.6-0.9l3.9-2c1-0.5,1.5-1.4,1.5-2.5C25,10.9,24.5,10,23.7,9.5z
		 M22.6,12.6l-3.9,2c-1,0.5-1.7,1.5-1.7,2.7V20h-2v-2.2c0-0.8-0.3-1.6-0.9-2.1l-0.4-0.4l8.2-4.1c0.4-0.2,0.7,0,0.8,0
		c0.1,0.1,0.4,0.3,0.4,0.7C23,12.2,22.8,12.5,22.6,12.6z"/>
</g>
<g id="flash">
</g>
<g id="coal">
</g>
<g id="diode">
</g>
<g id="battery">
</g>
<g id="battery_x5F_charge">
</g>
<g id="accumulator">
</g>
<g id="socket">
</g>
<g id="power_x5F_plant">
</g>
<g id="barrel">
</g>
<g id="Layer_11">
</g>
<g id="gasoline_x5F_station">
</g>
<g id="plug">
</g>
<g id="bulb">
</g>
<g id="sun">
</g>
<g id="transmission">
</g>
<g id="nuclear">
</g>
<g id="oil_x5F_pump">
</g>
<g id="generator">
</g>
<g id="electricity">
</g>
</svg>
