<?xml version="1.0" encoding="utf-8"?>
<!-- Generator: Adobe Illustrator 21.0.0, SVG Export Plug-In . SVG Version: 6.00 Build 0)  -->
<svg version="1.1" xmlns="http://www.w3.org/2000/svg" xmlns:xlink="http://www.w3.org/1999/xlink" x="0px" y="0px"
	 viewBox="0 0 32 32" style="enable-background:new 0 0 32 32;" xml:space="preserve">
<g id="bulb_x5F_saver">
</g>
<g id="flash">
</g>
<g id="coal">
</g>
<g id="diode">
</g>
<g id="battery">
</g>
<g id="battery_x5F_charge">
</g>
<g id="accumulator">
</g>
<g id="socket">
</g>
<g id="power_x5F_plant">
</g>
<g id="barrel">
</g>
<g id="Layer_11">
</g>
<g id="gasoline_x5F_station">
</g>
<g id="plug">
</g>
<g id="bulb">
	<path d="M23,2.8c-2-1.9-4.5-2.9-7.3-2.8C10.5,0.2,6.2,4.5,6,9.7c-0.1,3.3,1.4,6.4,4,8.3c1.3,0.9,2,2.3,2,3.8V22h-1v6.4
		c0,0.7,0.4,1.4,1.1,1.8l0.9,0.5V32h6v-1.3l0.9-0.5c0.7-0.3,1.1-1,1.1-1.8V22h-1v-0.2c0-1.5,0.7-2.9,2-3.8c2.5-1.9,4-4.8,4-8
		C26,7.3,24.9,4.7,23,2.8z M20.8,16.4C19,17.7,18,19.7,18,21.8V22h-1v-8.6l0.4-0.4l2-2L18,9.6l-2,2l-2-2L12.6,11l2.4,2.4V22h-1v-0.2
		c0-2.1-1-4.1-2.8-5.4c-2.1-1.6-3.3-4-3.2-6.7c0.1-4.1,3.6-7.6,7.8-7.7c2.2-0.1,4.2,0.7,5.8,2.3C23.1,5.8,24,7.8,24,10
		C24,12.5,22.8,14.9,20.8,16.4z"/>
</g>
<g id="sun">
</g>
<g id="transmission">
</g>
<g id="nuclear">
</g>
<g id="oil_x5F_pump">
</g>
<g id="generator">
</g>
<g id="electricity">
</g>
</svg>
