<?xml version="1.0" encoding="utf-8"?>
<!-- Generator: Adobe Illustrator 21.0.0, SVG Export Plug-In . SVG Version: 6.00 Build 0)  -->
<svg version="1.1" xmlns="http://www.w3.org/2000/svg" xmlns:xlink="http://www.w3.org/1999/xlink" x="0px" y="0px"
	 viewBox="0 0 32 32" style="enable-background:new 0 0 32 32;" xml:space="preserve">
<g id="bulb_x5F_saver">
</g>
<g id="flash">
</g>
<g id="coal">
	<g>
		<path d="M0,12v4h1c0.6,0,1,0.4,1,1v0c0,3.4,0.7,6.8,1.9,10l0.4,1l1.9,0C6.1,27.7,6,27.4,6,27c0-1.7,1.3-3,3-3c0.2,0,0.3,0,0.5,0.1
			h0C8.1,24.3,7,25.5,7,27c0,1.7,1.3,3,3,3c1.3,0,2.4-0.8,2.8-2h5.4c-0.1-0.3-0.2-0.6-0.2-1c0-1.7,1.3-3,3-3c0.2,0,0.3,0,0.5,0.1h0
			C20.1,24.3,19,25.5,19,27c0,1.7,1.3,3,3,3c1.3,0,2.4-0.8,2.8-2h2.9l0.4-1c1.3-3.2,1.9-6.6,1.9-10v0c0,0,0-0.1,0-0.1L22,16h9v0
			c0,0,0,0,0,0h1v-4L0,12z M10,28c-0.6,0-1-0.4-1-1s0.4-1,1-1s1,0.4,1,1S10.6,28,10,28z M23,27c0,0.6-0.4,1-1,1s-1-0.4-1-1
			s0.4-1,1-1S23,26.4,23,27z"/>
		<polygon points="25,5 22,6 19,2 16,5 13,3 10,7 6,6 2,11 30,11 		"/>
	</g>
</g>
<g id="diode">
</g>
<g id="battery">
</g>
<g id="battery_x5F_charge">
</g>
<g id="accumulator">
</g>
<g id="socket">
</g>
<g id="power_x5F_plant">
</g>
<g id="barrel">
</g>
<g id="Layer_11">
</g>
<g id="gasoline_x5F_station">
</g>
<g id="plug">
</g>
<g id="bulb">
</g>
<g id="sun">
</g>
<g id="transmission">
</g>
<g id="nuclear">
</g>
<g id="oil_x5F_pump">
</g>
<g id="generator">
</g>
<g id="electricity">
</g>
</svg>
