<?xml version="1.0" encoding="utf-8"?>
<!-- Generator: Adobe Illustrator 21.0.0, SVG Export Plug-In . SVG Version: 6.00 Build 0)  -->
<svg version="1.1" xmlns="http://www.w3.org/2000/svg" xmlns:xlink="http://www.w3.org/1999/xlink" x="0px" y="0px"
	 viewBox="0 0 32 32" style="enable-background:new 0 0 32 32;" xml:space="preserve">
<g id="bulb_x5F_saver">
</g>
<g id="flash">
</g>
<g id="coal">
</g>
<g id="diode">
</g>
<g id="battery">
</g>
<g id="battery_x5F_charge">
</g>
<g id="accumulator">
</g>
<g id="socket">
</g>
<g id="power_x5F_plant">
</g>
<g id="barrel">
</g>
<g id="Layer_11">
</g>
<g id="gasoline_x5F_station">
</g>
<g id="plug">
</g>
<g id="bulb">
</g>
<g id="sun">
</g>
<g id="transmission">
</g>
<g id="nuclear">
</g>
<g id="oil_x5F_pump">
</g>
<g id="generator">
</g>
<g id="electricity">
	<g>
		<polygon points="15,6 15,12 20.3,8 22,8 22,6 19.7,6 17,8 17,2 11.7,6 10,6 10,8 12.3,8 		"/>
		<path d="M30.4,26H29c0-3.4-0.3-6.8-0.8-10.1L27.8,14H27v-3h-1V8.7c0.6-0.3,1-1,1-1.7c0-1.1-0.9-2-2-2s-2,0.9-2,2
			c0,0.7,0.4,1.4,1,1.7V11h-1v3H9v-3H8V8.7c0.6-0.3,1-1,1-1.7c0-1.1-0.9-2-2-2S5,5.9,5,7c0,0.7,0.4,1.4,1,1.7V11H5v3H4.2l-0.3,1.9
			C3.3,19.2,3,22.6,3,26H1.6L0,27.6V30h32v-2.4L30.4,26z M12,28c-0.6,0-1-0.4-1-1s0.4-1,1-1s1,0.4,1,1S12.6,28,12,28z M16,28
			c-0.6,0-1-0.4-1-1s0.4-1,1-1s1,0.4,1,1S16.6,28,16,28z M20,28c-0.6,0-1-0.4-1-1s0.4-1,1-1s1,0.4,1,1S20.6,28,20,28z M17.2,23
			l0.8-4l-2.5,4H10c0-3.3,2.7-6,6-6s6,2.7,6,6H17.2z"/>
	</g>
</g>
</svg>
