<?xml version="1.0" encoding="utf-8"?>
<!-- Generator: Adobe Illustrator 21.0.0, SVG Export Plug-In . SVG Version: 6.00 Build 0)  -->
<svg version="1.1" xmlns="http://www.w3.org/2000/svg" xmlns:xlink="http://www.w3.org/1999/xlink" x="0px" y="0px"
	 viewBox="0 0 32 32" style="enable-background:new 0 0 32 32;" xml:space="preserve">
<g id="bulb_x5F_saver">
</g>
<g id="flash">
</g>
<g id="coal">
</g>
<g id="diode">
</g>
<g id="battery">
</g>
<g id="battery_x5F_charge">
</g>
<g id="accumulator">
</g>
<g id="socket">
</g>
<g id="power_x5F_plant">
</g>
<g id="barrel">
</g>
<g id="Layer_11">
</g>
<g id="gasoline_x5F_station">
	<g>
		<circle cx="13" cy="8" r="1"/>
		<circle cx="10" cy="8" r="1"/>
		<circle cx="16" cy="8" r="1"/>
		<path d="M27,6.6L25.6,8l2.3,2.3c-0.5,0.4-0.9,1-0.9,1.7c0,1.1,0.9,2,2,2v12c0,0.6-0.4,1-1,1s-1-0.4-1-1V16c0-1.7-1.3-3-3-3h-1V2.6
			L20.4,0H5.6L3,2.6V29H1v3h2h20h2v-3h-2V15h1c0.6,0,1,0.4,1,1v10c0,1.7,1.3,3,3,3s3-1.3,3-3V10.6L27,6.6z M13,24
			c-1.1,0-2-0.9-2-1.9c0-1.4,2-4.1,2-4.1s2,2.7,2,4.1C15,23.1,14.1,24,13,24z M19,12H7V4h12V12z"/>
	</g>
</g>
<g id="plug">
</g>
<g id="bulb">
</g>
<g id="sun">
</g>
<g id="transmission">
</g>
<g id="nuclear">
</g>
<g id="oil_x5F_pump">
</g>
<g id="generator">
</g>
<g id="electricity">
</g>
</svg>
