<?xml version="1.0" encoding="utf-8"?>
<!-- Generator: Adobe Illustrator 21.0.0, SVG Export Plug-In . SVG Version: 6.00 Build 0)  -->
<svg version="1.1" xmlns="http://www.w3.org/2000/svg" xmlns:xlink="http://www.w3.org/1999/xlink" x="0px" y="0px"
	 viewBox="0 0 32 32" style="enable-background:new 0 0 32 32;" xml:space="preserve">
<g id="bulb_x5F_saver">
</g>
<g id="flash">
</g>
<g id="coal">
</g>
<g id="diode">
</g>
<g id="battery">
</g>
<g id="battery_x5F_charge">
</g>
<g id="accumulator">
</g>
<g id="socket">
</g>
<g id="power_x5F_plant">
</g>
<g id="barrel">
</g>
<g id="Layer_11">
</g>
<g id="gasoline_x5F_station">
</g>
<g id="plug">
</g>
<g id="bulb">
</g>
<g id="sun">
</g>
<g id="transmission">
</g>
<g id="nuclear">
</g>
<g id="oil_x5F_pump">
</g>
<g id="generator">
	<g>
		<path d="M14.7,17h-3.4l-5,13H4v2h3.7l0.2-0.4L13,27l5.2,4.6l0.2,0.4H22v-2h-2.3L14.7,17z M12.7,19h0.6l1.4,3.8L13,24.3l-1.8-1.6
			L12.7,19z M9.4,27.5l1.1-2.8l1,0.9L9.4,27.5z M14.5,25.7l1-0.9l1.1,2.8L14.5,25.7z"/>
		<circle cx="13" cy="8" r="2"/>
		<polygon points="22,6 22,10 28,11 28,5 		"/>
		<polygon points="21,6 16,7 16,9 21,10 		"/>
		<polygon points="10,7 5,6 5,10 10,9 		"/>
		<polygon points="14,11 12,11 11,16 15,16 		"/>
		<polygon points="14,5 15,0 11,0 12,5 		"/>
		<polygon points="20.1,12.2 15.8,9.4 14.4,10.8 17.2,15.1 		"/>
		<polygon points="11.6,5.2 8.8,0.9 5.9,3.8 10.2,6.6 		"/>
		<polygon points="5.9,12.2 8.8,15.1 11.6,10.8 10.2,9.4 		"/>
		<polygon points="15.8,6.6 20.1,3.8 17.2,0.9 14.4,5.2 		"/>
	</g>
</g>
<g id="electricity">
</g>
</svg>
