<?xml version="1.0" encoding="utf-8"?>
<!-- Generator: Adobe Illustrator 21.0.0, SVG Export Plug-In . SVG Version: 6.00 Build 0)  -->
<svg version="1.1" xmlns="http://www.w3.org/2000/svg" xmlns:xlink="http://www.w3.org/1999/xlink" x="0px" y="0px"
	 viewBox="0 0 32 32" style="enable-background:new 0 0 32 32;" xml:space="preserve">
<g id="bulb_x5F_saver">
</g>
<g id="flash">
</g>
<g id="coal">
</g>
<g id="diode">
</g>
<g id="battery">
</g>
<g id="battery_x5F_charge">
</g>
<g id="accumulator">
</g>
<g id="socket">
</g>
<g id="power_x5F_plant">
</g>
<g id="barrel">
</g>
<g id="Layer_11">
</g>
<g id="gasoline_x5F_station">
</g>
<g id="plug">
</g>
<g id="bulb">
</g>
<g id="sun">
</g>
<g id="transmission">
</g>
<g id="nuclear">
	<g>
		<circle cx="16" cy="16" r="2"/>
		<path d="M16,0C7.2,0,0,7.2,0,16s7.2,16,16,16s16-7.2,16-16S24.8,0,16,0z M16,30C8.3,30,2,23.7,2,16S8.3,2,16,2s14,6.3,14,14
			S23.7,30,16,30z"/>
		<path d="M22,5.6l-4,7c1.2,0.7,2,2,2,3.5h8C28,11.5,25.6,7.6,22,5.6z"/>
		<path d="M14,12.5l-4-7c-3.6,2.1-6,6-6,10.4h8C12,14.5,12.8,13.2,14,12.5z"/>
		<path d="M16,20c-0.7,0-1.4-0.2-2-0.6l-4,6.9c1.8,1,3.8,1.6,6,1.6s4.3-0.6,6-1.6l-4-6.9C17.4,19.8,16.7,20,16,20z"/>
	</g>
</g>
<g id="oil_x5F_pump">
</g>
<g id="generator">
</g>
<g id="electricity">
</g>
</svg>
