<?xml version="1.0" encoding="utf-8"?>
<!-- Generator: Adobe Illustrator 21.0.0, SVG Export Plug-In . SVG Version: 6.00 Build 0)  -->
<svg version="1.1" xmlns="http://www.w3.org/2000/svg" xmlns:xlink="http://www.w3.org/1999/xlink" x="0px" y="0px"
	 viewBox="0 0 32 32" style="enable-background:new 0 0 32 32;" xml:space="preserve">
<g id="bulb_x5F_saver">
</g>
<g id="flash">
</g>
<g id="coal">
</g>
<g id="diode">
</g>
<g id="battery">
</g>
<g id="battery_x5F_charge">
</g>
<g id="accumulator">
</g>
<g id="socket">
</g>
<g id="power_x5F_plant">
</g>
<g id="barrel">
</g>
<g id="Layer_11">
</g>
<g id="gasoline_x5F_station">
</g>
<g id="plug">
</g>
<g id="bulb">
</g>
<g id="sun">
</g>
<g id="transmission">
</g>
<g id="nuclear">
</g>
<g id="oil_x5F_pump">
	<g>
		<path d="M14,4v1h1h1h1h1V4c0-0.6,0.4-1,1-1h1V1h-1c-0.8,0-1.5,0.3-2,0.8V0h-2v1.8C14.5,1.3,13.8,1,13,1h-1v2h1C13.6,3,14,3.4,14,4
			z"/>
		<path d="M25.4,28h-0.6L21,4.8l-2,0.3l0,0.3L17,7.1V6h-2v1.1l-2.1-1.6l0-0.3l-2-0.3L7.2,28H6.6L5,29.6V32h22v-2.4L25.4,28z
			 M11.4,14.5l2.7,1.7l-3.3,2.1L11.4,14.5z M15,21.7L11.9,20l3.1-2V21.7z M17,18l3.1,2L17,21.7V18z M15,28h-5l5-2.8V28z M17,25.2
			l5,2.8h-5V25.2z M18,23.4l3.7-2.1l0.8,4.7L18,23.4z M21.2,18.3l-3.3-2.1l2.7-1.7L21.2,18.3z M17,14.4v-3.2l2.3,1.8L17,14.4z
			 M15,14.4l-2.3-1.4l2.3-1.8V14.4z M10.3,21.3l3.7,2.1L9.5,26L10.3,21.3z M20,10.9l-2.3-1.8l1.8-1.4L20,10.9z M14.4,9.1L12,10.9
			l0.5-3.2L14.4,9.1z"/>
	</g>
</g>
<g id="generator">
</g>
<g id="electricity">
</g>
</svg>
