<?xml version="1.0" encoding="utf-8"?>
<!-- Generator: Adobe Illustrator 21.0.0, SVG Export Plug-In . SVG Version: 6.00 Build 0)  -->
<svg version="1.1" xmlns="http://www.w3.org/2000/svg" xmlns:xlink="http://www.w3.org/1999/xlink" x="0px" y="0px"
	 viewBox="0 0 32 32" style="enable-background:new 0 0 32 32;" xml:space="preserve">
<g id="bulb_x5F_saver">
</g>
<g id="flash">
</g>
<g id="coal">
</g>
<g id="diode">
</g>
<g id="battery">
</g>
<g id="battery_x5F_charge">
</g>
<g id="accumulator">
</g>
<g id="socket">
</g>
<g id="power_x5F_plant">
</g>
<g id="barrel">
</g>
<g id="Layer_11">
</g>
<g id="gasoline_x5F_station">
</g>
<g id="plug">
	<g>
		<path d="M20,15h-2v3h-4v-3h-2v3h-2v2.4l1.6,1.6H12v3.4l1.6,1.6H15c0,1.7-1.3,3-3,3s-3-1.3-3-3s-1.3-3-3-3H5v2h1c0.6,0,1,0.4,1,1
			c0,2.8,2.2,5,5,5s5-2.2,5-5h1.4l1.6-1.6V22h0.4l1.6-1.6V18h-2V15z"/>
		<path d="M26,6c-0.6,0-1-0.4-1-1c0-2.8-2.2-5-5-5s-5,2.2-5,5h-1.4L12,6.6V10h-0.4L10,11.6V14h12v-2.4L20.4,10H20V6.6L18.4,5H17
			c0-1.7,1.3-3,3-3s3,1.3,3,3s1.3,3,3,3h1V6H26z"/>
	</g>
</g>
<g id="bulb">
</g>
<g id="sun">
</g>
<g id="transmission">
</g>
<g id="nuclear">
</g>
<g id="oil_x5F_pump">
</g>
<g id="generator">
</g>
<g id="electricity">
</g>
</svg>
