<?xml version="1.0" encoding="utf-8"?>
<!-- Generator: Adobe Illustrator 21.0.0, SVG Export Plug-In . SVG Version: 6.00 Build 0)  -->
<svg version="1.1" xmlns="http://www.w3.org/2000/svg" xmlns:xlink="http://www.w3.org/1999/xlink" x="0px" y="0px"
	 viewBox="0 0 32 32" style="enable-background:new 0 0 32 32;" xml:space="preserve">
<g id="bulb_x5F_saver">
</g>
<g id="flash">
</g>
<g id="coal">
</g>
<g id="diode">
</g>
<g id="battery">
</g>
<g id="battery_x5F_charge">
</g>
<g id="accumulator">
</g>
<g id="socket">
</g>
<g id="power_x5F_plant">
	<g>
		<path d="M31,30l-1-3.6c-1.1-3.7-1.8-7.5-1.9-11.4h-7.7c0.4,4.2,1,8.4,2.1,12.5L23,30h-2l-0.6-2.5C19,21.7,18.2,15.9,18,10H4
			C3.8,15.9,3,21.7,1.6,27.5L1,29.8L1,30H0v2h1h20h2h8h1v-2H31z"/>
		<path d="M18,8V7H4v1c0,0.3,0,0.7,0,1h14C18,8.7,18,8.3,18,8z"/>
		<rect x="10" width="2" height="6"/>
		<rect x="13" y="2" width="2" height="4"/>
		<rect x="7" y="2" width="2" height="4"/>
		<rect x="21" y="6" width="2" height="5"/>
		<rect x="24" y="8" width="2" height="3"/>
		<path d="M28,14c0-0.3,0-0.7,0-1v-1h-7.9c0,0.7,0.1,1.3,0.1,2H28z"/>
	</g>
</g>
<g id="barrel">
</g>
<g id="Layer_11">
</g>
<g id="gasoline_x5F_station">
</g>
<g id="plug">
</g>
<g id="bulb">
</g>
<g id="sun">
</g>
<g id="transmission">
</g>
<g id="nuclear">
</g>
<g id="oil_x5F_pump">
</g>
<g id="generator">
</g>
<g id="electricity">
</g>
</svg>
