<?xml version="1.0" encoding="utf-8"?>
<!-- Generator: Adobe Illustrator 21.0.0, SVG Export Plug-In . SVG Version: 6.00 Build 0)  -->
<svg version="1.1" xmlns="http://www.w3.org/2000/svg" xmlns:xlink="http://www.w3.org/1999/xlink" x="0px" y="0px"
	 viewBox="0 0 32 32" style="enable-background:new 0 0 32 32;" xml:space="preserve">
<g id="bulb_x5F_saver">
</g>
<g id="flash">
</g>
<g id="coal">
</g>
<g id="diode">
</g>
<g id="battery">
</g>
<g id="battery_x5F_charge">
</g>
<g id="accumulator">
</g>
<g id="socket">
	<g>
		<path d="M30,0H2C1.2,0.8,0.8,1.2,0,2v28c0.8,0.8,1.2,1.2,2,2h28c0.8-0.8,1.2-1.2,2-2V2C31.2,1.2,30.8,0.8,30,0z M17,25.9V24h-2
			v1.9c-5.1-0.5-9-4.8-9-9.9c0-5.2,3.9-9.4,9-9.9V8h2V6.1c5.1,0.5,9,4.8,9,9.9C26,21.2,22.1,25.4,17,25.9z"/>
		<circle cx="16" cy="16" r="1"/>
		<circle cx="11" cy="16" r="2"/>
		<circle cx="21" cy="16" r="2"/>
	</g>
</g>
<g id="power_x5F_plant">
</g>
<g id="barrel">
</g>
<g id="Layer_11">
</g>
<g id="gasoline_x5F_station">
</g>
<g id="plug">
</g>
<g id="bulb">
</g>
<g id="sun">
</g>
<g id="transmission">
</g>
<g id="nuclear">
</g>
<g id="oil_x5F_pump">
</g>
<g id="generator">
</g>
<g id="electricity">
</g>
</svg>
