<?xml version="1.0" encoding="utf-8"?>
<!-- Generator: Adobe Illustrator 21.0.0, SVG Export Plug-In . SVG Version: 6.00 Build 0)  -->
<svg version="1.1" xmlns="http://www.w3.org/2000/svg" xmlns:xlink="http://www.w3.org/1999/xlink" x="0px" y="0px"
	 viewBox="0 0 32 32" style="enable-background:new 0 0 32 32;" xml:space="preserve">
<g id="bulb_x5F_saver">
</g>
<g id="flash">
</g>
<g id="coal">
</g>
<g id="diode">
</g>
<g id="battery">
</g>
<g id="battery_x5F_charge">
</g>
<g id="accumulator">
</g>
<g id="socket">
</g>
<g id="power_x5F_plant">
</g>
<g id="barrel">
</g>
<g id="Layer_11">
</g>
<g id="gasoline_x5F_station">
</g>
<g id="plug">
</g>
<g id="bulb">
</g>
<g id="sun">
	<path d="M24.6,18.7C24.9,17.9,25,17,25,16h7l-6.7-3c-0.5-0.2-1-0.6-1.3-1.2c-0.4-0.8-1-1.5-1.6-2.2l4.9-4.9l-6.9,2.7
		c-0.5,0.2-1.1,0.2-1.6,0.1C17.9,7.1,17,7,16,7V0l-3,6.7c-0.2,0.5-0.6,1-1.2,1.3C11,8.5,10.3,9,9.6,9.6L4.7,4.7l2.7,6.9
		c0.2,0.5,0.2,1.1,0.1,1.6C7.1,14.1,7,15,7,16H0l6.7,3c0.5,0.2,1,0.6,1.3,1.2c0.4,0.8,1,1.5,1.6,2.2l-4.9,4.9l6.9-2.7
		c0.5-0.2,1.1-0.2,1.6-0.1C14.1,24.9,15,25,16,25v7l3-6.7c0.2-0.5,0.6-1,1.2-1.3c0.8-0.4,1.5-1,2.2-1.6l4.9,4.9l-2.7-6.9
		C24.4,19.8,24.4,19.3,24.6,18.7z M15,22l1-5h-3l4-7l-1,5h3L15,22z"/>
</g>
<g id="transmission">
</g>
<g id="nuclear">
</g>
<g id="oil_x5F_pump">
</g>
<g id="generator">
</g>
<g id="electricity">
</g>
</svg>
