<?xml version="1.0" encoding="utf-8"?>
<!-- Generator: Adobe Illustrator 21.0.0, SVG Export Plug-In . SVG Version: 6.00 Build 0)  -->
<svg version="1.1" xmlns="http://www.w3.org/2000/svg" xmlns:xlink="http://www.w3.org/1999/xlink" x="0px" y="0px"
	 viewBox="0 0 32 32" style="enable-background:new 0 0 32 32;" xml:space="preserve">
<g id="bulb_x5F_saver">
</g>
<g id="flash">
</g>
<g id="coal">
</g>
<g id="diode">
</g>
<g id="battery">
</g>
<g id="battery_x5F_charge">
</g>
<g id="accumulator">
</g>
<g id="socket">
</g>
<g id="power_x5F_plant">
</g>
<g id="barrel">
</g>
<g id="Layer_11">
</g>
<g id="gasoline_x5F_station">
</g>
<g id="plug">
</g>
<g id="bulb">
</g>
<g id="sun">
</g>
<g id="transmission">
	<g>
		<path d="M19.2,0h-6.3L3,3.3V6h8.5L9.1,28H7.6L6,29.6V32h20v-2.4L24.4,28h-1.5L20.5,6H29V3.3L19.2,0z M13.2,8.5l1.3,1.1l-1.5,1.3
			L13.2,8.5z M16,10.9l2.4,2.1L16,14.8L13.6,13L16,10.9z M12.5,14.7l1.8,1.4l-2.2,1.7L12.5,14.7z M16,17.4l3.4,2.6L16,22.7L12.6,20
			L16,17.4z M14.4,24l-3.1,2.5l0.5-4.6L14.4,24z M12.6,28l3.4-2.7l3.4,2.7H12.6z M17.6,24l2.6-2.1l0.5,4.6L17.6,24z M17.6,16.1
			l1.8-1.4l0.3,3.1L17.6,16.1z M19.1,10.9l-1.5-1.3l1.3-1.1L19.1,10.9z M16,8.3l-2.5-2.2l0-0.1h5.1l0,0.1L16,8.3z M13.7,4l0.2-2h4.2
			l0.2,2H13.7z M7.2,4l4.7-1.6L11.7,4H7.2z M20.3,4l-0.2-1.6L24.8,4H20.3z"/>
		<rect x="3" y="7" width="4" height="2"/>
		<rect x="25" y="7" width="4" height="2"/>
		<rect x="3" y="10" width="4" height="2"/>
		<rect x="25" y="10" width="4" height="2"/>
	</g>
</g>
<g id="nuclear">
</g>
<g id="oil_x5F_pump">
</g>
<g id="generator">
</g>
<g id="electricity">
</g>
</svg>
