<svg xmlns="http://www.w3.org/2000/svg" xmlns:xlink="http://www.w3.org/1999/xlink" viewBox="0 0 671.48 455.8"><defs><linearGradient id="Neues_Verlaufsfeld_1" x1="346.58" y1="277.2" x2="172.2" y2="183.87" gradientUnits="userSpaceOnUse"><stop offset="0" stop-color="#38a8a4"/><stop offset="1" stop-color="#e5357b"/></linearGradient><linearGradient id="Neues_Verlaufsfeld_1-2" x1="434.34" y1="299.2" x2="302.53" y2="89.6" xlink:href="#Neues_Verlaufsfeld_1"/><linearGradient id="Neues_Verlaufsfeld_1-3" x1="242.07" y1="283.3" x2="130.72" y2="282.48" xlink:href="#Neues_Verlaufsfeld_1"/></defs><g id="Ebene_2" data-name="Ebene 2"><g id="Layer_1" data-name="Layer 1"><g id="HOWRSEBOT"><path d="M53.33,380.09H70v74.22H53.33V422.82H25.27v31.49H8.57V380.09h16.7v28.38H53.33Z" transform="translate(-8.57)" style="fill:#38a8a4"/><path d="M157.86,417.14A45.65,45.65,0,0,1,155,433.9,34.53,34.53,0,0,1,147.26,446a31.91,31.91,0,0,1-11.73,7.33,42.7,42.7,0,0,1-14.62,2.46,41.57,41.57,0,0,1-14.35-2.46A32.87,32.87,0,0,1,94.78,446a34.33,34.33,0,0,1-7.93-12.11A45,45,0,0,1,84,417.14a43.48,43.48,0,0,1,3-16.76,35.54,35.54,0,0,1,8.09-12.15,33.06,33.06,0,0,1,11.78-7.39,40.46,40.46,0,0,1,14.08-2.46,41.57,41.57,0,0,1,14.35,2.46A32.55,32.55,0,0,1,147,388.23,34.77,34.77,0,0,1,155,400.38,45.09,45.09,0,0,1,157.86,417.14Zm-56.66,0a33.83,33.83,0,0,0,1.34,9.86,22.72,22.72,0,0,0,3.86,7.55,17.1,17.1,0,0,0,6.16,4.87,21.12,21.12,0,0,0,16.65,0,17,17,0,0,0,6.21-4.87,22.72,22.72,0,0,0,3.86-7.55,33.83,33.83,0,0,0,1.34-9.86,34.31,34.31,0,0,0-1.34-9.9,22.64,22.64,0,0,0-3.86-7.61,17,17,0,0,0-6.21-4.87,19.52,19.52,0,0,0-8.3-1.71,19,19,0,0,0-8.35,1.76,17.7,17.7,0,0,0-6.16,4.93,22.59,22.59,0,0,0-3.86,7.6A34,34,0,0,0,101.2,417.14Z" transform="translate(-8.57)" style="fill:#38a8a4"/><path d="M220.58,388q1.29,4.39,2.84,9.91t3.31,11.41q1.77,5.88,3.58,11.78T233.84,432c.93-3.64,1.89-7.6,2.85-11.89s1.89-8.71,2.75-13.28,1.7-9.12,2.53-13.65,1.59-8.91,2.31-13.12h17.35q-3.76,18.63-8.67,37.8t-10.61,36.42H227.07q-3.75-10.29-7.27-21.58t-7-22.65q-3.43,11.34-6.86,22.65t-7.18,21.58H183.54q-5.72-17.25-10.6-36.42t-8.66-37.8h18.1q1.08,6.32,2.37,13.12t2.69,13.65q1.4,6.86,2.85,13.28t3,11.89q1.94-5.25,3.76-11.14t3.54-11.78q1.71-5.88,3.16-11.35t2.63-9.75Z" transform="translate(-8.57)" style="fill:#38a8a4"/><path d="M294,379.23q16.69,0,25.59,5.95t8.89,18.47q0,7.82-3.59,12.69A23.62,23.62,0,0,1,314.54,424q2.25,2.79,4.71,6.37t4.87,7.5q2.42,3.9,4.66,8.14t4.18,8.3H314.28l-4.14-7.39c-1.39-2.5-2.83-4.93-4.3-7.29s-2.92-4.58-4.35-6.69-2.87-4-4.3-5.73h-8.25v27.1h-16.7V381.16a96.31,96.31,0,0,1,11.29-1.5C287.43,379.38,290.91,379.23,294,379.23Zm1,14.25c-1.21,0-2.3,0-3.27.1l-2.73.22v20.13h4.72q9.42,0,13.49-2.36t4.07-8c0-3.64-1.38-6.23-4.12-7.76S300.29,393.48,294.94,393.48Z" transform="translate(-8.57)" style="fill:#38a8a4"/><path d="M363.91,441.56a23.76,23.76,0,0,0,5.84-.59,10.9,10.9,0,0,0,3.69-1.6,5.44,5.44,0,0,0,1.93-2.41,8.57,8.57,0,0,0,.53-3.11,7.18,7.18,0,0,0-3.42-6.05q-3.44-2.42-11.78-5.19-3.65-1.29-7.29-2.95a27.06,27.06,0,0,1-6.53-4.18,19.79,19.79,0,0,1-4.71-6.1,19,19,0,0,1-1.82-8.73,21.52,21.52,0,0,1,1.93-9.26,19.7,19.7,0,0,1,5.46-7,24.78,24.78,0,0,1,8.57-4.44,38.23,38.23,0,0,1,11.35-1.55,46.32,46.32,0,0,1,13,1.6,45.72,45.72,0,0,1,9,3.54l-4.82,13.17a45.71,45.71,0,0,0-6.9-2.84,30,30,0,0,0-9.16-1.23q-6,0-8.62,1.66a5.61,5.61,0,0,0-2.63,5.09,5.8,5.8,0,0,0,1,3.42,9.29,9.29,0,0,0,2.73,2.52,23.39,23.39,0,0,0,4.07,2q2.29.92,5.09,1.88,5.78,2.14,10.06,4.23a26.86,26.86,0,0,1,7.12,4.87,17.54,17.54,0,0,1,4.23,6.53,26.24,26.24,0,0,1,1.4,9.11q0,10.38-7.29,16.12t-21.95,5.72a61.23,61.23,0,0,1-8.89-.58,58.74,58.74,0,0,1-7-1.45,40,40,0,0,1-5.25-1.82,39,39,0,0,1-3.7-1.82l4.71-13.28a40.31,40.31,0,0,0,20.14,4.71Z" transform="translate(-8.57)" style="fill:#38a8a4"/><path d="M406,454.31V380.09h50.12v14H422.7v14.56h29.67v13.71H422.7v17.89h35.88v14Z" transform="translate(-8.57)" style="fill:#38a8a4"/><path d="M495.63,455.27q-6.11,0-12.15-.38a85.69,85.69,0,0,1-12.59-1.76v-72a110.08,110.08,0,0,1,11.25-1.45q6.11-.48,11.35-.48a77.09,77.09,0,0,1,13,1,30.89,30.89,0,0,1,10.23,3.48,18.21,18.21,0,0,1,6.7,6.48,19,19,0,0,1,2.41,9.91q0,8.88-8.57,14,7.07,2.69,9.64,7.29a21,21,0,0,1,2.57,10.39q0,11.67-8.52,17.56T495.63,455.27Zm-8.46-46h8.14q7.71,0,11-2a6.85,6.85,0,0,0,3.32-6.37q0-4.5-3.42-6.32c-2.29-1.22-5.64-1.82-10.07-1.82-1.43,0-3,0-4.61,0s-3.1.12-4.39.27Zm0,12.74v19.17c1.22.15,2.54.25,4,.32s3,.11,4.71.11q7.5,0,12.1-2.14t4.6-7.93c0-3.42-1.28-5.87-3.85-7.33s-6.25-2.2-11-2.2Z" transform="translate(-8.57)" style="fill:#38a8a4"/><path d="M613.55,417.14a45.65,45.65,0,0,1-2.84,16.76A34.41,34.41,0,0,1,602.94,446a31.79,31.79,0,0,1-11.72,7.33,42.7,42.7,0,0,1-14.62,2.46,41.57,41.57,0,0,1-14.35-2.46A32.87,32.87,0,0,1,550.47,446a34.33,34.33,0,0,1-7.93-12.11,44.81,44.81,0,0,1-2.89-16.76,43.48,43.48,0,0,1,3-16.76,35.66,35.66,0,0,1,8.08-12.15,33.1,33.1,0,0,1,11.79-7.39,40.46,40.46,0,0,1,14.08-2.46A41.57,41.57,0,0,1,591,380.84a32.55,32.55,0,0,1,11.78,7.39,34.75,34.75,0,0,1,7.92,12.15A44.88,44.88,0,0,1,613.55,417.14Zm-56.66,0a33.83,33.83,0,0,0,1.34,9.86,22.53,22.53,0,0,0,3.86,7.55,17.07,17.07,0,0,0,6.15,4.87,21.14,21.14,0,0,0,16.66,0,17,17,0,0,0,6.21-4.87A22.52,22.52,0,0,0,595,427a33.5,33.5,0,0,0,1.34-9.86,34,34,0,0,0-1.34-9.9,22.45,22.45,0,0,0-3.85-7.61,17,17,0,0,0-6.21-4.87,19.52,19.52,0,0,0-8.3-1.71,19,19,0,0,0-8.36,1.76,17.67,17.67,0,0,0-6.15,4.93,22.41,22.41,0,0,0-3.86,7.6A34,34,0,0,0,556.89,417.14Z" transform="translate(-8.57)" style="fill:#38a8a4"/><path d="M680.05,380.09v14.24H657.67v60H641v-60H618.58V380.09Z" transform="translate(-8.57)" style="fill:#38a8a4"/></g><path d="M244.41,116.24c-2.94-.17-5.93-.25-8.91-.25a186.37,186.37,0,0,0-53.31,8.26C143.94,146.2,100.75,186.6,90.87,259c0,0,12-25.5,55.29-37.65h0c61.23-15.08,150.44,9.88,199.77,58.75,1.72-17.62,8.27-33.84,22-46.08-.44-3.56-1.08-6.4-1.08-6.4C354.76,176,312.21,121.55,244.41,116.24Z" transform="translate(-8.57)" style="fill:url(#Neues_Verlaufsfeld_1)"/><path d="M540.15,243.43l-12.67-18.37S494.19,121.69,464.34,91.82c0,0-18.14-37.21,0-75.75,0,0-18.55,7-24.15,20.68,0,0-4.22-19.81,5.6-36.75,0,0-45.85,10.39-57.25,54,0,0-181.33-54-266.56,79.37,0,0,56-37.39,123.62-33.43h0c74.29,5.76,123.12,63.83,137.2,124,0,0,36.75,55.13,86.13,60.88,0,0,19.85,50,65.47,26.39C550.32,302.58,556.23,266.42,540.15,243.43Z" transform="translate(-8.57)" style="fill:url(#Neues_Verlaufsfeld_1-2)"/><path d="M184.89,233.35a146.3,146.3,0,0,0-34.56,3.84,104.8,104.8,0,0,0-21.07,8.37c-10,13.14-21.33,44.74-3.63,86.41a136,136,0,0,1,179.16-63.45C270.33,246.82,225.92,233.35,184.89,233.35Z" transform="translate(-8.57)" style="fill:url(#Neues_Verlaufsfeld_1-3)"/></g></g></svg>