<svg xmlns="http://www.w3.org/2000/svg" viewBox="0 0 64 64"><defs><style>.cls-1{isolation:isolate;}.cls-2{fill:#ebeef0;}.cls-2,.cls-3,.cls-4{stroke:#000;stroke-linecap:round;stroke-linejoin:round;stroke-width:2px;}.cls-3{fill:#aaabad;}.cls-4{fill:#c8b9a7;}.cls-5{opacity:0.25;}.cls-6{fill:#fff;opacity:0.69;mix-blend-mode:overlay;}</style></defs><title>Color</title><g class="cls-1"><g id="Color"><g id="_15" data-name="15"><path class="cls-2" d="M44,20.65V12.29H20v8.36A12,12,0,0,0,28.14,32,12,12,0,0,0,20,43.35v8.36H44V43.35A12,12,0,0,0,35.86,32,12,12,0,0,0,44,20.65Z"/><rect class="cls-3" x="16.89" y="7.11" width="30.22" height="7.03"/><path class="cls-4" d="M32,35.78h0a8.1,8.1,0,0,1,8.1,8.1V52a0,0,0,0,1,0,0H23.9a0,0,0,0,1,0,0v-8.1A8.1,8.1,0,0,1,32,35.78Z"/><rect class="cls-3" x="16.89" y="48.2" width="30.22" height="7.03"/><path class="cls-5" d="M44,20.65V14.14h3.11v-7H32V55.23H47.11v-7H44V43.35A12,12,0,0,0,35.86,32,12,12,0,0,0,44,20.65Z"/><rect class="cls-6" x="16.89" y="48.2" width="3.11" height="7.03"/><path class="cls-6" d="M23.11,43.35A12,12,0,0,1,31.25,32a12,12,0,0,1-8.14-11.35V14.14H20v-7H16.89v7H20v6.51A12,12,0,0,0,28.14,32,12,12,0,0,0,20,43.35V48.2h3.11Z"/></g></g></g></svg>