<svg xmlns="http://www.w3.org/2000/svg" viewBox="0 0 64 64"><defs><style>.cls-1{isolation:isolate;}.cls-2{fill:#bf9012;}.cls-2,.cls-3,.cls-4,.cls-6,.cls-7{stroke:#000;stroke-width:2px;}.cls-2,.cls-3,.cls-4,.cls-7{stroke-linecap:round;}.cls-2,.cls-3,.cls-4{stroke-linejoin:round;}.cls-3,.cls-7{fill:none;}.cls-4{fill:#fec018;}.cls-5{opacity:0.1;}.cls-6{fill:#fe330a;}.cls-6,.cls-7{stroke-miterlimit:10;}.cls-8{fill:#fff;opacity:0.42;mix-blend-mode:overlay;}</style></defs><title>Color</title><g class="cls-1"><g id="Color"><g id="_8" data-name="8"><circle class="cls-2" cx="31.68" cy="47.84" r="8.93"/><line class="cls-3" x1="31.68" y1="13.04" x2="31.68" y2="7.22"/><path class="cls-4" d="M31.28,13h0A14.43,14.43,0,0,1,45.71,27.47v23a0,0,0,0,1,0,0H16.86a0,0,0,0,1,0,0v-23A14.43,14.43,0,0,1,31.28,13Z"/><rect class="cls-4" x="12.56" y="41" width="37.44" height="9.48" rx="4.74"/><path class="cls-5" d="M45.49,41V27.45A14.42,14.42,0,0,0,31.45,13V56.76h0A8.93,8.93,0,0,0,40,50.46h5.5v0a4.73,4.73,0,0,0,4.29-4.7h0A4.72,4.72,0,0,0,45.49,41Z"/><circle class="cls-6" cx="48.13" cy="21.76" r="8.11"/><line class="cls-7" x1="48.13" y1="19" x2="48.13" y2="24.51"/><line class="cls-7" x1="45.38" y1="21.76" x2="50.88" y2="21.76"/><path class="cls-8" d="M27,50.47H22.7a8.94,8.94,0,0,0,10.68,6A9,9,0,0,1,27,50.47Z"/><path class="cls-8" d="M16.41,45.73h0A4.72,4.72,0,0,1,20.7,41V27.46A14.43,14.43,0,0,1,33,13.2,15.07,15.07,0,0,0,30.84,13,14.43,14.43,0,0,0,16.41,27.46V41a4.73,4.73,0,0,0-4.3,4.69h0a4.73,4.73,0,0,0,4.3,4.7v0H20.7v0A4.73,4.73,0,0,1,16.41,45.73Z"/></g></g></g></svg>