<svg id="Color" xmlns="http://www.w3.org/2000/svg" viewBox="0 0 64 64"><defs><style>.cls-1{fill:#ebeef0;}.cls-1,.cls-2,.cls-3,.cls-4{stroke:#000;stroke-linecap:round;stroke-width:2px;}.cls-1,.cls-2,.cls-3{stroke-linejoin:round;}.cls-2{fill:#23b14a;}.cls-3,.cls-4{fill:none;}.cls-4{stroke-miterlimit:10;}.cls-5{opacity:0.25;}.cls-6{opacity:0.26;}</style></defs><title>Color</title><g id="_9" data-name="9"><path class="cls-1" d="M51.26,54.56H13.5A3.48,3.48,0,0,1,10,51.07l0-39H54.8l0,39A3.48,3.48,0,0,1,51.26,54.56Z"/><polygon class="cls-2" points="54.75 23.81 10.01 23.81 10.06 12.1 54.8 12.1 54.75 23.81"/><line class="cls-3" x1="14.57" y1="9.44" x2="14.57" y2="14.77"/><line class="cls-3" x1="23.57" y1="9.44" x2="23.57" y2="14.77"/><line class="cls-3" x1="32.57" y1="9.44" x2="32.57" y2="14.77"/><line class="cls-3" x1="41.57" y1="9.44" x2="41.57" y2="14.77"/><line class="cls-3" x1="50.57" y1="9.44" x2="50.57" y2="14.77"/><line class="cls-4" x1="40.4" y1="30.79" x2="24.74" y2="46.45"/><line class="cls-4" x1="24.74" y1="30.79" x2="40.4" y2="46.45"/><path class="cls-5" d="M46.53,12.1v11A18.47,18.47,0,0,1,28.05,41.6H10.62v9.47a3.47,3.47,0,0,0,3.48,3.49H51.85a3.48,3.48,0,0,0,3.49-3.48l0-39Z"/><g class="cls-6"><path d="M55.39,12.19V12.1h0Z"/><path d="M49.67,19.31h-33a5.86,5.86,0,0,1-5.86-5.88A5.33,5.33,0,0,1,11,12.1h-.31L10.6,23.81H55.34l0-9A5.86,5.86,0,0,1,49.67,19.31Z"/></g></g></svg>