<svg xmlns="http://www.w3.org/2000/svg" viewBox="0 0 64 64"><defs><style>.cls-1{isolation:isolate;}.cls-2{fill:#2e58a6;}.cls-2,.cls-3,.cls-4{stroke:#000;stroke-miterlimit:10;stroke-width:2px;}.cls-3,.cls-6{fill:#fff;}.cls-4{fill:none;stroke-linecap:round;}.cls-5{opacity:0.25;}.cls-6{opacity:0.42;mix-blend-mode:overlay;}</style></defs><title>Color</title><g class="cls-1"><g id="Color"><g id="_17" data-name="17"><path class="cls-2" d="M32,6,9.18,15V31A30.24,30.24,0,0,0,32,60.32,30.24,30.24,0,0,0,54.82,31V15Z"/><circle class="cls-3" cx="32" cy="33.17" r="10.29"/><line class="cls-4" x1="32" y1="26.45" x2="32" y2="33.17"/><line class="cls-4" x1="28.54" y1="37.29" x2="32" y2="33.17"/><path class="cls-5" d="M32,6v54.3A30.24,30.24,0,0,0,54.82,31V15Z"/><path class="cls-6" d="M19.79,31V15L32,6,9.18,15V31A30.24,30.24,0,0,0,32,60.32C25,57,19.79,45.15,19.79,31Z"/><path class="cls-5" d="M44.54,10.94v15A30.23,30.23,0,0,1,21.71,55.2L21,55a30.13,30.13,0,0,0,11,5.31A30.24,30.24,0,0,0,54.82,31V15Z"/></g></g></g></svg>