<svg id="Color" xmlns="http://www.w3.org/2000/svg" viewBox="0 0 64 64"><defs><style>.cls-1{fill:#ebeef0;}.cls-1,.cls-2,.cls-3{stroke:#000;stroke-linecap:round;stroke-linejoin:round;stroke-width:2px;}.cls-2{fill:#4a88b8;}.cls-3{fill:none;}.cls-4{opacity:0.25;}.cls-5{opacity:0.26;}</style></defs><title>Color</title><g id="_20" data-name="20"><path class="cls-1" d="M50.86,54.37H13.1a3.49,3.49,0,0,1-3.49-3.49l.05-39H54.39l0,39A3.49,3.49,0,0,1,50.86,54.37Z"/><polygon class="cls-2" points="54.34 23.62 9.61 23.62 9.66 11.91 54.39 11.91 54.34 23.62"/><line class="cls-3" x1="14.16" y1="9.25" x2="14.16" y2="14.58"/><line class="cls-3" x1="23.16" y1="9.25" x2="23.16" y2="14.58"/><line class="cls-3" x1="32.17" y1="9.25" x2="32.17" y2="14.58"/><line class="cls-3" x1="41.17" y1="9.25" x2="41.17" y2="14.58"/><line class="cls-3" x1="50.17" y1="9.25" x2="50.17" y2="14.58"/><polyline class="cls-3" points="24.45 37.81 32 30.26 39.56 37.81"/><polyline class="cls-3" points="24.61 42.55 32.16 35 39.72 42.55"/><path class="cls-4" d="M46.08,11.91l0,11.05A18.47,18.47,0,0,1,27.59,41.41H10.16v9.47a3.48,3.48,0,0,0,3.48,3.49H51.4a3.48,3.48,0,0,0,3.48-3.48l0-39Z"/><g class="cls-5"><path d="M54.93,12v-.09h0Z"/><path d="M49.21,19.12h-33a5.86,5.86,0,0,1-5.86-5.88,6.46,6.46,0,0,1,.17-1.33h-.31l0,11.71H54.88l0-9A5.86,5.86,0,0,1,49.21,19.12Z"/></g></g></svg>