<svg xmlns="http://www.w3.org/2000/svg" viewBox="0 0 64 64"><defs><style>.cls-1{isolation:isolate;}.cls-2{fill:#756ffe;}.cls-2,.cls-5,.cls-6,.cls-7{stroke:#000;stroke-miterlimit:10;stroke-width:2px;}.cls-2,.cls-7{stroke-linecap:round;}.cls-3,.cls-6{fill:#fff;}.cls-3{opacity:0.42;mix-blend-mode:overlay;}.cls-4{opacity:0.15;}.cls-5{fill:#2e58a6;}.cls-7{fill:none;}</style></defs><title>Color</title><g class="cls-1"><g id="Color"><g id="_4" data-name="4"><polygon class="cls-2" points="22.45 8.84 18.12 33.17 22.45 57.5 41.55 57.5 45.88 33.17 41.55 8.84 22.45 8.84"/><polygon class="cls-3" points="41.55 8.84 38.98 8.84 43.31 33.17 38.98 57.5 41.55 57.5 45.88 33.17 41.55 8.84"/><polygon class="cls-4" points="32 8.84 22.45 8.84 18.12 33.17 22.45 57.5 32 57.5 32 8.84"/><circle class="cls-5" cx="32" cy="33.17" r="13.88"/><circle class="cls-6" cx="32" cy="33.17" r="10.67"/><line class="cls-7" x1="32" y1="25.68" x2="32" y2="33.17"/><line class="cls-7" x1="28.41" y1="37.44" x2="32" y2="33.17"/><circle cx="32" cy="33.17" r="1.72"/><path class="cls-4" d="M34.71,41.13a11.1,11.1,0,0,1-9.53-16.82A11.11,11.11,0,1,0,42,38.42,11.08,11.08,0,0,1,34.71,41.13Z"/></g></g></g></svg>