<svg xmlns="http://www.w3.org/2000/svg" viewBox="0 0 64 64"><defs><style>.cls-1{isolation:isolate;}.cls-2{fill:#102a59;}.cls-2,.cls-3{stroke:#000;stroke-miterlimit:10;stroke-width:2px;}.cls-3{fill:#cfd4de;}.cls-4{opacity:0.25;}.cls-5{fill:#fff;opacity:0.42;mix-blend-mode:overlay;}</style></defs><title>Color</title><g class="cls-1"><g id="Color"><g id="_13" data-name="13"><rect class="cls-2" x="8.54" y="18.5" width="46.26" height="30.37"/><rect class="cls-3" x="14.3" y="24.5" width="34.74" height="18.38"/><path d="M17.08,36.49H19V29.66H17v-1h3.27v7.83h1.72v1H17.08Z"/><path d="M23.75,36.49h1.92V29.66H23.62v-1H26.9v7.83h1.71v1H23.75Z"/><path d="M30.61,30.85a.85.85,0,0,1,.87-.8.82.82,0,0,1,.82.79.85.85,0,0,1-1.69,0Zm.86,5.7a.8.8,0,0,1-.82-.81.83.83,0,0,1,.82-.83.86.86,0,0,1,.83.85A.81.81,0,0,1,31.47,36.55Z"/><path d="M34.42,36.49h1.92V29.66H34.29v-1h3.27v7.83h1.72v1H34.42Z"/><path d="M45.66,36.41a2.21,2.21,0,0,1-2.14,1.21,2.38,2.38,0,0,1-2.11-1.25,6.79,6.79,0,0,1-.71-3.13c0-3.5,1.33-4.78,3-4.78a2.41,2.41,0,0,1,1.7.72c.81.88,1,2,1,3.66A7.12,7.12,0,0,1,45.66,36.41Zm-3.43-.83a1.41,1.41,0,0,0,1.39,1c1.35,0,1.59-2,1.59-3.74,0-2.57-.54-3.4-1.6-3.4-.8,0-1.34.66-1.53,1.65a11,11,0,0,0-.21,2.11A6.71,6.71,0,0,0,42.23,35.58Z"/><polyline class="cls-4" points="54.8 18.5 54.8 48.88 8.54 48.88"/><polyline class="cls-5" points="14.3 42.88 14.3 24.5 49.04 24.5"/></g></g></g></svg>