<svg xmlns="http://www.w3.org/2000/svg" viewBox="0 0 64 64"><defs><style>.cls-1{isolation:isolate;}.cls-2{fill:#727d3b;}.cls-2,.cls-5,.cls-6,.cls-7{stroke:#000;stroke-miterlimit:10;stroke-width:2px;}.cls-3,.cls-6{fill:#fff;}.cls-3{opacity:0.42;mix-blend-mode:overlay;}.cls-4{opacity:0.35;}.cls-5{fill:#98a64f;}.cls-7{fill:none;stroke-linecap:round;}.cls-8{opacity:0.15;}</style></defs><title>Color</title><g class="cls-1"><g id="Color"><g id="_12" data-name="12"><circle class="cls-2" cx="45.79" cy="19.84" r="11.82"/><circle class="cls-2" cx="18.21" cy="19.84" r="11.82"/><path class="cls-3" d="M18.21,8A11.81,11.81,0,0,0,12.15,9.7a12.6,12.6,0,0,1,2-.19,11.82,11.82,0,0,1,6.06,22A11.82,11.82,0,0,0,18.21,8Z"/><path class="cls-4" d="M25.12,26.79A11.81,11.81,0,0,1,15.3,8.4,11.82,11.82,0,1,0,28,26.41,11.68,11.68,0,0,1,25.12,26.79Z"/><path class="cls-3" d="M46,8.3A11.67,11.67,0,0,0,39.94,10a11.38,11.38,0,0,1,2-.19,11.81,11.81,0,0,1,6.06,22A11.82,11.82,0,0,0,46,8.3Z"/><path class="cls-4" d="M52.7,26.79A11.81,11.81,0,0,1,42.87,8.4a11.82,11.82,0,1,0,12.75,18A11.75,11.75,0,0,1,52.7,26.79Z"/><circle class="cls-5" cx="32.88" cy="35.22" r="22.93"/><path class="cls-4" d="M41.42,50.14A22.92,22.92,0,0,1,22.05,15,22.92,22.92,0,1,0,53.14,46.91,22.78,22.78,0,0,1,41.42,50.14Z"/><circle class="cls-6" cx="32.88" cy="35.22" r="17.62"/><line class="cls-7" x1="32.88" y1="21.62" x2="32.88" y2="35.22"/><line class="cls-7" x1="26.96" y1="42.28" x2="32.88" y2="35.22"/><circle cx="32.88" cy="35.22" r="2.85"/><path class="cls-8" d="M37.38,48A17.61,17.61,0,0,1,19.77,30.37a17.43,17.43,0,0,1,2.51-9,17.6,17.6,0,1,0,26.6,22.35A17.57,17.57,0,0,1,37.38,48Z"/></g></g></g></svg>