<svg xmlns="http://www.w3.org/2000/svg" viewBox="0 0 64 64"><defs><style>.cls-1{isolation:isolate;}.cls-2{fill:#2e58a6;}.cls-2,.cls-4,.cls-5{stroke:#000;stroke-miterlimit:10;stroke-width:2px;}.cls-3{opacity:0.35;}.cls-4,.cls-7{fill:#fff;}.cls-5{fill:none;stroke-linecap:round;}.cls-6{opacity:0.15;}.cls-7{opacity:0.42;mix-blend-mode:overlay;}</style></defs><title>Color</title><g class="cls-1"><g id="Color"><g id="_2" data-name="2"><circle class="cls-2" cx="31" cy="32" r="24.75"/><path class="cls-3" d="M39.25,48.71a24.73,24.73,0,0,1-20.91-38A24.75,24.75,0,1,0,51.91,45.23,24.61,24.61,0,0,1,39.25,48.71Z"/><circle class="cls-4" cx="31" cy="32" r="19.02"/><line class="cls-5" x1="31" y1="17.32" x2="31" y2="32"/><line class="cls-5" x1="24.61" y1="39.62" x2="31" y2="32"/><circle cx="31" cy="32" r="3.07"/><path class="cls-6" d="M34.89,46.38A19,19,0,0,1,18.58,17.62,19,19,0,1,0,47.31,41.75,19,19,0,0,1,34.89,46.38Z"/><path class="cls-7" d="M29.08,10.32A24.74,24.74,0,0,1,51,46.59,24.74,24.74,0,1,0,9.1,20.48,24.69,24.69,0,0,1,29.08,10.32Z"/></g></g></g></svg>