<svg id="Color" xmlns="http://www.w3.org/2000/svg" viewBox="0 0 64 64"><defs><style>.cls-1{fill:#ebeef0;}.cls-1,.cls-2,.cls-3,.cls-4,.cls-5{stroke:#000;stroke-linecap:round;stroke-linejoin:round;stroke-width:2px;}.cls-2{fill:#23b14a;}.cls-3{fill:none;}.cls-4{fill:#bf9012;}.cls-5{fill:#fec018;}.cls-6{opacity:0.25;}.cls-7{opacity:0.26;}</style></defs><title>Color</title><g id="_18" data-name="18"><path class="cls-1" d="M52,52.37H14.27a3.48,3.48,0,0,1-3.48-3.49l0-39H55.57l0,39A3.48,3.48,0,0,1,52,52.37Z"/><polygon class="cls-2" points="55.52 21.62 10.78 21.62 10.84 9.91 55.57 9.91 55.52 21.62"/><line class="cls-3" x1="15.34" y1="7.25" x2="15.34" y2="12.58"/><line class="cls-3" x1="24.34" y1="7.25" x2="24.34" y2="12.58"/><line class="cls-3" x1="33.34" y1="7.25" x2="33.34" y2="12.58"/><line class="cls-3" x1="42.34" y1="7.25" x2="42.34" y2="12.58"/><line class="cls-3" x1="51.34" y1="7.25" x2="51.34" y2="12.58"/><circle class="cls-4" cx="33.32" cy="43.33" r="3.22"/><line class="cls-3" x1="33.32" y1="30.8" x2="33.32" y2="28.71"/><path class="cls-5" d="M33.18,30.8h0A5.19,5.19,0,0,1,38.37,36v8.29a0,0,0,0,1,0,0H28a0,0,0,0,1,0,0V36A5.19,5.19,0,0,1,33.18,30.8Z"/><rect class="cls-5" x="26.44" y="40.87" width="13.48" height="3.41" rx="1.71"/><path class="cls-6" d="M46.54,9.91V21A18.47,18.47,0,0,1,28.06,39.41H10.62v9.47a3.49,3.49,0,0,0,3.49,3.49H51.86a3.48,3.48,0,0,0,3.49-3.48l0-39Z"/><g class="cls-7"><path d="M55.39,10v-.1h0A.3.3,0,0,1,55.39,10Z"/><path d="M49.68,17.12h-33A5.85,5.85,0,0,1,11,9.91h-.3l-.05,11.71H55.34l0-9A5.84,5.84,0,0,1,49.68,17.12Z"/></g></g></svg>