<svg xmlns="http://www.w3.org/2000/svg" viewBox="0 0 64 64"><defs><style>.cls-1{isolation:isolate;}.cls-2{fill:#ebeef0;}.cls-2,.cls-3,.cls-4{stroke:#000;stroke-linecap:round;stroke-linejoin:round;stroke-width:2px;}.cls-3{fill:#c8b9a7;}.cls-4{fill:#aaabad;}.cls-5{opacity:0.25;}.cls-6{fill:#fff;opacity:0.69;mix-blend-mode:overlay;}</style></defs><title>Color</title><g class="cls-1"><g id="Color"><g id="_16" data-name="16"><path class="cls-2" d="M48.81,33.05l5.91-5.91-17-17-5.91,5.91a12,12,0,0,0-2.27,13.79,12,12,0,0,0-13.79,2.27L9.87,38l17,17,5.91-5.91A12,12,0,0,0,35,35.32,12,12,0,0,0,48.81,33.05Z"/><path class="cls-3" d="M35.37,29.51,46.82,18.06l5.73,5.73-5.73,5.72A8.08,8.08,0,0,1,35.37,29.51Z"/><rect class="cls-4" x="32.3" y="13.96" width="30.22" height="7.03" transform="translate(26.24 -28.41) rotate(45)"/><path class="cls-3" d="M29.63,35.26,18.17,46.71l5.73,5.73,5.73-5.73A8.1,8.1,0,0,0,29.63,35.26Z"/><rect class="cls-4" x="3.25" y="43.01" width="30.22" height="7.03" transform="translate(38.28 0.65) rotate(45)"/><path class="cls-5" d="M48.92,32.93l4.6-4.6,2.2,2.2,5-5L50,14.87l-34,34L26.67,59.58l5-5-2.2-2.2L32.87,49A12,12,0,0,0,35.14,35.2,12,12,0,0,0,48.92,32.93Z"/><rect class="cls-6" x="5.37" y="35.27" width="7.03" height="3.11" transform="translate(-23.44 17.07) rotate(-45)"/><path class="cls-6" d="M18.1,34.22a12,12,0,0,1,13.78-2.28,12,12,0,0,1,2.27-13.78l4.6-4.6-2.2-2.2,5-5-2.2-2.2-5,5,2.19,2.2L32,16a12,12,0,0,0-2.27,13.78A12,12,0,0,0,15.9,32l-3.43,3.42,2.2,2.2Z"/></g></g></g></svg>