<svg id="Color" xmlns="http://www.w3.org/2000/svg" viewBox="0 0 64 64"><defs><style>.cls-1{fill:#ebeef0;}.cls-1,.cls-2,.cls-3{stroke:#000;stroke-linecap:round;stroke-linejoin:round;stroke-width:2px;}.cls-2{fill:#4a88b8;}.cls-3{fill:none;}.cls-4{opacity:0.25;}.cls-5{opacity:0.26;}</style></defs><title>Color</title><g id="_14" data-name="14"><path class="cls-1" d="M50.86,54.56H13.1a3.49,3.49,0,0,1-3.49-3.49l.05-39H54.39l0,39A3.49,3.49,0,0,1,50.86,54.56Z"/><polygon class="cls-2" points="54.34 23.81 9.61 23.81 9.66 12.1 54.39 12.1 54.34 23.81"/><line class="cls-3" x1="14.16" y1="9.44" x2="14.16" y2="14.77"/><line class="cls-3" x1="23.16" y1="9.44" x2="23.16" y2="14.77"/><line class="cls-3" x1="32.17" y1="9.44" x2="32.17" y2="14.77"/><line class="cls-3" x1="41.17" y1="9.44" x2="41.17" y2="14.77"/><line class="cls-3" x1="50.17" y1="9.44" x2="50.17" y2="14.77"/><polyline class="cls-3" points="39.72 36.74 32.16 44.3 24.61 36.74"/><polyline class="cls-3" points="39.56 32 32 39.55 24.45 32"/><path class="cls-4" d="M45.53,12.1v11A18.47,18.47,0,0,1,27.05,41.6H9.62v9.47a3.47,3.47,0,0,0,3.48,3.49H50.85a3.48,3.48,0,0,0,3.49-3.48l0-39Z"/><g class="cls-5"><path d="M54.39,12.19V12.1h0Z"/><path d="M48.67,19.31h-33a5.86,5.86,0,0,1-5.86-5.88A5.33,5.33,0,0,1,10,12.1H9.65L9.6,23.81H54.34l0-9A5.86,5.86,0,0,1,48.67,19.31Z"/></g></g></svg>