<svg id="Color" xmlns="http://www.w3.org/2000/svg" viewBox="0 0 64 64"><defs><style>.cls-1{fill:#ebeef0;}.cls-1,.cls-2,.cls-3{stroke:#000;stroke-linecap:round;stroke-linejoin:round;stroke-width:2px;}.cls-2{fill:#23b14a;}.cls-3{fill:none;}.cls-4{opacity:0.25;}.cls-5{opacity:0.26;}</style></defs><title>Color</title><g id="_6" data-name="6"><path class="cls-1" d="M50.86,56.86H13.1a3.49,3.49,0,0,1-3.49-3.49l.05-39H54.39l0,39A3.5,3.5,0,0,1,50.86,56.86Z"/><polygon class="cls-2" points="54.34 26.11 9.61 26.11 9.66 14.39 54.39 14.39 54.34 26.11"/><line class="cls-3" x1="14.16" y1="11.73" x2="14.16" y2="17.06"/><line class="cls-3" x1="23.16" y1="11.73" x2="23.16" y2="17.06"/><line class="cls-3" x1="32.17" y1="11.73" x2="32.17" y2="17.06"/><line class="cls-3" x1="41.17" y1="11.73" x2="41.17" y2="17.06"/><line class="cls-3" x1="50.17" y1="11.73" x2="50.17" y2="17.06"/><path d="M24.64,43.31H27l.45-8.43H24.92L25,33.65h4l-.51,9.66h2.12l-.07,1.2h-6Z"/><path d="M30.77,45.13h-6a.91.91,0,0,1-.6-.26.78.78,0,0,1-.25-.57L24,43.1a.42.42,0,0,1,.45-.4h1.94l.38-7.21H25.12a.9.9,0,0,1-.59-.26.78.78,0,0,1-.25-.57l.06-1.23a.41.41,0,0,1,.45-.4h4a.91.91,0,0,1,.6.26.78.78,0,0,1,.25.57l-.47,8.84h1.23A.9.9,0,0,1,31,43a.79.79,0,0,1,.26.57l-.07,1.2A.41.41,0,0,1,30.77,45.13ZM27.4,43.9h1.1a1.2,1.2,0,0,1-.37-.23.79.79,0,0,1-.26-.57l.47-8.84h-1a1,1,0,0,1,.51.26.78.78,0,0,1,.25.57l-.44,8.44A.41.41,0,0,1,27.4,43.9Z"/><path d="M32.88,43.31h2.37l.44-8.43H33.16l.07-1.23h4l-.51,9.66h2.11l-.06,1.2h-6Z"/><path d="M39,45.13H33a.9.9,0,0,1-.59-.26.78.78,0,0,1-.25-.57l.06-1.2a.41.41,0,0,1,.45-.4h1.94L35,35.49H33.36a.9.9,0,0,1-.59-.26.79.79,0,0,1-.26-.57l.07-1.23A.41.41,0,0,1,33,33h4a.9.9,0,0,1,.59.26.79.79,0,0,1,.26.57l-.47,8.84h1.22a.91.91,0,0,1,.6.26.78.78,0,0,1,.25.57l-.06,1.2A.41.41,0,0,1,39,45.13ZM35.64,43.9h1.1a1.14,1.14,0,0,1-.38-.23.78.78,0,0,1-.25-.57l.47-8.84h-1a1,1,0,0,1,.51.26.78.78,0,0,1,.25.57l-.45,8.44A.4.4,0,0,1,35.64,43.9Z"/><path class="cls-4" d="M45.54,14.4v11A18.47,18.47,0,0,1,27.06,43.9H9.62v9.47a3.49,3.49,0,0,0,3.49,3.49H50.86a3.5,3.5,0,0,0,3.49-3.48l0-39Z"/><g class="cls-5"><path d="M54.39,14.49V14.4h0A.29.29,0,0,1,54.39,14.49Z"/><path d="M48.68,21.6h-33A5.84,5.84,0,0,1,9.8,15.72,5.75,5.75,0,0,1,10,14.4h-.3L9.61,26.1H54.34l0-9A5.85,5.85,0,0,1,48.68,21.6Z"/></g></g></svg>