<svg id="Color" xmlns="http://www.w3.org/2000/svg" viewBox="0 0 64 64"><defs><style>.cls-1{fill:#ebeef0;}.cls-1,.cls-2,.cls-3{stroke:#000;stroke-linecap:round;stroke-linejoin:round;stroke-width:2px;}.cls-2{fill:#23b14a;}.cls-3{fill:none;}.cls-4{opacity:0.25;}.cls-5{opacity:0.26;}</style></defs><title>Color</title><g id="_11" data-name="11"><path class="cls-1" d="M52.48,54.56H14.72a3.49,3.49,0,0,1-3.49-3.49l0-39H56l0,39A3.48,3.48,0,0,1,52.48,54.56Z"/><polygon class="cls-2" points="55.96 23.81 11.23 23.81 11.28 12.1 56.02 12.1 55.96 23.81"/><line class="cls-3" x1="15.79" y1="9.44" x2="15.79" y2="14.77"/><line class="cls-3" x1="24.79" y1="9.44" x2="24.79" y2="14.77"/><line class="cls-3" x1="33.79" y1="9.44" x2="33.79" y2="14.77"/><line class="cls-3" x1="42.79" y1="9.44" x2="42.79" y2="14.77"/><line class="cls-3" x1="51.79" y1="9.44" x2="51.79" y2="14.77"/><rect class="cls-2" x="17.77" y="29.19" width="7.88" height="6.91"/><rect class="cls-2" x="29.85" y="29.19" width="7.88" height="6.91"/><rect class="cls-2" x="17.77" y="39.79" width="7.88" height="6.91"/><rect class="cls-2" x="29.85" y="39.79" width="7.88" height="6.91"/><rect class="cls-2" x="42.06" y="29.19" width="7.88" height="6.91"/><rect class="cls-2" x="42.06" y="39.79" width="7.88" height="6.91"/><path class="cls-4" d="M47.08,12.1v11A18.47,18.47,0,0,1,28.6,41.6H11.16v9.47a3.49,3.49,0,0,0,3.49,3.49H52.4a3.48,3.48,0,0,0,3.49-3.48l0-39Z"/><g class="cls-5"><path d="M55.93,12.19V12.1h0A.29.29,0,0,1,55.93,12.19Z"/><path d="M50.22,19.31h-33A5.85,5.85,0,0,1,11.5,12.1h-.3l0,11.71H55.88l0-9A5.84,5.84,0,0,1,50.22,19.31Z"/></g></g></svg>