<svg xmlns="http://www.w3.org/2000/svg" viewBox="0 0 64 64"><defs><style>.cls-1{isolation:isolate;}.cls-2{fill:#fe330a;}.cls-2,.cls-4,.cls-5,.cls-6{stroke:#000;stroke-miterlimit:10;stroke-width:2px;}.cls-2,.cls-6{stroke-linecap:round;}.cls-3{opacity:0.35;}.cls-4{fill:#2e58a6;}.cls-5,.cls-8{fill:#fff;}.cls-6{fill:none;}.cls-7{opacity:0.15;}.cls-8{opacity:0.69;mix-blend-mode:overlay;}</style></defs><title>Color</title><g class="cls-1"><g id="Color"><g id="_19" data-name="19"><rect class="cls-2" x="25.02" y="6.73" width="12.64" height="7.36"/><rect class="cls-3" x="25.02" y="6.73" width="6.29" height="7.36"/><circle class="cls-4" cx="31.3" cy="35.18" r="22.09"/><path class="cls-3" d="M38.55,50.37a21.9,21.9,0,0,1-18.5-33.6,21.89,21.89,0,1,0,29.7,30.51A21.77,21.77,0,0,1,38.55,50.37Z"/><circle class="cls-5" cx="31.3" cy="35.18" r="16.97"/><line class="cls-6" x1="31.3" y1="25" x2="31.3" y2="34.78"/><line class="cls-6" x1="27.04" y1="40.25" x2="31.3" y2="35.18"/><line class="cls-6" x1="31.3" y1="35.13" x2="43.94" y2="40.3"/><path class="cls-7" d="M34.69,48.3A16.82,16.82,0,0,1,17.87,31.48a16.62,16.62,0,0,1,2.4-8.62A16.81,16.81,0,1,0,45.68,44.2,16.75,16.75,0,0,1,34.69,48.3Z"/><path class="cls-8" d="M31.3,13.09a22,22,0,0,0-15.91,6.78,22.08,22.08,0,0,1,29.7,32.56A22.09,22.09,0,0,0,31.3,13.09Z"/></g></g></g></svg>