<svg xmlns="http://www.w3.org/2000/svg" viewBox="0 0 64 64"><defs><style>.cls-1{isolation:isolate;}.cls-2{fill:#bf9012;}.cls-2,.cls-3,.cls-4{stroke:#000;stroke-linecap:round;stroke-linejoin:round;stroke-width:2px;}.cls-3{fill:none;}.cls-4{fill:#fec018;}.cls-5{opacity:0.1;}.cls-6{fill:#fff;opacity:0.42;mix-blend-mode:overlay;}</style></defs><title>Color</title><g class="cls-1"><g id="Color"><g id="_1" data-name="1"><circle class="cls-2" cx="32.01" cy="47.82" r="8.93"/><line class="cls-3" x1="32.01" y1="13.01" x2="32.01" y2="7.2"/><path class="cls-4" d="M31.61,13h0A14.43,14.43,0,0,1,46,27.44v23a0,0,0,0,1,0,0H17.18a0,0,0,0,1,0,0v-23A14.43,14.43,0,0,1,31.61,13Z"/><rect class="cls-4" x="12.89" y="40.98" width="37.44" height="9.48" rx="4.74"/><path class="cls-5" d="M46,41V27.44A14.42,14.42,0,0,0,32,13V56.75h0a8.93,8.93,0,0,0,8.53-6.3H46v0a4.72,4.72,0,0,0,4.29-4.69h0A4.73,4.73,0,0,0,46,41Z"/><path class="cls-6" d="M27.76,50.45H23.47A8.94,8.94,0,0,0,32,56.75a8.83,8.83,0,0,0,2.14-.26A9,9,0,0,1,27.76,50.45Z"/><path class="cls-6" d="M17.18,45.72h0A4.73,4.73,0,0,1,21.47,41V27.44A14.42,14.42,0,0,1,33.76,13.19,14,14,0,0,0,31.61,13,14.43,14.43,0,0,0,17.18,27.44V41a4.73,4.73,0,0,0-4.29,4.7h0a4.72,4.72,0,0,0,4.29,4.69v0h4.29v0A4.72,4.72,0,0,1,17.18,45.72Z"/></g></g></g></svg>