<svg xmlns="http://www.w3.org/2000/svg" viewBox="0 0 64 64"><defs><style>.cls-1{isolation:isolate;}.cls-2{fill:none;}.cls-2,.cls-3,.cls-4{stroke:#000;stroke-linecap:round;stroke-linejoin:round;stroke-width:2px;}.cls-3{fill:#bf9012;}.cls-4{fill:#fec018;}.cls-5{opacity:0.1;}.cls-6{fill:#fff;opacity:0.42;mix-blend-mode:overlay;}</style></defs><title>Color</title><g class="cls-1"><g id="Color"><g id="_5" data-name="5"><path class="cls-2" d="M9.22,26.24A14.93,14.93,0,0,1,17.53,10.5"/><path class="cls-2" d="M54.8,26.24A15,15,0,0,0,46.49,10.5"/><circle class="cls-3" cx="32.4" cy="48.74" r="8.93"/><line class="cls-2" x1="32.4" y1="13.94" x2="32.4" y2="8.12"/><path class="cls-4" d="M32,13.94h0A14.43,14.43,0,0,1,46.43,28.37v23a0,0,0,0,1,0,0H17.58a0,0,0,0,1,0,0v-23A14.43,14.43,0,0,1,32,13.94Z"/><rect class="cls-4" x="13.28" y="41.9" width="37.44" height="9.48" rx="4.74"/><path class="cls-5" d="M46.2,41.93V28.35a14.42,14.42,0,0,0-14-14.41V57.66h0a8.94,8.94,0,0,0,8.54-6.3H46.2v0a4.73,4.73,0,0,0,4.3-4.7h0A4.73,4.73,0,0,0,46.2,41.93Z"/><path class="cls-6" d="M27.71,51.37H23.42A8.94,8.94,0,0,0,32,57.67a8.83,8.83,0,0,0,2.14-.26A9,9,0,0,1,27.71,51.37Z"/><path class="cls-6" d="M17.13,46.63h0a4.73,4.73,0,0,1,4.3-4.69V28.36A14.41,14.41,0,0,1,33.71,14.11a14,14,0,0,0-2.15-.18A14.43,14.43,0,0,0,17.13,28.36V41.94a4.72,4.72,0,0,0-4.29,4.69h0a4.73,4.73,0,0,0,4.29,4.7v0h4.3v0A4.73,4.73,0,0,1,17.13,46.63Z"/></g></g></g></svg>