<svg id="Color" xmlns="http://www.w3.org/2000/svg" viewBox="0 0 64 64"><defs><style>.cls-1{fill:#2e58a6;}.cls-1,.cls-3,.cls-4,.cls-5{stroke:#000;stroke-miterlimit:10;stroke-width:2px;}.cls-2{opacity:0.25;}.cls-3{fill:#fff;}.cls-4{fill:none;stroke-linecap:round;}.cls-5{fill:#224078;}.cls-6{opacity:0.15;}</style></defs><title>Color</title><g id="_10" data-name="10"><rect class="cls-1" x="11.61" y="13.94" width="42.79" height="42.79" rx="4.83"/><path class="cls-2" d="M39.94,44.35a18,18,0,0,1-18-18V13.94H16.44a4.83,4.83,0,0,0-4.83,4.83V51.9a4.83,4.83,0,0,0,4.83,4.83H49.56a4.83,4.83,0,0,0,4.83-4.83V44.35Z"/><circle class="cls-3" cx="33.18" cy="35.08" r="15.71"/><line class="cls-4" x1="33.18" y1="22.95" x2="33.18" y2="35.08"/><line class="cls-4" x1="27.9" y1="41.37" x2="33.18" y2="35.08"/><circle cx="33.18" cy="35.08" r="2.54"/><rect class="cls-5" x="26.82" y="8.12" width="12.36" height="5.82" rx="1.58"/><path class="cls-6" d="M39.18,44.73A15.71,15.71,0,0,1,25.43,21.42a15.71,15.71,0,1,0,21.5,21.25A15.65,15.65,0,0,1,39.18,44.73Z"/><path class="cls-2" d="M33,12.36V9.7a1.58,1.58,0,0,1,1.58-1.58H28.4A1.58,1.58,0,0,0,26.82,9.7v2.66a1.58,1.58,0,0,0,1.58,1.58h6.18A1.58,1.58,0,0,1,33,12.36Z"/></g></svg>