<svg id="Color" xmlns="http://www.w3.org/2000/svg" viewBox="0 0 64 64"><defs><style>.cls-1{fill:#707273;}.cls-1,.cls-2,.cls-3{stroke:#000;stroke-linecap:round;stroke-linejoin:round;stroke-width:2px;}.cls-2{fill:#ebeef0;}.cls-3{fill:none;}.cls-4{opacity:0.15;}</style></defs><title>Color</title><g id="_3" data-name="3"><polygon class="cls-1" points="59.54 48.17 23.3 48.17 14.17 18.18 50.41 18.18 59.54 48.17"/><polygon class="cls-2" points="40.7 48.17 4.46 48.17 14.17 18.18 50.41 18.18 40.7 48.17"/><line class="cls-3" x1="16.99" y1="15.83" x2="16.99" y2="20.15"/><line class="cls-3" x1="24.28" y1="15.83" x2="24.28" y2="20.15"/><line class="cls-3" x1="31.57" y1="15.83" x2="31.57" y2="20.15"/><line class="cls-3" x1="38.86" y1="15.83" x2="38.86" y2="20.15"/><line class="cls-3" x1="46.15" y1="15.83" x2="46.15" y2="20.15"/><path d="M20.37,36.6h1.92l2.56-6.83H22.8l.38-1h3.27L23.51,36.6h1.71l-.36,1H20Z"/><path d="M24.86,38.07H20a.51.51,0,0,1-.41-.21.54.54,0,0,1-.06-.46l.37-1a.5.5,0,0,1,.47-.33h1.57l2.19-5.84H22.8a.51.51,0,0,1-.41-.21.54.54,0,0,1-.06-.46l.38-1a.5.5,0,0,1,.47-.32h3.27a.51.51,0,0,1,.41.21.52.52,0,0,1,.06.47L24.23,36.1h1a.51.51,0,0,1,.42.22.5.5,0,0,1,.05.46l-.36,1A.51.51,0,0,1,24.86,38.07Zm-2.41-1h.89a.53.53,0,0,1-.24-.18.48.48,0,0,1-.06-.46l2.69-7.16h-.81a.5.5,0,0,1,.4.67l-2.57,6.84A.48.48,0,0,1,22.45,37.07Z"/><path d="M27,36.6H29l2.56-6.83H29.47l.38-1h3.27L30.18,36.6H31.9l-.37,1H26.67Z"/><path d="M31.53,38.07H26.67a.52.52,0,0,1-.41-.21.5.5,0,0,1-.05-.46l.36-1A.5.5,0,0,1,27,36.1h1.57l2.19-5.84H29.47a.52.52,0,0,1-.41-.21.5.5,0,0,1,0-.46l.37-1a.5.5,0,0,1,.47-.32h3.27a.5.5,0,0,1,.47.68L30.9,36.1h1a.5.5,0,0,1,.41.22.5.5,0,0,1,0,.46l-.36,1A.5.5,0,0,1,31.53,38.07Zm-2.41-1H30a.51.51,0,0,1-.25-.18.54.54,0,0,1-.06-.46l2.69-7.16h-.81a.52.52,0,0,1,.35.21.5.5,0,0,1,0,.46l-2.56,6.84A.52.52,0,0,1,29.12,37.07Z"/><path class="cls-4" d="M41.51,18.18a12.51,12.51,0,0,1,.63,3.91c0,9.44-10.55,17.09-23.57,17.09A30.88,30.88,0,0,1,8,37.35L4.46,48.17H40.7l9.71-30Z"/></g></svg>