<?xml version="1.0" encoding="utf-8"?>
<!-- Generator: Adobe Illustrator 22.1.0, SVG Export Plug-In . SVG Version: 6.00 Build 0)  -->
<svg version="1.1" id="Icon_Set" xmlns="http://www.w3.org/2000/svg" xmlns:xlink="http://www.w3.org/1999/xlink" x="0px" y="0px"
	 viewBox="0 0 256 256" style="enable-background:new 0 0 256 256;" xml:space="preserve">
<style type="text/css">
	.st0{fill:#5FCDFF;}
	.st1{fill:#87828E;}
	.st2{fill:#B76C6C;}
	.st3{fill:#FF4A73;}
	.st4{fill:#73D7F9;}
	.st5{fill:#30B6FF;}
	.st6{fill:#A4A4A5;}
	.st7{fill:#F973A3;}
	.st8{fill:#5F266D;}
	.st9{fill:#FFE2E2;}
	.st10{fill:#FFEFEE;}
	.st11{fill:#796E84;}
	.st12{fill:#3193F3;}
	.st13{fill:#35B1FC;}
	.st14{fill:#307FED;}
	.st15{fill:#FFCFCF;}
	.st16{fill:#EA2A6A;}
	.st17{fill:#44C7B6;}
	.st18{fill:#3BB2A0;}
	.st19{fill:#4BDBC3;}
	.st20{fill:#C98585;}
	.st21{fill:#965959;}
	.st22{fill:#FFBB98;}
	.st23{fill:#FFCAA6;}
	.st24{fill:#FFAA80;}
	.st25{fill:#F9D335;}
	.st26{fill:#F2C300;}
	.st27{fill:#F9E27D;}
</style>
<g>
	<g>
		<rect x="140.496" y="35.769" class="st9" width="38.415" height="48.004"/>
		<rect x="140.498" y="35.766" class="st10" width="15" height="48.01"/>
		<rect x="163.908" y="35.766" class="st15" width="15" height="48.01"/>
		<path class="st17" d="M133.037,72.273v44.688c0,14.744-7.969,28.584-21.399,36.986c-23.728,14.846-39.268,39.59-39.268,67.611
			v6.164c0,12.454,11.193,22.551,25,22.551h69c11.046,0,20-8.077,20-18.041V182.32v-42.996V72.273H133.037z"/>
		<circle class="st9" cx="136.092" cy="200.274" r="38.752"/>
		<path class="st17" d="M101.674,81.277l-2.534-2.534c-3.905-3.905-3.905-10.237,0-14.142l30.759-30.759l9.605,9.605L101.674,81.277
			z"/>
		<path class="st9" d="M210.537,48.769H107.87c-2.761,0-5-2.239-5-5v-16c0-2.761,2.239-5,5-5h77.667c13.807,0,25,11.193,25,25
			V48.769z"/>
		<path class="st1" d="M141.57,177.781c-1.561-1.071-3.444-1.697-5.479-1.697c-2.028,0-3.912,0.626-5.472,1.689v0.008
			c-2.56,1.74-4.235,4.68-4.235,8.017c0,2.668,1.071,5.077,2.811,6.824h13.791c1.74-1.748,2.811-4.156,2.811-6.824
			C145.797,182.469,144.122,179.528,141.57,177.781z"/>
		<path class="st17" d="M105.87,44.581H93.245c-2.761,0-5-2.239-5-5v-7.625c0-2.761,2.239-5,5-5h12.625V44.581z"/>
		<path class="st19" d="M148.038,72.276v44.68c0,14.75-7.97,28.59-21.4,36.99c-23.73,14.85-39.27,39.59-39.27,67.61v6.17
			c0,12.45,11.2,22.55,25,22.55h-15c-13.8,0-25-10.1-25-22.55v-6.17c0-28.02,15.54-52.76,39.27-67.61
			c13.43-8.4,21.4-22.24,21.4-36.99v-44.68H148.038z"/>
		<path class="st18" d="M186.368,72.276v159.96c0,9.96-8.95,18.04-20,18.04h-15c11.05,0,20-8.08,20-18.04V72.276H186.368z"/>
		<path class="st15" d="M174.848,200.276c0,21.4-17.35,38.75-38.76,38.75c-2.57,0-5.07-0.25-7.5-0.73
			c17.82-3.49,31.26-19.19,31.26-38.02s-13.44-34.53-31.26-38.02c2.43-0.48,4.93-0.73,7.5-0.73
			C157.498,161.526,174.848,178.876,174.848,200.276z"/>
		<path class="st10" d="M143.588,238.296c-2.42,0.48-4.93,0.73-7.5,0.73c-21.4,0-38.75-17.35-38.75-38.75s17.35-38.75,38.75-38.75
			c2.57,0,5.08,0.25,7.5,0.73c-17.81,3.49-31.25,19.19-31.25,38.02S125.778,234.806,143.588,238.296z"/>
		<path class="st1" d="M149.878,221.006c-3.85,4.55-8.89,6.53-13.83,6.45c-9.2-0.12-18.04-7.33-18.04-18.12
			c0-10.13,8.33-18.28,18.42-18.04c2.13,0.05,4.33,0.48,6.55,1.33C154.518,197.466,157.668,211.826,149.878,221.006z"/>
		<path class="st6" d="M136.048,227.456c-9.2-0.12-18.04-7.33-18.04-18.12c0-10.13,8.33-18.28,18.42-18.04
			C127.528,201.426,127.328,217.026,136.048,227.456z"/>
		<path class="st10" d="M122.868,48.766h-15c-2.76,0-5-2.24-5-5v-16c0-2.76,2.24-5,5-5h15c-2.76,0-5,2.24-5,5v16
			C117.868,46.526,120.108,48.766,122.868,48.766z"/>
		<path class="st15" d="M210.538,47.766v1h-15c0-16.17-12.213-26-25-26h15C199.348,22.766,210.538,33.966,210.538,47.766z"/>
	</g>
	<g>
		<path class="st8" d="M185.538,18.766h-77.67c-3.19,0-6,1.67-7.6,4.19h-7.02c-4.97,0-9,4.04-9,9v7.62c0,4.97,4.03,9,9,9h7.02
			c1.2,1.9,3.1,3.32,5.33,3.91l-9.29,9.29c-5.45,5.45-5.45,14.34,0,19.79l2.54,2.54c1.557,1.557,4.087,1.563,5.65,0l31.35-31.34
			h0.65v15.51h-3.46c-2.21,0-4,1.79-4,4v44.68c0,13.39-7.3,25.95-19.52,33.6c-25.77,16.12-41.15,42.66-41.15,71v6.17
			c0,14.64,13.01,26.55,29,26.55h69c13.24,0,24-9.89,24-22.04V72.276c0-2.21-1.79-4-4-4h-3.46v-15.51h27.63c2.21,0,4-1.79,4-4
			C214.538,30.512,200.599,18.766,185.538,18.766z M107.868,44.766c-0.55,0-1-0.45-1-1v-16c0-0.55,0.45-1,1-1
			c3.692,0,73.91,0,77.67,0c10.56,0,19.33,7.84,20.79,18C195.952,44.766,119.577,44.766,107.868,44.766z M92.248,39.576v-7.62
			c0-0.55,0.45-1,1-1h5.62v9.62h-5.62C92.698,40.576,92.248,40.136,92.248,39.576z M101.688,75.606c-2.05-2.35-1.96-5.94,0.28-8.18
			l14.66-14.66h7.9L101.688,75.606z M166.368,246.276h-69c-11.58,0-21-8.33-21-18.55v-6.17c0-25.56,13.98-49.57,37.39-64.22
			c14.58-9.12,23.28-24.21,23.28-40.38c0-15.541,0-24.936,0-40.68c19.194,0,24.565,0,45.33,0c0,4.603,0,148.377,0,155.96
			C182.368,239.976,175.188,246.276,166.368,246.276z M174.908,68.276h-30.41v-15.51h30.41V68.276z"/>
		<path class="st8" d="M45.429,31.768c-5.285,0-5.292,8,0,8h26.75c5.285,0,5.292-8,0-8H45.429z"/>
		<path class="st8" d="M68.367,46.312L51.75,62.929c-3.732,3.73,1.926,9.391,5.656,5.656l16.617-16.617
			C77.769,48.225,72.1,42.574,68.367,46.312z"/>
		<path class="st8" d="M71.796,25.224c3.728,3.733,9.392-1.923,5.656-5.656L60.835,2.951c-3.734-3.739-9.4,1.915-5.656,5.656
			L71.796,25.224z"/>
		<path class="st8" d="M136.088,157.526c-23.57,0-42.75,19.17-42.75,42.75c0,23.57,19.18,42.75,42.75,42.75
			c23.58,0,42.76-19.18,42.76-42.75C178.848,176.696,159.668,157.526,136.088,157.526z M136.088,165.526
			c9.9,0,18.85,4.16,25.18,10.83l-11.5,10.24c0.236-3.062-0.735-6.578-2.98-9.37l1.26-1.84c3.002-4.371-3.641-8.876-6.6-4.51
			l-1.26,1.84c-2.684-0.854-5.601-0.823-8.2-0.01l-1.25-1.83c-2.975-4.367-9.596,0.147-6.6,4.51l1.26,1.84
			c-3.239,4.01-3.859,9.503-1.89,14c-1.55,1.06-2.95,2.33-4.16,3.76l-5.53-2.84c-4.694-2.42-8.368,4.683-3.66,7.11l5.15,2.65
			c-0.4,1.1-0.71,2.25-0.92,3.43h-4.71c-5.284,0-5.295,8,0,8h4.71c0.24,1.32,0.6,2.6,1.07,3.83l-6.03,5.37
			c-5.05-6.03-8.09-13.8-8.09-22.26C101.338,181.106,116.928,165.526,136.088,165.526z M125.668,218.786l21-18.71
			c3.778,3.459,5.504,12.368-0.557,19.145C141.557,224.313,131.701,225.428,125.668,218.786z M130.388,185.796
			c0-7.4,11.41-7.615,11.41,0c0,0.74-0.14,1.45-0.4,2.11c-4.046-0.899-7.413-0.799-10.61,0.01
			C130.528,187.256,130.388,186.536,130.388,185.796z M139.558,195.696l-17.41,15.51
			C120.738,201.878,129.497,193.19,139.558,195.696z M115.248,228.066l4.45-3.96c4.04,4.49,9.89,7.31,16.39,7.31
			c7.31,0,14.461-4.272,16.76-7.72c0.198,0.102,5.613,2.897,5.82,2.98C146.185,237.353,128.151,237.771,115.248,228.066z
			 M163.788,221.246c-0.36-0.76-0.96-1.41-1.77-1.82l-5.14-2.64c0.399-0.997,0.92-3.218,0.92-3.45h4.71c5.285,0,5.293-8,0-8h-4.71
			c-0.168-0.974-0.536-2.416-0.92-3.44l5.14-2.64c4.735-2.428,1.007-9.533-3.65-7.11l-5.52,2.83h-0.01
			c-0.016-0.032-0.165-0.205-0.19-0.23l13.45-11.99c3.02,5.15,4.75,11.13,4.75,17.52
			C170.848,208.146,168.218,215.416,163.788,221.246z"/>
		<path class="st8" d="M177.368,127.276v-3.5c0-5.285-8-5.293-8,0v3.5C169.368,132.561,177.368,132.569,177.368,127.276z"/>
		<path class="st8" d="M177.368,108.776c0-9.32,0-15.324,0-25c0-5.285-8-5.293-8,0c0,9.676,0,15.678,0,25
			C169.368,114.061,177.368,114.069,177.368,108.776z"/>
	</g>
</g>
</svg>
