<?xml version="1.0" encoding="utf-8"?>
<!-- Generator: Adobe Illustrator 22.1.0, SVG Export Plug-In . SVG Version: 6.00 Build 0)  -->
<svg version="1.1" id="Icon_Set" xmlns="http://www.w3.org/2000/svg" xmlns:xlink="http://www.w3.org/1999/xlink" x="0px" y="0px"
	 viewBox="0 0 256 256" style="enable-background:new 0 0 256 256;" xml:space="preserve">
<style type="text/css">
	.st0{fill:#5FCDFF;}
	.st1{fill:#87828E;}
	.st2{fill:#B76C6C;}
	.st3{fill:#FF4A73;}
	.st4{fill:#73D7F9;}
	.st5{fill:#30B6FF;}
	.st6{fill:#A4A4A5;}
	.st7{fill:#F973A3;}
	.st8{fill:#5F266D;}
	.st9{fill:#FFE2E2;}
	.st10{fill:#FFEFEE;}
	.st11{fill:#796E84;}
	.st12{fill:#3193F3;}
	.st13{fill:#35B1FC;}
	.st14{fill:#307FED;}
	.st15{fill:#FFCFCF;}
	.st16{fill:#EA2A6A;}
	.st17{fill:#44C7B6;}
	.st18{fill:#3BB2A0;}
	.st19{fill:#4BDBC3;}
	.st20{fill:#C98585;}
	.st21{fill:#965959;}
	.st22{fill:#FFBB98;}
	.st23{fill:#FFCAA6;}
	.st24{fill:#FFAA80;}
	.st25{fill:#F9D335;}
	.st26{fill:#F2C300;}
	.st27{fill:#F9E27D;}
</style>
<g>
	<g>
		<path class="st17" d="M58.611,224.257c0,0,13.975,9.523,9.392,26.857c0,0-24.048,1.373-25.473-18.047l1.529-11.536L58.611,224.257
			z"/>
		<path class="st19" d="M68.815,246.627c-0.13,1.44-0.39,2.93-0.81,4.49c0,0-24.05,1.37-25.48-18.05l1.53-11.54l9.69,1.82
			l-0.83,6.22C53.725,240.657,61.935,244.967,68.815,246.627z"/>
		<path class="st17" d="M64.515,185.656c18.679-17.542,4.071-36.958,4.071-36.958c-20.75-1.25-29.704,20.346-29.704,20.346
			l-0.02,27.259L64.515,185.656z"/>
		<path class="st19" d="M71.875,154.847c-3.58,0.62-6.71,1.95-9.41,3.63c-8.8,5.45-13.91,15.31-13.92,25.66v8.15l-9.68,4.02
			l0.02-27.26c0,0,8.95-21.6,29.7-20.35C68.585,148.697,70.355,151.047,71.875,154.847z"/>
		<path class="st2" d="M185.994,173.397h-82.57c0,0-26.029,37.727-25.029,77.712h48.842h34.944h48.842
			C212.023,211.124,185.994,173.397,185.994,173.397z"/>
		<path class="st20" d="M93.393,251.114h-15c-1-39.99,25.03-77.717,25.03-77.717h15C118.423,173.397,92.393,211.124,93.393,251.114z
			"/>
		<path class="st21" d="M211.023,251.114h-15c1-39.99-25.03-77.717-25.03-77.717h15
			C185.993,173.397,212.023,211.124,211.023,251.114z"/>
		<path id="XMLID_503_" class="st12" d="M199.663,48.915v91.21H89.743v-91.21c0-0.38,0-0.75,0.01-1.13
			c0.33-12.71,6.07-24.06,15-31.84c7.69-6.7,17.72-10.75,28.71-10.75h22.48c11,0,21.03,4.05,28.72,10.76
			C193.853,23.965,199.663,35.755,199.663,48.915z"/>
		<path id="XMLID_502_" class="st14" d="M199.663,48.915v91.21h-15V15.955C193.853,23.965,199.663,35.755,199.663,48.915z"/>
		<path id="XMLID_499_" class="st2" d="M250.519,49.903l-15.601,52.648c-0.132,0.445-0.278,0.889-0.485,1.305
			c-2.921,5.87-11.142,6.487-14.908,1.126c-0.274-0.39-0.489-0.819-0.689-1.252L175.437,9.835l69.648,28.468
			C249.932,39.846,252.435,45.192,250.519,49.903z"/>
		<path id="XMLID_495_" class="st13" d="M104.753,15.945v124.18h-15v-92.34C90.083,35.075,95.823,23.725,104.753,15.945z"/>
		<path id="XMLID_494_" class="st12" d="M183.183,162.912h-76.96c-13.982,0-25.316-11.334-25.316-25.316v-1.139
			c0-35.233,28.562-63.796,63.796-63.796h0c35.233,0,63.796,28.562,63.796,63.796v1.139
			C208.499,151.578,197.165,162.912,183.183,162.912z"/>
		<path id="XMLID_493_" class="st14" d="M208.5,136.455v1.14c0,13.98-11.34,25.32-25.32,25.32h-15c13.98,0,25.32-11.34,25.32-25.32
			v-1.14c0-17.62-7.14-33.56-18.69-45.11c-9.88-9.88-22.99-16.53-37.61-18.24c2.46-0.29,4.96-0.44,7.5-0.44
			c17.62,0,33.57,7.14,45.11,18.68C201.36,102.895,208.5,118.835,208.5,136.455z"/>
		<path id="XMLID_492_" class="st13" d="M121.22,162.915h-15c-13.98,0-25.31-11.34-25.31-25.32v-1.14
			c0-35.23,28.56-63.79,63.79-63.79c2.54,0,5.04,0.15,7.5,0.44c-31.7,3.71-56.29,30.66-56.29,63.35v1.14
			C95.91,151.575,107.24,162.915,121.22,162.915z"/>
		<path id="XMLID_491_" class="st2" d="M148.045,126.878h-4.038c-11.046,0-20-8.954-20-20v-3.379c0-5.523,4.477-10,10-10h24.038
			c5.523,0,10,4.477,10,10v3.379C168.045,117.924,159.091,126.878,148.045,126.878z"/>
		<path id="XMLID_490_" class="st20" d="M153.53,126.105c-1.74,0.5-3.58,0.77-5.48,0.77h-4.04c-11.05,0-20-8.95-20-20v-3.38
			c0-5.52,4.47-10,10-10h15c-5.53,0-10,4.48-10,10v3.38C139.01,116.025,145.15,123.735,153.53,126.105z"/>
		<path id="XMLID_489_" class="st2" d="M39.528,49.762l15.601,52.648c0.132,0.445,0.278,0.889,0.485,1.305
			c2.921,5.87,11.141,6.487,14.908,1.126c0.274-0.39,0.489-0.819,0.689-1.252l43.397-93.894L44.961,38.163
			C40.114,39.706,37.611,45.051,39.528,49.762z"/>
		<circle class="st18" cx="123.3" cy="43.633" r="21.723"/>
		<circle class="st18" cx="166.746" cy="43.633" r="21.723"/>
		<path class="st19" d="M123.301,55.778c-6.697,0-12.146-5.449-12.146-12.146s5.449-12.145,12.146-12.145
			s12.145,5.448,12.145,12.145S129.997,55.778,123.301,55.778z"/>
		<path class="st19" d="M166.745,55.778c-6.697,0-12.145-5.449-12.145-12.146s5.448-12.145,12.145-12.145
			s12.145,5.448,12.145,12.145S173.442,55.778,166.745,55.778z"/>
		<circle class="st12" cx="24.585" cy="224.817" r="19.75"/>
		<circle class="st12" cx="58.611" cy="204.507" r="19.75"/>
		<circle class="st12" cx="24.585" cy="182.662" r="19.75"/>
		<path class="st13" d="M32.085,243.087c-2.31,0.96-4.85,1.48-7.5,1.48c-10.91,0-19.75-8.84-19.75-19.75s8.84-19.75,19.75-19.75
			c2.65,0,5.19,0.52,7.5,1.48c-7.19,2.95-12.25,10.02-12.25,18.27S24.895,240.137,32.085,243.087z"/>
		<path class="st13" d="M66.115,222.777c-2.31,0.96-4.85,1.48-7.5,1.48c-10.91,0-19.75-8.84-19.75-19.75
			c0-10.91,8.84-19.75,19.75-19.75c2.65,0,5.19,0.52,7.5,1.48c-7.19,2.95-12.25,10.02-12.25,18.27S58.925,219.827,66.115,222.777z"
			/>
		<path class="st13" d="M32.085,200.937c-2.31,0.96-4.85,1.48-7.5,1.48c-10.91,0-19.75-8.85-19.75-19.75
			c0-10.91,8.84-19.75,19.75-19.75c2.65,0,5.19,0.52,7.5,1.48c-7.19,2.95-12.25,10.02-12.25,18.27S24.895,197.987,32.085,200.937z"
			/>
		<path class="st9" d="M186.233,173.397h-0.25h-82.53h-0.28c0,0-3.96,5.79-8.71,15.24l2.59,6.09c8.19,19.24,27.07,31.72,47.97,31.72
			c10.45,0,20.4-3.12,28.75-8.65c8.35-5.53,15.12-13.45,19.21-23.07l2.3-5.4C190.383,179.467,186.233,173.397,186.233,173.397z"/>
		<path class="st10" d="M118.423,173.397c0,0-8.74,12.67-15.9,31.11c-2.15-3.01-3.98-6.29-5.47-9.78l-2.51-5.91l-0.08-0.18
			c4.75-9.45,8.71-15.24,8.71-15.24H118.423z"/>
		<path class="st15" d="M195.283,189.327l-0.07,0.16l-2.23,5.24c-1.57,3.71-3.55,7.17-5.88,10.34
			c-7.19-18.74-16.11-31.67-16.11-31.67h15.24C186.233,173.397,190.383,179.467,195.283,189.327z"/>
		<path id="XMLID_498_" class="st3" d="M180.994,178.269h-72.549c-2.761,0-5-2.239-5-5v-5.356c0-2.761,2.239-5,5-5h72.549
			c2.761,0,5,2.239,5,5v5.356C185.994,176.03,183.756,178.269,180.994,178.269z"/>
		<path id="XMLID_497_" class="st7" d="M123.45,178.265h-15c-2.77,0-5-2.24-5-5v-5.35c0-2.76,2.23-5,5-5h15c-2.77,0-5,2.24-5,5v5.35
			C118.45,176.025,120.68,178.265,123.45,178.265z"/>
		<path id="XMLID_496_" class="st16" d="M185.99,167.915v5.35c0,2.76-2.23,5-5,5h-15c2.77,0,5-2.24,5-5v-5.35c0-2.76-2.23-5-5-5h15
			C183.76,162.915,185.99,165.155,185.99,167.915z"/>
	</g>
	<g>
		<path class="st8" d="M246.465,34.546L179.378,7.125l0.046-0.081c-13.372-7.476-22.575-6.108-45.631-6.108
			c-10.807,0-7.874-0.185-90.212,33.47c-6.891,2.301-10.456,9.902-7.838,16.664l15.551,52.478c3.262,11.029,18.705,12.2,23.548,1.72
			l11.181-24.191v21.492c-5.785,9.978-9.116,21.548-9.116,33.889v1.139c0,13.894,9.719,25.553,22.713,28.557
			c-0.113,0.569-0.175,1.157-0.175,1.759v3.866c-5.856,8.913-12.504,21.918-17.206,35.135c0.94-9.305-3.61-17.892-11.088-22.562
			c11.797-14.802,5.92-31.028,0.63-38.059c-0.705-0.937-1.785-1.518-2.956-1.588c-17.092-1.037-26.966,11.144-31.191,18.128
			c-15.733-10.389-36.8,0.971-36.8,19.829c0,9.158,5.214,17.116,12.825,21.078c-21.973,11.436-13.846,44.828,10.925,44.828
			c6.298,0,12.026-2.469,16.281-6.483c4.891,9.666,17.12,13.602,27.364,13.023c1.728-0.099,3.197-1.298,3.639-2.971
			c2.87-10.853-0.693-19.643-5.036-25.348c5.272-1.952,9.663-5.726,12.416-10.552c-3.081,10.787-5.163,22.736-4.859,34.977
			c0.054,2.17,1.828,3.901,3.999,3.901h132.635c2.171,0,3.945-1.731,3.999-3.901c0.95-38.346-21.424-73.92-25.028-79.392
			c0-4.188,0.049-4.549-0.176-5.676c12.978-3.016,22.681-14.667,22.681-28.549v-1.139c0-11.884-3.083-23.057-8.477-32.778V81.215
			l11.18,24.188c4.818,10.474,20.282,9.322,23.55-1.715l15.551-52.478C256.927,44.434,253.342,36.841,246.465,34.546z
			 M24.586,240.568c-8.685,0-15.75-7.065-15.75-15.75s7.065-15.75,15.75-15.75s15.75,7.065,15.75,15.75
			S33.27,240.568,24.586,240.568z M24.586,198.412c-8.685,0-15.75-7.065-15.75-15.75s7.065-15.75,15.75-15.75
			s15.75,7.065,15.75,15.75S33.27,198.412,24.586,198.412z M66.388,152.652c2.52,4.304,8.028,16.689-3.104,28.57
			c-4.949-0.992-10.213-0.409-14.959,1.881c0.003-0.147,0.011-0.293,0.011-0.44c0-5.313-1.754-10.224-4.713-14.185
			C46.179,163.807,53.501,152.933,66.388,152.652z M64.733,247.071c-5.54-0.362-16.737-2.459-18.119-13.39
			c0.978-2.422,1.571-5.039,1.695-7.777c2.713,1.312,5.712,2.118,8.876,2.307C59.542,230.194,66.076,236.707,64.733,247.071z
			 M58.611,220.257c-8.685,0-15.75-7.065-15.75-15.75s7.065-15.75,15.75-15.75s15.75,7.065,15.75,15.75
			S67.296,220.257,58.611,220.257z M184.468,43.633c0,9.772-7.95,17.723-17.723,17.723s-17.723-7.95-17.723-17.723
			s7.95-17.723,17.723-17.723S184.468,33.86,184.468,43.633z M93.946,63.935l5.244-11.345c3.645,9.78,13.076,16.766,24.111,16.766
			c9.128,0,17.156-4.784,21.722-11.973c4.566,7.189,12.594,11.973,21.723,11.973c11.006,0,20.416-6.95,24.082-16.691l5.196,11.241
			v28.325c-12.442-14.417-30.826-23.57-51.319-23.57c-20.143,0-38.252,8.84-50.68,22.832V63.935H93.946z M117.634,12.682
			c10.101-4.679,14.697-3.747,38.649-3.747c5.372,0,10.821,1.187,15.924,3.446l3.261,7.055c-2.725-0.985-5.662-1.525-8.723-1.525
			c-9.129,0-17.156,4.784-21.723,11.973c-6.553-10.315-19.276-14.528-30.522-10.421L117.634,12.682z M123.3,25.91
			c9.772,0,17.722,7.95,17.722,17.723s-7.95,17.723-17.722,17.723c-9.772,0-17.723-7.95-17.723-17.723S113.528,25.91,123.3,25.91z
			 M67.249,102.542c-2.213,3.149-7.202,2.387-8.285-1.268c-0.087-0.293-15.616-52.736-15.731-53.02
			c-1.04-2.556,0.316-5.444,2.942-6.28c0.233-0.074,60.312-24.638,60.539-24.731C106.581,17.53,67.43,102.284,67.249,102.542z
			 M207.033,247.114H82.379c0.357-18.076,6.135-35.562,11.943-48.718c9.275,19.545,28.928,32.052,50.701,32.052
			c11.052,0,21.757-3.221,30.959-9.315c8.364-5.539,15.018-13.129,19.402-22.066C201.092,212.144,206.683,229.342,207.033,247.114z
			 M190.863,189.496l-1.561,3.666c-3.699,8.699-9.832,16.065-17.738,21.3c-7.887,5.224-17.065,7.985-26.541,7.985
			c-19.332,0-36.716-11.496-44.289-29.286l-1.844-4.337c1.68-3.262,3.22-6.006,4.471-8.137c1.448,0.995,3.198,1.581,5.084,1.581
			h72.549c1.877,0,3.621-0.579,5.065-1.566C187.393,182.974,189.057,185.952,190.863,189.496z M107.446,173.269v-5.356
			c0-0.551,0.449-1,1-1h72.549c0.552,0,1,0.449,1,1v5.356c0,0.551-0.448,1-1,1h-72.549
			C107.894,174.269,107.446,173.82,107.446,173.269z M204.499,136.457v1.139c0,11.753-9.563,21.316-21.316,21.316h-2.188h-72.549
			h-2.223c-10.931,0-21.315-8.35-21.315-22.455c0-32.971,26.824-59.795,59.796-59.795S204.499,103.486,204.499,136.457z
			 M246.814,48.395c-0.139,0.339-15.801,53.353-15.963,53.679c-1.708,3.432-6.766,3.465-8.385-0.022l-18.443-39.904v-0.212h-0.098
			l-20.591-44.551c0.234,0.095,60.298,24.654,60.538,24.731C246.506,42.954,247.851,45.846,246.814,48.395z"/>
		<path class="st8" d="M179.412,123.698c-2.209,0-4,1.791-4,4c0,7.296-5.936,13.231-13.231,13.231
			c-6.211,0-11.421-4.307-12.838-10.087c12.632-0.677,22.702-11.165,22.702-23.964v-3.38c0-7.72-6.28-14-14-14h-24.038
			c-7.72,0-14,6.28-14,14v3.38c0,11.947,8.775,21.879,20.217,23.699c-1.319,5.914-6.6,10.352-12.906,10.352
			c-7.295,0-13.231-5.936-13.231-13.231c0-2.209-1.791-4-4-4s-4,1.791-4,4c0,11.707,9.524,21.231,21.231,21.231
			c7.216,0,13.593-3.626,17.432-9.143c3.838,5.518,10.216,9.143,17.432,9.143c11.707,0,21.231-9.524,21.231-21.231
			C183.412,125.489,181.621,123.698,179.412,123.698z M144.007,122.879c-8.822,0-16-7.178-16-16v-3.38c0-3.309,2.692-6,6-6h24.038
			c3.309,0,6,2.691,6,6v3.38c0,8.822-7.178,16-16,16H144.007z"/>
		<path class="st8" d="M20.419,173.436c0,3.745,8.333,3.77,8.333,0C28.752,169.691,20.419,169.665,20.419,173.436z"/>
		<path class="st8" d="M11.936,220.493c-2.01,5.133,3.288,7.209,5.298,2.075C19.245,217.435,13.948,215.358,11.936,220.493z"/>
		<path class="st8" d="M67.436,198.407c-3.599,1.033-1.324,9.05,2.299,8.01C73.334,205.384,71.06,197.367,67.436,198.407z"/>
		<circle class="st8" cx="125.803" cy="36.595" r="3.946"/>
		<path class="st8" d="M162.8,33.592c-2.179,0-3.946,1.767-3.946,3.946c0,2.179,1.767,3.946,3.946,3.946s3.946-1.766,3.946-3.946
			C166.746,35.359,164.979,33.592,162.8,33.592z"/>
		<path class="st8" d="M160.622,50.851c0,2.179,1.767,3.946,3.946,3.946s3.946-1.766,3.946-3.946c0-2.179-1.767-3.946-3.946-3.946
			S160.622,48.672,160.622,50.851z"/>
		<path class="st8" d="M173.731,46.905c2.179,0,3.946-1.766,3.946-3.946c0-2.179-1.767-3.946-3.946-3.946s-3.946,1.767-3.946,3.946
			C169.786,45.139,171.552,46.905,173.731,46.905z"/>
		<circle class="st8" cx="115.917" cy="45.483" r="3.946"/>
		
			<ellipse transform="matrix(0.9733 -0.2294 0.2294 0.9733 -7.9199 30.7358)" class="st8" cx="128.226" cy="49.429" rx="3.946" ry="3.946"/>
	</g>
</g>
</svg>
