<?xml version="1.0" encoding="utf-8"?>
<!-- Generator: Adobe Illustrator 22.1.0, SVG Export Plug-In . SVG Version: 6.00 Build 0)  -->
<svg version="1.1" id="Icon_Set" xmlns="http://www.w3.org/2000/svg" xmlns:xlink="http://www.w3.org/1999/xlink" x="0px" y="0px"
	 viewBox="0 0 256 256" style="enable-background:new 0 0 256 256;" xml:space="preserve">
<style type="text/css">
	.st0{fill:#5FCDFF;}
	.st1{fill:#87828E;}
	.st2{fill:#B76C6C;}
	.st3{fill:#FF4A73;}
	.st4{fill:#73D7F9;}
	.st5{fill:#30B6FF;}
	.st6{fill:#A4A4A5;}
	.st7{fill:#F973A3;}
	.st8{fill:#5F266D;}
	.st9{fill:#FFE2E2;}
	.st10{fill:#FFEFEE;}
	.st11{fill:#796E84;}
	.st12{fill:#3193F3;}
	.st13{fill:#35B1FC;}
	.st14{fill:#307FED;}
	.st15{fill:#FFCFCF;}
	.st16{fill:#EA2A6A;}
	.st17{fill:#44C7B6;}
	.st18{fill:#3BB2A0;}
	.st19{fill:#4BDBC3;}
	.st20{fill:#C98585;}
	.st21{fill:#965959;}
	.st22{fill:#FFBB98;}
	.st23{fill:#FFCAA6;}
	.st24{fill:#FFAA80;}
	.st25{fill:#F9D335;}
	.st26{fill:#F2C300;}
	.st27{fill:#F9E27D;}
</style>
<g>
	<g>
		<path class="st9" d="M127.85,123h-38.1L58.66,91.91c-1.41-1.42-3.72-1.32-5.04,0.18c-8.387,9.586-23.621,9.752-32.21-0.16
			c-9.404-10.786-5.142-29.636,9.24-34.28c0.01,0,0.01-0.01,0.01-0.01c2.61-0.89,5.35-1.26,8.07-1.11c2.03,0.11,3.71-1.57,3.6-3.6
			c-0.14-2.56,0.18-5.14,0.97-7.61c1.14-3.64,3.28-7.02,6.4-9.73c7.58-6.59,20.46-6.58,28.04,0.01c6.62,5.77,8.79,14.56,6.49,22.3
			c-1.181,3.975-3.474,7.41-6.33,9.91c-1.51,1.33-1.61,3.63-0.19,5.05l36.82,36.82L127.85,123z"/>
		<path class="st9" d="M233.77,92.82c-7.763,8.039-20.747,8.71-29.2,1.4h-0.01c-0.76-0.64-1.49-1.35-2.18-2.13
			c-1.32-1.5-3.63-1.6-5.05-0.18L166.24,123h-38.09c4.935-4.935,7.999-7.999,13.32-13.32l35.98-35.98c6.669-6.67-6.57-5.83-6.57-22
			c0-5.873,2.529-11.875,7.38-16.1c13.506-11.742,36.458-1.88,35.41,17.33c-0.11,2.03,1.57,3.71,3.6,3.6
			c3.87-0.21,7.79,0.63,11.29,2.52C241.921,66.14,242.404,84.184,233.77,92.82z"/>
		<path class="st9" d="M150.03,48.08c-0.33,0.05-0.66,0.1-0.99,0.14c-1.26,0.16-2.55,0.2-3.87,0.12c-2-0.12-3.7,1.43-3.7,3.44V123
			h-26.94V51.78c0-2.01-1.7-3.56-3.7-3.44c-3.739,0.254-9.208-0.784-13.26-3.62c-6.489-4.325-9.966-11.913-9.4-19.27
			c1.2-17.431,24.106-27.469,37.28-12.78c1.36,1.51,3.74,1.51,5.1,0c13.206-14.739,36.085-4.576,37.28,12.78
			C168.536,37.457,159.79,46.6,150.03,48.08z"/>
		<path class="st10" d="M51.14,94.47c-8.79,7.22-21.98,6.37-29.73-2.54c-8.692-9.97-6.2-29.066,9.25-34.29
			c-5.99,8.31-5.6,21.18,1.14,28.92C36.88,92.4,44.11,95.04,51.14,94.47z"/>
		<path class="st15" d="M84.23,57.9c-4.53-9.05-13.89-16-23.92-16.69c-6.25-0.44-12.11,1.12-17.01,4.11
			c1.14-3.64,3.28-7.02,6.4-9.73c7.58-6.59,20.46-6.58,28.04,0.01C84.36,41.37,86.53,50.16,84.23,57.9z"/>
		<path class="st10" d="M73.7,85.57L111.13,123H89.75L59.47,92.72l7.16-7.15C68.58,83.61,71.75,83.61,73.7,85.57z"/>
		<path class="st10" d="M129.65,57.97V123h-15.12V52.97h10.12C127.41,52.97,129.65,55.2,129.65,57.97z"/>
		<path class="st10" d="M184.6,87.93L149.54,123h-21.39c4.935-4.935,7.999-7.999,13.32-13.32l35.98-35.98l7.15,7.16
			C186.56,82.81,186.56,85.97,184.6,87.93z"/>
		<path class="st10" d="M100.12,27.08c-0.59,8.53,3.01,16.24,8.96,21.29c-12.12-0.25-21.76-10.56-20.91-22.92
			c0.784-11.382,12.722-22.614,26.27-19.31C106.65,10.24,100.72,18.38,100.12,27.08z"/>
		<path class="st15" d="M149.04,48.22c4.6-5.04,7.24-11.9,6.72-19.37c-0.65-9.47-7.49-18.27-16.22-22.13
			c14.375-4.974,27.467,6.783,28.29,18.73C168.63,37.08,160.14,46.9,149.04,48.22z"/>
		<path class="st10" d="M210.32,40.23c-17.718-6.223-35.345,6.043-35.37,24.11c-6.36-8.77-5.26-21.27,3.31-28.74
			C186.687,28.274,202.805,28.471,210.32,40.23z"/>
		<path class="st15" d="M234.59,91.93c-7.84,9.01-21.25,9.77-30.03,2.29c18.23,0.177,30.352-17.717,24-35.17
			C241.53,65.971,242.328,83.055,234.59,91.93z"/>
		<path class="st22" d="M234.37,219.355H21.631L49.914,123c1.25-4.258,5.157-7.183,9.595-7.183h136.983
			c4.438,0,8.345,2.925,9.595,7.184L234.37,219.355z"/>
		<path class="st23" d="M74.51,115.82c-4.44,0-8.35,2.92-9.6,7.18l-28.28,96.36h-15L49.91,123c1.25-4.26,5.16-7.18,9.6-7.18H74.51z"
			/>
		<path class="st24" d="M234.37,219.36h-15L191.09,123c-1.25-4.26-5.16-7.18-9.6-7.18h15c4.44,0,8.35,2.92,9.6,7.18L234.37,219.36z"
			/>
		<path class="st22" d="M241.051,250.442H14.949c-5.523,0-10-4.477-10-10v-18.409c0-5.523,4.477-10,10-10h226.103
			c5.523,0,10,4.477,10,10v18.409C251.051,245.965,246.575,250.442,241.051,250.442z"/>
		<path class="st23" d="M29.95,250.44h-15c-5.52,0-10-4.47-10-10v-18.41c0-5.52,4.48-10,10-10h15c-5.52,0-10,4.48-10,10v18.41
			C19.95,245.97,24.43,250.44,29.95,250.44z"/>
		<path class="st24" d="M251.05,222.03v18.41c0,5.53-4.48,10-10,10h-15c5.52,0,10-4.47,10-10v-18.41c0-5.52-4.48-10-10-10h15
			C246.57,212.03,251.05,216.51,251.05,222.03z"/>
		<path class="st2" d="M114.234,164.562c6.141-10.636,21.493-10.636,27.633,0c1.992,3.449,3.512,6.083,5.504,9.532
			c6.141,10.636-1.535,23.931-13.817,23.931c-3.983,0-7.023,0-11.006,0c-12.282,0-19.957-13.295-13.817-23.931
			C112.107,168.247,110.855,170.415,114.234,164.562z"/>
		<path class="st20" d="M135.55,197.9c-1.252,0.174-1.076,0.13-13,0.13c-12.28,0-19.96-13.3-13.82-23.94
			c3.38-5.849,2.126-3.677,5.5-9.53c4.55-7.87,14.15-9.92,21.32-6.12c-4.931,2.583-5.988,5.555-11.82,15.65
			C117.93,184.14,124.46,196.56,135.55,197.9z"/>
	</g>
	<g>
		<path class="st8" d="M241.05,208.03h-5.83l-25.3-86.16c-1.73-5.92-7.26-10.05-13.43-10.05h-13.41l16.67-16.67
			c10.937,11.425,28.152,10.543,37.86-0.59c12.966-14.88,3.86-42.736-19.92-42.05c0.657-22.849-26.431-33.523-42.05-19.93
			c-11.738,10.235-11.406,27.946-0.59,37.86l-29.58,29.58V52.36c15.555,0.483,27.2-12.408,26.38-26.611
			C170.647,4.883,144.016-7.463,128,9.53C112.325-7.101,85.6,4.507,84.18,25.17c-1.042,15.179,11.143,27.662,26.35,27.19v47.66
			L80.95,70.44c10.763-9.865,11.203-27.577-0.59-37.86c-15.323-13.35-42.719-3.347-42.05,19.93
			c-23.289-0.7-33.226,26.761-19.92,42.05c9.635,11.072,26.874,12.065,37.86,0.59l16.67,16.67H59.51c-6.17,0-11.7,4.13-13.43,10.05
			l-25.3,86.16h-5.83c-7.72,0-14,6.28-14,14v18.41c0,7.72,6.28,14,14,14h226.1c7.72,0,14-6.28,14-14v-18.41
			C255.05,214.31,248.77,208.03,241.05,208.03z M181.12,75.69c3.004-3.003,2.899-7.991-0.37-10.88
			c-7.884-6.974-7.835-19.25,0.14-26.19c10.528-9.158,29.649-2.088,28.78,14.09c-0.226,4.316,3.3,8.033,7.81,7.82
			c16.061-1.037,23.275,18.232,14.1,28.78c-7.224,8.275-19.748,7.705-26.2,0.13c-2.825-3.196-7.804-3.425-10.87-0.36l-22.74,22.74
			h-26.3C145.47,111.074,180.592,76.218,181.12,75.69z M110.59,44.35c-10.582,0.605-19.159-8.126-18.43-18.63
			c0.933-13.608,19.293-22.655,30.32-10.38c2.953,3.291,8.106,3.269,11.04,0c11.719-13.052,29.669-2.302,30.527,11.001
			c0.584,9.055-7.616,18.701-18.637,18.009c-4.204-0.267-7.94,3.05-7.94,7.43v56.24l-3.8,3.8h-11.34l-3.8-3.8V51.78
			C118.53,47.436,114.837,44.083,110.59,44.35z M61.49,89.08c-3.084-3.085-8.065-2.824-10.87,0.37
			c-6.866,7.763-19.153,7.933-26.2-0.14c-9.026-10.376-2.325-29.632,14.1-28.78c4.496,0.214,8.037-3.492,7.81-7.82
			c-1.011-16.157,18.307-23.217,28.78-14.09c7.443,6.477,8.559,18.429,0.14,26.2c-3.261,2.861-3.38,7.86-0.37,10.87
			c0.528,0.528,35.65,35.384,35.65,36.13h-26.3L61.49,89.08z M53.75,124.13c0.75-2.54,3.11-4.31,5.76-4.31
			c14.67,0,122.317,0,136.98,0c2.65,0,5.01,1.77,5.76,4.31l24.63,83.9H29.12L53.75,124.13z M247.05,240.44c0,3.31-2.69,6-6,6H14.95
			c-3.31,0-6-2.69-6-6v-18.41c0-3.31,2.69-6,6-6c15.049,0,218.435,0,226.1,0c3.31,0,6,2.69,6,6V240.44z"/>
		<path class="st8" d="M145.33,162.56c-8.093-13.897-27.055-12.848-34.56,0l-5.5,9.53c-7.692,13.317,1.92,29.94,17.28,29.94h11
			c15.383,0,24.961-16.642,17.28-29.94L145.33,162.56z M133.55,194.03h-11c-9.167,0-14.973-9.931-10.36-17.94l5.51-9.53
			c4.362-7.636,15.706-8.321,20.7,0l5.51,9.53C148.521,184.095,142.742,194.03,133.55,194.03z"/>
		<g>
			<path class="st8" d="M106.752,154.28c-1.578-5.521-7.273-11.623-12.64-9.68c-4.46,1.63-6.13,8.31-3.72,14.93
				c2.41,6.61,7.98,10.66,12.44,9.04C107.152,167,108.842,160.69,106.752,154.28z"/>
			<path class="st8" d="M161.892,144.6c-5.419-1.962-10.87,4.098-12.65,9.69c-2.08,6.4-0.38,12.7,3.93,14.27
				c4.46,1.63,10.03-2.42,12.44-9.04C168.012,152.9,166.352,146.22,161.892,144.6z"/>
		</g>
		<g>
			<path class="st8" d="M135.813,150.75c4.373,1.637,9.994-2.367,12.43-9.04c2.33-6.347,0.906-13.225-3.69-14.91
				c-0.01,0-0.01-0.01-0.02-0.01c-4.35-1.577-9.938,2.225-12.44,9.04C129.703,142.405,131.335,149.107,135.813,150.75z"/>
			<path class="st8" d="M107.763,141.71c2.664,7.247,8.397,10.508,12.43,9.05c4.578-1.716,6.069-8.484,3.72-14.92
				c-2.11-5.831-7.518-10.845-12.44-9.05C107.182,128.345,105.27,134.854,107.763,141.71z"/>
		</g>
		<path class="st8" d="M148.66,40.19c2.987,0,14.259-6.524,10.32-18.12c-1.723-5.001-9.292-2.397-7.57,2.6
			c1.286,3.709-0.854,6.251-4.41,7.88C143.107,34.332,144.382,40.19,148.66,40.19z"/>
		<path class="st8" d="M131.31,41.93h2.6c5.288,0,5.285-8,0-8h-2.6C126.025,33.93,126.017,41.93,131.31,41.93z"/>
	</g>
</g>
</svg>
