<?xml version="1.0" encoding="utf-8"?>
<!-- Generator: Adobe Illustrator 22.1.0, SVG Export Plug-In . SVG Version: 6.00 Build 0)  -->
<svg version="1.1" id="Icon_Set" xmlns="http://www.w3.org/2000/svg" xmlns:xlink="http://www.w3.org/1999/xlink" x="0px" y="0px"
	 viewBox="0 0 256 256" style="enable-background:new 0 0 256 256;" xml:space="preserve">
<style type="text/css">
	.st0{fill:#5FCDFF;}
	.st1{fill:#87828E;}
	.st2{fill:#B76C6C;}
	.st3{fill:#FF4A73;}
	.st4{fill:#73D7F9;}
	.st5{fill:#30B6FF;}
	.st6{fill:#A4A4A5;}
	.st7{fill:#F973A3;}
	.st8{fill:#5F266D;}
	.st9{fill:#FFE2E2;}
	.st10{fill:#FFEFEE;}
	.st11{fill:#796E84;}
	.st12{fill:#3193F3;}
	.st13{fill:#35B1FC;}
	.st14{fill:#307FED;}
	.st15{fill:#FFCFCF;}
	.st16{fill:#EA2A6A;}
	.st17{fill:#44C7B6;}
	.st18{fill:#3BB2A0;}
	.st19{fill:#4BDBC3;}
	.st20{fill:#C98585;}
	.st21{fill:#965959;}
	.st22{fill:#FFBB98;}
	.st23{fill:#FFCAA6;}
	.st24{fill:#FFAA80;}
	.st25{fill:#F9D335;}
	.st26{fill:#F2C300;}
	.st27{fill:#F9E27D;}
</style>
<g>
	<g>
		<path class="st2" d="M124.035,34.274v50.95c0,8.23-6.67,14.91-14.9,14.91h-61.76c-7.43,0-14.15-3.01-19.02-7.88
			c-13.489-13.489-9.062-36.564,8.8-43.92c3.15-1.29,6.6-2.01,10.22-2.01h5.17c1.65,0,3.14-0.67,4.22-1.76
			c1.07-1.07,1.74-2.56,1.74-4.2v-6.09c0-15.56,12.62-28.18,28.18-28.18h9.18C111.425,6.094,124.035,18.714,124.035,34.274z"/>
		<path class="st20" d="M98.775,6.244c-14.19,1.46-25.27,13.45-25.27,28.03v6.09c0,1.64-0.67,3.13-1.74,4.2
			c-1.08,1.09-2.57,1.76-4.22,1.76h-5.17c-3.62,0-7.07,0.72-10.22,2.01c-17.86,7.36-22.29,30.43-8.8,43.92
			c4.87,4.87,11.59,7.88,19.02,7.88h-15c-7.43,0-14.15-3.01-19.02-7.88c-13.49-13.49-9.06-36.56,8.8-43.92
			c3.15-1.29,6.6-2.01,10.22-2.01h5.17c1.65,0,3.14-0.67,4.22-1.76c1.07-1.07,1.74-2.56,1.74-4.2v-6.09
			c0-15.56,12.62-28.18,28.18-28.18h9.18C96.845,6.094,97.815,6.144,98.775,6.244z"/>
		<path class="st2" d="M114.717,8.923c-4.594-3.64-11.224,0.463-10.016,6.199l23.926,80.924c0.166,0.359,0.344,0.715,0.571,1.038
			c3.132,4.458,9.977,3.931,12.381-0.973c0.157-0.32,0.269-0.66,0.371-1.001l10.674-36.02c1.408-4.751,0.179-9.892-3.226-13.492
			L114.717,8.923z"/>
		<path class="st2" d="M63.967,136.474l-17.52,91.23h-15.98c-5.93,0-10.74,4.81-10.74,10.74v1.07c0,5.94,4.81,10.75,10.74,10.75
			h11.65h10.83c5.93,0,10.74-4.81,10.74-10.75l13.845-64.947L63.967,136.474z"/>
		<path class="st2" d="M171.831,166.131l-52.027-40.01H63.962v26.553l41.771,67.39c2.065,3.331-0.331,7.634-4.25,7.634h-6.994
			c-5.934,0-10.745,4.811-10.745,10.745v1.075c0,5.934,4.811,10.745,10.745,10.745h11.643h10.832h54.294
			c1.409,0,2.761-0.553,3.766-1.54l1.708-1.679C200.005,224.18,197.693,186.019,171.831,166.131z"/>
		<path class="st3" d="M119.804,126.121H63.962v-21.749c0-2.341,1.898-4.239,4.239-4.239h47.364c2.341,0,4.239,1.898,4.239,4.239
			V126.121z"/>
		<path class="st22" d="M66.675,100.134h-19.3c-7.43,0-14.15-3.01-19.02-7.88s-7.88-11.6-7.88-19.03c0-2.31,0.29-4.56,0.84-6.71
			c2.12-8.26,8.07-14.98,15.84-18.18c3.15-1.29,6.6-2.01,10.22-2.01h5.17c1.65,0,3.14-0.67,4.22-1.76v0.01
			C56.765,44.574,87.595,70.504,66.675,100.134z"/>
		<path class="st20" d="M116.485,227.703h-7c-5.932,0-10.74,4.808-10.74,10.74v1.07c0,5.94,4.81,10.75,10.74,10.75h-15
			c-5.932,0-10.74-4.808-10.74-10.74v-1.08c0-5.932,4.808-10.74,10.74-10.74h7c3.92,0,6.31-4.31,4.25-7.64l-41.77-67.39v-26.55h15
			v20.854c0,3.723,1.039,7.372,3.001,10.537l38.769,62.549C122.795,223.394,120.405,227.703,116.485,227.703z"/>
		<path class="st21" d="M251.147,155.333c-5.49-6.75-10.85-10.11-16.39-10.11c-1.43,0-2.88,0.22-4.34,0.67
			c-7.01,2.16-11.61,8.91-11.61,16.25v0.92c0,5.61-1.69,11.02-4.76,15.56c-0.79,1.17-2.18,2.18-3.74,3.02
			c-3.63,1.97-7.76,2.86-11.89,2.86h-11.36l0.008,0.03c-3.588-7.088-8.745-13.413-15.229-18.4l-52.03-40.01h-15l52.03,40.01
			c24.192,18.607,30.278,55.979,3.19,82.59c-1.01,0.99-2.36,1.54-3.77,1.54c15.93,0,16.695,0.494,18.77-1.54
			c12.717-12.493,18.133-27.391,17.771-41.61h15.911c8.5,0,16.2-3.45,21.78-9.02c5.57-5.58,9.02-13.28,9.02-21.79v-7.38
			c0-5.44,4.41-9.84,9.85-9.84c1.37,0,2.31-1.12,2.31-2.31C251.667,156.274,251.507,155.774,251.147,155.333z"/>
		<path class="st7" d="M83.205,100.134c-2.35,0-4.24,1.9-4.24,4.24v21.75h-15v-21.75c0-2.34,1.89-4.24,4.24-4.24H83.205z"/>
		<path class="st16" d="M119.805,104.374v21.75h-15v-21.75c0-2.34-1.9-4.24-4.24-4.24h15
			C117.905,100.134,119.805,102.034,119.805,104.374z"/>
		<path class="st20" d="M142.655,92.754c-0.458,1.544-0.766,2.712-1.07,3.36c-2.61,5.307-10.364,5.428-12.96-0.07l-23.92-80.92
			c-1.21-5.74,5.42-9.84,10.01-6.2l4.86,5.14c0.01,0.35,0.05,0.7,0.13,1.06L142.655,92.754z"/>
		<path class="st23" d="M62.375,100.134c-14.494,0-24.489,1.651-34.02-7.88c-4.341-4.341-6.67-9.978-6.67-11.03
			c-5.431-15.747,6.528-34.9,25.69-34.9h5.17c1.65,0,3.14-0.67,4.22-1.76v0.01c0,0,0.83,0.7,2.12,1.99
			c-2.35,0.29-4.61,0.9-6.73,1.77c-17.86,7.36-22.29,30.43-8.8,43.92C48.225,97.124,54.945,100.134,62.375,100.134z"/>
		<path class="st23" d="M62.375,100.134c-14.494,0-24.489,1.651-34.02-7.88c-4.341-4.341-6.67-9.978-6.67-11.03
			c-5.422-15.72,6.484-34.9,25.69-34.9h5.17c1.65,0,3.14-0.67,4.22-1.76v0.01c0,0,0.83,0.7,2.12,1.99c-2.35,0.29-4.61,0.9-6.73,1.77
			c-17.86,7.36-22.29,30.43-8.8,43.92C48.225,97.124,54.945,100.134,62.375,100.134z"/>
		<path class="st2" d="M41.291,54.009v2.009c0,6.588-5.342,11.924-11.924,11.924h-2.409c-2.045,0-3.965-0.513-5.646-1.425
			c2.123-8.264,8.073-14.989,15.847-18.185C39.556,49.108,41.291,51.35,41.291,54.009z"/>
		<path class="st3" d="M36.73,81.47L18.917,98.155c-3.56,3.19-9.04,2.89-12.24-0.67c-1.48-1.66-2.21-3.72-2.21-5.78
			c0-2.38,0.98-4.75,2.89-6.46L24.2,69.41C24.87,75.91,30.15,81.04,36.73,81.47z"/>
	</g>
	<g>
		<path class="st8" d="M93.097,41.632c0.953-1.993,0.11-4.381-1.883-5.334c-1.994-0.956-4.382-0.111-5.334,1.883
			c-0.699,1.46-2.754,4.22-4.191,4.287c-0.906,0.034-2.593-1.146-4.671-4.616c-1.135-1.896-3.59-2.511-5.486-1.377
			c-1.896,1.135-2.512,3.591-1.377,5.487C77.882,54.871,88.292,51.681,93.097,41.632z"/>
		<path class="st8" d="M254.25,152.393c-18.719-23.016-39.443-7.276-39.443,9.334c0,5.147-0.969,9.649-4.075,14.241
			c-0.738,1.092-5.371,4.119-12.315,4.119h-9.65c-3.904-7.163-9.278-13.53-15.897-18.621l-49.065-37.732v-19.78
			c0-1.994-0.713-3.824-1.896-5.251c0.961-0.884,1.831-1.861,2.593-2.924c2.945,9.961,16.311,10.568,20.671,1.674
			c0.49-1-0.201,1.125,11.288-37.645c1.808-6.098,0.216-12.756-4.154-17.377c-0.307-0.325-34.754-36.783-35.104-37.061
			c-2.873-2.277-6.582-2.827-9.899-1.593c-3.627-1.39-7.463-2.098-11.432-2.098h-9.18c-17.744,0-32.18,14.431-32.18,32.17v6.09
			c0,1.081-0.879,1.96-1.96,1.96h-5.17c-16.466,0-29.972,12.927-30.857,29.238L4.688,82.265c-5.146,4.609-5.716,12.59-0.986,17.894
			c2.493,2.773,5.943,4.19,9.417,4.19c3.031,0,6.082-1.078,8.532-3.274l5.37-5.03c5.637,4.953,12.788,7.666,20.359,7.666h12.594
			c-0.002,0.082-0.012,0.162-0.012,0.245v21.75v0.194c0,6.504-0.622,13.041-1.849,19.428l-14.971,77.96H30.467
			c-7.415,0-14.74,5.546-14.74,15.81c0,8.133,6.617,14.75,14.75,14.75h22.47c7.976,0,14.492-6.372,14.733-14.296l11.691-54.842
			l22.963,37.047c0.256,0.413,0.154,0.779,0.024,1.013s-0.388,0.514-0.874,0.514h-6.995c-7.42,0-14.745,5.549-14.745,15.819
			c0,8.13,6.615,14.745,14.745,14.745h76.14c2.879,0,5.595-1.111,7.646-3.127c10.84-10.65,17.105-24.986,17.675-40.022h12.756
			c9.286,0,18.024-3.619,24.611-10.194c11.384-11.405,10.189-23.883,10.189-31.996c0-3.22,2.624-5.84,5.85-5.84
			C254.668,162.667,257.589,156.471,254.25,152.393z M112.051,11.509l34.442,36.419c2.416,2.555,3.296,6.236,2.297,9.608
			l-10.674,36.021c-0.79,2.666-4.639,2.83-5.742,0.632l-23.781-80.433C108.272,11.813,110.463,10.448,112.051,11.509z M62.51,33.85
			c0-13.327,10.847-24.17,24.18-24.17h9.18c1.769,0,3.501,0.187,5.184,0.555c-0.537,1.662-0.65,3.475-0.267,5.294
			c0.022,0.104,0.048,0.208,0.078,0.31l19.174,64.852v4.119c0,6.01-4.89,10.9-10.9,10.9H73.735
			c12.125-24.261-5.137-45.306-11.891-52.218C62.682,41.306,62.51,40.392,62.51,33.85z M115.804,103.955v17.75H67.962v-17.75
			c0-0.132,0.107-0.239,0.239-0.239h47.364C115.697,103.716,115.804,103.823,115.804,103.955z M36.916,52.437
			c0.536,0.728,0.375,1.44,0.375,3.164c0,4.37-3.555,7.924-7.924,7.924c-0.451,0-2.511,0.009-2.918-0.016
			C28.516,58.873,32.169,54.892,36.916,52.437z M16.247,95.176c-4.561,4.085-10.887-2.768-6.151-7.017l12.277-11.542
			c1.56,2.772,3.851,5.063,6.615,6.624L16.247,95.176z M32.896,90.542l5.417-5.074c9.318-0.37,16.789-8.043,16.789-17.45
			c0-2.209-1.791-4-4-4s-4,1.791-4,4c0,10.502-14.466,13.072-18.29,3.508c10.057,0,16.479-7.674,16.479-15.924
			c0-2.161,0.113-3.51-0.643-5.521c4.827-0.575,8.215,0.462,11.604-0.902c13.106,13.258,18.58,30.382,8.283,46.532
			C47.044,95.71,40.709,96.939,32.896,90.542z M172.668,245.013c-0.547,0.538-1.271,0.833-2.039,0.833h-76.14
			c-9.004,0-9.028-14.564,0-14.564h6.995c3.263,0,6.276-1.771,7.864-4.623c1.587-2.852,1.505-6.346-0.214-9.119l-28.202-45.499
			c-0.86-1.388-2.479-2.108-4.086-1.833c-1.609,0.28-2.886,1.51-3.226,3.107c-14.819,69.516-13.933,65.125-13.933,65.781
			c0,3.722-3.023,6.75-6.74,6.75h-22.47c-9.012,0-9.029-14.56-0.01-14.56h15.98c1.918,0,3.566-1.362,3.928-3.246l15.595-81.206
			c1.083-5.638,1.729-11.385,1.927-17.131h50.547l49.548,38.104C192.669,186.785,194.852,223.218,172.668,245.013z M235.507,168.507
			v7.38c0,14.853-12.02,26.81-26.8,26.81h-13c-0.491-5.036-1.619-9.938-3.328-14.61c6.408,0,12.736,0.508,19.825-3.338
			c2.382-1.283,4.069-2.69,5.157-4.301c4.081-6.036,5.446-12.115,5.446-18.721c0-7.199,5.617-12.92,11.95-12.92
			c3.596,0,7.288,2.055,11.233,6.273C239.975,156.587,235.507,162.035,235.507,168.507z"/>
		<path class="st8" d="M150.933,166.069l-3.624-2.555c-1.806-1.274-4.302-0.841-5.574,0.964c-1.273,1.806-0.841,4.301,0.964,5.574
			l3.624,2.555C150.656,175.663,155.234,169.102,150.933,166.069z"/>
		<path class="st8" d="M135.049,154.871l-16.346-11.524c-1.805-1.274-4.301-0.842-5.574,0.964c-1.273,1.805-0.841,4.301,0.964,5.574
			l16.346,11.524c1.803,1.272,4.3,0.843,5.574-0.964C137.286,158.639,136.854,156.144,135.049,154.871z"/>
		<path class="st8" d="M14.593,27.877l31.324,10.74c5.061,1.737,7.546-5.87,2.595-7.567L17.203,20.315
			c-5.808-2.018-8.985-8.417-7.082-14.263c0.684-2.101-0.465-4.358-2.565-5.042C-0.903-1.738-2.169,22.054,14.593,27.877z"/>
		<path class="st8" d="M3.353,39.216l19.298,7.688c2.044,0.815,4.376-0.176,5.196-2.235c0.818-2.052-0.183-4.379-2.235-5.196
			L6.314,31.784c-2.051-0.818-4.378,0.183-5.196,2.235C0.3,36.072,1.301,38.398,3.353,39.216z"/>
	</g>
</g>
</svg>
