<?xml version="1.0" encoding="utf-8"?>
<!-- Generator: Adobe Illustrator 22.1.0, SVG Export Plug-In . SVG Version: 6.00 Build 0)  -->
<svg version="1.1" id="Icon_Set" xmlns="http://www.w3.org/2000/svg" xmlns:xlink="http://www.w3.org/1999/xlink" x="0px" y="0px"
	 viewBox="0 0 256 256" style="enable-background:new 0 0 256 256;" xml:space="preserve">
<style type="text/css">
	.st0{fill:#5FCDFF;}
	.st1{fill:#87828E;}
	.st2{fill:#B76C6C;}
	.st3{fill:#FF4A73;}
	.st4{fill:#73D7F9;}
	.st5{fill:#30B6FF;}
	.st6{fill:#A4A4A5;}
	.st7{fill:#F973A3;}
	.st8{fill:#5F266D;}
	.st9{fill:#FFE2E2;}
	.st10{fill:#FFEFEE;}
	.st11{fill:#796E84;}
	.st12{fill:#3193F3;}
	.st13{fill:#35B1FC;}
	.st14{fill:#307FED;}
	.st15{fill:#FFCFCF;}
	.st16{fill:#EA2A6A;}
	.st17{fill:#44C7B6;}
	.st18{fill:#3BB2A0;}
	.st19{fill:#4BDBC3;}
	.st20{fill:#C98585;}
	.st21{fill:#965959;}
	.st22{fill:#FFBB98;}
	.st23{fill:#FFCAA6;}
	.st24{fill:#FFAA80;}
	.st25{fill:#F9D335;}
	.st26{fill:#F2C300;}
	.st27{fill:#F9E27D;}
</style>
<g>
	<g>
		<circle id="XMLID_34_" class="st0" cx="24.733" cy="30.434" r="19.365"/>
	</g>
	<g>
		<path class="st4" d="M32.231,48.295c-2.31,0.96-4.84,1.5-7.5,1.5c-10.69,0-19.36-8.67-19.36-19.36c0-10.7,8.67-19.37,19.36-19.37
			c2.66,0,5.19,0.54,7.5,1.5c-6.96,2.94-11.86,9.83-11.86,17.87C20.371,38.465,25.271,45.355,32.231,48.295z"/>
	</g>
	<path id="XMLID_161_" class="st9" d="M163.777,238.84H91.024c-27.614,0-50-22.386-50-50v-32.87h172.752v32.87
		C213.777,216.454,191.391,238.84,163.777,238.84z"/>
	<circle id="XMLID_33_" class="st0" cx="21.062" cy="81.728" r="13.895"/>
	<circle id="XMLID_92_" class="st0" cx="222.834" cy="24.212" r="13.895"/>
	<circle id="XMLID_32_" class="st0" cx="230.264" cy="121.349" r="13.895"/>
	<circle id="XMLID_90_" class="st0" cx="236.732" cy="68.697" r="13.895"/>
	<circle id="XMLID_89_" class="st0" cx="25.306" cy="125.131" r="13.895"/>
	<path class="st22" d="M57.875,31.686c-3.334-0.881-6.38,2.166-5.499,5.499c8.462,31.88,6.951,21.865,15.237,53.065l36.519-46.513
		C80.888,37.572,89.404,40.055,57.875,31.686z"/>
	<path class="st22" d="M196.364,31.687c-31.531,8.366-23.057,5.868-46.295,12.032h-0.009l36.563,46.456
		c8.285-31.199,6.775-21.108,15.24-52.989C202.744,33.853,199.698,30.806,196.364,31.687z"/>
	<path class="st4" d="M28.571,93.425c-2.16,1.4-4.74,2.2-7.51,2.2c-7.67,0-13.89-6.22-13.89-13.9c0-7.67,6.22-13.89,13.89-13.89
		c2.77,0,5.35,0.81,7.51,2.2c-3.85,2.46-6.4,6.78-6.4,11.69C22.171,86.645,24.721,90.965,28.571,93.425z"/>
	<path class="st4" d="M32.811,136.825c-2.16,1.4-4.74,2.2-7.51,2.2c-7.67,0-13.89-6.22-13.89-13.89c0-7.68,6.22-13.9,13.89-13.9
		c2.77,0,5.35,0.81,7.51,2.2c-3.85,2.46-6.4,6.78-6.4,11.7C26.411,130.045,28.961,134.365,32.811,136.825z"/>
	<path class="st4" d="M237.771,133.045c-2.16,1.4-4.74,2.2-7.51,2.2c-7.67,0-13.89-6.22-13.89-13.9c0-7.67,6.22-13.89,13.89-13.89
		c2.77,0,5.35,0.81,7.51,2.2c-3.85,2.46-6.4,6.78-6.4,11.69C231.371,126.265,233.921,130.585,237.771,133.045z"/>
	<path class="st4" d="M244.221,80.395c-3.19,2.05-7.2,2.79-11.15,1.71c-7.4-2.03-11.76-9.66-9.74-17.07
		c2.02-7.4,9.66-11.76,17.06-9.74c1.4,0.38,2.68,0.96,3.84,1.71c-2.79,1.79-4.96,4.58-5.9,8.03
		C236.691,71.045,239.251,77.196,244.221,80.395z"/>
	<path class="st4" d="M230.331,35.915c-3.19,2.04-7.21,2.78-11.16,1.7c-7.4-2.02-11.76-9.66-9.74-17.06
		c2.02-7.4,9.66-11.77,17.06-9.75c1.4,0.38,2.69,0.97,3.85,1.71c-2.8,1.79-4.96,4.58-5.91,8.04
		C222.791,26.555,225.351,32.725,230.331,35.915z"/>
	<path class="st10" d="M106.021,238.835h-15c-27.61,0-50-22.38-50-50v-32.87h15v32.87
		C56.021,216.455,78.411,238.835,106.021,238.835z"/>
	<path class="st15" d="M213.781,155.965v32.87c0,27.62-22.39,50-50,50h-15c27.61,0,50-22.38,50-50v-32.87H213.781z"/>
	<path id="XMLID_29_" class="st9" d="M231.068,160.406v8.151c0,2.45-1.987,4.436-4.437,4.436H28.17
		c-2.451,0-4.437-1.986-4.437-4.436v-8.151c0-2.45,1.987-4.436,4.437-4.436h198.461C229.082,155.97,231.068,157.956,231.068,160.406
		z"/>
	<path class="st10" d="M43.171,172.995h-15c-2.45,0-4.44-1.99-4.44-4.44v-8.15c0-2.45,1.99-4.44,4.44-4.44h15
		c-2.45,0-4.44,1.99-4.44,4.44v8.15C38.731,171.006,40.721,172.995,43.171,172.995z"/>
	<path class="st15" d="M231.071,160.405v8.15c0,2.45-1.99,4.44-4.44,4.44h-15c2.45,0,4.44-1.99,4.44-4.44v-8.15
		c0-2.45-1.99-4.44-4.44-4.44h15C229.081,155.965,231.071,157.955,231.071,160.405z"/>
	<path id="XMLID_154_" class="st22" d="M63.2,172.994h-16c-5.523,0-10-4.477-10-10v-5.245c0-8.284,6.716-15,15-15h6
		c8.284,0,15,6.716,15,15v5.245C73.2,168.517,68.723,172.994,63.2,172.994z"/>
	<path id="XMLID_28_" class="st22" d="M207.601,172.994h-16c-5.523,0-10-4.477-10-10v-5.245c0-8.284,6.716-15,15-15h6
		c8.284,0,15,6.716,15,15v5.245C217.601,168.517,213.124,172.994,207.601,172.994z"/>
	<circle id="XMLID_15_" class="st0" cx="219.273" cy="219.476" r="25.755"/>
	<path class="st4" d="M226.771,244.126c-2.37,0.72-4.89,1.11-7.5,1.11c-14.22,0-25.75-11.54-25.75-25.76
		c0-14.22,11.53-25.75,25.75-25.75c2.61,0,5.13,0.39,7.5,1.11c-10.56,3.21-18.25,13.03-18.25,24.64S216.211,240.915,226.771,244.126
		z"/>
	<g>
		<path id="XMLID_14_" class="st22" d="M187.772,99.038c0,3.856-0.355,7.63-1.046,11.285c-5.293,28.291-30.128,49.642-59.881,49.642
			c-33.64,0-60.927-27.27-60.927-60.927c0-32.664,26.14-60.927,61.345-60.927c34.233,0.504,59.833,27.639,60.49,59.636
			C187.772,98.174,187.772,98.61,187.772,99.038z"/>
		<path class="st23" d="M133.702,159.584c-2.246,0.255-4.538,0.382-6.857,0.382c-33.637,0-60.927-27.272-60.927-60.927
			c0-32.664,26.144-60.927,61.345-60.927c2.173,0.036,4.31,0.173,6.411,0.409c-31.491,3.556-54.116,30.136-54.116,60.518
			C79.559,130.402,103.257,156.219,133.702,159.584z"/>
		<path class="st24" d="M187.772,99.038c0,3.856-0.355,7.63-1.046,11.285c-5.292,28.29-30.127,49.642-59.881,49.642
			c-2.292,0-4.547-0.127-6.766-0.382c26.644-3.001,48.123-23.18,53.006-49.26c0.691-3.656,1.046-7.429,1.046-11.285
			c0-0.427,0-0.864-0.018-1.291c-0.609-29.972-23.098-55.671-54.079-59.226c2.364-0.273,4.774-0.409,7.229-0.409
			c34.237,0.5,59.836,27.635,60.49,59.636C187.772,98.175,187.772,98.611,187.772,99.038z"/>
		<path id="XMLID_13_" class="st20" d="M187.772,99.038c0,3.856-0.355,7.63-1.046,11.285c-0.909,0.055-1.828,0.073-2.746,0.073
			c-32.237,0-58.381-26.135-58.381-58.39c0-4.783,0.573-9.439,1.664-13.895c34.233,0.504,59.833,27.639,60.49,59.636
			C187.772,98.174,187.772,98.61,187.772,99.038z"/>
		<path class="st21" d="M127.264,38.112c-0.127,0.527-0.246,1.055-0.364,1.582c31.726,7.278,51.813,38.051,46.35,69.721
			c3.474,0.646,7.066,0.982,10.73,0.982c0.918,0,1.837-0.018,2.746-0.073C193.644,73.737,166.264,38.681,127.264,38.112z"/>
	</g>
	<path class="st4" d="M179.041,30.946c0,11.43-9.27,20.7-20.71,20.7c-3.32,0-6.44-0.78-9.22-2.17c-0.37,1.25-0.84,2.45-1.42,3.6
		c-3.69,7.47-11.38,12.62-20.29,12.62c-10.28,0-18.94-6.85-21.71-16.22c-2.78,1.39-5.9,2.17-9.22,2.17
		c-11.44,0-20.71-9.27-20.71-20.7c0-0.91,0.06-1.81,0.18-2.69c1.32-10.16,10-18.01,20.53-18.01c5.09,0,9.74,1.84,13.35,4.89
		c3.65-5.88,10.15-9.81,17.58-9.81c7.43,0,13.93,3.93,17.58,9.81c3.61-3.05,8.26-4.89,13.35-4.89
		C169.771,10.245,179.041,19.515,179.041,30.946z"/>
	<path class="st0" d="M179.041,30.946c0,11.43-9.27,20.7-20.71,20.7c-3.32,0-6.44-0.78-9.22-2.17c-0.37,1.25-0.84,2.45-1.42,3.6
		c-16.71-0.8-30.57-10.07-35.15-22.55c-4.8,1.94-10.21,3.03-15.94,3.03c-7.7,0-14.82-1.96-20.66-5.3
		c1.32-10.16,10-18.01,20.53-18.01c5.09,0,9.74,1.84,13.35,4.89c3.65-5.88,10.15-9.81,17.58-9.81c7.43,0,13.93,3.93,17.58,9.81
		c3.61-3.05,8.26-4.89,13.35-4.89C169.771,10.245,179.041,19.515,179.041,30.946z"/>
	<path id="XMLID_30_" class="st2" d="M130.626,113.89c-1.799,2.244-5.213,2.244-7.012,0l-4.056-5.061l-1.709-2.132
		c-2.357-2.941-0.263-7.303,3.506-7.303h5.765h5.765c3.769,0,5.863,4.362,3.506,7.303l-1.709,2.132L130.626,113.89z"/>
	<path class="st23" d="M62.2,172.99h-15c-5.52,0-10-4.47-10-10v-5.24c0-8.29,6.72-15,15-15h6c1.57,0,3.08,0.24,4.5,0.68
		c-6.08,1.92-10.5,7.6-10.5,14.32v5.24C52.2,168.52,56.68,172.99,62.2,172.99z"/>
	<path class="st23" d="M206.6,172.99h-15c-5.52,0-10-4.47-10-10v-5.24c0-8.29,6.72-15,15-15h6c1.57,0,3.08,0.24,4.5,0.68
		c-6.08,1.92-10.5,7.6-10.5,14.32v5.24C196.6,168.52,201.08,172.99,206.6,172.99z"/>
	<g>
		<path class="st8" d="M21.061,99.625c9.87,0,17.9-8.03,17.9-17.9c0-9.86-8.03-17.89-17.9-17.89c-9.87,0-17.89,8.03-17.89,17.89
			C3.171,91.595,11.191,99.625,21.061,99.625z M21.061,71.835c5.46,0,9.9,4.44,9.9,9.89c0,5.46-4.44,9.9-9.9,9.9
			c-5.45,0-9.89-4.44-9.89-9.9C11.171,76.275,15.611,71.835,21.061,71.835z"/>
		<path class="st8" d="M24.731,53.795c12.89,0,23.37-10.48,23.37-23.36c0-12.88-10.48-23.37-23.37-23.37
			c-12.88,0-23.36,10.49-23.36,23.37C1.371,43.315,11.851,53.795,24.731,53.795z M24.731,15.065c8.47,0,15.37,6.9,15.37,15.37
			c0,8.47-6.9,15.36-15.37,15.36c-8.47,0-15.36-6.89-15.36-15.36C9.371,21.965,16.261,15.065,24.731,15.065z"/>
		<path class="st8" d="M217.771,189.765c0.016-0.507,0.01-12.262,0.01-12.77h8.85c4.65,0,8.44-3.78,8.44-8.43v-8.16
			c0-4.65-3.79-8.44-8.44-8.44h-5.94c-2.44-7.66-9.63-13.22-18.09-13.22h-6c-8.46,0-15.65,5.56-18.09,13.22h-14.52
			c9.85-6.904,18.038-16.843,22.76-28.76c0.574,0.094,18.099,3.01,18.68,3.01c4.883,0,5.46-7.166,0.64-7.94l-16.79-2.76
			c1.36-5.24,2.04-10.66,2.04-16.12c0-0.13,0-0.26-0.01-0.38l14.96-3.26c5.156-1.122,3.49-8.93-1.7-7.82l-13.81,3.01
			c-0.01-0.16-0.03-0.33-0.07-0.5c7.969-29.94,6.696-20.773,15.04-52.24c1.667-6.328-4.119-12.054-10.39-10.38
			c-5.03,1.34-9.03,2.39-12.3,3.24v-0.12c0-19.025-20.774-30.953-37.18-21.31c-9.806-11.092-27.134-11.07-36.92,0
			c-16.401-9.64-37.18,2.28-37.18,21.31c0,0.09,0,0.18,0.01,0.27c-3.38-0.88-7.55-1.98-12.87-3.4
			c-6.268-1.652-12.059,4.044-10.39,10.4c6.34,23.893,15.147,49.91,14.97,52.73l-13.81-3.01c-5.177-1.107-6.864,6.696-1.7,7.82
			l14.95,3.26c-0.077,1-0.086,8.315,2.05,16.5l-16.8,2.76c-4.821,0.774-4.242,7.94,0.64,7.94c0.565,0,18.121-2.918,18.68-3.01
			c4.508,11.263,12.3,21.43,22.76,28.76h-13.96c-2.44-7.66-9.63-13.22-18.09-13.22h-6c-8.46,0-15.65,5.56-18.09,13.22h-5.94
			c-4.65,0-8.44,3.79-8.44,8.44v8.16c0,4.65,3.79,8.43,8.44,8.43h8.85v11.84c0,24.53,16.43,45.28,38.87,51.84l-5.6,5.6
			c-4.554,4.578,2.347,11.463,6.91,6.9l10.45-10.45c2.659,0.168,76.617,0.182,79.5,0l10.45,10.45c4.565,4.565,11.463-2.324,6.91-6.9
			l-5.6-5.6c5.17-1.51,10.02-3.78,14.42-6.67c5.08,9.08,14.81,15.23,25.94,15.23c16.41,0,29.76-13.35,29.76-29.76
			C249.031,202.171,234.276,188.776,217.771,189.765z M219.271,241.235c-12.039,0-21.533-9.793-21.73-21.19
			c-0.842-7.987,5.847-20.705,19.48-22.21c13.292-1.257,24.01,9.113,24.01,21.64C241.031,231.475,231.271,241.235,219.271,241.235z
			 M163.781,234.835h-72.76c-25.213,0-46-20.492-46-46v-11.84c5.903,0,158.244,0,164.76,0c0,12.78,0.023,12.779-0.07,14.31
			c-14.522,4.927-22.984,20.21-19.37,35.07C182.54,231.899,173.309,234.835,163.781,234.835z M28.171,168.995
			c-0.24,0-0.44-0.19-0.44-0.43v-8.16c0-0.24,0.2-0.44,0.44-0.44h5.03c0,3.243-0.222,5.742,1.35,9.03H28.171z M52.201,146.745h6
			c6.057,0,11,4.916,11,11c0,0.61,0-0.884,0,5.25c0,2.25-1.24,4.21-3.07,5.24c0-4.589,0-5.733,0-10.36c0-5.25-8-5.318-8,0
			c0,3.947,0,7.178,0,11.12h-5.86c0-3.952,0-7.137,0-11.12c0-5.325-8-5.248-8,0c0,4.628,0,5.771,0,10.36
			c-1.83-1.03-3.07-2.99-3.07-5.24c0-6.109,0-4.637,0-5.25C41.201,151.662,46.142,146.745,52.201,146.745z M177.601,159.965
			c0,3.243-0.222,5.742,1.35,9.03h-103.1c0.87-1.82,1.35-3.86,1.35-6v-3.03C98.123,159.965,154.066,159.965,177.601,159.965z
			 M196.601,146.745h6c6.058,0,11,4.916,11,11c0,0.61,0-0.884,0,5.25c0,2.25-1.24,4.21-3.07,5.24c0-4.589,0-5.733,0-10.36
			c0-5.317-8-5.253-8,0c0,3.947,0,7.178,0,11.12h-5.86c0-3.952,0-7.137,0-11.12c0-5.322-8-5.251-8,0c0,4.628,0,5.771,0,10.36
			c-1.83-1.03-3.07-2.99-3.07-5.24c0-6.109,0-4.637,0-5.25C185.601,151.677,190.529,146.745,196.601,146.745z M226.631,159.965
			c0.24,0,0.44,0.2,0.44,0.44v8.16c0,0.24-0.2,0.43-0.44,0.43h-6.38c1.554-3.251,1.35-5.683,1.35-9.03H226.631z M197.381,35.555
			c0.388-0.097,0.718,0.258,0.62,0.6c-6.735,25.38-7.064,23.788-11.42,39.02c-3.56-8.69-9.02-16.51-15.87-22.86
			c4.86-2.82,8.67-7.25,10.7-12.55C185.251,38.765,190.291,37.435,197.381,35.555z M107.241,18.195c1.806,1.54,4.658,1.16,5.98-0.95
			c6.562-10.567,21.808-10.551,28.36,0c1.32,2.108,4.172,2.491,5.98,0.95c11.548-9.783,29.411-0.188,27.33,14.99
			c-1.537,11.447-13.991,17.768-23.99,12.71c-2.277-1.138-4.951,0.131-5.63,2.44c-5.228,17.734-30.514,17.729-35.74,0
			c-0.736-2.399-3.423-3.543-5.63-2.44c-10.224,5.112-22.335-1.409-23.97-12.55C77.763,17.987,95.69,8.41,107.241,18.195z
			 M56.241,36.165c-0.096-0.385,0.249-0.713,0.61-0.61c7.47,1.98,12.68,3.35,16.6,4.37c1.99,5.07,5.61,9.34,10.22,12.14
			c-6.98,6.37-12.47,14.25-16.04,23.11C63.395,60.287,62.995,61.602,56.241,36.165z M75.601,121.865l14.32-2.35
			c5.204-0.835,3.943-8.73-1.29-7.89l-15.74,2.59c-1.19-4.37-1.85-8.89-1.95-13.46c18.419,4.015,17.61,3.9,18.34,3.9
			c4.755,0,5.494-6.897,0.84-7.91l-18.8-4.09c1.755-14.781,9.471-28.21,21-37.37c3.497,0.622,7.408,0.458,11.1-0.63
			c9.739,19.987,38.211,20.008,47.96,0c3.562,1.05,7.336,1.23,10.65,0.71c11.902,9.486,19.233,23.088,20.89,37.28l-18.81,4.1
			c-5.053,1.1-3.59,8.917,1.71,7.82l17.48-3.81c-0.1,4.57-0.76,9.08-1.95,13.46l-15.74-2.59c-5.198-0.862-6.523,7.05-1.29,7.89
			l14.34,2.36c-5.968,13.699-17.38,24.689-31.63,30.09h-39.82C93.606,146.809,81.888,136.262,75.601,121.865z"/>
		<path class="st8" d="M226.911,225.545c-0.02,0.02-0.05,0.05-0.07,0.08c-0.31,0.38-0.66,0.74-1.02,1.08
			c-3.935,3.551,1.502,9.483,5.37,5.92c0.66-0.6,1.29-1.25,1.85-1.95C236.331,226.657,230.355,221.51,226.911,225.545z"/>
		<path class="st8" d="M235.571,212.435c-2.82-6.51-9.22-10.71-16.3-10.71c-5.295,0-5.323,8,0,8c3.786,0,7.38,2.232,8.96,5.89
			C230.343,220.522,237.685,217.288,235.571,212.435z"/>
		<path class="st8" d="M218.121,41.475c9.429,2.582,19.364-2.965,21.98-12.55c2.59-9.52-3.04-19.38-12.56-21.98
			c-9.51-2.59-19.37,3.03-21.97,12.56C202.971,29.015,208.601,38.875,218.121,41.475z M213.291,21.605
			c1.449-5.301,6.943-8.376,12.15-6.94c5.26,1.44,8.38,6.89,6.94,12.15c-1.44,5.26-6.89,8.38-12.15,6.94
			C214.961,32.325,211.851,26.865,213.291,21.605z"/>
		<path class="st8" d="M230.261,139.245c9.87,0,17.9-8.03,17.9-17.9c0-9.86-8.03-17.89-17.9-17.89
			C206.612,103.455,206.623,139.245,230.261,139.245z M230.261,111.455c5.46,0,9.9,4.44,9.9,9.89c0,5.46-4.44,9.9-9.9,9.9
			c-5.45,0-9.89-4.44-9.89-9.9C220.371,115.895,224.811,111.455,230.261,111.455z"/>
		<path class="st8" d="M241.441,51.435c-9.546-2.609-19.363,3.01-21.97,12.55c-2.614,9.563,3.024,19.387,12.55,21.97
			c9.556,2.617,19.381-3.064,21.97-12.55C256.599,63.86,250.98,54.043,241.441,51.435z M246.281,71.305
			c-1.44,5.26-6.89,8.37-12.15,6.94c-5.27-1.44-8.38-6.89-6.94-12.15c1.428-5.277,6.878-8.394,12.15-6.94
			C244.6,60.579,247.712,66.018,246.281,71.305z"/>
		<path class="st8" d="M43.201,125.135c0-9.87-8.03-17.9-17.89-17.9c-9.87,0-17.9,8.03-17.9,17.9c0,9.86,8.03,17.89,17.9,17.89
			C35.171,143.025,43.201,134.995,43.201,125.135z M35.201,125.135c0,5.45-4.44,9.89-9.89,9.89c-5.46,0-9.9-4.44-9.9-9.89
			c0-5.46,4.44-9.9,9.9-9.9C30.761,115.235,35.201,119.675,35.201,125.135z"/>
		<path class="st8" d="M158.921,118.395c0-5.285-8-5.293-8,0c0,5.41-4.4,9.82-9.82,9.82c-5.38,0-9.77-4.36-9.82-9.73
			c1.853-1.025,2.055-1.571,8.23-9.29c4.454-5.557,0.498-13.8-6.63-13.8h-11.53c-7.123,0-11.071,8.247-6.62,13.8
			c6.186,7.733,6.381,8.267,8.23,9.29c-0.05,5.37-4.44,9.73-9.82,9.73c-5.42,0-9.82-4.41-9.82-9.82c0-5.285-8-5.293-8,0
			c0,9.82,7.99,17.82,17.82,17.82c5.66,0,10.72-2.66,13.98-6.8c3.26,4.14,8.31,6.8,13.98,6.8
			C150.931,136.215,158.921,128.215,158.921,118.395z M120.971,104.195c-0.251-0.293-0.063-0.8,0.38-0.8h11.53
			c0.44,0,0.648,0.498,0.39,0.8l-5.77,7.19c-0.19,0.25-0.57,0.25-0.77,0L120.971,104.195z"/>
		<path class="st8" d="M106.121,84.065c4.163,3.25,9.082-3.094,4.9-6.32c-11.4-8.83-22.14-3.67-26.22,0.29
			c-3.735,3.617,1.669,9.375,5.54,5.77C91.061,83.135,97.581,77.455,106.121,84.065z"/>
		<path class="st8" d="M148.431,83.805c0.71-0.67,7.24-6.35,15.78,0.26c4.162,3.25,9.067-3.087,4.9-6.32
			c-11.4-8.83-22.14-3.67-26.23,0.29C139.151,81.669,144.551,87.396,148.431,83.805z"/>
	</g>
</g>
</svg>
