<?xml version="1.0" encoding="utf-8"?>
<!-- Generator: Adobe Illustrator 22.1.0, SVG Export Plug-In . SVG Version: 6.00 Build 0)  -->
<svg version="1.1" id="Icon_Set" xmlns="http://www.w3.org/2000/svg" xmlns:xlink="http://www.w3.org/1999/xlink" x="0px" y="0px"
	 viewBox="0 0 256 256" style="enable-background:new 0 0 256 256;" xml:space="preserve">
<style type="text/css">
	.st0{fill:#5FCDFF;}
	.st1{fill:#87828E;}
	.st2{fill:#B76C6C;}
	.st3{fill:#FF4A73;}
	.st4{fill:#73D7F9;}
	.st5{fill:#30B6FF;}
	.st6{fill:#A4A4A5;}
	.st7{fill:#F973A3;}
	.st8{fill:#5F266D;}
	.st9{fill:#FFE2E2;}
	.st10{fill:#FFEFEE;}
	.st11{fill:#796E84;}
	.st12{fill:#3193F3;}
	.st13{fill:#35B1FC;}
	.st14{fill:#307FED;}
	.st15{fill:#FFCFCF;}
	.st16{fill:#EA2A6A;}
	.st17{fill:#44C7B6;}
	.st18{fill:#3BB2A0;}
	.st19{fill:#4BDBC3;}
	.st20{fill:#C98585;}
	.st21{fill:#965959;}
	.st22{fill:#FFBB98;}
	.st23{fill:#FFCAA6;}
	.st24{fill:#FFAA80;}
	.st25{fill:#F9D335;}
	.st26{fill:#F2C300;}
	.st27{fill:#F9E27D;}
</style>
<g>
	<path class="st3" d="M228.018,193.791H114.076c-5.523,0-10-4.477-10-10v-5.072c0-5.523,4.477-10,10-10h113.942
		c5.523,0,10,4.477,10,10v5.072C238.018,189.313,233.54,193.791,228.018,193.791z"/>
	<path class="st7" d="M129.072,193.793h-15c-5.52,0-10-4.48-10-10v-5.07c0-5.53,4.48-10,10-10h15c-5.52,0-10,4.47-10,10v5.07
		C119.072,189.313,123.552,193.793,129.072,193.793z"/>
	<path class="st16" d="M238.022,178.723v5.07c0,5.52-4.48,10-10,10h-15c5.52,0,10-4.48,10-10v-5.07c0-5.53-4.48-10-10-10h15
		C233.542,168.723,238.022,173.193,238.022,178.723z"/>
	<path class="st8" d="M101.467,128.592h118.358c15.99,0,29-13.009,29-29v-6.325c0-15.991-13.01-29-29-29
		c-161.233,0-145.769-0.439-153.354,0.767c-2.265,0.293-11.995,1.125-17.194-5.345c-3.706-4.615-13.739,2.347-0.274,10.1
		c-0.453,0.18-0.908,0.368-1.363,0.559c-4.843,0.898-13.467-0.691-19.003-2.421c-2.107-0.66-4.351,0.513-5.012,2.62
		c-0.661,2.108,0.512,4.353,2.619,5.014c1.21,0.38,4.294,1.293,8.105,2.023c-1.019,0.7-2.03,1.443-3.036,2.216
		c-4.78,1.158-13.518-0.002-19.152-1.459c-5.115-1.33-7.129,6.413-2.01,7.744c1.619,0.421,6.541,1.606,12.055,2.043
		c-5.082,5.509-9.758,12.237-13.677,20.484c-0.948,1.995-0.1,4.381,1.896,5.33c1.993,0.947,4.381,0.099,5.329-1.896
		c3.954-8.32,8.721-14.958,13.942-20.259c-0.718,5.52-0.566,10.626-0.486,12.306c0.253,5.341,8.243,4.909,7.99-0.379
		c-0.249-5.264,0.22-17.31,3.887-21.106c1.437-0.905,2.886-1.742,4.345-2.508c-1.445,7.156-0.967,15.016-0.793,17.179
		c0.177,2.212,2.119,3.844,4.308,3.667c2.202-0.177,3.844-2.106,3.667-4.308c-0.535-6.647,0.023-17.246,2.849-20.791
		c2.785-0.925,5.552-1.656,8.264-2.218c-2.41,3.407-4.065,6.698-4.635,7.89c-0.953,1.992-0.111,4.378,1.88,5.332
		c1.991,0.956,4.38,0.113,5.336-1.876c2.789-5.808,7.582-12.225,10.444-12.846c15.428,0.188-5.581,0.141,143.073,0.141
		c11.579,0,21,9.42,21,21v6.325c0,11.58-9.421,21-21,21H101.467c-15.99,0-29,13.009-29,29v6.663
		c0,15.548,12.301,28.274,27.681,28.967c0.719,7.05,6.691,12.569,13.927,12.569h113.942c7.72,0,14-6.28,14-14v-5.072
		c0-7.72-6.28-14-14-14H114.076c-7.202,0-13.147,5.468-13.912,12.47c-10.971-0.679-19.696-9.795-19.696-20.934v-6.663
		C80.467,138.013,89.888,128.592,101.467,128.592z M108.076,178.719c0-3.309,2.691-6,6-6h113.942c3.309,0,6,2.691,6,6v5.072
		c0,3.309-2.691,6-6,6H114.076c-3.309,0-6-2.691-6-6V178.719z"/>
</g>
</svg>
