<?xml version="1.0" encoding="utf-8"?>
<!-- Generator: Adobe Illustrator 22.1.0, SVG Export Plug-In . SVG Version: 6.00 Build 0)  -->
<svg version="1.1" id="Icon_Set" xmlns="http://www.w3.org/2000/svg" xmlns:xlink="http://www.w3.org/1999/xlink" x="0px" y="0px"
	 viewBox="0 0 256 256" style="enable-background:new 0 0 256 256;" xml:space="preserve">
<style type="text/css">
	.st0{fill:#5FCDFF;}
	.st1{fill:#87828E;}
	.st2{fill:#B76C6C;}
	.st3{fill:#FF4A73;}
	.st4{fill:#73D7F9;}
	.st5{fill:#30B6FF;}
	.st6{fill:#A4A4A5;}
	.st7{fill:#F973A3;}
	.st8{fill:#5F266D;}
	.st9{fill:#FFE2E2;}
	.st10{fill:#FFEFEE;}
	.st11{fill:#796E84;}
	.st12{fill:#3193F3;}
	.st13{fill:#35B1FC;}
	.st14{fill:#307FED;}
	.st15{fill:#FFCFCF;}
	.st16{fill:#EA2A6A;}
	.st17{fill:#44C7B6;}
	.st18{fill:#3BB2A0;}
	.st19{fill:#4BDBC3;}
	.st20{fill:#C98585;}
	.st21{fill:#965959;}
	.st22{fill:#FFBB98;}
	.st23{fill:#FFCAA6;}
	.st24{fill:#FFAA80;}
	.st25{fill:#F9D335;}
	.st26{fill:#F2C300;}
	.st27{fill:#F9E27D;}
</style>
<g>
	<g>
		<path id="XMLID_46_" class="st17" d="M194.99,38.121H61.011V20.119c0-8.284,6.716-15,15-15H179.99c8.284,0,15,6.716,15,15V38.121z
			"/>
		<path id="XMLID_142_" class="st19" d="M91.01,5.119c-8.28,0-15,6.72-15,15v18h-15v-18c0-8.28,6.72-15,15-15H91.01z"/>
		<path id="XMLID_141_" class="st18" d="M194.99,20.119v18h-15v-18c0-8.28-6.72-15-15-15h15
			C188.27,5.119,194.99,11.839,194.99,20.119z"/>
		<path id="XMLID_361_" class="st3" d="M177.02,194.039v21.78c0,3.83-2.18,7.34-5.64,9c-3.02,1.45-6.14,2.72-9.36,3.81
			c-21.83,7.47-47.53,6.94-68.05-0.01c-3.26-1.11-6.4-2.38-9.36-3.8c-3.46-1.66-5.64-5.17-5.64-9v-21.78H177.02z"/>
		<path id="XMLID_357_" class="st7" d="M93.97,194.039v34.58c-3.26-1.11-6.4-2.38-9.36-3.8c-3.46-1.66-5.64-5.17-5.64-9v-21.78
			H93.97z"/>
		<path id="XMLID_356_" class="st16" d="M177.02,194.039v21.78c0,3.83-2.18,7.34-5.64,9c-3.02,1.45-6.14,2.72-9.36,3.81v-34.59
			H177.02z"/>
		<path id="XMLID_45_" class="st22" d="M50.939,72.769c-3.71-0.98-7.1,2.41-6.12,6.12c9.417,35.478,7.736,24.333,16.956,59.055
			l40.641-51.763C76.55,79.32,86.027,82.083,50.939,72.769z"/>
		<path id="XMLID_138_" class="st22" d="M205.061,72.769c-35.088,9.314-25.662,6.527-51.528,13.388l40.684,51.707
			c9.221-34.722,7.546-23.497,16.963-58.975C212.161,75.179,208.771,71.789,205.061,72.769z"/>
		<path id="XMLID_44_" class="st22" d="M195,148.119c0,4.24-0.39,8.39-1.15,12.41c-5.821,31.111-33.132,54.59-65.85,54.59
			c-36.994,0-67-29.988-67-67c0-35.92,28.745-67,67.46-67c37.646,0.554,65.797,30.394,66.52,65.58
			C195,147.169,195,147.649,195,148.119z"/>
		<circle id="XMLID_43_" class="st25" cx="128" cy="236.263" r="14.618"/>
		<path id="XMLID_130_" class="st20" d="M131.902,164.251c-2.002,2.497-5.802,2.497-7.803,0l-4.514-5.632l-1.902-2.373
			c-2.623-3.273-0.293-8.127,3.902-8.127H128h6.416c4.195,0,6.525,4.854,3.902,8.127l-1.902,2.373L131.902,164.251z"/>
		<path id="XMLID_51_" class="st27" d="M135.5,248.81c-2.19,1.31-4.76,2.07-7.5,2.07c-8.07,0-14.62-6.54-14.62-14.62
			c0-8.07,6.55-14.62,14.62-14.62c2.74,0,5.31,0.76,7.5,2.07c-4.26,2.55-7.12,7.22-7.12,12.55
			C128.38,241.6,131.24,246.26,135.5,248.81z"/>
		<path class="st23" d="M135.54,214.7c-2.47,0.28-4.99,0.42-7.54,0.42c-36.99,0-67-29.99-67-67c0-35.92,28.75-67,67.46-67
			c2.39,0.04,4.74,0.19,7.05,0.45C100.88,85.48,76,114.71,76,148.12C76,182.61,102.06,211,135.54,214.7z"/>
		<path class="st24" d="M195,148.12c0,4.24-0.39,8.39-1.15,12.41c-5.82,31.11-33.13,54.59-65.85,54.59c-2.52,0-5-0.14-7.44-0.42
			c29.3-3.3,52.92-25.49,58.29-54.17c0.76-4.02,1.15-8.17,1.15-12.41c0-0.47,0-0.95-0.02-1.42c-0.67-32.96-25.4-61.22-59.47-65.13
			c2.6-0.3,5.25-0.45,7.95-0.45c37.65,0.55,65.8,30.39,66.52,65.58C195,147.17,195,147.65,195,148.12z"/>
		<path id="XMLID_129_" class="st20" d="M195,148.119c0,4.24-0.39,8.39-1.15,12.41c-1,0.06-2.01,0.08-3.02,0.08
			c-35.45,0-64.2-28.74-64.2-64.21c0-5.26,0.63-10.38,1.83-15.28c37.646,0.554,65.797,30.394,66.52,65.58
			C195,147.169,195,147.649,195,148.119z"/>
		<path class="st21" d="M128.46,81.12c-0.14,0.58-0.27,1.16-0.4,1.74c34.888,8.004,56.977,41.844,50.97,76.67
			c3.82,0.71,7.77,1.08,11.8,1.08c1.01,0,2.02-0.02,3.02-0.08C201.456,120.296,171.347,81.746,128.46,81.12z"/>
	</g>
	<g id="XMLID_40_">
		<path id="XMLID_59_" class="st8" d="M65,65.619V42.121h14.99v23.498c0,5.285,8,5.292,8,0V42.121h14v23.498c0,5.285,8,5.292,8,0
			V42.121h14v23.498c0,5.285,8,5.292,8,0V42.121h14v23.498c0,5.285,8,5.292,8,0V42.121h14v23.498c0,5.285,8,5.292,8,0V42.121H191
			v23.498c0,5.285,8,5.292,8,0c0-11.12-0.01-34.376-0.01-45.5c0-10.477-8.523-19-19-19H76.01c-10.477,0-19,8.523-19,19
			c0,4.871-0.01,19.943-0.01,45.5C57,70.904,65,70.911,65,65.619z M65.01,20.119c0-6.065,4.935-11,11-11H179.99
			c6.065,0,11,4.935,11,11v14.002c-14.035,0-109.689,0-125.979,0V20.119z"/>
		<path id="XMLID_66_" class="st8" d="M155.99,18.119h-20c-5.285,0-5.292,8,0,8h20C161.275,26.119,161.282,18.119,155.99,18.119z"/>
		<path id="XMLID_67_" class="st8" d="M174.99,18.119h-4c-5.285,0-5.292,8,0,8h4C180.275,26.119,180.282,18.119,174.99,18.119z"/>
		<path id="XMLID_70_" class="st8" d="M154.941,169.262c0,14.594-22.127,15.612-22.778-0.166c2.188-1.143,2.382-1.746,9.276-10.348
			c4.723-5.892,0.523-14.628-7.022-14.628h-12.832c-7.551,0-11.741,8.741-7.022,14.628c6.925,8.641,7.102,9.212,9.276,10.348
			c-0.653,15.823-22.778,14.718-22.778,0.166c0-5.285-8-5.292-8,0c0,18.594,23.815,26.51,34.94,11.506
			c11.124,15.003,34.94,7.087,34.94-11.506C162.941,163.977,154.941,163.97,154.941,169.262z M128.78,161.749
			C128.78,161.75,128.78,161.75,128.78,161.749c-0.403,0.502-1.158,0.502-1.561,0l-6.416-8.004c-0.53-0.661-0.067-1.625,0.78-1.625
			h12.832c0.847,0,1.31,0.965,0.78,1.625L128.78,161.749z"/>
		<path id="XMLID_72_" class="st8" d="M104.91,130.708c4.186,3.241,9.065-3.097,4.899-6.324
			c-12.444-9.641-24.146-4.025-28.594,0.291c-3.792,3.679,1.77,9.428,5.57,5.742C87.108,130.105,94.782,122.86,104.91,130.708z"/>
		<path id="XMLID_73_" class="st8" d="M174.45,124.383c-12.444-9.641-24.146-4.025-28.594,0.291
			c-3.793,3.679,1.771,9.428,5.57,5.742c0.322-0.312,7.997-7.556,18.125,0.291C173.689,133.912,178.691,127.668,174.45,124.383z"/>
		<path id="XMLID_77_" class="st8" d="M215.79,169.572l-19.184-3.151c1.558-5.856,2.45-12.241,2.382-19.092l17.005-3.701
			c5.158-1.124,3.478-8.93-1.701-7.817l-15.845,3.449c-0.496-3.984,8.564-29.063,16.603-59.349
			c1.762-6.672-4.325-12.774-11.014-11.008c-34.529,9.165-25.9,6.599-50.275,13.056c-16.697-6.509-35.149-6.415-51.58,0.021
			c-24.325-6.445-15.714-3.919-50.219-13.079c-6.671-1.761-12.775,4.323-11.008,11.014c7.955,29.965,17.086,55.58,16.614,59.347
			l-15.858-3.452c-5.175-1.115-6.864,6.693-1.701,7.817l16.999,3.7c-0.085,6.25,0.701,12.758,2.385,19.093l-19.182,3.151
			c-4.827,0.794-4.231,7.948,0.644,7.948c0.539,0,20.556-3.322,21.088-3.41c3.057,7.733,7.473,14.972,13.028,21.222v20.478
			c0,5.356,3.109,10.309,7.917,12.615c7.82,3.76,16.918,6.532,26.508,8.101c0.143,10.144,8.427,18.355,18.605,18.355
			c10.162,0,18.436-8.187,18.603-18.311c9.565-1.555,18.468-4.285,26.507-8.144c4.805-2.305,7.91-7.257,7.91-12.614l0.009-20.476
			c5.626-6.323,9.99-13.45,13.041-21.224c0.531,0.087,20.537,3.408,21.076,3.408C220.017,177.52,220.619,170.366,215.79,169.572z
			 M61.728,122.56c-5.109-18.093-5.285-15.472-13.041-44.693c-0.199-0.754,0.489-1.43,1.227-1.232
			c29.406,7.805,27.465,7.118,41.296,10.729C77.68,95.519,67.35,107.871,61.728,122.56z M111.013,228.68
			c-8.961-1.436-17.432-3.989-24.662-7.466c-2.053-0.985-3.38-3.106-3.38-5.403v-12.818c11.02,9.055,24.403,14.548,38.571,15.83
			c-0.005,0.002-0.01,0.004-0.016,0.006C116.768,220.602,113.009,224.229,111.013,228.68z M128,246.881
			c-5.855,0-10.618-4.763-10.618-10.618c0-5.88,4.83-10.619,10.618-10.619c5.801,0,10.618,4.751,10.618,10.619
			C138.618,242.118,133.855,246.881,128,246.881z M173.02,215.81c0,2.3-1.323,4.421-3.371,5.404
			c-7.436,3.569-15.715,6.083-24.642,7.506c-1.972-4.429-5.721-8.096-10.539-9.899c14.167-1.284,27.546-6.776,38.557-15.825
			L173.02,215.81z M188.674,165.118l-17.908-2.941c-5.212-0.859-6.522,7.035-1.297,7.895l16.509,2.712
			c-21.142,49.801-93.702,52.061-115.947-0.001l16.501-2.71c5.223-0.859,3.914-8.759-1.297-7.895l-17.908,2.941
			c-1.454-5.207-2.228-10.597-2.309-16.047l20.016,4.357c5.24,1.134,6.81-6.705,1.701-7.817l-21.316-4.64
			c2.674-23.564,18.433-42.975,38.994-51.285c0.029-0.012,0.059-0.021,0.088-0.033v14.633c0,5.285,8,5.292,8,0V87.047
			c3.753-0.951,7.595-1.545,11.5-1.788v30.861c0,5.285,8,5.292,8,0V85.254c3.9,0.244,7.745,0.845,11.5,1.798v17.234
			c0,5.285,8,5.292,8,0V89.674c0.614,0.248,1.239,0.485,1.835,0.75c0.056,0.025,0.112,0.048,0.169,0.071
			c19.566,8.676,34.498,27.554,37.085,50.474l-21.323,4.641c-5.111,1.113-3.535,8.95,1.701,7.817l20.014-4.356
			C190.901,154.521,190.13,159.905,188.674,165.118z M164.685,87.358c13.903-3.622,11.949-2.905,41.397-10.721
			c0.756-0.197,1.428,0.488,1.232,1.227c-7.772,29.279-7.933,26.524-13.07,44.7C188.578,107.967,178.085,95.496,164.685,87.358z"/>
	</g>
</g>
</svg>
