<?xml version="1.0" encoding="utf-8"?>
<!-- Generator: Adobe Illustrator 22.1.0, SVG Export Plug-In . SVG Version: 6.00 Build 0)  -->
<svg version="1.1" id="Icon_Set" xmlns="http://www.w3.org/2000/svg" xmlns:xlink="http://www.w3.org/1999/xlink" x="0px" y="0px"
	 viewBox="0 0 256 256" style="enable-background:new 0 0 256 256;" xml:space="preserve">
<style type="text/css">
	.st0{fill:#5FCDFF;}
	.st1{fill:#87828E;}
	.st2{fill:#B76C6C;}
	.st3{fill:#FF4A73;}
	.st4{fill:#73D7F9;}
	.st5{fill:#30B6FF;}
	.st6{fill:#A4A4A5;}
	.st7{fill:#F973A3;}
	.st8{fill:#5F266D;}
	.st9{fill:#FFE2E2;}
	.st10{fill:#FFEFEE;}
	.st11{fill:#796E84;}
	.st12{fill:#3193F3;}
	.st13{fill:#35B1FC;}
	.st14{fill:#307FED;}
	.st15{fill:#FFCFCF;}
	.st16{fill:#EA2A6A;}
	.st17{fill:#44C7B6;}
	.st18{fill:#3BB2A0;}
	.st19{fill:#4BDBC3;}
	.st20{fill:#C98585;}
	.st21{fill:#965959;}
	.st22{fill:#FFBB98;}
	.st23{fill:#FFCAA6;}
	.st24{fill:#FFAA80;}
	.st25{fill:#F9D335;}
	.st26{fill:#F2C300;}
	.st27{fill:#F9E27D;}
</style>
<g>
	<g>
		<path id="XMLID_555_" class="st2" d="M187.224,108.519v98.861H68.083v-98.861c0-0.412,0-0.813,0.011-1.225
			c0.358-13.776,6.579-26.078,16.258-34.511c8.335-7.262,19.207-11.652,31.118-11.652h24.366c11.923,0,22.794,4.39,31.129,11.663
			C180.926,81.476,187.224,94.256,187.224,108.519z"/>
		<path id="XMLID_554_" class="st21" d="M187.224,108.519v98.861h-16.258V72.794C180.926,81.476,187.224,94.256,187.224,108.519z"/>
		<path id="XMLID_551_" class="st2" d="M242.345,109.59l-16.91,57.065c-0.143,0.482-0.302,0.964-0.526,1.414
			c-3.166,6.362-12.076,7.032-16.159,1.22c-0.297-0.423-0.53-0.888-0.747-1.357L160.966,66.161l75.491,30.856
			C241.709,98.69,244.423,104.483,242.345,109.59z"/>
		<path id="XMLID_550_" class="st3" d="M166.989,248.724H88.354c-2.993,0-5.419-2.426-5.419-5.419v-5.806
			c0-2.993,2.426-5.419,5.419-5.419h78.634c2.993,0,5.419,2.426,5.419,5.419v5.806C172.408,246.298,169.982,248.724,166.989,248.724
			z"/>
		<path id="XMLID_549_" class="st7" d="M104.617,248.72H88.359c-3.002,0-5.419-2.428-5.419-5.419v-5.799
			c0-2.992,2.417-5.419,5.419-5.419h16.258c-3.002,0-5.419,2.428-5.419,5.419v5.799C99.197,246.292,101.615,248.72,104.617,248.72z"
			/>
		<path id="XMLID_548_" class="st16" d="M172.403,237.502v5.799c0,2.992-2.417,5.419-5.419,5.419h-16.258
			c3.002,0,5.419-2.428,5.419-5.419v-5.799c0-2.992-2.417-5.419-5.419-5.419h16.258
			C169.986,232.083,172.403,234.511,172.403,237.502z"/>
		<path id="XMLID_547_" class="st20" d="M84.352,72.784v134.597H68.093V107.295C68.451,93.518,74.673,81.216,84.352,72.784z"/>
		<path id="XMLID_546_" class="st22" d="M169.361,232.079H85.945c-15.154,0-27.439-12.285-27.439-27.439
			c0-41.221,32.31-70.382,69.147-70.382h0c38.189,0,69.147,30.958,69.147,69.147v1.235
			C196.801,219.794,184.516,232.079,169.361,232.079z"/>
		<path id="XMLID_545_" class="st24" d="M196.802,203.403v1.236c0,15.153-12.291,27.444-27.444,27.444h-16.258
			c15.153,0,27.444-12.291,27.444-27.444v-1.236c0-19.098-7.739-36.375-20.258-48.894c-10.709-10.709-24.919-17.917-40.765-19.77
			c2.666-0.314,5.376-0.477,8.129-0.477c19.098,0,36.386,7.739,48.894,20.247C189.063,167.028,196.802,184.305,196.802,203.403z"/>
		<path id="XMLID_544_" class="st23" d="M102.2,232.083H85.942c-14.176,0-27.433-10.893-27.433-28.68
			c0-38.185,30.956-69.141,69.141-69.141c2.753,0,5.463,0.163,8.129,0.477c-34.359,4.021-61.012,33.232-61.012,68.664v1.236
			C74.767,219.791,87.047,232.083,102.2,232.083z"/>
		<path id="XMLID_543_" class="st2" d="M131.275,193.023h-4.377c-11.972,0-21.678-9.705-21.678-21.678v-3.663
			c0-5.986,4.853-10.839,10.839-10.839h26.055c5.986,0,10.839,4.853,10.839,10.839v3.663
			C152.953,183.317,143.248,193.023,131.275,193.023z"/>
		<path id="XMLID_542_" class="st20" d="M137.22,192.185c-1.886,0.542-3.88,0.835-5.94,0.835h-4.379
			c-11.977,0-21.678-9.701-21.678-21.678v-3.664c0-5.983,4.845-10.839,10.839-10.839h16.258c-5.994,0-10.839,4.856-10.839,10.839
			v3.664C121.482,181.259,128.137,189.616,137.22,192.185z"/>
		<path id="XMLID_541_" class="st2" d="M13.655,109.438l16.91,57.065c0.143,0.482,0.302,0.964,0.526,1.414
			c3.166,6.362,12.076,7.031,16.158,1.221c0.297-0.423,0.53-0.888,0.747-1.357L95.034,66.009L19.544,96.865
			C14.291,98.538,11.577,104.331,13.655,109.438z"/>
	</g>
	<path class="st9" d="M61.912,61.252c0,11.639,9.435,21.074,21.074,21.074c5.819,0,11.087-2.358,14.9-6.171
		c3.813,3.813,9.081,6.171,14.9,6.171c5.819,0,11.087-2.358,14.9-6.171c3.813,3.813,9.081,6.171,14.9,6.171
		c5.819,0,11.087-2.358,14.9-6.171c3.813,3.813,9.081,6.171,14.9,6.171c11.639,0,21.074-9.435,21.074-21.074
		c0-10.816-8.153-19.718-18.646-20.923c2.357-3.403,3.746-7.527,3.746-11.979c0-11.639-9.435-21.074-21.074-21.074
		c-5.819,0-11.087,2.358-14.9,6.171c-3.813-3.813-9.081-6.171-14.9-6.171c-5.819,0-11.087,2.358-14.9,6.171
		c-3.813-3.813-9.081-6.171-14.9-6.171c-11.639,0-21.074,9.435-21.074,21.074c0,4.453,1.389,8.576,3.746,11.979
		C70.065,41.534,61.912,50.435,61.912,61.252z"/>
	<path class="st10" d="M91.816,28.348c0,4.45,1.39,8.58,3.74,11.98c-10.49,1.21-18.64,10.11-18.64,20.92c0,9,5.64,16.68,13.57,19.7
		c-2.33,0.89-4.86,1.38-7.5,1.38c-11.64,0-21.07-9.44-21.07-21.08c0-10.81,8.15-19.71,18.64-20.92c-2.35-3.4-3.74-7.53-3.74-11.98
		c0-11.64,9.43-21.07,21.07-21.07c2.64,0,5.17,0.49,7.5,1.38C97.456,11.668,91.816,19.348,91.816,28.348z"/>
	<path class="st15" d="M193.456,61.248c0,11.64-9.43,21.08-21.07,21.08c-2.64,0-5.17-0.49-7.5-1.38c7.93-3.02,13.57-10.7,13.57-19.7
		c0-10.81-8.15-19.71-18.64-20.92c2.35-3.4,3.74-7.53,3.74-11.98c0-9-5.64-16.68-13.57-19.69c2.33-0.89,4.86-1.38,7.5-1.38
		c11.64,0,21.07,9.43,21.07,21.07c0,4.45-1.39,8.58-3.74,11.98C185.306,41.538,193.456,50.438,193.456,61.248z"/>
	<g>
		<path class="st8" d="M117.046,97.742c-13.274-10.284-25.747-4.307-30.486,0.291c-3.752,3.639,1.71,9.376,5.549,5.762
			c0.91-0.856,9.198-8.126,20.038,0.271c1.754,1.358,4.265,1.026,5.612-0.712C119.111,101.607,118.792,99.095,117.046,97.742z"/>
		
			<ellipse transform="matrix(0.0985 -0.9951 0.9951 0.0985 -23.9917 205.4381)" class="st8" cx="101.397" cy="115.961" rx="7.702" ry="7.702"/>
		<path class="st8" d="M138.019,98.033c-3.752,3.639,1.708,9.376,5.549,5.762c0.909-0.856,9.199-8.126,20.038,0.271
			c1.754,1.358,4.265,1.026,5.612-0.712c1.353-1.746,1.034-4.259-0.712-5.612C155.23,87.458,142.758,93.435,138.019,98.033z"/>
		
			<ellipse transform="matrix(0.9975 -0.0709 0.0709 0.9975 -7.8358 11.1275)" class="st8" cx="152.856" cy="115.961" rx="7.702" ry="7.702"/>
		<path class="st8" d="M237.596,93.641l-44.547-18.208c9.307-13.518,3.266-32.312-12.269-37.806
			c9.343-23.36-18.1-44.357-38.195-29.449c-8.814-6.539-20.983-6.541-29.8,0C92.818-6.636,65.178,14.093,74.591,37.626
			c-9.811,3.47-16.679,12.814-16.679,23.625c0,5.311,1.664,10.238,4.492,14.296L18.496,93.491
			c-7.264,2.424-11.05,10.454-8.274,17.605c18.227,61.487,16.979,57.538,17.593,58.794c4.876,9.798,19.173,10.035,24.072-0.234
			l12.409-26.847v24.661c-6.9,12.093-9.558,24.25-9.558,37.265c0,14.979,10.557,27.532,24.62,30.627
			c-0.162,0.69-0.256,1.405-0.256,2.144v5.79c0,5.186,4.219,9.405,9.405,9.405h78.424c5.186,0,9.405-4.219,9.405-9.405
			c0-6.25,0.076-6.523-0.258-7.942c13.446-2.976,24.585-14.635,24.585-31.851c0-13.099-3.487-25.392-9.556-36.03v-26.01
			l13.122,28.393c5.331,11.131,21.479,9.607,24.823-1.871l16.819-56.738C248.646,104.093,244.858,96.065,237.596,93.641z
			 M81.015,44.303c1.396-0.161,2.607-1.042,3.187-2.323c1.796-3.966-3.39-5-3.39-13.63c0-15.205,18.462-22.756,29.146-12.074
			c1.562,1.562,4.095,1.562,5.656,0c6.673-6.672,17.471-6.672,24.144,0c1.562,1.562,4.095,1.562,5.656,0
			c3.225-3.224,7.512-5,12.072-5c13.754,0,21.84,15.511,14.039,26.776c-1.719,2.483-0.165,5.907,2.832,6.251
			c8.61,0.989,15.103,8.275,15.103,16.949c0,15.204-18.462,22.755-29.146,12.074c-1.562-1.562-4.095-1.562-5.656,0
			c-6.672,6.671-17.471,6.672-24.144,0c-1.562-1.562-4.095-1.562-5.656,0c-6.672,6.671-17.471,6.672-24.144,0
			c-1.562-1.562-4.095-1.562-5.656,0c-3.225,3.224-7.512,5-12.072,5c-9.415,0-17.074-7.659-17.074-17.073
			C65.912,52.578,72.404,45.292,81.015,44.303z M183.106,124.153v31.957c-13.392-15.634-33.255-25.569-55.406-25.569
			c-22.15,0-42.012,9.935-55.404,25.567v-30.607L91.01,85.014c2.455-0.826,4.773-2.03,6.876-3.59
			c4.289,3.182,9.462,4.901,14.9,4.901s10.612-1.719,14.9-4.901c4.288,3.182,9.462,4.901,14.9,4.901s10.612-1.719,14.9-4.901
			c2.318,1.72,4.901,2.996,7.639,3.821L183.106,124.153z M44.247,167.024c-2.53,3.588-8.289,2.807-9.536-1.463
			c-0.088-0.296-16.884-56.993-17-57.28c-1.194-2.935,0.366-6.26,3.381-7.223c0.1-0.032,0.199-0.068,0.296-0.108l47.111-19.252
			c3.744,2.66,8.242,4.322,13.108,4.587C81.454,86.622,44.456,166.719,44.247,167.024z M168.335,243.296
			c0,0.774-0.63,1.405-1.405,1.405H88.506c-0.774,0-1.405-0.63-1.405-1.405v-5.79c0-2.059-3.724-1.405,79.829-1.405
			c0.774,0,1.405,0.63,1.405,1.405V243.296z M192.662,203.503c0,15.463-11.436,24.597-23.366,24.597c-14.902,0-68.196,0-83.192,0
			c-11.963,0-23.366-9.143-23.366-24.597c0-35.82,29.142-64.962,64.962-64.962S192.662,167.683,192.662,203.503z M238.38,108.432
			c-0.049,0.121-0.092,0.245-0.129,0.37l-16.875,56.926c-1.315,4.515-7.792,5.129-9.909,0.722l-37.071-80.213
			c4.68-0.373,9-2.035,12.607-4.633l47.7,19.497c0.097,0.04,0.196,0.076,0.296,0.108C238.017,102.173,239.573,105.5,238.38,108.432z
			"/>
		<path class="st8" d="M165.22,190.035c-2.209,0-4,1.791-4,4c0,8.065-6.562,14.626-14.626,14.626
			c-7.005,0-12.869-4.952-14.292-11.538c13.67-0.522,24.63-11.799,24.63-25.594v-3.653c0-8.167-6.644-14.81-14.81-14.81h-25.985
			c-8.166,0-14.81,6.644-14.81,14.81v3.653c0,12.872,9.542,23.552,21.923,25.349c-1.328,6.708-7.252,11.783-14.344,11.783
			c-8.065,0-14.626-6.562-14.626-14.626c0-2.209-1.791-4-4-4s-4,1.791-4,4c0,12.476,10.15,22.626,22.626,22.626
			c7.855,0,14.785-4.025,18.843-10.119c4.058,6.094,10.989,10.119,18.843,10.119c12.476,0,22.626-10.15,22.626-22.626
			C169.22,191.826,167.429,190.035,165.22,190.035z M126.947,189.148c-9.715,0-17.62-7.904-17.62-17.62v-3.653
			c0-3.755,3.055-6.81,6.81-6.81h25.985c3.755,0,6.81,3.055,6.81,6.81v3.653c0,9.715-7.904,17.62-17.62,17.62H126.947z"/>
		<path class="st8" d="M204.668,116.756l-7.541-17.439c-0.876-2.028-3.231-2.961-5.259-2.084c-2.028,0.876-2.961,3.231-2.084,5.259
			l7.541,17.439c0.653,1.511,2.126,2.414,3.673,2.414C203.862,122.344,205.812,119.4,204.668,116.756z"/>
		<path class="st8" d="M210.621,130.524c-0.876-2.028-3.231-2.961-5.259-2.084c-2.028,0.876-2.961,3.231-2.084,5.259l1.05,2.429
			c0.877,2.028,3.232,2.961,5.259,2.084c2.028-0.876,2.961-3.231,2.084-5.259L210.621,130.524z"/>
	</g>
</g>
</svg>
