<?xml version="1.0" encoding="utf-8"?>
<!-- Generator: Adobe Illustrator 22.1.0, SVG Export Plug-In . SVG Version: 6.00 Build 0)  -->
<svg version="1.1" id="Icon_Set" xmlns="http://www.w3.org/2000/svg" xmlns:xlink="http://www.w3.org/1999/xlink" x="0px" y="0px"
	 viewBox="0 0 256 256" style="enable-background:new 0 0 256 256;" xml:space="preserve">
<style type="text/css">
	.st0{fill:#5FCDFF;}
	.st1{fill:#87828E;}
	.st2{fill:#B76C6C;}
	.st3{fill:#FF4A73;}
	.st4{fill:#73D7F9;}
	.st5{fill:#30B6FF;}
	.st6{fill:#A4A4A5;}
	.st7{fill:#F973A3;}
	.st8{fill:#5F266D;}
	.st9{fill:#FFE2E2;}
	.st10{fill:#FFEFEE;}
	.st11{fill:#796E84;}
	.st12{fill:#3193F3;}
	.st13{fill:#35B1FC;}
	.st14{fill:#307FED;}
	.st15{fill:#FFCFCF;}
	.st16{fill:#EA2A6A;}
	.st17{fill:#44C7B6;}
	.st18{fill:#3BB2A0;}
	.st19{fill:#4BDBC3;}
	.st20{fill:#C98585;}
	.st21{fill:#965959;}
	.st22{fill:#FFBB98;}
	.st23{fill:#FFCAA6;}
	.st24{fill:#FFAA80;}
	.st25{fill:#F9D335;}
	.st26{fill:#F2C300;}
	.st27{fill:#F9E27D;}
</style>
<g>
	<path class="st1" d="M226.559,37.983H29.441c-5.523,0-10-4.477-10-10V16.681c0-5.523,4.477-10,10-10h197.118
		c5.523,0,10,4.477,10,10v11.302C236.559,33.506,232.082,37.983,226.559,37.983z"/>
	<path class="st9" d="M82.749,37.983v16.769c0,6.851,3.44,13.243,9.158,17.017l10.657,7.034c2.287,1.509,3.663,4.067,3.663,6.807
		v70.139h43.545V85.61c0-2.74,1.376-5.297,3.663-6.807l10.657-7.034c5.717-3.774,9.158-10.166,9.158-17.017V37.983H82.749z"/>
	<path class="st17" d="M106.227,155.749l-6.554,16.177c-9.442,23.306-8.216,49.575,3.355,71.9l0.401,0.774
		c1.719,3.316,5.143,5.398,8.878,5.398h31.475c3.688,0,7.076-2.03,8.817-5.281l0,0c12.215-22.822,13.506-49.93,3.516-73.809
		l-6.342-15.16H106.227z"/>
	<path class="st6" d="M44.44,37.979h-15c-5.52,0-10-4.47-10-10v-11.3c0-5.52,4.48-10,10-10h15c-5.52,0-10,4.48-10,10v11.3
		C34.44,33.509,38.92,37.979,44.44,37.979z"/>
	<path class="st10" d="M121.23,85.609v70.14h-15v-70.14c0-2.74-1.38-5.3-3.67-6.81l-10.65-7.03c-5.72-3.77-9.16-10.17-9.16-17.02
		v-16.77h15v16.77c0,6.85,3.44,13.25,9.16,17.02l10.65,7.03C119.85,80.309,121.23,82.869,121.23,85.609z"/>
	<path class="st19" d="M127.31,249.999h-15c-3.74,0-7.16-2.08-8.88-5.4l-0.4-0.77c-11.57-22.33-12.8-48.6-3.36-71.9l6.56-16.18h15
		l-6.56,16.18c-9.44,23.3-8.21,49.57,3.36,71.9l0.4,0.77C120.15,247.919,123.57,249.999,127.31,249.999z"/>
	<path class="st11" d="M236.56,16.679v11.3c0,5.53-4.48,10-10,10h-15c5.52,0,10-4.47,10-10v-11.3c0-5.52-4.48-10-10-10h15
		C232.08,6.679,236.56,11.159,236.56,16.679z"/>
	<path class="st15" d="M173.25,37.979v16.77c0,6.85-3.44,13.25-9.16,17.02l-10.65,7.03c-2.29,1.51-3.67,4.07-3.67,6.81v70.14h-15
		v-70.14c0-2.74,1.38-5.3,3.67-6.81l10.65-7.03c5.72-3.77,9.16-10.17,9.16-17.02v-16.77H173.25z"/>
	<path class="st18" d="M162.78,204.099c0,14.01-3.41,27.97-10.18,40.62c-1.74,3.25-5.13,5.28-8.82,5.28h-15
		c3.69,0,7.08-2.03,8.82-5.28c6.77-12.65,10.18-26.61,10.18-40.62c0-11.26-2.21-22.54-6.66-33.19l-6.35-15.16h15l6.35,15.16
		C160.57,181.559,162.78,192.839,162.78,204.099z"/>
	<g>
		<path class="st8" d="M226.559,2.341H29.441c-7.72,0-14,6.28-14,14v11.302c0,7.72,6.28,14,14,14H78.75v12.769
			c0,8.219,4.095,15.828,10.955,20.355l10.657,7.034c1.169,0.771,1.867,2.068,1.867,3.468v69.359
			c-6.754,16.67-24.002,49.67-2.35,91.472c2.417,4.662,7.179,7.558,12.43,7.558h31.475c5.172,0,9.902-2.833,12.343-7.394
			c12.839-23.988,14.181-52.141,3.68-77.241l-6.033-14.418V85.27c0-1.4,0.698-2.697,1.866-3.468l10.658-7.034
			c6.859-4.527,10.954-12.137,10.954-20.355V41.643h49.308c7.72,0,14-6.28,14-14V16.341C240.559,8.621,234.278,2.341,226.559,2.341z
			 M149.072,242.49c-1.046,1.955-3.073,3.169-5.29,3.169h-31.475c-2.25,0-4.292-1.241-5.327-3.238
			c-19.293-37.247-4.857-66.23,1.942-83.012h38.187C152.582,172.486,169.475,204.372,149.072,242.49z M145.772,137.825v13.583
			h-35.545v-13.583H145.772z M110.228,129.825v-13.667h35.545v13.667H110.228z M169.25,54.412c0,5.523-2.752,10.636-7.361,13.679
			l-10.658,7.034c-3.418,2.256-5.459,6.049-5.459,10.145v22.889h-35.545V85.27c0-4.096-2.041-7.889-5.46-10.145l-10.657-7.034
			c-4.609-3.042-7.361-8.156-7.361-13.679V41.643h82.501V54.412z M232.559,27.643c0,3.309-2.691,6-6,6c-4.647,0-192.528,0-197.117,0
			c-3.309,0-6-2.691-6-6v-1.651h209.117V27.643z M232.559,17.992H23.441v-1.651c0-3.309,2.691-6,6-6h197.117c3.309,0,6,2.691,6,6
			V17.992z"/>
		<path class="st8" d="M138.109,175.581c-1.975,0.982-2.78,3.382-1.802,5.359c3.133,6.323,6.62,19.898,4.876,33.919
			c-0.296,2.381,1.558,4.495,3.974,4.495c1.989,0,3.712-1.482,3.964-3.506c1.826-14.668-1.403-29.98-5.656-38.478
			C142.48,175.397,140.083,174.598,138.109,175.581z"/>
		<path class="st8" d="M143.004,226.145c-2.075-0.763-4.372,0.301-5.134,2.375c-0.493,1.342-1.042,2.688-1.631,4.003
			c-0.904,2.016-0.002,4.382,2.013,5.286c2.018,0.905,4.384,0,5.287-2.014c0.665-1.482,1.284-3.002,1.84-4.516
			C146.141,229.205,145.078,226.906,143.004,226.145z"/>
	</g>
</g>
</svg>
