<?xml version="1.0" encoding="utf-8"?>
<!-- Generator: Adobe Illustrator 22.1.0, SVG Export Plug-In . SVG Version: 6.00 Build 0)  -->
<svg version="1.1" id="Icon_Set" xmlns="http://www.w3.org/2000/svg" xmlns:xlink="http://www.w3.org/1999/xlink" x="0px" y="0px"
	 viewBox="0 0 256 256" style="enable-background:new 0 0 256 256;" xml:space="preserve">
<style type="text/css">
	.st0{fill:#5FCDFF;}
	.st1{fill:#87828E;}
	.st2{fill:#B76C6C;}
	.st3{fill:#FF4A73;}
	.st4{fill:#73D7F9;}
	.st5{fill:#30B6FF;}
	.st6{fill:#A4A4A5;}
	.st7{fill:#F973A3;}
	.st8{fill:#5F266D;}
	.st9{fill:#FFE2E2;}
	.st10{fill:#FFEFEE;}
	.st11{fill:#796E84;}
	.st12{fill:#3193F3;}
	.st13{fill:#35B1FC;}
	.st14{fill:#307FED;}
	.st15{fill:#FFCFCF;}
	.st16{fill:#EA2A6A;}
	.st17{fill:#44C7B6;}
	.st18{fill:#3BB2A0;}
	.st19{fill:#4BDBC3;}
	.st20{fill:#C98585;}
	.st21{fill:#965959;}
	.st22{fill:#FFBB98;}
	.st23{fill:#FFCAA6;}
	.st24{fill:#FFAA80;}
	.st25{fill:#F9D335;}
	.st26{fill:#F2C300;}
	.st27{fill:#F9E27D;}
</style>
<g>
	<g>
		<circle id="XMLID_64_" class="st0" cx="225.859" cy="121.662" r="13.895"/>
		<path id="XMLID_61_" class="st4" d="M233.365,133.359c-2.16,1.4-4.74,2.2-7.51,2.2c-7.67,0-13.89-6.22-13.89-13.9
			c0-7.67,6.22-13.89,13.89-13.89c2.77,0,5.35,0.81,7.51,2.2c-3.85,2.46-6.4,6.78-6.4,11.69
			C226.965,126.579,229.515,130.899,233.365,133.359z"/>
		<path id="XMLID_60_" class="st9" d="M164.371,239.153H91.619c-27.614,0-50-22.386-50-50v-32.87h172.752v32.87
			C214.371,216.767,191.985,239.153,164.371,239.153z"/>
		<path id="XMLID_585_" class="st2" d="M169.185,75.309v63.49h-84.33v-63.49c0-12.98,6.17-24.51,15.74-31.82
			c6.73-5.14,15.15-8.2,24.28-8.2h4.28c9.14,0,17.55,3.06,24.29,8.21C163.015,50.809,169.185,62.329,169.185,75.309z"/>
		<circle id="XMLID_57_" class="st0" cx="18.656" cy="87.041" r="13.895"/>
		<circle id="XMLID_86_" class="st0" cx="37.278" cy="30.747" r="25.755"/>
		<circle id="XMLID_56_" class="st0" cx="203.631" cy="38.424" r="13.895"/>
		<circle id="XMLID_55_" class="st0" cx="237.326" cy="64.01" r="13.895"/>
		<circle id="XMLID_54_" class="st0" cx="33.9" cy="123.445" r="13.895"/>
		<path id="XMLID_438_" class="st0" d="M169.435,25.159c0,8.63-6.58,15.73-15,16.54c-0.53,0.05-1.07,0.08-1.62,0.08
			c-2.66,0-5.17-0.63-7.4-1.75c-2.22,7.53-9.17,13.02-17.42,13.02s-15.2-5.49-17.42-13.02c-2.23,1.12-4.74,1.75-7.4,1.75
			c-0.55,0-1.09-0.03-1.62-0.08c-8.42-0.81-15-7.91-15-16.54c0-8.62,6.58-15.72,15-16.53c0.53-0.05,1.07-0.08,1.62-0.08
			c4.08,0,7.82,1.48,10.71,3.92c2.93-4.71,8.15-7.87,14.11-7.87s11.18,3.16,14.11,7.87c2.89-2.44,6.63-3.92,10.71-3.92
			c0.55,0,1.09,0.03,1.62,0.08C162.855,9.439,169.435,16.539,169.435,25.159z"/>
		<path id="XMLID_53_" class="st4" d="M44.775,55.389c-2.37,0.72-4.89,1.11-7.5,1.11c-14.22,0-25.75-11.53-25.75-25.75
			c0-14.23,11.53-25.76,25.75-25.76c2.61,0,5.13,0.39,7.5,1.11c-10.56,3.21-18.25,13.03-18.25,24.65
			C26.525,42.359,34.215,52.179,44.775,55.389z"/>
		<path id="XMLID_581_" class="st20" d="M100.595,43.489c-0.49,3.33-0.74,6.76-0.74,10.28v85.03h-15v-63.49
			C84.855,62.329,91.025,50.799,100.595,43.489z"/>
		<path id="XMLID_582_" class="st21" d="M169.185,75.309v63.49h-15v-85.03c0-3.51-0.25-6.95-0.74-10.27
			C163.015,50.809,169.185,62.329,169.185,75.309z"/>
		<path id="XMLID_146_" class="st22" d="M158.503,156.284H97.487c-10.183,0-18.437-8.255-18.437-18.437v-4.344
			c0-25.66,20.801-46.461,46.461-46.461h4.968c25.66,0,46.461,20.801,46.461,46.461v4.344
			C176.94,148.029,168.686,156.284,158.503,156.284z"/>
		<path id="XMLID_614_" class="st24" d="M176.945,133.499v4.35c0,10.18-8.26,18.43-18.44,18.43h-15c10.18,0,18.44-8.25,18.44-18.43
			v-4.35c0-23.96-18.15-43.69-41.45-46.19c1.65-0.18,3.32-0.27,5.02-0.27h4.96C156.135,87.039,176.945,107.839,176.945,133.499z"/>
		<path id="XMLID_607_" class="st23" d="M112.498,156.28h-15c-10.18,0-18.44-8.25-18.44-18.43v-4.35
			c0-25.66,20.81-46.46,46.47-46.46h4.96c1.7,0,3.37,0.09,5.02,0.27c-23.3,2.5-41.45,22.23-41.45,46.19v4.35
			C94.058,148.03,102.318,156.28,112.498,156.28z"/>
		<path class="st2" d="M144.925,111.049v1.55c0,6.49-3.85,12.07-9.39,14.6c-2.02,0.93-4.27,1.44-6.64,1.44h-1.72
			c-8.86,0-16.03-7.18-16.03-16.04v-1.55c0-4.43,3.58-8.02,8.01-8.02h17.75C141.335,103.029,144.925,106.619,144.925,111.049z"/>
		<path id="XMLID_149_" class="st2" d="M45.31,73.229l11.97,40.393c0.101,0.341,0.214,0.682,0.372,1.001
			c2.241,4.503,8.548,4.977,11.437,0.864c0.21-0.299,0.375-0.629,0.529-0.961l33.295-72.038L49.479,64.33
			C45.761,65.514,43.84,69.615,45.31,73.229z"/>
		<path id="XMLID_52_" class="st2" d="M210.71,73.999l-11.97,40.393c-0.101,0.341-0.214,0.682-0.372,1.001
			c-2.241,4.504-8.548,4.977-11.438,0.864c-0.21-0.299-0.375-0.628-0.529-0.96l-33.295-72.037L206.541,65.1
			C210.26,66.284,212.181,70.385,210.71,73.999z"/>
		<path id="XMLID_50_" class="st4" d="M140.705,43.489c1.16,0,2.31-0.09,3.42-0.26c-3.02,5.84-9.1,9.82-16.13,9.82
			c-8.25,0-15.2-5.49-17.42-13.02c-2.23,1.12-4.74,1.75-7.4,1.75c-0.55,0-1.09-0.03-1.62-0.08c-8.42-0.81-15-7.91-15-16.54
			c0-4.01,1.42-7.7,3.8-10.57c3.484,12.6,17.626,18.524,28.87,12.84C121.955,36.719,130.525,43.489,140.705,43.489z"/>
		<path id="XMLID_49_" class="st4" d="M26.165,98.739c-2.16,1.4-4.74,2.2-7.51,2.2c-7.67,0-13.89-6.22-13.89-13.9
			c0-7.67,6.22-13.89,13.89-13.89c2.77,0,5.35,0.81,7.51,2.2c-3.85,2.46-6.4,6.78-6.4,11.69
			C19.765,91.959,22.315,96.279,26.165,98.739z"/>
		<path id="XMLID_48_" class="st4" d="M41.405,135.139c-2.16,1.4-4.74,2.2-7.51,2.2c-7.67,0-13.89-6.22-13.89-13.89
			c0-7.68,6.22-13.9,13.89-13.9c2.77,0,5.35,0.81,7.51,2.2c-3.85,2.46-6.4,6.78-6.4,11.7
			C35.005,128.359,37.555,132.679,41.405,135.139z"/>
		<path id="XMLID_47_" class="st4" d="M211.125,50.119c-3.19,2.05-7.2,2.79-11.15,1.71c-7.41-2.02-11.77-9.66-9.75-17.06
			c2.02-7.41,9.66-11.77,17.06-9.75c1.4,0.38,2.69,0.97,3.85,1.71c-2.8,1.79-4.96,4.58-5.91,8.04
			C203.585,40.769,206.145,46.929,211.125,50.119z"/>
		<path id="XMLID_42_" class="st4" d="M244.815,75.709c-3.19,2.05-7.2,2.79-11.15,1.71c-7.4-2.03-11.76-9.66-9.74-17.07
			c2.02-7.4,9.66-11.76,17.06-9.74c1.4,0.38,2.68,0.96,3.84,1.71c-2.79,1.79-4.96,4.58-5.9,8.03
			C237.285,66.359,239.845,72.509,244.815,75.709z"/>
		<path class="st20" d="M135.535,127.199c-2.02,0.93-4.27,1.44-6.64,1.44h-1.72c-8.86,0-16.03-7.18-16.03-16.04v-1.55
			c0-4.43,3.58-8.02,8.01-8.02h15c-4.43,0-8.01,3.59-8.01,8.02v1.55C126.145,119.089,129.995,124.679,135.535,127.199z"/>
		<path id="XMLID_720_" class="st10" d="M106.615,239.149h-15c-27.61,0-50-22.38-50-50v-32.87h15v32.87
			C56.615,216.769,79.005,239.149,106.615,239.149z"/>
		<path id="XMLID_747_" class="st15" d="M214.375,156.279v32.87c0,27.62-22.39,50-50,50h-15c27.61,0,50-22.38,50-50v-32.87H214.375z
			"/>
		<path id="XMLID_158_" class="st9" d="M231.663,160.721v8.154c0,2.451-1.987,4.437-4.437,4.437H28.764
			c-2.451,0-4.437-1.987-4.437-4.437v-8.154c0-2.451,1.987-4.437,4.437-4.437h198.461
			C229.676,156.284,231.663,158.27,231.663,160.721z"/>
		<path id="XMLID_665_" class="st15" d="M231.665,160.719v8.16c0,2.45-1.99,4.43-4.44,4.43h-15c2.45,0,4.44-1.98,4.44-4.43v-8.16
			c0-2.45-1.99-4.44-4.44-4.44h15C229.675,156.279,231.665,158.269,231.665,160.719z"/>
		<path id="XMLID_664_" class="st10" d="M43.765,173.309h-15c-2.45,0-4.44-1.98-4.44-4.43v-8.16c0-2.45,1.99-4.44,4.44-4.44h15
			c-2.45,0-4.44,1.99-4.44,4.44v8.16C39.325,171.329,41.315,173.309,43.765,173.309z"/>
		<path id="XMLID_39_" class="st2" d="M63.794,173.307h-16c-5.523,0-10-4.477-10-10v-5.245c0-8.284,6.716-15,15-15h6
			c8.284,0,15,6.716,15,15v5.245C73.794,168.83,69.317,173.307,63.794,173.307z"/>
		<path id="XMLID_38_" class="st2" d="M208.196,173.307h-16c-5.523,0-10-4.477-10-10v-5.245c0-8.284,6.716-15,15-15h6
			c8.284,0,15,6.716,15,15v5.245C218.196,168.83,213.718,173.307,208.196,173.307z"/>
		<circle id="XMLID_37_" class="st0" cx="219.867" cy="219.79" r="25.755"/>
		<path id="XMLID_36_" class="st4" d="M227.365,244.439c-2.37,0.72-4.89,1.11-7.5,1.11c-14.22,0-25.75-11.54-25.75-25.76
			c0-14.22,11.53-25.75,25.75-25.75c2.61,0,5.13,0.39,7.5,1.11c-10.56,3.21-18.25,13.03-18.25,24.64
			S216.805,241.229,227.365,244.439z"/>
		<path class="st20" d="M62.79,173.31h-15c-5.52,0-10-4.48-10-10v-5.25c0-8.28,6.72-15,15-15h6c1.57,0,3.08,0.24,4.5,0.69
			c-6.08,1.91-10.5,7.6-10.5,14.31v5.25C52.79,168.83,57.27,173.31,62.79,173.31z"/>
		<path class="st20" d="M207.2,173.31h-15c-5.53,0-10-4.48-10-10v-5.25c0-8.28,6.71-15,15-15h6c1.57,0,3.08,0.24,4.5,0.69
			c-6.09,1.91-10.5,7.6-10.5,14.31v5.25C197.2,168.83,201.67,173.31,207.2,173.31z"/>
	</g>
	<g>
		<path class="st8" d="M108.361,68.596c-3.02,0-5.47,2.45-5.47,5.47c0,3.01,2.45,5.46,5.47,5.46c3.01,0,5.46-2.45,5.46-5.46
			C113.821,71.046,111.371,68.596,108.361,68.596z"/>
		<path class="st8" d="M144.881,79.526c3.02,0,5.46-2.45,5.46-5.46c0-3.02-2.44-5.47-5.46-5.47s-5.47,2.45-5.47,5.47
			C139.411,77.076,141.861,79.526,144.881,79.526z"/>
		<path class="st8" d="M127.061,140.306c10.167,12.552,30.59,5.358,30.59-10.83c0-5.285-8-5.293-8,0
			c0,10.238-14.409,12.79-17.88,3.16c9.357-1.342,17.16-8.889,17.16-21.38c0-6.63-5.39-12.02-12.02-12.02h-17.75
			c-6.62,0-12.01,5.39-12.01,12.02c0,11.59,6.632,18.932,15.33,21.03c-3.336,10.319-18.01,7.41-18.01-2.81c0-5.281-8-5.294-8,0
			C96.471,145.467,116.767,153.014,127.061,140.306z M115.151,111.256c0-2.22,1.8-4.02,4.01-4.02h17.75c2.22,0,4.02,1.8,4.02,4.02
			C140.931,129.57,115.151,129.514,115.151,111.256z"/>
		<path class="st8" d="M36.561,87.246c0-9.86-8.03-17.89-17.9-17.89c-9.87,0-17.89,8.03-17.89,17.89c0,9.87,8.02,17.9,17.89,17.9
			C28.531,105.146,36.561,97.116,36.561,87.246z M8.771,87.246c0-5.45,4.44-9.89,9.89-9.89c5.46,0,9.9,4.44,9.9,9.89
			c0,5.46-4.44,9.9-9.9,9.9C13.211,97.146,8.771,92.706,8.771,87.246z"/>
		<path class="st8" d="M37.281,60.706c16.41,0,29.76-13.34,29.76-29.75c0-16.41-13.35-29.76-29.76-29.76
			c-16.4,0-29.75,13.35-29.75,29.76C7.531,47.366,20.881,60.706,37.281,60.706z M37.281,9.196c12,0,21.76,9.76,21.76,21.76
			c0,11.99-9.76,21.75-21.76,21.75c-11.99,0-21.75-9.76-21.75-21.75C15.531,18.956,25.291,9.196,37.281,9.196z"/>
		<path class="st8" d="M45.538,36.44c-0.297,0.227-1.975,1.989-2.141,2.195c-3.11,3.867,2.235,8.71,5.803,5.47
			c0.66-0.6,1.29-1.26,1.85-1.95C54.035,38.511,49.282,33.583,45.538,36.44z"/>
		<path class="st8" d="M37.281,21.196c3.87,0,7.41,2.31,8.96,5.9c2.098,4.873,9.463,1.706,7.34-3.19
			c-2.82-6.5-9.22-10.71-16.3-10.71C31.995,13.196,31.988,21.196,37.281,21.196z"/>
		<path class="st8" d="M218.371,190.286c0.016-0.507,0.01-12.262,0.01-12.77h8.85c4.65,0,8.44-3.78,8.44-8.43v-8.16
			c0-4.65-3.79-8.44-8.44-8.44h-5.94c-2.44-7.66-9.63-13.22-18.09-13.22h-6c-8.46,0-15.65,5.56-18.09,13.22h-3.44
			c9.324-11.053,5.352-33.231-2.48-45.64v-9.4c10.116,21.889,9.768,21.32,10.47,22.32c4.645,6.6,14.709,5.835,18.3-1.39
			c0.495-1.024-0.355,1.652,12.54-41.87c2.196-5.702-0.873-12.051-6.57-13.95l-45.89-18.76c19.373-9.686,12.445-39.04-9.22-39.04
			c-3.45,0-6.84,0.87-9.85,2.51c-8.094-8.62-21.854-8.611-29.94,0c-3.01-1.64-6.4-2.51-9.85-2.51
			c-20.767,0-28.498,27.48-10.64,38.26l-44.47,18.18c-5.698,1.899-8.766,8.248-6.57,13.95c12.839,43.332,12.042,40.88,12.55,41.88
			c3.569,7.201,13.639,7.988,18.29,1.38c0.69-1,0.432-0.61,8.52-18.11v9.93c-6.282,11.87-9.218,31.961-0.53,42.26h-3.44
			c-2.44-7.66-9.63-13.22-18.09-13.22h-6c-8.46,0-15.65,5.56-18.09,13.22h-5.94c-4.65,0-8.44,3.79-8.44,8.44v8.16
			c0,4.65,3.79,8.43,8.44,8.43h8.85v11.84c0,24.53,16.43,45.28,38.87,51.84l-5.6,5.6c-4.554,4.578,2.347,11.463,6.91,6.9
			l10.45-10.45c2.659,0.168,76.617,0.182,79.5,0l10.45,10.45c4.565,4.565,11.462-2.324,6.91-6.9l-5.6-5.6
			c5.17-1.51,10.02-3.78,14.42-6.67c5.08,9.08,14.81,15.23,25.94,15.23c16.41,0,29.76-13.35,29.76-29.76
			C249.631,202.691,234.876,189.297,218.371,190.286z M222.201,160.486h5.03c0.24,0,0.44,0.2,0.44,0.44v8.16
			c0,0.24-0.2,0.43-0.44,0.43h-6.38C222.404,166.265,222.201,163.832,222.201,160.486z M28.771,169.516c-0.24,0-0.44-0.19-0.44-0.43
			v-8.16c0-0.24,0.2-0.44,0.44-0.44h5.03c0,3.243-0.222,5.742,1.35,9.03H28.771z M186.351,156.486c0.823-5.19,5.365-9.22,10.85-9.22
			h6c5.485,0,10.027,4.029,10.85,9.22c0.184,1.068,0.15,1.082,0.15,7.03c0,2.25-1.24,4.21-3.07,5.24c0-4.589,0-5.733,0-10.36
			c0-5.316-8-5.254-8,0c0,3.947,0,7.178,0,11.12h-5.86c0-3.952,0-7.137,0-11.12c0-5.344-8-5.232-8,0c0,4.628,0,5.771,0,10.36
			c-1.83-1.03-3.07-2.99-3.07-5.24C186.201,157.731,186.157,157.607,186.351,156.486z M205.331,70.116
			c1.484,0.469,2.277,2.125,1.68,3.58c-0.105,0.252-12.182,41.043-12.22,41.12c-0.889,1.792-3.433,1.983-4.58,0.35
			c-0.031-0.031-29.182-63.11-29.2-63.15C161.167,52.08,205.169,70.067,205.331,70.116z M120.171,60.216
			c-7.74-6-15.15-4.67-19.8-2.13l5.69-12.31c0.77-0.1,1.54-0.25,2.29-0.45c8.32,15.868,30.981,15.866,39.3,0
			c0.54,0.14,1.09,0.26,1.65,0.36c0.111,0.356,6.163,13.401,6.32,13.74c-9.65-6.67-18.6-2.3-22.08,1.08
			c-3.729,3.611,1.668,9.353,5.54,5.77c0.94-0.87,5.97-4.96,12.72,0.26c2.133,1.666,5.339,0.76,6.24-1.88l7.15,15.48v16.98
			c-20.141-19.118-56.498-19.023-76.33,1.95v-16.08l7.89-17.07c1.091,1.528,3.92,2.109,5.81,0.36c0.94-0.87,5.97-4.96,12.71,0.26
			C119.397,69.758,124.428,63.5,120.171,60.216z M165.191,109.266c9.505,13.431,8.371,29.686,6.88,33.74
			c-2.02,5.53-7.34,9.48-13.56,9.48h-61.02c-6.22,0-11.54-3.95-13.56-9.48c-1.825-4.963-1.781-19.281,4.93-30.72
			C105.289,84.281,147.766,84.622,165.191,109.266z M103.181,12.756c2.97,0,5.85,1.06,8.13,2.98c1.918,1.616,4.728,1.071,5.98-0.94
			c4.966-7.993,16.463-7.979,21.42,0c1.269,2.039,4.084,2.538,5.98,0.94c2.27-1.92,5.16-2.98,8.13-2.98
			c16.675,0,16.685,25.23,0,25.23c-1.912,0-3.813-0.426-5.61-1.33c-2.212-1.106-4.925,0.049-5.62,2.45
			c-4.065,13.547-23.153,13.419-27.18,0c-0.696-2.406-3.414-3.553-5.62-2.45c-1.76,0.88-3.65,1.33-5.61,1.33
			C86.364,37.986,86.591,12.756,103.181,12.756z M65.791,113.806c-1.157,1.632-3.691,1.437-4.58-0.34
			c-0.093-0.28-12.13-40.915-12.22-41.13c-0.598-1.456,0.197-3.111,1.68-3.58c0.139-0.042,44.185-18.045,44.32-18.1
			C94.773,51.127,66.023,113.341,65.791,113.806z M77.801,160.486c11.882,0,90.08,0,100.4,0c0,3.243-0.222,5.742,1.35,9.03h-103.1
			C78.004,166.265,77.801,163.832,77.801,160.486z M44.871,168.756c-1.83-1.03-3.07-2.99-3.07-5.24c0-5.785-0.043-5.909,0.15-7.03
			c0.823-5.19,5.365-9.22,10.85-9.22h6c5.509,0,10.035,4.08,10.85,9.22c0.75,4.349,0.915,10.111-2.92,12.27c0-4.589,0-5.733,0-10.36
			c0-5.345-8-5.232-8,0c0,3.947,0,7.178,0,11.12h-5.86c0-3.952,0-7.137,0-11.12c0-5.324-8-5.248-8,0
			C44.871,163.023,44.871,164.166,44.871,168.756z M190.941,226.896c-7.801,5.524-17.032,8.46-26.56,8.46h-72.76
			c-25.214,0-46-20.493-46-46v-11.84c11.115,0,158.763,0,164.69,0c0,12.779,0.093,12.779,0,14.31
			C195.79,196.753,187.326,212.036,190.941,226.896z M219.871,241.756c-11.963,0-21.75-9.745-21.75-21.76
			c0-12.013,9.791-21.75,21.75-21.75c12,0,21.76,9.76,21.76,21.75C241.631,231.996,231.871,241.756,219.871,241.756z"/>
		<path class="st8" d="M228.058,225.536c-0.294,0.234-2.039,2.097-2.181,2.291c-2.859,3.889,2.438,8.521,5.914,5.32
			c0.66-0.6,1.29-1.25,1.85-1.95C236.639,227.534,231.802,222.548,228.058,225.536z"/>
		<path class="st8" d="M219.871,202.246c-5.296,0-5.322,8,0,8c3.775,0,7.376,2.223,8.96,5.89c2.112,4.906,9.454,1.673,7.34-3.18
			C233.351,206.446,226.951,202.246,219.871,202.246z"/>
		<path class="st8" d="M198.921,55.896c9.521,2.608,19.373-3.01,21.98-12.55c2.599-9.532-3.011-19.373-12.55-21.98
			c-9.504-2.598-19.367,2.991-21.98,12.55C183.773,43.419,189.361,53.283,198.921,55.896z M194.091,36.026
			c1.446-5.303,6.946-8.376,12.15-6.94c5.311,1.458,8.386,6.91,6.94,12.15c-1.423,5.257-6.862,8.392-12.15,6.94
			C195.702,46.713,192.655,41.256,194.091,36.026z"/>
		<path class="st8" d="M207.971,121.866c0,9.87,8.03,17.9,17.89,17.9c9.87,0,17.9-8.03,17.9-17.9c0-9.86-8.03-17.89-17.9-17.89
			C216.001,103.976,207.971,112.006,207.971,121.866z M225.861,111.976c5.46,0,9.9,4.44,9.9,9.89c0,5.46-4.44,9.9-9.9,9.9
			c-5.45,0-9.89-4.44-9.89-9.9C215.971,116.416,220.411,111.976,225.861,111.976z"/>
		<path class="st8" d="M242.041,46.956c-9.546-2.609-19.363,3.01-21.97,12.55c-2.614,9.563,3.025,19.387,12.55,21.97
			c9.557,2.617,19.381-3.065,21.97-12.55C257.2,59.38,251.58,49.563,242.041,46.956z M246.881,66.826
			c-1.44,5.26-6.88,8.37-12.15,6.94c-5.27-1.44-8.38-6.89-6.94-12.15c1.428-5.276,6.877-8.395,12.15-6.94
			C245.2,56.099,248.311,61.538,246.881,66.826z"/>
		<path class="st8" d="M33.901,141.546c9.87,0,17.9-8.03,17.9-17.89c0-9.87-8.03-17.9-17.9-17.9c-9.86,0-17.89,8.03-17.89,17.9
			C16.011,133.516,24.041,141.546,33.901,141.546z M33.901,113.756c5.46,0,9.9,4.44,9.9,9.9c0,5.45-4.44,9.89-9.9,9.89
			c-5.45,0-9.89-4.44-9.89-9.89C24.011,118.196,28.451,113.756,33.901,113.756z"/>
	</g>
</g>
</svg>
