<?xml version="1.0" encoding="utf-8"?>
<!-- Generator: Adobe Illustrator 22.1.0, SVG Export Plug-In . SVG Version: 6.00 Build 0)  -->
<svg version="1.1" id="Icon_Set" xmlns="http://www.w3.org/2000/svg" xmlns:xlink="http://www.w3.org/1999/xlink" x="0px" y="0px"
	 viewBox="0 0 256 256" style="enable-background:new 0 0 256 256;" xml:space="preserve">
<style type="text/css">
	.st0{fill:#5FCDFF;}
	.st1{fill:#87828E;}
	.st2{fill:#B76C6C;}
	.st3{fill:#FF4A73;}
	.st4{fill:#73D7F9;}
	.st5{fill:#30B6FF;}
	.st6{fill:#A4A4A5;}
	.st7{fill:#F973A3;}
	.st8{fill:#5F266D;}
	.st9{fill:#FFE2E2;}
	.st10{fill:#FFEFEE;}
	.st11{fill:#796E84;}
	.st12{fill:#3193F3;}
	.st13{fill:#35B1FC;}
	.st14{fill:#307FED;}
	.st15{fill:#FFCFCF;}
	.st16{fill:#EA2A6A;}
	.st17{fill:#44C7B6;}
	.st18{fill:#3BB2A0;}
	.st19{fill:#4BDBC3;}
	.st20{fill:#C98585;}
	.st21{fill:#965959;}
	.st22{fill:#FFBB98;}
	.st23{fill:#FFCAA6;}
	.st24{fill:#FFAA80;}
	.st25{fill:#F9D335;}
	.st26{fill:#F2C300;}
	.st27{fill:#F9E27D;}
</style>
<g>
	<g id="XMLID_106_">
		<g id="XMLID_35_">
			<path id="XMLID_296_" class="st2" d="M182.307,121.315v91.21H72.387c0-0.609-0.006-91.733,0.01-92.34
				c0.33-12.71,6.07-24.06,15-31.84c7.69-6.7,17.72-10.75,28.71-10.75h22.48c11,0,21.03,4.05,28.72,10.76
				C176.497,96.365,182.307,108.155,182.307,121.315z"/>
			<path id="XMLID_295_" class="st21" d="M182.307,121.315v91.21h-15V88.355C176.497,96.365,182.307,108.155,182.307,121.315z"/>
			<path id="XMLID_292_" class="st2" d="M233.163,122.302c-16.554,55.862-15.688,53.152-16.086,53.953
				c-2.921,5.87-11.142,6.487-14.908,1.126c-0.504-0.718,2.359,5.343-44.087-95.146l69.648,28.468
				C232.576,112.246,235.08,117.591,233.163,122.302z"/>
			<path id="XMLID_291_" class="st3" d="M163.638,250.668H91.09c-2.761,0-5-2.239-5-5v-5.356c0-2.761,2.239-5,5-5h72.549
				c2.761,0,5,2.239,5,5v5.356C168.638,248.43,166.4,250.668,163.638,250.668z"/>
			<path id="XMLID_290_" class="st7" d="M106.094,250.665h-15c-2.77,0-5-2.24-5-5v-5.35c0-2.76,2.23-5,5-5h15c-2.77,0-5,2.24-5,5
				v5.35C101.094,248.425,103.324,250.665,106.094,250.665z"/>
			<path id="XMLID_289_" class="st16" d="M168.634,240.315v5.35c0,2.76-2.23,5-5,5h-15c2.77,0,5-2.24,5-5v-5.35c0-2.76-2.23-5-5-5
				h15C166.404,235.315,168.634,237.555,168.634,240.315z"/>
			<path id="XMLID_288_" class="st20" d="M87.397,88.345v124.18h-15v-92.34C72.727,107.475,78.467,96.125,87.397,88.345z"/>
			<path id="XMLID_287_" class="st22" d="M165.827,235.312h-76.96c-13.982,0-25.316-11.334-25.316-25.316
				c0-38.031,29.81-64.935,63.796-64.935h0c35.233,0,63.796,28.562,63.796,63.796C191.143,225.125,179.027,235.312,165.827,235.312z
				"/>
			<path id="XMLID_286_" class="st24" d="M191.156,208.853c0,16.267-12.117,26.46-25.32,26.46h-15c13.98,0,25.32-11.34,25.32-25.32
				c0-18.818-6.906-34.466-18.69-46.25c-9.88-9.88-22.99-16.53-37.61-18.24c2.46-0.29,4.96-0.44,7.5-0.44
				c17.62,0,33.57,7.14,45.11,18.68C184.016,175.293,191.156,191.233,191.156,208.853z"/>
			<path id="XMLID_285_" class="st23" d="M103.892,235.315h-15c-13.98,0-25.31-11.34-25.31-25.32c0-38.027,29.806-64.93,63.79-64.93
				c2.54,0,5.04,0.15,7.5,0.44c-30.397,3.558-56.29,28.95-56.29,64.49C78.582,223.975,89.912,235.315,103.892,235.315z"/>
			<path id="XMLID_284_" class="st2" d="M130.689,199.278c-16.442,0-24.038-8.966-24.038-20c0-9.736,4.189-13.379,10-13.379h24.038
				c11.913,0,10,14.673,10,13.379C150.689,190.324,141.735,199.278,130.689,199.278z"/>
			<path id="XMLID_283_" class="st20" d="M136.174,198.505c-1.74,0.5-3.58,0.77-5.48,0.77c-16.449,0-24.04-8.962-24.04-20
				c0-9.726,4.175-13.38,10-13.38h15c-5.747,0-10,3.573-10,13.38C121.654,188.425,127.794,196.135,136.174,198.505z"/>
			<path id="XMLID_282_" class="st2" d="M22.172,122.162c16.554,55.862,15.688,53.152,16.087,53.953
				c2.921,5.87,11.141,6.487,14.908,1.126c0.504-0.718-2.359,5.344,44.087-95.147l-69.648,28.468
				C22.759,112.106,20.255,117.451,22.172,122.162z"/>
		</g>
		<path id="XMLID_325_" class="st3" d="M196.667,38.337H62.688V20.335c0-8.284,6.716-15,15-15h103.979c8.284,0,15,6.716,15,15
			V38.337z"/>
		<path id="XMLID_324_" class="st7" d="M92.687,5.335c-8.28,0-15,6.72-15,15v18h-15v-18c0-8.28,6.72-15,15-15H92.687z"/>
		<path id="XMLID_323_" class="st16" d="M196.667,20.335v18h-15v-18c0-8.28-6.72-15-15-15h15
			C189.947,5.335,196.667,12.055,196.667,20.335z"/>
	</g>
	<g id="XMLID_62_">
		<path id="XMLID_63_" class="st8" d="M94.957,116.835c0.83-0.77,8.34-7.33,18.15,0.27c4.124,3.22,9.149-3.042,4.9-6.32
			c-12.44-9.64-24.15-4.03-28.59,0.29C85.661,114.713,91.115,120.437,94.957,116.835z"/>
		<path id="XMLID_98_" class="st8" d="M103.347,120.745c-3.93,0-7.12,3.19-7.12,7.13c0,3.93,3.19,7.12,7.12,7.12
			c3.94,0,7.13-3.19,7.13-7.12C110.477,123.935,107.287,120.745,103.347,120.745z"/>
		<path id="XMLID_100_" class="st8" d="M142.567,116.835c0.82-0.77,8.33-7.33,18.15,0.27c4.078,3.228,9.165-3.022,4.89-6.32
			c-12.44-9.64-24.14-4.03-28.59,0.29C133.272,114.702,138.71,120.452,142.567,116.835z"/>
		<path id="XMLID_101_" class="st8" d="M150.947,120.745c-3.93,0-7.12,3.19-7.12,7.13c0,3.93,3.19,7.12,7.12,7.12
			c3.94,0,7.13-3.19,7.13-7.12C158.077,123.935,154.887,120.745,150.947,120.745z"/>
		<path id="XMLID_114_" class="st8" d="M229.447,106.945l-68.82-28.12l-0.04-0.02c-6.5-3.33-13.86-5.21-21.66-5.21h-22.49
			c-8.2,0-15.92,2.08-22.67,5.75l-0.05,0.02l-67.16,27.44c-6.967,2.329-10.427,9.995-7.84,16.66c16.8,56.7,15.703,53.24,16.29,54.43
			c4.292,8.607,16.274,9.471,21.77,1.64c0.718-1.031-0.046,0.48,11.95-25.47v21.34c-13.676,24-13.412,56.87,13.87,63.15
			c-0.22,1.14-0.17,1.306-0.17,7.11c0,4.97,4.03,9,9,9h72.54c4.97,0,9-4.03,9-9c0-5.806,0.05-5.98-0.17-7.12
			c27.116-6.267,27.571-39.044,13.84-63.14v-22.57c12.594,27.251,11.853,25.799,12.59,26.85c5.512,7.832,17.499,6.937,21.76-1.65
			c0.57-1.141-0.541,2.372,16.29-54.43C239.886,116.885,236.374,109.261,229.447,106.945z M100.727,84.845
			c4.82-2.09,10.13-3.25,15.71-3.25h22.49c5.86,0,11.43,1.28,16.44,3.58l23.27,50.35v28.66c-12.44-14.17-30.67-23.12-50.96-23.12
			c-20.28,0-38.52,8.95-50.95,23.12v-27.43L100.727,84.845z M50.227,174.945c-2.022,2.878-6.479,2.546-8.05-0.61
			c-0.228-0.456-15.778-53.22-15.97-53.68c-1.038-2.554,0.332-5.452,2.94-6.28c0.124-0.034,60.418-24.68,60.54-24.73
			C89.58,89.878,50.375,174.736,50.227,174.945z M164.967,245.665c0,0.55-0.44,1-1,1h-72.54c-0.56,0-1-0.45-1-1v-5.35
			c0-0.55,0.44-1,1-1h72.54c0.56,0,1,0.45,1,1V245.665z M166.157,231.315c-3.695,0-73.189,0-76.96,0
			c-26.183,0-25.737-32.193-12.47-53.71c10.53-17.11,29.43-28.54,50.95-28.54s40.43,11.43,50.96,28.54
			C192.026,199.353,192.31,231.315,166.157,231.315z M229.657,121.165c-0.084,0.284-15.698,53.045-15.83,53.31
			c-1.57,3.156-6.023,3.495-8.05,0.61c-0.168-0.238-39.348-85.036-39.47-85.3c15.761,6.44,1.021,0.416,60.24,24.62
			C229.53,115.598,230.813,117.702,229.657,121.165z"/>
		<path id="XMLID_124_" class="st8" d="M158.387,200.095c0,15.553-22.4,18.254-26.08,3.15c12.64-0.67,22.72-11.16,22.72-23.97
			c0-12.097-6.163-17.38-14-17.38h-24.04c-7.572,0-14,4.991-14,17.38c0,11.95,8.77,21.88,20.22,23.7
			c-3.431,15.514-26.14,12.688-26.14-2.88c0-5.285-8-5.293-8,0c0,20.635,26.834,29.205,38.66,12.1
			c11.714,16.944,38.66,8.747,38.66-12.1C166.387,194.81,158.387,194.802,158.387,200.095z M110.987,179.275
			c0-1.501-0.963-9.38,6-9.38h24.04c6.726,0,6,7.3,6,9.38C147.027,200.746,110.987,200.714,110.987,179.275z"/>
		<path id="XMLID_128_" class="st8" d="M66.667,68.335v-26h15v26c0,5.285,8,5.292,8,0v-26h14v26c0,5.285,8,5.292,8,0v-26h14v26
			c0,5.285,8,5.292,8,0v-26h14v26c0,5.285,8,5.292,8,0v-26h14v26c0,5.285,8,5.292,8,0v-26h15v26c0,5.285,8,5.292,8,0
			c0-4.68,0-42.632,0-48c0-10.48-8.52-19-19-19H77.687c-10.48,0-19,8.52-19,19c0,6.76-0.02,13.678-0.02,48
			C58.667,73.62,66.667,73.627,66.667,68.335z M66.687,20.335c0-6.07,4.94-11,11-11h103.98c6.07,0,11,4.93,11,11v14H66.687V20.335z"
			/>
		<path id="XMLID_132_" class="st8" d="M176.667,18.335h-4c-5.285,0-5.293,8,0,8h4C181.952,26.335,181.96,18.335,176.667,18.335z"/>
		<path id="XMLID_133_" class="st8" d="M157.667,18.335h-20c-5.285,0-5.293,8,0,8h20C162.952,26.335,162.96,18.335,157.667,18.335z"
			/>
	</g>
</g>
</svg>
