<?xml version="1.0" encoding="utf-8"?>
<!-- Generator: Adobe Illustrator 22.1.0, SVG Export Plug-In . SVG Version: 6.00 Build 0)  -->
<svg version="1.1" id="Icon_Set" xmlns="http://www.w3.org/2000/svg" xmlns:xlink="http://www.w3.org/1999/xlink" x="0px" y="0px"
	 viewBox="0 0 256 256" style="enable-background:new 0 0 256 256;" xml:space="preserve">
<style type="text/css">
	.st0{fill:#5FCDFF;}
	.st1{fill:#87828E;}
	.st2{fill:#B76C6C;}
	.st3{fill:#FF4A73;}
	.st4{fill:#73D7F9;}
	.st5{fill:#30B6FF;}
	.st6{fill:#A4A4A5;}
	.st7{fill:#F973A3;}
	.st8{fill:#5F266D;}
	.st9{fill:#FFE2E2;}
	.st10{fill:#FFEFEE;}
	.st11{fill:#796E84;}
	.st12{fill:#3193F3;}
	.st13{fill:#35B1FC;}
	.st14{fill:#307FED;}
	.st15{fill:#FFCFCF;}
	.st16{fill:#EA2A6A;}
	.st17{fill:#44C7B6;}
	.st18{fill:#3BB2A0;}
	.st19{fill:#4BDBC3;}
	.st20{fill:#C98585;}
	.st21{fill:#965959;}
	.st22{fill:#FFBB98;}
	.st23{fill:#FFCAA6;}
	.st24{fill:#FFAA80;}
	.st25{fill:#F9D335;}
	.st26{fill:#F2C300;}
	.st27{fill:#F9E27D;}
</style>
<g>
	<g>
		<path class="st3" d="M90.035,9.423H15.482C9.696,9.423,5,14.113,5,19.905c0,5.789,4.693,10.482,10.482,10.482h49.56
			c-2.754,15.676,9.319,29.805,24.993,29.805c14.02,0,25.385-11.365,25.385-25.385C115.42,20.788,104.055,9.423,90.035,9.423z"/>
		<path class="st2" d="M155.702,88.167v38.212c0,6.172-5.002,11.183-11.175,11.183h-46.32c-5.572,0-10.613-2.258-14.265-5.91
			c-10.117-10.117-6.797-27.423,6.6-32.94c2.363-0.968,4.95-1.508,7.665-1.508h3.877c1.238,0,2.355-0.503,3.165-1.32
			c0.802-0.803,1.305-1.92,1.305-3.15v-4.567c0-11.67,9.465-21.135,21.135-21.135h6.885
			C146.245,67.032,155.702,76.497,155.702,88.167z"/>
		<path class="st20" d="M136.757,67.144c-10.643,1.095-18.952,10.087-18.952,21.023v4.567c0,1.23-0.503,2.348-1.305,3.15
			c-0.81,0.817-1.928,1.32-3.165,1.32h-3.877c-2.715,0-5.303,0.54-7.665,1.508c-13.395,5.52-16.717,22.822-6.6,32.94
			c3.652,3.652,8.693,5.91,14.265,5.91h-11.25c-5.572,0-10.613-2.258-14.265-5.91c-10.117-10.117-6.795-27.42,6.6-32.94
			c2.363-0.968,4.95-1.508,7.665-1.508h3.877c1.238,0,2.355-0.503,3.165-1.32c0.802-0.803,1.305-1.92,1.305-3.15v-4.567
			c0-11.67,9.465-21.135,21.135-21.135h6.885C135.31,67.032,136.037,67.069,136.757,67.144z"/>
		<path class="st2" d="M148.714,69.154c-3.446-2.73-8.418,0.347-7.512,4.649l17.945,60.693c0.124,0.269,0.258,0.536,0.429,0.779
			c2.349,3.343,7.482,2.948,9.286-0.73c0.118-0.24,0.202-0.495,0.278-0.751l8.005-27.015c1.056-3.563,0.134-7.419-2.42-10.119
			L148.714,69.154z"/>
		<path class="st21" d="M251.036,178.962c-4.117-5.063-8.138-7.582-12.292-7.582c-1.073,0-2.16,0.165-3.255,0.502
			c-5.258,1.62-8.708,6.682-8.708,12.188v0.69c0,4.208-1.268,8.265-3.57,11.67c-0.592,0.878-1.635,1.635-2.805,2.265
			c-2.722,1.478-5.82,2.145-8.917,2.145h-8.52l4.29,16.958h11.948c6.375,0,12.15-2.588,16.335-6.765
			c4.177-4.185,6.765-9.96,6.765-16.342v-5.535c0-4.08,3.307-7.38,7.387-7.38c1.028,0,1.733-0.84,1.733-1.733
			C251.426,179.667,251.306,179.292,251.036,178.962z"/>
		<path class="st2" d="M110.651,164.817l-13.14,68.422H85.526c-4.447,0-8.055,3.608-8.055,8.055v0.803
			c0,4.455,3.607,8.063,8.055,8.063h8.738h8.123c4.447,0,8.055-3.608,8.055-8.063l10.384-48.71L110.651,164.817z"/>
		<path class="st3" d="M152.529,157.052h-41.882V140.74c0-1.756,1.423-3.179,3.179-3.179h35.523c1.756,0,3.179,1.423,3.179,3.179
			V157.052z"/>
		<path class="st22" d="M112.682,137.562H98.207c-5.572,0-10.613-2.258-14.265-5.91s-5.91-8.7-5.91-14.273
			c0-1.733,0.218-3.42,0.63-5.032c1.59-6.195,6.053-11.235,11.88-13.635c2.363-0.968,4.95-1.508,7.665-1.508h3.877
			c1.238,0,2.355-0.503,3.165-1.32v0.008C105.25,95.892,128.372,115.339,112.682,137.562z"/>
		<path class="st7" d="M125.08,137.562c-1.763,0-3.18,1.425-3.18,3.18v16.313h-11.25v-16.313c0-1.755,1.418-3.18,3.18-3.18H125.08z"
			/>
		<path class="st16" d="M152.53,140.742v16.313h-11.25v-16.313c0-1.755-1.425-3.18-3.18-3.18h11.25
			C151.105,137.562,152.53,138.987,152.53,140.742z"/>
		<path class="st20" d="M169.667,132.027c-0.343,1.158-0.575,2.034-0.803,2.52c-1.958,3.98-7.773,4.071-9.72-0.052l-17.94-60.69
			c-0.908-4.305,4.065-7.38,7.507-4.65l3.645,3.855c0.007,0.262,0.037,0.525,0.098,0.795L169.667,132.027z"/>
		<path class="st23" d="M109.457,137.562c-10.87,0-18.367,1.238-25.515-5.91c-3.255-3.256-5.002-7.484-5.002-8.273
			c-4.074-11.811,4.896-26.175,19.268-26.175h3.877c1.238,0,2.355-0.503,3.165-1.32v0.008c0,0,0.622,0.525,1.59,1.492
			c-1.763,0.217-3.458,0.675-5.048,1.328c-13.395,5.52-16.717,22.822-6.6,32.94C98.845,135.304,103.885,137.562,109.457,137.562z"/>
		<path class="st23" d="M109.457,137.562c-10.87,0-18.367,1.238-25.515-5.91c-3.255-3.256-5.002-7.484-5.002-8.273
			c-4.066-11.79,4.863-26.175,19.268-26.175h3.877c1.238,0,2.355-0.503,3.165-1.32v0.008c0,0,0.622,0.525,1.59,1.492
			c-1.763,0.217-3.458,0.675-5.048,1.328c-13.395,5.52-16.717,22.822-6.6,32.94C98.845,135.304,103.885,137.562,109.457,137.562z"/>
		<path class="st2" d="M93.644,102.968v1.507c0,4.941-4.007,8.943-8.943,8.943h-1.807c-1.534,0-2.974-0.385-4.235-1.069
			c1.592-6.198,6.055-11.242,11.886-13.638C92.343,99.293,93.644,100.974,93.644,102.968z"/>
		<path class="st7" d="M20,19.91c0,5.78,4.69,10.48,10.48,10.48h-15C9.69,30.39,5,25.69,5,19.91c0-5.8,4.7-10.49,10.48-10.49h15
			C24.7,9.42,20,14.11,20,19.91z"/>
		<path class="st2" d="M191.52,187.206l-39.02-30.007h-41.881v19.915c0,17.719,4.93,38.081,28.142,34.717
			c1.443-0.209,2.871,0.468,3.669,1.688l4.488,6.867c0.532,0.814,0.727,1.803,0.544,2.759l-1.966,10.237h-11.982
			c-10.585,0-10.837,16.923,0,16.923c6.867,0,50.788,0,57.577,0c1.929,0,2.8-1.131,4.105-2.414
			C212.65,230.743,210.916,202.123,191.52,187.206z"/>
		<path class="st20" d="M148.51,250.31h-15c-10.74,0-10.78-16.93,0-16.93h15C137.77,233.38,137.73,250.31,148.51,250.31z"/>
		<path class="st20" d="M141.11,210.94c-1,0.44-1.88,0.82-2.35,0.89c-23.21,3.36-28.14-17-28.14-34.72V157.2h15v19.91
			C125.62,190.99,128.65,206.49,141.11,210.94z"/>
		<path class="st21" d="M193.91,249.15c-1.566,1.546-1.696,1.16-17.82,1.16c1.06,0,2.07-0.42,2.82-1.16
			c20.175-19.703,15.939-47.853-2.39-61.94L137.5,157.2h15l39.02,30.01C209.746,201.218,214.182,229.351,193.91,249.15z"/>
	</g>
	<g>
		<circle class="st8" cx="120.195" cy="95.123" r="4.323"/>
		<path class="st8" d="M254.1,176.571c-5.306-6.504-11.868-10.821-19.817-8.364c-6.31,1.943-11.533,7.924-11.533,16.703
			c0,3.372-0.998,6.634-2.877,9.421c-0.003,0.004-0.293,0.392-1.399,0.992c-3.746,2.031-6.972,1.667-13.177,1.667
			c-2.867-4.961-6.69-9.38-11.338-12.955L156.5,155.229v-14.342c0-1.4-0.409-2.704-1.105-3.81c0.104-0.108,0.202-0.222,0.303-0.333
			c3.671,7.243,14.845,6.427,17.248-1.667l8.006-27.015c1.456-4.914,0.173-10.28-3.349-14.004
			c-0.308-0.325-26.083-27.614-26.434-27.892c-2.328-1.845-5.299-2.333-8.013-1.461c-5.028-1.842-8.315-1.524-15.496-1.524
			c-13.857,0-25.13,11.273-25.13,25.13v4.57c0,0.259-0.211,0.47-0.47,0.47c-4.269,0-7.243-0.208-11.624,1.278l-0.084-0.027
			c-27.117,11.142-17.696,47.109,7.829,47.109h8.438c0,19.014,0,14.153,0,22.88l-12.443,64.79H85.5
			c-6.055,0-12.06,4.548-12.06,12.87c0,6.65,5.41,12.06,12.06,12.06h16.86c4.328,0,8.34-2.342,10.461-6.092
			c0.963-1.683,1.506-3.579,1.58-5.527l6.342-29.88c5.002,3.008,11.175,4.021,18.409,3.005l4.363,6.674l-1.324,6.892h-8.677
			c-6.045,0-12.059,4.536-12.059,12.865c0,6.649,5.41,12.059,12.059,12.059h57.577c2.117,0,4.115-0.817,5.627-2.302
			c8.543-8.397,13.665-17.895,14.432-30.064h8.03c14.943,0,27.1-12.157,27.1-27.1v-5.54c0-1.864,1.521-3.38,3.39-3.38
			c3.154,0,5.72-2.57,5.72-5.73C255.39,178.855,254.943,177.603,254.1,176.571z M146.048,72.334l25.742,27.22
			c1.567,1.658,2.139,4.047,1.491,6.235l-8.005,27.012c-0.017,0.058-0.033,0.117-0.036,0.129c-0.473,0.965-1.825,1.018-2.386,0.243
			l-17.786-60.156C145.009,72.491,145.63,72.12,146.048,72.334z M89.615,103.836c0,3.981-2.252,5.729-5.498,5.729
			C85.503,107.13,87.368,105.245,89.615,103.836z M105.868,244.261c-0.715,1.264-2.059,2.049-3.508,2.049H85.5
			c-5.443,0-5.424-8.93,0-8.93h15.285l8.036-41.841c1.205,4.294,2.899,7.953,5.086,10.949
			C113.894,206.546,105.898,244.209,105.868,244.261z M110.494,133.71H98.18c-5.162,0-10.171-2.438-13.332-7.025
			c1.827,0.865,3.86,1.363,6.011,1.363c7.783,0,14.114-6.332,14.114-14.114c0-2.209-1.791-4-4-4s-4,1.791-4,4
			c0,3.372-2.743,6.114-6.114,6.114c-2.039,0-3.843-1.007-4.954-2.545c7.924-0.753,13.122-8.356,11.512-16.116
			c3.765-0.175,5.065,0.241,7.185-0.428C109.212,105.695,119.587,118.826,110.494,133.71z M110.198,95.204
			c0.868-3.036-0.354-7.042,1.045-11.756c0.012,3.519,4.253,5.311,6.779,2.857c0.219-0.213,2.233-2.017,5.21,0.291
			c1.745,1.352,4.258,1.035,5.612-0.712c1.353-1.746,1.034-4.259-0.712-5.612c-6.764-5.24-13.214-2.102-15.68,0.291
			c-0.044,0.043-0.074,0.093-0.116,0.137c2.809-5.633,8.614-9.521,15.325-9.521c7.704,0,7.696-0.062,9.565,0.231
			c-0.501,2.795-1.106-0.445,14.455,52.185v2.934c0,3.939-3.19,7.146-7.122,7.177h-25.061
			C126.488,117.769,117.85,102.904,110.198,95.204z M148.5,141.707v11.492h-33.882V141.71
			C142.885,141.71,148.399,141.707,148.5,141.707z M191.09,246.306h-57.577c-5.442,0-5.422-8.923,0-8.923h11.982
			c1.918,0,3.566-1.362,3.928-3.246l1.966-10.237c0.381-1.985-0.018-4.011-1.124-5.702l-4.488-6.867
			c-1.653-2.53-4.631-3.89-7.591-3.458c-6.591,0.953-11.602-0.146-15.321-3.365c-6.817-5.901-8.248-18.154-8.248-27.394v-15.915
			h36.521l37.941,29.178C205.397,202.923,209.617,228.272,191.09,246.306z M238.28,189.3v5.54c0,10.532-8.568,19.1-19.1,19.1h-8.24
			c-0.363-3.067-1.042-6.064-2.015-8.95c3.013,0,7.978,0.285,13.364-2.635c5.952-3.232,8.461-11.276,8.461-17.445
			c0-8.039,7.437-12.807,14.543-6.117C241.179,180.511,238.28,184.573,238.28,189.3z"/>
		<path class="st8" d="M176.423,186.655l-2.922-2.061c-1.806-1.273-4.302-0.841-5.574,0.964c-1.273,1.806-0.841,4.301,0.964,5.574
			l2.922,2.061c1.806,1.274,4.302,0.841,5.574-0.964C178.66,190.423,178.228,187.928,176.423,186.655z"/>
		<path class="st8" d="M161.24,175.951l-8.99-6.338c-1.805-1.273-4.301-0.841-5.574,0.964c-1.273,1.805-0.841,4.301,0.964,5.574
			l8.99,6.338C160.966,185.548,165.54,178.983,161.24,175.951z"/>
		<path class="st8" d="M119.42,34.808c0-16.203-13.182-29.385-29.385-29.385H15.482C7.497,5.423,1,11.919,1,19.905
			s6.497,14.482,14.482,14.482h45.175c-0.105,7.014,2.294,13.858,6.869,19.306c5.602,6.672,13.806,10.499,22.509,10.499
			C106.238,64.192,119.42,51.01,119.42,34.808z M73.652,48.55c-4.068-4.845-5.77-11.212-4.671-17.47
			c0.43-2.449-1.457-4.692-3.939-4.692h-49.56C11.908,26.388,9,23.479,9,19.905s2.908-6.482,6.482-6.482h74.553
			c11.792,0,21.385,9.593,21.385,21.385s-9.593,21.385-21.385,21.385C83.702,56.192,77.73,53.407,73.652,48.55z"/>
		<path class="st8" d="M130.282,33.796h19.13c2.209,0,4-1.791,4-4s-1.791-4-4-4h-19.13c-2.209,0-4,1.791-4,4
			S128.073,33.796,130.282,33.796z"/>
		<path class="st8" d="M132.051,18.318l19.13-9.434c1.981-0.977,2.795-3.375,1.818-5.356c-0.977-1.982-3.376-2.797-5.356-1.818
			l-19.13,9.434c-1.981,0.977-2.795,3.375-1.818,5.356C127.672,18.483,130.072,19.295,132.051,18.318z"/>
		<path class="st8" d="M128.462,51.227l20.197,6.856c5.064,1.723,7.53-5.892,2.571-7.575l-20.197-6.856
			c-2.091-0.711-4.363,0.41-5.073,2.502S126.371,50.517,128.462,51.227z"/>
	</g>
</g>
</svg>
