<?xml version="1.0" encoding="utf-8"?>
<!-- Generator: Adobe Illustrator 22.1.0, SVG Export Plug-In . SVG Version: 6.00 Build 0)  -->
<svg version="1.1" id="Icon_Set" xmlns="http://www.w3.org/2000/svg" xmlns:xlink="http://www.w3.org/1999/xlink" x="0px" y="0px"
	 viewBox="0 0 256 256" style="enable-background:new 0 0 256 256;" xml:space="preserve">
<style type="text/css">
	.st0{fill:#5FCDFF;}
	.st1{fill:#87828E;}
	.st2{fill:#B76C6C;}
	.st3{fill:#FF4A73;}
	.st4{fill:#73D7F9;}
	.st5{fill:#30B6FF;}
	.st6{fill:#A4A4A5;}
	.st7{fill:#F973A3;}
	.st8{fill:#5F266D;}
	.st9{fill:#FFE2E2;}
	.st10{fill:#FFEFEE;}
	.st11{fill:#796E84;}
	.st12{fill:#3193F3;}
	.st13{fill:#35B1FC;}
	.st14{fill:#307FED;}
	.st15{fill:#FFCFCF;}
	.st16{fill:#EA2A6A;}
	.st17{fill:#44C7B6;}
	.st18{fill:#3BB2A0;}
	.st19{fill:#4BDBC3;}
	.st20{fill:#C98585;}
	.st21{fill:#965959;}
	.st22{fill:#FFBB98;}
	.st23{fill:#FFCAA6;}
	.st24{fill:#FFAA80;}
	.st25{fill:#F9D335;}
	.st26{fill:#F2C300;}
	.st27{fill:#F9E27D;}
</style>
<g>
	<path class="st2" d="M101.385,40.61v47.42c0,7.65-6.21,13.87-13.87,13.87h-57.48c-6.91,0-13.17-2.8-17.7-7.34
		c-4.54-4.53-7.34-10.79-7.34-17.7c0-2.16,0.27-4.25,0.79-6.25c1.97-7.69,7.51-13.94,14.74-16.92c2.93-1.2,6.15-1.87,9.51-1.87h4.82
		c1.53,0,2.91-0.62,3.92-1.62v-0.01c1-1.01,1.62-2.39,1.62-3.92v-5.66c0-14.49,11.75-26.23,26.23-26.23h8.54
		C89.645,14.38,101.385,26.12,101.385,40.61z"/>
	<path class="st20" d="M78.395,14.59c-12.96,1.58-23,12.63-23,26.02v5.66c0,1.53-0.62,2.91-1.62,3.92v0.01
		c-1.01,1-2.39,1.62-3.92,1.62h-4.82c-3.36,0-6.58,0.67-9.51,1.87c-7.23,2.98-12.77,9.23-14.74,16.92c-0.52,2-0.79,4.09-0.79,6.25
		c0,6.91,2.8,13.17,7.34,17.7c4.53,4.54,10.79,7.34,17.7,7.34h-15c-6.91,0-13.17-2.8-17.7-7.34c-4.54-4.53-7.34-10.79-7.34-17.7
		c0-2.16,0.27-4.25,0.79-6.25c1.97-7.69,7.51-13.94,14.74-16.92c2.93-1.2,6.15-1.87,9.51-1.87h4.82c1.53,0,2.91-0.62,3.92-1.62
		v-0.01c1-1.01,1.62-2.39,1.62-3.92v-5.66c0-14.49,11.75-26.23,26.23-26.23h8.54C76.255,14.38,77.335,14.45,78.395,14.59z"/>
	<path class="st2" d="M63.613,154.884v65.736H52.778c-5.523,0-10,4.477-10,10v1c0,5.523,4.477,10,10,10h10.836h10.081
		c5.523,0,10-4.477,10-10v-11v-65.736H63.613z"/>
	<path class="st2" d="M171.036,154.884v65.736h-10.836c-5.523,0-10,4.477-10,10v1c0,5.523,4.477,10,10,10h10.836h10.081
		c5.523,0,10-4.477,10-10v-11v-65.736H171.036z"/>
	<path class="st22" d="M47.995,101.9h-17.96c-6.91,0-13.17-2.8-17.7-7.34c-4.54-4.53-7.34-10.79-7.34-17.7
		c0-2.16,0.27-4.25,0.79-6.25c1.97-7.69,7.51-13.94,14.74-16.92c2.93-1.2,6.15-1.87,9.51-1.87h4.82c1.53,0,2.91-0.62,3.92-1.62
		C38.775,50.2,67.465,74.33,47.995,101.9z"/>
	<path class="st2" d="M92.709,17.014c-4.276-3.388-10.446,0.431-9.321,5.769l22.267,75.313c0.154,0.334,0.32,0.665,0.532,0.966
		c2.914,4.149,9.285,3.658,11.523-0.906c0.146-0.298,0.251-0.614,0.345-0.932l9.934-33.523c1.31-4.421,0.166-9.206-3.002-12.557
		L92.709,17.014z"/>
	<path class="st3" d="M97.443,126.085h-51.97v-20.241c0-2.179,1.766-3.945,3.945-3.945h44.079c2.179,0,3.945,1.766,3.945,3.945
		V126.085z"/>
	<path class="st2" d="M180.445,198.353H95.473c-27.614,0-50-22.386-50-50v-22.267h134.972c13.807,0,25,11.193,25,25v22.267
		C205.445,187.16,194.252,198.353,180.445,198.353z"/>
	<path class="st20" d="M110.475,198.35h-15c-27.62,0-50-22.38-50-50v-22.26h15v22.26C60.475,175.97,82.855,198.35,110.475,198.35z"
		/>
	<path class="st7" d="M64.415,101.9c-2.18,0-3.94,1.77-3.94,3.94v20.25h-15v-20.25c0-2.17,1.76-3.94,3.94-3.94H64.415z"/>
	<path class="st16" d="M97.445,105.84v20.25h-15v-20.25c0-2.17-1.77-3.94-3.95-3.94h15C95.675,101.9,97.445,103.67,97.445,105.84z"
		/>
	<path class="st21" d="M205.445,151.09v22.26c0,13.81-11.19,25-25,25h-15c13.81,0,25-11.19,25-25v-22.26c0-13.81-11.19-25-25-25h15
		C194.255,126.09,205.445,137.28,205.445,151.09z"/>
	<path class="st21" d="M248.825,170.79c-5.06,0-9.17-4.11-9.17-9.17v-6.87c0-7.91-3.21-15.08-8.39-20.27
		c-5.19-5.18-12.36-8.39-20.28-8.39h-30.54c12.46,0,22.79,9.11,24.68,21.03h0.32c4.19,0,8.17,2,10.51,5.47
		c2.86,4.24,4.43,9.27,4.43,14.49v0.86c0,6.83,4.28,13.11,10.81,15.12c1.36,0.42,2.7,0.62,4.03,0.62c5.16,0,10.15-3.13,15.26-9.4
		c0.33-0.41,0.48-0.88,0.48-1.34C250.965,171.83,250.095,170.79,248.825,170.79z"/>
	<path class="st23" d="M27.335,94.56c-4.54-4.53-7.34-10.79-7.34-17.7c0-2.16,0.27-4.25,0.79-6.25c1.97-7.69,7.51-13.94,14.74-16.92
		c1.69-0.69,3.48-1.21,5.34-1.51c-1.27-1.29-2.09-1.98-2.09-1.98c-1.01,1-2.39,1.62-3.92,1.62h-4.82c-3.36,0-6.58,0.67-9.51,1.87
		c-7.23,2.98-12.77,9.23-14.74,16.92c-0.52,2-0.79,4.09-0.79,6.25c0,6.91,2.8,13.17,7.34,17.7c4.53,4.54,10.79,7.34,17.7,7.34h15
		C38.125,101.9,31.865,99.1,27.335,94.56z"/>
	<path class="st20" d="M119.225,93.27l-1.17,3.95c-0.09,0.32-0.2,0.64-0.35,0.94c-2.23,4.56-8.6,5.05-11.52,0.9
		c-0.21-0.3-0.38-0.63-0.53-0.96l-22.27-75.32c-1.12-5.34,5.05-9.15,9.32-5.77l5.78,6.11L119.225,93.27z"/>
	<path class="st2" d="M24.374,58.974v1.87c0,6.131-4.972,11.098-11.098,11.098h-2.242c-1.903,0-3.69-0.477-5.255-1.326
		c1.975-7.691,7.513-13.95,14.749-16.924C22.759,54.412,24.374,56.499,24.374,58.974z"/>
	<g>
		<path class="st20" d="M66.945,241.62h-14.17c-5.52,0-10-4.48-10-10v-1c0-5.52,4.48-10,10-10h14.17c-5.52,0-10,4.48-10,10v1
			C56.945,237.14,61.425,241.62,66.945,241.62z"/>
		<path class="st20" d="M174.663,241.62h-14.459c-5.53,0-10-4.48-10-10v-1c0-5.52,4.47-10,10-10h14.459c-5.53,0-10,4.48-10,10v1
			C164.663,237.14,169.133,241.62,174.663,241.62z"/>
	</g>
	<g>
		<path class="st8" d="M61.715,37.715c1.754,1.358,4.265,1.026,5.612-0.712c4.659-6.013-10.538-13.443-18.909-5.321
			c-1.585,1.538-1.624,4.07-0.086,5.656c1.538,1.585,4.07,1.625,5.656,0.086C54.322,37.1,57.379,34.356,61.715,37.715z"/>
		<circle class="st8" cx="57.389" cy="47.664" r="5.169"/>
		<path class="st8" d="M248.822,166.787c-2.849,0-5.167-2.318-5.167-5.167v-6.868c0-18.012-14.654-32.667-32.667-32.667
			c-10.117,0-99.304,0-109.546,0v-3.836c67.237,2.984,134.028-24.508,153.366-91.653c0.611-2.123-0.614-4.339-2.736-4.951
			c-2.125-0.609-4.34,0.615-4.951,2.737c-11.518,39.989-39.969,66.553-84.565,78.955c-26.959,7.498-52.008,7.287-61.113,6.888
			v-4.381c0-1.827-0.626-3.506-1.666-4.85c0.7-0.662,1.343-1.381,1.929-2.148c2.523,8.535,15.318,9.795,19.595,1.071
			c0.285-0.581,0.464-1.137,0.589-1.558l9.935-33.523c1.709-5.769,0.203-12.069-3.932-16.441
			c-0.307-0.325-32.348-34.24-32.699-34.518c-2.725-2.159-6.235-2.698-9.387-1.561c-3.383-1.282-6.952-1.937-10.641-1.937h-8.54
			c-16.669,0-30.23,13.562-30.23,30.23v5.66c0,0.855-0.691,1.55-1.54,1.55c-5.334,0-9.02-0.262-14.43,1.633l-0.06-0.02
			C-11.699,62.615-0.694,105.9,30.034,105.9h11.438c0,15.315,0,26.783,0,42.453c0,16.023,7.022,30.431,18.142,40.329v27.938h-6.84
			c-7.077,0-14,5.303-14,15c0,7.72,6.28,14,14,14h20.92c7.72,0,14-6.28,14-14v-29.835c2.541,0.368,5.136,0.568,7.778,0.568h71.562
			v14.268h-6.83c-7.72,0-14,6.28-14,14c0,9.735,6.979,15,14,15h20.91c7.72,0,14-6.28,14-14v-33.267
			c8.566-5.046,14.33-14.36,14.33-25.001v-21.298c1.283,0.638,2.391,1.581,3.198,2.777c2.889,4.279,3.746,8.433,3.746,13.105
			c0,15.646,19.524,30.573,37.194,8.865C256.851,172.789,253.991,166.787,248.822,166.787z M90.048,20.022l32.031,33.872
			c2.181,2.306,2.975,5.629,2.074,8.671l-9.934,33.522c-0.031,0.105-0.059,0.212-0.102,0.308c-0.897,1.831-3.49,2.031-4.655,0.372
			c-0.008-0.013-0.027-0.043-0.063-0.112l-22.12-74.815C87.033,20.276,88.787,19.204,90.048,20.022z M44.395,46.27v-5.66
			c0-12.258,9.972-22.23,22.23-22.23c8.976,0,10.17-0.13,13.016,0.452c-1.075,3.733-1.475,0.399,17.744,65.401v3.797
			c0,5.435-4.417,9.858-9.851,9.869h-32.55c5.251-10.832,5.047-22.45-0.72-33.982c-3.326-6.65-7.721-11.687-10.435-14.439
			C44.189,48.474,44.395,47.397,44.395,46.27z M20.204,58.265c0.253,0.488,0.17,1.973,0.17,2.579c0,3.914-3.184,7.097-7.098,7.097
			c-1.295,0-0.995,0-2.294,0C12.871,63.929,16.065,60.454,20.204,58.265z M30.034,97.9c-8.606,0-15.892-5.12-19.18-12.42
			c10.875,8.415,26.651,0.596,26.651-13.082c0-2.209-1.791-4-4-4s-4,1.791-4,4c0,9.136-12.508,11.879-16.323,3.542h0.095
			c8.325,0,15.098-6.772,15.098-15.097c0-1.918,0.098-3.139-0.494-4.91c3.982-0.405,7.319,0.419,10.369-0.749
			c5.65,5.697,19.985,23.094,7.604,42.715H30.034z M49.418,105.9h38.097c0,0-0.143-0.048,5.928-0.056v16.241H49.462L49.418,105.9z
			 M79.695,231.62c0,3.309-2.691,6-6,6h-20.92c-8.01,0-8.033-13,0-13h10.84c2.209,0,4-1.791,4-4v-26.026
			c3.754,2.27,7.805,4.093,12.08,5.401V231.62z M187.114,231.62c0,3.309-2.691,6-6,6h-20.91c-8.01,0-8.033-13,0-13h10.83
			c2.209,0,4-1.791,4-4v-18.268c5.659,0,8.067,0.166,12.08-0.783V231.62z M201.445,173.353c0,11.58-9.421,21-21,21h-9.386
			c-0.008,0-0.016-0.002-0.024-0.002s-0.016,0.002-0.024,0.002H95.472c-25.364,0-46-20.636-46-46v-18.267
			c1.379,0,129.595,0,130.972,0c11.579,0,21,9.42,21,21V173.353z M224.389,167.937c0-6.202-1.286-11.91-5.115-17.582
			c-2.512-3.72-6.448-6.206-10.877-6.977c-1.42-5.143-4.223-9.715-7.984-13.293h10.576c13.602,0,24.667,11.065,24.667,24.667v6.868
			c0,5.989,4.021,11.057,9.504,12.648C234.205,185.62,224.389,176.546,224.389,167.937z"/>
		<path class="st8" d="M153.504,179.683h-16c-2.209,0-4,1.791-4,4s1.791,4,4,4h16c2.209,0,4-1.791,4-4
			S155.713,179.683,153.504,179.683z"/>
		<path class="st8" d="M174.204,179.683h-5.7c-2.209,0-4,1.791-4,4s1.791,4,4,4h5.7c2.209,0,4-1.791,4-4
			S176.413,179.683,174.204,179.683z"/>
	</g>
</g>
</svg>
