<?xml version="1.0" encoding="utf-8"?>
<!-- Generator: Adobe Illustrator 22.1.0, SVG Export Plug-In . SVG Version: 6.00 Build 0)  -->
<svg version="1.1" id="Icon_Set" xmlns="http://www.w3.org/2000/svg" xmlns:xlink="http://www.w3.org/1999/xlink" x="0px" y="0px"
	 viewBox="0 0 256 256" style="enable-background:new 0 0 256 256;" xml:space="preserve">
<style type="text/css">
	.st0{fill:#5FCDFF;}
	.st1{fill:#87828E;}
	.st2{fill:#B76C6C;}
	.st3{fill:#FF4A73;}
	.st4{fill:#73D7F9;}
	.st5{fill:#30B6FF;}
	.st6{fill:#A4A4A5;}
	.st7{fill:#F973A3;}
	.st8{fill:#5F266D;}
	.st9{fill:#FFE2E2;}
	.st10{fill:#FFEFEE;}
	.st11{fill:#796E84;}
	.st12{fill:#3193F3;}
	.st13{fill:#35B1FC;}
	.st14{fill:#307FED;}
	.st15{fill:#FFCFCF;}
	.st16{fill:#EA2A6A;}
	.st17{fill:#44C7B6;}
	.st18{fill:#3BB2A0;}
	.st19{fill:#4BDBC3;}
	.st20{fill:#C98585;}
	.st21{fill:#965959;}
	.st22{fill:#FFBB98;}
	.st23{fill:#FFCAA6;}
	.st24{fill:#FFAA80;}
	.st25{fill:#F9D335;}
	.st26{fill:#F2C300;}
	.st27{fill:#F9E27D;}
</style>
<g>
	<path class="st9" d="M245.541,166.47c-0.68,3.62-2.16,7.08-4.37,10.12l-52.06,71.37l-0.06,0.08h-122.1l-0.06-0.08l-52.06-71.37
		c-2.21-3.04-3.69-6.5-4.37-10.12c-0.55-2.94-0.57-5.98-0.04-8.99c4.48-25.18,15.46-87,15.55-87.52l6.76-38l2.8-15.75
		c0.84-4.78,4.99-8.25,9.84-8.25h165.26c4.85,0,9,3.47,9.84,8.25l2.8,15.75l6.76,38c0.09,0.52,11.07,62.34,15.55,87.52
		C246.111,160.49,246.091,163.53,245.541,166.47z"/>
	<path class="st2" d="M108.927,135.394c8.463-14.659,29.621-14.659,38.084,0c0.231,0.4,7.81,13.528,7.585,13.137
		c8.463,14.659-2.116,32.982-19.042,32.982c-0.462,0-15.621,0-15.17,0c-16.926,0-27.505-18.323-19.042-32.982
		C101.574,148.131,109.153,135.003,108.927,135.394z"/>
	<path class="st20" d="M135.371,181.51h-14.99c-0.01,0-0.01,0-0.01,0c-16.91-0.01-27.49-18.32-19.03-32.98
		c0.23-0.39,7.59-13.15,7.59-13.15c5.69-9.83,17.1-13.06,26.54-9.68c-4.61,1.64-8.76,4.87-11.54,9.68c0,0-7.36,12.76-7.59,13.15
		C107.881,163.19,118.461,181.5,135.371,181.51z"/>
	<path class="st10" d="M81.951,248.04h-15l-0.06-0.08l-52.06-71.37c-2.21-3.04-3.69-6.5-4.37-10.12c-0.55-2.94-0.57-5.98-0.04-8.99
		c4.48-25.18,15.46-87,15.55-87.52l6.76-38l2.8-15.75c0.84-4.78,4.99-8.25,9.84-8.25h15c-4.85,0-9,3.47-9.84,8.25l-2.8,15.75
		l-6.76,38c-0.09,0.52-11.07,62.34-15.55,87.52c-0.53,3.01-0.51,6.05,0.04,8.99c0.68,3.62,2.16,7.08,4.37,10.12l52.06,71.37
		L81.951,248.04z"/>
	<path class="st15" d="M245.541,166.47c-0.68,3.62-2.16,7.08-4.37,10.12l-52.06,71.37l-0.06,0.08h-15l0.06-0.08l52.06-71.37
		c2.21-3.04,3.69-6.5,4.37-10.12c0.55-2.94,0.57-5.98,0.04-8.99c-4.48-25.18-15.46-87-15.55-87.52l-6.76-38l-2.8-15.75
		c-0.84-4.78-4.99-8.25-9.84-8.25h15c4.85,0,9,3.47,9.84,8.25l2.8,15.75l6.76,38c0.09,0.52,11.07,62.34,15.55,87.52
		C246.111,160.49,246.091,163.53,245.541,166.47z"/>
	<path class="st0" d="M109.201,50.955c0,5.24-2.13,10-5.57,13.43c-3.43,3.44-8.19,5.57-13.43,5.57h-64.23l6.76-38h57.47
		C100.691,31.955,109.201,40.465,109.201,50.955z"/>
	<path class="st0" d="M230.031,69.955h-64.43c-10.49,0-19-8.51-19-19c0-5.24,2.13-10,5.57-13.43c3.43-3.44,8.19-5.57,13.43-5.57
		h57.67L230.031,69.955z"/>
	<polygon class="st4" points="25.971,69.96 40.971,69.96 47.731,31.96 32.731,31.96 	"/>
	<polygon class="st5" points="223.271,31.96 208.271,31.96 215.031,69.96 230.031,69.96 	"/>
	<path class="st15" d="M84.691,209.82c0,15.32-6.92,29.02-17.8,38.14l-52.06-71.37c-2.21-3.04-3.69-6.5-4.37-10.12
		c7.23-4.09,15.57-6.43,24.46-6.43C62.411,160.04,84.691,182.33,84.691,209.82z"/>
	<path class="st15" d="M245.541,166.47c-0.68,3.62-2.16,7.08-4.37,10.12l-52.06,71.37c-10.88-9.12-17.8-22.82-17.8-38.14
		c0-27.49,22.28-49.78,49.77-49.78C229.971,160.04,238.311,162.38,245.541,166.47z"/>
	<g>
		<path class="st8" d="M224.414,15.509c-1.188-6.695-6.985-11.554-13.784-11.554H45.372c-6.799,0-12.596,4.859-13.784,11.553
			C4.019,170.593,5.225,160.12,6.545,167.198c1.661,8.837,0.667,5.741,57.068,83.052l0.012,0.018c0.009,0.014,0.02,0.025,0.03,0.039
			l0.004,0.005c0,0,0.001,0.001,0.001,0.001c0.746,1.082,1.974,1.731,3.29,1.731h122.1c1.316,0,2.545-0.65,3.29-1.731
			c0,0,0.001-0.001,0.001-0.001l0.004-0.005c0.009-0.014,0.021-0.025,0.03-0.039c53.354-73.146,56.218-74.61,57.14-83.381
			C250.749,159.908,251.779,169.45,224.414,15.509z M225.256,65.955h-59.655c-8.271,0-15-6.729-15-15c0-8.221,6.654-15,15-15h54.319
			L225.256,65.955z M36.082,35.955h54.119c8.271,0,15,6.729,15,15c0,8.254-6.687,15-15,15H30.745L36.082,35.955z M15.136,168.538
			c6.142-2.945,12.921-4.494,19.785-4.494c25.238,0,45.77,20.532,45.77,45.77c0,12.13-4.766,23.631-13.208,32.164
			C13.769,168.341,16.579,172.85,15.136,168.538z M188.519,241.979c-8.441-8.533-13.208-20.034-13.208-32.164
			c0-33.553,35.177-55.843,65.555-41.276C239.412,172.882,242.131,168.493,188.519,241.979z M167.311,209.815
			c0,12.632,4.415,24.673,12.321,34.23H76.369c7.906-9.557,12.321-21.598,12.321-34.23c0-38.218-39.05-64.482-74.593-49.562
			c0.115-1.524-0.903,4.437,15.225-86.298h60.878c12.739,0,23-10.325,23-23c0-12.682-10.318-23-23-23H37.5l1.964-11.049
			c0.509-2.869,2.994-4.951,5.907-4.951H210.63c2.914,0,5.398,2.083,5.907,4.952l1.964,11.048h-52.9c-12.694,0-23,10.275-23,23
			c0,12.682,10.318,23,23,23h61.078c16.287,91.63,15.09,84.501,15.225,86.298C206.323,145.317,167.311,171.65,167.311,209.815z"/>
		<path class="st8" d="M150.476,133.394c-10.003-17.327-35.003-17.338-45.012,0c0,0,0,0,0,0l-7.585,13.138
			c-10.005,17.331,2.49,38.982,22.507,38.982h15.169c20.003,0,32.518-21.641,22.506-38.982L150.476,133.394z M135.554,177.513
			h-15.169c-13.848,0-22.507-14.981-15.578-26.982l7.585-13.138h0c6.924-11.991,24.227-12.003,31.156,0l7.585,13.138
			C158.058,162.527,149.41,177.513,135.554,177.513z"/>
		<g>
			
				<ellipse transform="matrix(0.9397 -0.342 0.342 0.9397 -27.4107 44.2476)" class="st8" cx="111.765" cy="99.85" rx="11.843" ry="17.574"/>
			
				<ellipse transform="matrix(0.342 -0.9397 0.9397 0.342 1.7807 202.244)" class="st8" cx="145.308" cy="99.85" rx="17.574" ry="11.843"/>
		</g>
		<g>
			
				<ellipse transform="matrix(0.9397 -0.342 0.342 0.9397 -37.2504 37.5437)" class="st8" cx="87.834" cy="124.4" rx="11.843" ry="17.574"/>
			
				<ellipse transform="matrix(0.342 -0.9397 0.9397 0.342 -5.5422 240.8843)" class="st8" cx="169.238" cy="124.4" rx="17.574" ry="11.843"/>
		</g>
		<path class="st8" d="M130.897,225.622h-30c-2.209,0-4,1.791-4,4s1.791,4,4,4h30c2.209,0,4-1.791,4-4
			S133.106,225.622,130.897,225.622z"/>
		<path class="st8" d="M154.904,225.622h-9.008c-2.209,0-4,1.791-4,4s1.791,4,4,4h9.008c2.209,0,4-1.791,4-4
			S157.113,225.622,154.904,225.622z"/>
	</g>
</g>
</svg>
