<?xml version="1.0" encoding="utf-8"?>
<!-- Generator: Adobe Illustrator 22.1.0, SVG Export Plug-In . SVG Version: 6.00 Build 0)  -->
<svg version="1.1" id="Icon_Set" xmlns="http://www.w3.org/2000/svg" xmlns:xlink="http://www.w3.org/1999/xlink" x="0px" y="0px"
	 viewBox="0 0 256 256" style="enable-background:new 0 0 256 256;" xml:space="preserve">
<style type="text/css">
	.st0{fill:#5FCDFF;}
	.st1{fill:#87828E;}
	.st2{fill:#B76C6C;}
	.st3{fill:#FF4A73;}
	.st4{fill:#73D7F9;}
	.st5{fill:#30B6FF;}
	.st6{fill:#A4A4A5;}
	.st7{fill:#F973A3;}
	.st8{fill:#5F266D;}
	.st9{fill:#FFE2E2;}
	.st10{fill:#FFEFEE;}
	.st11{fill:#796E84;}
	.st12{fill:#3193F3;}
	.st13{fill:#35B1FC;}
	.st14{fill:#307FED;}
	.st15{fill:#FFCFCF;}
	.st16{fill:#EA2A6A;}
	.st17{fill:#44C7B6;}
	.st18{fill:#3BB2A0;}
	.st19{fill:#4BDBC3;}
	.st20{fill:#C98585;}
	.st21{fill:#965959;}
	.st22{fill:#FFBB98;}
	.st23{fill:#FFCAA6;}
	.st24{fill:#FFAA80;}
	.st25{fill:#F9D335;}
	.st26{fill:#F2C300;}
	.st27{fill:#F9E27D;}
</style>
<g>
	<path class="st2" d="M146.358,63.613h-46.73c-7.66,0-14.86,1.97-21.12,5.43l-22.59,52.85v76.65h109.91v-75.38L146.358,63.613z"/>
	<path id="XMLID_183_" class="st20" d="M70.45,74.235v124.18h-15v-92.34C55.78,93.365,61.52,82.015,70.45,74.235z"/>
	<path id="XMLID_176_" class="st2" d="M5.225,108.052c16.554,55.862,15.688,53.152,16.087,53.953
		c2.921,5.87,11.141,6.487,14.908,1.126c0.504-0.718-2.359,5.344,44.087-95.147L10.658,96.453
		C5.811,97.996,3.308,103.341,5.225,108.052z"/>
	<path class="st2" d="M165.828,123.163l-19.472-59.545l57.923-42.387c2.959-2.165,6.865-2.538,10.18-0.97l0.887,0.419
		c3.136,1.483,5.289,4.483,5.664,7.932C223.43,50.832,227.992,131.289,165.828,123.163z"/>
	<polygon class="st21" points="165.828,123.164 165.828,198.544 150.828,198.544 150.828,123.164 131.358,63.614 146.358,63.614 	
		"/>
	<path id="XMLID_187_" class="st3" d="M146.691,236.558H74.143c-2.761,0-5-2.239-5-5v-5.356c0-2.761,2.239-5,5-5h72.549
		c2.761,0,5,2.239,5,5v5.356C151.691,234.32,149.453,236.558,146.691,236.558z"/>
	<path id="XMLID_186_" class="st7" d="M89.147,236.555h-15c-2.77,0-5-2.24-5-5v-5.35c0-2.76,2.23-5,5-5h15c-2.77,0-5,2.24-5,5v5.35
		C84.147,234.315,86.377,236.555,89.147,236.555z"/>
	<path id="XMLID_184_" class="st16" d="M151.687,226.205v5.35c0,2.76-2.23,5-5,5h-15c2.77,0,5-2.24,5-5v-5.35c0-2.76-2.23-5-5-5h15
		C149.457,221.205,151.687,223.445,151.687,226.205z"/>
	<path id="XMLID_182_" class="st22" d="M148.88,221.202H71.92c-13.982,0-25.316-11.334-25.316-25.316
		c0-38.031,29.81-64.935,63.796-64.935h0c35.233,0,63.796,28.562,63.796,63.796C174.196,211.015,162.079,221.202,148.88,221.202z"/>
	<path id="XMLID_181_" class="st24" d="M174.209,194.743c0,16.267-12.117,26.46-25.32,26.46h-15c13.98,0,25.32-11.34,25.32-25.32
		c0-18.818-6.906-34.466-18.69-46.25c-9.88-9.88-22.99-16.53-37.61-18.24c2.46-0.29,4.96-0.44,7.5-0.44
		c17.62,0,33.57,7.14,45.11,18.68C167.069,161.183,174.209,177.123,174.209,194.743z"/>
	<path id="XMLID_180_" class="st23" d="M86.945,221.205h-15c-13.98,0-25.31-11.34-25.31-25.32c0-38.027,29.806-64.93,63.79-64.93
		c2.54,0,5.04,0.15,7.5,0.44c-30.397,3.558-56.29,28.95-56.29,64.49C61.635,209.865,72.965,221.205,86.945,221.205z"/>
	<path id="XMLID_178_" class="st2" d="M113.742,185.168c-16.442,0-24.038-8.966-24.038-20c0-9.736,4.189-13.379,10-13.379h24.038
		c11.913,0,10,14.673,10,13.379C133.742,176.214,124.788,185.168,113.742,185.168z"/>
	<path id="XMLID_177_" class="st20" d="M119.227,184.395c-1.74,0.5-3.58,0.77-5.48,0.77c-16.449,0-24.04-8.962-24.04-20
		c0-9.726,4.175-13.38,10-13.38h15c-5.747,0-10,3.573-10,13.38C104.707,174.315,110.847,182.025,119.227,184.395z"/>
	<path class="st20" d="M214.068,97.114c-7.64,17.11-21.99,29.48-48.24,26.05l-19.47-59.55l17.2-12.58l14.05,42.97
		c2.12,6.47,8.34,10.75,15.13,10.32C201.378,103.774,208.388,101.164,214.068,97.114z"/>
	<path class="st21" d="M166.508,123.244c45.65-6.43,41.69-74.48,39.5-94.63c-0.26-2.46-1.44-4.69-3.22-6.29l1.49-1.09
		c2.96-2.17,6.87-2.54,10.18-0.97l0.89,0.42c3.13,1.48,5.29,4.48,5.66,7.93C223.418,50.754,227.958,130.694,166.508,123.244z"/>
	<path class="st9" d="M246.588,173.024c-4.17,3.14-10.16,2.3-13.3-1.87l-52.55-76.63l-6.4-9.33c-3.14-4.17-2.3-10.16,1.87-13.3
		c1.71-1.28,3.71-1.9,5.7-1.9c2.89,0,5.75,1.3,7.61,3.77l6.02,8.78l52.92,77.17C251.608,163.884,250.768,169.874,246.588,173.024z"
		/>
	<path class="st17" d="M195.538,82.544l-14.8,11.98l-6.4-9.33c-3.14-4.17-2.3-10.16,1.87-13.3c1.71-1.28,3.71-1.9,5.7-1.9
		c2.89,0,5.75,1.3,7.61,3.77L195.538,82.544z"/>
	<g>
		<path class="st8" d="M78.414,102.833c0.321-0.312,7.997-7.555,18.125,0.291c4.186,3.241,9.065-3.097,4.899-6.324
			c-12.444-9.641-24.146-4.026-28.594,0.291c-1.585,1.538-1.624,4.07-0.086,5.656C74.295,104.332,76.827,104.372,78.414,102.833z"/>
		
			<ellipse transform="matrix(0.9871 -0.1602 0.1602 0.9871 -17.123 15.3709)" class="st8" cx="86.778" cy="113.892" rx="7.125" ry="7.125"/>
		<path class="st8" d="M126.018,102.833c0.321-0.312,7.997-7.555,18.125,0.291c1.754,1.358,4.265,1.026,5.612-0.712
			c1.353-1.746,1.034-4.259-0.712-5.612c-12.445-9.641-24.146-4.026-28.594,0.291c-1.585,1.538-1.624,4.07-0.086,5.656
			C121.898,104.332,124.431,104.372,126.018,102.833z"/>
		
			<ellipse transform="matrix(0.9871 -0.1602 0.1602 0.9871 -16.5083 22.9962)" class="st8" cx="134.382" cy="113.892" rx="7.125" ry="7.125"/>
		<path class="st8" d="M145.82,182.116c-2.209,0-4,1.791-4,4c0,7.296-5.936,13.231-13.231,13.231
			c-6.21,0-11.421-4.307-12.838-10.087c12.633-0.677,22.702-11.165,22.702-23.964v-3.38c0-7.72-6.28-14-14-14h-24.039
			c-7.72,0-14,6.28-14,14v3.38c0,11.947,8.775,21.88,20.217,23.699c-1.319,5.914-6.6,10.352-12.906,10.352
			c-7.296,0-13.231-5.936-13.231-13.231c0-2.209-1.791-4-4-4s-4,1.791-4,4c0,11.707,9.524,21.231,21.231,21.231
			c7.216,0,13.593-3.626,17.431-9.144c11.869,17.063,38.663,8.606,38.663-12.088C149.82,183.907,148.029,182.116,145.82,182.116z
			 M110.414,181.297c-8.822,0-16-7.178-16-16v-3.38c0-3.309,2.691-6,6-6h24.039c3.309,0,6,2.691,6,6v3.38c0,8.822-7.178,16-16,16
			H110.414z"/>
		<path class="st8" d="M215.325,103.981C229,79.609,226.84,43.086,225.222,28.187c-1.117-10.413-14.06-16.787-23.069-10.181
			l-56.865,41.608H99.864c-7.951,0-15.808,2.001-22.754,5.775L9.988,92.824c-6.891,2.301-10.456,9.902-7.838,16.664
			c16.783,56.635,15.699,53.239,16.29,54.428c4.693,9.431,18.389,9.35,22.809-0.23l10.905-23.594v21.374
			c-6.39,11.232-8.839,22.505-8.839,34.548c0,13.894,9.719,25.553,22.713,28.557c-0.113,0.569-0.175,1.157-0.175,1.759v5.356
			c0,4.962,4.038,9,9,9h72.549c4.962,0,9-4.038,9-9v-5.356c0-0.605-0.062-1.195-0.176-1.767
			c12.334-2.866,22.681-13.637,22.681-29.688c0-12.145-3.226-23.543-8.842-33.413v-33.881c1.501,0.102,2.977,0.154,4.425,0.154
			c7.919,0,15.028-1.547,21.262-4.591l34.473,50.268c0.034,0.049,0.068,0.098,0.104,0.145c4.484,5.95,12.976,7.126,18.906,2.656
			c0,0,0,0,0,0c2.871-2.164,4.729-5.327,5.232-8.905C255.439,160.39,255.419,162.446,215.325,103.981z M84.15,70.866
			c4.936-2.124,10.295-3.252,15.714-3.252h43.83l18.371,56.187v26.428c-27.063-30.847-74.817-30.883-101.91,0.003v-27.448
			L84.15,70.866z M33.656,160.96c-2.185,3.112-7.186,2.441-8.285-1.268c-0.087-0.293-15.616-52.736-15.731-53.02
			c-1.04-2.556,0.316-5.444,2.942-6.28c0.233-0.074,60.312-24.638,60.539-24.731C72.989,75.945,33.837,160.705,33.656,160.96z
			 M148.402,231.687c0,0.551-0.449,1-1,1H74.853c-0.551,0-1-0.449-1-1v-5.356c0-0.551,0.449-1,1-1h72.549c0.551,0,1,0.449,1,1
			V231.687z M170.906,194.875c0,14.135-10.44,22.455-21.315,22.455c-6.693,0-69.069,0-76.96,0c-10.931,0-21.316-8.35-21.316-22.455
			c0-32.971,26.824-59.795,59.796-59.795C144.082,135.08,170.906,161.904,170.906,194.875z M169.067,119.476l-17.77-54.348
			l55.582-40.669c4.033-2.957,9.923,0.247,10.388,4.586c1.455,13.393,3.408,45.156-7.086,67.436
			c-0.072-0.106-17.158-25.024-17.236-25.126c-2.164-2.872-5.326-4.73-8.905-5.232c-12.017-1.684-19.722,11.971-12.715,21.405
			l19.846,28.94C184.913,119.249,177.507,120.264,169.067,119.476z M190.385,81.758l-8.56,6.933
			c-4.478-6.53-5.469-7.306-5.094-9.974c0.689-4.912,6.883-6.344,9.78-2.608L190.385,81.758z M244.42,169.826L244.42,169.826
			c-2.381,1.794-5.82,1.345-7.655-1.021L186.364,95.31l8.56-6.933c0.075,0.109,50.498,73.64,50.578,73.746
			C247.327,164.545,246.842,168,244.42,169.826z"/>
	</g>
</g>
</svg>
