<?xml version="1.0" encoding="utf-8"?>
<!-- Generator: Adobe Illustrator 22.1.0, SVG Export Plug-In . SVG Version: 6.00 Build 0)  -->
<svg version="1.1" id="Icon_Set" xmlns="http://www.w3.org/2000/svg" xmlns:xlink="http://www.w3.org/1999/xlink" x="0px" y="0px"
	 viewBox="0 0 256 256" style="enable-background:new 0 0 256 256;" xml:space="preserve">
<style type="text/css">
	.st0{fill:#5FCDFF;}
	.st1{fill:#87828E;}
	.st2{fill:#B76C6C;}
	.st3{fill:#FF4A73;}
	.st4{fill:#73D7F9;}
	.st5{fill:#30B6FF;}
	.st6{fill:#A4A4A5;}
	.st7{fill:#F973A3;}
	.st8{fill:#5F266D;}
	.st9{fill:#FFE2E2;}
	.st10{fill:#FFEFEE;}
	.st11{fill:#796E84;}
	.st12{fill:#3193F3;}
	.st13{fill:#35B1FC;}
	.st14{fill:#307FED;}
	.st15{fill:#FFCFCF;}
	.st16{fill:#EA2A6A;}
	.st17{fill:#44C7B6;}
	.st18{fill:#3BB2A0;}
	.st19{fill:#4BDBC3;}
	.st20{fill:#C98585;}
	.st21{fill:#965959;}
	.st22{fill:#FFBB98;}
	.st23{fill:#FFCAA6;}
	.st24{fill:#FFAA80;}
	.st25{fill:#F9D335;}
	.st26{fill:#F2C300;}
	.st27{fill:#F9E27D;}
</style>
<g>
	<g>
		<g id="XMLID_525_">
			<path id="XMLID_529_" class="st3" d="M177.02,194.415v21.78c0,3.83-2.18,7.34-5.64,9c-3.02,1.45-6.14,2.72-9.36,3.81
				c-21.83,7.47-47.53,6.94-68.05-0.01c-3.26-1.11-6.4-2.38-9.36-3.8c-3.46-1.66-5.64-5.17-5.64-9v-21.78H177.02z"/>
			<path id="XMLID_528_" class="st7" d="M93.97,194.415v34.58c-3.26-1.11-6.4-2.38-9.36-3.8c-3.46-1.66-5.64-5.17-5.64-9v-21.78
				H93.97z"/>
			<path id="XMLID_527_" class="st16" d="M177.02,194.415v21.78c0,3.83-2.18,7.34-5.64,9c-3.02,1.45-6.14,2.72-9.36,3.81v-34.59
				H177.02z"/>
			<circle id="XMLID_526_" class="st25" cx="128" cy="236.639" r="14.618"/>
			<path class="st27" d="M135.5,249.186c-2.19,1.31-4.76,2.07-7.5,2.07c-8.07,0-14.62-6.54-14.62-14.62
				c0-8.07,6.55-14.62,14.62-14.62c2.74,0,5.31,0.76,7.5,2.07c-4.26,2.55-7.12,7.22-7.12,12.55
				C128.38,241.976,131.24,246.636,135.5,249.186z"/>
		</g>
		<path id="XMLID_524_" class="st22" d="M50.939,73.145c-3.71-0.98-7.1,2.41-6.12,6.12c9.417,35.478,7.736,24.333,16.956,59.054
			l40.641-51.763C76.55,79.696,86.027,82.459,50.939,73.145z"/>
		<path id="XMLID_523_" class="st22" d="M205.061,73.145c-35.088,9.314-25.662,6.527-51.528,13.388l40.684,51.707
			c9.221-34.722,7.546-23.497,16.963-58.975C212.161,75.555,208.771,72.165,205.061,73.145z"/>
		<path id="XMLID_522_" class="st22" d="M195,148.495c0,4.24-0.39,8.39-1.15,12.41c-2.29,12.24-7.91,23.3-15.87,32.22
			c-1.35,1.5-2.75,2.94-4.22,4.31c-11.98,11.2-28.07,18.06-45.76,18.06s-33.78-6.86-45.76-18.06c-1.47-1.37-2.87-2.81-4.22-4.31
			C67.44,181.275,61,165.635,61,148.495c0-37,30-67,67-67h0.46c0.68,0.01,1.35,0.03,2.02,0.05c35.38,1.28,63.77,30.01,64.5,65.53
			C195,147.545,195,148.025,195,148.495z"/>
		<path id="XMLID_521_" class="st20" d="M131.902,164.627c-2.002,2.497-5.802,2.497-7.803,0l-4.514-5.632l-1.902-2.373
			c-2.623-3.273-0.293-8.127,3.902-8.127H128h6.416c4.195,0,6.525,4.854,3.902,8.127l-1.902,2.373L131.902,164.627z"/>
		<path id="XMLID_520_" class="st20" d="M195,148.495c0,4.24-0.39,8.39-1.15,12.41c-1,0.06-2.01,0.08-3.02,0.08
			c-35.45,0-64.2-28.74-64.2-64.21c0-5.26,0.63-10.38,1.83-15.28c0.68,0.01,1.35,0.03,2.02,0.05c35.38,1.28,63.77,30.01,64.5,65.53
			C195,147.545,195,148.025,195,148.495z"/>
		<path id="XMLID_519_" class="st24" d="M195,148.495c0,17.14-6.44,32.78-17.02,44.63c-1.35,1.5-2.75,2.94-4.22,4.31
			c-11.98,11.2-28.07,18.06-45.76,18.06c-2.54,0-5.04-0.14-7.5-0.42c14.72-1.64,28-8.05,38.26-17.64c1.47-1.37,2.87-2.81,4.22-4.31
			c10.58-11.85,17.02-27.49,17.02-44.63c0-34.46-26.03-62.85-59.5-66.58c2.46-0.28,4.96-0.42,7.5-0.42
			C165,81.495,195,111.495,195,148.495z"/>
		<path id="XMLID_518_" class="st23" d="M97.24,197.435c10.26,9.59,23.54,16,38.26,17.64c-2.46,0.28-4.96,0.42-7.5,0.42
			c-17.69,0-33.78-6.86-45.76-18.06c-1.47-1.37-2.87-2.81-4.22-4.31C67.44,181.275,61,165.635,61,148.495c0-37,30-67,67-67
			c2.54,0,5.04,0.14,7.5,0.42c-33.47,3.73-59.5,32.12-59.5,66.58c0,17.14,6.44,32.78,17.02,44.63
			C94.37,194.625,95.77,196.065,97.24,197.435z"/>
		<path id="XMLID_517_" class="st2" d="M193.85,160.905c-4.097,0.246-9.527-0.016-14.82-1c6.131-35.541-16.878-68.861-50.96-76.7
			c0.185-0.877,0.39-1.71,0.39-1.71c33.042,0,61.283,25.594,65.6,55.82C195.015,142.284,195.617,151.557,193.85,160.905z"/>
		<path class="st17" d="M140.907,48.058c2.528-8.822,7.641-33.476-10.726-42.797c-1.364-0.692-2.999-0.692-4.363,0
			c-18.367,9.32-13.253,33.975-10.726,42.797c0.534,1.865-0.37,3.834-2.132,4.646l0,0c-2.246,1.035-2.988,3.864-1.539,5.868
			L128,81.495l16.578-22.924c1.449-2.004,0.707-4.833-1.539-5.868l0,0C141.277,51.892,140.373,49.923,140.907,48.058z"/>
		<path class="st19" d="M126.42,58.576l9.08,12.55l-7.5,10.37l-16.58-22.92c-0.51-0.7-0.75-1.51-0.75-2.3c0-1.47,0.83-2.9,2.29-3.57
			c1.76-0.81,2.67-2.78,2.13-4.65c-2.52-8.82-7.64-33.47,10.73-42.79c1.36-0.7,3-0.7,4.36,0c2.06,1.04,3.82,2.28,5.32,3.66
			c-11.94,10.98-7.65,31.3-5.41,39.13c0.54,1.87-0.37,3.84-2.13,4.65c-1.46,0.67-2.29,2.1-2.29,3.57
			C125.67,57.066,125.91,57.876,126.42,58.576z"/>
	</g>
	<g>
		<path class="st8" d="M158.94,165.638c-2.209,0-4,1.791-4,4c0,6.275-5.105,11.381-11.381,11.381
			c-5.578,0-11.09-4.097-11.398-11.547c1.089-0.569,2.067-1.354,2.861-2.344l6.416-8.005c4.723-5.892,0.523-14.628-7.022-14.628
			h-12.832c-7.551,0-11.741,8.741-7.022,14.628l6.416,8.005c0.794,0.99,1.772,1.775,2.861,2.344
			c-0.002,0.056-0.017,0.109-0.017,0.166c0,6.275-5.105,11.381-11.381,11.381s-11.381-5.105-11.381-11.381c0-2.209-1.791-4-4-4
			s-4,1.791-4,4c0,10.687,8.694,19.381,19.381,19.381c6.376,0,12.025-3.109,15.56-7.875c3.534,4.766,9.184,7.875,15.56,7.875
			c10.687,0,19.381-8.694,19.381-19.381C162.94,167.429,161.149,165.638,158.94,165.638z M128.78,162.125
			C128.78,162.126,128.78,162.126,128.78,162.125c-0.403,0.502-1.158,0.502-1.561,0l-6.416-8.004
			c-0.53-0.661-0.067-1.625,0.78-1.625h12.832c0.847,0,1.31,0.965,0.78,1.625L128.78,162.125z"/>
		<path class="st8" d="M104.91,131.084c0.729,0.564,1.591,0.838,2.447,0.838c1.195,0,2.377-0.533,3.165-1.55
			c1.353-1.746,1.034-4.259-0.712-5.612c-12.445-9.641-24.145-4.025-28.594,0.291c-1.585,1.538-1.624,4.07-0.086,5.656
			c1.537,1.584,4.07,1.625,5.656,0.086C87.106,130.481,94.782,123.237,104.91,131.084z"/>
		<path class="st8" d="M151.426,130.793c0.322-0.312,7.998-7.555,18.125,0.291c0.729,0.564,1.591,0.838,2.447,0.838
			c1.195,0,2.377-0.533,3.165-1.55c1.353-1.746,1.034-4.259-0.712-5.612c-12.444-9.641-24.146-4.025-28.594,0.291
			c-1.585,1.538-1.624,4.07-0.086,5.656C147.306,132.291,149.839,132.331,151.426,130.793z"/>
		<path class="st8" d="M215.79,169.948l-19.184-3.151c1.584-5.953,2.394-12.093,2.394-18.302c0-0.236-0.001-0.45-0.01-0.681
			c0-0.037-0.002-0.073-0.003-0.109l17.005-3.701c2.159-0.47,3.528-2.601,3.058-4.759s-2.598-3.522-4.759-3.058l-15.846,3.449
			c-0.047-0.381-0.101-0.76-0.154-1.14c4.41-16.572,6.293-22.456,8.112-28.14c1.908-5.961,3.881-12.126,8.645-30.067
			c1.766-6.683-4.338-12.772-11.013-11.008c-34.531,9.162-25.868,6.595-50.268,13.058c-2.268-0.883-4.131-1.517-6.515-2.189
			c4.467-1.655,9.857-4.046,15.478-7.427c2.623-1.386,10.715-5.013,17.5-1.193c5.139,2.892,11.863-7.238-3.427-9.464
			c0.412-0.391,0.822-0.791,1.231-1.197c4.249-2.545,12.622-4.219,18.287-4.664c2.203-0.171,3.85-2.095,3.68-4.297
			c-0.171-2.203-2.096-3.844-4.297-3.68c-1.257,0.097-4.43,0.394-8.21,1.125c0.691-1.043,1.361-2.124,2.014-3.234
			c4.041-2.824,12.502-4.972,18.234-5.71c2.19-0.281,3.738-2.284,3.458-4.474c-0.28-2.191-2.287-3.742-4.475-3.461
			c-1.656,0.212-6.65,0.941-11.918,2.58c2.645-6.982,4.472-14.968,5.043-24.093c0.138-2.205-1.538-4.104-3.743-4.242
			c-2.207-0.134-4.104,1.538-4.242,3.743c-0.547,8.753-2.357,16.768-5.393,24.028c-1.388-5.406-3.437-10.107-4.137-11.64
			c-0.918-2.009-3.29-2.893-5.298-1.976c-2.009,0.917-2.895,3.29-1.979,5.299c2.856,6.268,6.074,16.904,4.283,20.926
			c-0.028,0.064-0.039,0.13-0.064,0.195c-0.965,1.324-1.999,2.604-3.073,3.859c-1.322-7.179-4.689-14.295-5.655-16.238
			c-0.984-1.978-3.382-2.784-5.36-1.8c-1.978,0.982-2.785,3.382-1.804,5.361c2.963,5.975,6.385,16.014,5.096,20.349
			c-2.212,1.866-4.442,3.528-6.845,5.126c0.966-4.052,1.277-7.713,1.363-9.03c0.143-2.203-1.526-4.104-3.729-4.25
			c-2.204-0.141-4.107,1.524-4.254,3.727c-0.438,6.581-2.587,14.553-5.086,15.933c-0.098,0.054-0.178,0.126-0.27,0.187
			c-4.884,2.177-9.104,3.516-11.872,4.271l10.032-13.872c2.911-4.024,1.445-9.706-3.048-11.818
			c2.418-8.471,8.524-36.594-12.779-47.403c-2.499-1.268-5.482-1.269-7.983,0c-21.354,10.836-15.166,39.07-12.721,47.376
			c-4.538,2.091-6.031,7.803-3.106,11.845l10.029,13.868c-5.513-1.518-11.138-3.899-12.138-4.453
			c-2.499-1.379-4.647-9.35-5.086-15.93c-0.144-2.205-2.052-3.859-4.251-3.732c-2.205,0.144-3.875,2.047-3.732,4.251
			c0.085,1.303,0.391,4.904,1.334,8.906c-2.298-1.54-4.609-3.263-6.875-5.197c-1.132-4.437,2.235-14.27,5.154-20.155
			c0.982-1.978,0.176-4.377-1.801-5.361c-1.978-0.984-4.379-0.178-5.363,1.8c-0.959,1.929-4.286,8.958-5.627,16.084
			c-1.116-1.31-2.201-2.683-3.242-4.128c-1.592-4.173,1.552-14.536,4.358-20.696c0.918-2.009,0.034-4.382-1.976-5.301
			c-2.01-0.918-4.383-0.034-5.301,1.976c-0.695,1.52-2.714,6.157-4.102,11.507c-2.883-6.829-4.856-14.737-5.428-23.895
			c-0.137-2.205-2.032-3.877-4.242-3.743c-2.205,0.138-3.88,2.037-3.743,4.242c0.57,9.125,2.397,17.111,5.043,24.093
			c-5.269-1.639-10.262-2.368-11.918-2.58c-2.19-0.281-4.192,1.269-4.473,3.459c-0.281,2.19,1.267,4.194,3.457,4.476
			c5.732,0.739,14.193,2.887,18.234,5.71c0.653,1.11,1.323,2.191,2.014,3.234c-3.78-0.731-6.953-1.028-8.21-1.125
			c-2.203-0.156-4.124,1.477-4.295,3.678s1.475,4.125,3.676,4.298c5.666,0.445,14.041,2.118,18.29,4.664
			c0.409,0.407,0.819,0.806,1.231,1.197c-2.426,0.354-4.912,1.12-7.351,2.494c-1.925,1.083-2.607,3.523-1.523,5.448
			c1.083,1.925,3.522,2.607,5.448,1.523c6.79-3.822,14.892-0.185,17.508,1.197c5.621,3.38,11.009,5.771,15.475,7.425
			c-2.687,0.757-4.423,1.365-6.573,2.206c-24.313-6.441-15.745-3.928-50.219-13.079c-6.671-1.76-12.775,4.323-11.008,11.014
			c9.357,35.246,7.814,24.701,16.745,58.26c-0.051,0.361-0.086,0.725-0.131,1.087l-15.858-3.452
			c-2.158-0.465-4.29,0.899-4.759,3.058s0.899,4.289,3.058,4.759l16.999,3.7c-0.004,0.264-0.008,0.528-0.008,0.791
			c0,6.206,0.811,12.352,2.392,18.302l-19.182,3.15c-2.18,0.358-3.657,2.416-3.299,4.596c0.322,1.96,2.019,3.352,3.942,3.352
			c0.215,0,0.434-0.018,0.653-0.053l20.435-3.356c3.057,7.735,7.474,14.974,13.028,21.222v20.478c0,5.356,3.108,10.308,7.917,12.615
			c7.82,3.76,16.918,6.531,26.508,8.1c0.143,10.144,8.427,18.355,18.605,18.355c10.162,0,18.436-8.188,18.603-18.311
			c9.564-1.554,18.467-4.284,26.508-8.143c4.805-2.306,7.91-7.258,7.91-12.615l0.009-20.476c5.626-6.323,9.99-13.45,13.041-21.224
			l20.422,3.354c0.22,0.036,0.438,0.053,0.653,0.053c1.924,0,3.62-1.392,3.942-3.352
			C219.446,172.363,217.969,170.306,215.79,169.948z M114.715,56.299c3.525-1.671,5.3-5.585,4.223-9.343
			c-2.536-8.851-6.765-30.285,8.69-38.127c1.294-0.653,18.259,7.323,9.434,38.127c-1.077,3.758,0.697,7.672,4.223,9.343L132,69.138
			V20.626c0-2.209-1.791-4-4-4s-4,1.791-4,4v48.512L114.715,56.299z M61.728,122.936c-5.116-18.117-5.278-15.449-13.041-44.693
			c-0.201-0.759,0.494-1.429,1.227-1.232c29.371,7.796,27.446,7.114,41.296,10.729C77.68,95.895,67.35,108.247,61.728,122.936z
			 M111.013,229.056c-8.961-1.436-17.431-3.989-24.662-7.466c-2.054-0.985-3.38-3.106-3.38-5.404v-12.818
			c11.021,9.056,24.404,14.548,38.573,15.83C116.851,220.942,113.049,224.513,111.013,229.056z M128,247.257
			c-5.855,0-10.618-4.763-10.618-10.618S122.145,226.02,128,226.02s10.618,4.764,10.618,10.619S133.855,247.257,128,247.257z
			 M173.02,216.186c0,2.3-1.323,4.421-3.371,5.404c-7.436,3.569-15.715,6.083-24.642,7.506c-2.031-4.563-5.843-8.149-10.55-9.898
			c14.171-1.282,27.554-6.775,38.569-15.826L173.02,216.186z M188.674,165.494l-17.908-2.941c-2.18-0.357-4.237,1.119-4.596,3.299
			c-0.358,2.18,1.119,4.237,3.299,4.596l16.509,2.711c-9.577,22.557-31.964,38.336-57.978,38.336
			c-25.35,0-48.027-15.068-57.97-38.338l16.501-2.71c2.18-0.358,3.657-2.416,3.299-4.596c-0.359-2.18-2.414-3.659-4.596-3.299
			l-17.908,2.941c-1.454-5.207-2.228-10.597-2.309-16.047l20.016,4.356c0.287,0.062,0.573,0.092,0.854,0.092
			c1.84,0,3.497-1.278,3.905-3.15c0.47-2.159-0.899-4.289-3.058-4.759l-21.316-4.64c0.167-1.475,0.375-2.942,0.644-4.387
			c0.007-0.039,0.014-0.079,0.02-0.118c3.713-19.897,17.222-37.098,35.584-45.582v14.348c0,2.209,1.791,4,4,4s4-1.791,4-4V88.212
			c4.703-1.432,9.557-2.296,14.512-2.59v30.873c0,2.209,1.791,4,4,4s4-1.791,4-4V85.64c4.826,0.315,9.567,1.176,14.155,2.575v17.393
			c0,2.209,1.791,4,4,4s4-1.791,4-4v-14.34c17.035,7.861,29.947,23.231,34.651,41.362c0.01,0.044,0.021,0.089,0.032,0.133
			c0.726,2.818,1.247,5.689,1.573,8.582l-21.323,4.641c-2.159,0.47-3.528,2.601-3.058,4.759c0.408,1.872,2.064,3.15,3.905,3.15
			c0.282,0,0.568-0.03,0.854-0.092l20.014-4.356C190.901,154.898,190.13,160.281,188.674,165.494z M164.69,87.736
			c13.915-3.627,11.936-2.907,41.392-10.723c0.75-0.198,1.429,0.483,1.232,1.227c-4.71,17.742-6.652,23.809-8.531,29.677
			c-1.237,3.864-2.501,7.816-4.538,15.025C188.58,108.346,178.088,95.876,164.69,87.736z"/>
	</g>
</g>
</svg>
