<?xml version="1.0" encoding="utf-8"?>
<!-- Generator: Adobe Illustrator 22.1.0, SVG Export Plug-In . SVG Version: 6.00 Build 0)  -->
<svg version="1.1" id="Icon_Set" xmlns="http://www.w3.org/2000/svg" xmlns:xlink="http://www.w3.org/1999/xlink" x="0px" y="0px"
	 viewBox="0 0 256 256" style="enable-background:new 0 0 256 256;" xml:space="preserve">
<style type="text/css">
	.st0{fill:#5FCDFF;}
	.st1{fill:#87828E;}
	.st2{fill:#B76C6C;}
	.st3{fill:#FF4A73;}
	.st4{fill:#73D7F9;}
	.st5{fill:#30B6FF;}
	.st6{fill:#A4A4A5;}
	.st7{fill:#F973A3;}
	.st8{fill:#5F266D;}
	.st9{fill:#FFE2E2;}
	.st10{fill:#FFEFEE;}
	.st11{fill:#796E84;}
	.st12{fill:#3193F3;}
	.st13{fill:#35B1FC;}
	.st14{fill:#307FED;}
	.st15{fill:#FFCFCF;}
	.st16{fill:#EA2A6A;}
	.st17{fill:#44C7B6;}
	.st18{fill:#3BB2A0;}
	.st19{fill:#4BDBC3;}
	.st20{fill:#C98585;}
	.st21{fill:#965959;}
	.st22{fill:#FFBB98;}
	.st23{fill:#FFCAA6;}
	.st24{fill:#FFAA80;}
	.st25{fill:#F9D335;}
	.st26{fill:#F2C300;}
	.st27{fill:#F9E27D;}
</style>
<g>
	<path class="st21" d="M154.879,139.525c-7.406-9.59-11.282-23.262-11.282-23.262l-1.941-9.232H29.5l-2.555,9.232
		c0,0-3.876,13.672-11.282,23.262c-2.546,3.297-0.231,8.073,3.935,8.073h33.664h64.018h33.664
		C155.11,147.598,157.426,142.822,154.879,139.525z"/>
	<path class="st3" d="M160.221,249.943H17.783c-3.565,0-6.454-2.89-6.454-6.454v-4.795c0-42.898,34.775-77.673,77.673-77.673h0
		c42.898,0,77.673,34.775,77.673,77.673v4.795C166.675,247.054,163.785,249.943,160.221,249.943z"/>
	<path class="st7" d="M26.325,238.691v4.8c0,3.56,2.89,6.45,6.46,6.45h-15c-3.57,0-6.46-2.89-6.46-6.45v-4.8
		c0-42.89,34.78-77.67,77.68-77.67c2.53,0,5.03,0.12,7.5,0.36C57.125,165.151,26.325,198.331,26.325,238.691z"/>
	<path class="st16" d="M166.675,238.691v4.8c0,3.56-2.89,6.45-6.45,6.45h-15c3.56,0,6.45-2.89,6.45-6.45v-4.8
		c0-21.44-8.7-40.86-22.75-54.92c-12.4-12.4-28.96-20.62-47.42-22.39c2.47-0.24,4.97-0.36,7.5-0.36c21.45,0,40.86,8.69,54.92,22.75
		C157.975,197.831,166.675,217.251,166.675,238.691z"/>
	<g>
		<path class="st9" d="M236.085,107.031h-62.671v-57.2c0-4.517,3.662-8.179,8.179-8.179h46.312c4.517,0,8.179,3.662,8.179,8.179
			V107.031z"/>
		<path class="st0" d="M205.327,208.241L205.327,208.241c-12.363,0-22.714-9.367-23.946-21.668l-7.967-79.542h62.671l-6.78,79.196
			C228.239,198.678,217.822,208.241,205.327,208.241z"/>
		<path class="st12" d="M211.907,66.368v15.95c0,3.951-3.206,7.157-7.157,7.157c-3.951,0-7.157-3.206-7.157-7.157v-15.95
			c0-3.951,3.206-7.157,7.157-7.157c1.971,0,3.763,0.802,5.063,2.094C211.106,62.605,211.907,64.389,211.907,66.368z"/>
		<path class="st3" d="M211.907,74.343v7.975c0,3.951-3.206,7.157-7.157,7.157c-3.951,0-7.157-3.206-7.157-7.157v-7.975H211.907z"/>
		<g>
			<path class="st2" d="M198.251,175.327c2.899-5.021,10.146-5.021,13.045,0l1.299,2.25l1.299,2.25
				c2.899,5.021-0.725,11.297-6.522,11.297h-2.598h-2.598c-5.798,0-9.421-6.276-6.522-11.297l1.299-2.25L198.251,175.327z"/>
		</g>
		<path class="st10" d="M193.864,41.65c-4.515,0-8.179,3.664-8.179,8.179v57.198h-12.269V49.829c0-4.515,3.664-8.179,8.179-8.179
			H193.864z"/>
		<path class="st4" d="M211.466,207.445c-1.963,0.515-4.024,0.793-6.143,0.793c-12.359,0-22.714-9.365-23.941-21.667l-7.967-79.544
			h12.269l7.967,79.544C194.665,196.771,201.961,204.951,211.466,207.445z"/>
		<path class="st15" d="M236.086,49.829v57.198h-12.269V49.829c0-4.515-3.664-8.179-8.179-8.179h12.269
			C232.421,41.65,236.086,45.314,236.086,49.829z"/>
		<path class="st5" d="M236.086,107.027l-6.781,79.201c-1.063,12.449-11.484,22.011-23.982,22.011c-2.11,0-4.171-0.27-6.126-0.793
			c9.619-2.536,16.956-10.879,17.839-21.217l6.781-79.201H236.086z"/>
	</g>
	<path class="st22" d="M89.002,160.981L89.002,160.981c-26.25,0-47.727-21.477-47.727-47.727v-42.67c0-3.55,2.904-6.454,6.454-6.454
		h82.546c3.55,0,6.454,2.904,6.454,6.454v42.67C136.729,139.503,115.252,160.981,89.002,160.981z"/>
	<g>
		<path class="st22" d="M22.233,104.079c0,7.955,6.508,14.463,14.463,14.463h4.632V89.616h-4.632
			C28.742,89.616,22.233,96.125,22.233,104.079z"/>
		<path class="st22" d="M141.307,89.616h-4.632v28.927h4.632c7.955,0,14.463-6.508,14.463-14.463
			C155.771,96.125,149.262,89.616,141.307,89.616z"/>
	</g>
	<path class="st22" d="M89.002,187.805L89.002,187.805c-9.181,0-16.623-7.442-16.623-16.623v-36.944h33.247v36.944
		C105.625,180.362,98.183,187.805,89.002,187.805z"/>
	<path class="st23" d="M96.505,160.391c-2.44,0.39-4.95,0.59-7.5,0.59c-26.25,0-47.73-21.48-47.73-47.73v-42.67
		c0-3.55,2.9-6.45,6.45-6.45h15c-3.55,0-6.45,2.9-6.45,6.45v42.67C56.275,136.951,73.785,156.761,96.505,160.391z"/>
	<path class="st24" d="M136.725,70.581v42.67c0,26.25-21.47,47.73-47.72,47.73c-2.55,0-5.05-0.2-7.5-0.59
		c22.72-3.63,40.22-23.44,40.22-47.14v-42.67c0-3.55-2.9-6.45-6.45-6.45h15C133.825,64.131,136.725,67.031,136.725,70.581z"/>
	<path class="st2" d="M149.537,45.411v23.35c0,2.5-1.85,4.62-4.33,4.95l-10.67,1.44l-104.8,14.11v-43.85
		c0-22.04,17.86-39.9,39.9-39.9h40C131.677,5.511,149.537,23.371,149.537,45.411z"/>
	<path class="st20" d="M84.637,5.511c-22.04,0-39.9,17.86-39.9,39.9v41.83l-15,2.02v-43.85c0-22.04,17.86-39.9,39.9-39.9H84.637z"/>
	<path class="st21" d="M149.537,45.411v23.35c0,2.5-1.85,4.62-4.33,4.95l-10.67,1.44v-29.74c0-22.04-17.86-39.9-39.9-39.9h15
		C131.677,5.511,149.537,23.371,149.537,45.411z"/>
	<g>
		
			<ellipse transform="matrix(0.9871 -0.1602 0.1602 0.9871 -15.1498 11.7811)" class="st8" cx="65.498" cy="99.859" rx="6.394" ry="6.394"/>
		<circle class="st8" cx="112.505" cy="99.859" r="6.394"/>
		<path class="st8" d="M99.18,114.641c-2.209,0-4,1.791-4,4c0,3.406-2.771,6.178-6.178,6.178s-6.178-2.771-6.178-6.178
			c0-2.209-1.791-4-4-4c-8.081,0-3.534,18.178,10.178,18.178C102.681,132.819,107.311,114.641,99.18,114.641z"/>
		<path class="st8" d="M111,159.639c4.155-1.966,8.022-4.481,11.552-7.508h32.067c7.486,0,11.675-8.596,7.101-14.518
			c-4.845-6.273-8.13-14.602-9.644-18.963c14.249-10.282,7.669-33.43-11.351-33.43V78.89c0.001,0,5.021-0.676,5.022-0.676
			c4.446-0.6,7.799-4.434,7.799-8.92V45.947c0-24.208-19.694-43.901-43.901-43.901h-40c-24.208,0-43.901,19.694-43.901,43.901
			v42.909c-10.064,7.455-9.988,22.362,0.099,29.731c-1.499,4.335-4.785,12.702-9.67,19.027c-4.577,5.925-0.382,14.519,7.101,14.519
			h32.165c3.534,3.029,7.412,5.545,11.583,7.511c-16.135,4.511-30.693,14.005-41.363,27.096
			c-11.822,14.504-18.333,32.814-18.333,51.556v4.8c0,5.762,4.692,10.45,10.46,10.45h142.44c5.762,0,10.45-4.688,10.45-10.45v-4.8
			C170.675,200.204,144.862,169.062,111,159.639z M155.389,142.504c0.521,0.674,0.082,1.628-0.77,1.628h-24.515
			c4.931-6.474,8.276-14.014,9.75-21.984c1.714,0,2.86,0.045,4.848-0.326C146.462,126.807,150.031,135.567,155.389,142.504z
			 M140.691,114.148c0.047-1.855,0.034,2.596,0.034-20.927C155.436,93.221,155.405,114.148,140.691,114.148z M33.743,45.947
			c0-19.796,16.105-35.901,35.901-35.901h40c19.796,0,35.901,16.105,35.901,35.901c0,24.849,0.366,24.173-0.867,24.338h0
			L33.743,85.221V45.947z M37.275,93.221c0,23.51-0.013,19.072,0.034,20.927C22.593,114.148,22.613,93.221,37.275,93.221z
			 M23.273,144.132c-0.854,0-1.29-0.956-0.77-1.628c5.363-6.944,8.934-15.716,10.692-20.699c2.029,0.391,3.266,0.343,4.95,0.343
			c1.474,7.969,4.817,15.509,9.746,21.984H23.273z M45.275,112.856V91.741l87.45-11.773c0,0,0,32.883,0,32.888
			c0,20.321-13.635,31.299-14.827,32.725C89.415,170.813,45.275,149.89,45.275,112.856z M101.625,163.008v7.777
			c0,6.959-5.661,12.62-12.62,12.62c-6.964,0-12.63-5.661-12.63-12.62v-7.781C84.487,165.064,93.123,165.16,101.625,163.008z
			 M162.675,243.095c0,1.351-1.099,2.45-2.45,2.45H17.785c-1.356,0-2.46-1.099-2.46-2.45v-4.8c0-32.706,22.033-61.669,53.05-70.719
			v3.209c0,11.37,9.254,20.62,20.63,20.62c11.37,0,20.62-9.25,20.62-20.62v-3.229c30.353,8.806,53.05,36.879,53.05,70.739V243.095z"
			/>
		<path class="st8" d="M204.815,54.909c-6.16,0-11.172,5.012-11.172,11.172v15.983c0,6.16,5.012,11.172,11.172,11.172
			s11.172-5.012,11.172-11.172V66.081C215.987,59.921,210.975,54.909,204.815,54.909z M207.987,82.064
			c0,1.749-1.423,3.172-3.172,3.172s-3.172-1.423-3.172-3.172v-3.992h6.344V82.064z M207.987,70.073h-6.344v-3.992
			c0-1.749,1.423-3.172,3.172-3.172s3.172,1.423,3.172,3.172V70.073z"/>
		<path class="st8" d="M214.839,173.27c-2.087-3.616-5.826-5.774-10-5.774c-4.174,0-7.913,2.159-10,5.774l-2.603,4.509
			c-2.087,3.615-2.088,7.932,0,11.547c3.784,6.555,9.895,5.774,15.207,5.774c8.889,0,14.449-9.616,10-17.321L214.839,173.27z
			 M210.514,185.326c-1.259,2.179-2.877,1.774-8.279,1.774c-1.849,0-2.765-1.241-3.072-1.774c-1.258-2.177-0.097-3.378,2.604-8.056
			h0c1.364-2.364,4.776-2.369,6.144,0C210.531,181.808,211.801,183.1,210.514,185.326z"/>
		<g>
			<path class="st8" d="M201.558,164.017c2.11-0.768,2.896-3.928,1.757-7.059c-1.139-3.13-3.773-5.046-5.883-4.278
				c-2.11,0.768-2.896,3.928-1.757,7.059S199.448,164.785,201.558,164.017z"/>
			<path class="st8" d="M208.945,164.017c2.11,0.768,4.744-1.147,5.883-4.278s0.353-6.291-1.757-7.059
				c-2.11-0.768-4.744,1.147-5.883,4.278C206.049,160.089,206.835,163.249,208.945,164.017z"/>
		</g>
		<g>
			
				<ellipse transform="matrix(0.9397 -0.342 0.342 0.9397 -45.5045 75.4786)" class="st8" cx="191.281" cy="166.775" rx="4.065" ry="6.032"/>
			
				<ellipse transform="matrix(0.342 -0.9397 0.9397 0.342 -12.4744 315.7353)" class="st8" cx="219.222" cy="166.775" rx="6.032" ry="4.065"/>
		</g>
		<path class="st8" d="M239.675,228.202h-29.281c-0.551,0-1-0.449-1-1v-15.228c12.846-1.795,22.875-12.131,24.014-25.44
			c8.686-101.459,6.809-57.485,6.809-137.023c0-4.805-2.801-8.958-6.849-10.945V18.641c0-2.209-1.791-4-4-4s-4,1.791-4,4v18.674
			h-4.276V18.641c0-2.209-1.791-4-4-4s-4,1.791-4,4v18.674h-4.276V18.641c0-2.209-1.791-4-4-4s-4,1.791-4,4v18.674h-4.276V18.641
			c0-2.209-1.791-4-4-4s-4,1.791-4,4v18.674h-4.276V18.641c0-2.209-1.791-4-4-4s-4,1.791-4,4v19.926
			c-4.048,1.986-6.849,6.139-6.849,10.945c0,80.16-2.149,36.062,8.003,137.427c1.31,13.081,11.315,23.246,23.977,25.034v15.23
			c0,4.962,4.038,9,9,9h29.281c0.551,0,1,0.449,1,1v12.752c0,2.209,1.791,4,4,4s4-1.791,4-4v-12.752
			C248.675,232.24,244.637,228.202,239.675,228.202z M177.414,102.831v-53.32c0-2.314,1.883-4.196,4.197-4.196h46.409
			c2.314,0,4.197,1.882,4.197,4.196v53.32H177.414z M185.377,186.141l-7.543-75.31h54.025l-6.423,75.021
			c-0.898,10.49-9.515,18.4-20.043,18.4C195.017,204.252,186.412,196.466,185.377,186.141z"/>
	</g>
</g>
</svg>
