<?xml version="1.0" encoding="utf-8"?>
<!-- Generator: Adobe Illustrator 22.0.0, SVG Export Plug-In . SVG Version: 6.00 Build 0)  -->
<svg version="1.1" id="Icon_Set" xmlns="http://www.w3.org/2000/svg" xmlns:xlink="http://www.w3.org/1999/xlink" x="0px" y="0px"
	 viewBox="0 0 256 256" style="enable-background:new 0 0 256 256;" xml:space="preserve">
<style type="text/css">
	.st0{fill:#5FCDFF;}
	.st1{fill:#87828E;}
	.st2{fill:#B76C6C;}
	.st3{fill:#FF4A73;}
	.st4{fill:#73D7F9;}
	.st5{fill:#30B6FF;}
	.st6{fill:#A4A4A5;}
	.st7{fill:#F973A3;}
	.st8{fill:#5F266D;}
	.st9{fill:#FFE2E2;}
	.st10{fill:#FFEFEE;}
	.st11{fill:#796E84;}
	.st12{fill:#3193F3;}
	.st13{fill:#35B1FC;}
	.st14{fill:#307FED;}
	.st15{fill:#FFCFCF;}
	.st16{fill:#EA2A6A;}
	.st17{fill:#44C7B6;}
	.st18{fill:#3BB2A0;}
	.st19{fill:#4BDBC3;}
	.st20{fill:#C98585;}
	.st21{fill:#965959;}
	.st22{fill:#FFBB98;}
	.st23{fill:#FFCAA6;}
	.st24{fill:#FFAA80;}
	.st25{fill:#F9D335;}
	.st26{fill:#F2C300;}
	.st27{fill:#F9E27D;}
</style>
<g>
	<g>
		<g>
			<g>
				<ellipse class="st3" cx="128.72" cy="223.425" rx="61.448" ry="11.667"/>
			</g>
			<g>
				<path class="st7" d="M136.22,235.01c-2.46,0.05-4.96,0.08-7.5,0.08c-33.94,0-61.45-5.22-61.45-11.66
					c0-6.45,27.51-11.67,61.45-11.67c2.54,0,5.04,0.03,7.5,0.08c-30.4,0.71-53.95,5.62-53.95,11.59
					C82.27,229.39,105.82,234.3,136.22,235.01z"/>
			</g>
			<g>
				<path class="st16" d="M190.17,223.43c0,6.44-27.51,11.66-61.45,11.66c-2.54,0-5.04-0.03-7.5-0.08
					c30.4-0.71,53.95-5.62,53.95-11.58c0-5.97-23.55-10.88-53.95-11.59c2.46-0.05,4.96-0.08,7.5-0.08
					C162.66,211.76,190.17,216.98,190.17,223.43z"/>
			</g>
			<g>
				<path class="st17" d="M137.375,216.13c-3.411,8.226-15.064,8.226-18.475,0l-35.855-86.472l-10.55-25.443
					c-16.446-39.664,12.704-83.307,55.642-83.307h0h0c42.938,0,72.088,43.643,55.642,83.307l-10.55,25.443L137.375,216.13z"/>
			</g>
			<g>
				<path class="st18" d="M188.44,81.09c0,7.63-1.48,15.45-4.66,23.12l-10.55,25.45l-35.86,86.47c-2.96,7.15-12.14,8.09-16.73,2.81
					c0.69-0.79,1.28-1.73,1.73-2.81l35.86-86.47l10.55-25.45c3.18-7.67,4.66-15.49,4.66-23.12c0-29.45-22.03-55.98-52.8-59.72
					c2.45-0.31,4.95-0.46,7.5-0.46C162.77,20.91,188.44,49.3,188.44,81.09z"/>
			</g>
			<g>
				<path class="st19" d="M133.9,216.13c0.45,1.08,1.04,2.02,1.74,2.81c-4.6,5.28-13.78,4.34-16.74-2.81l-35.86-86.47L72.5,104.21
					c-16.45-39.66,12.7-83.3,55.64-83.3c2.55,0,5.05,0.15,7.5,0.46C96.9,26.08,72.03,66.91,87.5,104.21l10.54,25.45L133.9,216.13z"
					/>
			</g>
			<g>
				<circle class="st9" cx="128.137" cy="86.604" r="40.799"/>
			</g>
			<g>
				<path class="st2" d="M119.679,89.456c4.019-6.96,14.065-6.96,18.084,0c0.035,0.061,3.632,6.29,3.602,6.238
					c4.019,6.96-1.005,15.661-9.042,15.661c-0.07,0-7.264,0-7.203,0c-8.037,0-13.06-8.7-9.042-15.661
					C116.112,95.634,119.709,89.404,119.679,89.456z"/>
			</g>
			<g>
				<path class="st15" d="M168.94,86.6c0,22.54-18.27,40.8-40.8,40.8c-2.56,0-5.07-0.24-7.5-0.69c18.95-3.52,33.3-20.13,33.3-40.11
					c0-19.97-14.35-36.58-33.3-40.1c2.43-0.45,4.94-0.69,7.5-0.69C150.67,45.81,168.94,64.07,168.94,86.6z"/>
			</g>
			<g>
				<path class="st10" d="M135.64,126.71c-2.43,0.45-4.94,0.69-7.5,0.69c-22.54,0-40.8-18.26-40.8-40.8
					c0-22.53,18.26-40.79,40.8-40.79c2.56,0,5.07,0.24,7.5,0.69c-18.96,3.52-33.3,20.13-33.3,40.1
					C102.34,106.58,116.68,123.19,135.64,126.71z"/>
			</g>
			<g>
				<path class="st20" d="M136.22,110.62c-1.19,0.48-2.5,0.74-3.9,0.74h-7.2c-8.04,0-13.06-8.71-9.04-15.67
					c2.211-3.821,1.391-2.4,3.6-6.23c3.58-6.2,11.93-6.88,16.54-2.04c-0.59,0.6-1.1,1.28-1.54,2.04
					c-2.209,3.83-1.389,2.409-3.6,6.23C127.76,101.44,130.61,108.38,136.22,110.62z"/>
			</g>
		</g>
	</g>
	<g>
		<path class="st8" d="M12.191,98.271c-1.024,0-2.047-0.391-2.829-1.172c-11.177-11.178-11.177-29.365,0-40.543
			c1.562-1.562,4.095-1.562,5.657,0c1.562,1.562,1.562,4.095,0,5.657c-8.059,8.059-8.059,21.171,0,29.23
			c1.562,1.562,1.562,4.095,0,5.657C14.238,97.88,13.214,98.271,12.191,98.271z"/>
	</g>
	<g>
		<path class="st8" d="M62.039,125.604c-1.024,0-2.047-0.391-2.829-1.171c-26.25-26.25-26.25-68.961,0-95.211
			c1.562-1.562,4.095-1.562,5.657,0c1.562,1.562,1.562,4.095,0,5.657c-23.131,23.13-23.131,60.766,0,83.896
			c1.562,1.562,1.562,4.095,0,5.657C64.086,125.213,63.062,125.604,62.039,125.604z"/>
	</g>
	<g>
		<path class="st8" d="M225.144,106.047c-1.023,0-2.048-0.391-2.828-1.171c-1.562-1.562-1.562-4.095,0-5.657
			c12.347-12.347,12.347-32.437,0-44.783c-1.562-1.562-1.562-4.095,0-5.657c1.561-1.562,4.096-1.562,5.656,0
			c15.467,15.466,15.467,40.631,0,56.098C227.191,105.657,226.167,106.047,225.144,106.047z"/>
	</g>
	<g>
		<path class="st8" d="M243.809,98.271c-1.023,0-2.048-0.391-2.828-1.171c-1.562-1.562-1.562-4.095,0-5.657
			c8.059-8.059,8.059-21.171,0-29.229c-1.562-1.562-1.562-4.095,0-5.657c1.561-1.562,4.096-1.562,5.656,0
			c11.178,11.178,11.178,29.366,0,40.544C245.856,97.88,244.832,98.271,243.809,98.271z"/>
	</g>
	<g>
		<path class="st8" d="M194.235,125.604c-1.023,0-2.048-0.391-2.828-1.171c-1.562-1.562-1.562-4.095,0-5.657
			c23.13-23.13,23.13-60.766,0-83.896c-1.562-1.562-1.562-4.095,0-5.657c1.561-1.562,4.096-1.562,5.656,0
			c26.25,26.25,26.25,68.961,0,95.211C196.283,125.213,195.259,125.604,194.235,125.604z"/>
	</g>
	<g>
		<path class="st8" d="M128.72,239.09c-16.658,0-32.354-1.238-44.198-3.485c-14.697-2.789-21.251-6.544-21.251-12.175
			c0-5.142,5.369-8.653,17.407-11.386c9.339-2.12,22.248-3.565,36.349-4.072c1.667-0.05,3.196,0.921,3.837,2.462l1.73,4.16
			c0.963,2.324,3.034,3.708,5.542,3.708s4.579-1.384,5.54-3.704l1.739-4.207c0.636-1.54,2.178-2.513,3.826-2.47
			c14.371,0.466,27.562,1.898,37.141,4.034c8.282,1.846,17.789,4.818,17.789,11.474c0,5.631-6.555,9.386-21.252,12.175
			C161.074,237.852,145.378,239.09,128.72,239.09z M71.941,223.437c4.503,2.965,23.705,7.653,56.778,7.653
			c33.08,0,52.283-4.689,56.782-7.655c-3.578-2.322-17.025-6.318-43.758-7.416l-0.678,1.639c-2.21,5.333-7.164,8.645-12.932,8.645
			c-5.767,0-10.722-3.311-12.93-8.641l-0.658-1.583C88.57,217.241,75.465,221.162,71.941,223.437z M186.354,224.168h0.01H186.354z"
			/>
	</g>
	<g>
		<path class="st8" d="M128.137,226.3C128.137,226.3,128.137,226.3,128.137,226.3c-5.768,0-10.724-3.31-12.932-8.638L68.8,105.747
			c-8.236-19.864-6.023-42.399,5.921-60.281c11.943-17.882,31.912-28.558,53.416-28.558c21.504,0,41.473,10.676,53.417,28.558
			c11.943,17.882,14.157,40.417,5.921,60.281L141.07,217.662l0,0C138.86,222.99,133.905,226.3,128.137,226.3z M128.137,24.908
			c-18.826,0-36.308,9.346-46.764,25.001c-10.456,15.655-12.394,35.383-5.184,52.773l46.405,111.915
			c0.961,2.318,3.033,3.702,5.542,3.702s4.582-1.384,5.542-3.702l46.404-111.915c7.211-17.39,5.273-37.118-5.183-52.773
			C164.445,34.254,146.963,24.908,128.137,24.908z M137.375,216.13h0.01H137.375z"/>
	</g>
	<g>
		<path class="st8" d="M30.856,106.047c-1.024,0-2.047-0.391-2.829-1.171c-15.466-15.466-15.466-40.631,0-56.098
			c1.562-1.562,4.095-1.562,5.657,0c1.562,1.562,1.562,4.095,0,5.657c-12.347,12.347-12.347,32.437,0,44.783
			c1.562,1.562,1.562,4.095,0,5.657C32.904,105.657,31.88,106.047,30.856,106.047z"/>
	</g>
	<g>
		<path class="st8" d="M128.137,131.403c-24.702,0-44.799-20.097-44.799-44.799s20.097-44.799,44.799-44.799
			c24.702,0,44.798,20.097,44.798,44.799S152.839,131.403,128.137,131.403z M128.137,49.805c-20.291,0-36.799,16.508-36.799,36.799
			s16.508,36.799,36.799,36.799c20.291,0,36.798-16.508,36.798-36.799S148.428,49.805,128.137,49.805z"/>
	</g>
	<g>
		<path class="st8" d="M132.321,115.355h-7.203c-5.221,0-9.896-2.699-12.506-7.22c-2.61-4.521-2.61-9.92,0-14.441l3.602-6.238
			c2.61-4.521,7.285-7.22,12.505-7.22c5.221,0,9.896,2.699,12.506,7.22l3.602,6.238c2.61,4.521,2.61,9.92,0,14.441
			S137.542,115.355,132.321,115.355z M128.72,88.236c-2.328,0-4.413,1.204-5.577,3.22c0,0,0,0,0,0l-3.601,6.238
			c-1.165,2.017-1.165,4.424,0,6.441c1.164,2.016,3.249,3.22,5.578,3.22h7.203c2.328,0,4.414-1.204,5.578-3.22s1.164-4.424,0-6.441
			l-3.602-6.238C133.134,89.44,131.048,88.236,128.72,88.236z M119.678,89.457h0.01H119.678z"/>
	</g>
	<g>
		
			<ellipse transform="matrix(0.9397 -0.342 0.342 0.9397 -16.6 45.7136)" class="st8" cx="121.327" cy="69.928" rx="5.623" ry="8.344"/>
	</g>
	<g>
		
			<ellipse transform="matrix(0.9397 -0.342 0.342 0.9397 -21.3085 42.3238)" class="st8" cx="109.361" cy="81.585" rx="5.623" ry="8.344"/>
	</g>
	<g>
		
			<ellipse transform="matrix(0.342 -0.9397 0.9397 0.342 24.5996 174.9887)" class="st8" cx="137.255" cy="69.928" rx="8.344" ry="5.623"/>
	</g>
	<g>
		
			<ellipse transform="matrix(0.342 -0.9397 0.9397 0.342 20.7253 192.7691)" class="st8" cx="148.014" cy="81.585" rx="8.344" ry="5.623"/>
	</g>
	<g>
		<path class="st8" d="M133.087,185.961c-0.507,0-1.022-0.097-1.521-0.302c-2.043-0.841-3.018-3.179-2.177-5.221l1.903-4.624
			c0.84-2.043,3.178-3.019,5.222-2.176c2.043,0.841,3.018,3.179,2.177,5.221l-1.903,4.624
			C136.152,185.027,134.66,185.961,133.087,185.961z M140.701,167.467c-0.507,0-1.022-0.097-1.521-0.302
			c-2.042-0.841-3.017-3.179-2.175-5.222l7.615-18.494c0.841-2.042,3.172-3.018,5.222-2.176c2.042,0.841,3.017,3.179,2.175,5.222
			l-7.615,18.494C143.766,166.534,142.274,167.467,140.701,167.467z"/>
	</g>
</g>
</svg>
