<?xml version="1.0" encoding="utf-8"?>
<!-- Generator: Adobe Illustrator 22.1.0, SVG Export Plug-In . SVG Version: 6.00 Build 0)  -->
<svg version="1.1" id="Icon_Set" xmlns="http://www.w3.org/2000/svg" xmlns:xlink="http://www.w3.org/1999/xlink" x="0px" y="0px"
	 viewBox="0 0 256 256" style="enable-background:new 0 0 256 256;" xml:space="preserve">
<style type="text/css">
	.st0{fill:#5FCDFF;}
	.st1{fill:#87828E;}
	.st2{fill:#B76C6C;}
	.st3{fill:#FF4A73;}
	.st4{fill:#73D7F9;}
	.st5{fill:#30B6FF;}
	.st6{fill:#A4A4A5;}
	.st7{fill:#F973A3;}
	.st8{fill:#5F266D;}
	.st9{fill:#FFE2E2;}
	.st10{fill:#FFEFEE;}
	.st11{fill:#796E84;}
	.st12{fill:#3193F3;}
	.st13{fill:#35B1FC;}
	.st14{fill:#307FED;}
	.st15{fill:#FFCFCF;}
	.st16{fill:#EA2A6A;}
	.st17{fill:#44C7B6;}
	.st18{fill:#3BB2A0;}
	.st19{fill:#4BDBC3;}
	.st20{fill:#C98585;}
	.st21{fill:#965959;}
	.st22{fill:#FFBB98;}
	.st23{fill:#FFCAA6;}
	.st24{fill:#FFAA80;}
	.st25{fill:#F9D335;}
	.st26{fill:#F2C300;}
	.st27{fill:#F9E27D;}
</style>
<g>
	<g>
		<g>
			<circle id="XMLID_119_" class="st0" cx="23.882" cy="30.322" r="19.365"/>
		</g>
		<g>
			<path class="st4" d="M31.38,48.183c-2.31,0.96-4.84,1.5-7.5,1.5c-10.69,0-19.36-8.67-19.36-19.36c0-10.7,8.67-19.37,19.36-19.37
				c2.66,0,5.19,0.54,7.5,1.5c-6.96,2.94-11.86,9.83-11.86,17.87C19.52,38.353,24.42,45.243,31.38,48.183z"/>
		</g>
		<path id="XMLID_115_" class="st9" d="M162.926,238.728H90.173c-27.614,0-50-22.386-50-50v-32.87h172.752v32.87
			C212.926,216.342,190.54,238.728,162.926,238.728z"/>
		<circle id="XMLID_108_" class="st0" cx="20.211" cy="81.616" r="13.895"/>
		<circle id="XMLID_107_" class="st0" cx="221.983" cy="24.1" r="13.895"/>
		<circle id="XMLID_104_" class="st0" cx="229.413" cy="121.237" r="13.895"/>
		<circle id="XMLID_102_" class="st0" cx="235.881" cy="68.584" r="13.895"/>
		<circle id="XMLID_99_" class="st0" cx="24.454" cy="125.019" r="13.895"/>
		<path class="st22" d="M57.024,31.574c-3.334-0.881-6.38,2.166-5.499,5.499c8.462,31.88,6.951,21.865,15.237,53.065l36.519-46.513
			C80.037,37.46,88.553,39.943,57.024,31.574z"/>
		<path class="st22" d="M195.513,31.575c-31.531,8.366-23.057,5.868-46.295,12.032h-0.009l36.563,46.456
			c8.285-31.199,6.775-21.108,15.24-52.989C201.893,33.74,198.847,30.694,195.513,31.575z"/>
		<path class="st4" d="M27.719,93.313c-2.16,1.4-4.74,2.2-7.51,2.2c-7.67,0-13.89-6.22-13.89-13.9c0-7.67,6.22-13.89,13.89-13.89
			c2.77,0,5.35,0.81,7.51,2.2c-3.85,2.46-6.4,6.78-6.4,11.69C21.32,86.533,23.87,90.853,27.719,93.313z"/>
		<path class="st4" d="M31.959,136.713c-2.16,1.4-4.74,2.2-7.51,2.2c-7.67,0-13.89-6.22-13.89-13.89c0-7.68,6.22-13.9,13.89-13.9
			c2.77,0,5.35,0.81,7.51,2.2c-3.85,2.46-6.4,6.78-6.4,11.7C25.56,129.933,28.11,134.253,31.959,136.713z"/>
		<path class="st4" d="M236.92,132.933c-2.16,1.4-4.74,2.2-7.51,2.2c-7.67,0-13.89-6.22-13.89-13.9c0-7.67,6.22-13.89,13.89-13.89
			c2.77,0,5.35,0.81,7.51,2.2c-3.85,2.46-6.4,6.78-6.4,11.69C230.52,126.153,233.07,130.473,236.92,132.933z"/>
		<path class="st4" d="M243.37,80.283c-3.19,2.05-7.2,2.79-11.15,1.71c-7.4-2.03-11.76-9.66-9.74-17.07
			c2.02-7.4,9.66-11.76,17.06-9.74c1.4,0.38,2.68,0.96,3.84,1.71c-2.79,1.79-4.96,4.58-5.9,8.03
			C235.84,70.933,238.4,77.083,243.37,80.283z"/>
		<path class="st4" d="M229.479,35.803c-3.19,2.04-7.21,2.78-11.16,1.7c-7.4-2.02-11.76-9.66-9.74-17.06
			c2.02-7.4,9.66-11.77,17.06-9.75c1.4,0.38,2.69,0.97,3.85,1.71c-2.8,1.79-4.96,4.58-5.91,8.04
			C221.94,26.443,224.499,32.613,229.479,35.803z"/>
		<path class="st10" d="M105.17,238.723h-15c-27.61,0-50-22.38-50-50v-32.87h15v32.87C55.17,216.343,77.56,238.723,105.17,238.723z"
			/>
		<path class="st15" d="M212.93,155.853v32.87c0,27.62-22.39,50-50,50h-15c27.61,0,50-22.38,50-50v-32.87H212.93z"/>
		<path id="XMLID_97_" class="st9" d="M230.217,160.294v8.151c0,2.45-1.987,4.436-4.437,4.436H27.319
			c-2.451,0-4.437-1.986-4.437-4.436v-8.151c0-2.45,1.987-4.436,4.437-4.436H225.78
			C228.231,155.858,230.217,157.844,230.217,160.294z"/>
		<path class="st10" d="M42.32,172.883h-15c-2.45,0-4.44-1.99-4.44-4.44v-8.15c0-2.45,1.99-4.44,4.44-4.44h15
			c-2.45,0-4.44,1.99-4.44,4.44v8.15C37.88,170.893,39.87,172.883,42.32,172.883z"/>
		<path class="st15" d="M230.219,160.293v8.15c0,2.45-1.99,4.44-4.44,4.44h-15c2.45,0,4.44-1.99,4.44-4.44v-8.15
			c0-2.45-1.99-4.44-4.44-4.44h15C228.229,155.853,230.219,157.843,230.219,160.293z"/>
		<path id="XMLID_95_" class="st22" d="M62.349,172.882h-16c-5.523,0-10-4.477-10-10v-5.245c0-8.284,6.716-15,15-15h6
			c8.284,0,15,6.716,15,15v5.245C72.349,168.404,67.872,172.882,62.349,172.882z"/>
		<g>
			<path id="XMLID_93_" class="st22" d="M186.921,98.925c0,3.856-0.355,7.63-1.046,11.285
				c-5.293,28.291-30.128,49.642-59.881,49.642c-33.64,0-60.927-27.27-60.927-60.927c0-32.664,26.14-60.927,61.345-60.927
				c34.233,0.504,59.833,27.639,60.49,59.636C186.921,98.061,186.921,98.498,186.921,98.925z"/>
			<path class="st23" d="M132.851,159.471c-2.246,0.255-4.538,0.382-6.857,0.382c-33.637,0-60.927-27.272-60.927-60.927
				c0-32.664,26.144-60.927,61.345-60.927c2.173,0.036,4.31,0.173,6.411,0.409c-31.491,3.556-54.116,30.136-54.116,60.518
				C78.708,130.29,102.406,156.107,132.851,159.471z"/>
			<path class="st24" d="M186.921,98.926c0,3.856-0.355,7.63-1.046,11.285c-5.292,28.29-30.127,49.642-59.881,49.642
				c-2.292,0-4.547-0.127-6.766-0.382c26.644-3.001,48.123-23.18,53.006-49.26c0.691-3.656,1.046-7.429,1.046-11.285
				c0-0.427,0-0.864-0.018-1.291c-0.609-29.972-23.098-55.671-54.079-59.226c2.364-0.273,4.774-0.409,7.229-0.409
				c34.237,0.5,59.836,27.635,60.49,59.636C186.921,98.062,186.921,98.499,186.921,98.926z"/>
			<path id="XMLID_91_" class="st20" d="M186.921,98.925c0,3.856-0.355,7.63-1.046,11.285c-0.909,0.055-1.828,0.073-2.746,0.073
				c-32.237,0-58.381-26.135-58.381-58.39c0-4.783,0.573-9.439,1.664-13.895c34.233,0.504,59.833,27.639,60.49,59.636
				C186.921,98.061,186.921,98.498,186.921,98.925z"/>
			<path class="st21" d="M126.413,37.999c-0.127,0.527-0.246,1.055-0.364,1.582c31.726,7.278,51.813,38.051,46.35,69.721
				c3.474,0.646,7.066,0.982,10.73,0.982c0.918,0,1.837-0.018,2.746-0.073C192.793,73.624,165.413,38.569,126.413,37.999z"/>
		</g>
		<path class="st4" d="M178.19,30.833c0,11.43-9.27,20.7-20.71,20.7c-3.32,0-6.44-0.78-9.22-2.17c-0.37,1.25-0.84,2.45-1.42,3.6
			c-3.69,7.47-11.38,12.62-20.29,12.62c-10.28,0-18.94-6.85-21.71-16.22c-2.78,1.39-5.9,2.17-9.22,2.17
			c-11.44,0-20.71-9.27-20.71-20.7c0-0.91,0.06-1.81,0.18-2.69c1.32-10.16,10-18.01,20.53-18.01c5.09,0,9.74,1.84,13.35,4.89
			c3.65-5.88,10.15-9.81,17.58-9.81c7.43,0,13.93,3.93,17.58,9.81c3.61-3.05,8.26-4.89,13.35-4.89
			C168.92,10.133,178.19,19.403,178.19,30.833z"/>
		<path class="st0" d="M178.19,30.833c0,11.43-9.27,20.7-20.71,20.7c-3.32,0-6.44-0.78-9.22-2.17c-0.37,1.25-0.84,2.45-1.42,3.6
			c-16.71-0.8-30.57-10.07-35.15-22.55c-4.8,1.94-10.21,3.03-15.94,3.03c-7.7,0-14.82-1.96-20.66-5.3
			c1.32-10.16,10-18.01,20.53-18.01c5.09,0,9.74,1.84,13.35,4.89c3.65-5.88,10.15-9.81,17.58-9.81c7.43,0,13.93,3.93,17.58,9.81
			c3.61-3.05,8.26-4.89,13.35-4.89C168.92,10.133,178.19,19.403,178.19,30.833z"/>
		<path id="XMLID_88_" class="st2" d="M129.774,113.777c-1.799,2.244-5.213,2.244-7.012,0l-4.056-5.061l-1.709-2.132
			c-2.357-2.941-0.263-7.303,3.506-7.303h5.765h5.765c3.769,0,5.863,4.362,3.506,7.303l-1.709,2.132L129.774,113.777z"/>
		<path class="st23" d="M61.349,172.878h-15c-5.52,0-10-4.47-10-10v-5.24c0-8.29,6.72-15,15-15h6c1.57,0,3.08,0.24,4.5,0.68
			c-6.08,1.92-10.5,7.6-10.5,14.32v5.24C51.349,168.408,55.829,172.878,61.349,172.878z"/>
		<circle class="st3" cx="204.253" cy="192.242" r="46.63"/>
		<path class="st16" d="M250.879,192.238c0,25.76-20.87,46.63-46.63,46.63c-2.55,0-5.06-0.21-7.5-0.61
			c22.19-3.58,39.13-22.81,39.13-46.02c0-23.2-16.94-42.43-39.13-46.01c2.44-0.4,4.95-0.61,7.5-0.61
			C230.009,145.618,250.879,166.488,250.879,192.238z"/>
		<path class="st7" d="M211.749,238.258c-2.44,0.4-4.95,0.61-7.5,0.61c-25.75,0-46.63-20.87-46.63-46.63
			c0-25.75,20.88-46.62,46.63-46.62c2.55,0,5.06,0.21,7.5,0.61c-22.18,3.58-39.13,22.81-39.13,46.01
			C172.619,215.448,189.569,234.678,211.749,238.258z"/>
		<path class="st6" d="M223.709,212.878c-0.046,0.092-0.699,1.329-0.76,1.39c0,0.01,0,0.01-0.01,0.01
			c-11.181,18.959-40.44,10.879-40.44-11.13c0-9.08,5.57-16.84,13.46-20.11c-5.13-5.13-4.341-13.754,1.71-17.86v-0.01
			c1.88-1.28,4.14-2.03,6.58-2.03c10.296,0,15.613,12.552,8.3,19.9C221.935,186.179,230.178,199.932,223.709,212.878z"/>
		<path class="st1" d="M223.709,212.878c-0.046,0.092-0.699,1.329-0.76,1.39c0,0.01,0,0.01-0.01,0.01
			c-2.555,4.331-6.565,7.576-11.19,9.29c-18.537-6.818-19.117-32.934-0.79-40.53c-4.813-4.813-4.462-12.792,0.8-17.17
			c5.226,4.386,5.597,12.34,0.79,17.17C221.935,186.179,230.178,199.932,223.709,212.878z"/>
	</g>
	<g>
		<path class="st8" d="M20.81,99.655c9.867,0,17.895-8.028,17.895-17.895S30.677,63.866,20.81,63.866S2.916,71.893,2.916,81.76
			S10.943,99.655,20.81,99.655z M20.81,71.866c5.456,0,9.895,4.438,9.895,9.895s-4.438,9.895-9.895,9.895s-9.895-4.439-9.895-9.895
			S15.354,71.866,20.81,71.866z"/>
		<path class="st8" d="M24.481,53.831c12.884,0,23.365-10.481,23.365-23.364S37.365,7.102,24.481,7.102
			c-12.883,0-23.364,10.481-23.364,23.365S11.598,53.831,24.481,53.831z M24.481,15.102c8.473,0,15.365,6.893,15.365,15.365
			c0,8.472-6.893,15.364-15.365,15.364c-8.472,0-15.364-6.893-15.364-15.364C9.117,21.994,16.009,15.102,24.481,15.102z"/>
		<path class="st8" d="M222.577,42.141c7.867,0,15.099-5.238,17.268-13.185c2.599-9.519-3.032-19.376-12.551-21.975
			c-9.516-2.595-19.377,3.031-21.975,12.551C202.222,30.876,210.785,42.141,222.577,42.141z M213.036,21.639
			c1.443-5.284,6.912-8.372,12.151-6.94c5.264,1.437,8.377,6.887,6.94,12.15c-1.438,5.263-6.888,8.377-12.15,6.94
			C214.713,32.354,211.6,26.902,213.036,21.639z"/>
		<path class="st8" d="M212.118,121.381c0,9.867,8.027,17.895,17.895,17.895s17.896-8.028,17.896-17.895
			s-8.028-17.895-17.896-17.895S212.118,111.514,212.118,121.381z M239.908,121.381c0,5.456-4.439,9.895-9.896,9.895
			s-9.895-4.439-9.895-9.895s4.438-9.895,9.895-9.895S239.908,115.925,239.908,121.381z"/>
		<path class="st8" d="M219.217,64.017c-3.113,11.403,5.487,22.608,17.258,22.608c13.717,0,22.345-14.866,15.543-26.772
			C244.217,46.193,223.444,48.521,219.217,64.017z M246.026,71.334c-1.438,5.263-6.883,8.375-12.151,6.94
			c-5.263-1.437-8.377-6.887-6.94-12.151c1.211-4.434,5.225-7.293,9.53-7.293C243.025,58.83,247.737,65.06,246.026,71.334z"/>
		<path class="st8" d="M42.949,125.164c0-9.867-8.027-17.895-17.895-17.895S7.16,115.296,7.16,125.164s8.027,17.895,17.895,17.895
			S42.949,135.031,42.949,125.164z M15.16,125.164c0-5.456,4.438-9.895,9.895-9.895s9.895,4.438,9.895,9.895
			s-4.438,9.895-9.895,9.895S15.16,130.62,15.16,125.164z"/>
		<path class="st8" d="M140.849,136.245c9.827,0,17.821-7.994,17.821-17.821c0-2.209-1.791-4-4-4s-4,1.791-4,4
			c0,5.415-4.406,9.821-9.821,9.821c-5.388,0-9.773-4.363-9.816-9.741c0.931-0.526,1.772-1.219,2.463-2.081l5.765-7.192
			c2.062-2.572,2.456-6.016,1.029-8.987c-1.427-2.972-4.36-4.817-7.656-4.817h-11.53c-3.296,0-6.23,1.846-7.656,4.817
			c-1.427,2.971-1.032,6.415,1.029,8.987l5.765,7.193c0.691,0.861,1.532,1.555,2.463,2.08c-0.044,5.378-4.429,9.741-9.817,9.741
			c-5.415,0-9.82-4.406-9.82-9.821c0-2.209-1.791-4-4-4s-4,1.791-4,4c0,9.827,7.994,17.821,17.82,17.821
			c5.668,0,10.716-2.669,13.982-6.806C130.134,133.576,135.181,136.245,140.849,136.245z M120.718,104.228
			c-0.26-0.329-0.04-0.801,0.385-0.801h11.53c0.421,0,0.648,0.471,0.385,0.801l-5.766,7.192c0,0,0,0-0.001,0.001
			c-0.195,0.244-0.571,0.245-0.769,0L120.718,104.228z"/>
		<path class="st8" d="M105.871,84.101c4.191,3.243,9.063-3.098,4.9-6.324c-11.401-8.833-22.14-3.671-26.226,0.291
			c-3.743,3.632,1.697,9.362,5.545,5.767C90.806,83.165,97.332,77.483,105.871,84.101z"/>
		<path class="st8" d="M148.175,83.834c0.717-0.669,7.24-6.352,15.78,0.267c4.191,3.243,9.063-3.098,4.9-6.324
			c-11.401-8.833-22.14-3.671-26.226,0.291C138.887,81.7,144.327,87.43,148.175,83.834z"/>
		<path class="st8" d="M173.582,151.998h-9.865c10.524-7.395,18.288-17.446,22.785-28.76c0.531,0.087,18.136,3.013,18.674,3.013
			c1.924,0,3.62-1.392,3.942-3.352c0.357-2.18-1.119-4.237-3.299-4.596l-16.801-2.759c1.484-5.733,2.14-11.778,2.044-16.5
			l14.959-3.256c2.159-0.47,3.527-2.601,3.058-4.759c-0.47-2.159-2.605-3.523-4.759-3.058l-13.818,3.008
			c-0.022-0.166-0.042-0.335-0.065-0.5c8.006-30.063,6.64-20.583,15.04-52.238c1.665-6.301-4.082-12.051-10.396-10.387
			c-5.018,1.336-9.018,2.393-12.298,3.255c0.108-19.063-20.671-31.108-37.176-21.441c-9.784-11.078-27.133-11.075-36.914,0
			c-3.765-2.205-8.073-3.391-12.475-3.391c-13.669,0-24.853,11.183-24.697,24.978c-3.514-0.921-7.758-2.044-12.88-3.402
			c-6.318-1.67-12.054,4.118-10.377,10.393c8.396,31.64,7.028,22.237,15.028,52.313c-0.02,0.14-0.036,0.281-0.055,0.421
			L49.416,87.97c-2.151-0.464-4.289,0.899-4.759,3.058c-0.47,2.159,0.898,4.289,3.058,4.759l14.949,3.254
			c-0.029,5.508,0.62,10.99,2.049,16.504l-16.795,2.758c-2.18,0.358-3.656,2.416-3.299,4.596c0.322,1.96,2.019,3.352,3.942,3.352
			c0.216,0,0.434-0.018,0.653-0.053l18.02-2.96c4.488,11.249,12.174,21.302,22.789,28.76h-13.98
			c-2.453-7.656-9.633-13.216-18.093-13.216h-6c-8.46,0-15.64,5.56-18.093,13.216h-5.937c-4.653,0-8.439,3.786-8.439,8.44v8.16
			c0,4.648,3.786,8.43,8.439,8.43h8.851v11.84c0,24.191,15.867,45.177,38.869,51.846l-5.595,5.595c-1.906,1.906-1.906,4.996,0,6.903
			h0c1.906,1.906,4.996,1.906,6.903,0l10.458-10.458c2.651,0.173,76.636,0.187,79.493,0l10.457,10.457
			c1.906,1.906,4.996,1.906,6.903,0l0,0c1.906-1.906,1.906-4.997,0-6.903l-5.599-5.599c1.894-0.552,3.756-1.217,5.578-1.973
			c33.312,14.398,70.649-10.189,70.649-46.495C254.883,150.41,206.748,126.659,173.582,151.998z M235.711,163.505l-16.064,14.311
			c0.929-4.835-0.445-9.677-3.539-13.253l1.862-2.723c1.247-1.824,0.779-4.313-1.044-5.56c-1.824-1.248-4.314-0.779-5.56,1.044
			l-1.863,2.724c-3.393-1.208-7.05-1.228-10.5,0l-1.863-2.725c-1.246-1.824-3.735-2.292-5.56-1.044
			c-1.823,1.247-2.291,3.736-1.044,5.56l1.859,2.719c-4.041,4.663-5.018,11.362-2.258,17.069c-2.203,1.45-4.172,3.225-5.835,5.262
			l-7.224-3.711c-1.963-1.007-4.376-0.234-5.386,1.73s-0.235,4.376,1.729,5.386l6.84,3.514c-0.665,1.701-1.159,3.487-1.449,5.341
			h-6.344c-2.209,0-4,1.791-4,4s1.791,4,4,4h6.344c0.308,1.964,0.842,3.853,1.569,5.644l-8.288,7.384
			c-23.878-27.45-4.349-70.565,32.159-70.565C216.697,149.613,227.91,154.974,235.711,163.505z M190.564,214.439l26.469-23.579
			c0.978,1.017,1.952,2.219,2.862,3.91C230.132,213.805,203.939,230.629,190.564,214.439z M210.03,186.383l-23.105,20.583
			C183.951,193.453,196.964,181.864,210.03,186.383z M200.083,168.367c6.592-4.26,14.597,2.978,11.006,9.956
			c-4.499-1.236-9.19-1.232-13.67,0.003C195.913,175.404,196.129,171.386,200.083,168.367z M76.949,163.026v-3.028h29.289
			c0.004,0,0.008,0.001,0.011,0.001c0.004,0,0.008-0.001,0.013-0.001h41.215c0.004,0,0.008,0.001,0.013,0.001
			c0.004,0,0.008-0.001,0.011-0.001h17.75c-2.298,2.775-4.296,5.805-5.968,9.03H75.578
			C76.447,167.206,76.949,165.176,76.949,163.026z M197.743,36.192c-4.233,15.953-5.977,21.4-7.663,26.668
			c-1.044,3.261-2.11,6.593-3.75,12.341c-3.537-8.65-8.962-16.477-15.851-22.87c4.841-2.822,8.639-7.238,10.669-12.528
			C197.39,35.567,198.044,35.027,197.743,36.192z M106.985,18.223c1.865,1.577,4.695,1.126,5.98-0.944
			c6.564-10.567,21.816-10.547,28.367,0c1.281,2.062,4.109,2.527,5.98,0.944c10.807-9.139,27.472-1.433,27.472,12.755
			c0,12.417-13.128,20.464-24.135,14.949c-2.227-1.115-4.923,0.058-5.627,2.443c-5.234,17.71-30.501,17.753-35.748,0
			c-0.706-2.393-3.408-3.555-5.627-2.443c-11.011,5.517-24.135-2.537-24.135-14.949C79.513,16.772,96.196,9.1,106.985,18.223z
			 M55.994,36.184c-0.097-0.364,0.235-0.696,0.6-0.6c7.084,1.879,12.493,3.308,16.618,4.378c1.994,5.089,5.624,9.363,10.247,12.162
			c-7.046,6.463-12.512,14.345-16.068,23.107C63.103,60.168,62.802,61.84,55.994,36.184z M75.357,121.903l14.315-2.351
			c2.18-0.358,3.656-2.416,3.299-4.596c-0.358-2.18-2.415-3.651-4.596-3.299l-15.729,2.583c-1.195-4.371-1.854-8.886-1.963-13.455
			c18.516,4.03,17.64,3.899,18.344,3.899c1.841,0,3.497-1.278,3.904-3.15c0.47-2.159-0.899-4.289-3.058-4.759l-18.794-4.09
			c1.83-15.135,9.482-28.281,20.958-37.364c3.856,0.66,7.658,0.392,11.136-0.636c9.729,19.993,38.212,20.014,47.951,0
			c3.505,1.036,7.177,1.246,10.672,0.717c11.213,8.924,19.075,22.139,20.861,37.283l-18.795,4.091
			c-5.161,1.124-3.475,8.939,1.701,7.817l17.479-3.804c-0.108,4.586-0.757,9.101-1.946,13.454l-15.735-2.584
			c-2.177-0.358-4.237,1.119-4.596,3.299c-0.357,2.18,1.119,4.237,3.299,4.596l14.313,2.351
			c-6.093,14.013-17.591,24.792-31.643,30.094h-39.732C93.089,146.747,81.527,136.06,75.357,121.903z M51.949,146.781h6
			c6.065,0,11,4.935,11,11v5.245c0,2.244-1.24,4.201-3.069,5.23v-10.353c0-2.209-1.791-4-4-4s-4,1.791-4,4v11.123h-5.862v-11.123
			c0-2.209-1.791-4-4-4s-4,1.791-4,4v10.352c-1.829-1.029-3.068-2.986-3.068-5.23v-5.245
			C40.949,151.716,45.883,146.781,51.949,146.781z M27.479,168.598v-8.16c0-0.72,0.931-0.44,5.47-0.44v3.028
			c0,2.15,0.501,4.18,1.371,6.002h-6.401C27.676,169.028,27.479,168.835,27.479,168.598z M90.769,234.868c-25.287,0-46-20.325-46-46
			v-11.84h111.194c-6.557,20.766,0.903,43.535,18.919,56.415C167.17,235.403,164.492,234.868,90.769,234.868z M177.905,225.717
			l6.689-5.959c10.621,12.553,29.713,11.924,39.611-0.346c7.82,4.017,7.719,4.112,8.934,4.146
			C217.77,237.746,194.41,238.736,177.905,225.717z M237.232,219.222c-0.244-2.817-2.107-3.196-8.988-6.731
			c0.675-1.727,1.168-3.546,1.449-5.341h6.344c2.209,0,4-1.791,4-4s-1.791-4-4-4h-6.344c-0.283-1.809-0.779-3.628-1.449-5.341
			l6.841-3.514c1.965-1.009,2.739-3.421,1.729-5.386c-1.01-1.966-3.422-2.738-5.386-1.73l-7.224,3.711
			c-0.361-0.441-0.851-0.992-1.193-1.356l17.536-15.622C250.034,185.274,248.83,205.072,237.232,219.222z"/>
		<path class="st8" d="M58.76,193.95c-0.67-2.102-2.92-3.264-5.021-2.599c-2.106,0.668-3.271,2.917-2.604,5.022
			c0.096,0.302,2.409,7.491,7.771,15.295c0.775,1.128,2.027,1.735,3.301,1.735c3.192,0,5.122-3.604,3.293-6.266
			C60.86,200.383,58.793,194.052,58.76,193.95z"/>
		<path class="st8" d="M78.177,219.464c-1.139-0.675-2.271-1.443-3.364-2.283c-1.752-1.347-4.263-1.018-5.609,0.734
			c-1.346,1.751-1.018,4.263,0.734,5.609c4.119,3.168,5.195,3.382,6.196,3.382C80.181,226.906,81.674,221.537,78.177,219.464z"/>
	</g>
</g>
</svg>
