<?xml version="1.0" encoding="utf-8"?>
<!-- Generator: Adobe Illustrator 22.1.0, SVG Export Plug-In . SVG Version: 6.00 Build 0)  -->
<svg version="1.1" id="Icon_Set" xmlns="http://www.w3.org/2000/svg" xmlns:xlink="http://www.w3.org/1999/xlink" x="0px" y="0px"
	 viewBox="0 0 256 256" style="enable-background:new 0 0 256 256;" xml:space="preserve">
<style type="text/css">
	.st0{fill:#5FCDFF;}
	.st1{fill:#87828E;}
	.st2{fill:#B76C6C;}
	.st3{fill:#FF4A73;}
	.st4{fill:#73D7F9;}
	.st5{fill:#30B6FF;}
	.st6{fill:#A4A4A5;}
	.st7{fill:#F973A3;}
	.st8{fill:#5F266D;}
	.st9{fill:#FFE2E2;}
	.st10{fill:#FFEFEE;}
	.st11{fill:#796E84;}
	.st12{fill:#3193F3;}
	.st13{fill:#35B1FC;}
	.st14{fill:#307FED;}
	.st15{fill:#FFCFCF;}
	.st16{fill:#EA2A6A;}
	.st17{fill:#44C7B6;}
	.st18{fill:#3BB2A0;}
	.st19{fill:#4BDBC3;}
	.st20{fill:#C98585;}
	.st21{fill:#965959;}
	.st22{fill:#FFBB98;}
	.st23{fill:#FFCAA6;}
	.st24{fill:#FFAA80;}
	.st25{fill:#F9D335;}
	.st26{fill:#F2C300;}
	.st27{fill:#F9E27D;}
</style>
<g>
	<g>
		<path class="st0" d="M235.547,125.988h-71.217c-5.5,0-10,4.5-10,10v38.024c0,5.5,4.5,10,10,10h41.177l18.1,34.84
			c2.42,4.64,9.44,2.93,9.44-2.31v-32.53h2.5c5.5,0,10-4.5,10-10v-38.024C245.547,130.488,241.047,125.988,235.547,125.988z"/>
		<g>
			<path class="st10" d="M25.457,238.442v4.8c0,3.56,2.89,6.45,6.46,6.45h-15.01c-3.56,0-6.45-2.89-6.45-6.45v-4.8
				c0-26.872,13.394-50.155,34.25-64.4c0.55-0.38,1.1-0.74,1.66-1.1l0.34,0.35l2.92,8.85
				C34.737,196.292,25.457,216.282,25.457,238.442z"/>
			<path class="st15" d="M165.807,238.442v4.8c0,3.56-2.89,6.45-6.46,6.45h-14.99c3.56,0,6.45-2.89,6.45-6.45v-4.8
				c0-21.058-8.406-41.204-24.17-56.31c3.233-9.822,2.766-8.624,3.17-9.23h0.01C151.515,186.689,165.807,210.998,165.807,238.442z"
				/>
			<path class="st17" d="M165.807,238.442v4.8c0,3.56-2.89,6.45-6.46,6.45H16.907c-3.56,0-6.45-2.89-6.45-6.45v-4.8
				c0-27.52,14.32-51.71,35.91-65.5c12.06-7.7,26.39-12.17,41.76-12.17c15.34,0,29.63,4.45,41.68,12.13h0.01
				c4.8,3.05,9.24,6.62,13.24,10.62C157.107,197.582,165.807,216.992,165.807,238.442z"/>
			<path class="st19" d="M25.453,238.442v4.8c0,3.56,2.89,6.45,6.46,6.45h-15c-3.57,0-6.46-2.89-6.46-6.45v-4.8
				c0-42.89,34.78-77.67,77.68-77.67c2.53,0,5.03,0.12,7.5,0.36C56.253,164.902,25.453,198.082,25.453,238.442z"/>
			<path class="st18" d="M165.803,238.442v4.8c0,3.56-2.89,6.45-6.45,6.45h-15c3.56,0,6.45-2.89,6.45-6.45v-4.8
				c0-21.44-8.7-40.86-22.75-54.92c-12.4-12.4-28.96-20.62-47.42-22.39c2.47-0.24,4.97-0.36,7.5-0.36
				c21.45,0,40.86,8.69,54.92,22.75C157.103,197.582,165.803,217.002,165.803,238.442z"/>
			<path class="st22" d="M88.13,160.732L88.13,160.732c-26.25,0-47.727-21.477-47.727-47.727v-42.67c0-3.55,2.904-6.454,6.454-6.454
				h82.546c3.55,0,6.454,2.904,6.454,6.454v42.67C135.857,139.254,114.38,160.732,88.13,160.732z"/>
			<g>
				<path class="st22" d="M21.361,103.83c0,7.955,6.508,14.463,14.463,14.463h4.632V89.367h-4.632
					C27.869,89.367,21.361,95.876,21.361,103.83z"/>
				<path class="st22" d="M140.435,89.367h-4.632v28.927h4.632c7.955,0,14.463-6.508,14.463-14.463
					C154.899,95.876,148.39,89.367,140.435,89.367z"/>
			</g>
			<path class="st22" d="M88.13,187.556L88.13,187.556c-9.181,0-16.623-7.442-16.623-16.623v-36.944h33.247v36.944
				C104.753,180.113,97.311,187.556,88.13,187.556z"/>
			<path class="st23" d="M95.633,160.142c-2.44,0.39-4.95,0.59-7.5,0.59c-26.25,0-47.73-21.48-47.73-47.73v-42.67
				c0-3.55,2.9-6.45,6.45-6.45h15c-3.55,0-6.45,2.9-6.45,6.45v42.67C55.403,136.702,72.913,156.512,95.633,160.142z"/>
			<path class="st24" d="M135.853,70.332v42.67c0,26.25-21.47,47.73-47.72,47.73c-2.55,0-5.05-0.2-7.5-0.59
				c22.72-3.63,40.22-23.44,40.22-47.14v-42.67c0-3.55-2.9-6.45-6.45-6.45h15C132.953,63.882,135.853,66.782,135.853,70.332z"/>
			<path class="st2" d="M41.687,95.383L41.687,95.383c-7.078,0-12.817-5.738-12.817-12.817V51.568
				c0-7.078,5.738-12.817,12.817-12.817h0c7.078,0,12.817,5.738,12.817,12.817v30.998C54.504,89.644,48.766,95.383,41.687,95.383z"
				/>
			<path class="st2" d="M157.523,11.882l-9.54,33.3c-1.35,4.72-3.49,9.12-6.26,13.05c-8.74,12.49-23.67,20.15-39.12,17.82
				l-48.1-7.26v-17.22c0-12.05,7.09-22.44,17.32-27.23c3.87-1.81,8.18-2.82,12.73-2.82h29.94c13.52,0,26.57-5.04,36.59-14.12
				c0.83-0.75,1.76-1.07,2.68-1.07C156.343,6.332,158.703,8.942,157.523,11.882z"/>
			<path class="st20" d="M49.183,92.952c-2.11,1.53-4.7,2.43-7.5,2.43c-7.07,0-12.81-5.74-12.81-12.82v-30.99
				c0-7.08,5.74-12.82,12.81-12.82c2.8,0,5.39,0.9,7.5,2.42c-3.21,2.33-5.31,6.12-5.31,10.4v30.99
				C43.873,86.842,45.973,90.632,49.183,92.952z"/>
			<path class="st20" d="M149.513,39.832l-1.53,5.35c-1.35,4.72-3.49,9.12-6.26,13.05c-8.74,12.49-23.67,20.15-39.12,17.82
				l-48.1-7.26v-15.21l49.8,6.79c17.09,2.33,33.6-5.33,43.27-17.82C148.263,41.672,148.913,40.762,149.513,39.832z"/>
			<path class="st21" d="M153.763,6.332c-0.92,0-1.85,0.32-2.68,1.07c-10.02,9.08-23.07,14.12-36.59,14.12h-29.94
				c-4.55,0-8.86,1.01-12.73,2.82c-10.23,4.79-17.32,15.18-17.32,27.23v10.87c0-12.05,7.09-22.44,17.32-27.23
				c3.87-1.81,8.18-2.82,12.73-2.82h29.94c13.52,0,26.57-5.04,36.59-14.12c0.83-0.75,1.76-1.07,2.68-1.07
				c0.73,0,1.45,0.21,2.07,0.58l1.69-5.9C158.703,8.942,156.343,6.332,153.763,6.332z"/>
			<path class="st9" d="M71.897,249.692h-54.99c-3.56,0-6.45-2.89-6.45-6.45v-4.8c0-27.52,14.32-51.71,35.91-65.5l0.34,0.35
				L71.897,249.692z"/>
			<path class="st9" d="M165.807,238.442v4.8c0,3.56-2.89,6.45-6.46,6.45h-54.99l25.19-76.4l0.26-0.39h0.01
				c4.8,3.05,9.24,6.62,13.24,10.62C157.107,197.582,165.807,216.992,165.807,238.442z"/>
			<path class="st10" d="M46.707,173.292l2.92,8.85c-14.89,14.15-24.17,34.14-24.17,56.3v4.8c0,3.56,2.89,6.45,6.46,6.45h-15.01
				c-3.56,0-6.45-2.89-6.45-6.45v-4.8c0-26.89,13.432-50.181,34.25-64.4c0.55-0.38,1.1-0.74,1.66-1.1L46.707,173.292z"/>
			<path class="st10" d="M165.807,238.442v4.8c0,3.56-2.89,6.45-6.46,6.45h-14.99c3.56,0,6.45-2.89,6.45-6.45v-4.8
				c0-21.058-8.406-41.204-24.17-56.31c3.233-9.822,2.766-8.624,3.17-9.23h0.01C151.515,186.689,165.807,210.998,165.807,238.442z"
				/>
		</g>
		<path class="st4" d="M179.327,184.012h-15c-5.5,0-10-4.5-10-10v-38.02c0-5.5,4.5-10,10-10h15c-5.5,0-10,4.5-10,10v38.02
			C169.327,179.512,173.827,184.012,179.327,184.012z"/>
		<path class="st5" d="M245.547,135.992v38.02c0,5.5-4.5,10-10,10h-2.5v32.53c0,5.24-7.02,6.95-9.44,2.31l-5.56-10.7v-21.64
			c0-1.381,1.119-2.5,2.5-2.5h0c5.5,0,10-4.5,10-10v-38.02c0-5.5-4.5-10-10-10h15C241.047,125.992,245.547,130.492,245.547,135.992z
			"/>
	</g>
	<g>
		<path class="st8" d="M178.522,166.463c-3.008,0-5.364,2.356-5.364,5.364s2.356,5.364,5.364,5.364c2.898,0,5.256-2.406,5.256-5.364
			S181.421,166.463,178.522,166.463z"/>
		<path class="st8" d="M181.94,132.809c-4.18,0-7.855,1.385-10.35,3.9c-2.306,2.325-3.508,5.445-3.479,9.023
			c0.009,1.098,0.902,1.983,2,1.983h4.666c1.104,0,2-0.896,2-2c0-4.161,3.269-4.783,5.217-4.783c3.315,0,5.217,1.842,5.217,5.054
			c0,3.556-1.581,5.759-9.449,5.759h-1.573c-1.123,0-2.028,0.926-1.999,2.051l0.217,8.573c0.027,1.084,0.914,1.949,1.999,1.949
			h4.287c1.08,0,1.965-0.857,1.999-1.937l0.104-3.287c8.38-0.616,13.137-5.316,13.137-13.108
			C195.933,138.104,190.31,132.809,181.94,132.809z"/>
		<path class="st8" d="M214.356,166.463c-3.008,0-5.364,2.356-5.364,5.364s2.356,5.364,5.364,5.364c2.898,0,5.256-2.406,5.256-5.364
			S217.254,166.463,214.356,166.463z"/>
		<path class="st8" d="M217.774,132.809c-4.18,0-7.855,1.385-10.35,3.9c-2.306,2.325-3.508,5.445-3.479,9.023
			c0.009,1.098,0.902,1.983,2,1.983h4.666c1.104,0,2-0.896,2-2c0-4.161,3.269-4.783,5.217-4.783c3.315,0,5.217,1.842,5.217,5.054
			c0,5.721-5.266,5.759-11.022,5.759c-1.123,0-2.027,0.926-1.999,2.051l0.217,8.573c0.027,1.084,0.914,1.949,1.999,1.949h4.287
			c1.08,0,1.965-0.857,1.999-1.937l0.104-3.287c8.38-0.616,13.137-5.316,13.137-13.108
			C231.766,138.104,226.143,132.809,217.774,132.809z"/>
		<path class="st8" d="M235.547,121.988h-71.216c-7.72,0-14,6.28-14,14v38.024c0,7.72,6.28,14,14,14h38.746l16.983,32.689
			c4.336,8.315,16.986,5.298,16.986-4.159v-28.61c7.018-0.751,12.5-6.708,12.5-13.92v-38.024
			C249.547,128.269,243.267,121.988,235.547,121.988z M241.547,174.012c0,3.309-2.691,6-6,6h-2.5c-2.209,0-4,1.791-4,4v32.53
			c0,1.074-1.401,1.415-1.89,0.465l-18.101-34.84c-0.688-1.325-2.057-2.156-3.55-2.156h-41.176c-3.309,0-6-2.691-6-6v-38.024
			c0-3.309,2.691-6,6-6h71.216c3.309,0,6,2.691,6,6V174.012z"/>
		<path class="st8" d="M64.626,93.611c-3.531,0-6.394,2.863-6.394,6.394c0,3.531,2.863,6.394,6.394,6.394s6.394-2.863,6.394-6.394
			C71.02,96.473,68.158,93.611,64.626,93.611z"/>
		<path class="st8" d="M111.633,106.399c3.531,0,6.394-2.863,6.394-6.394c0-3.531-2.863-6.394-6.394-6.394
			c-3.531,0-6.394,2.863-6.394,6.394C105.239,103.536,108.102,106.399,111.633,106.399z"/>
		<path class="st8" d="M102.308,118.788c0-2.209-1.791-4-4-4s-4,1.791-4,4c0,3.406-2.771,6.178-6.178,6.178
			s-6.178-2.771-6.178-6.178c0-2.209-1.791-4-4-4s-4,1.791-4,4c0,7.818,6.36,14.178,14.178,14.178
			C95.947,132.965,102.308,126.605,102.308,118.788z"/>
		<path class="st8" d="M110.157,159.794c14.838-7.015,25.816-20.885,28.843-37.5c26.739,0,25.827-36.926,0.852-36.926
			c0-16.418,0.163-16.109-0.502-18.193c11.354-11.148,12.063-19.448,21.971-54.025c2.899-7.84-6.693-14.359-12.925-8.714
			c-9.306,8.436-21.348,13.081-33.908,13.081H84.555c-14.362,0-26.666,8.942-31.662,21.547C42.062,29.348,24.87,37.1,24.87,51.568
			v30.998c0,2.015,0.374,3.939,1.027,5.731c-5.31,3.408-8.534,9.194-8.534,15.535c0,9.206,6.836,18.46,19.892,18.46
			c3.028,16.621,14.013,30.494,28.861,37.508c-35.123,9.837-59.663,41.898-59.663,78.642v4.8c0,5.762,4.692,10.45,10.46,10.45
			c6.415,0,136.027,0,142.439,0c5.763,0,10.45-4.688,10.45-10.45v-4.8C169.803,200.503,144.152,169.267,110.157,159.794z
			 M139.853,93.367c14.665,0,14.699,20.926-0.033,20.926C139.865,112.452,139.853,116.841,139.853,93.367z M58.504,51.568
			c0-14.365,11.687-26.051,26.051-26.051h29.934c14.551,0,28.501-5.382,39.249-15.188c0.035,0.007,0.098,0.051,0.073,0.063
			c-0.12,0.298-9.587,33.38-9.676,33.689c-5.267,18.378-23.248,30.687-40.931,28.015l-44.7-6.747V51.568z M25.363,103.832
			c0-3.702,1.95-7.002,4.979-8.888c1.73,1.587,3.784,2.82,6.061,3.576c0,17.721-0.011,14.005,0.033,15.772
			C29.408,114.292,25.363,109.146,25.363,103.832z M32.87,82.566V51.568c0-4.862,3.955-8.817,8.817-8.817
			c4.861,0,8.816,3.955,8.816,8.817v17.223v13.775c0,4.862-3.955,8.817-8.816,8.817C36.825,91.383,32.87,87.428,32.87,82.566z
			 M44.403,113.001V99.143c7.983-1.305,14.101-8.231,14.101-16.577v-9.126l43.507,6.566c10.351,1.563,20.908-1.022,29.842-6.817
			c0,14.689,0,21.993,0,25.37c0,1.998,0,2.628,0,2.582c0,2.121,0,5.786,0,11.861c0,18.778-11.896,34.826-28.544,41.009
			C75.83,164.7,44.403,143.938,44.403,113.001z M100.753,163.167v7.764c0,6.959-5.661,12.62-12.62,12.62
			c-6.964,0-12.63-5.661-12.63-12.62v-7.766C83.782,165.251,92.456,165.256,100.753,163.167z M16.913,245.691
			c-1.356,0-2.46-1.099-2.46-2.45v-4.8c0-23.807,11.675-45.632,29.987-59.24l21.924,66.49H16.913z M74.788,245.691l-23.428-71.051
			c5.021-2.917,10.43-5.252,16.142-6.918v3.209c0,11.37,9.255,20.62,20.63,20.62c11.37,0,20.62-9.25,20.62-20.62v-3.229
			c5.657,1.641,11.072,3.962,16.153,6.895l-23.442,71.094H74.788z M161.803,243.242c0,1.351-1.1,2.45-2.45,2.45h-49.465
			l21.947-66.559c18.275,13.5,29.969,34.984,29.969,59.309V243.242z"/>
		<path class="st8" d="M37.812,196.084c-0.288,0.245-7.11,6.157-10.871,19.236c-0.611,2.123,0.615,4.339,2.738,4.95
			c2.128,0.611,4.34-0.619,4.949-2.739c3.017-10.488,8.235-15.235,8.386-15.37C47.013,198.717,41.828,192.673,37.812,196.084z"/>
		<path class="st8" d="M28.664,227.213c-2.217-0.074-4.062,1.645-4.142,3.853c-0.034,0.936-0.052,1.893-0.053,2.872
			c-0.005,5.301,7.995,5.353,8,0.009c0.001-0.883,0.017-1.747,0.047-2.59C32.597,229.147,30.872,227.293,28.664,227.213z"/>
	</g>
</g>
</svg>
