<?xml version="1.0" encoding="utf-8"?>
<!-- Generator: Adobe Illustrator 22.1.0, SVG Export Plug-In . SVG Version: 6.00 Build 0)  -->
<svg version="1.1" id="Icon_Set" xmlns="http://www.w3.org/2000/svg" xmlns:xlink="http://www.w3.org/1999/xlink" x="0px" y="0px"
	 viewBox="0 0 256 256" style="enable-background:new 0 0 256 256;" xml:space="preserve">
<style type="text/css">
	.st0{fill:#5FCDFF;}
	.st1{fill:#87828E;}
	.st2{fill:#B76C6C;}
	.st3{fill:#FF4A73;}
	.st4{fill:#73D7F9;}
	.st5{fill:#30B6FF;}
	.st6{fill:#A4A4A5;}
	.st7{fill:#F973A3;}
	.st8{fill:#5F266D;}
	.st9{fill:#FFE2E2;}
	.st10{fill:#FFEFEE;}
	.st11{fill:#796E84;}
	.st12{fill:#3193F3;}
	.st13{fill:#35B1FC;}
	.st14{fill:#307FED;}
	.st15{fill:#FFCFCF;}
	.st16{fill:#EA2A6A;}
	.st17{fill:#44C7B6;}
	.st18{fill:#3BB2A0;}
	.st19{fill:#4BDBC3;}
	.st20{fill:#C98585;}
	.st21{fill:#965959;}
	.st22{fill:#FFBB98;}
	.st23{fill:#FFCAA6;}
	.st24{fill:#FFAA80;}
	.st25{fill:#F9D335;}
	.st26{fill:#F2C300;}
	.st27{fill:#F9E27D;}
</style>
<g>
	<g>
		<path class="st2" d="M119.945,33.406v51.091c0,8.242-6.691,14.944-14.944,14.944h-61.93c-7.445,0-14.19-3.017-19.07-7.908
			c-4.892-4.881-7.908-11.625-7.908-19.07c0-2.327,0.291-4.579,0.851-6.734c2.122-8.285,8.091-15.019,15.881-18.23
			c3.157-1.293,6.626-2.015,10.246-2.015h5.193c1.648,0,3.135-0.668,4.224-1.745v-0.011c1.077-1.088,1.745-2.575,1.745-4.224v-6.098
			c0-15.612,12.66-28.261,28.261-28.261h9.201C107.296,5.145,119.945,17.794,119.945,33.406z"/>
		<path class="st20" d="M95.175,5.371C81.212,7.073,70.394,18.979,70.394,33.406v6.098c0,1.648-0.668,3.135-1.745,4.224v0.011
			c-1.088,1.077-2.575,1.745-4.224,1.745h-5.193c-3.62,0-7.089,0.722-10.246,2.015c-7.79,3.211-13.759,9.945-15.881,18.23
			c-0.56,2.155-0.851,4.407-0.851,6.734c0,7.445,3.017,14.19,7.908,19.07c4.881,4.892,11.625,7.908,19.07,7.908H43.071
			c-7.445,0-14.19-3.017-19.07-7.908c-4.892-4.881-7.908-11.625-7.908-19.07c0-2.327,0.291-4.579,0.851-6.734
			c2.122-8.285,8.091-15.019,15.881-18.23c3.157-1.293,6.626-2.015,10.246-2.015h5.193c1.648,0,3.135-0.668,4.224-1.745v-0.011
			c1.077-1.088,1.745-2.575,1.745-4.224v-6.098c0-15.612,12.66-28.261,28.261-28.261h9.201C92.869,5.145,94.033,5.22,95.175,5.371z"
			/>
		<path class="st2" d="M79.25,156.527v70.825H67.575c-5.95,0-10.774,4.824-10.774,10.774v1.077c0,5.95,4.824,10.774,10.774,10.774
			H79.25h10.862c5.95,0,10.774-4.824,10.774-10.774v-11.852v-70.825H79.25z"/>
		<path class="st22" d="M62.421,99.441h-19.35c-7.445,0-14.19-3.017-19.07-7.908c-4.892-4.881-7.908-11.625-7.908-19.07
			c0-2.327,0.291-4.579,0.851-6.734c2.122-8.285,8.091-15.019,15.881-18.23c3.157-1.293,6.626-2.015,10.246-2.015h5.193
			c1.648,0,3.135-0.668,4.224-1.745C52.488,43.738,83.399,69.736,62.421,99.441z"/>
		<path class="st2" d="M110.597,7.982c-4.607-3.65-11.254,0.465-10.043,6.216l23.991,81.144c0.166,0.36,0.345,0.717,0.573,1.041
			c3.14,4.47,10.004,3.942,12.415-0.976c0.157-0.321,0.27-0.661,0.372-1.004l10.703-36.118c1.412-4.764,0.179-9.919-3.235-13.529
			L110.597,7.982z"/>
		<path class="st2" d="M222.564,128.622c-1.01-1.01-2.06-1.99-3.15-2.93c-10.55-9.15-24.28-14.71-39.26-14.71
			c-14.87,0-28.52,5.48-39.03,14.52H59.705v23.99c0,29.75,24.12,53.87,53.87,53.87h13.859c1.08,0.38,2.24,0.58,3.45,0.58h98.54
			c5.93,0,10.77-4.85,10.77-10.77v-22.15C240.194,154.511,233.444,139.501,222.564,128.622z"/>
		<path class="st3" d="M115.698,125.499H59.704V103.69c0-2.348,1.903-4.251,4.251-4.251h47.492c2.348,0,4.251,1.903,4.251,4.251
			V125.499z"/>
		<path class="st20" d="M129.739,203.358h-16.161c-29.758,0-53.871-24.113-53.871-53.871v-23.983h16.161v23.983
			C75.868,179.245,99.98,203.358,129.739,203.358z"/>
		<path class="st7" d="M80.113,99.441c-2.349,0-4.245,1.907-4.245,4.245v21.818H59.706v-21.818c0-2.338,1.896-4.245,4.245-4.245
			H80.113z"/>
		<path class="st16" d="M115.7,103.686v21.818H99.539v-21.818c0-2.338-1.907-4.245-4.256-4.245h16.161
			C113.793,99.441,115.7,101.348,115.7,103.686z"/>
		<path class="st23" d="M40.162,91.532c-4.892-4.881-7.908-11.625-7.908-19.07c0-2.327,0.291-4.579,0.851-6.734
			c2.122-8.285,8.091-15.019,15.881-18.23c1.821-0.743,3.749-1.304,5.753-1.627c-1.368-1.39-2.252-2.133-2.252-2.133
			c-1.088,1.077-2.575,1.745-4.224,1.745h-5.193c-3.62,0-7.089,0.722-10.246,2.015c-7.79,3.211-13.759,9.945-15.881,18.23
			c-0.56,2.155-0.851,4.407-0.851,6.734c0,7.445,3.017,14.19,7.908,19.07c4.881,4.892,11.625,7.908,19.07,7.908h16.161
			C51.787,99.441,45.043,96.424,40.162,91.532z"/>
		<path class="st20" d="M139.166,90.143l-1.261,4.256c-0.097,0.345-0.215,0.69-0.377,1.013c-2.403,4.913-9.266,5.441-12.412,0.97
			c-0.226-0.323-0.409-0.679-0.571-1.034l-23.994-81.151c-1.207-5.753,5.441-9.858,10.042-6.217l6.227,6.583L139.166,90.143z"/>
		<path class="st2" d="M36.972,53.191v2.015c0,6.606-5.357,11.957-11.957,11.957H22.6c-2.051,0-3.976-0.514-5.662-1.429
			c2.128-8.286,8.095-15.03,15.89-18.234C35.232,48.277,36.972,50.524,36.972,53.191z"/>
		<g>
			<path class="st20" d="M82.839,249.978H67.571c-5.947,0-10.774-4.827-10.774-10.774v-1.077c0-5.947,4.827-10.774,10.774-10.774
				h15.267c-5.947,0-10.774,4.827-10.774,10.774v1.077C72.064,245.151,76.891,249.978,82.839,249.978z"/>
		</g>
		<g>
			<path class="st2" d="M224.434,248.582c-1.57,1.55-3.66,2.57-5.97,2.81c-0.72,0.103-19.18,0.056-19.69,0.03
				c-2.035,0-5.145-1.311-6.62-3.08c-4.931-5.134-3.769-16.525,5.34-19.13l0.09-25.27h21.64l-0.1,25.21
				C229.154,231.825,229.167,244.634,224.434,248.582z"/>
			<path class="st2" d="M161.954,251.391c-0.793,0.113-19.574,0.075-20.1,0c-11.406-1.16-12.524-18.85-0.88-22.18l0.09-25.27h21.64
				l-0.09,25.21c0.28,0.07,0.56,0.15,0.83,0.24c0.07,0.02,0.13,0.05,0.19,0.07C174.201,233.299,173.164,250.247,161.954,251.391z"/>
		</g>
		<path class="st20" d="M187.664,111.452c-11.94,1.5-22.82,6.55-31.54,14.05c-12.84,11.03-21.01,27.37-21.01,45.52v22.15
			c0,4.71,3.07,8.75,7.32,10.19c1.08,0.38,2.24,0.58,3.45,0.58h-15c-1.21,0-2.37-0.2-3.45-0.58c-4.25-1.44-7.32-5.48-7.32-10.19
			v-22.15c0-18.15,8.17-34.49,21.01-45.52c10.51-9.04,24.16-14.52,39.03-14.52C182.694,110.981,185.204,111.141,187.664,111.452z"/>
		<path class="st21" d="M240.194,171.021v22.15c0,5.92-4.84,10.77-10.77,10.77h-15c5.93,0,10.77-4.85,10.77-10.77v-22.15
			c0-16.51-6.75-31.52-17.63-42.4c-1.01-1.01-2.06-1.99-3.15-2.93c-8.76-7.6-19.71-12.72-31.75-14.24c2.45-0.31,4.95-0.47,7.49-0.47
			c14.98,0,28.71,5.56,39.26,14.71c1.09,0.94,2.14,1.92,3.15,2.93C233.444,139.501,240.194,154.511,240.194,171.021z"/>
		<path class="st20" d="M214.385,251.442c-5.82,0.03-15.76-0.01-16.03-0.05c-7.52-0.68-9.31-8.68-8.98-9.97
			c-0.45-5.11,2.32-10.55,8.12-12.21l0.09-25.27h4.964c5.537,0,10.02,4.499,10,10.036l-0.054,15.234
			C200.645,232.422,202.055,251.442,214.385,251.442z"/>
		<path class="st20" d="M155.975,229.211l0.054-15.234c0.02-5.537-4.463-10.036-10-10.036h-4.964l-0.09,25.27
			c-11.65,3.33-10.33,21.21,0.88,22.18c0.26,0.04,10.21,0.08,16.02,0.05C145.565,251.442,144.135,232.432,155.975,229.211z"/>
		<path class="st21" d="M223.769,52.852L223.769,52.852c-1.618-1.317-4.04-0.166-4.04,1.921l0,0c0,5.861-4.751,10.612-10.612,10.612
			h-7.951c-18.329,0-33.188,14.859-33.188,33.188c0-0.391,0,29.371,0,30.41c0,6.727,5.454,12.176,12.176,12.176
			c6.725,0,12.176-5.451,12.176-12.176v-19.32c0-8.706,3.776-15.114,6.336-16.843c5.71-3.854,11.441-5.13,17.764-5.13
			c7.909,0,15.179-4.952,17.503-12.512C236.289,67.512,232.912,60.295,223.769,52.852z"/>
	</g>
	<g>
		
			<ellipse transform="matrix(0.3827 -0.9239 0.9239 0.3827 7.0939 92.8248)" class="st8" cx="73.008" cy="41.104" rx="6.392" ry="6.392"/>
		<path class="st8" d="M93.154,38.669c0.198,0.029,0.395,0.043,0.589,0.043c1.951,0,3.659-1.429,3.952-3.417
			c0.323-2.186-1.188-4.219-3.373-4.541C80.678,28.742,76.517,20.04,76.315,19.598c-0.885-2.008-3.224-2.93-5.243-2.06
			c-2.029,0.874-2.965,3.227-2.09,5.256C69.212,23.332,74.854,35.969,93.154,38.669z"/>
		<path class="st8" d="M224.946,125.208c-8.008-7.999-17.839-13.685-28.588-16.588c0.282-6.873,3.264-11.62,4.546-12.485
			c4.555-3.075,9.343-4.446,15.526-4.446c9.78,0,18.551-6.307,21.326-15.337c2.857-9.295-0.892-17.998-11.462-26.603
			c-1.956-1.594-4.59-1.911-6.869-0.827c-2.28,1.083-3.696,3.325-3.696,5.849c0,3.646-2.966,6.613-6.612,6.613h-7.951
			c-20.504,0-37.186,16.68-37.188,37.184v9.806c-9.583,2.436-18.229,7.004-25.474,13.124h-18.657v-17.81
			c0-1.999-0.715-3.833-1.902-5.262c0.971-0.892,1.849-1.879,2.617-2.954c0.337,1.14,0.522,1.914,1.433,3.208
			c5.385,7.665,17.317,5.659,19.894-3.143l10.703-36.119c1.812-6.111,0.216-12.783-4.163-17.414
			c-0.307-0.325-34.848-36.883-35.199-37.161c-2.881-2.283-6.6-2.833-9.924-1.592c-3.656-1.397-7.505-2.109-11.47-2.109h-9.2
			c-17.783,0-32.25,14.472-32.25,32.26v6.1c0,1.092-0.888,1.98-1.98,1.98h-5.18c-3.551,0-7.027,0.596-10.362,1.774l-0.053-0.017
			c-10.829,4.451-17.197,12.141-19.6,21.497l-0.777,3.023l0.165,0.089C9.78,86.821,24.45,103.441,43.225,103.441h12.638
			c-0.002,0.083-0.013,0.163-0.013,0.247v17.81h-0.002v27.99c0,17.223,7.571,32.702,19.55,43.313v30.547h-7.68
			c-7.433,0-14.77,5.559-14.77,15.86c0,8.144,6.626,14.77,14.77,14.77c22.718,0,26.413,1.199,31.936-3.375
			c3.416-2.818,5.375-6.971,5.375-11.396v-32.503c2.835,0.429,5.737,0.654,8.69,0.654h16.72h6.166l-0.067,18.555
			c-13.203,6.826-9.737,28.945,5.891,28.945c0,0,18.026,0,18.05,0c15.683,0,19.179-22.331,5.7-29.046l0.066-18.454h26.88
			l-0.066,18.553c-13.3,6.865-9.662,28.947,5.88,28.947c0,0,18.028,0,18.05,0c15.655,0,19.221-22.319,5.701-29.046l0.073-18.454
			h6.216c8.145,0,14.771-6.626,14.771-14.77v-22.15C243.749,153.396,237.073,137.334,224.946,125.208z M171.978,98.572
			c0-16.094,13.094-29.188,29.188-29.188h7.951c7.013,0,12.888-4.965,14.293-11.565c8.114,7.429,7.757,12.745,6.7,16.183
			c-1.754,5.704-7.379,9.688-13.68,9.688c-7.77,0-14.126,1.848-20.003,5.815c-9.852,6.653-8.098,25.934-8.098,39.479
			c0,4.508-3.668,8.176-8.176,8.176s-8.176-3.667-8.176-8.176C171.978,111.831,171.978,115.458,171.978,98.572z M108.079,10.981
			l34.536,36.521c2.426,2.564,3.309,6.259,2.306,9.644l-10.706,36.127c-0.775,2.648-4.652,2.858-5.776,0.628l-23.846-80.654
			C104.268,11.28,106.484,9.915,108.079,10.981z M58.386,33.401c0-13.377,10.878-24.26,24.25-24.26h9.2
			c1.777,0,3.521,0.191,5.222,0.565c-0.54,1.667-0.654,3.486-0.269,5.312c0.022,0.104,0.048,0.208,0.078,0.31l19.229,65.038v4.125
			c0,6.008-4.866,10.898-10.863,10.945H69.63c12.177-24.334-5.144-45.445-11.914-52.373C58.573,40.834,58.386,39.782,58.386,33.401z
			 M111.846,103.688v17.809H63.851v-17.809c0-0.134,0.108-0.24,0.24-0.247c41.325,0,46.476-0.004,47.503-0.004
			C111.733,103.437,111.846,103.55,111.846,103.688z M32.735,52.016c0.549,0.736,0.384,1.474,0.384,3.187
			c0,4.387-3.569,7.957-7.957,7.957c-0.452,0-2.533,0.01-2.946-0.017C24.265,58.533,27.927,54.49,32.735,52.016z M43.225,95.441
			c-9.872,0-18.142-6.159-21.438-14.734c11.275,10.07,29.169,2.02,29.169-13.055c0-2.209-1.791-4-4-4s-4,1.791-4,4
			c0,10.435-14.494,13.237-18.367,3.507c10.142,0,16.529-7.731,16.529-15.957c0-2.171,0.113-3.523-0.646-5.539
			c1.913-0.228,2.185-0.182,7.933-0.182c1.317,0,2.571-0.262,3.723-0.728c2.466,2.495,6.641,7.235,9.763,13.477
			c5.759,11.517,5.255,22.68-1.466,33.211H43.225z M97.029,239.208c0,2.028-0.898,3.932-2.471,5.229
			c-2.712,2.246-3.288,1.516-26.839,1.541c-9.038,0-9.058-14.63,0-14.63h11.68c2.209,0,4-1.791,4-4v-28.595
			c4.217,2.605,8.791,4.681,13.63,6.141V239.208z M113.719,199.358c-27.499,0-49.87-22.372-49.87-49.87v-19.99h66.703
			c-9.337,11.207-14.883,25.559-14.883,40.94v22.15c0,2.441,0.605,4.74,1.658,6.77H113.719z M235.749,192.588
			c0,3.733-3.037,6.77-6.771,6.77h-10.185h-0.016c-2.054,0-3.991,1.665-4,3.984l-0.1,25.21c-0.007,1.837,1.237,3.442,3.019,3.894
			c7.681,1.944,6.867,14.412-0.709,14.412c0,0-17.564,0-18.05,0c-7.594,0-8.296-12.346-0.843-14.37
			c1.738-0.471,2.946-2.045,2.953-3.846l0.09-25.27c0-0.002-0.001-0.005-0.001-0.007c0-0.002,0.001-0.005,0.001-0.007
			c0-2.114-1.716-3.992-3.985-4c-0.005,0-0.01,0-0.015,0h-34.865h-0.015c-2.226,0-3.992,1.861-4,3.986l-0.09,25.21
			c-0.007,1.836,1.238,3.441,3.019,3.892c7.654,1.939,6.864,14.413-0.709,14.413c-9.554,0-13.686,0-18.05,0
			c-7.585,0-8.303-12.345-0.851-14.37c1.736-0.472,2.943-2.046,2.95-3.846l0.091-25.27c0-0.002-0.001-0.005-0.001-0.007
			c0-0.002,0.001-0.005,0.001-0.007c0-2.059-1.699-3.992-3.985-4c-0.005,0-0.01,0-0.015,0h-10.181c-3.733,0-6.77-3.037-6.77-6.77
			v-22.15c0-24.966,16.682-46.847,40.309-53.779v12.324c0,8.919,7.257,16.176,16.176,16.176s16.176-7.256,16.176-16.176v-12.041
			c8.598,2.684,16.462,7.434,22.962,13.925c10.613,10.613,16.458,24.667,16.458,39.571V192.588z"/>
		<path class="st8" d="M209.087,138.066c-1.604-1.518-4.137-1.45-5.654,0.155c-1.52,1.604-1.45,4.136,0.154,5.655
			c9.714,9.197,7.701,14.834,12.581,14.834c2.887,0,4.842-2.993,3.644-5.647C217.276,147.448,213.667,142.403,209.087,138.066z"/>
		<path class="st8" d="M215.773,169.43c0.047,0.762,0.07,1.535,0.07,2.298c0,2.209,1.791,4,4,4s4-1.791,4-4
			c0-0.926-0.029-1.864-0.086-2.789c-0.135-2.206-2.064-3.883-4.237-3.747C217.315,165.328,215.637,167.225,215.773,169.43z"/>
		<ellipse class="st8" cx="180.154" cy="160.103" rx="8.489" ry="6.875"/>
	</g>
</g>
</svg>
