<?xml version="1.0" encoding="utf-8"?>
<!-- Generator: Adobe Illustrator 22.1.0, SVG Export Plug-In . SVG Version: 6.00 Build 0)  -->
<svg version="1.1" id="Icon_Set" xmlns="http://www.w3.org/2000/svg" xmlns:xlink="http://www.w3.org/1999/xlink" x="0px" y="0px"
	 viewBox="0 0 256 256" style="enable-background:new 0 0 256 256;" xml:space="preserve">
<style type="text/css">
	.st0{fill:#5FCDFF;}
	.st1{fill:#87828E;}
	.st2{fill:#B76C6C;}
	.st3{fill:#FF4A73;}
	.st4{fill:#73D7F9;}
	.st5{fill:#30B6FF;}
	.st6{fill:#A4A4A5;}
	.st7{fill:#F973A3;}
	.st8{fill:#5F266D;}
	.st9{fill:#FFE2E2;}
	.st10{fill:#FFEFEE;}
	.st11{fill:#796E84;}
	.st12{fill:#3193F3;}
	.st13{fill:#35B1FC;}
	.st14{fill:#307FED;}
	.st15{fill:#FFCFCF;}
	.st16{fill:#EA2A6A;}
	.st17{fill:#44C7B6;}
	.st18{fill:#3BB2A0;}
	.st19{fill:#4BDBC3;}
	.st20{fill:#C98585;}
	.st21{fill:#965959;}
	.st22{fill:#FFBB98;}
	.st23{fill:#FFCAA6;}
	.st24{fill:#FFAA80;}
	.st25{fill:#F9D335;}
	.st26{fill:#F2C300;}
	.st27{fill:#F9E27D;}
</style>
<g>
	<path class="st2" d="M246.437,143.641H9.563c-2.761,0-5-2.239-5-5v-10.134c0-2.761,2.239-5,5-5h236.875c2.761,0,5,2.239,5,5v10.134
		C251.437,141.403,249.199,143.641,246.437,143.641z"/>
	<path class="st20" d="M24.56,143.64h-15c-2.76,0-5-2.24-5-5v-10.13c0-2.76,2.24-5,5-5h15c-2.76,0-5,2.24-5,5v10.13
		C19.56,141.4,21.8,143.64,24.56,143.64z"/>
	<path class="st21" d="M251.44,128.51v10.13c0,2.76-2.24,5-5,5h-15c2.76,0,5-2.24,5-5v-10.13c0-2.76-2.24-5-5-5h15
		C249.2,123.51,251.44,125.75,251.44,128.51z"/>
	<path class="st8" d="M246.438,119.507H32.148V20.162h39.938v32.745l-9.163,28.651c-1.359,4.25-0.63,8.754,2.001,12.358
		c9.243,12.661,29.034,2.365,24.324-12.358l-9.162-28.651V20.162h24.787c2.209,0,4-1.791,4-4s-1.791-4-4-4H32.148v-8.13
		c0-2.209-1.791-4-4-4s-4,1.791-4,4v115.475H9.562c-4.963,0-9,4.038-9,9v10.134c0,4.962,4.037,9,9,9h9.188v104.327
		c0,2.209,1.791,4,4,4s4-1.791,4-4v-45.87h202.5v45.87c0,2.209,1.791,4,4,4s4-1.791,4-4V147.641h9.188c4.963,0,9-4.038,9-9v-10.134
		C255.438,123.544,251.4,119.507,246.438,119.507z M71.385,89.198c-1.107-1.518-1.415-3.414-0.843-5.204l5.544-17.333l5.543,17.333
		C83.639,90.282,75.225,94.456,71.385,89.198z M50.274,147.641L26.75,170.007v-22.366H50.274z M26.75,198.099v-17.053l34.691-32.984
		c0.137-0.13,0.247-0.277,0.362-0.42h132.394c0.115,0.144,0.225,0.29,0.362,0.42l34.691,32.984v17.053H26.75z M229.25,170.007
		l-23.524-22.366h23.524V170.007z M247.438,138.641c0,0.551-0.448,1-1,1H9.562c-0.552,0-1-0.449-1-1v-10.134c0-0.551,0.448-1,1-1
		h236.875c0.552,0,1,0.449,1,1V138.641z"/>
</g>
</svg>
