<?xml version="1.0" encoding="utf-8"?>
<!-- Generator: Adobe Illustrator 22.1.0, SVG Export Plug-In . SVG Version: 6.00 Build 0)  -->
<svg version="1.1" id="Icon_Set" xmlns="http://www.w3.org/2000/svg" xmlns:xlink="http://www.w3.org/1999/xlink" x="0px" y="0px"
	 viewBox="0 0 256 256" style="enable-background:new 0 0 256 256;" xml:space="preserve">
<style type="text/css">
	.st0{fill:#5FCDFF;}
	.st1{fill:#87828E;}
	.st2{fill:#B76C6C;}
	.st3{fill:#FF4A73;}
	.st4{fill:#73D7F9;}
	.st5{fill:#30B6FF;}
	.st6{fill:#A4A4A5;}
	.st7{fill:#F973A3;}
	.st8{fill:#5F266D;}
	.st9{fill:#FFE2E2;}
	.st10{fill:#FFEFEE;}
	.st11{fill:#796E84;}
	.st12{fill:#3193F3;}
	.st13{fill:#35B1FC;}
	.st14{fill:#307FED;}
	.st15{fill:#FFCFCF;}
	.st16{fill:#EA2A6A;}
	.st17{fill:#44C7B6;}
	.st18{fill:#3BB2A0;}
	.st19{fill:#4BDBC3;}
	.st20{fill:#C98585;}
	.st21{fill:#965959;}
	.st22{fill:#FFBB98;}
	.st23{fill:#FFCAA6;}
	.st24{fill:#FFAA80;}
	.st25{fill:#F9D335;}
	.st26{fill:#F2C300;}
	.st27{fill:#F9E27D;}
</style>
<g>
	<g id="XMLID_137_">
		<g id="XMLID_150_">
			<path id="XMLID_166_" class="st2" d="M165.125,121.98v91.21H55.205c0-0.609-0.006-91.733,0.01-92.34
				c0.33-12.71,6.07-24.06,15-31.84c7.69-6.7,17.72-10.75,28.71-10.75h22.48c11,0,21.03,4.05,28.72,10.76
				C159.315,97.03,165.125,108.82,165.125,121.98z"/>
			<path id="XMLID_165_" class="st21" d="M165.125,121.98v91.21h-15V89.02C159.315,97.03,165.125,108.82,165.125,121.98z"/>
			<path id="XMLID_164_" class="st2" d="M215.98,122.967c-16.554,55.862-15.688,53.152-16.087,53.953
				c-2.921,5.87-11.142,6.487-14.908,1.126c-0.504-0.718,2.359,5.343-44.087-95.146l69.648,28.468
				C215.394,112.911,217.897,118.256,215.98,122.967z"/>
			<path id="XMLID_163_" class="st3" d="M146.456,251.333H73.907c-2.761,0-5-2.239-5-5v-5.356c0-2.761,2.239-5,5-5h72.549
				c2.761,0,5,2.239,5,5v5.356C151.456,249.095,149.217,251.333,146.456,251.333z"/>
			<path id="XMLID_162_" class="st7" d="M88.912,251.33h-15c-2.77,0-5-2.24-5-5v-5.35c0-2.76,2.23-5,5-5h15c-2.77,0-5,2.24-5,5v5.35
				C83.912,249.09,86.141,251.33,88.912,251.33z"/>
			<path id="XMLID_160_" class="st16" d="M151.451,240.98v5.35c0,2.76-2.23,5-5,5h-15c2.77,0,5-2.24,5-5v-5.35c0-2.76-2.23-5-5-5h15
				C149.222,235.98,151.451,238.22,151.451,240.98z"/>
			<path id="XMLID_159_" class="st20" d="M70.215,89.01v124.18h-15v-92.34C55.545,108.14,61.285,96.79,70.215,89.01z"/>
			<path id="XMLID_157_" class="st22" d="M148.645,235.977h-76.96c-13.982,0-25.316-11.334-25.316-25.316
				c0-38.031,29.81-64.935,63.796-64.935h0c35.233,0,63.796,28.562,63.796,63.796C173.961,225.79,161.844,235.977,148.645,235.977z"
				/>
			<path id="XMLID_156_" class="st24" d="M173.973,209.518c0,16.267-12.117,26.46-25.32,26.46h-15c13.98,0,25.32-11.34,25.32-25.32
				c0-18.818-6.906-34.466-18.69-46.25c-9.88-9.88-22.99-16.53-37.61-18.24c2.46-0.29,4.96-0.44,7.5-0.44
				c17.62,0,33.57,7.14,45.11,18.68C166.833,175.958,173.973,191.898,173.973,209.518z"/>
			<path id="XMLID_155_" class="st23" d="M86.71,235.98h-15c-13.98,0-25.31-11.34-25.31-25.32c0-38.027,29.806-64.93,63.79-64.93
				c2.54,0,5.04,0.15,7.5,0.44c-30.397,3.558-56.29,28.95-56.29,64.49C61.4,224.64,72.73,235.98,86.71,235.98z"/>
			<path id="XMLID_153_" class="st2" d="M113.507,199.943c-16.442,0-24.038-8.966-24.038-20c0-9.736,4.189-13.379,10-13.379h24.038
				c11.913,0,10,14.673,10,13.379C133.507,190.989,124.553,199.943,113.507,199.943z"/>
			<path id="XMLID_152_" class="st20" d="M118.992,199.17c-1.74,0.5-3.58,0.77-5.48,0.77c-16.449,0-24.04-8.962-24.04-20
				c0-9.726,4.175-13.38,10-13.38h15c-5.747,0-10,3.573-10,13.38C104.472,189.09,110.612,196.8,118.992,199.17z"/>
			<path id="XMLID_151_" class="st2" d="M4.989,122.827c16.554,55.862,15.688,53.152,16.087,53.953
				c2.921,5.87,11.141,6.487,14.908,1.126c0.504-0.718-2.359,5.344,44.087-95.147l-69.648,28.468
				C5.576,112.771,3.072,118.116,4.989,122.827z"/>
		</g>
		<path id="XMLID_148_" class="st3" d="M179.485,39.002H45.506V21c0-8.284,6.716-15,15-15h103.979c8.284,0,15,6.716,15,15V39.002z"
			/>
		<path id="XMLID_147_" class="st7" d="M75.505,6c-8.28,0-15,6.72-15,15v18h-15V21c0-8.28,6.72-15,15-15H75.505z"/>
		<path id="XMLID_143_" class="st16" d="M179.485,21v18h-15V21c0-8.28-6.72-15-15-15h15C172.765,6,179.485,12.72,179.485,21z"/>
	</g>
	<path class="st25" d="M241.261,229h-38.929c-5.523,0-10-4.477-10-10v-93.383c0-1.25,0.468-2.455,1.313-3.377l24.464-26.714
		c1.982-2.164,5.393-2.164,7.375,0l24.464,26.714c0.844,0.922,1.313,2.127,1.313,3.377V219C251.261,224.523,246.784,229,241.261,229
		z"/>
	<path class="st26" d="M251.259,125.62V219c0,5.52-4.48,10-10,10h-15c5.52,0,10-4.48,10-10v-93.38c0-1.25-0.47-2.46-1.31-3.38
		l-20.65-22.55l3.81-4.16c1.98-2.17,5.39-2.17,7.38,0l24.46,26.71C250.789,123.16,251.259,124.37,251.259,125.62z"/>
	<path class="st27" d="M217.329,229h-15c-5.52,0-10-4.48-10-10v-93.38c0-1.25,0.47-2.46,1.32-3.38l24.46-26.71
		c1.98-2.17,5.39-2.17,7.38,0l3.81,4.16l-20.65,22.55c-0.85,0.92-1.32,2.13-1.32,3.38V219C207.329,224.52,211.809,229,217.329,229z"
		/>
	<g>
		<path class="st8" d="M77.803,116.835c0.823-0.773,8.329-7.337,18.146,0.269c1.751,1.355,4.262,1.031,5.612-0.712
			c1.353-1.746,1.034-4.259-0.712-5.612c-12.445-9.642-24.146-4.025-28.595,0.291C68.506,114.709,73.961,120.442,77.803,116.835z"/>
		<circle class="st8" cx="86.189" cy="127.872" r="7.125"/>
		<path class="st8" d="M125.429,116.813c0.32-0.312,7.997-7.555,18.125,0.291c1.751,1.355,4.262,1.031,5.612-0.712
			c1.353-1.747,1.034-4.259-0.712-5.612c-12.444-9.642-24.147-4.025-28.596,0.291c-1.586,1.538-1.624,4.07-0.086,5.656
			C121.311,118.313,123.843,118.351,125.429,116.813z"/>
		<circle class="st8" cx="133.793" cy="127.872" r="7.125"/>
		<path class="st8" d="M145.231,196.096c-2.209,0-4,1.791-4,4c0,7.295-5.936,13.231-13.23,13.231
			c-6.211,0-11.421-4.307-12.838-10.087c12.632-0.677,22.702-11.166,22.702-23.964v-3.379c0-7.72-6.28-14-14-14H99.825
			c-7.72,0-14,6.28-14,14v3.379c0,11.947,8.775,21.88,20.218,23.699c-1.319,5.914-6.6,10.352-12.906,10.352
			c-7.296,0-13.231-5.936-13.231-13.231c0-2.209-1.791-4-4-4s-4,1.791-4,4c0,20.674,26.791,29.156,38.663,12.088
			c3.838,5.518,10.216,9.143,17.432,9.143C147.663,221.327,154.481,196.096,145.231,196.096z M109.825,195.276
			c-8.822,0-16-7.178-16-16v-3.379c0-3.309,2.691-6,6-6h24.039c3.309,0,6,2.691,6,6v3.379c0,8.822-7.178,16-16,16H109.825z"/>
		<path class="st8" d="M140.509,18.333h-20c-2.209,0-4,1.791-4,4s1.791,4,4,4h20c2.209,0,4-1.791,4-4S142.718,18.333,140.509,18.333
			z"/>
		<path class="st8" d="M159.509,18.333h-4c-2.209,0-4,1.791-4,4s1.791,4,4,4h4c2.209,0,4-1.791,4-4S161.718,18.333,159.509,18.333z"
			/>
		<path class="st8" d="M252.936,118.872l-24.465-26.714c-0.716-0.781-1.563-1.412-2.487-1.893v-41.93c0-7.72-6.28-14-14-14h-28.475
			V20.333c0-10.477-8.523-19-19-19H60.53c-10.477,0-19,8.523-19,19V38.13c-0.004,0.069-0.021,0.134-0.021,0.203v30
			c0,2.209,1.791,4,4,4s4-1.791,4-4V42.335h15v25.998c0,2.209,1.791,4,4,4s4-1.791,4-4V42.335h14v25.998c0,2.209,1.791,4,4,4
			s4-1.791,4-4V42.335h14v25.998c0,2.209,1.791,4,4,4s4-1.791,4-4V42.335h14v25.998c0,2.209,1.791,4,4,4s4-1.791,4-4V42.335h14
			v25.998c0,2.209,1.791,4,4,4s4-1.791,4-4V42.335h15v25.998c0,2.209,1.791,4,4,4s4-1.791,4-4V42.335h28.475c3.309,0,6,2.691,6,6
			v41.779c-1.042,0.494-1.994,1.178-2.787,2.043l-10.648,11.627l-61.016-24.943c-6.676-3.427-14.198-5.243-21.764-5.243H99.28
			c-7.915,0-15.74,1.985-22.661,5.729L9.4,106.804c-6.892,2.3-10.455,9.902-7.837,16.664l15.55,52.477
			c3.248,11.001,18.689,12.223,23.549,1.722l10.908-23.601v21.374c-6.382,11.214-8.844,22.486-8.844,34.556
			c0,13.894,9.719,25.553,22.714,28.557c-0.113,0.569-0.175,1.157-0.175,1.759v5.356c0,4.962,4.037,9,9,9h72.548
			c4.963,0,9-4.038,9-9v-5.356c0-0.605-0.062-1.195-0.176-1.766c12.334-2.866,22.681-13.637,22.681-29.688
			c0-12.142-3.224-23.538-8.838-33.406v-22.625l11.536,24.957c0.277,0.609,0.6,1.265,1.051,1.892c1.579,2.263,3.78,3.87,6.303,4.71
			v33.951c0,7.72,6.28,14,14,14h38.929c7.72,0,14-6.28,14-14v-93.383C255.298,122.694,254.459,120.535,252.936,118.872z
			 M175.509,34.335h-18.981c-0.007,0-0.013-0.002-0.019-0.002s-0.013,0.002-0.019,0.002h-21.961c-0.007,0-0.013-0.002-0.019-0.002
			s-0.013,0.002-0.019,0.002h-21.961c-0.007,0-0.013-0.002-0.019-0.002s-0.013,0.002-0.019,0.002H90.528
			c-0.007,0-0.013-0.002-0.019-0.002s-0.013,0.002-0.019,0.002H68.528c-0.007,0-0.013-0.002-0.019-0.002s-0.013,0.002-0.019,0.002
			H49.53V20.333c0-6.065,4.935-11,11-11h103.979c6.065,0,11,4.935,11,11V34.335z M83.556,84.859
			C88.495,82.731,93.858,81.6,99.28,81.6h22.489c5.761,0,11.277,1.2,16.429,3.551l23.282,50.366v28.696
			c-12.435-14.177-30.663-23.153-50.958-23.153c-20.292,0-38.517,8.973-50.952,23.146v-27.45L83.556,84.859z M33.4,174.309
			c-1.73,3.749-7.431,3.365-8.617-0.637c-0.083-0.281-15.619-52.749-15.73-53.02c-1.042-2.561,0.32-5.446,2.941-6.28
			c0.24-0.077,60.305-24.635,60.539-24.731L33.4,174.309z M147.813,245.667c0,0.551-0.448,1-1,1H74.265c-0.552,0-1-0.449-1-1v-5.356
			c0-0.551,0.448-1,1-1h72.548c0.552,0,1,0.449,1,1V245.667z M170.318,208.855c0,14.143-10.448,22.455-21.315,22.455
			c-3.703,0-73.18,0-76.96,0c-11.754,0-21.316-9.562-21.316-21.315c0-35.894,28.188-60.935,59.796-60.935
			C143.493,149.06,170.318,175.884,170.318,208.855z M190.734,118.872c-1.524,1.664-2.364,3.823-2.364,6.079v49.672
			c-0.032-0.069-0.062-0.133-0.082-0.177l-39.135-84.663l49.637,20.292L190.734,118.872z M247.298,218.333c0,3.309-2.691,6-6,6
			h-38.929c-3.309,0-6-2.691-6-6v-93.383c0-0.25,0.094-0.49,0.264-0.675l24.463-26.713c0.398-0.435,1.079-0.435,1.476,0
			l24.465,26.714c0.169,0.184,0.262,0.424,0.262,0.675V218.333z"/>
		<path class="st8" d="M215.316,146.803h17.383c1.765,0,3.201,1.436,3.201,3.201c0,2.209,1.791,4,4,4s4-1.791,4-4
			c0-6.176-5.024-11.201-11.201-11.201h-6.864v-8.292c0-2.209-1.791-4-4-4s-4,1.791-4,4v8.292h-2.519
			c-8.572,0-15.547,6.974-15.547,15.547s6.975,15.547,15.547,15.547h13.037c4.161,0,7.547,3.386,7.547,7.547
			c0,4.162-3.386,7.547-7.547,7.547H210.97c-1.765,0-3.201-1.436-3.201-3.202c0-2.209-1.791-4-4-4s-4,1.791-4,4
			c0,6.177,5.024,11.202,11.201,11.202h6.864v8.292c0,2.209,1.791,4,4,4s4-1.791,4-4v-8.292h2.519
			c8.572,0,15.547-6.975,15.547-15.547s-6.975-15.547-15.547-15.547h-13.037c-4.161,0-7.547-3.386-7.547-7.547
			C207.769,150.188,211.155,146.803,215.316,146.803z"/>
	</g>
</g>
</svg>
