<?xml version="1.0" encoding="utf-8"?>
<!-- Generator: Adobe Illustrator 22.1.0, SVG Export Plug-In . SVG Version: 6.00 Build 0)  -->
<svg version="1.1" id="Icon_Set" xmlns="http://www.w3.org/2000/svg" xmlns:xlink="http://www.w3.org/1999/xlink" x="0px" y="0px"
	 viewBox="0 0 256 256" style="enable-background:new 0 0 256 256;" xml:space="preserve">
<style type="text/css">
	.st0{fill:#5FCDFF;}
	.st1{fill:#87828E;}
	.st2{fill:#B76C6C;}
	.st3{fill:#FF4A73;}
	.st4{fill:#73D7F9;}
	.st5{fill:#30B6FF;}
	.st6{fill:#A4A4A5;}
	.st7{fill:#F973A3;}
	.st8{fill:#5F266D;}
	.st9{fill:#FFE2E2;}
	.st10{fill:#FFEFEE;}
	.st11{fill:#796E84;}
	.st12{fill:#3193F3;}
	.st13{fill:#35B1FC;}
	.st14{fill:#307FED;}
	.st15{fill:#FFCFCF;}
	.st16{fill:#EA2A6A;}
	.st17{fill:#44C7B6;}
	.st18{fill:#3BB2A0;}
	.st19{fill:#4BDBC3;}
	.st20{fill:#C98585;}
	.st21{fill:#965959;}
	.st22{fill:#FFBB98;}
	.st23{fill:#FFCAA6;}
	.st24{fill:#FFAA80;}
	.st25{fill:#F9D335;}
	.st26{fill:#F2C300;}
	.st27{fill:#F9E27D;}
</style>
<g>
	<path class="st11" d="M44.356,239.906l3.58,2.44l4.28,2.93l1.12,0.77c11.4,7.79,26.96,4.87,34.75-6.53l36.48-53.36l8.02-11.73
		l4.76-6.96l47.69-69.76l15.71-22.97c5.97-8.74,8.87-19.4,8.87-30.13c0-14.43-5.25-28.96-15.31-39.02l-6.59,9.64l-75,109.69
		c-1.95,2.86-1.22,6.76,1.64,8.71l4.49,3.07c2.86,1.96,3.59,5.86,1.64,8.71l-4.76,6.97l-7.56,11.05c-1.84,2.7-4.82,4.14-7.85,4.14
		c-1.85,0-3.72-0.53-5.36-1.66c-20.44-13.97-48.33-8.73-62.3,11.71C18.686,198.046,23.926,225.936,44.356,239.906z M85.156,197.156
		l-15.23,22.29c-1.56,2.28-4.67,2.86-6.95,1.3l-3.76-2.57c-8.33-5.69-10.54-17.05-5.01-25.45c5.7-8.63,17.75-10.65,26.29-4.81
		l3.36,2.29C86.136,191.766,86.716,194.876,85.156,197.156z"/>
	<path class="st1" d="M44.356,239.906l3.58,2.44c8.5,0.55,17.06-3.28,22.22-10.83l36.48-53.36l8.02-11.73l4.76-6.96l47.69-69.76
		l15.71-22.97c5.97-8.74,8.87-19.4,8.87-30.13c0-7.3-1.34-14.62-3.97-21.38l-75,109.69c-1.95,2.86-1.22,6.76,1.64,8.71l4.49,3.07
		c2.86,1.96,3.59,5.86,1.64,8.71l-4.76,6.97l-7.56,11.05c-1.84,2.7-4.82,4.14-7.85,4.14c-1.85,0-3.72-0.53-5.36-1.66
		c-20.44-13.97-48.33-8.73-62.3,11.71C18.686,198.046,23.926,225.936,44.356,239.906z M54.206,192.726
		c5.7-8.63,17.75-10.65,26.29-4.81l3.36,2.29c2.28,1.56,2.86,4.67,1.3,6.95l-15.23,22.29c-1.56,2.28-4.67,2.86-6.95,1.3l-3.76-2.57
		C50.886,212.486,48.676,201.126,54.206,192.726z"/>
	<path class="st3" d="M44.356,239.906l7.86,5.37l1.12,0.77c11.4,7.79,26.96,4.87,34.75-6.53l36.48-53.36l8.02-11.73l4.76-6.96
		l-0.02-0.06l-21.6-15.03l-7.56,11.05c-1.84,2.7-4.82,4.14-7.85,4.14c-1.85,0-3.72-0.53-5.36-1.66
		c-20.44-13.97-48.33-8.73-62.3,11.71C18.686,198.046,23.926,225.936,44.356,239.906z M54.206,192.726
		c5.7-8.63,17.75-10.65,26.29-4.81l3.36,2.29c2.28,1.56,2.86,4.67,1.3,6.95l-15.23,22.29c-1.56,2.28-4.67,2.86-6.95,1.3l-3.76-2.57
		C50.886,212.486,48.676,201.126,54.206,192.726z"/>
	<path class="st16" d="M70.156,231.516c53.191-77.804,48.261-70.595,51.36-75.11l15.81,11l0.02,0.06
		c-9.205,13.459-12.739,18.629-49.26,72.05c-7.79,11.4-23.35,14.32-34.75,6.53c-1.443-0.992-0.374-0.259-5.4-3.7
		C56.436,242.896,64.996,239.066,70.156,231.516z"/>
	<path class="st7" d="M45.366,240.596c-8.2-16.31-4.49-39.73,6.27-55.47c10-14.64,27.14-21.48,43.58-19.05
		c-22.23-14.825-49.287-7.88-62.56,11.54C19.371,197.044,22.566,225.02,45.366,240.596z"/>
	<path class="st6" d="M223.342,177.616c-13.97-20.44-41.86-25.68-62.3-11.71c-1.64,1.13-3.51,1.66-5.36,1.66
		c-3.03,0-6.01-1.44-7.85-4.14l-7.56-11.05l-4.76-6.97c-1.95-2.85-1.22-6.75,1.64-8.71l4.49-3.07c2.86-1.95,3.59-5.85,1.64-8.71
		l-75-109.69l-6.59-9.64c-10.06,10.06-15.31,24.59-15.31,39.02c0,10.73,2.9,21.39,8.87,30.13l15.71,22.97l47.69,69.76l4.76,6.96
		l8.02,11.73l36.48,53.36c7.79,11.4,23.35,14.32,34.75,6.53l1.12-0.77l4.28-2.93l3.58-2.44
		C232.072,225.936,237.312,198.046,223.342,177.616z M172.142,190.206l3.36-2.29c8.54-5.84,20.59-3.82,26.29,4.81
		c5.53,8.4,3.32,19.76-5.01,25.45l-3.76,2.57c-2.28,1.56-5.39,0.98-6.95-1.3l-15.23-22.29
		C169.282,194.876,169.862,191.766,172.142,190.206z"/>
	<path class="st1" d="M223.342,177.616c-13.97-20.44-41.86-25.68-62.3-11.71c-1.64,1.13-3.51,1.66-5.36,1.66
		c-3.03,0-6.01-1.44-7.85-4.14l-7.56-11.05l-4.76-6.97c-1.95-2.85-1.22-6.75,1.64-8.71l4.49-3.07c2.86-1.95,3.59-5.85,1.64-8.71
		l-75-109.69c-2.63,6.76-3.97,14.08-3.97,21.38c0,10.73,2.9,21.39,8.87,30.13l15.71,22.97l47.69,69.76l4.76,6.96l8.02,11.73
		l36.48,53.36c5.16,7.55,13.72,11.38,22.22,10.83l3.58-2.44C232.072,225.936,237.312,198.046,223.342,177.616z M196.782,218.176
		l-3.76,2.57c-2.28,1.56-5.39,0.98-6.95-1.3l-15.23-22.29c-1.56-2.28-0.98-5.39,1.3-6.95l3.36-2.29c8.54-5.84,20.59-3.82,26.29,4.81
		C207.322,201.126,205.112,212.486,196.782,218.176z"/>
	<path class="st3" d="M223.342,177.616c-13.97-20.44-41.86-25.68-62.3-11.71c-1.64,1.13-3.51,1.66-5.36,1.66
		c-3.03,0-6.01-1.44-7.85-4.14l-7.56-11.05l-21.6,15.03l-0.02,0.06l4.76,6.96l8.02,11.73l36.48,53.36
		c7.79,11.4,23.35,14.32,34.75,6.53l1.12-0.77l7.86-5.37C232.072,225.936,237.312,198.046,223.342,177.616z M196.782,218.176
		l-3.76,2.57c-2.28,1.56-5.39,0.98-6.95-1.3l-15.23-22.29c-1.56-2.28-0.98-5.39,1.3-6.95l3.36-2.29c8.54-5.84,20.59-3.82,26.29,4.81
		C207.322,201.126,205.112,212.486,196.782,218.176z"/>
	<path class="st7" d="M185.842,231.516c-53.191-77.804-48.261-70.595-51.36-75.11l-15.81,11l-0.02,0.06
		c9.205,13.459,12.739,18.629,49.26,72.05c7.79,11.4,23.35,14.32,34.75,6.53c1.442-0.992,0.374-0.259,5.4-3.7
		C199.562,242.896,191.002,239.066,185.842,231.516z"/>
	<path class="st16" d="M223.342,177.616c-13.273-19.42-40.33-26.365-62.56-11.54c16.44-2.43,33.58,4.41,43.58,19.05
		c10.76,15.74,14.47,39.16,6.27,55.47C233.431,225.02,236.626,197.044,223.342,177.616z"/>
	<g>
		<path class="st8" d="M226.641,175.357C226.641,175.357,226.641,175.357,226.641,175.357c-7.359-10.765-18.471-18.02-31.287-20.428
			c-12.812-2.406-25.803,0.319-36.566,7.679c-2.509,1.715-5.943,1.07-7.659-1.438l-2.321-3.395l55.237-80.783
			c6.259-9.163,9.567-20.362,9.567-32.386c0-16.131-6.008-31.385-16.483-41.85c-1.788-1.784-4.729-1.477-6.129,0.573L128,95.481
			L64.996,3.325c-1.417-2.073-4.366-2.336-6.13-0.571c-18.887,18.887-21.988,52.191-6.913,74.24l55.232,80.787l-2.319,3.394
			c-1.705,2.502-5.163,3.148-7.656,1.431c-10.763-7.36-23.745-10.086-36.564-7.678c-12.815,2.409-23.927,9.666-31.285,20.432
			c-15.192,22.218-9.476,52.655,12.743,67.849l8.98,6.14c13.192,9.023,31.24,5.686,40.3-7.574l36.616-53.548l36.61,53.549
			c4.371,6.395,10.972,10.704,18.584,12.134c1.807,0.339,3.617,0.507,5.416,0.507c5.782,0,11.429-1.734,16.307-5.069l8.977-6.137
			C236.115,228.018,241.833,197.579,226.641,175.357z M194.725,12.053c6.966,8.721,10.887,20.32,10.887,32.553
			c0,10.258-2.902,20.158-8.172,27.872l-53.477,78.21c-0.234-0.342-4.912-7.185-5.151-7.534c-0.706-1.032-0.44-2.446,0.592-3.151
			l4.497-3.075c4.683-3.202,5.884-9.586,2.68-14.27l-13.735-20.091L194.725,12.053z M58.556,72.478
			c-12.089-17.682-10.633-43.751,2.713-60.43l78.708,115.126c0.708,1.035,0.441,2.445-0.592,3.15l-4.497,3.074
			c-4.673,3.195-5.876,9.597-2.681,14.27l2.521,3.687l-15.072,10.493C117.167,158.208,61.89,77.354,58.556,72.478z M84.779,237.26
			c-6.546,9.579-19.6,12.036-29.185,5.481l-8.975-6.136C28.041,223.9,23.26,198.451,35.964,179.873
			c6.153-9.003,15.443-15.07,26.159-17.084c10.715-2.014,21.57,0.266,30.559,6.412c5.574,3.84,14.02,3.467,19.348-4.332
			l11.124,16.27L84.779,237.26z M209.377,236.607l-8.977,6.137c-4.631,3.166-10.216,4.338-15.729,3.303
			c-5.513-1.036-10.292-4.156-13.458-8.787c-5.737-8.392-41.053-60.048-47.042-68.808l15.072-10.493
			c0.547,0.8,4.735,6.925,5.282,7.725c4.203,6.15,12.626,7.733,18.777,3.528c9-6.154,19.862-8.434,30.574-6.42
			c10.717,2.013,20.007,8.079,26.161,17.08v0C232.74,198.452,227.958,223.904,209.377,236.607z"/>
		<path class="st8" d="M190.816,181.032c-6.095-1.198-12.498,0.109-17.577,3.582c-3.441,2.352-6.313,3.755-7.121,8.061
			c-0.444,2.363,0.059,4.757,1.416,6.741l15.236,22.286c2.797,4.092,8.388,5.168,12.509,2.351l3.759-2.57
			c10.071-6.885,12.802-20.771,6.088-30.954C201.86,185.576,196.778,182.204,190.816,181.032z M194.522,214.878l-3.759,2.57
			c-0.282,0.192-0.563,0.191-0.748,0.157c-0.187-0.035-0.448-0.136-0.642-0.418l-15.236-22.286c-0.314-0.461-0.193-1.079,0.261-1.39
			l3.355-2.293c6.625-4.53,16.182-3.127,20.692,3.715C202.773,201.494,201.012,210.442,194.522,214.878z"/>
		<circle class="st8" cx="118.668" cy="127.788" r="8.691"/>
		<path class="st8" d="M173.319,63.266c2.654,0,3.447-1.949,5.688-5.208c1.252-1.82,0.79-4.311-1.03-5.562
			c-1.822-1.251-4.312-0.789-5.562,1.031L170.027,57C168.197,59.66,170.125,63.266,173.319,63.266z"/>
		<path class="st8" d="M184.204,47.432c2.81,0,2.706-0.87,13.498-16.567c1.252-1.82,0.791-4.311-1.029-5.562
			c-1.82-1.252-4.312-0.79-5.563,1.03l-10.198,14.833C179.079,43.831,181.017,47.432,184.204,47.432z"/>
		<path class="st8" d="M86.113,186.907l-3.354-2.293c-10.251-7.008-24.876-4.721-31.887,5.915
			c-6.716,10.182-3.985,24.068,6.087,30.954l3.759,2.569c4.141,2.832,9.726,1.722,12.509-2.35l15.236-22.286
			C91.264,195.32,90.21,189.708,86.113,186.907z M81.86,194.901l-15.236,22.286c-0.313,0.457-0.933,0.573-1.391,0.261l-3.759-2.57
			c-6.49-4.437-8.25-13.385-3.923-19.946c2.074-3.147,5.332-5.295,9.172-6.05c7.115-1.402,11.329,2.204,14.875,4.628
			C82.053,193.822,82.17,194.446,81.86,194.901z"/>
	</g>
</g>
</svg>
