<?xml version="1.0" encoding="utf-8"?>
<!-- Generator: Adobe Illustrator 22.1.0, SVG Export Plug-In . SVG Version: 6.00 Build 0)  -->
<svg version="1.1" id="Icon_Set" xmlns="http://www.w3.org/2000/svg" xmlns:xlink="http://www.w3.org/1999/xlink" x="0px" y="0px"
	 viewBox="0 0 256 256" style="enable-background:new 0 0 256 256;" xml:space="preserve">
<style type="text/css">
	.st0{fill:#5FCDFF;}
	.st1{fill:#87828E;}
	.st2{fill:#B76C6C;}
	.st3{fill:#FF4A73;}
	.st4{fill:#73D7F9;}
	.st5{fill:#30B6FF;}
	.st6{fill:#A4A4A5;}
	.st7{fill:#F973A3;}
	.st8{fill:#5F266D;}
	.st9{fill:#FFE2E2;}
	.st10{fill:#FFEFEE;}
	.st11{fill:#796E84;}
	.st12{fill:#3193F3;}
	.st13{fill:#35B1FC;}
	.st14{fill:#307FED;}
	.st15{fill:#FFCFCF;}
	.st16{fill:#EA2A6A;}
	.st17{fill:#44C7B6;}
	.st18{fill:#3BB2A0;}
	.st19{fill:#4BDBC3;}
	.st20{fill:#C98585;}
	.st21{fill:#965959;}
	.st22{fill:#FFBB98;}
	.st23{fill:#FFCAA6;}
	.st24{fill:#FFAA80;}
	.st25{fill:#F9D335;}
	.st26{fill:#F2C300;}
	.st27{fill:#F9E27D;}
</style>
<g>
	<path class="st0" d="M137.987,50.232c-3.426-8.018-14.757-8.117-18.322-0.159l-32.948,73.541
		c-15.722,30.344,5.17,67.361,39.326,68.515c0.576,0.019,1.154,0.029,1.734,0.029c2.343,0,4.648-0.16,6.906-0.469
		c31.469-4.309,49.081-38.729,35.026-67.213L137.987,50.232z"/>
	<path class="st2" d="M116.564,146.958c5.101-8.836,17.854-8.836,22.956,0c0.106,0.184,4.658,8.068,4.572,7.919
		c5.101,8.836-1.275,19.88-11.478,19.88c-0.212,0-9.316,0-9.144,0c-10.202,0-16.579-11.045-11.478-19.88
		C112.098,154.694,116.65,146.81,116.564,146.958z"/>
	<path class="st20" d="M135.54,174.433c-0.93,0.21-1.91,0.32-2.93,0.32c-0.21,0-9.14,0-9.14,0c-10.2,0-16.58-11.04-11.48-19.88
		c0.11-0.18,4.57-7.91,4.57-7.91c4.06-7.03,12.95-8.47,18.99-4.32c-1.56,1.06-2.94,2.5-3.99,4.32c0,0-4.46,7.73-4.57,7.91
		C122.4,162.833,127.11,172.573,135.54,174.433z"/>
	<path class="st5" d="M134.68,191.692c-2.25,0.31-4.56,0.47-6.9,0.47c-0.58,0-1.16-0.01-1.74-0.03c-1.94-0.07-3.84-0.25-5.69-0.54
		c31.05-4.7,48.32-38.83,34.36-67.12l-31.72-74.24c-0.44-1.04-1.02-1.94-1.7-2.71c4.58-5.27,13.69-4.33,16.7,2.71l31.72,74.24
		C183.77,152.962,166.15,187.382,134.68,191.692z"/>
	<path class="st4" d="M135.35,191.592c-0.22,0.04-0.45,0.07-0.67,0.1c-2.25,0.31-4.56,0.47-6.9,0.47c-0.58,0-1.16-0.01-1.74-0.03
		c-34.15-1.16-55.04-38.17-39.32-68.52l32.95-73.54c3.1-6.93,12.09-7.75,16.62-2.55c-0.64,0.73-1.19,1.58-1.62,2.55l-32.95,73.54
		C86.89,152.232,104.63,186.782,135.35,191.592z"/>
	<g>
		<path class="st8" d="M109.983,207.846c-117.102-5.454-135.8-59.709-38.602-76.604c2.177-0.378,3.635-2.449,3.257-4.626
			c-0.379-2.177-2.451-3.632-4.626-3.256c-27.17,4.721-69.035,16.708-69.035,44.151c0,9.543,5.931,27.28,45.652,38.841
			c17.54,5.103,39.318,8.383,62.98,9.485c2.21,0.102,4.079-1.604,4.183-3.81C113.896,209.821,112.189,207.949,109.983,207.846z"/>
		<path class="st8" d="M53.137,142.8c-53.696,15.946-34.998,45.948,17.563,53.338l19.262,2.708c2.166,0.309,4.208-1.201,4.518-3.404
			c0.308-2.188-1.217-4.21-3.404-4.518c-20.654-2.903-23.254-3.13-29.414-4.67c-9.695-2.426-34.957-10.387-32.521-19.992
			c1.937-7.596,18.71-13.546,26.275-15.792c2.117-0.629,3.324-2.855,2.696-4.973C57.48,143.378,55.254,142.171,53.137,142.8z"/>
		<path class="st8" d="M66.494,159.171c-0.607-2.124-2.819-3.358-4.945-2.748c-4.833,1.38-9.156,2.925-12.505,4.467
			c-6.078,2.799-6.074,10.444,0.001,13.244c4.426,2.038,12.246,4.622,13.604,4.622c4.596,0,5.541-6.571,1.103-7.846
			c-3.78-1.085-7.164-2.249-9.896-3.398c2.757-1.163,6.139-2.325,9.891-3.396C65.87,163.509,67.101,161.296,66.494,159.171z"/>
		<path class="st8" d="M185.987,123.361c-2.173-0.381-4.247,1.08-4.626,3.256c-0.378,2.177,1.08,4.248,3.257,4.626
			c96.948,16.851,78.823,71.134-38.602,76.604c-2.206,0.103-3.912,1.975-3.81,4.182c0.103,2.203,1.97,3.912,4.183,3.81
			c23.662-1.102,45.44-4.382,62.981-9.485c39.721-11.561,45.651-29.297,45.651-38.841
			C255.022,140.059,213.131,128.077,185.987,123.361z"/>
		<path class="st8" d="M161.521,195.442c0.311,2.208,2.355,3.712,4.518,3.404c19.99-2.81,23.441-3.13,30.242-4.832
			c17.673-4.421,38.739-12.609,38.739-26.504c0-13.245-19.492-20.949-32.157-24.71c-2.117-0.63-4.345,0.578-4.974,2.696
			c-0.628,2.118,0.579,4.344,2.696,4.973c7.778,2.309,26.435,8.95,26.435,17.041c0,4.875-8.559,12.708-32.681,18.744
			c-6.297,1.575-9.267,1.838-29.414,4.67C162.738,191.232,161.214,193.254,161.521,195.442z"/>
		<path class="st8" d="M194.457,178.601c4.938-1.418,9.144-2.921,12.499-4.466c6.074-2.8,6.078-10.444,0-13.244
			c-3.349-1.542-7.672-3.086-12.505-4.467c-2.127-0.609-4.339,0.624-4.945,2.748c-0.606,2.125,0.624,4.338,2.748,4.945
			c3.752,1.072,7.134,2.234,9.891,3.396c-2.733,1.15-6.116,2.313-9.896,3.398C187.227,172.353,189.301,180.081,194.457,178.601z"/>
		<path class="st8" d="M142.983,144.959c-6.641-11.501-23.237-11.512-29.884,0c0,0,0,0-0.001,0l-4.57,7.918
			c-6.641,11.501,1.649,25.88,14.941,25.88h9.144c13.279,0,21.589-14.369,14.941-25.88L142.983,144.959z M132.613,170.757h-9.144
			c-7.121,0-11.579-7.707-8.014-13.88l4.571-7.919c3.563-6.17,12.464-6.173,16.028,0l4.571,7.918
			C144.188,163.045,139.742,170.757,132.613,170.757z"/>
		<path class="st8" d="M110.175,137.89c-2.001-5.497-6.626-8.861-10.331-7.512s-5.086,6.898-3.085,12.395
			c2.001,5.497,6.626,8.861,10.331,7.512S112.175,143.388,110.175,137.89z"/>
		<g>
			<path class="st8" d="M121.514,135.488c3.705-1.348,5.086-6.898,3.085-12.395c-2.001-5.497-6.626-8.861-10.331-7.512
				c-3.705,1.348-5.086,6.898-3.085,12.395C113.184,133.473,117.809,136.837,121.514,135.488z"/>
			<path class="st8" d="M141.732,115.581c-3.705-1.348-8.33,2.015-10.331,7.512c-2.001,5.497-0.62,11.047,3.085,12.395
				c3.705,1.348,8.33-2.015,10.331-7.512C146.818,122.479,145.437,116.929,141.732,115.581z"/>
		</g>
		
			<ellipse transform="matrix(0.342 -0.9397 0.9397 0.342 -31.505 235.6697)" class="st8" cx="152.533" cy="140.332" rx="10.593" ry="7.138"/>
		<path class="st8" d="M172.573,169.459c7.705-14.509,7.992-31.941,0.772-46.653l-31.68-74.146
			c-4.793-11.218-20.653-11.378-25.65-0.223l-32.902,73.439c-8.077,15.675-7.566,34.139,1.374,49.416
			C104.325,205.19,154.034,204.37,172.573,169.459z M91.392,167.252c-7.565-12.927-7.985-28.552-1.122-41.798
			c0.074-0.142,32.981-73.6,33.047-73.746c2.14-4.779,8.936-4.72,10.992,0.096l31.723,74.244c0.029,0.067,0.06,0.133,0.092,0.198
			c6.226,12.618,6.002,27.001-0.615,39.461C149.886,195.122,108.05,195.715,91.392,167.252z"/>
		<path class="st8" d="M135.396,86.669c0.638,1.541,2.127,2.471,3.697,2.471c2.837,0,4.786-2.894,3.693-5.531l-4.591-11.087
			c-0.845-2.041-3.187-3.011-5.226-2.166c-2.041,0.845-3.011,3.185-2.165,5.226L135.396,86.669z"/>
		<path class="st8" d="M141.134,100.529l1.058,2.554c0.845,2.042,3.187,3.009,5.226,2.165c2.041-0.846,3.011-3.186,2.165-5.227
			l-1.058-2.554c-0.845-2.041-3.187-3.009-5.226-2.165C141.258,96.148,140.288,98.488,141.134,100.529z"/>
	</g>
</g>
</svg>
