<?xml version="1.0" encoding="utf-8"?>
<!-- Generator: Adobe Illustrator 22.1.0, SVG Export Plug-In . SVG Version: 6.00 Build 0)  -->
<svg version="1.1" id="Icon_Set" xmlns="http://www.w3.org/2000/svg" xmlns:xlink="http://www.w3.org/1999/xlink" x="0px" y="0px"
	 viewBox="0 0 256 256" style="enable-background:new 0 0 256 256;" xml:space="preserve">
<style type="text/css">
	.st0{fill:#5FCDFF;}
	.st1{fill:#87828E;}
	.st2{fill:#B76C6C;}
	.st3{fill:#FF4A73;}
	.st4{fill:#73D7F9;}
	.st5{fill:#30B6FF;}
	.st6{fill:#A4A4A5;}
	.st7{fill:#F973A3;}
	.st8{fill:#5F266D;}
	.st9{fill:#FFE2E2;}
	.st10{fill:#FFEFEE;}
	.st11{fill:#796E84;}
	.st12{fill:#3193F3;}
	.st13{fill:#35B1FC;}
	.st14{fill:#307FED;}
	.st15{fill:#FFCFCF;}
	.st16{fill:#EA2A6A;}
	.st17{fill:#44C7B6;}
	.st18{fill:#3BB2A0;}
	.st19{fill:#4BDBC3;}
	.st20{fill:#C98585;}
	.st21{fill:#965959;}
	.st22{fill:#FFBB98;}
	.st23{fill:#FFCAA6;}
	.st24{fill:#FFAA80;}
	.st25{fill:#F9D335;}
	.st26{fill:#F2C300;}
	.st27{fill:#F9E27D;}
</style>
<g>
	<path class="st17" d="M160.221,249.693H17.783c-3.565,0-6.454-2.89-6.454-6.454v-4.795c0-42.898,34.775-77.673,77.673-77.673h0
		c42.898,0,77.673,34.775,77.673,77.673v4.795C166.675,246.804,163.785,249.693,160.221,249.693z"/>
	<path class="st19" d="M26.325,238.441v4.8c0,3.56,2.89,6.45,6.46,6.45h-15c-3.57,0-6.46-2.89-6.46-6.45v-4.8
		c0-42.89,34.78-77.67,77.68-77.67c2.53,0,5.03,0.12,7.5,0.36C57.125,164.901,26.325,198.081,26.325,238.441z"/>
	<path class="st18" d="M166.675,238.441v4.8c0,3.56-2.89,6.45-6.45,6.45h-15c3.56,0,6.45-2.89,6.45-6.45v-4.8
		c0-21.44-8.7-40.86-22.75-54.92c-12.4-12.4-28.96-20.62-47.42-22.39c2.47-0.24,4.97-0.36,7.5-0.36c21.45,0,40.86,8.69,54.92,22.75
		C157.975,197.581,166.675,217.001,166.675,238.441z"/>
	<g>
		<path class="st9" d="M236.085,106.782h-62.671v-57.2c0-4.517,3.662-8.179,8.179-8.179h46.312c4.517,0,8.179,3.662,8.179,8.179
			V106.782z"/>
		<path class="st0" d="M205.327,207.991L205.327,207.991c-12.363,0-22.714-9.367-23.946-21.668l-7.967-79.542h62.671l-6.78,79.196
			C228.239,198.428,217.822,207.991,205.327,207.991z"/>
		<path class="st12" d="M211.908,66.118v15.95c0,3.951-3.206,7.157-7.157,7.157c-3.951,0-7.157-3.206-7.157-7.157v-15.95
			c0-3.951,3.206-7.157,7.157-7.157c1.971,0,3.763,0.802,5.063,2.094C211.106,62.356,211.908,64.139,211.908,66.118z"/>
		<path class="st3" d="M211.908,74.093v7.975c0,3.951-3.206,7.157-7.157,7.157c-3.951,0-7.157-3.206-7.157-7.157v-7.975H211.908z"/>
		<g>
			<path class="st2" d="M198.251,175.077c2.899-5.021,10.146-5.021,13.045,0l1.299,2.25l1.299,2.25
				c2.899,5.021-0.725,11.297-6.522,11.297h-2.598h-2.598c-5.798,0-9.421-6.276-6.522-11.297l1.299-2.25L198.251,175.077z"/>
		</g>
		<path class="st10" d="M193.864,41.4c-4.515,0-8.179,3.664-8.179,8.179v57.198h-12.269V49.579c0-4.515,3.664-8.179,8.179-8.179
			H193.864z"/>
		<path class="st4" d="M211.466,207.196c-1.963,0.515-4.024,0.793-6.143,0.793c-12.359,0-22.714-9.365-23.941-21.667l-7.967-79.544
			h12.269l7.967,79.544C194.666,196.521,201.962,204.701,211.466,207.196z"/>
		<path class="st15" d="M236.086,49.579v57.198h-12.269V49.579c0-4.515-3.664-8.179-8.179-8.179h12.269
			C232.421,41.4,236.086,45.064,236.086,49.579z"/>
		<path class="st5" d="M236.086,106.778l-6.781,79.201c-1.063,12.449-11.484,22.011-23.982,22.011c-2.11,0-4.171-0.27-6.126-0.793
			c9.619-2.536,16.956-10.879,17.839-21.217l6.781-79.201H236.086z"/>
	</g>
	<path class="st22" d="M89.002,160.731L89.002,160.731c-26.25,0-47.727-21.477-47.727-47.727v-42.67c0-3.55,2.904-6.454,6.454-6.454
		h82.546c3.55,0,6.454,2.904,6.454,6.454v42.67C136.729,139.254,115.252,160.731,89.002,160.731z"/>
	<g>
		<path class="st22" d="M22.233,103.83c0,7.955,6.508,14.463,14.463,14.463h4.632V89.366h-4.632
			C28.742,89.366,22.233,95.875,22.233,103.83z"/>
		<path class="st22" d="M141.307,89.366h-4.632v28.927h4.632c7.955,0,14.463-6.508,14.463-14.463
			C155.771,95.875,149.262,89.366,141.307,89.366z"/>
	</g>
	<path class="st22" d="M89.002,187.555L89.002,187.555c-9.181,0-16.623-7.442-16.623-16.623v-36.944h33.247v36.944
		C105.625,180.113,98.183,187.555,89.002,187.555z"/>
	<path class="st23" d="M96.505,160.141c-2.44,0.39-4.95,0.59-7.5,0.59c-26.25,0-47.73-21.48-47.73-47.73v-42.67
		c0-3.55,2.9-6.45,6.45-6.45h15c-3.55,0-6.45,2.9-6.45,6.45v42.67C56.275,136.701,73.785,156.511,96.505,160.141z"/>
	<path class="st24" d="M136.725,70.331v42.67c0,26.25-21.47,47.73-47.72,47.73c-2.55,0-5.05-0.2-7.5-0.59
		c22.72-3.63,40.22-23.44,40.22-47.14v-42.67c0-3.55-2.9-6.45-6.45-6.45h15C133.825,63.881,136.725,66.781,136.725,70.331z"/>
	<path class="st2" d="M42.559,95.382L42.559,95.382c-7.078,0-12.817-5.738-12.817-12.817V51.567c0-7.078,5.738-12.817,12.817-12.817
		h0c7.078,0,12.817,5.738,12.817,12.817v30.998C55.376,89.644,49.638,95.382,42.559,95.382z"/>
	<path class="st2" d="M158.395,11.881l-9.54,33.3c-1.35,4.72-3.49,9.12-6.26,13.05c-8.74,12.49-23.67,20.15-39.12,17.82l-48.1-7.26
		v-17.22c0-12.05,7.09-22.44,17.32-27.23c3.87-1.81,8.18-2.82,12.73-2.82h29.94c13.52,0,26.57-5.04,36.59-14.12
		c0.83-0.75,1.76-1.07,2.68-1.07C157.215,6.331,159.575,8.941,158.395,11.881z"/>
	<path class="st20" d="M50.055,92.951c-2.11,1.53-4.7,2.43-7.5,2.43c-7.07,0-12.81-5.74-12.81-12.82v-30.99
		c0-7.08,5.74-12.82,12.81-12.82c2.8,0,5.39,0.9,7.5,2.42c-3.21,2.33-5.31,6.12-5.31,10.4v30.99
		C44.745,86.841,46.845,90.631,50.055,92.951z"/>
	<path class="st20" d="M150.385,39.831l-1.53,5.35c-1.35,4.72-3.49,9.12-6.26,13.05c-8.74,12.49-23.67,20.15-39.12,17.82l-48.1-7.26
		v-15.21l49.8,6.79c17.09,2.33,33.6-5.33,43.27-17.82C149.135,41.671,149.785,40.761,150.385,39.831z"/>
	<path class="st21" d="M154.635,6.331c-0.92,0-1.85,0.32-2.68,1.07c-10.02,9.08-23.07,14.12-36.59,14.12h-29.94
		c-4.55,0-8.86,1.01-12.73,2.82c-10.23,4.79-17.32,15.18-17.32,27.23v10.87c0-12.05,7.09-22.44,17.32-27.23
		c3.87-1.81,8.18-2.82,12.73-2.82h29.94c13.52,0,26.57-5.04,36.59-14.12c0.83-0.75,1.76-1.07,2.68-1.07c0.73,0,1.45,0.21,2.07,0.58
		l1.69-5.9C159.575,8.941,157.215,6.331,154.635,6.331z"/>
	<g>
		
			<ellipse transform="matrix(0.9871 -0.1602 0.1602 0.9871 -15.1732 11.783)" class="st8" cx="65.498" cy="100.004" rx="6.394" ry="6.394"/>
		<circle class="st8" cx="112.506" cy="100.004" r="6.394"/>
		<path class="st8" d="M99.18,114.787c-2.209,0-4,1.791-4,4c0,3.406-2.771,6.178-6.178,6.178c-3.407,0-6.178-2.771-6.178-6.178
			c0-2.209-1.791-4-4-4c-8.109,0-3.517,18.178,10.178,18.178C102.681,132.964,107.311,114.787,99.18,114.787z"/>
		<path class="st8" d="M111.03,159.793c14.838-7.015,25.816-20.885,28.843-37.5c26.737,0,25.827-36.927,0.852-36.927
			c0-16.36,0.167-16.096-0.502-18.192c11.353-11.148,12.062-19.448,21.97-54.025c2.901-7.839-6.692-14.362-12.924-8.714
			c-9.306,8.436-21.348,13.082-33.908,13.082H85.427c-14.362,0-26.666,8.942-31.662,21.547c-10.83-9.716-28.022-1.963-28.022,12.504
			c0,33.876-0.343,32.968,1.027,36.728c-14.873,9.549-9.82,33.996,11.357,33.996c3.028,16.621,14.013,30.494,28.861,37.508
			c-35.123,9.837-59.663,41.897-59.663,78.642v4.8c0,5.762,4.692,10.45,10.46,10.45h142.44c5.762,0,10.45-4.688,10.45-10.45v-4.8
			C170.675,200.5,145.025,169.266,111.03,159.793z M140.725,93.366c14.632,0,14.739,20.927-0.033,20.927
			C140.737,112.462,140.725,116.803,140.725,93.366z M59.376,51.567c0-14.364,11.687-26.051,26.051-26.051h29.934
			c14.55,0,28.5-5.382,39.249-15.187c0.035,0.006,0.098,0.05,0.073,0.062c-0.119,0.298-9.587,33.382-9.676,33.69
			c-5.266,18.377-23.244,30.686-40.93,28.014l-44.701-6.747V51.567z M31.215,94.942c1.73,1.587,3.784,2.82,6.06,3.576
			c0,17.721-0.011,14.006,0.033,15.773C25.642,114.291,22.521,100.357,31.215,94.942z M33.743,82.565V51.567
			c0-4.861,3.955-8.816,8.816-8.816c4.862,0,8.817,3.955,8.817,8.816c0,11.541,0,19.123,0,30.999c0,4.861-3.955,8.816-8.817,8.816
			C37.698,91.382,33.743,87.427,33.743,82.565z M45.275,113.001V99.142c7.983-1.305,14.101-8.231,14.101-16.577v-9.127l43.507,6.566
			c10.331,1.561,20.89-1.01,29.842-6.817c0,14.676,0,25.049,0,39.813c0,18.778-11.896,34.826-28.545,41.01
			C76.783,164.678,45.275,143.959,45.275,113.001z M101.625,163.167v7.764c0,6.958-5.661,12.62-12.62,12.62
			c-6.964,0-12.63-5.661-12.63-12.62v-7.766C84.654,165.25,93.328,165.256,101.625,163.167z M162.675,243.241
			c0,1.351-1.099,2.45-2.45,2.45H17.785c-1.356,0-2.46-1.099-2.46-2.45v-4.8c0-32.706,22.033-61.669,53.05-70.719v3.209
			c0,11.37,9.254,20.62,20.63,20.62c11.37,0,20.62-9.25,20.62-20.62v-3.229c30.356,8.806,53.05,36.884,53.05,70.739V243.241z"/>
		<path class="st8" d="M204.815,54.648c-6.16,0-11.172,5.012-11.172,11.172v15.983c0,6.16,5.012,11.172,11.172,11.172
			s11.172-5.012,11.172-11.172V65.82C215.987,59.66,210.975,54.648,204.815,54.648z M207.987,81.803
			c0,1.749-1.423,3.172-3.172,3.172s-3.172-1.423-3.172-3.172v-3.992h6.344V81.803z M207.987,69.811h-6.344V65.82
			c0-1.749,1.423-3.172,3.172-3.172s3.172,1.423,3.172,3.172V69.811z"/>
		<path class="st8" d="M214.839,173.009c-2.087-3.616-5.826-5.774-10-5.774c-4.174,0-7.913,2.159-10,5.774l-2.603,4.509
			c-2.087,3.615-2.088,7.932,0,11.547c3.784,6.555,9.895,5.774,15.207,5.774c8.889,0,14.449-9.616,10-17.321L214.839,173.009z
			 M210.514,185.065c-1.259,2.179-2.877,1.774-8.279,1.774c-1.849,0-2.765-1.241-3.072-1.774c-1.258-2.177-0.097-3.378,2.604-8.056
			h0c1.364-2.364,4.776-2.369,6.144,0C210.531,181.547,211.801,182.839,210.514,185.065z"/>
		<g>
			<path class="st8" d="M201.558,163.756c2.11-0.768,2.896-3.928,1.757-7.059c-1.139-3.13-3.773-5.046-5.883-4.278
				c-2.11,0.768-2.896,3.928-1.757,7.059S199.448,164.524,201.558,163.756z"/>
			<path class="st8" d="M208.945,163.756c2.11,0.768,4.744-1.147,5.883-4.278s0.353-6.291-1.757-7.059
				c-2.11-0.768-4.744,1.147-5.883,4.278C206.049,159.828,206.836,162.988,208.945,163.756z"/>
		</g>
		<g>
			
				<ellipse transform="matrix(0.9397 -0.342 0.342 0.9397 -45.4151 75.4629)" class="st8" cx="191.281" cy="166.514" rx="4.065" ry="6.032"/>
			
				<ellipse transform="matrix(0.342 -0.9397 0.9397 0.342 -12.2288 315.5635)" class="st8" cx="219.222" cy="166.514" rx="6.032" ry="4.065"/>
		</g>
		<path class="st8" d="M239.675,227.941h-29.281c-0.551,0-1-0.449-1-1v-15.228c12.846-1.795,22.875-12.131,24.014-25.44
			c8.686-101.459,6.809-57.485,6.809-137.023c0-4.805-2.801-8.958-6.849-10.945V18.38c0-2.209-1.791-4-4-4s-4,1.791-4,4v18.674
			h-4.276V18.38c0-2.209-1.791-4-4-4s-4,1.791-4,4v18.674h-4.276V18.38c0-2.209-1.791-4-4-4s-4,1.791-4,4v18.674h-4.276V18.38
			c0-2.209-1.791-4-4-4s-4,1.791-4,4v18.674h-4.276V18.38c0-2.209-1.791-4-4-4s-4,1.791-4,4v19.926
			c-4.048,1.986-6.849,6.139-6.849,10.945c0,80.16-2.149,36.062,8.003,137.427c1.31,13.081,11.315,23.246,23.977,25.034v15.23
			c0,4.962,4.038,9,9,9h29.281c0.551,0,1,0.449,1,1v12.752c0,2.209,1.791,4,4,4s4-1.791,4-4v-12.752
			C248.675,231.978,244.637,227.941,239.675,227.941z M177.414,102.57V49.25c0-2.314,1.883-4.196,4.197-4.196h46.409
			c2.314,0,4.197,1.882,4.197,4.196v53.32H177.414z M185.377,185.88l-7.543-75.31h54.025l-6.423,75.021
			c-0.898,10.49-9.515,18.4-20.043,18.4C195.017,203.991,186.412,196.205,185.377,185.88z"/>
		<path class="st8" d="M30.053,224.285c-2.193-0.226-4.165,1.365-4.395,3.563c-0.21,2.014-0.317,4.064-0.317,6.093
			c0,2.209,1.791,4,4,4s4-1.791,4-4c0-1.752,0.092-3.522,0.274-5.261C33.845,226.483,32.251,224.515,30.053,224.285z"/>
		<path class="st8" d="M43.269,190.693c-0.35,0.329-8.631,8.211-13.821,21.594c-1.017,2.622,0.925,5.447,3.729,5.447
			c1.603,0,3.116-0.971,3.73-2.555c4.501-11.607,11.772-18.592,11.848-18.664c1.603-1.514,1.679-4.041,0.168-5.648
			C47.41,189.258,44.879,189.179,43.269,190.693z"/>
	</g>
</g>
</svg>
