<?xml version="1.0" encoding="utf-8"?>
<!-- Generator: Adobe Illustrator 22.1.0, SVG Export Plug-In . SVG Version: 6.00 Build 0)  -->
<svg version="1.1" id="Icon_Set" xmlns="http://www.w3.org/2000/svg" xmlns:xlink="http://www.w3.org/1999/xlink" x="0px" y="0px"
	 viewBox="0 0 256 256" style="enable-background:new 0 0 256 256;" xml:space="preserve">
<style type="text/css">
	.st0{fill:#5FCDFF;}
	.st1{fill:#87828E;}
	.st2{fill:#B76C6C;}
	.st3{fill:#FF4A73;}
	.st4{fill:#73D7F9;}
	.st5{fill:#30B6FF;}
	.st6{fill:#A4A4A5;}
	.st7{fill:#F973A3;}
	.st8{fill:#5F266D;}
	.st9{fill:#FFE2E2;}
	.st10{fill:#FFEFEE;}
	.st11{fill:#796E84;}
	.st12{fill:#3193F3;}
	.st13{fill:#35B1FC;}
	.st14{fill:#307FED;}
	.st15{fill:#FFCFCF;}
	.st16{fill:#EA2A6A;}
	.st17{fill:#44C7B6;}
	.st18{fill:#3BB2A0;}
	.st19{fill:#4BDBC3;}
	.st20{fill:#C98585;}
	.st21{fill:#965959;}
	.st22{fill:#FFBB98;}
	.st23{fill:#FFCAA6;}
	.st24{fill:#FFAA80;}
	.st25{fill:#F9D335;}
	.st26{fill:#F2C300;}
	.st27{fill:#F9E27D;}
</style>
<g>
	<g>
		<g>
			<path class="st2" d="M213.7,248.28c-1.57,1.55-3.66,2.57-5.97,2.81c-0.2,0.03-1.84,0.05-4.08,0.05
				c-3.48,0.02-8.44,0.01-11.92-0.01c-2.08,0-3.55,0-3.69-0.01c-0.45,0-0.96-0.07-1.49-0.19c-1.85-0.41-3.99-1.51-5.13-2.89
				c-4.74-4.94-3.85-15.66,4.32-18.79c0.33-0.13,0.67-0.24,1.02-0.34l0.09-25.27h21.64l-0.1,25.21
				C218.42,231.52,218.43,244.33,213.7,248.28z"/>
			<path class="st2" d="M151.218,251.088c-0.793,0.113-19.574,0.075-20.1,0c-11.406-1.16-12.524-18.85-0.88-22.18l0.09-25.27h21.64
				l-0.09,25.21c0.28,0.07,0.56,0.15,0.83,0.24c0.07,0.02,0.13,0.05,0.19,0.07C163.465,232.995,162.429,249.943,151.218,251.088z"/>
		</g>
		<path class="st2" d="M229.454,170.718v22.15c0,5.92-4.84,10.77-10.77,10.77h-98.54c-1.21,0-2.37-0.2-3.45-0.58h-13.85
			c-29.75,0-53.87-24.12-53.87-53.87v-23.99h72.3c1.28,1.65,2.74,3.17,4.38,4.53c1.7,1.43,3.58,2.69,5.64,3.74
			c1.53,0.78,3.09,1.42,4.67,1.92c13.8,4.36,29.17-1.76,35.97-15.06c1.47-2.87,2.43-5.87,2.92-8.89c0.03-0.17,0.06-0.33,0.08-0.5
			c0.06,0,0.13,0.01,0.2,0.02c0.52,0.04,1.05,0.1,1.57,0.17c0.07,0,0.14,0.01,0.21,0.02h0.01c12.04,1.52,22.99,6.64,31.75,14.24
			c1.09,0.94,2.14,1.92,3.15,2.93c10.45,10.45,17.08,24.7,17.59,40.43C229.444,169.398,229.454,170.058,229.454,170.718z"/>
		<path class="st2" d="M109.209,33.102v51.091c0,8.242-6.691,14.944-14.944,14.944h-61.93c-7.445,0-14.19-3.017-19.07-7.908
			c-4.892-4.881-7.908-11.625-7.908-19.07c0-2.327,0.291-4.579,0.851-6.734c2.122-8.285,8.091-15.019,15.881-18.23
			c3.157-1.293,6.626-2.015,10.246-2.015h5.193c1.648,0,3.135-0.668,4.224-1.745v-0.011c1.077-1.088,1.745-2.575,1.745-4.224v-6.098
			c0-15.612,12.66-28.261,28.261-28.261h9.201C96.56,4.841,109.209,17.49,109.209,33.102z"/>
		<path class="st20" d="M84.439,5.067C70.476,6.77,59.659,18.675,59.659,33.102V39.2c0,1.648-0.668,3.135-1.745,4.224v0.011
			c-1.088,1.077-2.575,1.745-4.224,1.745h-5.193c-3.62,0-7.089,0.722-10.246,2.015c-7.79,3.211-13.759,9.945-15.881,18.23
			c-0.56,2.155-0.851,4.407-0.851,6.734c0,7.445,3.017,14.19,7.908,19.07c4.881,4.892,11.625,7.908,19.07,7.908H32.335
			c-7.445,0-14.19-3.017-19.07-7.908c-4.892-4.881-7.908-11.625-7.908-19.07c0-2.327,0.291-4.579,0.851-6.734
			c2.122-8.285,8.091-15.019,15.881-18.23c3.157-1.293,6.626-2.015,10.246-2.015h5.193c1.648,0,3.135-0.668,4.224-1.745v-0.011
			c1.077-1.088,1.745-2.575,1.745-4.224v-6.098c0-15.612,12.66-28.261,28.261-28.261h9.201C82.134,4.841,83.297,4.916,84.439,5.067z
			"/>
		<path class="st2" d="M68.514,156.223v70.825H56.839c-5.95,0-10.774,4.824-10.774,10.774v1.077c0,5.95,4.824,10.774,10.774,10.774
			h11.674h10.862c5.95,0,10.774-4.824,10.774-10.774v-11.852v-70.825H68.514z"/>
		<path class="st22" d="M51.686,99.137h-19.35c-7.445,0-14.19-3.017-19.07-7.908c-4.892-4.881-7.908-11.625-7.908-19.07
			c0-2.327,0.291-4.579,0.851-6.734c2.122-8.285,8.091-15.019,15.881-18.23c3.157-1.293,6.626-2.015,10.246-2.015h5.193
			c1.648,0,3.135-0.668,4.224-1.745C41.752,43.434,72.663,69.432,51.686,99.137z"/>
		<path class="st2" d="M133.131,73.999c-2.86,1.22-5.54,2.89-7.92,4.97c-2.83,2.45-5.25,5.48-7.06,9.02
			c-1.5,2.92-2.47,5.98-2.95,9.06c-1.486-1.437-0.898-0.346-7.65-23.18l-1.06-3.58l-16.67-56.39c-0.1-0.47-0.15-0.92-0.15-1.37
			c0-1.78,0.76-3.34,1.93-4.45c0.15-0.14,0.3-0.27,0.46-0.4c0.16-0.12,0.32-0.24,0.49-0.35c0.34-0.22,0.7-0.41,1.07-0.56
			c1.93-0.79,4.27-0.65,6.23,0.91h0.01l6.22,6.58l28.55,30.19c2.11,2.23,3.39,5.05,3.72,8
			C138.792,56.388,137.932,57.771,133.131,73.999z"/>
		<path class="st3" d="M104.962,125.195H48.968v-21.808c0-2.348,1.903-4.251,4.251-4.251h47.492c2.348,0,4.251,1.903,4.251,4.251
			V125.195z"/>
		<path class="st20" d="M119.003,203.054h-16.161c-29.758,0-53.871-24.113-53.871-53.871V125.2h16.161v23.983
			C65.132,178.942,89.245,203.054,119.003,203.054z"/>
		<path class="st7" d="M69.377,99.137c-2.349,0-4.245,1.907-4.245,4.245V125.2H48.971v-21.818c0-2.338,1.896-4.245,4.245-4.245
			H69.377z"/>
		<path class="st16" d="M104.964,103.382V125.2H88.803v-21.818c0-2.338-1.907-4.245-4.256-4.245h16.161
			C103.057,99.137,104.964,101.044,104.964,103.382z"/>
		<path class="st23" d="M29.426,91.229c-4.892-4.881-7.908-11.625-7.908-19.07c0-2.327,0.291-4.579,0.851-6.734
			c2.122-8.285,8.091-15.019,15.881-18.23c1.821-0.743,3.749-1.304,5.753-1.627c-1.368-1.39-2.252-2.133-2.252-2.133
			c-1.088,1.077-2.575,1.745-4.224,1.745h-5.193c-3.62,0-7.089,0.722-10.246,2.015c-7.79,3.211-13.759,9.945-15.881,18.23
			c-0.56,2.155-0.851,4.407-0.851,6.734c0,7.445,3.017,14.19,7.908,19.07c4.881,4.892,11.625,7.908,19.07,7.908h16.161
			C41.052,99.137,34.307,96.12,29.426,91.229z"/>
		<path class="st20" d="M125.211,78.969c-2.83,2.45-5.25,5.48-7.06,9.02c-1.5,2.92-2.47,5.98-2.95,9.06
			c-1.486-1.437-0.898-0.346-7.65-23.18l-1.06-3.58l-16.68-56.4c-0.1-0.46-0.14-0.92-0.14-1.36c0-1.78,0.76-3.34,1.93-4.45
			c0.15-0.14,0.3-0.27,0.46-0.4c0.16-0.12,0.32-0.24,0.49-0.35c0.34-0.22,0.7-0.41,1.07-0.56c1.93-0.79,4.27-0.65,6.23,0.91
			l6.23,6.58l13.27,44.89l1.22,4.13L125.211,78.969z"/>
		<path class="st2" d="M26.236,52.887v2.015c0,6.606-5.357,11.957-11.957,11.957h-2.415c-2.051,0-3.976-0.514-5.662-1.429
			c2.128-8.286,8.095-15.03,15.89-18.234C24.496,47.973,26.236,50.221,26.236,52.887z"/>
		<g>
			<path class="st20" d="M72.103,249.674H56.836c-5.947,0-10.774-4.827-10.774-10.774v-1.077c0-5.947,4.827-10.774,10.774-10.774
				h15.267c-5.947,0-10.774,4.827-10.774,10.774v1.077C61.329,244.847,66.155,249.674,72.103,249.674z"/>
		</g>
		<path class="st20" d="M131.694,203.058c1.08,0.38,2.24,0.58,3.45,0.58h-15c-1.21,0-2.37-0.2-3.45-0.58
			c-4.25-1.44-7.32-5.48-7.32-10.19v-22.15c0-8.8,1.91-17.16,5.35-24.7c2.75-6.02,6.46-11.52,10.93-16.29
			c1.7,1.43,3.58,2.69,5.64,3.74c1.53,0.78,3.09,1.42,4.67,1.92c-3.87,5.27-6.9,11.2-8.89,17.57c-1.76,5.62-2.7,11.58-2.7,17.76
			v22.15C124.374,197.578,127.444,201.618,131.694,203.058z"/>
		<path class="st21" d="M229.454,170.718v22.15c0,5.92-4.84,10.77-10.77,10.77h-15c5.93,0,10.77-4.85,10.77-10.77v-22.15
			c0-3.18-0.25-6.3-0.74-9.34c-2.01-12.79-8.1-24.27-16.89-33.06c-1.01-1.01-2.06-1.99-3.15-2.93c-5.65-4.9-12.2-8.77-19.38-11.3
			c0.23-0.88,0.42-1.76,0.56-2.65c0.03-0.17,0.06-0.33,0.08-0.5c12.82,1.18,24.5,6.44,33.74,14.45c1.09,0.94,2.14,1.92,3.15,2.93
			c10.45,10.45,17.08,24.7,17.59,40.43C229.444,169.398,229.454,170.058,229.454,170.718z"/>
		<path class="st20" d="M203.65,251.14c-3.48,0.02-8.44,0.01-11.92-0.01c-2.34-0.01-4-0.02-4.11-0.04
			c-0.37-0.03-0.72-0.08-1.07-0.16c-1.85-0.41-3.99-1.51-5.13-2.89c-4.74-4.94-3.85-15.66,4.32-18.79c0.33-0.13,0.67-0.24,1.02-0.34
			l0.09-25.27h4.96c5.54,0,10.02,4.5,10,10.03l-0.05,15.24C189.91,232.12,191.32,251.14,203.65,251.14z"/>
		<path class="st20" d="M145.24,228.908l0.054-15.234c0.02-5.537-4.463-10.036-10-10.036h-4.964l-0.09,25.27
			c-11.65,3.33-10.33,21.21,0.88,22.18c0.26,0.04,10.21,0.08,16.02,0.05C134.83,251.138,133.4,232.128,145.24,228.908z"/>
		<g>
			<path class="st9" d="M250.621,145.969c-0.28-6.08-3.72-11.84-9.53-14.81l-46.61-23.83l-0.01,0.03c2.26-20-7.81-40.21-26.78-49.91
				c-9.4-4.8-19.61-6.33-29.34-5c-6.71,0.92-13.19,3.19-19,6.7c-4.83,2.9-9.2,6.64-12.86,11.14c-2.18,2.67-4.11,5.61-5.74,8.8
				c-12.5,24.46-2.81,54.43,21.64,66.94c18.97,9.69,41.24,6.04,56.12-7.49l46.62,23.84c8.62,4.41,19.18,0.99,23.59-7.63
				C250.161,151.939,250.761,148.909,250.621,145.969z M171.931,115.489c-7.58,14.83-25.81,20.73-40.64,13.14
				c-14.942-7.64-20.686-25.95-13.14-40.64c1.81-3.54,4.23-6.57,7.06-9.02c2.38-2.08,5.06-3.75,7.92-4.97
				c7.97-3.42,17.35-3.4,25.66,0.85C173.621,82.429,179.521,100.659,171.931,115.489z"/>
			<path class="st10" d="M250.624,145.969c-5.1,3.34-11.79,3.92-17.6,0.95l-46.6-23.83l-7.91,15.45l46.62,23.84
				c8.62,4.41,19.18,0.99,23.59-7.63C250.164,151.939,250.764,148.909,250.624,145.969z"/>
			<path class="st19" d="M222.087,139.009l-1.788,3.492c-1.259,2.458-4.271,3.43-6.729,2.172l-11.1-5.683
				c-2.458-1.259-3.43-4.271-2.172-6.729l1.788-3.492c1.259-2.458,4.271-3.43,6.729-2.172l11.1,5.683
				C222.374,133.538,223.346,136.551,222.087,139.009z"/>
		</g>
	</g>
	<g>
		<circle class="st8" cx="62.21" cy="41.118" r="6.392"/>
		<path class="st8" d="M82.356,38.683c2.184,0.323,4.219-1.187,4.541-3.374c0.322-2.185-1.188-4.218-3.373-4.541
			c-13.65-2.014-17.809-10.723-18.007-11.157c-2.125-4.816-9.418-1.642-7.334,3.197C58.414,23.346,64.057,35.984,82.356,38.683z"/>
		<path class="st8" d="M69.359,151.365c-0.047-0.762-0.07-1.535-0.07-2.298c0-2.209-1.791-4-4-4s-4,1.791-4,4
			c0,0.926,0.029,1.865,0.086,2.79c0.13,2.122,1.892,3.754,3.988,3.754C67.684,155.61,69.5,153.656,69.359,151.365z"/>
		<path class="st8" d="M72.61,164.439c-0.909-2.014-3.28-2.907-5.292-1.999c-2.014,0.91-2.908,3.279-1.999,5.292
			c2.536,5.614,6.145,10.659,10.725,14.996c3.832,3.628,9.335-2.179,5.5-5.809C77.722,173.3,74.716,169.101,72.61,164.439z"/>
		<path class="st8" d="M175.436,117.63c13.685-26.767-11.76-57.548-40.974-48.107c-28.83,9.324-32.165,49.125-5.055,62.989
			C146.2,141.098,166.848,134.423,175.436,117.63z M133.05,125.389c-24.166-12.357-15.747-49.542,11.984-49.542
			c19.628,0,32.108,20.872,23.278,38.14C161.736,126.854,145.918,131.968,133.05,125.389z"/>
		<path class="st8" d="M242.853,127.917l-44.243-22.62c1.906-32.309-24.903-58.974-57.08-56.849
			c-0.825-2.386-2.137-4.569-3.905-6.43c-0.298-0.315-34.847-36.883-35.188-37.152c-2.908-2.312-6.627-2.86-9.941-1.606
			c-6.67-2.546-11.074-2.104-20.656-2.104c-17.782,0-32.25,14.472-32.25,32.26c0,9.182,0.991,8.08-7.16,8.08
			c-3.552,0-7.029,0.595-10.364,1.775l-0.054-0.018C-1.643,52.98-4.122,79.733,10.521,94.372c5.846,5.858,13.627,9.084,21.91,9.084
			h12.632c-0.019,0.615-0.012,45.435-0.012,46.05c0,16.659,7.112,32.334,19.55,43.333v30.523h-7.68
			c-7.42,0-14.771,5.548-14.771,15.86c0,8.144,6.626,14.77,14.771,14.77c23.546,0,26.686,0.973,31.935-3.374
			c3.416-2.818,5.375-6.971,5.375-11.396V206.7c2.864,0.433,5.769,0.677,8.69,0.677h16.721h6.165l-0.067,18.551
			c-13.203,6.826-9.737,28.945,5.891,28.945c0,0,18.028,0,18.05,0c15.683,0,19.179-22.331,5.7-29.046l0.066-18.454h26.88
			l-0.066,18.553c-13.305,6.868-9.659,28.947,5.88,28.947c0,0,18.028,0,18.05,0c15.655,0,19.221-22.319,5.701-29.046l0.073-18.45
			h6.216c8.145,0,14.771-6.626,14.771-14.77c0-23.874,0.035-22.991-0.055-23.992c8.027,0.05,15.569-4.381,19.327-11.727
			C257.619,146.317,253.416,133.322,242.853,127.917z M97.28,10.997c37.651,39.815,35.168,36.979,36.057,38.623
			c-9.226,2.057-17.874,6.52-24.932,13.063L93.791,13.264C93.471,11.292,95.698,9.936,97.28,10.997z M47.591,33.417
			c0-13.377,10.879-24.26,24.25-24.26c9.835,0,11.185-0.146,14.42,0.564c-0.541,1.666-0.657,3.484-0.278,5.302
			c0.022,0.107,0.049,0.213,0.08,0.318l16.061,54.312c-5.803,7.682-9.35,16.585-10.496,25.793H58.835
			c12.168-24.323-5.134-45.426-11.909-52.36C47.776,40.867,47.591,39.823,47.591,33.417z M94.892,121.506H53.051v-17.8
			c0-0.139,0.117-0.239,0.226-0.25h37.967C91.411,109.552,92.597,115.574,94.892,121.506z M21.937,52.031
			c0.549,0.736,0.383,1.475,0.383,3.186c0,4.388-3.569,7.957-7.957,7.957c-0.453,0-2.531,0.01-2.944-0.017
			C13.602,58.251,17.379,54.396,21.937,52.031z M32.431,95.457c-6.144,0-11.913-2.392-16.251-6.739
			c-2.309-2.309-4.046-5.031-5.185-7.991c3.099,2.765,7.171,4.462,11.641,4.462c9.662,0,17.522-7.86,17.522-17.522
			c0-2.209-1.791-4-4-4s-4,1.791-4,4c0,10.452-14.503,13.216-18.367,3.507c10.143,0,16.529-7.731,16.529-15.957
			c0-2.171,0.113-3.521-0.646-5.538c5.182-0.618,8.207,0.497,11.683-0.911c6.056,6.061,22.002,25.141,8.276,46.686L32.431,95.457z
			 M86.231,239.223c0,3.476-2.69,6.579-6.447,6.746l-22.862,0.024c-9.037,0-9.062-14.63,0-14.63h11.68c2.209,0,4-1.791,4-4v-28.589
			c4.266,2.627,8.857,4.716,13.63,6.152V239.223z M110.495,144.283c-3.731,8.279-5.624,17.084-5.624,26.174v22.15
			c0,2.441,0.605,4.74,1.658,6.77h-3.608c-3.983,0-7.935-0.47-11.756-1.399c-7.284-1.749-14.204-5.217-20.014-10.033
			c-11.503-9.518-18.101-23.528-18.101-38.438v-19.99h45.732c3.181,5.375,7.266,10.13,12.105,14.086
			C110.739,143.813,110.606,144.039,110.495,144.283z M101.459,116.128c-12.499-38.666,28.127-73.315,64.347-54.795
			c36.267,18.545,31.757,71.795-6.753,84.246C135,153.356,109.238,140.184,101.459,116.128z M224.951,192.606
			c0,3.733-3.037,6.77-6.771,6.77c-0.312,0-9.895-0.004-10.2-0.004c-2.338,0-3.992,1.942-4,3.984l-0.1,25.21
			c-0.007,1.837,1.237,3.442,3.019,3.894c7.681,1.944,6.867,14.412-0.709,14.412c0,0-17.569,0-18.05,0
			c-7.595,0-8.295-12.347-0.842-14.37c1.737-0.472,2.945-2.046,2.952-3.846l0.09-25.27c0-0.002-0.001-0.005-0.001-0.007
			c0-0.002,0.001-0.004,0.001-0.007c0-2.235-1.858-3.993-3.985-4c-0.005,0-0.01,0-0.015,0c-4.366,0-30.513,0-34.88,0
			c-2.215,0-3.993,1.821-4,3.986l-0.09,25.21c-0.007,1.836,1.238,3.441,3.019,3.892c7.654,1.939,6.865,14.413-0.709,14.413
			c-0.917,0-18.05,0-18.05,0c-7.586,0-8.303-12.344-0.851-14.37c1.736-0.472,2.943-2.046,2.95-3.846l0.091-25.27
			c0-0.002,0-0.003,0-0.005c0-0.001,0-0.003,0-0.005c0-0.093-0.021-0.18-0.027-0.271c-0.012-0.18-0.019-0.361-0.054-0.534
			c-0.002-0.011-0.007-0.021-0.01-0.032c-0.383-1.803-1.977-3.16-3.894-3.167c-0.005,0-0.01,0-0.015,0
			c-0.013,0-0.026,0.004-0.039,0.004h-10.141c-3.733,0-6.771-3.037-6.771-6.77v-22.15c0-7.708,1.57-15.178,4.639-22.224
			c20.432,12.118,44.816,9.087,61.522-4.583c48.17,24.632,44.718,22.929,46.335,23.548
			C224.795,168.342,224.951,166.652,224.951,192.606z M245.101,153.247c-3.4,6.644-11.569,9.286-18.208,5.89l-41.751-21.351
			c6.033-6.804,10.317-15.107,12.309-24.097l41.759,21.35C245.849,138.436,248.491,146.606,245.101,153.247z"/>
		<path class="st8" d="M221.677,129.037l-11.1-5.683c-2.141-1.097-4.58-1.293-6.867-0.554c-2.288,0.738-4.151,2.324-5.246,4.463
			c-1.818,3.551-3.687,6.189-2.342,10.358c0.738,2.288,2.323,4.151,4.463,5.247l11.101,5.684c1.309,0.67,2.707,0.988,4.086,0.988
			c3.272,0,6.435-1.79,8.026-4.898l1.787-3.492C227.847,136.732,226.094,131.299,221.677,129.037z M218.464,137.504l-1.787,3.492
			c-0.251,0.491-0.856,0.685-1.346,0.435l-11.101-5.684c-0.488-0.25-0.688-0.849-0.434-1.345l1.788-3.493
			c0.255-0.496,0.858-0.685,1.345-0.434l11.101,5.683C218.521,136.409,218.716,137.013,218.464,137.504z"/>
	</g>
</g>
</svg>
