<?xml version="1.0" encoding="utf-8"?>
<!-- Generator: Adobe Illustrator 22.1.0, SVG Export Plug-In . SVG Version: 6.00 Build 0)  -->
<svg version="1.1" id="Icon_Set" xmlns="http://www.w3.org/2000/svg" xmlns:xlink="http://www.w3.org/1999/xlink" x="0px" y="0px"
	 viewBox="0 0 256 256" style="enable-background:new 0 0 256 256;" xml:space="preserve">
<style type="text/css">
	.st0{fill:#5FCDFF;}
	.st1{fill:#87828E;}
	.st2{fill:#B76C6C;}
	.st3{fill:#FF4A73;}
	.st4{fill:#73D7F9;}
	.st5{fill:#30B6FF;}
	.st6{fill:#A4A4A5;}
	.st7{fill:#F973A3;}
	.st8{fill:#5F266D;}
	.st9{fill:#FFE2E2;}
	.st10{fill:#FFEFEE;}
	.st11{fill:#796E84;}
	.st12{fill:#3193F3;}
	.st13{fill:#35B1FC;}
	.st14{fill:#307FED;}
	.st15{fill:#FFCFCF;}
	.st16{fill:#EA2A6A;}
	.st17{fill:#44C7B6;}
	.st18{fill:#3BB2A0;}
	.st19{fill:#4BDBC3;}
	.st20{fill:#C98585;}
	.st21{fill:#965959;}
	.st22{fill:#FFBB98;}
	.st23{fill:#FFCAA6;}
	.st24{fill:#FFAA80;}
	.st25{fill:#F9D335;}
	.st26{fill:#F2C300;}
	.st27{fill:#F9E27D;}
</style>
<g>
	<g>
		<g>
			<path class="st17" d="M247.86,128.04v44.77c0,5.52-4.48,10-10,10h-82.39V78.04h42.39c12.91,0,24.68,4.9,33.55,12.93
				C241.52,100.13,247.86,113.34,247.86,128.04z"/>
			<path class="st1" d="M164.951,182.808H18.143c-5.523,0-10-4.477-10-10V58.952c0-5.523,4.477-10,10-10h136.808
				c5.523,0,10,4.477,10,10V182.808z"/>
			<circle class="st1" cx="52.193" cy="182.808" r="24.241"/>
			<path class="st9" d="M230.029,128.867H180.75v-34.13h24.279c13.807,0,25,11.193,25,25V128.867z"/>
			<circle class="st17" cx="86.547" cy="115.88" r="40.799"/>
			<path class="st2" d="M77.538,118.732c4.019-6.96,14.065-6.96,18.084,0c0.035,0.061,3.632,6.29,3.602,6.238
				c4.019,6.96-1.005,15.661-9.042,15.661c-0.07,0-7.264,0-7.203,0c-8.037,0-13.06-8.701-9.042-15.661
				C73.971,124.909,77.568,118.679,77.538,118.732z"/>
			<path class="st6" d="M33.14,182.81h-15c-5.52,0-10-4.48-10-10V58.95c0-5.52,4.48-10,10-10h15c-5.52,0-10,4.48-10,10v113.86
				C23.14,178.33,27.62,182.81,33.14,182.81z"/>
			<path class="st18" d="M127.35,115.88c0,22.53-18.27,40.8-40.8,40.8c-2.56,0-5.07-0.24-7.5-0.69c18.95-3.52,33.3-20.14,33.3-40.11
				c0-19.97-14.35-36.59-33.3-40.11C104.337,71.087,127.35,90.507,127.35,115.88z"/>
			<path class="st19" d="M94.05,155.99c-2.43,0.45-4.94,0.69-7.5,0.69c-22.54,0-40.8-18.27-40.8-40.8
				c0-25.428,23.059-44.784,48.3-40.11c-18.96,3.52-33.3,20.14-33.3,40.11C60.75,135.85,75.09,152.47,94.05,155.99z"/>
			<path class="st20" d="M94.08,139.89c-1.19,0.48-2.5,0.74-3.9,0.74h-7.2c-8.04,0-13.06-8.7-9.04-15.66l3.6-6.24
				c3.58-6.2,11.93-6.88,16.54-2.04c-0.59,0.6-1.1,1.28-1.54,2.04l-3.6,6.24C85.62,130.72,88.47,137.65,94.08,139.89z"/>
			<path class="st6" d="M59.69,205.86c-2.36,0.78-4.88,1.19-7.5,1.19c-13.39,0-24.24-10.85-24.24-24.24s10.85-24.24,24.24-24.24
				c2.62,0,5.14,0.41,7.5,1.19c-9.72,3.15-16.74,12.28-16.74,23.05C42.95,193.58,49.97,202.71,59.69,205.86z"/>
			<circle class="st11" cx="52.193" cy="182.808" r="10.113"/>
			<rect x="164.95" y="78.04" class="st19" width="15" height="104.77"/>
			<path class="st11" d="M164.95,58.95v123.86h-15V58.95c0-5.52-4.48-10-10-10h15C160.47,48.95,164.95,53.43,164.95,58.95z"/>
			<rect x="180.75" y="94.74" class="st10" width="15" height="34.13"/>
			<path class="st18" d="M247.86,128.04v44.77c0,5.52-4.48,10-10,10h-14.68c5.52,0,10-4.48,10-10v-44.77
				c0-14.7-6.34-27.91-16.45-37.07c-8.87-8.03-20.64-12.93-33.55-12.93h14.68c12.91,0,24.68,4.9,33.55,12.93
				C241.52,100.13,247.86,113.34,247.86,128.04z"/>
			<circle class="st1" cx="206.012" cy="182.808" r="24.241"/>
			<path class="st6" d="M213.51,205.86c-2.36,0.78-4.88,1.19-7.5,1.19c-13.39,0-24.24-10.85-24.24-24.24s10.85-24.24,24.24-24.24
				c2.62,0,5.14,0.41,7.5,1.19c-9.72,3.15-16.74,12.28-16.74,23.05C196.77,193.58,203.79,202.71,213.51,205.86z"/>
			<circle class="st11" cx="206.012" cy="182.808" r="10.113"/>
		</g>
	</g>
	<g>
		<path class="st8" d="M197.86,74.04h-28.91V58.95c0-7.72-6.28-14-14-14H18.14c-7.72,0-14,6.28-14,14v113.86c0,7.72,6.28,14,14,14
			h6.1c1.94,13.68,13.74,24.24,27.95,24.24c14.21,0,26.01-10.56,27.95-24.24c11.507,0,86.481,0,97.92,0
			c1.94,13.68,13.74,24.24,27.95,24.24s26.01-10.56,27.95-24.24h3.9c7.72,0,14-6.28,14-14v-44.77
			C251.86,98.27,227.63,74.04,197.86,74.04z M243.86,172.81c0,3.31-2.69,6-6,6h-3.9c-1.94-13.68-13.74-24.24-27.95-24.24
			s-26.01,10.56-27.95,24.24h-9.11V82.04h28.91c25.36,0,46,20.64,46,46V172.81z M206.01,203.05c-11.196,0-20.24-9.122-20.24-20.24
			c0-11.126,9.052-20.24,20.24-20.24c11.194,0,20.24,9.121,20.24,20.24C226.25,193.929,217.204,203.05,206.01,203.05z M52.19,203.05
			c-11.197,0-20.24-9.123-20.24-20.24c0-11.118,9.045-20.24,20.24-20.24c11.196,0,20.24,9.122,20.24,20.24
			C72.43,193.936,63.378,203.05,52.19,203.05z M52.19,154.57c-14.21,0-26.01,10.56-27.95,24.24h-6.1c-3.31,0-6-2.69-6-6V58.95
			c0-3.31,2.69-6,6-6h136.81c3.31,0,6,2.69,6,6c0,5.386,0-21.132,0,119.86c-13.087,0-72.61,0-80.81,0
			C78.2,165.13,66.4,154.57,52.19,154.57z"/>
		<path class="st8" d="M52.19,168.69c-7.798,0-14.11,6.367-14.11,14.12c0,7.754,6.31,14.11,14.11,14.11
			c7.877,0,14.12-6.439,14.12-14.11C66.31,175.129,60.053,168.69,52.19,168.69z M52.19,188.92c-3.337,0-6.11-2.697-6.11-6.11
			c0-3.384,2.748-6.12,6.11-6.12c3.417,0,6.12,2.806,6.12,6.12C58.31,186.169,55.567,188.92,52.19,188.92z"/>
		<path class="st8" d="M206.01,168.69c-7.798,0-14.11,6.367-14.11,14.12c0,7.754,6.31,14.11,14.11,14.11
			c7.875,0,14.12-6.437,14.12-14.11C220.13,175.134,213.878,168.69,206.01,168.69z M206.01,188.92c-3.336,0-6.11-2.696-6.11-6.11
			c0-3.384,2.748-6.12,6.11-6.12c3.391,0,6.12,2.779,6.12,6.12C212.13,186.163,209.393,188.92,206.01,188.92z"/>
		<path class="st8" d="M205.03,90.74h-24.28c-2.21,0-4,1.79-4,4v34.13c0,2.21,1.79,4,4,4h49.28c2.21,0,4-1.79,4-4v-9.13
			C234.03,103.75,221.02,90.74,205.03,90.74z M226.03,124.87h-41.28V98.74h20.28c11.58,0,21,9.42,21,21V124.87z"/>
		<path class="st8" d="M192.19,139.34h-10.42c-5.281,0-5.294,8,0,8h10.42C197.496,147.34,197.463,139.34,192.19,139.34z"/>
		<path class="st8" d="M86.55,71.08c-24.71,0-44.8,20.1-44.8,44.8c0,24.7,20.09,44.8,44.8,44.8c24.7,0,44.8-20.1,44.8-44.8
			C131.35,91.18,111.25,71.08,86.55,71.08z M86.55,152.68c-20.29,0-36.8-16.51-36.8-36.8c0-20.29,16.51-36.8,36.8-36.8
			s36.8,16.51,36.8,36.8C123.35,136.17,106.84,152.68,86.55,152.68z"/>
		<path class="st8" d="M99.08,116.73c-5.541-9.596-19.406-9.668-25.01,0l-3.6,6.24c-5.56,9.629,1.385,21.66,12.51,21.66h7.2
			c11.122,0,18.072-12.029,12.51-21.66L99.08,116.73z M90.18,136.63h-7.2c-4.974,0-8.048-5.362-5.58-9.66l3.6-6.24
			c2.501-4.296,8.661-4.293,11.16,0l3.6,6.24C98.23,131.272,95.145,136.63,90.18,136.63z"/>
		<g>
			<path class="st8" d="M81.739,107.05c2.92-1.07,4.01-5.44,2.43-9.77c-1.58-4.33-5.22-6.98-8.14-5.92c-2.92,1.06-4,5.44-2.43,9.77
				C75.179,105.46,78.819,108.11,81.739,107.05z"/>
			<path class="st8" d="M91.959,107.05c2.92,1.06,6.56-1.59,8.14-5.92c1.57-4.33,0.49-8.71-2.43-9.77
				c-2.92-1.06-6.56,1.59-8.14,5.92C87.949,101.61,89.039,105.98,91.959,107.05z"/>
		</g>
		<g>
			<path class="st8" d="M70.371,118.7c2.92-1.06,4.01-5.43,2.43-9.76c-1.57-4.33-5.22-6.98-8.13-5.92
				c-2.92,1.06-4.01,5.43-2.43,9.76C63.811,117.11,67.461,119.76,70.371,118.7z"/>
			<path class="st8" d="M109.031,103.02c-2.92-1.06-6.56,1.59-8.14,5.92c-1.58,4.33-0.49,8.7,2.43,9.76
				c2.92,1.06,6.56-1.59,8.14-5.92C113.031,108.45,111.951,104.08,109.031,103.02z"/>
		</g>
		<path class="st8" d="M146.82,76.51c0,5.321,8,5.309,8,0c0-3.567,0-5.136,0-8.67c0-4.96-4.03-9-9-9h-21.47c-5.285,0-5.293,8,0,8
			h21.47c0.56,0,1,0.45,1,1V76.51z"/>
		<path class="st8" d="M154.82,98.2v-6.69c0-5.319-8-5.308-8,0v6.69C146.82,103.482,154.82,103.544,154.82,98.2z"/>
	</g>
</g>
</svg>
