<?xml version="1.0" encoding="utf-8"?>
<!-- Generator: Adobe Illustrator 22.1.0, SVG Export Plug-In . SVG Version: 6.00 Build 0)  -->
<svg version="1.1" id="Icon_Set" xmlns="http://www.w3.org/2000/svg" xmlns:xlink="http://www.w3.org/1999/xlink" x="0px" y="0px"
	 viewBox="0 0 256 256" style="enable-background:new 0 0 256 256;" xml:space="preserve">
<style type="text/css">
	.st0{fill:#5FCDFF;}
	.st1{fill:#87828E;}
	.st2{fill:#B76C6C;}
	.st3{fill:#FF4A73;}
	.st4{fill:#73D7F9;}
	.st5{fill:#30B6FF;}
	.st6{fill:#A4A4A5;}
	.st7{fill:#F973A3;}
	.st8{fill:#5F266D;}
	.st9{fill:#FFE2E2;}
	.st10{fill:#FFEFEE;}
	.st11{fill:#796E84;}
	.st12{fill:#3193F3;}
	.st13{fill:#35B1FC;}
	.st14{fill:#307FED;}
	.st15{fill:#FFCFCF;}
	.st16{fill:#EA2A6A;}
	.st17{fill:#44C7B6;}
	.st18{fill:#3BB2A0;}
	.st19{fill:#4BDBC3;}
	.st20{fill:#C98585;}
	.st21{fill:#965959;}
	.st22{fill:#FFBB98;}
	.st23{fill:#FFCAA6;}
	.st24{fill:#FFAA80;}
	.st25{fill:#F9D335;}
	.st26{fill:#F2C300;}
	.st27{fill:#F9E27D;}
</style>
<g>
	<g>
		<path class="st17" d="M89.667,124.855v13.26l-0.15,24.43c-0.02,4.56-3.73,8.23-8.28,8.23h-0.28c-21.39,0-34.76,17.3-34.89,38.76
			c-0.12,21.53,17.23,39.08,38.76,39.21l8.27,0.05h1.19c12.01,0.07,21.8-9.6,21.87-21.61l0.33-56.23l0.07-12.36l0.48-33.74H89.667z
			 M93.297,221.545c-0.01,2.41-1.97,4.34-4.37,4.33l-3.97-0.03c-8.78-0.05-15.9-7.16-15.99-15.91c-0.1-9,7.61-16.32,16.61-16.27
			l3.53,0.03c2.41,0.01,4.34,1.97,4.33,4.37L93.297,221.545z"/>
		<path class="st11" d="M111.557,7.185c-0.52,0-1.02,0.08-1.49,0.23c-0.47,0.14-0.91,0.36-1.31,0.63c-1.32,0.9-2.2,2.42-2.2,4.15
			v48.55v4.97c0,6.65-1.1,13.24-3.26,19.52l-13.63,39.62h22.19l9.81-20.79l13.36-41.76v-22.8V7.185H111.557z"/>
		<path class="st6" d="M154.307,124.856h-21.533l-19.144-35.854c-4.643-8.696-7.072-18.402-7.072-28.261V12.192c0-2.761,2.239-5,5-5
			h23.44c-10.576,0-18.776,10.163-15.367,21.256c2.046,6.658,8.402,11.053,15.367,11.053h0.03v24.896
			c0,7.505,1.408,14.944,4.151,21.93L154.307,124.856z"/>
		<path class="st6" d="M156.446,18.867c0,0,22.814-14.16,47.235-11.294l-26.899,19.382L156.446,18.867z"/>
		<path class="st6" d="M184.768,61.748c0,0,20.441,17.41,25.158,41.542l-26.66-19.709L184.768,61.748z"/>
		<path class="st6" d="M62.467,91.834c0,0-9.481-25.121-1.948-48.527l13.815,30.139L62.467,91.834z"/>
		<path class="st6" d="M154.307,124.855h-21.53l-19.15-35.85c-4.64-8.7-7.07-18.41-7.07-28.26v-48.55c0-2.77,2.24-5,5-5h23.44
			c-5.61,0-10.55,2.86-13.44,7.2c-2.57,3.84-3.53,8.84-1.93,14.05c0.45,1.46,1.11,2.8,1.93,4.02c2.93,4.35,7.99,7.04,13.44,7.04
			h0.03v24.89c0,7.51,1.41,14.95,4.15,21.93L154.307,124.855z"/>
		<path class="st1" d="M154.307,124.855h-6.53l-19.15-35.85c-4.64-8.7-7.07-18.41-7.07-28.26v-28.28c2.93,4.35,7.99,7.04,13.44,7.04
			h0.03v24.89c0,7.51,1.41,14.95,4.15,21.93L154.307,124.855z"/>
		<path class="st19" d="M89.667,124.855v13.26l-0.15,24.43c-0.02,4.56-3.73,8.23-8.28,8.23h-0.28c-21.39,0-34.76,17.3-34.89,38.76
			c-0.12,21.53,17.23,39.08,38.76,39.21l8.27,0.05h1.19c0.94,0.01,1.86-0.05,2.77-0.16c-20.23-1.55-36.1-18.5-35.99-39.1
			c0.13-21.46,13.5-38.76,34.89-38.76h0.28c4.55,0,8.26-3.67,8.28-8.23l0.15-24.43v-13.26H89.667z"/>
		<path class="st18" d="M102.037,124.855l-0.48,33.74l-0.07,12.36l-0.33,56.23c-0.06,11.07-8.39,20.15-19.1,21.45
			c0.91,0.07,1.84,0.1,2.77,0.11l8.27,0.05h1.19c12.01,0.07,21.8-9.6,21.87-21.61l0.33-56.23l0.07-12.36l0.48-33.74H102.037z"/>
		<path class="st17" d="M127.288,124.855l0.48,33.74l0.07,12.36l0.33,56.23c0.07,12.01,9.86,21.68,21.87,21.61h1.19l8.27-0.05
			c21.53-0.13,38.88-17.68,38.76-39.21c-0.13-21.46-13.5-38.76-34.89-38.76h-0.28c-4.55,0-8.26-3.67-8.28-8.23l-0.15-24.43v-13.26
			H127.288z M150.888,198.065c-0.01-2.4,1.92-4.36,4.33-4.37l3.53-0.03c9-0.05,16.71,7.27,16.61,16.27
			c-0.09,8.75-7.21,15.86-15.99,15.91l-3.97,0.03c-2.4,0.01-4.36-1.92-4.37-4.33L150.888,198.065z"/>
		<path class="st18" d="M139.658,124.855v13.26l0.15,24.43c0.02,4.56,3.73,8.23,8.28,8.23h0.28c21.39,0,34.76,17.3,34.89,38.76
			c0.11,20.6-15.76,37.55-35.99,39.1c0.91,0.11,1.83,0.17,2.77,0.16h1.19l8.27-0.05c21.53-0.13,38.88-17.68,38.76-39.21
			c-0.13-21.46-13.5-38.76-34.89-38.76h-0.28c-4.55,0-8.26-3.67-8.28-8.23l-0.15-24.43v-13.26H139.658z"/>
		<path class="st19" d="M127.288,124.855l0.48,33.74l0.07,12.36l0.33,56.23c0.07,12.01,9.86,21.68,21.87,21.61h1.19l8.27-0.05
			c0.93-0.01,1.86-0.04,2.77-0.11c-10.71-1.3-19.04-10.38-19.1-21.45l-0.33-56.23l-0.07-12.36l-0.48-33.74H127.288z"/>
	</g>
	<g>
		<path class="st8" d="M85.599,189.668c-11.015-0.06-20.758,8.868-20.634,20.312c0.119,10.891,9.079,19.804,19.974,19.868
			l3.96,0.023c0.017,0,0.033,0,0.051,0c4.585,0,8.321-3.697,8.348-8.3l0.137-23.482c0.014-2.23-0.843-4.333-2.41-5.919
			C92.207,189.317,89.299,189.689,85.599,189.668z M89.297,221.523C89.297,221.524,89.297,221.524,89.297,221.523
			c0,0.188-0.152,0.347-0.35,0.347c-0.001,0-0.001,0-0.002,0l-3.96-0.023c-6.557-0.038-11.949-5.401-12.021-11.955
			c-0.133-12.165,15.321-13.163,16.368-12.101C89.491,197.951,89.298,221.299,89.297,221.523z"/>
		<path class="st8" d="M162.999,166.769c-0.082,0-0.165,0-0.248,0c-2.318,0.029-4.284-1.893-4.298-4.248
			c-0.171-29.25-0.143-20.962-0.143-37.668c0-0.017-0.005-0.032-0.005-0.049c-0.012-1,0.327,0.122-15.404-39.94
			c-2.571-6.547-3.875-13.434-3.875-20.468v-2.083c0-0.003,0.001-0.006,0.001-0.01V7.183c0-2.209-1.791-4-4-4
			c-28.23,0-22.722-0.01-23.729,0.02c-4.959,0.14-8.741,4.236-8.741,8.987v0.004c0,58.552,0.895,60.294-3.042,71.738
			c-14.068,40.893-13.853,39.913-13.853,40.922c0,16.666,0.029,8.345-0.143,37.669c-0.007,1.141-0.457,2.211-1.269,3.013
			c-0.806,0.796-1.871,1.234-3.003,1.234c-0.009,0-0.017,0-0.025,0c-11.341-0.041-21.521,4.422-28.64,12.639
			c-6.712,7.75-10.446,18.438-10.514,30.097c-0.067,11.482,4.341,22.303,12.413,30.47c8.071,8.167,18.84,12.701,30.322,12.768
			l9.459,0.055c0.052,0,0.103,0,0.155,0c6.818,0,13.239-2.637,18.094-7.435c4.892-4.834,7.607-11.284,7.647-18.161l0.4-68.551
			l0.473-33.742c0.015-1.071-0.4-2.103-1.151-2.865c-0.497-0.504-1.12-0.845-1.791-1.031l3.799-8.051l4.256,7.97
			c-0.774,0.157-1.491,0.541-2.053,1.111c-0.752,0.762-1.167,1.794-1.152,2.864l0.472,33.709l0.401,68.583
			c0.04,6.877,2.756,13.327,7.647,18.162c4.854,4.798,11.274,7.435,18.094,7.435c0.052,0,0.104,0,0.155,0
			c10.129-0.059,25.685,1.44,39.781-12.823c18.129-18.34,14.374-46.162,1.898-60.566
			C184.325,171.252,174.251,166.769,162.999,166.769z M131.028,11.857v22.989C119.988,31.132,120.284,15.542,131.028,11.857z
			 M112.561,158.572l-0.4,68.583c-0.027,4.74-1.899,9.186-5.271,12.519c-3.346,3.307-7.771,5.125-12.472,5.125
			c-0.035,0-0.071,0-0.106,0l-9.459-0.055c-9.346-0.054-18.11-3.745-24.68-10.392c-6.569-6.647-10.157-15.454-10.103-24.799
			c0.057-9.752,3.097-18.598,8.561-24.906c5.6-6.465,13.319-9.877,22.337-9.877c0.094,0,0.188,0,0.282,0
			c3.251,0,6.312-1.257,8.625-3.544c2.332-2.305,3.627-5.379,3.646-8.657c0.171-29.285,0.143-22.052,0.143-33.715h19.314
			L112.561,158.572z M109.323,120.853H95.274c13.607-39.556,11.615-33.73,12.197-35.538c1.546,3.723,2.105,4.584,9.724,18.854
			L109.323,120.853z M110.557,60.738c0-0.374,0.004-48.568,0.004-48.568c0.01-0.51,0.431-0.981,0.996-0.981h7.363
			c-0.046,0.062-0.092,0.123-0.138,0.185c-3.853,5.214-4.938,11.865-2.977,18.247c2.123,6.911,8.095,12.059,15.221,13.483v21.292
			c0,8.039,1.49,15.91,4.428,23.392l12.984,33.066h-13.267C116.366,85.632,110.557,78.312,110.557,60.738z M183.802,234.351
			c-11.543,11.677-24.001,10.388-34.139,10.447c-0.036,0-0.071,0-0.106,0c-4.7,0-9.127-1.818-12.473-5.125
			c-3.371-3.332-5.243-7.778-5.271-12.518l-0.401-68.616l-0.415-29.686h1.776h17.537c0,11.685-0.028,4.44,0.143,33.716
			c0.04,6.742,5.539,12.2,12.272,12.2c0.095,0,0.188,0,0.282,0c9.016,0,16.735,3.413,22.335,9.877
			C195.316,196.16,198.753,219.223,183.802,234.351z"/>
		<path class="st8" d="M158.491,189.667c-0.038,0-0.077,0-0.116,0l-3.534,0.021c-4.604,0.027-8.327,3.794-8.301,8.398l0.138,23.483
			c0.026,4.594,3.753,8.3,8.347,8.3c0.017,0,0.034,0,0.051,0l3.961-0.023c17.432-0.102,26.787-21.328,14.128-34.052
			C169.285,191.897,163.943,189.667,158.491,189.667z M158.989,221.847l-3.961,0.023c-0.191,0.022-0.351-0.162-0.351-0.347v0
			l-0.138-23.483c-0.001-0.193,0.155-0.351,0.348-0.352c3.436-0.02,8.25-0.628,12.605,3.75
			C175.133,209.118,169.422,221.787,158.989,221.847z"/>
		<circle class="st8" cx="121.232" cy="76.296" r="4.875"/>
		<path class="st8" d="M154.968,22.582c21.712,8.635,21.781,9.326,24.152,7.616l26.898-19.381c2.953-2.127,1.746-6.793-1.872-7.218
			c-25.513-2.993-48.83,11.26-49.81,11.868C151.55,17.196,151.924,21.371,154.968,22.582z M191.445,11.458l-15.222,10.967
			l-10.098-4.016C172.185,15.704,181.321,12.406,191.445,11.458z"/>
		<path class="st8" d="M213.852,102.52c-4.929-25.213-25.612-43.072-26.49-43.819c-2.498-2.127-6.359-0.499-6.584,2.771
			l-1.502,21.833c-0.094,1.363,0.514,2.679,1.612,3.491l26.66,19.708C210.464,108.659,214.552,106.102,213.852,102.52z
			 M187.407,81.666l0.746-10.841c4.425,4.946,10.35,12.641,14.341,21.994L187.407,81.666z"/>
		<path class="st8" d="M65.828,94.001l11.866-18.389c0.74-1.148,0.844-2.594,0.274-3.835L64.155,41.638
			c-1.508-3.291-6.322-3.04-7.443,0.441c-7.871,24.456,1.606,50.086,2.014,51.166C59.888,96.327,64.054,96.749,65.828,94.001z
			 M61.966,56.062l7.817,17.055l-5.893,9.131C62.409,75.779,60.94,66.179,61.966,56.062z"/>
	</g>
</g>
</svg>
