<?xml version="1.0" encoding="utf-8"?>
<!-- Generator: Adobe Illustrator 22.1.0, SVG Export Plug-In . SVG Version: 6.00 Build 0)  -->
<svg version="1.1" id="Icon_Set" xmlns="http://www.w3.org/2000/svg" xmlns:xlink="http://www.w3.org/1999/xlink" x="0px" y="0px"
	 viewBox="0 0 256 256" style="enable-background:new 0 0 256 256;" xml:space="preserve">
<style type="text/css">
	.st0{fill:#5FCDFF;}
	.st1{fill:#87828E;}
	.st2{fill:#B76C6C;}
	.st3{fill:#FF4A73;}
	.st4{fill:#73D7F9;}
	.st5{fill:#30B6FF;}
	.st6{fill:#A4A4A5;}
	.st7{fill:#F973A3;}
	.st8{fill:#5F266D;}
	.st9{fill:#FFE2E2;}
	.st10{fill:#FFEFEE;}
	.st11{fill:#796E84;}
	.st12{fill:#3193F3;}
	.st13{fill:#35B1FC;}
	.st14{fill:#307FED;}
	.st15{fill:#FFCFCF;}
	.st16{fill:#EA2A6A;}
	.st17{fill:#44C7B6;}
	.st18{fill:#3BB2A0;}
	.st19{fill:#4BDBC3;}
	.st20{fill:#C98585;}
	.st21{fill:#965959;}
	.st22{fill:#FFBB98;}
	.st23{fill:#FFCAA6;}
	.st24{fill:#FFAA80;}
	.st25{fill:#F9D335;}
	.st26{fill:#F2C300;}
	.st27{fill:#F9E27D;}
</style>
<g>
	<g>
		<path class="st3" d="M74.016,66.937c-0.173-5.057-6.958-6.695-9.369-2.246c-8.454,15.6-1.009,30.653-1.009,30.653l19.476-5.399
			C76.236,86.513,74.323,75.926,74.016,66.937z"/>
		<path class="st3" d="M209.307,129.065c-11.84-3.74-21.94,0.1-26.94,2.75l6.5,18.03v-0.01c3.22-6.03,12.13-9.34,20.01-11.14
			C213.807,137.565,214.137,130.595,209.307,129.065z"/>
		<path class="st3" d="M158.056,70.109c-17.254,4.138-23.475,19.737-23.475,19.737l17.032,10.879
			c-2.044-7.411,4.553-15.909,11.034-22.146C166.293,75.07,162.976,68.929,158.056,70.109z"/>
		<path class="st3" d="M17.581,108.038c-2.714-4.27-9.392-2.24-9.213,2.817c0.627,17.732,14.679,26.928,14.679,26.928l14.046-14.532
			C29.424,123.782,22.406,115.628,17.581,108.038z"/>
		<path class="st2" d="M165.196,122.272c-4.5-0.437-8.088-3.797-8.821-8.258c-3.811-23.197-27.267-31.656-45.039-16.298
			c-3.733,3.226-9.212,3.218-12.946-0.006c-17.622-15.219-40.835-7.038-44.933,15.752c-0.796,4.425-4.487,7.745-8.967,8.133
			c-10.644,0.92-19.837,8.608-22.937,21.067c-4.673,18.772,6.013,41.856,23.378,48.638c4.32,1.687,7.072,6.069,6.473,10.667
			c-1.003,7.7,0.164,15.577,3.509,22.857c7.013,15.261,22.62,24.732,39.415,24.732h17.567c17.309,0,33.301-10.067,40.015-26.022
			c2.732-6.492,3.767-13.416,3.106-20.236c-0.468-4.828,2.643-9.175,7.288-10.574c10.687-3.219,19.558-12.916,23.851-24.712
			c0,0,0.001,0,0.001-0.001C194.353,145.492,183.887,124.086,165.196,122.272z"/>
		<g>
			<path class="st1" d="M78.65,176.271c10.879-18.843,38.077-18.843,48.956,0l4.875,8.444l4.875,8.444
				c10.879,18.843-2.72,42.397-24.478,42.397h-9.75h-9.75c-21.758,0-35.357-23.554-24.478-42.397l4.875-8.444L78.65,176.271z"/>
			
				<ellipse transform="matrix(0.9397 -0.342 0.342 0.9397 -38.0186 36.0144)" class="st1" cx="83.115" cy="125.814" rx="15.224" ry="22.59"/>
			
				<ellipse transform="matrix(0.9397 -0.342 0.342 0.9397 -50.7655 26.8375)" class="st1" cx="50.719" cy="157.371" rx="15.224" ry="22.59"/>
			
				<ellipse transform="matrix(0.342 -0.9397 0.9397 0.342 -34.9123 201.7686)" class="st1" cx="126.622" cy="125.814" rx="22.59" ry="15.224"/>
			
				<ellipse transform="matrix(0.342 -0.9397 0.9397 0.342 -44.0695 253.0959)" class="st1" cx="158.694" cy="158.017" rx="22.59" ry="15.224"/>
		</g>
		<path class="st6" d="M108.381,235.56h-15c-21.76,0-35.36-23.56-24.48-42.4l4.87-8.45l4.88-8.44c6.88-11.92,20.3-16.3,31.98-13.13
			c-6.78,1.83-12.98,6.21-16.98,13.13l-4.88,8.44l-4.87,8.45C73.021,212,86.621,235.56,108.381,235.56z"/>
		<path class="st6" d="M94.211,145.03c-0.99,0.88-2.12,1.56-3.37,2.01c-7.9,2.88-17.76-4.29-22.03-16.02
			c-4.27-11.72-1.32-23.56,6.58-26.43c3.7-1.35,7.84-0.49,11.63,2.01c-5.28,4.61-6.8,14.56-3.21,24.42
			C86.081,137.25,89.921,142.2,94.211,145.03z"/>
		<path class="st6" d="M61.811,176.59c-0.99,0.88-2.12,1.56-3.37,2.01c-7.9,2.88-17.76-4.3-22.03-16.02
			c-4.26-11.73-1.32-23.56,6.58-26.44c3.7-1.34,7.84-0.49,11.62,2.02c-5.27,4.62-6.78,14.56-3.2,24.42
			C53.681,168.8,57.521,173.75,61.811,176.59z"/>
		<path class="st6" d="M127.311,120.61c-3.58,9.86-2.07,19.81,3.21,24.42c-3.79,2.5-7.92,3.36-11.63,2.01
			c-7.9-2.87-10.84-14.71-6.58-26.43c4.27-11.73,14.14-18.9,22.04-16.02c1.25,0.46,2.38,1.14,3.37,2.01
			C133.431,109.43,129.581,114.38,127.311,120.61z"/>
		<path class="st6" d="M159.391,152.81c-3.59,9.86-2.07,19.81,3.21,24.42c-3.79,2.5-7.93,3.36-11.63,2.01
			c-7.9-2.87-10.85-14.71-6.58-26.43s14.13-18.9,22.03-16.02c1.25,0.45,2.38,1.13,3.37,2.01
			C165.501,141.64,161.661,146.59,159.391,152.81z"/>
		<path class="st16" d="M241.437,48.008h-31.232c-5.523,0-10-4.477-10-10v-7.901c0-5.523,4.477-10,10-10h31.232
			c5.523,0,10,4.477,10,10v7.901C251.437,43.531,246.96,48.008,241.437,48.008z"/>
		<path class="st25" d="M196.509,75.045c-0.153-0.42-0.287-0.803-0.392-1.137c-0.115,0.334-0.239,0.717-0.401,1.137
			c-1.758,4.825-6.63,15.095-16.241,15.458c9.621,0.363,14.493,10.633,16.251,15.458c0.153,0.42,0.287,0.803,0.392,1.137
			c0.115-0.334,0.239-0.717,0.401-1.137c1.758-4.825,6.63-15.095,16.241-15.458C203.139,90.139,198.267,79.869,196.509,75.045z"/>
		<path class="st25" d="M34.882,18.843c-0.176-0.485-0.331-0.926-0.452-1.312c-0.132,0.386-0.276,0.827-0.463,1.312
			c-2.029,5.568-7.652,17.421-18.744,17.84c11.103,0.419,16.726,12.272,18.755,17.84c0.176,0.485,0.331,0.926,0.452,1.312
			c0.132-0.386,0.276-0.827,0.463-1.312c2.029-5.568,7.652-17.421,18.744-17.84C42.534,36.264,36.911,24.411,34.882,18.843z"/>
		<path class="st25" d="M21.602,63.264c-0.153-0.42-0.287-0.803-0.392-1.137c-0.115,0.334-0.239,0.717-0.401,1.137
			c-1.758,4.825-6.63,15.095-16.241,15.458c9.621,0.363,14.493,10.633,16.251,15.458c0.153,0.42,0.287,0.803,0.392,1.137
			c0.115-0.334,0.239-0.717,0.401-1.137c1.758-4.825,6.63-15.095,16.241-15.458C28.232,78.359,23.36,68.088,21.602,63.264z"/>
		<path class="st3" d="M221.243,48.008h-11.04c-5.52,0-10-4.48-10-10v-7.9c0-5.52,4.48-10,10-10h11.04c-5.52,0-10,4.48-10,10v7.9
			C211.243,43.528,215.723,48.008,221.243,48.008z"/>
		<path class="st25" d="M201.643,96.628c-2.61,3.2-4.25,6.94-5.12,9.33c-0.17,0.42-0.29,0.8-0.41,1.14
			c-0.1-0.34-0.23-0.72-0.39-1.14c-1.76-4.82-6.63-15.09-16.25-15.46c9.61-0.36,14.49-10.63,16.24-15.45
			c0.17-0.42,0.29-0.81,0.4-1.14c0.11,0.33,0.24,0.72,0.4,1.14c0.86,2.39,2.51,6.13,5.12,9.33c-2.64,3.24-6.28,5.94-11.12,6.12
			C195.353,90.688,198.993,93.378,201.643,96.628z"/>
		<path class="st25" d="M39.953,44.848c-2.52,3.42-4.16,7.18-5.06,9.67c-0.19,0.49-0.33,0.93-0.46,1.32
			c-0.12-0.39-0.28-0.83-0.46-1.32c-2.02-5.56-7.65-17.42-18.75-17.84c11.09-0.41,16.72-12.27,18.74-17.83
			c0.19-0.49,0.33-0.93,0.47-1.32c0.12,0.39,0.27,0.83,0.45,1.32c0.91,2.49,2.54,6.24,5.06,9.67c-3.1,4.22-7.56,7.93-13.68,8.16
			C32.393,36.908,36.853,40.628,39.953,44.848z"/>
		<path class="st25" d="M26.733,84.858c-2.61,3.2-4.25,6.93-5.12,9.32c-0.16,0.42-0.29,0.8-0.4,1.14c-0.11-0.34-0.24-0.72-0.39-1.14
			c-1.76-4.82-6.63-15.09-16.26-15.46c9.62-0.36,14.49-10.63,16.25-15.45c0.16-0.42,0.28-0.81,0.4-1.14
			c0.1,0.33,0.24,0.72,0.39,1.14c0.87,2.39,2.52,6.13,5.13,9.33c-2.65,3.24-6.29,5.94-11.13,6.12
			C20.453,78.908,24.093,81.608,26.733,84.858z"/>
		<path class="st3" d="M221.243,48.008h-11.04c-5.52,0-10-4.48-10-10v-7.9c0-5.52,4.48-10,10-10h11.04c-5.52,0-10,4.48-10,10v7.9
			C211.243,43.528,215.723,48.008,221.243,48.008z"/>
		<path class="st27" d="M201.643,96.628c-2.61,3.2-4.25,6.94-5.12,9.33c-0.17,0.42-0.29,0.8-0.41,1.14
			c-0.1-0.34-0.23-0.72-0.39-1.14c-1.76-4.82-6.63-15.09-16.25-15.46c9.61-0.36,14.49-10.63,16.24-15.45
			c0.17-0.42,0.29-0.81,0.4-1.14c0.11,0.33,0.24,0.72,0.4,1.14c0.86,2.39,2.51,6.13,5.12,9.33c-0.664,0.816-1.392,1.597-2.187,2.312
			c-2.291,2.063-2.29,5.557,0.002,7.619C200.245,95.025,200.975,95.809,201.643,96.628z"/>
		<path class="st27" d="M39.953,44.848c-2.52,3.42-4.16,7.18-5.06,9.67c-0.19,0.49-0.33,0.93-0.46,1.32
			c-0.12-0.39-0.28-0.83-0.46-1.32c-2.02-5.56-7.65-17.42-18.75-17.84c11.09-0.41,16.72-12.27,18.74-17.83
			c0.19-0.49,0.33-0.93,0.47-1.32c0.12,0.39,0.27,0.83,0.45,1.32c0.91,2.49,2.54,6.24,5.06,9.67
			c-1.125,1.532-2.43,2.996-3.928,4.252c-2.461,2.062-2.463,5.753-0.002,7.814C37.517,41.843,38.825,43.312,39.953,44.848z"/>
		<path class="st27" d="M26.733,84.858c-2.61,3.2-4.25,6.93-5.12,9.32c-0.16,0.42-0.29,0.8-0.4,1.14c-0.11-0.34-0.24-0.72-0.39-1.14
			c-1.76-4.82-6.63-15.09-16.26-15.46c9.62-0.36,14.49-10.63,16.25-15.45c0.16-0.42,0.28-0.81,0.4-1.14
			c0.1,0.33,0.24,0.72,0.39,1.14c0.87,2.39,2.52,6.13,5.13,9.33c-0.667,0.816-1.398,1.598-2.194,2.313
			c-2.292,2.06-2.296,5.554-0.006,7.616C25.333,83.248,26.065,84.035,26.733,84.858z"/>
	</g>
	<g>
		<path class="st8" d="M131.072,174.269c-5.832-10.102-16.277-16.132-27.941-16.132c-11.665,0-22.11,6.031-27.942,16.132
			l-9.75,16.887c-5.832,10.102-5.832,22.164,0,32.266c5.832,10.101,16.277,16.132,27.941,16.132h19.501
			c24.835,0,40.37-26.869,27.941-48.397L131.072,174.269z M112.881,231.554H93.38c-8.771,0-16.627-4.535-21.014-12.132
			c-4.386-7.597-4.386-16.668,0-24.265l9.75-16.887c4.387-7.597,12.242-12.132,21.015-12.132c8.771,0,16.627,4.535,21.014,12.132
			l9.75,16.887C143.238,211.342,131.567,231.554,112.881,231.554z"/>
		<path class="st8" d="M102.577,138.107c1.433-5.758,0.938-12.459-1.396-18.869c-8.415-23.125-32.503-25.894-37.524-5.72
			c-1.434,5.757-0.938,12.458,1.396,18.87C73.612,155.901,97.63,157.985,102.577,138.107z M85.416,110.355
			c3.474,2.525,6.479,6.76,8.247,11.618c0,0,0,0,0,0c1.769,4.858,2.188,10.034,1.151,14.201
			c-3.295,13.225-17.085,7.649-22.245-6.524C67.439,115.551,74.399,102.339,85.416,110.355z"/>
		<path class="st8" d="M70.182,169.664c2.962-11.905-2.526-27.001-12.456-34.222c-16.551-12.038-33.624,4.999-25.069,28.502
			C41.215,187.459,65.234,189.539,70.182,169.664z M57.079,174.838c-5.716,2.084-13.458-4.162-16.905-13.63
			c-5.174-14.215,1.881-27.274,12.847-19.296c3.474,2.525,6.479,6.76,8.247,11.618c0,0,0,0,0,0
			C64.737,163.06,62.703,172.792,57.079,174.838z"/>
		<path class="st8" d="M122.594,151.688c15.197,0,27.647-21.478,23.49-38.171c-4.975-19.989-29.04-17.586-37.525,5.72
			C102.664,135.436,109.1,151.688,122.594,151.688z M116.076,121.974c5.11-14.037,18.933-19.814,22.245-6.524
			c3.474,13.958-8.968,31.141-18.056,27.832C114.598,141.219,112.634,131.435,116.076,121.974z"/>
		<path class="st8" d="M167.791,133.028c-10.382-3.781-22.245,4.914-27.159,18.412c-8.583,23.587,8.564,40.505,25.069,28.502
			C181.948,168.129,183.898,138.89,167.791,133.028z M160.996,173.472c-10.995,8.003-18.016-5.093-12.847-19.295
			c1.769-4.858,4.774-9.093,8.247-11.619C172.326,130.976,176.91,161.902,160.996,173.472z"/>
		<path class="st8" d="M210.514,125.249c-11.249-3.553-21.039-0.998-27.124,1.646c-4.75-4.929-10.895-7.935-17.805-8.606
			c1,0-4.414,0.223-5.261-4.925c-0.795-4.84-2.432-9.252-4.744-13.066c-0.023-0.213-0.05-0.426-0.109-0.639
			c-1.213-4.395,2.321-10.858,9.95-18.2c6.575-6.324,0.579-17.373-8.297-15.242c-15.014,3.601-22.491,14.831-25.127,19.781
			c-8.035-0.334-16.306,2.668-23.274,8.69c-2.233,1.929-5.478,1.925-7.717-0.007c-4.756-4.107-10.126-6.809-15.614-8.007
			c-0.158-0.11-0.313-0.221-0.49-0.31c-4.079-2.036-6.525-8.984-6.887-19.566c-0.312-9.117-12.536-12.041-16.883-4.015
			c-7.164,13.219-4.168,25.955-2.233,31.479c-4.729,4.687-8.044,11.078-9.376,18.49c-0.473,2.626-2.683,4.623-5.375,4.855
			c-2.552,0.221-5.004,0.792-7.33,1.651c-4.545,0.317-10.179-4.432-15.859-13.368c-4.896-7.704-16.909-4.015-16.586,5.104
			c0.53,14.987,9.527,24.433,14.008,28.232c-6.857,21.143,5.178,48.017,25.097,55.798c2.688,1.05,4.317,3.691,3.961,6.425
			c-3.593,27.627,18.243,52.105,46.892,52.105h17.567c28.341,0,49.715-23.686,47.102-50.644c-0.278-2.869,1.556-5.484,4.46-6.358
			c16.997-5.119,30.215-25.031,29.448-45.654c2.43-3.434,8.35-6.362,16.864-8.306C218.672,140.552,219.212,128.004,210.514,125.249z
			 M158.99,73.997c0.962-0.239,1.614,0.996,0.885,1.698c-6.021,5.794-9.885,11.242-11.604,16.301
			c-2.405-1.883-5.02-3.352-7.96-4.398C143.073,83.263,148.874,76.423,158.99,73.997z M68.166,66.594
			c0.476-0.888,1.821-0.521,1.854,0.478c0.281,8.21,1.707,14.648,4.239,19.292c-2.999,0.496-5.76,1.388-8.555,2.868
			C64.367,84.218,63.324,75.529,68.166,66.594z M12.367,110.711c-0.035-0.996,1.298-1.381,1.84-0.53
			c4.435,6.977,8.961,11.82,13.529,14.529c-2.231,1.971-4.189,4.305-5.827,6.935C18.21,128.053,12.733,121.036,12.367,110.711z
			 M182.399,166.642c-3.996,10.981-12.138,19.506-21.246,22.25c-6.502,1.958-10.757,8.179-10.116,14.79
			c2.15,22.187-15.452,41.872-39.139,41.872H94.331c-15.482,0-29.526-8.793-35.78-22.402c-2.992-6.509-4.091-13.657-3.178-20.669
			c0.833-6.388-2.862-12.519-8.984-14.91c-15.212-5.942-25.197-26.888-20.95-43.946c2.567-10.32,10-17.236,19.399-18.048
			c6.284-0.544,11.448-5.236,12.559-11.41c3.549-19.742,23.063-26.662,38.382-13.432c5.269,4.55,12.913,4.554,18.176,0.005
			c15.433-13.334,35.169-6.219,38.476,13.92c1.022,6.216,6.113,10.982,12.382,11.591C181.019,127.823,189.6,146.859,182.399,166.642
			z M207.988,134.793c-6.999,1.599-12.514,3.81-16.526,6.598c-0.767-2.77-1.826-5.406-3.184-7.85
			c4.883-1.816,11.927-3.159,19.823-0.665C209.054,133.178,208.971,134.567,207.988,134.793z"/>
		<path class="st8" d="M241.438,16.107h-31.232c-7.703,0-13.97,6.254-13.998,13.951h-51.854c-0.575-1.655-2.175-2.802-4.024-2.677
			c-5.072,0.329-20.018-0.4-22.14-7.826c-0.607-2.123-2.818-3.356-4.944-2.747c-5.535,1.582-2.268,9.307,3.345,13.25h-11.867
			c-2.209,0-4,1.791-4,4s1.791,4,4,4h11.872c-5.634,3.957-8.873,11.671-3.349,13.25c2.12,0.606,4.337-0.62,4.944-2.747
			c2.122-7.425,17.072-8.156,22.138-7.825c1.831,0.115,3.447-1.023,4.027-2.678h51.853c0.027,7.697,6.294,13.951,13.998,13.951
			h31.232c7.72,0,14-6.28,14-14v-7.901C255.438,22.387,249.157,16.107,241.438,16.107z M247.438,38.008c0,3.309-2.691,6-6,6h-31.232
			c-3.309,0-6-2.691-6-6v-7.901c0-3.309,2.691-6,6-6h31.232c3.309,0,6,2.691,6,6V38.008z"/>
		<circle class="st8" cx="83.117" cy="12.071" r="5.626"/>
		<circle class="st8" cx="93.443" cy="53.088" r="5.626"/>
		<path class="st8" d="M66.238,42.309c3.107,0,5.626-2.519,5.626-5.626s-2.519-5.626-5.626-5.626c-3.107,0-5.626,2.519-5.626,5.626
			S63.13,42.309,66.238,42.309z"/>
		<path class="st8" d="M212.911,86.505c-7.293-0.275-11.271-9.064-12.644-12.83c-0.001,0-0.001-0.001-0.001-0.001
			c-0.129-0.354-0.243-0.677-0.331-0.959c-0.516-1.649-2.032-2.782-3.761-2.807c-0.02,0-0.038,0-0.059,0
			c-1.704,0-3.225,1.082-3.781,2.697l-0.085,0.25c-0.078,0.229-0.162,0.479-0.293,0.82c-1.372,3.766-5.35,12.555-12.634,12.83
			c-2.148,0.081-3.849,1.847-3.849,3.997s1.7,3.916,3.85,3.997c7.292,0.275,11.271,9.064,12.641,12.823
			c0.131,0.361,0.247,0.69,0.338,0.978c0.52,1.648,2.039,2.776,3.767,2.796c0.017,0,0.032,0,0.048,0
			c1.709,0,3.231-1.086,3.785-2.707l0.073-0.215c0.078-0.233,0.164-0.491,0.301-0.845c1.373-3.766,5.351-12.555,12.635-12.83
			c2.148-0.081,3.849-1.847,3.849-3.997S215.06,86.586,212.911,86.505z M196.119,97.558c-1.516-2.483-3.497-5.032-6.022-7.057
			c2.526-2.027,4.507-4.577,6.019-7.055c1.516,2.483,3.497,5.033,6.022,7.058C199.611,92.531,197.631,95.081,196.119,97.558z"/>
		<path class="st8" d="M15.072,40.68c7.828,0.295,13.217,8.962,15.541,16.353c0.524,1.667,2.068,2.802,3.816,2.802
			c3.158,0,3.832-2.934,4.221-3.942c1.627-4.463,6.358-14.881,15.138-15.212c5.092-0.192,5.094-7.802-0.001-7.994
			c-8.788-0.332-13.521-10.749-15.147-15.212c-0.364-1.001-1.006-3.942-4.21-3.942c-3.17,0-3.837,2.943-4.222,3.943
			c-1.626,4.463-6.355,14.88-15.137,15.212C9.98,32.878,9.978,40.488,15.072,40.68z M34.428,27.331
			c1.893,3.286,4.5,6.768,7.961,9.354c-3.463,2.588-6.069,6.073-7.956,9.35c-1.893-3.286-4.499-6.768-7.96-9.354
			C29.935,34.092,32.541,30.608,34.428,27.331z"/>
		<path class="st8" d="M17.392,96.509c0.517,1.654,2.052,2.807,3.819,2.807c2.937,0,3.674-2.497,4.158-3.768
			c1.373-3.766,5.351-12.555,12.635-12.83c5.092-0.192,5.092-7.802,0-7.994c-6.542-0.247-11.029-7.634-12.979-13.801
			c-0.526-1.668-2.073-2.797-3.814-2.797c-2.948,0-3.671,2.501-4.159,3.768c-1.373,3.766-5.351,12.555-12.635,12.83
			c-5.092,0.192-5.094,7.802,0.001,7.994C10.914,82.964,15.466,90.325,17.392,96.509z M21.208,71.666
			c1.516,2.483,3.497,5.032,6.022,7.057c-2.526,2.027-4.507,4.577-6.019,7.055c-1.516-2.483-3.497-5.033-6.022-7.058
			C17.716,76.693,19.696,74.143,21.208,71.666z"/>
		<path class="st8" d="M118.542,216.667h-2.667c-2.209,0-4,1.791-4,4s1.791,4,4,4h2.667c2.209,0,4-1.791,4-4
			S120.751,216.667,118.542,216.667z"/>
		<path class="st8" d="M100.875,216.667h-10c-2.209,0-4,1.791-4,4s1.791,4,4,4h10c2.209,0,4-1.791,4-4
			S103.084,216.667,100.875,216.667z"/>
	</g>
</g>
</svg>
