<?xml version="1.0" encoding="utf-8"?>
<!-- Generator: Adobe Illustrator 22.1.0, SVG Export Plug-In . SVG Version: 6.00 Build 0)  -->
<svg version="1.1" id="Icon_Set" xmlns="http://www.w3.org/2000/svg" xmlns:xlink="http://www.w3.org/1999/xlink" x="0px" y="0px"
	 viewBox="0 0 256 256" style="enable-background:new 0 0 256 256;" xml:space="preserve">
<style type="text/css">
	.st0{fill:#5FCDFF;}
	.st1{fill:#87828E;}
	.st2{fill:#B76C6C;}
	.st3{fill:#FF4A73;}
	.st4{fill:#73D7F9;}
	.st5{fill:#30B6FF;}
	.st6{fill:#A4A4A5;}
	.st7{fill:#F973A3;}
	.st8{fill:#5F266D;}
	.st9{fill:#FFE2E2;}
	.st10{fill:#FFEFEE;}
	.st11{fill:#796E84;}
	.st12{fill:#3193F3;}
	.st13{fill:#35B1FC;}
	.st14{fill:#307FED;}
	.st15{fill:#FFCFCF;}
	.st16{fill:#EA2A6A;}
	.st17{fill:#44C7B6;}
	.st18{fill:#3BB2A0;}
	.st19{fill:#4BDBC3;}
	.st20{fill:#C98585;}
	.st21{fill:#965959;}
	.st22{fill:#FFBB98;}
	.st23{fill:#FFCAA6;}
	.st24{fill:#FFAA80;}
	.st25{fill:#F9D335;}
	.st26{fill:#F2C300;}
	.st27{fill:#F9E27D;}
</style>
<g>
	<g>
		<path class="st6" d="M74.075,68.157c-0.173-5.057-6.958-6.695-9.369-2.246c-8.454,15.6-1.009,30.653-1.009,30.653l19.476-5.399
			C76.295,87.733,74.382,77.146,74.075,68.157z"/>
		<path class="st6" d="M209.366,130.285c-11.84-3.74-21.94,0.1-26.94,2.75l6.5,18.03v-0.01c3.22-6.03,12.13-9.34,20.01-11.14
			C213.866,138.785,214.196,131.815,209.366,130.285z"/>
		<path class="st6" d="M158.115,71.329c-17.254,4.138-23.475,19.737-23.475,19.737l17.032,10.879
			c-2.044-7.411,4.553-15.909,11.034-22.146C166.352,76.291,163.035,70.149,158.115,71.329z"/>
		<path class="st6" d="M17.64,109.258c-2.714-4.27-9.392-2.24-9.213,2.817c0.627,17.732,14.679,26.928,14.679,26.928l14.046-14.532
			C29.483,125.002,22.465,116.848,17.64,109.258z"/>
		<path class="st2" d="M165.255,123.492c-4.5-0.437-8.088-3.797-8.821-8.258c-3.811-23.197-27.267-31.656-45.039-16.298
			c-3.733,3.226-9.212,3.218-12.946-0.006c-17.622-15.219-40.835-7.038-44.933,15.752c-0.796,4.425-4.487,7.745-8.967,8.133
			c-10.644,0.92-19.837,8.608-22.937,21.067c-4.673,18.772,6.013,41.856,23.378,48.638c4.32,1.687,7.072,6.069,6.473,10.667
			c-1.003,7.7,0.164,15.577,3.509,22.857c7.013,15.261,22.62,24.732,39.415,24.732h17.567c17.309,0,33.301-10.067,40.015-26.022
			c2.732-6.492,3.767-13.416,3.106-20.236c-0.468-4.828,2.643-9.175,7.288-10.574c10.687-3.219,19.558-12.916,23.851-24.712
			c0,0,0.001,0,0.001-0.001C194.411,146.712,183.946,125.306,165.255,123.492z"/>
		<g>
			<path class="st1" d="M78.709,177.491c10.879-18.843,38.077-18.843,48.956,0l4.875,8.444l4.875,8.444
				c10.879,18.843-2.72,42.397-24.478,42.397h-9.75h-9.75c-21.758,0-35.357-23.554-24.478-42.397l4.875-8.444L78.709,177.491z"/>
			
				<ellipse transform="matrix(0.9397 -0.342 0.342 0.9397 -38.4324 36.1081)" class="st1" cx="83.173" cy="127.034" rx="15.224" ry="22.59"/>
			
				<ellipse transform="matrix(0.9397 -0.342 0.342 0.9397 -51.1792 26.9313)" class="st1" cx="50.778" cy="158.592" rx="15.224" ry="22.59"/>
			
				<ellipse transform="matrix(0.342 -0.9397 0.9397 0.342 -36.0201 202.6268)" class="st1" cx="126.68" cy="127.034" rx="22.59" ry="15.224"/>
			
				<ellipse transform="matrix(0.342 -0.9397 0.9397 0.342 -45.1773 253.9542)" class="st1" cx="158.753" cy="159.237" rx="22.59" ry="15.224"/>
		</g>
		<path class="st1" d="M93.399,47.887h-2.593c-5.523,0-10-4.477-10-10v-8.83c0-5.523,4.477-10,10-10h2.593c5.523,0,10,4.477,10,10
			v8.83C103.399,43.409,98.922,47.887,93.399,47.887z"/>
		<path class="st3" d="M131.014,17.377c-5.52,0-10,4.48-10,10v12.18c0,5.53,4.48,10,10,10h22.09v-32.18H131.014z"/>
		<path class="st17" d="M222.576,62.261l-48.02-0.542c-13.807,0-25-11.193-25-25v-6.495c0-13.807,11.193-25,25-25l48.02,0.542
			c13.807,0,25,11.193,25,25v6.495C247.576,51.068,236.383,62.261,222.576,62.261z"/>
		<path class="st6" d="M108.44,236.78h-15c-21.76,0-35.36-23.56-24.48-42.4l4.87-8.45l4.88-8.44c6.88-11.92,20.3-16.3,31.98-13.13
			c-6.78,1.83-12.98,6.21-16.98,13.13l-4.88,8.44l-4.87,8.45C73.08,213.22,86.68,236.78,108.44,236.78z"/>
		<path class="st6" d="M94.27,146.25c-0.99,0.88-2.12,1.56-3.37,2.01c-7.9,2.88-17.76-4.29-22.03-16.02
			c-4.27-11.72-1.32-23.56,6.58-26.43c3.7-1.35,7.84-0.49,11.63,2.01c-5.28,4.61-6.8,14.56-3.21,24.42
			C86.14,138.47,89.98,143.42,94.27,146.25z"/>
		<path class="st6" d="M61.87,177.81c-0.99,0.88-2.12,1.56-3.37,2.01c-7.9,2.88-17.76-4.3-22.03-16.02
			c-4.26-11.73-1.32-23.56,6.58-26.44c3.7-1.34,7.84-0.49,11.62,2.02c-5.27,4.62-6.78,14.56-3.2,24.42
			C53.74,170.02,57.58,174.97,61.87,177.81z"/>
		<path class="st6" d="M127.37,121.83c-3.58,9.86-2.07,19.81,3.21,24.42c-3.79,2.5-7.92,3.36-11.63,2.01
			c-7.9-2.87-10.84-14.71-6.58-26.43c4.27-11.73,14.14-18.9,22.04-16.02c1.25,0.46,2.38,1.14,3.37,2.01
			C133.49,110.65,129.64,115.6,127.37,121.83z"/>
		<path class="st6" d="M159.45,154.03c-3.59,9.86-2.07,19.81,3.21,24.42c-3.79,2.5-7.93,3.36-11.63,2.01
			c-7.9-2.87-10.85-14.71-6.58-26.43s14.13-18.9,22.03-16.02c1.25,0.45,2.38,1.13,3.37,2.01
			C165.56,142.86,161.72,147.81,159.45,154.03z"/>
		<path class="st19" d="M225.2,62.12c-0.86,0.09-1.73,0.14-2.62,0.14l-48.02-0.54c-13.81,0-25-11.19-25-25v-6.5
			c0-13.8,11.19-25,25-25l12.35,0.14c-12.56,1.32-22.35,11.95-22.35,24.86v6.5c0,13.81,11.19,25,25,25L225.2,62.12z"/>
		<path class="st7" d="M136.01,39.56V27.38c0-5.52,4.48-10,10-10h-15c-5.52,0-10,4.48-10,10v12.18c0,5.53,4.48,10,10,10h15
			C140.49,49.56,136.01,45.09,136.01,39.56z"/>
		<path class="st18" d="M222.58,5.77l-15-0.173c13.8,0,25,11.363,25,25.173v6.49c0,12.92-9.81,23.55-22.38,24.86l12.38,0.14
			c13.8,0,25-11.19,25-25v-6.49C247.58,16.96,236.38,5.77,222.58,5.77z"/>
		<path class="st6" d="M90.48,40.4c0,2.71,0.46,5.27,1.26,7.49h-0.93c-5.53,0-10-4.48-10-10v-8.83c0-5.53,4.47-10,10-10h1.01
			c-0.85,2.26-1.34,4.9-1.34,7.71V40.4z"/>
	</g>
	<g>
		<path class="st8" d="M131.13,175.491c-12.416-21.507-43.454-21.529-55.884,0l-9.751,16.888c-5.832,10.101-5.832,22.163,0,32.264
			c5.832,10.102,16.278,16.133,27.942,16.133h19.5c11.664,0,22.11-6.031,27.942-16.132s5.832-22.163,0-32.265L131.13,175.491z
			 M133.952,220.644c-4.387,7.597-12.242,12.132-21.015,12.132h-19.5c-8.772,0-16.628-4.536-21.014-12.133
			c-4.387-7.597-4.387-16.667-0.001-24.264l9.751-16.887c0,0,0,0,0,0c9.338-16.174,32.68-16.191,42.028,0l9.75,16.888
			C138.338,203.976,138.338,213.046,133.952,220.644z"/>
		<path class="st8" d="M76.169,148.962c16.668,12.121,33.545-5.214,25.069-28.502c-8.558-23.511-32.583-25.573-37.525-5.72
			C60.75,126.645,66.238,141.74,76.169,148.962z M79.137,109.165c5.338,0,11.586,5.794,14.584,14.031
			c5.142,14.129-1.8,27.335-12.847,19.295C68.022,133.15,67.892,109.165,79.137,109.165z"/>
		<path class="st8" d="M68.843,152.017c-5.101-14.011-17.032-22.099-27.159-18.412c-16.141,5.874-14.107,35.137,2.09,46.914
			C60.609,192.764,77.25,175.122,68.843,152.017z M48.478,174.048c-7.274-5.288-11.572-17.087-9.398-25.819
			c3.29-13.204,17.079-7.669,22.245,6.524C66.437,168.802,59.545,182.099,48.478,174.048z"/>
		<path class="st8" d="M133.685,148.962c16.288-11.845,18.157-41.067,2.09-46.914c-10.132-3.687-22.061,4.4-27.159,18.412
			C100.102,143.853,117.032,161.07,133.685,148.962z M133.039,109.565c5.639,2.052,7.648,11.804,4.188,21.308c0,0,0,0,0,0
			c-5.088,13.983-18.927,19.862-22.244,6.523C111.548,123.596,123.83,106.212,133.039,109.565z"/>
		<path class="st8" d="M167.847,134.25c-16.139-5.874-33.39,17.846-28.555,37.281c4.957,19.915,28.978,17.762,37.525-5.72
			C181.729,152.318,178.234,138.031,167.847,134.25z M169.301,163.076c-3.446,9.469-11.187,15.711-16.905,13.63
			c-8.976-3.267-7.659-24.407,4.059-32.926C167.588,135.683,174.381,149.113,169.301,163.076z"/>
		<path class="st8" d="M210.571,126.471c-11.25-3.554-21.04-0.999-27.125,1.646c-4.749-4.928-10.893-7.935-17.804-8.606h-0.001
			c-2.705-0.262-4.819-2.241-5.26-4.925c-0.795-4.841-2.433-9.254-4.745-13.068c-0.023-0.212-0.05-0.424-0.108-0.636
			c-1.213-4.396,2.321-10.859,9.951-18.2c6.576-6.329,0.575-17.372-8.298-15.242c-15.014,3.6-22.49,14.831-25.126,19.781
			c-8.036-0.335-16.306,2.667-23.275,8.69c-2.233,1.929-5.478,1.926-7.717-0.007c-4.755-4.106-10.125-6.808-15.612-8.006
			c-0.158-0.11-0.314-0.222-0.492-0.31c-4.079-2.036-6.525-8.984-6.887-19.566c-0.312-9.127-12.538-12.032-16.884-4.015
			c-7.164,13.219-4.168,25.955-2.233,31.479c-4.728,4.687-8.043,11.078-9.375,18.489c-0.473,2.626-2.683,4.623-5.375,4.855
			c-2.604,0.225-5.089,0.796-7.436,1.652c-4.509,0.231-10.118-4.501-15.754-13.369c-4.891-7.699-16.911-4.02-16.586,5.104
			c0.529,14.984,9.522,24.429,14.005,28.229c-0.259,0.806-0.495,1.629-0.704,2.47c-5.227,21,6.831,45.92,25.805,53.331
			c2.688,1.05,4.317,3.692,3.961,6.425c-1.107,8.504,0.221,17.164,3.841,25.043c7.556,16.439,24.454,27.062,43.051,27.062h17.567
			c19.271,0,36.424-11.175,43.7-28.47c2.952-7.012,4.128-14.68,3.401-22.174c-0.278-2.868,1.555-5.483,4.459-6.357
			c17.03-5.128,30.215-25.073,29.449-45.653c2.431-3.434,8.351-6.362,16.865-8.307C218.73,141.774,219.27,129.226,210.571,126.471z
			 M159.047,75.219c0.963-0.237,1.614,0.996,0.886,1.698c-6.021,5.793-9.885,11.241-11.605,16.301
			c-2.347-1.837-4.955-3.315-7.795-4.344c-0.05-0.018-0.101-0.031-0.151-0.049C143.156,84.494,148.98,77.633,159.047,75.219z
			 M68.222,67.817c0.477-0.883,1.821-0.526,1.854,0.477c0.281,8.21,1.707,14.648,4.238,19.292c-2.987,0.494-5.747,1.382-8.556,2.868
			C64.424,85.44,63.381,76.752,68.222,67.817z M12.425,111.933c-0.035-1.003,1.302-1.376,1.84-0.529
			c4.41,6.939,8.906,11.765,13.448,14.481c-2.216,1.962-4.156,4.292-5.779,6.933C18.242,129.201,12.787,122.169,12.425,111.933z
			 M182.456,167.864c-3.996,10.981-12.138,19.507-21.246,22.25c-6.503,1.958-10.757,8.179-10.115,14.79
			c0.599,6.178-0.373,12.505-2.812,18.299c-6.025,14.32-20.285,23.573-36.327,23.573H94.388c-15.481,0-29.527-8.793-35.781-22.402
			c-2.992-6.511-4.091-13.659-3.177-20.67c0.831-6.388-2.863-12.519-8.984-14.91c-15.212-5.941-25.198-26.887-20.951-43.946
			c2.567-10.32,10.002-17.235,19.4-18.048c6.284-0.543,11.448-5.235,12.559-11.41c3.559-19.785,23.097-26.63,38.381-13.432
			c5.271,4.551,12.915,4.554,18.176,0.005c15.433-13.335,35.17-6.216,38.477,13.919c1.021,6.217,6.112,10.983,12.383,11.592h-0.001
			C181.077,129.045,189.656,148.082,182.456,167.864z M208.046,136.016c-6.999,1.599-12.514,3.81-16.527,6.598
			c-0.767-2.77-1.826-5.406-3.185-7.85c4.883-1.815,11.929-3.159,19.823-0.665C209.112,134.4,209.028,135.79,208.046,136.016z"/>
		<path class="st8" d="M222.621,1.767l-48.065-0.542c-9.711,0-18.316,4.803-23.582,12.153h-19.959c-7.72,0-14,6.28-14,14v2.09
			h-9.615c0-8.695-6.698-14.411-14-14.411h-2.593c-7.72,0-14,6.28-14,14v8.83c0,7.72,6.28,14,14,14h2.593
			c7.323,0,14-5.732,14-14.419h9.615v2.09c0,7.72,6.28,14,14,14h19.95c5.261,7.355,13.859,12.161,23.546,12.161
			c0.003,0,48.063,0.542,48.065,0.542c15.99,0,29-13.009,29-29v-6.495C251.576,14.775,238.566,1.766,222.621,1.767z M99.399,37.887
			c0,3.309-2.691,6-6,6h-2.593c-3.309,0-6-2.691-6-6v-8.83c0-3.309,2.691-6,6-6h2.593c3.309,0,6,2.691,6,6
			C99.399,31.111,99.399,33.195,99.399,37.887z M145.555,36.719c0,3.081,0.488,6.05,1.382,8.838h-15.923c-3.309,0-6-2.691-6-6
			v-12.18c0-3.309,2.691-6,6-6h15.926C145.275,26.564,145.555,29.946,145.555,36.719z M243.576,37.261
			c0,11.572-9.408,20.987-20.978,21l-48.043-0.542c-11.579,0-21-9.42-21-21v-6.495c0-11.58,9.421-21,20.955-21l48.065,0.542
			c11.579,0,21,9.42,21,21V37.261z"/>
		<path class="st8" d="M221.285,15.832c-3.678-0.994-5.205-0.789-15.987-0.789c-2.209,0-4,1.791-4,4s1.791,4,4,4
			c10.764,0,11.447-0.151,13.899,0.512c2.125,0.576,4.328-0.679,4.905-2.818C224.679,18.604,223.417,16.408,221.285,15.832z"/>
		<path class="st8" d="M235.113,26.414c-1.237-1.829-3.724-2.311-5.555-1.072c-1.83,1.238-2.31,3.725-1.072,5.555
			c1.199,1.773,2.067,3.604,4.565,3.604c3.173,0,5.114-3.573,3.31-6.242L235.113,26.414z"/>
	</g>
</g>
</svg>
