<?xml version="1.0" encoding="utf-8"?>
<!-- Generator: Adobe Illustrator 22.1.0, SVG Export Plug-In . SVG Version: 6.00 Build 0)  -->
<svg version="1.1" id="Icon_Set" xmlns="http://www.w3.org/2000/svg" xmlns:xlink="http://www.w3.org/1999/xlink" x="0px" y="0px"
	 viewBox="0 0 256 256" style="enable-background:new 0 0 256 256;" xml:space="preserve">
<style type="text/css">
	.st0{fill:#5FCDFF;}
	.st1{fill:#87828E;}
	.st2{fill:#B76C6C;}
	.st3{fill:#FF4A73;}
	.st4{fill:#73D7F9;}
	.st5{fill:#30B6FF;}
	.st6{fill:#A4A4A5;}
	.st7{fill:#F973A3;}
	.st8{fill:#5F266D;}
	.st9{fill:#FFE2E2;}
	.st10{fill:#FFEFEE;}
	.st11{fill:#796E84;}
	.st12{fill:#3193F3;}
	.st13{fill:#35B1FC;}
	.st14{fill:#307FED;}
	.st15{fill:#FFCFCF;}
	.st16{fill:#EA2A6A;}
	.st17{fill:#44C7B6;}
	.st18{fill:#3BB2A0;}
	.st19{fill:#4BDBC3;}
	.st20{fill:#C98585;}
	.st21{fill:#965959;}
	.st22{fill:#FFBB98;}
	.st23{fill:#FFCAA6;}
	.st24{fill:#FFAA80;}
	.st25{fill:#F9D335;}
	.st26{fill:#F2C300;}
	.st27{fill:#F9E27D;}
</style>
<g>
	<path class="st1" d="M228.045,57.624V184.42H27.955V57.624c0-8.284,6.716-15,15-15h170.089
		C221.329,42.624,228.045,49.34,228.045,57.624z"/>
	<path class="st9" d="M42.955,164.42V62.624c0-2.761,2.239-5,5-5h160.089c2.761,0,5,2.239,5,5V164.42c0,2.761-2.239,5-5,5H47.955
		C45.194,169.42,42.955,167.181,42.955,164.42z"/>
	<path class="st1" d="M250.104,189.42v3.956c0,11.046-8.954,20-20,20H25.896c-11.046,0-20-8.954-20-20v-3.956c0-2.761,2.239-5,5-5
		h234.208C247.866,184.42,250.104,186.659,250.104,189.42z"/>
	<path class="st11" d="M154.63,184.42v4.484c0,5.523-4.477,10-10,10h-33.26c-5.523,0-10-4.477-10-10v-4.484H154.63z"/>
	<path class="st17" d="M160.5,152.596h-65c-8.284,0-15-6.716-15-15v-35.92c0-8.284,6.716-15,15-15h65c8.284,0,15,6.716,15,15v35.92
		C175.5,145.881,168.784,152.596,160.5,152.596z"/>
	<path class="st10" d="M62.96,169.42h-15c-2.77,0-5-2.24-5-5V62.62c0-2.76,2.23-5,5-5h15c-2.77,0-5,2.24-5,5v101.8
		C57.96,167.18,60.19,169.42,62.96,169.42z"/>
	<path class="st15" d="M213.04,62.62v101.8c0,2.76-2.23,5-5,5h-15c2.77,0,5-2.24,5-5V62.62c0-2.76-2.23-5-5-5h15
		C210.81,57.62,213.04,59.86,213.04,62.62z"/>
	<path class="st19" d="M110.5,152.6h-15c-8.28,0-15-6.72-15-15v-35.92c0-8.29,6.72-15,15-15h15c-8.28,0-15,6.71-15,15v35.92
		C95.5,145.88,102.22,152.6,110.5,152.6z"/>
	<path class="st18" d="M175.5,101.68v35.92c0,8.28-6.72,15-15,15h-15c8.28,0,15-6.72,15-15v-35.92c0-8.29-6.72-15-15-15h15
		C168.78,86.68,175.5,93.39,175.5,101.68z"/>
	<path class="st6" d="M40.9,213.38h-15c-11.05,0-20-8.96-20-20v-3.96c0-2.76,2.23-5,5-5h15c-2.77,0-5,2.24-5,5v3.96
		C20.9,204.42,29.85,213.38,40.9,213.38z"/>
	<path class="st11" d="M250.1,189.42v3.96c0,11.04-8.95,20-20,20h-15c11.05,0,20-8.96,20-20v-3.96c0-2.76-2.23-5-5-5h15
		C247.87,184.42,250.1,186.66,250.1,189.42z"/>
	<g>
		<path class="st8" d="M208.044,53.624H47.955c-4.962,0-9,4.038-9,9V164.42c0,4.962,4.038,9,9,9h160.089c4.962,0,9-4.038,9-9V62.624
			C217.044,57.662,213.007,53.624,208.044,53.624z M209.044,164.42c0,0.551-0.449,1-1,1H47.955c-0.551,0-1-0.449-1-1V62.624
			c0-0.551,0.449-1,1-1h160.089c0.551,0,1,0.449,1,1V164.42z"/>
		<path class="st8" d="M245.104,180.42h-13.06V57.625c0-10.477-8.523-19-19-19H42.956c-10.477,0-19,8.523-19,19V180.42h-13.06
			c-4.962,0-9,4.038-9,9v3.956c0,13.233,10.766,24,24,24h204.208c13.234,0,24-10.767,24-24v-3.956
			C254.104,184.458,250.066,180.42,245.104,180.42z M31.956,57.625c0-6.065,4.935-11,11-11h170.089c6.065,0,11,4.935,11,11V180.42
			c-4.561,0-187.808,0-192.089,0V57.625z M150.63,188.42c0,4.27-3.015,6.484-6,6.484h-33.26c-2.957,0-6-2.182-6-6.484H150.63z
			 M246.104,193.375c0,8.822-7.178,16-16,16H25.896c-8.822,0-16-7.178-16-16v-3.956c0-0.551,0.449-1,1-1h17.06H97.37
			c0,8.832,6.742,14.484,14,14.484h33.26c7.242,0,14-5.631,14-14.484h69.415c17.952,0,18.06-0.38,18.06,1V193.375z"/>
		<path class="st8" d="M160.5,82.676h-6.167v-8.229c0-2.209-1.791-4-4-4s-4,1.791-4,4v8.229h-36v-8.229c0-2.209-1.791-4-4-4
			s-4,1.791-4,4v8.229H95.5c-10.477,0-19,8.523-19,19v35.92c0,10.477,8.523,19,19,19h65c10.477,0,19-8.523,19-19v-35.92
			C179.5,91.2,170.977,82.676,160.5,82.676z M171.5,137.596c0,6.065-4.935,11-11,11h-65c-6.065,0-11-4.935-11-11v-35.92
			c0-6.065,4.935-11,11-11h6.833v7.657c0,2.209,1.791,4,4,4s4-1.791,4-4v-7.657h36v7.657c0,2.209,1.791,4,4,4s4-1.791,4-4v-7.657
			h6.167c6.065,0,11,4.935,11,11V137.596z"/>
		<path class="st8" d="M142.29,104.952l-20.131,20.841l-8.456-8.705c-1.539-1.584-4.071-1.622-5.656-0.082
			c-1.584,1.539-1.622,4.072-0.082,5.656l11.333,11.667c1.573,1.619,4.176,1.618,5.746-0.008l23-23.811
			c1.535-1.589,1.491-4.121-0.098-5.656C146.357,103.32,143.825,103.363,142.29,104.952z"/>
		<path class="st8" d="M68.21,69.25h-11c-2.209,0-4,1.791-4,4s1.791,4,4,4h11c2.209,0,4-1.791,4-4S70.419,69.25,68.21,69.25z"/>
		<path class="st8" d="M83.21,77.25h4.04c2.209,0,4-1.791,4-4s-1.791-4-4-4h-4.04c-2.209,0-4,1.791-4,4S81.001,77.25,83.21,77.25z"
			/>
	</g>
</g>
</svg>
