<?xml version="1.0" encoding="utf-8"?>
<!-- Generator: Adobe Illustrator 22.1.0, SVG Export Plug-In . SVG Version: 6.00 Build 0)  -->
<svg version="1.1" id="Icon_Set" xmlns="http://www.w3.org/2000/svg" xmlns:xlink="http://www.w3.org/1999/xlink" x="0px" y="0px"
	 viewBox="0 0 256 256" style="enable-background:new 0 0 256 256;" xml:space="preserve">
<style type="text/css">
	.st0{fill:#5FCDFF;}
	.st1{fill:#87828E;}
	.st2{fill:#B76C6C;}
	.st3{fill:#FF4A73;}
	.st4{fill:#73D7F9;}
	.st5{fill:#30B6FF;}
	.st6{fill:#A4A4A5;}
	.st7{fill:#F973A3;}
	.st8{fill:#5F266D;}
	.st9{fill:#FFE2E2;}
	.st10{fill:#FFEFEE;}
	.st11{fill:#796E84;}
	.st12{fill:#3193F3;}
	.st13{fill:#35B1FC;}
	.st14{fill:#307FED;}
	.st15{fill:#FFCFCF;}
	.st16{fill:#EA2A6A;}
	.st17{fill:#44C7B6;}
	.st18{fill:#3BB2A0;}
	.st19{fill:#4BDBC3;}
	.st20{fill:#C98585;}
	.st21{fill:#965959;}
	.st22{fill:#FFBB98;}
	.st23{fill:#FFCAA6;}
	.st24{fill:#FFAA80;}
	.st25{fill:#F9D335;}
	.st26{fill:#F2C300;}
	.st27{fill:#F9E27D;}
</style>
<g>
	<path class="st0" d="M158.811,43.585H11.348c-2.761,0-5-2.239-5-5V12.742c0-2.761,2.239-5,5-5h147.463c2.761,0,5,2.239,5,5v25.843
		C163.811,41.347,161.573,43.585,158.811,43.585z"/>
	<rect x="31.825" y="43.585" class="st12" width="106.509" height="23.833"/>
	<path class="st0" d="M152.077,158.248H18.083c-5.523,0-10-4.477-10-10v-70.83c0-5.523,4.477-10,10-10h133.994
		c5.523,0,10,4.477,10,10v70.83C162.077,153.771,157.6,158.248,152.077,158.248z"/>
	<circle class="st6" cx="170.316" cy="169.42" r="78.837"/>
	<path class="st11" d="M170.315,228.257c-32.442,0-58.837-26.394-58.837-58.837s26.395-58.837,58.837-58.837
		c32.443,0,58.838,26.395,58.838,58.837S202.759,228.257,170.315,228.257z"/>
	<g>
		<path class="st9" d="M157.738,173.388c5.59-9.683,19.566-9.683,25.156,0l2.505,4.339l2.505,4.339
			c5.59,9.683-1.398,21.786-12.578,21.786h-5.01h-5.01c-11.18,0-18.168-12.103-12.578-21.786l2.505-4.339L157.738,173.388z"/>
	</g>
	<path class="st4" d="M26.346,43.587h-15c-2.76,0-5-2.24-5-5v-25.84c0-2.77,2.24-5,5-5h15c-2.76,0-5,2.23-5,5v25.84
		C21.346,41.347,23.586,43.587,26.346,43.587z"/>
	<path class="st4" d="M33.086,158.247h-15c-5.53,0-10-4.48-10-10v-70.83c0-5.52,4.47-10,10-10h15c-5.53,0-10,4.48-10,10v70.83
		C23.086,153.767,27.556,158.247,33.086,158.247z"/>
	<rect x="31.826" y="43.587" class="st13" width="15" height="23.83"/>
	<path class="st1" d="M177.796,227.787c-2.45,0.31-4.95,0.47-7.48,0.47c-32.44,0-58.84-26.39-58.84-58.84
		c0-32.44,26.4-58.83,58.84-58.83c2.54,0,5.05,0.16,7.5,0.47c-28.91,3.7-51.34,28.46-51.34,58.36
		C126.476,199.317,148.896,224.077,177.796,227.787z"/>
	<g>
		<path class="st10" d="M177.816,203.637c-0.8,0.14-1.63,0.21-2.49,0.21h-10.02c-11.18,0-18.17-12.1-12.58-21.78l2.51-4.34l2.5-4.34
			c4.29-7.42,13.5-9.15,20.08-5.19c-2.01,1.2-3.77,2.93-5.08,5.19l-2.5,4.34l-2.51,4.34
			C162.566,191.007,168.126,202.007,177.816,203.637z"/>
	</g>
	<g>
		<path class="st8" d="M166.325,86.691v-9.274c0-7.72-6.28-14-14-14h-9.742V47.585h16.478c4.963,0,9-4.038,9-9V12.742
			c0-4.962-4.037-9-9-9H11.598c-4.963,0-9,4.038-9,9v25.843c0,4.962,4.037,9,9,9h16.477v15.832h-9.739c-7.72,0-14,6.28-14,14v70.83
			c0,7.72,6.28,14,14,14h69.723c-4.206,48.767,34.378,90.011,82.506,90.011c45.677,0,82.838-37.161,82.838-82.837
			C253.402,122.227,213.78,84.286,166.325,86.691z M11.598,39.585c-0.552,0-1-0.449-1-1V12.742c0-0.551,0.448-1,1-1h147.463
			c0.552,0,1,0.449,1,1c0,27.402,0.411,26.843-1,26.843C151.291,39.585,18.957,39.585,11.598,39.585z M134.583,47.585v15.832H36.074
			V47.585H134.583z M18.335,154.247c-3.309,0-6-2.691-6-6v-70.83c0-3.309,2.691-6,6-6c4.733,0,129.243,0,133.99,0
			c3.309,0,6,2.691,6,6v10.076c-34.912,5.193-62.764,32.25-69.18,66.754H18.335z M170.564,244.258
			c-41.266,0-74.837-33.572-74.837-74.837s33.571-74.837,74.837-74.837s74.838,33.572,74.838,74.837S211.83,244.258,170.564,244.258
			z"/>
		<path class="st8" d="M170.564,106.583c-34.648,0-62.837,28.189-62.837,62.837s28.188,62.837,62.837,62.837
			s62.838-28.188,62.838-62.837S205.213,106.583,170.564,106.583z M170.564,224.257c-30.237,0-54.837-24.6-54.837-54.837
			s24.6-54.837,54.837-54.837s54.838,24.6,54.838,54.837S200.802,224.257,170.564,224.257z"/>
		<path class="st8" d="M186.607,171.388c-7.129-12.348-24.95-12.359-32.084,0l-5.01,8.678c-7.131,12.349,1.771,27.786,16.041,27.786
			h10.021c6.696,0,12.693-3.462,16.042-9.262c3.349-5.8,3.349-12.725,0-18.524L186.607,171.388z M175.575,199.852h-10.021
			c-8.1,0-13.167-8.764-9.113-15.786l5.01-8.678c4.05-7.015,14.175-7.021,18.229,0l5.01,8.678
			C188.742,191.086,183.68,199.852,175.575,199.852z"/>
		<path class="st8" d="M163.457,157.131c4.06-1.478,5.573-7.559,3.381-13.583c-2.193-6.024-7.261-9.71-11.321-8.232
			s-5.573,7.559-3.381,13.583C154.329,154.923,159.397,158.609,163.457,157.131z"/>
		<path class="st8" d="M177.673,157.131c4.06,1.478,9.128-2.208,11.321-8.232s0.679-12.106-3.381-13.583s-9.128,2.208-11.321,8.232
			C172.1,149.572,173.613,155.653,177.673,157.131z"/>
		<path class="st8" d="M151.031,159.763c-2.193-6.024-7.261-9.71-11.321-8.232c-4.06,1.478-5.574,7.559-3.381,13.583
			c2.193,6.024,7.261,9.71,11.321,8.232S153.224,165.787,151.031,159.763z"/>
		<path class="st8" d="M201.42,151.531c-4.06-1.478-9.128,2.208-11.321,8.232c-2.193,6.024-0.679,12.106,3.381,13.583
			s9.128-2.208,11.321-8.232C206.994,159.09,205.48,153.008,201.42,151.531z"/>
		<path class="st8" d="M28.798,139.983h-0.642c-0.73,0-1.324-0.594-1.324-1.325v-23.991c0-2.209-1.791-4-4-4s-4,1.791-4,4v23.991
			c0,5.142,4.183,9.325,9.324,9.325h0.642c2.209,0,4-1.791,4-4S31.007,139.983,28.798,139.983z"/>
		<path class="st8" d="M46.915,139.983h-3.117c-2.209,0-4,1.791-4,4s1.791,4,4,4h3.117c2.209,0,4-1.791,4-4
			S49.124,139.983,46.915,139.983z"/>
	</g>
</g>
</svg>
