<?xml version="1.0" encoding="utf-8"?>
<!-- Generator: Adobe Illustrator 22.1.0, SVG Export Plug-In . SVG Version: 6.00 Build 0)  -->
<svg version="1.1" id="Icon_Set" xmlns="http://www.w3.org/2000/svg" xmlns:xlink="http://www.w3.org/1999/xlink" x="0px" y="0px"
	 viewBox="0 0 256 256" style="enable-background:new 0 0 256 256;" xml:space="preserve">
<style type="text/css">
	.st0{fill:#5FCDFF;}
	.st1{fill:#87828E;}
	.st2{fill:#B76C6C;}
	.st3{fill:#FF4A73;}
	.st4{fill:#73D7F9;}
	.st5{fill:#30B6FF;}
	.st6{fill:#A4A4A5;}
	.st7{fill:#F973A3;}
	.st8{fill:#5F266D;}
	.st9{fill:#FFE2E2;}
	.st10{fill:#FFEFEE;}
	.st11{fill:#796E84;}
	.st12{fill:#3193F3;}
	.st13{fill:#35B1FC;}
	.st14{fill:#307FED;}
	.st15{fill:#FFCFCF;}
	.st16{fill:#EA2A6A;}
	.st17{fill:#44C7B6;}
	.st18{fill:#3BB2A0;}
	.st19{fill:#4BDBC3;}
	.st20{fill:#C98585;}
	.st21{fill:#965959;}
	.st22{fill:#FFBB98;}
	.st23{fill:#FFCAA6;}
	.st24{fill:#FFAA80;}
	.st25{fill:#F9D335;}
	.st26{fill:#F2C300;}
	.st27{fill:#F9E27D;}
</style>
<g>
	<path class="st2" d="M197.54,97.09c0,4.57-1.32,8.83-3.62,12.41H62.18c-2.3-3.58-3.62-7.84-3.62-12.41
		c0-11.75,8.77-21.44,20.12-22.92c-1.17-2.76-1.82-5.8-1.82-9c0-12.76,10.35-23.11,23.12-23.11c1.7,0,3.37,0.19,4.97,0.54
		c-0.01-0.18-0.02-0.36-0.02-0.54c0-12.77,10.35-23.12,23.12-23.12c12.77,0,23.12,10.35,23.12,23.12c0,0.18-0.01,0.36-0.02,0.54
		c1.6-0.35,3.27-0.54,4.97-0.54c12.77,0,23.12,10.35,23.12,23.11c0,3.2-0.65,6.24-1.82,9C188.77,75.65,197.54,85.34,197.54,97.09z"
		/>
	<path class="st21" d="M197.54,97.09c0,4.57-1.32,8.83-3.62,12.41h-15c2.3-3.58,3.62-7.84,3.62-12.41
		c0-11.75-8.77-21.44-20.12-22.92c1.17-2.76,1.82-5.8,1.82-9c0-12.76-10.35-23.11-23.12-23.11c-1.7,0-3.37,0.19-4.97,0.54
		c0.01-0.18,0.02-0.36,0.02-0.54c0-10.14-6.53-18.76-15.62-21.87c2.35-0.81,4.87-1.25,7.5-1.25c12.77,0,23.12,10.35,23.12,23.12
		c0,0.18-0.01,0.36-0.02,0.54c1.6-0.35,3.27-0.54,4.97-0.54c12.77,0,23.12,10.35,23.12,23.11c0,3.2-0.65,6.24-1.82,9
		C188.77,75.65,197.54,85.34,197.54,97.09z"/>
	<path class="st20" d="M119.93,42.06c0,0.18,0.01,0.36,0.02,0.54c-1.6-0.35-3.27-0.54-4.97-0.54c-12.77,0-23.12,10.35-23.12,23.11
		c0,3.2,0.65,6.24,1.82,9c-11.35,1.48-20.12,11.17-20.12,22.92c0,4.57,1.32,8.83,3.62,12.41h-15c-2.3-3.58-3.62-7.84-3.62-12.41
		c0-11.75,8.77-21.44,20.12-22.92c-1.17-2.76-1.82-5.8-1.82-9c0-12.76,10.35-23.11,23.12-23.11c1.7,0,3.37,0.19,4.97,0.54
		c-0.01-0.18-0.02-0.36-0.02-0.54c0-12.77,10.35-23.12,23.12-23.12c2.63,0,5.15,0.44,7.5,1.25
		C126.46,23.3,119.93,31.92,119.93,42.06z"/>
	<path class="st3" d="M234.369,205.974H21.631l28.283-96.355c1.25-4.258,5.157-7.184,9.595-7.184h136.983
		c4.438,0,8.345,2.925,9.595,7.184L234.369,205.974z"/>
	<path class="st22" d="M114.233,151.18c6.141-10.636,21.493-10.636,27.633,0l2.752,4.766l2.752,4.766
		c6.141,10.636-1.535,23.931-13.817,23.931h-5.503h-5.503c-12.282,0-19.957-13.295-13.817-23.931l2.752-4.766L114.233,151.18z"/>
	<path class="st7" d="M74.51,102.44c-4.44,0-8.35,2.92-9.6,7.18l-28.28,96.35h-15l28.28-96.35c1.25-4.26,5.16-7.18,9.6-7.18H74.51z"
		/>
	<path class="st16" d="M234.37,205.97h-15l-28.28-96.35c-1.25-4.26-5.16-7.18-9.6-7.18h15c4.44,0,8.35,2.92,9.6,7.18L234.37,205.97z
		"/>
	<path class="st23" d="M135.55,184.51c-0.65,0.09-1.32,0.13-2,0.13h-11c-12.28,0-19.96-13.29-13.82-23.93l2.75-4.76l2.75-4.77
		c4.55-7.88,14.15-9.92,21.32-6.12c-2.52,1.32-4.73,3.36-6.32,6.12l-2.75,4.77l-2.75,4.76
		C117.93,170.76,124.46,183.17,135.55,184.51z"/>
	<path class="st17" d="M241.052,237.061H14.948c-5.523,0-10-4.477-10-10v-18.409c0-5.523,4.477-10,10-10h226.103
		c5.523,0,10,4.477,10,10v18.409C251.052,232.583,246.575,237.061,241.052,237.061z"/>
	<path class="st19" d="M29.95,237.06h-15c-5.52,0-10-4.48-10-10v-18.41c0-5.52,4.48-10,10-10h15c-5.52,0-10,4.48-10,10v18.41
		C19.95,232.58,24.43,237.06,29.95,237.06z"/>
	<path class="st18" d="M251.05,208.65v18.41c0,5.52-4.48,10-10,10h-15c5.52,0,10-4.48,10-10v-18.41c0-5.52-4.48-10-10-10h15
		C246.57,198.65,251.05,203.13,251.05,208.65z"/>
	<g>
		<path class="st8" d="M241.052,194.652h-5.836l-25.288-86.16c-1.253-4.269-4.479-7.599-8.495-9.13
			c1.082-12.897-7.063-24.419-18.872-28.133c4.003-17.495-9.849-33.963-27.681-33.142c-1.928-13.078-13.225-23.149-26.83-23.149
			s-24.902,10.071-26.83,23.149c-17.802-0.82-31.691,15.617-27.681,33.142c-11.746,3.695-19.947,15.163-18.875,28.096
			c-4.061,1.514-7.329,4.864-8.592,9.167l-25.288,86.16h-5.836c-7.72,0-14,6.28-14,14v18.409c0,7.72,6.28,14,14,14h226.104
			c7.72,0,14-6.28,14-14v-18.409C255.052,200.933,248.771,194.652,241.052,194.652z M79.194,78.145
			c1.24-0.161,2.333-0.892,2.956-1.976c1.753-3.055-1.29-4.177-1.29-10.991c0-12.101,11.209-21.306,23.235-18.672
			c2.092,0.457,4.835-0.741,4.835-4.448c0-10.543,8.577-19.12,19.12-19.12c11.42,0,19.639,9.936,19.106,19.433
			c-0.15,2.643,2.266,4.7,4.849,4.135c15.154-3.32,27.748,11.87,21.73,26.116c-1.026,2.432,0.546,5.183,3.171,5.523
			c9.898,1.282,17.298,10.117,16.581,20.293H62.613C61.894,88.27,69.289,79.428,79.194,78.145z M53.749,110.745
			c0.744-2.535,3.113-4.306,5.761-4.306h136.98c2.648,0,5.018,1.771,5.762,4.307l24.627,83.907H29.121L53.749,110.745z
			 M247.052,227.062c0,3.309-2.691,6-6,6H14.948c-3.309,0-6-2.691-6-6v-18.409c0-3.309,2.691-6,6-6h226.104c3.309,0,6,2.691,6,6
			V227.062z"/>
		<path class="st8" d="M145.331,149.182c-3.607-6.248-10.067-9.977-17.281-9.977c-7.214,0-13.674,3.729-17.281,9.977l-5.503,9.532
			c-7.68,13.3,1.906,29.931,17.28,29.931h11.007c15.358,0,24.968-16.617,17.281-29.931L145.331,149.182z M133.554,180.645h-11.007
			c-9.201,0-14.958-9.955-10.352-17.931l5.503-9.532c0,0,0,0,0,0c4.6-7.969,16.099-7.976,20.705,0l5.503,9.532
			C148.506,170.682,142.764,180.645,133.554,180.645z"/>
		<g>
			
				<ellipse transform="matrix(0.9397 -0.342 0.342 0.9397 -35.8735 47.3367)" class="st8" cx="116.292" cy="125.392" rx="8.593" ry="12.751"/>
			
				<ellipse transform="matrix(0.342 -0.9397 0.9397 0.342 -25.2981 214.6541)" class="st8" cx="140.63" cy="125.392" rx="12.751" ry="8.593"/>
		</g>
		<g>
			
				<ellipse transform="matrix(0.9397 -0.342 0.342 0.9397 -43.0121 42.471)" class="st8" cx="98.928" cy="143.204" rx="8.593" ry="12.751"/>
			<path class="st8" d="M162.355,131.222c-4.46-1.623-10.027,2.426-12.436,9.043c-2.409,6.618-0.746,13.298,3.714,14.921
				s10.027-2.426,12.436-9.043C168.477,139.526,166.815,132.845,162.355,131.222z"/>
		</g>
		<path class="st8" d="M210.861,176.764l-1.248-4.611c-0.577-2.132-2.771-3.392-4.906-2.816c-2.132,0.577-3.393,2.773-2.816,4.906
			l1.248,4.611c0.482,1.783,2.097,2.956,3.859,2.956c0.346,0,0.697-0.045,1.047-0.14
			C210.177,181.093,211.438,178.896,210.861,176.764z"/>
		<path class="st8" d="M202.879,162.58c2.133-0.577,3.394-2.773,2.817-4.906l-7.835-28.959c-0.577-2.133-2.775-3.393-4.906-2.817
			c-2.133,0.577-3.394,2.773-2.817,4.906l7.835,28.959c0.482,1.783,2.097,2.957,3.859,2.957
			C202.178,162.72,202.53,162.674,202.879,162.58z"/>
	</g>
</g>
</svg>
