<?xml version="1.0" encoding="utf-8"?>
<!-- Generator: Adobe Illustrator 22.1.0, SVG Export Plug-In . SVG Version: 6.00 Build 0)  -->
<svg version="1.1" id="Icon_Set" xmlns="http://www.w3.org/2000/svg" xmlns:xlink="http://www.w3.org/1999/xlink" x="0px" y="0px"
	 viewBox="0 0 256 256" style="enable-background:new 0 0 256 256;" xml:space="preserve">
<style type="text/css">
	.st0{fill:#5FCDFF;}
	.st1{fill:#87828E;}
	.st2{fill:#B76C6C;}
	.st3{fill:#FF4A73;}
	.st4{fill:#73D7F9;}
	.st5{fill:#30B6FF;}
	.st6{fill:#A4A4A5;}
	.st7{fill:#F973A3;}
	.st8{fill:#5F266D;}
	.st9{fill:#FFE2E2;}
	.st10{fill:#FFEFEE;}
	.st11{fill:#796E84;}
	.st12{fill:#3193F3;}
	.st13{fill:#35B1FC;}
	.st14{fill:#307FED;}
	.st15{fill:#FFCFCF;}
	.st16{fill:#EA2A6A;}
	.st17{fill:#44C7B6;}
	.st18{fill:#3BB2A0;}
	.st19{fill:#4BDBC3;}
	.st20{fill:#C98585;}
	.st21{fill:#965959;}
	.st22{fill:#FFBB98;}
	.st23{fill:#FFCAA6;}
	.st24{fill:#FFAA80;}
	.st25{fill:#F9D335;}
	.st26{fill:#F2C300;}
	.st27{fill:#F9E27D;}
</style>
<g>
	<g>
		<path class="st17" d="M131.449,250.797h-6.899c-5.523,0-10-4.477-10-10V108.379h26.899v132.418
			C141.449,246.32,136.972,250.797,131.449,250.797z"/>
		<path class="st19" d="M135.5,249.935c-1.24,0.55-2.61,0.86-4.05,0.86h-6.9c-5.52,0-10-4.48-10-10v-132.42h15v132.42
			C129.55,244.875,131.99,248.385,135.5,249.935z"/>
		<path class="st2" d="M148.732,155.251h-41.464c-2.761,0-5-2.239-5-5v-23.515h51.464v23.515
			C153.732,153.013,151.493,155.251,148.732,155.251z"/>
		<path class="st20" d="M122.27,155.255h-15c-2.76,0-5-2.24-5-5v-23.52h15v23.52C117.27,153.015,119.51,155.255,122.27,155.255z"/>
		<path class="st21" d="M153.73,126.735v23.52c0,2.76-2.24,5-5,5h-15c2.76,0,5-2.24,5-5v-23.52H153.73z"/>
		<path class="st2" d="M171.113,139.472H84.887c-5.523,0-10-4.477-10-10V15.201c0-5.523,4.477-10,10-10h86.227
			c5.523,0,10,4.477,10,10v114.271C181.113,134.995,176.636,139.472,171.113,139.472z"/>
		<path class="st22" d="M159.258,114.94H96.574c-2.761,0-5-2.239-5-5V34.011c0-2.761,2.239-5,5-5h62.684c2.761,0,5,2.239,5,5v75.929
			C164.258,112.701,162.02,114.94,159.258,114.94z"/>
		<path class="st23" d="M111.57,114.935h-15c-2.76,0-5-2.23-5-5v-75.92c0-2.77,2.24-5,5-5h15c-2.76,0-5,2.23-5,5v75.92
			C106.57,112.705,108.81,114.935,111.57,114.935z"/>
		<path class="st24" d="M164.26,34.015v75.92c0,2.77-2.24,5-5,5h-15c2.76,0,5-2.23,5-5v-75.92c0-2.77-2.24-5-5-5h15
			C162.02,29.015,164.26,31.245,164.26,34.015z"/>
		<path class="st20" d="M99.89,139.475h-15c-5.53,0-10-4.48-10-10V15.205c0-5.53,4.47-10,10-10h15c-5.53,0-10,4.47-10,10v114.27
			C89.89,134.995,94.36,139.475,99.89,139.475z"/>
		<path class="st21" d="M181.11,15.205v114.27c0,5.52-4.47,10-10,10h-15c5.53,0,10-4.48,10-10V15.205c0-5.53-4.47-10-10-10h15
			C176.64,5.205,181.11,9.675,181.11,15.205z"/>
	</g>
	<g>
		<path class="st8" d="M171.11,1.205H84.89c-7.72,0-14,6.28-14,14v114.27c0,7.72,6.28,14,14,14h13.38v6.78c0,4.96,4.04,9,9,9h3.28
			v81.54c0,7.72,6.28,14,14,14h6.9c7.72,0,14-6.28,14-14v-81.54h3.28c4.96,0,9-4.04,9-9v-6.78h13.38c7.72,0,14-6.28,14-14V15.205
			C185.11,7.485,178.83,1.205,171.11,1.205z M177.11,129.475c0,3.31-2.69,6-6,6c-9.784,0-75.493,0-86.22,0c-3.31,0-6-2.69-6-6
			V15.205c0-3.31,2.69-6,6-6h86.22c3.31,0,6,2.69,6,6V129.475z M149.73,150.255c0,0.55-0.45,1-1,1c-31.14,0-10.606,0-41.46,0
			c-0.55,0-1-0.45-1-1v-6.78c22.256,0,20.727,0,43.46,0V150.255z M137.45,240.795c0,3.31-2.69,6-6,6h-6.9c-3.31,0-6-2.69-6-6v-81.54
			h18.9V240.795z"/>
		<path class="st8" d="M159.26,25.015H96.57c-4.96,0-9,4.03-9,9v75.92c0,4.97,4.04,9,9,9c28.034,0,33.826,0,62.69,0
			c4.96,0,9-4.03,9-9v-75.92C168.26,29.045,164.22,25.015,159.26,25.015z M160.26,109.935c0,0.56-0.45,1-1,1
			c-29.322,0-49.636,0-62.69,0c-0.55,0-1-0.44-1-1v-75.92c0-0.56,0.45-1,1-1h62.69c0.55,0,1,0.44,1,1V109.935z"/>
		<path class="st8" d="M141.12,48.795c-4.389,0-4.417,6.67,0,6.67C145.544,55.465,145.504,48.795,141.12,48.795z"/>
		<path class="st8" d="M127.92,48.795c-4.402,0-4.428,6.67,0,6.67C132.343,55.465,132.304,48.795,127.92,48.795z"/>
		<path class="st8" d="M114.71,48.795c-4.389,0-4.417,6.67,0,6.67C119.148,55.465,119.103,48.795,114.71,48.795z"/>
		<path class="st8" d="M98.18,52.135c0,4.399,6.66,4.407,6.66,0C104.84,47.724,98.18,47.715,98.18,52.135z"/>
		<path class="st8" d="M154.32,48.795c-4.389,0-4.417,6.67,0,6.67C158.758,55.465,158.713,48.795,154.32,48.795z"/>
		<path class="st8" d="M141.12,35.575c-4.399,0-4.408,6.66,0,6.66C145.519,42.235,145.528,35.575,141.12,35.575z"/>
		<path class="st8" d="M127.92,35.575c-4.412,0-4.419,6.66,0,6.66C132.319,42.235,132.328,35.575,127.92,35.575z"/>
		<path class="st8" d="M114.71,35.575c-4.399,0-4.408,6.66,0,6.66C119.122,42.235,119.129,35.575,114.71,35.575z"/>
		<path class="st8" d="M101.51,35.575c-4.399,0-4.408,6.66,0,6.66C105.909,42.235,105.918,35.575,101.51,35.575z"/>
		<path class="st8" d="M150.99,38.905c0,4.415,6.67,4.39,6.67,0C157.66,34.516,150.99,34.488,150.99,38.905z"/>
		<path class="st8" d="M144.37,65.365c0-4.437-6.67-4.395-6.67,0C137.7,69.761,144.37,69.773,144.37,65.365z"/>
		<path class="st8" d="M131.17,65.365c0-4.402-6.67-4.428-6.67,0C124.5,69.78,131.17,69.755,131.17,65.365z"/>
		<path class="st8" d="M117.96,65.365c0-4.411-6.66-4.42-6.66,0C111.3,69.764,117.96,69.772,117.96,65.365z"/>
		<path class="st8" d="M104.76,65.365c0-4.419-6.67-4.411-6.67,0C98.09,69.757,104.76,69.782,104.76,65.365z"/>
		<path class="st8" d="M157.57,65.365c0-4.411-6.66-4.42-6.66,0C150.91,69.764,157.57,69.772,157.57,65.365z"/>
		<path class="st8" d="M141.12,101.715c-4.433,0-4.42,6.66,0,6.66C145.514,108.375,145.532,101.715,141.12,101.715z"/>
		<path class="st8" d="M127.92,101.715c-4.457,0-4.42,6.66,0,6.66C132.359,108.375,132.287,101.715,127.92,101.715z"/>
		<path class="st8" d="M114.71,101.715c-4.443,0-4.358,6.66,0,6.66C119.162,108.375,119.088,101.715,114.71,101.715z"/>
		<path class="st8" d="M101.51,101.715c-1.84,0-3.33,1.49-3.33,3.33c0,1.84,1.49,3.33,3.33,3.33
			C105.909,108.375,105.918,101.715,101.51,101.715z"/>
		<path class="st8" d="M154.32,101.715c-4.399,0-4.408,6.66,0,6.66C158.732,108.375,158.739,101.715,154.32,101.715z"/>
		<path class="st8" d="M141.12,75.255c-4.407,0-4.399,6.67,0,6.67C145.513,81.925,145.536,75.255,141.12,75.255z"/>
		<path class="st8" d="M124.58,78.585c0,1.85,1.5,3.34,3.34,3.34c1.84,0,3.33-1.49,3.33-3.34
			C131.25,74.162,124.58,74.201,124.58,78.585z"/>
		<path class="st8" d="M111.38,78.585c0,1.85,1.49,3.34,3.33,3.34c1.84,0,3.34-1.49,3.34-3.34
			C118.05,74.195,111.38,74.168,111.38,78.585z"/>
		<path class="st8" d="M98.18,78.585c0,4.415,6.66,4.42,6.66,0C104.84,74.185,98.18,74.179,98.18,78.585z"/>
		<path class="st8" d="M154.32,75.255c-4.407,0-4.399,6.67,0,6.67C158.725,81.925,158.749,75.255,154.32,75.255z"/>
		<path class="st8" d="M141.12,88.485c-4.423,0-4.384,6.67,0,6.67C145.509,95.155,145.537,88.485,141.12,88.485z"/>
		<path class="st8" d="M127.92,88.485c-4.437,0-4.394,6.67,0,6.67C132.309,95.155,132.337,88.485,127.92,88.485z"/>
		<path class="st8" d="M114.71,88.485c-4.425,0-4.382,6.67,0,6.67C119.112,95.155,119.138,88.485,114.71,88.485z"/>
		<path class="st8" d="M101.51,88.485c-4.425,0-4.382,6.67,0,6.67C105.9,95.155,105.926,88.485,101.51,88.485z"/>
		<path class="st8" d="M150.99,91.815c0,4.437,6.67,4.395,6.67,0C157.66,87.425,150.99,87.398,150.99,91.815z"/>
		<path class="st8" d="M128,242.965c3.42,0,6.19-2.77,6.19-6.19c0-3.41-2.77-6.18-6.19-6.18s-6.19,2.77-6.19,6.18
			C121.81,240.195,124.58,242.965,128,242.965z"/>
	</g>
</g>
</svg>
