<?xml version="1.0" encoding="utf-8"?>
<!-- Generator: Adobe Illustrator 22.1.0, SVG Export Plug-In . SVG Version: 6.00 Build 0)  -->
<svg version="1.1" id="Icon_Set" xmlns="http://www.w3.org/2000/svg" xmlns:xlink="http://www.w3.org/1999/xlink" x="0px" y="0px"
	 viewBox="0 0 256 256" style="enable-background:new 0 0 256 256;" xml:space="preserve">
<style type="text/css">
	.st0{fill:#5FCDFF;}
	.st1{fill:#87828E;}
	.st2{fill:#B76C6C;}
	.st3{fill:#FF4A73;}
	.st4{fill:#73D7F9;}
	.st5{fill:#30B6FF;}
	.st6{fill:#A4A4A5;}
	.st7{fill:#F973A3;}
	.st8{fill:#5F266D;}
	.st9{fill:#FFE2E2;}
	.st10{fill:#FFEFEE;}
	.st11{fill:#796E84;}
	.st12{fill:#3193F3;}
	.st13{fill:#35B1FC;}
	.st14{fill:#307FED;}
	.st15{fill:#FFCFCF;}
	.st16{fill:#EA2A6A;}
	.st17{fill:#44C7B6;}
	.st18{fill:#3BB2A0;}
	.st19{fill:#4BDBC3;}
	.st20{fill:#C98585;}
	.st21{fill:#965959;}
	.st22{fill:#FFBB98;}
	.st23{fill:#FFCAA6;}
	.st24{fill:#FFAA80;}
	.st25{fill:#F9D335;}
	.st26{fill:#F2C300;}
	.st27{fill:#F9E27D;}
</style>
<g>
	<path class="st22" d="M218.977,117.645l-33.89,125.13c-1.18,4.36-5.13,7.39-9.65,7.39h-93.55c-4.5,0-8.44-3-9.64-7.34
		l-34.63-125.18l90.68-97.48L218.977,117.645z"/>
	<path class="st2" d="M170.687,198.545v51.62h-85.38v-51.62c0-23.58,19.11-42.69,42.69-42.69c11.79,0,22.46,4.78,30.19,12.5
		C165.907,176.085,170.687,186.755,170.687,198.545z"/>
	<path class="st23" d="M96.887,250.165h-15c-4.5,0-8.44-3-9.64-7.34l-34.63-125.18l90.68-97.48l7.5,8.06l-83.18,89.42l34.63,125.18
		C88.447,247.165,92.387,250.165,96.887,250.165z"/>
	<path class="st24" d="M218.977,117.645l-33.89,125.13c-1.18,4.36-5.13,7.39-9.65,7.39h-15c4.52,0,8.47-3.03,9.65-7.39l33.89-125.13
		l-83.18-89.42l7.5-8.06L218.977,117.645z"/>
	<path class="st21" d="M170.687,198.545v51.62h-15v-51.62c0-11.79-4.78-22.46-12.5-30.19c-6.05-6.04-13.91-10.29-22.69-11.84
		c2.44-0.43,4.94-0.66,7.5-0.66c11.79,0,22.46,4.78,30.19,12.5C165.907,176.085,170.687,186.755,170.687,198.545z"/>
	<path class="st20" d="M135.497,156.515c-20,3.54-35.19,21.01-35.19,42.03v51.62h-15v-51.62c0-23.58,19.11-42.69,42.69-42.69
		C130.557,155.855,133.067,156.085,135.497,156.515z"/>
	<g>
		<path class="st2" d="M234.398,149.179c-3.842,0-7.674-1.536-10.498-4.571L128.299,41.21L32.095,144.608
			c-5.392,5.796-14.462,6.124-20.259,0.732c-5.797-5.392-6.124-14.463-0.732-20.259L117.804,10.4
			c2.712-2.915,6.514-4.571,10.496-4.571s7.783,1.656,10.496,4.571L244.891,125.08c5.392,5.797,5.065,14.868-0.732,20.259
			C241.398,147.909,237.894,149.179,234.398,149.179z"/>
	</g>
	<g>
		<path class="st20" d="M26.107,125.085c-5.4,5.79-5.07,14.86,0.73,20.25c0.71,0.66,1.47,1.24,2.27,1.72
			c-5.35,3.3-12.44,2.77-17.27-1.72c-5.8-5.39-6.13-14.46-0.73-20.25l106.7-114.69c2.71-2.91,6.51-4.57,10.49-4.57
			c2.67,0,5.27,0.75,7.51,2.12c-1.1,0.67-2.11,1.49-3,2.45L26.107,125.085z"/>
	</g>
	<g>
		<path class="st21" d="M244.157,145.335c-2.76,2.57-6.26,3.84-9.76,3.84c-2.61,0-5.22-0.71-7.51-2.12c0.8-0.48,1.56-1.06,2.27-1.72
			c5.8-5.39,6.13-14.46,0.73-20.25l-106.09-114.69c-0.89-0.96-1.9-1.78-2.99-2.45c2.23-1.37,4.82-2.12,7.49-2.12
			c3.98,0,7.79,1.66,10.5,4.57l106.09,114.69C250.287,130.875,249.957,139.945,244.157,145.335z"/>
	</g>
	<circle class="st9" cx="127.997" cy="50.982" r="46.352"/>
	<path class="st2" d="M116.561,53.589c5.101-8.836,17.854-8.836,22.956,0c0.106,0.184,4.658,8.068,4.572,7.919
		c5.101,8.836-1.275,19.88-11.478,19.88c-0.212,0-9.316,0-9.144,0c-10.202,0-16.579-11.045-11.478-19.88
		C112.095,61.324,116.647,53.44,116.561,53.589z"/>
	<path class="st20" d="M135.537,81.064c-0.93,0.21-1.91,0.32-2.93,0.32c-0.21,0-9.14,0-9.14,0c-10.2,0-16.58-11.04-11.48-19.88
		c0.11-0.18,4.57-7.91,4.57-7.91c4.06-7.03,12.95-8.47,18.99-4.32c-1.56,1.06-2.94,2.5-3.99,4.32c0,0-4.46,7.73-4.57,7.91
		C122.397,69.464,127.107,79.204,135.537,81.064z"/>
	<path class="st15" d="M174.347,50.98c0,25.6-20.75,46.35-46.35,46.35c-2.55,0-5.06-0.21-7.5-0.6c22.03-3.59,38.85-22.7,38.85-45.75
		s-16.82-42.16-38.85-45.75c2.44-0.39,4.95-0.6,7.5-0.6C153.597,4.63,174.347,25.38,174.347,50.98z"/>
	<path class="st10" d="M135.497,96.73c-2.44,0.39-4.95,0.6-7.5,0.6c-25.6,0-46.35-20.75-46.35-46.35s20.75-46.35,46.35-46.35
		c2.55,0,5.06,0.21,7.5,0.6c-22.03,3.59-38.85,22.7-38.85,45.75S113.467,93.14,135.497,96.73z"/>
	<g>
		<path class="st8" d="M247.824,123.714l-69.549-75.178C177.068,21.897,154.847,0.48,127.997,0.48
			c-27.089,0-49.313,21.606-50.301,48.504L8.18,123.704c-11.012,11.828-2.323,31.421,14.084,30.814
			c8.732-0.313,12.439-5.487,17.887-11.342l28.241,102.07c1.673,6.049,7.223,10.273,13.495,10.273h93.551
			c6.307,0,11.862-4.254,13.511-10.344l27.47-101.412c4.575,4.948,8.734,10.766,17.979,10.766
			C250.447,154.53,258.647,135.339,247.824,123.714z M127.997,8.48c35.321,0,55.826,41.698,32.438,69.586
			c-25.265,30.049-74.788,12.338-74.788-27.236C85.648,27.485,104.697,8.48,127.997,8.48z M163.491,86.524l18.573,20.085H74.173
			l18.518-19.902c9.387,9.238,22.015,14.473,35.307,14.473C141.391,101.18,154.084,95.881,163.491,86.524z M29.167,143.237
			c-1.878,2.021-4.432,3.188-7.189,3.287c-9.267,0.315-14.151-10.699-7.941-17.369l64.434-69.257
			c1.368,7.514,4.418,14.583,8.944,20.736L29.167,143.237z M81.307,247.471c-2.443-0.241-4.54-1.953-5.204-4.357l-5.192-18.764
			h10.396V247.471z M81.307,216.35H68.698l-7.908-28.58h22.124C80.899,195.253,81.307,198.993,81.307,216.35z M166.688,247.517
			H89.307v-47.62c0-21.333,17.356-38.69,38.69-38.69c21.382,0,38.69,17.304,38.69,38.69V247.517z M181.226,243.085
			c-0.706,2.611-3.087,4.435-5.788,4.435h-0.75v-23.17h11.613L181.226,243.085z M188.468,216.35h-13.78
			c0-17.379,0.403-21.102-1.595-28.58h23.117L188.468,216.35z M198.377,179.77h-28.228c-16.921-35.378-67.31-35.363-84.275,0H58.576
			l-7.909-28.583h155.451L198.377,179.77z M208.286,143.187H48.454l-1.906-6.887l20.181-21.69h122.731l20.547,22.221
			L208.286,143.187z M226.834,143.244c-22.421-24.247-35.824-38.742-58.098-62.83c4.51-6.206,7.521-13.277,8.847-20.845
			l64.376,69.587c1.883,2.022,2.865,4.655,2.766,7.414C244.396,145.674,233.124,149.999,226.834,143.244z"/>
		<path class="st8" d="M112.486,50.874C112.486,50.874,112.486,50.874,112.486,50.874l-4.815,8.342
			c-6.918,11.98,1.722,26.942,15.555,26.942h9.633c13.824,0,22.475-14.959,15.555-26.942l-4.816-8.342
			C136.684,38.899,119.406,38.889,112.486,50.874z M136.668,54.874l4.816,8.342c3.834,6.64-0.952,14.942-8.627,14.942h-9.633
			c-7.668,0-12.464-8.296-8.627-14.942l4.816-8.342C123.249,48.233,132.831,48.227,136.668,54.874z"/>
		<g>
			
				<ellipse transform="matrix(0.9397 -0.342 0.342 0.9397 -3.2635 42.1001)" class="st8" cx="117.752" cy="30.304" rx="7.52" ry="11.159"/>
			<path class="st8" d="M135.234,40.79c3.903,1.42,8.775-2.123,10.883-7.914c2.108-5.791,0.653-11.637-3.25-13.058
				c-3.903-1.42-8.775,2.123-10.883,7.914C129.876,33.523,131.331,39.37,135.234,40.79z"/>
		</g>
		<g>
			<path class="st8" d="M106.373,56.378c3.903-1.42,5.358-7.267,3.25-13.058c-2.108-5.791-6.98-9.334-10.883-7.914
				c-3.903,1.42-5.358,7.267-3.25,13.058C97.598,54.256,102.47,57.799,106.373,56.378z"/>
			<path class="st8" d="M150.429,56.378c3.903,1.42,8.775-2.123,10.883-7.914c2.108-5.791,0.653-11.637-3.25-13.058
				c-3.903-1.42-8.775,2.123-10.883,7.914C145.071,49.112,146.526,54.958,150.429,56.378z"/>
		</g>
		<path class="st8" d="M154.664,225.032c-2.209,0-4,1.791-4,4v3.333c0,2.209,1.791,4,4,4s4-1.791,4-4v-3.333
			C158.664,226.823,156.873,225.032,154.664,225.032z"/>
		<path class="st8" d="M150.664,196.032v18c0,2.209,1.791,4,4,4s4-1.791,4-4v-18c0-2.209-1.791-4-4-4
			S150.664,193.823,150.664,196.032z"/>
	</g>
</g>
</svg>
