<?xml version="1.0" encoding="utf-8"?>
<!-- Generator: Adobe Illustrator 22.1.0, SVG Export Plug-In . SVG Version: 6.00 Build 0)  -->
<svg version="1.1" id="Icon_Set" xmlns="http://www.w3.org/2000/svg" xmlns:xlink="http://www.w3.org/1999/xlink" x="0px" y="0px"
	 viewBox="0 0 256 256" style="enable-background:new 0 0 256 256;" xml:space="preserve">
<style type="text/css">
	.st0{fill:#5FCDFF;}
	.st1{fill:#87828E;}
	.st2{fill:#B76C6C;}
	.st3{fill:#FF4A73;}
	.st4{fill:#73D7F9;}
	.st5{fill:#30B6FF;}
	.st6{fill:#A4A4A5;}
	.st7{fill:#F973A3;}
	.st8{fill:#5F266D;}
	.st9{fill:#FFE2E2;}
	.st10{fill:#FFEFEE;}
	.st11{fill:#796E84;}
	.st12{fill:#3193F3;}
	.st13{fill:#35B1FC;}
	.st14{fill:#307FED;}
	.st15{fill:#FFCFCF;}
	.st16{fill:#EA2A6A;}
	.st17{fill:#44C7B6;}
	.st18{fill:#3BB2A0;}
	.st19{fill:#4BDBC3;}
	.st20{fill:#C98585;}
	.st21{fill:#965959;}
	.st22{fill:#FFBB98;}
	.st23{fill:#FFCAA6;}
	.st24{fill:#FFAA80;}
	.st25{fill:#F9D335;}
	.st26{fill:#F2C300;}
	.st27{fill:#F9E27D;}
</style>
<g>
	<path class="st22" d="M220.305,117.572l-33.89,125.13c-1.18,4.36-5.13,7.39-9.65,7.39h-93.55c-4.5,0-8.44-3-9.64-7.34
		l-34.63-125.18l90.68-97.48L220.305,117.572z"/>
	<path class="st2" d="M172.015,198.472v51.62h-85.38v-51.62c0-23.58,19.11-42.69,42.69-42.69c11.79,0,22.46,4.78,30.19,12.5
		C167.235,176.012,172.015,186.682,172.015,198.472z"/>
	<path class="st23" d="M98.215,250.092h-15c-4.5,0-8.44-3-9.64-7.34l-34.63-125.18l90.68-97.48l7.5,8.06l-83.18,89.42l34.63,125.18
		C89.775,247.092,93.715,250.092,98.215,250.092z"/>
	<path class="st24" d="M220.305,117.572l-33.89,125.13c-1.18,4.36-5.13,7.39-9.65,7.39h-15c4.52,0,8.47-3.03,9.65-7.39l33.89-125.13
		l-83.18-89.42l7.5-8.06L220.305,117.572z"/>
	<path class="st21" d="M172.015,198.472v51.62h-15v-51.62c0-11.79-4.78-22.46-12.5-30.19c-6.05-6.04-13.91-10.29-22.69-11.84
		c2.44-0.43,4.94-0.66,7.5-0.66c11.79,0,22.46,4.78,30.19,12.5C167.235,176.012,172.015,186.682,172.015,198.472z"/>
	<path class="st20" d="M136.825,156.442c-20,3.54-35.19,21.01-35.19,42.03v51.62h-15v-51.62c0-23.58,19.11-42.69,42.69-42.69
		C131.885,155.782,134.395,156.012,136.825,156.442z"/>
	<g>
		<path class="st2" d="M235.892,150.106c-3.842,0-7.674-1.536-10.498-4.571L129.793,42.137L33.589,145.535
			c-5.392,5.796-14.462,6.124-20.259,0.732c-5.797-5.392-6.124-14.463-0.732-20.259l106.7-114.681
			c2.712-2.915,6.514-4.571,10.496-4.571c3.981,0,7.783,1.656,10.496,4.571l106.096,114.681c5.392,5.797,5.065,14.868-0.732,20.259
			C242.892,148.835,239.388,150.106,235.892,150.106z"/>
	</g>
	<g>
		<path class="st20" d="M27.601,126.012c-5.4,5.79-5.07,14.86,0.73,20.25c0.71,0.66,1.47,1.24,2.27,1.72
			c-5.35,3.3-12.44,2.77-17.27-1.72c-5.8-5.39-6.13-14.46-0.73-20.25l106.7-114.69c2.71-2.91,6.51-4.57,10.49-4.57
			c2.67,0,5.27,0.75,7.51,2.12c-1.1,0.67-2.11,1.49-3,2.45L27.601,126.012z"/>
	</g>
	<g>
		<path class="st21" d="M245.651,146.262c-2.76,2.57-6.26,3.84-9.76,3.84c-2.61,0-5.22-0.71-7.51-2.12c0.8-0.48,1.56-1.06,2.27-1.72
			c5.8-5.39,6.13-14.46,0.73-20.25l-106.09-114.69c-0.89-0.96-1.9-1.78-2.99-2.45c2.23-1.37,4.82-2.12,7.49-2.12
			c3.98,0,7.79,1.66,10.5,4.57l106.09,114.69C251.781,131.802,251.451,140.872,245.651,146.262z"/>
	</g>
	<circle class="st17" cx="129.325" cy="50.908" r="46.352"/>
	<path class="st18" d="M175.675,50.907c0,25.6-20.75,46.35-46.35,46.35c-2.55,0-5.06-0.21-7.5-0.6
		c22.03-3.59,38.85-22.7,38.85-45.75s-16.82-42.16-38.85-45.75c2.44-0.39,4.95-0.6,7.5-0.6
		C154.925,4.557,175.675,25.307,175.675,50.907z"/>
	<path class="st19" d="M136.825,96.657c-2.44,0.39-4.95,0.6-7.5,0.6c-25.6,0-46.35-20.75-46.35-46.35s20.75-46.35,46.35-46.35
		c2.55,0,5.06,0.21,7.5,0.6c-22.03,3.59-38.85,22.7-38.85,45.75S114.795,93.067,136.825,96.657z"/>
	<path class="st9" d="M157.501,50.908c3.68-1.404,6.299-4.957,6.299-9.131c0-5.401-4.379-9.78-9.78-9.78s-9.78,4.379-9.78,9.78
		c0,0.853,0.121,1.676,0.326,2.465h-30.477c0.205-0.789,0.326-1.612,0.326-2.465c0-5.401-4.379-9.78-9.78-9.78
		s-9.78,4.379-9.78,9.78c0,4.174,2.619,7.727,6.299,9.131c-3.68,1.404-6.299,4.957-6.299,9.131c0,5.401,4.379,9.78,9.78,9.78
		s9.78-4.379,9.78-9.78c0-0.732-0.087-1.444-0.24-2.13h30.305c-0.153,0.686-0.24,1.398-0.24,2.13c0,5.401,4.379,9.78,9.78,9.78
		s9.78-4.379,9.78-9.78C163.801,55.866,161.181,52.313,157.501,50.908z"/>
	<path class="st3" d="M80.989,197.048c0,1.231-0.249,2.404-0.698,3.476H27.528c-0.448-1.072-0.698-2.245-0.698-3.476
		c0-4.575,3.418-8.355,7.841-8.928c-0.456-1.079-0.709-2.264-0.709-3.507c0-4.976,4.033-9.01,9.01-9.01
		c0.662,0,1.313,0.074,1.937,0.21c-0.004-0.07-0.008-0.14-0.008-0.21c0-4.976,4.033-9.01,9.01-9.01c4.976,0,9.01,4.033,9.01,9.01
		c0,0.07-0.004,0.14-0.008,0.21c0.623-0.136,1.274-0.21,1.937-0.21c4.976,0,9.01,4.033,9.01,9.01c0,1.243-0.253,2.428-0.709,3.507
		C77.571,188.693,80.989,192.473,80.989,197.048z"/>
	<path class="st17" d="M95.341,239.479H12.439l11.021-37.548c0.487-1.659,2.01-2.799,3.739-2.799H80.58
		c1.729,0,3.252,1.14,3.739,2.799L95.341,239.479z"/>
	<path class="st7" d="M59.897,175.607c0,0.07,0.01,0.14,0.01,0.21c-0.62-0.14-1.27-0.21-1.94-0.21c-4.97,0-9.01,4.03-9.01,9.01
		c0,1.24,0.26,2.42,0.71,3.5c-4.42,0.58-7.84,4.36-7.84,8.93c0,1.23,0.25,2.41,0.7,3.48h-15c-0.45-1.07-0.7-2.25-0.7-3.48
		c0-4.57,3.42-8.35,7.84-8.93c-0.45-1.08-0.71-2.26-0.71-3.5c0-4.98,4.04-9.01,9.01-9.01c0.67,0,1.32,0.07,1.94,0.21
		c0-0.07-0.01-0.14-0.01-0.21c0-4.98,4.04-9.01,9.01-9.01c3.13,0,5.89,1.6,7.5,4.02C60.457,172.047,59.897,173.757,59.897,175.607z"
		/>
	<path class="st19" d="M42.197,199.127c-1.73,0-3.25,1.14-3.74,2.8l-11.02,37.55h-15l11.02-37.55c0.49-1.66,2.01-2.8,3.74-2.8
		H42.197z"/>
	<path class="st18" d="M97.945,251.593H9.835c-2.152,0-3.897-1.745-3.897-3.897v-7.174c0-2.152,1.745-3.897,3.897-3.897h88.11
		c2.152,0,3.897,1.745,3.897,3.897v7.174C101.842,249.849,100.097,251.593,97.945,251.593z"/>
	<path class="st17" d="M24.837,251.597h-15c-2.15,0-3.9-1.75-3.9-3.9v-7.17c0-2.16,1.75-3.9,3.9-3.9h15c-2.15,0-3.9,1.74-3.9,3.9
		v7.17C20.937,249.847,22.687,251.597,24.837,251.597z"/>
	<g>
		<path class="st8" d="M118.288,61.909h22.079c0.915,6.717,6.689,11.911,13.654,11.911c11.814,0,18.183-13.998,10.293-22.912
			c7.896-8.92,1.514-22.911-10.293-22.911c-7.08,0-12.93,5.366-13.695,12.246h-21.996c-0.765-6.879-6.615-12.246-13.695-12.246
			c-11.814,0-18.184,13.998-10.293,22.911c-7.897,8.919-1.514,22.912,10.293,22.912C111.598,73.82,117.373,68.626,118.288,61.909z
			 M102.579,54.646c3.42-1.304,3.428-6.167,0-7.475c-5.954-2.271-4.342-11.174,2.055-11.174c3.187,0,5.78,2.593,5.78,5.78
			c0,1.403-0.98,2.986,0.51,4.912c1.603,2.073,0.472,1.553,33.641,1.553c1.238,0,2.406-0.574,3.164-1.553
			c1.488-1.924,0.511-3.507,0.511-4.912c0-3.187,2.593-5.78,5.78-5.78c6.399,0,8.006,8.904,2.055,11.174
			c-3.428,1.308-3.42,6.17,0,7.475c5.954,2.271,4.342,11.174-2.055,11.174c-3.188,0-5.78-2.593-5.78-5.78
			c0-1.253,0.815-2.819-0.641-4.634c-1.602-1.996-0.4-1.497-33.425-1.497c-2.564,0-4.458,2.378-3.905,4.867
			c0.817,3.682-2.002,7.044-5.636,7.044C98.236,65.82,96.626,56.916,102.579,54.646z"/>
		<path class="st8" d="M249.153,123.641l-69.549-75.178c-1.207-26.639-23.428-48.056-50.277-48.056
			c-27.088,0-49.312,21.605-50.301,48.504l-69.517,74.72c-10.963,11.773-2.462,30.817,13.422,30.817
			c9.222,0,13.26-5.66,18.55-11.346l5.886,21.272c-2.763,1.615-4.886,4.211-5.868,7.315c-6.485,0.731-11.542,6.25-11.542,12.928
			c0,0.274,0.009,0.547,0.026,0.82c-4.102,2.078-6.917,6.256-7.135,11.02c-1.512,1.003-2.685,2.505-3.23,4.345l-9.336,31.825H9.835
			c-4.354,0-7.897,3.542-7.897,7.897v7.174c0,4.354,3.542,7.896,7.897,7.896c75.494,0,86.71-0.146,162.183-0.146h4.75
			c6.307,0,11.862-4.254,13.511-10.344l27.47-101.412l4.551,4.922c11.179,12.006,31.167,4.323,31.75-11.828
			C254.227,131.89,252.484,127.218,249.153,123.641z M129.327,8.407c35.527,0,55.62,41.959,32.438,69.586
			c-16.926,20.13-47.773,20.1-64.713,0.19C73.669,50.731,93.477,8.407,129.327,8.407z M164.821,86.451l18.572,20.085H75.503
			l18.518-19.902C113.685,105.988,145.236,105.931,164.821,86.451z M30.497,143.164c-6.261,6.74-17.568,2.464-17.897-6.667
			c-0.1-2.758,0.882-5.391,2.766-7.415L79.8,59.824c1.368,7.51,4.419,14.584,8.945,20.737L30.497,143.164z M38.132,190.114
			c1.326-2.299-0.175-3.516-0.175-5.498c0-3.206,3.005-5.592,6.068-4.898c2.52,0.568,5.034-1.376,4.873-4.202
			c0.048-2.721,2.277-4.92,5.009-4.92c2.736,0,4.967,2.205,5.009,4.95c-0.082,1.204,0.385,2.386,1.279,3.211
			c1.782,1.643,3.533,0.85,4.652,0.85c3.593,0,6.004,3.69,4.62,6.942c-1.035,2.43,0.533,5.189,3.16,5.533
			c1.813,0.238,3.29,1.442,3.963,3.044H31.225C32.97,190.97,36.319,193.26,38.132,190.114z M27.273,203.127h53.185
			c0.015,0.001,0.029,0.002,0.044,0.003l8.653,29.496H18.62L27.273,203.127z M80.994,187.697h3.245
			c-0.292,1.086-0.553,2.179-0.765,3.284C82.827,189.759,81.985,188.654,80.994,187.697z M97.842,247.447
			c-2.652,0-85.258,0.146-87.904,0.146v-6.968c10.448,0,77.43,0,87.904,0V247.447z M168.018,247.447h-62.176v-6.924
			c0-4.354-3.542-7.897-7.897-7.897h-0.453l-6.855-23.365v-9.434c0-5.064,0.96-9.982,2.853-14.616
			c5.979-14.624,20.046-24.074,35.837-24.074c10.329,0,20.047,4.024,27.358,11.325c7.236,7.255,11.332,16.976,11.332,27.365V247.447
			z M182.556,243.012c-0.706,2.611-3.087,4.435-5.788,4.435h-0.75v-23.17h11.613L182.556,243.012z M189.798,216.277h-13.78
			c0-17.411,0.404-21.104-1.604-28.58h23.126L189.798,216.277z M199.706,179.697h-28.247c-2.284-4.773-5.336-9.101-9.115-12.891
			c-8.827-8.815-20.553-13.669-33.017-13.669c-18.142,0-34.39,10.34-42.133,26.56H76.883c-1.767-4.307-5.774-7.467-10.568-8.008
			c-1.542-4.87-5.879-8.504-11.119-9.022l-3.197-11.554h155.45L199.706,179.697z M209.616,143.113H49.785l-1.906-6.887l20.181-21.69
			h122.731l20.547,22.221L209.616,143.113z M228.164,143.171c-11.396-12.324-44.98-48.644-58.098-62.829
			c4.511-6.206,7.521-13.28,8.846-20.846l64.376,69.587c1.883,2.022,2.865,4.655,2.766,7.414
			C245.723,145.681,234.397,149.865,228.164,143.171z"/>
		<path class="st8" d="M155.994,224.958c-2.209,0-4,1.791-4,4v3.333c0,2.209,1.791,4,4,4s4-1.791,4-4v-3.333
			C159.994,226.75,158.203,224.958,155.994,224.958z"/>
		<path class="st8" d="M151.994,195.958v18c0,2.209,1.791,4,4,4s4-1.791,4-4v-18c0-2.209-1.791-4-4-4
			S151.994,193.75,151.994,195.958z"/>
	</g>
</g>
</svg>
