<?xml version="1.0" encoding="utf-8"?>
<!-- Generator: Adobe Illustrator 22.1.0, SVG Export Plug-In . SVG Version: 6.00 Build 0)  -->
<svg version="1.1" id="Icon_Set" xmlns="http://www.w3.org/2000/svg" xmlns:xlink="http://www.w3.org/1999/xlink" x="0px" y="0px"
	 viewBox="0 0 256 256" style="enable-background:new 0 0 256 256;" xml:space="preserve">
<style type="text/css">
	.st0{fill:#5FCDFF;}
	.st1{fill:#87828E;}
	.st2{fill:#B76C6C;}
	.st3{fill:#FF4A73;}
	.st4{fill:#73D7F9;}
	.st5{fill:#30B6FF;}
	.st6{fill:#A4A4A5;}
	.st7{fill:#F973A3;}
	.st8{fill:#5F266D;}
	.st9{fill:#FFE2E2;}
	.st10{fill:#FFEFEE;}
	.st11{fill:#796E84;}
	.st12{fill:#3193F3;}
	.st13{fill:#35B1FC;}
	.st14{fill:#307FED;}
	.st15{fill:#FFCFCF;}
	.st16{fill:#EA2A6A;}
	.st17{fill:#44C7B6;}
	.st18{fill:#3BB2A0;}
	.st19{fill:#4BDBC3;}
	.st20{fill:#C98585;}
	.st21{fill:#965959;}
	.st22{fill:#FFBB98;}
	.st23{fill:#FFCAA6;}
	.st24{fill:#FFAA80;}
	.st25{fill:#F9D335;}
	.st26{fill:#F2C300;}
	.st27{fill:#F9E27D;}
</style>
<g>
	<g>
		<path id="XMLID_111_" class="st3" d="M174.232,210.896v21.78c0,3.83-2.18,7.34-5.64,9c-3.02,1.45-6.14,2.72-9.36,3.81
			c-21.83,7.47-47.53,6.94-68.05-0.01c-3.26-1.11-6.4-2.38-9.36-3.8c-3.46-1.66-5.64-5.17-5.64-9v-21.78H174.232z"/>
		<path id="XMLID_110_" class="st7" d="M91.182,210.896v34.58c-3.26-1.11-6.4-2.38-9.36-3.8c-3.46-1.66-5.64-5.17-5.64-9v-21.78
			H91.182z"/>
		<path id="XMLID_109_" class="st16" d="M174.232,210.896v21.78c0,3.83-2.18,7.34-5.64,9c-3.02,1.45-6.14,2.72-9.36,3.81v-34.59
			H174.232z"/>
		<path id="XMLID_105_" class="st22" d="M192.212,164.976c0,4.24-0.39,8.39-1.15,12.41c-5.821,31.111-33.132,54.59-65.85,54.59
			c-36.994,0-67-29.988-67-67c0-35.92,28.745-67,67.46-67c37.646,0.554,65.797,30.394,66.52,65.58
			C192.212,164.026,192.212,164.506,192.212,164.976z"/>
		<path id="XMLID_103_" class="st20" d="M129.114,181.108c-2.002,2.497-5.802,2.497-7.803,0l-4.514-5.632l-1.902-2.373
			c-2.623-3.273-0.293-8.127,3.902-8.127h6.416h6.416c4.195,0,6.525,4.854,3.902,8.127l-1.902,2.373L129.114,181.108z"/>
		<path class="st23" d="M132.752,231.557c-2.47,0.28-4.99,0.42-7.54,0.42c-36.99,0-67-29.99-67-67c0-35.92,28.75-67,67.46-67
			c2.39,0.04,4.74,0.19,7.05,0.45c-34.63,3.91-59.51,33.14-59.51,66.55C73.212,199.467,99.272,227.857,132.752,231.557z"/>
		<path class="st24" d="M192.212,164.977c0,4.24-0.39,8.39-1.15,12.41c-5.82,31.11-33.13,54.59-65.85,54.59
			c-2.52,0-5-0.14-7.44-0.42c29.3-3.3,52.92-25.49,58.29-54.17c0.76-4.02,1.15-8.17,1.15-12.41c0-0.47,0-0.95-0.02-1.42
			c-0.67-32.96-25.4-61.22-59.47-65.13c2.6-0.3,5.25-0.45,7.95-0.45c37.65,0.55,65.8,30.39,66.52,65.58
			C192.212,164.027,192.212,164.507,192.212,164.977z"/>
		<path id="XMLID_96_" class="st20" d="M192.212,164.976c0,4.24-0.39,8.39-1.15,12.41c-1,0.06-2.01,0.08-3.02,0.08
			c-35.45,0-64.2-28.74-64.2-64.21c0-5.26,0.63-10.38,1.83-15.28c37.646,0.554,65.797,30.394,66.52,65.58
			C192.212,164.026,192.212,164.506,192.212,164.976z"/>
		<path class="st21" d="M125.672,97.977c-0.14,0.58-0.27,1.16-0.4,1.74c34.888,8.004,56.977,41.844,50.97,76.67
			c3.82,0.71,7.77,1.08,11.8,1.08c1.01,0,2.02-0.02,3.02-0.08C198.669,137.153,168.559,98.603,125.672,97.977z"/>
	</g>
	<path class="st3" d="M190.602,146.23c-0.16,0.42-0.33,0.85-0.5,1.28c0,0-25.04-21.69-50.06-26.75c-5.5-1.12-11.01-1.43-16.24-0.52
		c-3.49,0.6-6.85,1.74-10.02,3.53l30.43-50.83l10.93,2.25c0,0,4.39,1.33,10.27,4.43C180.572,87.59,205.642,107.32,190.602,146.23z"
		/>
	<path class="st3" d="M127.075,22.678c-15.501,0-28.067,12.566-28.067,28.067v27.462c-5.774,5.052-13.113,9.87-22.052,12.757
		c-6.198,2.002-11.902,5.331-16.373,10.068c-7.766,8.227-10.525,24.9,0.754,39.966c0,0,22.643-1.634,48.142-14.828
		c28.135-14.558,45.663-43.747,45.663-75.425C155.143,35.244,142.577,22.678,127.075,22.678z"/>
	<path class="st16" d="M155.142,50.75c0,31.67-17.53,60.86-45.66,75.42c-25.5,13.19-48.15,14.83-48.15,14.83
		c-0.55-0.74-1.07-1.48-1.55-2.23c8.94-2,21.43-5.74,34.7-12.6c28.13-14.56,45.66-43.75,45.66-75.42c0-12.91-8.71-23.78-20.57-27.05
		c2.39-0.67,4.9-1.02,7.5-1.02C142.572,22.68,155.142,35.24,155.142,50.75z"/>
	<path class="st7" d="M134.572,23.7c-11.86,3.27-20.56,14.14-20.56,27.05v13.4c0,10.427-6.075,19.884-15.54,24.26
		c-2.07,0.957-4.243,1.816-6.52,2.55c-6.19,2.01-11.9,5.34-16.37,10.07c-7.39,7.83-10.24,23.28-0.8,37.74
		c-8.24,1.85-13.45,2.23-13.45,2.23c-11.27-15.07-8.52-31.74-0.75-39.97c4.47-4.73,10.18-8.06,16.37-10.07
		c8.94-2.88,16.28-7.7,22.06-12.75V50.75c0-15.51,12.56-28.07,28.06-28.07C129.672,22.68,132.182,23.03,134.572,23.7z"/>
	<path class="st7" d="M190.602,146.23c-0.16,0.42-0.33,0.85-0.5,1.28c0,0-25.04-21.69-50.06-26.75c-5.5-1.12-11.01-1.43-16.24-0.52
		l16.74-14.06C140.542,106.18,179.732,115.49,190.602,146.23z"/>
	<path class="st16" d="M190.102,147.51c0,0-4.4-3.81-11.35-8.6c10.88-35.41-12.58-53.69-27.04-61.29c-3.37-1.78-6.26-2.98-8.1-3.67
		l0.6-1.01l10.93,2.25c0,0,4.39,1.33,10.27,4.43C180.742,87.68,206.192,107.75,190.102,147.51z"/>
	<g>
		<path class="st8" d="M155.099,159.756c0.25,0,0.5-0.006,0.751-0.02c8.604-0.455,13.964-8.828,14.188-9.184
			c1.176-1.87,0.613-4.339-1.257-5.515c-1.87-1.176-4.34-0.613-5.515,1.257c-0.033,0.052-3.473,5.222-7.838,5.453
			c-2.818,0.151-5.846-1.802-8.992-5.798c-1.367-1.735-3.881-2.036-5.617-0.669s-2.035,3.881-0.669,5.617
			C144.78,156.779,149.805,159.756,155.099,159.756z"/>
		<path class="st8" d="M110.177,150.552c1.176-1.87,0.613-4.339-1.257-5.515c-1.87-1.176-4.34-0.613-5.515,1.257
			c-0.033,0.052-3.473,5.222-7.838,5.453c-2.821,0.151-5.846-1.802-8.992-5.798c-1.366-1.735-3.881-2.036-5.617-0.669
			c-1.736,1.367-2.035,3.881-0.669,5.617c4.63,5.882,9.656,8.858,14.949,8.858C101.509,159.756,107.281,155.157,110.177,150.552z"/>
		<path class="st8" d="M155.982,181.298c-2.209,0-4,1.791-4,4c0,6.275-5.105,11.381-11.381,11.381s-11.38-5.105-11.38-11.381
			c0-0.057-0.014-0.11-0.017-0.166c1.088-0.569,2.067-1.353,2.86-2.343c0,0,0,0,0,0l6.416-8.004
			c4.723-5.893,0.523-14.629-7.022-14.629h-12.832c-7.552,0-11.742,8.741-7.023,14.628l6.416,8.005
			c0.794,0.99,1.772,1.775,2.861,2.343c-0.002,0.056-0.017,0.109-0.017,0.166c0,6.275-5.105,11.381-11.381,11.381
			s-11.381-5.105-11.381-11.381c0-2.209-1.791-4-4-4s-4,1.791-4,4c0,18.599,23.817,26.508,34.941,11.505
			c11.126,15.006,34.94,7.085,34.94-11.505C159.982,183.089,158.191,181.298,155.982,181.298z M125.822,177.786
			c-0.401,0.5-1.157,0.503-1.561,0l-6.416-8.004c-0.53-0.661-0.066-1.625,0.781-1.625h12.832c0.847,0,1.308,0.967,0.78,1.625
			L125.822,177.786z"/>
		<path class="st8" d="M211.534,193.502c5.273,0.867,6.474-7.043,1.297-7.895l-19.185-3.151c1.584-5.953,2.395-12.094,2.395-18.305
			c0-0.237-0.001-0.452-0.01-0.684c0-0.034-0.002-0.069-0.002-0.104l17.004-3.701c2.159-0.47,3.528-2.601,3.058-4.759
			c-0.47-2.158-2.6-3.525-4.759-3.058l-15.86,3.452c-0.315-2.552-0.771-5.09-1.369-7.595c6.498-16.746,6.627-31.896,0.342-45.039
			c-10.333-21.608-34.312-30.102-37.889-31.265c1.582-6.699,2.416-13.652,2.416-20.751c0-17.682-14.385-32.067-32.067-32.067
			c-17.682,0-32.067,14.385-32.067,32.067v25.614C78.401,89.9,69.824,85.136,57.504,98.188c-9.09,9.63-11.939,27.844-0.093,44.338
			c-1.427,4.44-2.307,8.689-2.815,12.769l-15.845-3.449c-2.16-0.468-4.289,0.899-4.759,3.058c-0.47,2.159,0.899,4.289,3.058,4.759
			l16.999,3.7c-0.087,6.061,0.66,12.601,2.385,19.093l-19.182,3.151c-5.21,0.857-3.932,8.743,1.297,7.895l20.414-3.353
			c3.043,7.769,7.415,14.885,13.053,21.222v20.479c0,5.355,3.104,10.307,7.91,12.615c13.281,6.378,29.198,9.567,45.115,9.567
			s31.834-3.189,45.116-9.568c4.805-2.308,7.909-7.259,7.909-12.615v-20.477c5.629-6.328,10.007-13.454,13.051-21.224
			L211.534,193.502z M57.899,123.102c10.878-1.536,41.218-7.49,54.873-27.235c1.256-1.817,0.802-4.308-1.015-5.565
			c-1.816-1.256-4.309-0.802-5.565,1.015c-11.277,16.307-37.445,21.975-48.179,23.658c1.758-10.54,9.974-17.065,20.003-20.302
			c26.901-8.688,39.939-33.376,40.481-34.423c1.016-1.962,0.249-4.375-1.713-5.391c-1.967-1.018-4.377-0.245-5.391,1.713
			c-0.057,0.11-2.905,5.507-8.554,11.906V50.647c0-13.271,10.796-24.067,24.067-24.067c13.271,0,24.067,10.796,24.067,24.067
			c0,30.695-16.936,58.126-43.501,71.872c-19.917,10.305-38.224,13.365-44.392,14.15C60.109,132.166,58.478,127.522,57.899,123.102z
			 M170.067,231.85c0,2.298-1.324,4.419-3.373,5.403c-24.525,11.778-58.781,11.777-83.305,0c-2.049-0.984-3.373-3.105-3.373-5.404
			v-12.821c12.682,10.419,28.494,16.123,45.025,16.123c16.535,0,32.35-5.707,45.025-16.122V231.85z M185.714,181.154l-17.907-2.941
			c-2.182-0.356-4.237,1.119-4.596,3.299c-0.358,2.18,1.119,4.237,3.299,4.596l16.496,2.709c-21.97,51.826-94.716,50.025-115.927,0
			l16.494-2.709c2.18-0.358,3.657-2.416,3.299-4.596c-0.358-2.18-2.416-3.657-4.596-3.299l-17.908,2.941
			c-1.454-5.207-2.229-10.597-2.31-16.047c21.274,4.631,20.166,4.449,20.87,4.449c4.75,0,5.507-6.895,0.847-7.91l-21.322-4.641
			c0.485-4.306,1.378-8.428,2.738-12.534c17.29-2.352,36.939-9.343,50.449-17.352c24.575-13.848,64.027,17.033,70.697,22.507
			c0.576,2.431,1.014,4.895,1.29,7.38l-21.321,4.641c-2.159,0.47-3.528,2.601-3.058,4.759c0.408,1.872,2.064,3.15,3.905,3.15
			c0.282,0,0.568-0.03,0.854-0.092l20.014-4.356C187.942,170.558,187.171,175.942,185.714,181.154z M188.1,140.78
			c-9.873-7.659-34.321-24.68-57.112-25.161c5.446-5.1,10.187-10.853,14.152-17.102c3.899,1.356,11.188,4.353,17.857,9.641
			c0.735,0.583,1.612,0.866,2.483,0.866c1.179,0,2.347-0.519,3.137-1.515c1.373-1.731,1.082-4.247-0.649-5.62
			c-6.82-5.409-14.12-8.686-18.788-10.423c2.033-3.969,3.762-8.103,5.183-12.364c3.619,1.245,24.301,9.037,32.889,27.061
			C192.031,116.196,192.312,127.82,188.1,140.78z"/>
		<path class="st8" d="M29.042,177.092c0-2.209-1.791-4-4-4s-4,1.791-4,4c0,5.331-14,6.545-14,17.661
			c0,14.268,24.522,13.233,8.866,23.106c-3.742,2.36-8.866,5.592-8.866,12.213c0,2.209,1.791,4,4,4s4-1.791,4-4
			c0-5.326,14-6.549,14-17.659c0-11.111-14-12.333-14-17.661C15.042,189.423,29.042,188.209,29.042,177.092z"/>
		<path class="st8" d="M226.18,130.751c0-5.326,14-6.549,14-17.659c0-11.12-14-12.328-14-17.661c0-5.33,14-6.543,14-17.661
			c0-2.209-1.791-4-4-4s-4,1.791-4,4c0,5.327-14,6.55-14,17.661c0,11.12,14,12.328,14,17.661c0,5.328-14,6.545-14,17.659
			c0,2.209,1.791,4,4,4S226.18,132.96,226.18,130.751z"/>
		<path class="st8" d="M42.628,57.763c0,2.209,1.791,4,4,4s4-1.791,4-4c0-5.331,14-6.545,14-17.661c0-11.111-14-12.333-14-17.661
			c0-5.326,14-6.549,14-17.659c0-2.209-1.791-4-4-4s-4,1.791-4,4c0,5.328-14,6.545-14,17.659c0,11.122,14,12.326,14,17.661
			C56.628,45.433,42.628,46.647,42.628,57.763z"/>
		<path class="st8" d="M169.042,26.759h7v7c0,2.209,1.791,4,4,4s4-1.791,4-4v-7h7c2.209,0,4-1.791,4-4s-1.791-4-4-4h-7v-7
			c0-2.209-1.791-4-4-4s-4,1.791-4,4v7h-7c-2.209,0-4,1.791-4,4S166.833,26.759,169.042,26.759z"/>
		<path class="st8" d="M29.042,107.254h-7v-7c0-2.209-1.791-4-4-4s-4,1.791-4,4v7h-7c-2.209,0-4,1.791-4,4s1.791,4,4,4h7v7
			c0,2.209,1.791,4,4,4s4-1.791,4-4v-7h7c2.209,0,4-1.791,4-4S31.25,107.254,29.042,107.254z"/>
		<path class="st8" d="M248.958,199.988h-7v-7c0-2.209-1.791-4-4-4s-4,1.791-4,4v7h-7c-2.209,0-4,1.791-4,4s1.791,4,4,4h7v7
			c0,2.209,1.791,4,4,4s4-1.791,4-4v-7h7c2.209,0,4-1.791,4-4S251.167,199.988,248.958,199.988z"/>
		<path class="st8" d="M214.042,236.217h-7v-7c0-2.209-1.791-4-4-4s-4,1.791-4,4v7h-7c-2.209,0-4,1.791-4,4s1.791,4,4,4h7v7
			c0,2.209,1.791,4,4,4s4-1.791,4-4v-7h7c2.209,0,4-1.791,4-4S216.25,236.217,214.042,236.217z"/>
		<path class="st8" d="M178.946,113.902c-1.178-1.868-3.646-2.426-5.518-1.248c-1.868,1.179-2.427,3.649-1.248,5.518
			c0.647,1.026,1.242,2.092,1.766,3.167c0.693,1.422,2.117,2.249,3.599,2.249c0.588,0,1.186-0.13,1.75-0.405
			c1.986-0.968,2.811-3.362,1.843-5.348C180.486,116.498,179.749,115.175,178.946,113.902z"/>
	</g>
</g>
</svg>
