<?xml version="1.0" encoding="utf-8"?>
<!-- Generator: Adobe Illustrator 22.1.0, SVG Export Plug-In . SVG Version: 6.00 Build 0)  -->
<svg version="1.1" id="Icon_Set" xmlns="http://www.w3.org/2000/svg" xmlns:xlink="http://www.w3.org/1999/xlink" x="0px" y="0px"
	 viewBox="0 0 256 256" style="enable-background:new 0 0 256 256;" xml:space="preserve">
<style type="text/css">
	.st0{fill:#5FCDFF;}
	.st1{fill:#87828E;}
	.st2{fill:#B76C6C;}
	.st3{fill:#FF4A73;}
	.st4{fill:#73D7F9;}
	.st5{fill:#30B6FF;}
	.st6{fill:#A4A4A5;}
	.st7{fill:#F973A3;}
	.st8{fill:#5F266D;}
	.st9{fill:#FFE2E2;}
	.st10{fill:#FFEFEE;}
	.st11{fill:#796E84;}
	.st12{fill:#3193F3;}
	.st13{fill:#35B1FC;}
	.st14{fill:#307FED;}
	.st15{fill:#FFCFCF;}
	.st16{fill:#EA2A6A;}
	.st17{fill:#44C7B6;}
	.st18{fill:#3BB2A0;}
	.st19{fill:#4BDBC3;}
	.st20{fill:#C98585;}
	.st21{fill:#965959;}
	.st22{fill:#FFBB98;}
	.st23{fill:#FFCAA6;}
	.st24{fill:#FFAA80;}
	.st25{fill:#F9D335;}
	.st26{fill:#F2C300;}
	.st27{fill:#F9E27D;}
</style>
<g>
	<path class="st2" d="M115.949,34.51v50.95c0,8.23-6.67,14.91-14.9,14.91h-61.76c-7.43,0-14.15-3.01-19.02-7.88
		c-13.489-13.489-9.062-36.564,8.8-43.92c3.15-1.29,6.6-2.01,10.22-2.01h5.17c1.65,0,3.14-0.67,4.22-1.76
		c1.07-1.07,1.74-2.56,1.74-4.2v-6.09c0-15.56,12.62-28.18,28.18-28.18h9.18C103.339,6.33,115.949,18.95,115.949,34.51z"/>
	<path class="st20" d="M90.689,6.48c-14.19,1.46-25.27,13.45-25.27,28.03v6.09c0,1.64-0.67,3.13-1.74,4.2
		c-1.08,1.09-2.57,1.76-4.22,1.76h-5.17c-3.62,0-7.07,0.72-10.22,2.01c-17.86,7.36-22.29,30.43-8.8,43.92
		c4.87,4.87,11.59,7.88,19.02,7.88h-15c-7.43,0-14.15-3.01-19.02-7.88c-13.49-13.49-9.06-36.56,8.8-43.92
		c3.15-1.29,6.6-2.01,10.22-2.01h5.17c1.65,0,3.14-0.67,4.22-1.76c1.07-1.07,1.74-2.56,1.74-4.2v-6.09
		c0-15.56,12.62-28.18,28.18-28.18h9.18C88.759,6.33,89.729,6.38,90.689,6.48z"/>
	<path class="st2" d="M106.631,9.159c-4.594-3.64-11.224,0.463-10.016,6.199l23.926,80.924c0.166,0.359,0.344,0.715,0.571,1.038
		c3.132,4.458,9.977,3.931,12.381-0.973c0.157-0.32,0.269-0.66,0.371-1.001l10.674-36.02c1.408-4.751,0.179-9.892-3.226-13.492
		L106.631,9.159z"/>
	<path class="st21" d="M243.06,155.57c-5.49-6.75-10.85-10.11-16.39-10.11c-1.43,0-2.88,0.22-4.34,0.67
		c-7.01,2.16-11.61,8.91-11.61,16.25v0.92c0,5.61-1.69,11.02-4.76,15.56c-0.79,1.17-2.18,2.18-3.74,3.02
		c-3.63,1.97-7.76,2.86-11.89,2.86h-11.36l5.72,22.61h15.93c8.5,0,16.2-3.45,21.78-9.02c5.57-5.58,9.02-13.28,9.02-21.79v-7.38
		c0-5.44,4.41-9.84,9.85-9.84c1.37,0,2.31-1.12,2.31-2.31C243.58,156.51,243.42,156.01,243.06,155.57z"/>
	<path class="st2" d="M55.88,136.71l-17.52,91.23H22.38c-5.93,0-10.74,4.81-10.74,10.74v1.07c0,5.94,4.81,10.75,10.74,10.75h11.65
		h10.83c5.93,0,10.74-4.81,10.74-10.75l13.845-64.947L55.88,136.71z"/>
	<path class="st2" d="M163.744,166.367l-52.027-40.01H55.876v26.553l41.771,67.39c2.065,3.331-0.331,7.634-4.25,7.634h-6.994
		c-5.934,0-10.745,4.811-10.745,10.745v1.075c0,5.934,4.811,10.745,10.745,10.745h11.643h10.832h54.294
		c1.409,0,2.761-0.553,3.766-1.54l1.708-1.679C191.918,224.416,189.607,186.256,163.744,166.367z"/>
	<path class="st3" d="M111.718,126.357H55.876v-21.749c0-2.341,1.898-4.239,4.239-4.239h47.364c2.341,0,4.239,1.898,4.239,4.239
		V126.357z"/>
	<path class="st22" d="M58.589,100.37h-19.3c-7.43,0-14.15-3.01-19.02-7.88s-7.88-11.6-7.88-19.03c0-2.31,0.29-4.56,0.84-6.71
		c2.12-8.26,8.07-14.98,15.84-18.18c3.15-1.29,6.6-2.01,10.22-2.01h5.17c1.65,0,3.14-0.67,4.22-1.76v0.01
		C48.679,44.81,79.509,70.74,58.589,100.37z"/>
	<path class="st20" d="M108.399,227.94h-7c-5.93,0-10.74,4.81-10.74,10.74v1.07c0,5.94,4.81,10.75,10.74,10.75h-15
		c-5.93,0-10.74-4.81-10.74-10.75v-1.07c0-5.93,4.81-10.74,10.74-10.74h7c3.92,0,6.31-4.31,4.25-7.64l-41.77-67.39v-26.55h15v26.55
		l41.77,67.39C114.709,223.63,112.319,227.94,108.399,227.94z"/>
	<path class="st21" d="M166.939,248.96c-2.075,2.034-2.84,1.54-18.77,1.54c1.41,0,2.76-0.55,3.77-1.54
		c27.088-26.611,21.002-63.983-3.19-82.59l-52.03-40.01h15l52.03,40.01C188.044,185.057,193.944,222.431,166.939,248.96z"/>
	<path class="st7" d="M75.119,100.37c-2.35,0-4.24,1.9-4.24,4.24v21.75h-15v-21.75c0-2.34,1.89-4.24,4.24-4.24H75.119z"/>
	<path class="st16" d="M111.719,104.61v21.75h-15v-21.75c0-2.34-1.9-4.24-4.24-4.24h15
		C109.819,100.37,111.719,102.27,111.719,104.61z"/>
	<path class="st20" d="M134.569,92.99c-0.458,1.544-0.766,2.712-1.07,3.36c-2.61,5.307-10.364,5.428-12.96-0.07l-23.92-80.92
		c-1.21-5.74,5.42-9.84,10.01-6.2l4.86,5.14c0.01,0.35,0.05,0.7,0.13,1.06L134.569,92.99z"/>
	<path class="st23" d="M54.289,100.37c-14.494,0-24.489,1.651-34.02-7.88c-4.341-4.341-6.67-9.978-6.67-11.03
		c-5.431-15.747,6.528-34.9,25.69-34.9h5.17c1.65,0,3.14-0.67,4.22-1.76v0.01c0,0,0.83,0.7,2.12,1.99c-2.35,0.29-4.61,0.9-6.73,1.77
		c-17.86,7.36-22.29,30.43-8.8,43.92C40.139,97.36,46.859,100.37,54.289,100.37z"/>
	<path class="st23" d="M54.289,100.37c-14.494,0-24.489,1.651-34.02-7.88c-4.341-4.341-6.67-9.978-6.67-11.03
		c-5.422-15.72,6.484-34.9,25.69-34.9h5.17c1.65,0,3.14-0.67,4.22-1.76v0.01c0,0,0.83,0.7,2.12,1.99c-2.35,0.29-4.61,0.9-6.73,1.77
		c-17.86,7.36-22.29,30.43-8.8,43.92C40.139,97.36,46.859,100.37,54.289,100.37z"/>
	<path class="st2" d="M33.205,54.245v2.009c0,6.588-5.342,11.924-11.924,11.924h-2.409c-2.045,0-3.965-0.513-5.646-1.425
		c2.123-8.264,8.073-14.989,15.847-18.185C31.47,49.344,33.205,51.586,33.205,54.245z"/>
	<g>
		<path class="st8" d="M73.898,30.751c0.729,0.564,1.592,0.838,2.447,0.838c1.194,0,2.377-0.533,3.165-1.55
			c1.353-1.747,1.034-4.259-0.712-5.612c-8.295-6.427-16.162-2.62-19.162,0.291c-1.586,1.538-1.624,4.07-0.086,5.656
			c1.539,1.586,4.07,1.624,5.656,0.086C65.585,30.093,69.038,26.984,73.898,30.751z"/>
		<path class="st8" d="M74.797,43.174c0-3.183-2.581-5.764-5.764-5.764c-3.183,0-5.764,2.581-5.764,5.764
			c0,3.183,2.581,5.764,5.764,5.764C72.216,48.938,74.797,46.357,74.797,43.174z"/>
		<path class="st8" d="M246.549,152.63c-18.724-23.035-39.44-7.269-39.44,9.33c0,5.116-0.953,9.625-4.08,14.24
			c-0.12,0.18-0.64,0.84-2.33,1.75c-5.354,2.902-9.856,2.37-19.62,2.37c-3.9-7.16-9.29-13.53-15.91-18.62l-49.06-37.73v-19.78
			c0-1.98-0.71-3.8-1.88-5.23c0.96-0.89,1.82-1.87,2.58-2.93c3.249,10.87,18.271,10.211,21.28,0.04l10.67-36.03
			c1.81-6.09,0.22-12.75-4.15-17.37c-0.397-0.42-34.659-36.699-35.11-37.06c-2.88-2.28-6.6-2.84-9.92-1.59
			c-3.55-1.36-7.39-2.1-11.41-2.1h-9.18c-17.74,0-32.18,14.43-32.18,32.17v6.09c0,2.631-3.324,1.96-7.13,1.96
			c-17.057,0-30.91,13.884-30.91,30.9c0,8.26,3.22,16.02,9.06,21.86c5.84,5.84,13.6,9.05,21.85,9.05h12.6
			c-0.01,0.08-0.01,0.16-0.01,0.24c0,22.001,0.474,29.198-1.85,41.37l-14.97,77.96h-12.68c-7.447,0-14.74,5.579-14.74,15.81
			c0,8.14,6.62,14.75,14.75,14.75h22.47c7.98,0,14.49-6.37,14.73-14.29l11.69-54.84l22.97,37.04c0.409,0.67-0.068,1.53-0.85,1.53h-7
			c-8.13,0-14.74,6.61-14.74,14.74c0,10.301,7.359,15.82,14.74,15.82h76.14c2.88,0,5.6-1.11,7.65-3.12
			c10.83-10.66,17.12-24.99,17.68-40.03c12.896,0,25.456,1.678,37.36-10.19c10.889-10.906,10.19-22.384,10.19-32
			c0-3.22,2.62-5.84,5.85-5.84C246.988,162.9,249.884,156.682,246.549,152.63z M104.349,11.75
			c19.666,20.788,11.647,12.311,34.45,36.42c2.41,2.55,3.29,6.23,2.29,9.6c-0.025,0.083-10.752,36.327-10.8,36.4
			c-1.069,2.184-4.14,2.404-5.51,0.43c-0.096-0.048-23.849-80.507-23.88-80.61C100.548,12.119,102.732,10.657,104.349,11.75z
			 M54.809,40.18v-6.09c0-13.33,10.85-24.17,24.18-24.17c9.813,0,11.177-0.145,14.36,0.56c-1.446,4.53-1.874-0.129,18.99,70.42v4.15
			c0,6.01-4.89,10.9-10.9,10.9h-35.4c12.13-24.26-5.14-45.31-11.89-52.22C54.579,42.63,54.809,41.43,54.809,40.18z M108.109,104.19
			v17.75h-47.84v-17.75c0-0.13,0.1-0.24,0.23-0.24c9.741,0,37.954,0,47.37,0C107.999,103.95,108.109,104.06,108.109,104.19z
			 M29.219,52.67c0.53,0.714,0.37,1.465,0.37,3.17c0,4.37-3.55,7.92-7.92,7.92c-0.279,0-2.642,0.006-2.92-0.01
			C19.118,62.643,22.328,56.121,29.219,52.67z M23.479,89.24c-2.292-2.302-4.007-4.936-5.178-7.955
			c11.228,10.021,29.104,2.04,29.104-13.031c0-2.209-1.791-4-4-4s-4,1.791-4,4c0,10.382-14.42,13.193-18.291,3.506
			c10.072,0,16.476-7.684,16.476-15.92c0-2.148,0.112-3.56-0.64-5.53c4.302-0.574,8.199,0.487,11.61-0.89
			c4.149,4.23,7.445,8.87,9.73,13.43c5.591,11.182,5.427,22.34-1.45,33.1C39.782,95.95,31.721,97.482,23.479,89.24z M164.969,245.25
			c-0.55,0.54-1.27,0.83-2.04,0.83h-76.14c-9.024,0-8.995-14.56,0-14.56h7c7.036,0,11.363-7.761,7.65-13.74l-28.21-45.5
			c-1.897-3.066-6.564-2.22-7.31,1.27c-0.132,0.62-13.93,65.146-13.93,65.78c0,3.73-3.02,6.75-6.74,6.75h-22.47
			c-9.002,0-9.037-14.56-0.01-14.56h15.98c1.92,0,3.57-1.36,3.93-3.24l15.59-81.21c1.09-5.64,1.73-11.38,1.93-17.13h50.55
			l49.55,38.1C185.004,187.052,187.12,223.497,164.969,245.25z M227.809,168.74c0,7.976,1.036,17.454-7.85,26.34
			c-9.306,9.306-18.806,7.85-31.94,7.85c-0.48-5.04-1.61-9.94-3.32-14.61c6.768,0,12.831,0.455,19.81-3.33
			c2.38-1.29,4.07-2.69,5.15-4.31c4.097-6.047,5.45-12.128,5.45-18.72c0-7.222,5.65-12.92,11.95-12.92c3.6,0,7.29,2.06,11.23,6.28
			C232.279,156.82,227.809,162.27,227.809,168.74z"/>
		<path class="st8" d="M143.239,166.3l-3.63-2.55c-1.8-1.27-4.3-0.84-5.57,0.96c-1.27,1.81-0.84,4.31,0.96,5.58
			c3.768,2.646,4.303,3.28,5.93,3.28C144.811,173.57,146.418,168.561,143.239,166.3z"/>
		<path class="st8" d="M127.349,155.11l-16.34-11.53c-1.81-1.27-4.3-0.84-5.58,0.97c-1.27,1.8-0.84,4.3,0.97,5.57
			c17.773,12.541,16.913,12.26,18.64,12.26C128.928,162.38,130.545,157.353,127.349,155.11z"/>
	</g>
</g>
</svg>
