<?xml version="1.0" encoding="utf-8"?>
<!-- Generator: Adobe Illustrator 22.1.0, SVG Export Plug-In . SVG Version: 6.00 Build 0)  -->
<svg version="1.1" id="Icon_Set" xmlns="http://www.w3.org/2000/svg" xmlns:xlink="http://www.w3.org/1999/xlink" x="0px" y="0px"
	 viewBox="0 0 256 256" style="enable-background:new 0 0 256 256;" xml:space="preserve">
<style type="text/css">
	.st0{fill:#5FCDFF;}
	.st1{fill:#87828E;}
	.st2{fill:#B76C6C;}
	.st3{fill:#FF4A73;}
	.st4{fill:#73D7F9;}
	.st5{fill:#30B6FF;}
	.st6{fill:#A4A4A5;}
	.st7{fill:#F973A3;}
	.st8{fill:#5F266D;}
	.st9{fill:#FFE2E2;}
	.st10{fill:#FFEFEE;}
	.st11{fill:#796E84;}
	.st12{fill:#3193F3;}
	.st13{fill:#35B1FC;}
	.st14{fill:#307FED;}
	.st15{fill:#FFCFCF;}
	.st16{fill:#EA2A6A;}
	.st17{fill:#44C7B6;}
	.st18{fill:#3BB2A0;}
	.st19{fill:#4BDBC3;}
	.st20{fill:#C98585;}
	.st21{fill:#965959;}
	.st22{fill:#FFBB98;}
	.st23{fill:#FFCAA6;}
	.st24{fill:#FFAA80;}
	.st25{fill:#F9D335;}
	.st26{fill:#F2C300;}
	.st27{fill:#F9E27D;}
</style>
<g>
	<g>
		<path class="st9" d="M197,235.853H59V16.279c0-5.523,4.477-10,10-10h118c5.523,0,10,4.477,10,10V235.853z"/>
		<rect x="59" y="30.735" class="st17" width="138" height="17.936"/>
		<rect x="59" y="171.731" class="st17" width="138" height="17.936"/>
		<path class="st17" d="M183.77,249.72H72.23c-17.498,0-17.483-26.46,0-26.46h111.54C201.251,223.26,201.203,249.72,183.77,249.72z"
			/>
		<circle class="st17" cx="128" cy="110.201" r="40.799"/>
		<path class="st2" d="M118.991,113.053c4.019-6.96,14.065-6.96,18.084,0c0.035,0.061,3.632,6.29,3.602,6.238
			c4.019,6.96-1.005,15.661-9.042,15.661c-0.07,0-7.264,0-7.203,0c-8.037,0-13.06-8.701-9.042-15.661
			C115.425,119.23,119.021,113.001,118.991,113.053z"/>
		<path class="st10" d="M84,6.28c-5.52,0-10,4.48-10,10v219.57H59V16.28c0-5.52,4.48-10,10-10H84z"/>
		<path class="st15" d="M197,16.28v219.57h-15V16.28c0-5.52-4.48-10-10-10h15C192.52,6.28,197,10.76,197,16.28z"/>
		<rect x="59" y="30.73" class="st19" width="15" height="17.94"/>
		<rect x="182" y="30.73" class="st18" width="15" height="17.94"/>
		<rect x="59" y="171.73" class="st19" width="15" height="17.94"/>
		<rect x="182" y="171.73" class="st18" width="15" height="17.94"/>
		<path class="st19" d="M74,223.26v26.46h-1.77c-17.498,0-17.483-26.46,0-26.46H74z"/>
		<path class="st18" d="M183.77,249.72H182v-26.46h1.77C201.251,223.26,201.203,249.72,183.77,249.72z"/>
		<path class="st20" d="M135.53,134.21c-1.19,0.48-2.5,0.74-3.9,0.74h-7.2c-8.04,0-13.06-8.7-9.04-15.66l3.6-6.24
			c3.58-6.2,11.94-6.88,16.54-2.04c-0.58,0.6-1.1,1.28-1.54,2.04l-3.6,6.24C127.07,125.04,129.92,131.97,135.53,134.21z"/>
	</g>
	<g>
		<path class="st8" d="M187,2.28H69c-7.72,0-14,6.28-14,14c0,7.148,0,212.59,0,220.21c0,9.5,7.73,17.23,17.23,17.23h111.54
			c9.5,0,17.23-7.73,17.23-17.23c0-11.202,0-210.812,0-220.21C201,8.56,194.72,2.28,187,2.28z M183.77,245.72H72.23
			c-3.9,0-7.25-2.44-8.59-5.87c-1.013-2.57-0.84-5.517,0.62-8c1.6-2.74,4.57-4.59,7.97-4.59h111.54
			C196.046,227.26,195.856,245.72,183.77,245.72z M63,16.28c0-3.31,2.69-6,6-6h118c3.31,0,6,2.69,6,6v10.45H63V16.28z M193,175.73
			v9.94H63v-9.94H193z M193,167.73H63V52.67h130V167.73z M63,44.67v-9.94h130v9.94H63z M193,221.95c-2.67-1.71-5.84-2.69-9.23-2.69
			H72.23c-3.39,0-6.56,0.98-9.23,2.69v-28.28h130V221.95z"/>
		<path class="st8" d="M112,232.49H72c-5.28,0-5.296,8,0,8h40C117.299,240.49,117.278,232.49,112,232.49z"/>
		<path class="st8" d="M131,232.49h-4c-5.28,0-5.296,8,0,8h4C136.299,240.49,136.278,232.49,131,232.49z"/>
		<path class="st8" d="M128,155c24.7,0,44.8-20.1,44.8-44.8S152.7,65.4,128,65.4s-44.8,20.1-44.8,44.8S103.3,155,128,155z M128,73.4
			c20.29,0,36.8,16.51,36.8,36.8S148.29,147,128,147s-36.8-16.51-36.8-36.8S107.71,73.4,128,73.4z"/>
		<path class="st8" d="M111.93,117.29c-5.576,9.62,1.389,21.66,12.5,21.66h7.2c11.119,0,18.073-12.026,12.51-21.66
			c-3.7-6.413-4.804-9.199-8.88-11.55c-4.324-2.505-9.965-2.592-14.46,0C116.739,108.093,115.606,110.918,111.93,117.29z
			 M133.61,115.05l3.6,6.24c2.487,4.294-0.614,9.66-5.58,9.66h-7.2c-4.952,0-8.058-5.345-5.58-9.66l3.61-6.24
			C124.948,110.739,131.141,110.772,133.61,115.05z"/>
		<g>
			<path class="st8" d="M122.885,101.37c2.92-1.07,4.01-5.44,2.43-9.77c-1.57-4.33-5.22-6.98-8.13-5.92
				c-2.92,1.07-4.01,5.44-2.43,9.77C116.325,99.78,119.975,102.43,122.885,101.37z"/>
			<path class="st8" d="M133.105,101.37c2.92,1.06,6.57-1.59,8.14-5.92c1.58-4.33,0.49-8.7-2.43-9.77
				c-2.92-1.06-6.56,1.59-8.14,5.92C129.105,95.93,130.185,100.3,133.105,101.37z"/>
		</g>
		<g>
			<path class="st8" d="M111.53,113.02c2.92-1.06,4-5.43,2.43-9.76c-1.58-4.33-5.22-6.98-8.14-5.92c-2.92,1.06-4.01,5.43-2.43,9.77
				C104.97,111.44,108.61,114.09,111.53,113.02z"/>
			<path class="st8" d="M144.47,113.02c2.92,1.07,6.56-1.58,8.14-5.91c1.58-4.34,0.49-8.71-2.43-9.77
				c-2.92-1.06-6.56,1.59-8.14,5.92C140.47,107.59,141.55,111.96,144.47,113.02z"/>
		</g>
	</g>
</g>
</svg>
