<?xml version="1.0" encoding="utf-8"?>
<!-- Generator: Adobe Illustrator 22.1.0, SVG Export Plug-In . SVG Version: 6.00 Build 0)  -->
<svg version="1.1" id="Icon_Set" xmlns="http://www.w3.org/2000/svg" xmlns:xlink="http://www.w3.org/1999/xlink" x="0px" y="0px"
	 viewBox="0 0 256 256" style="enable-background:new 0 0 256 256;" xml:space="preserve">
<style type="text/css">
	.st0{fill:#5FCDFF;}
	.st1{fill:#87828E;}
	.st2{fill:#B76C6C;}
	.st3{fill:#FF4A73;}
	.st4{fill:#73D7F9;}
	.st5{fill:#30B6FF;}
	.st6{fill:#A4A4A5;}
	.st7{fill:#F973A3;}
	.st8{fill:#5F266D;}
	.st9{fill:#FFE2E2;}
	.st10{fill:#FFEFEE;}
	.st11{fill:#796E84;}
	.st12{fill:#3193F3;}
	.st13{fill:#35B1FC;}
	.st14{fill:#307FED;}
	.st15{fill:#FFCFCF;}
	.st16{fill:#EA2A6A;}
	.st17{fill:#44C7B6;}
	.st18{fill:#3BB2A0;}
	.st19{fill:#4BDBC3;}
	.st20{fill:#C98585;}
	.st21{fill:#965959;}
	.st22{fill:#FFBB98;}
	.st23{fill:#FFCAA6;}
	.st24{fill:#FFAA80;}
	.st25{fill:#F9D335;}
	.st26{fill:#F2C300;}
	.st27{fill:#F9E27D;}
</style>
<g>
	<g>
		<path class="st9" d="M28.051,144.053C-6.235,101.155,9.097,37.135,59.181,14.433h0.01c49.441-22.642,108.081,7.335,118.03,61.59
			C193.307,163.091,82.169,211.918,28.051,144.053z"/>
	</g>
	<g>
		<path class="st10" d="M100.456,175.596c-25.79,2.29-52.83-6.99-72.41-31.54c-34.28-42.9-18.95-106.92,31.14-129.62h0.01
			c13.8-6.32,28.32-8.54,42.3-7.28c-9.17,0.82-18.38,3.2-27.3,7.28h-0.01c-50.09,22.7-65.42,86.72-31.14,129.62
			C58.846,163.876,79.516,173.736,100.456,175.596z"/>
	</g>
	<g>
		<path class="st15" d="M85.456,175.596c45.47-4.01,87.03-44,76.76-99.57c-7.16-39.12-39.63-65.61-75.72-68.87
			c41.7-3.77,82.57,24.39,90.72,68.87C188.606,137.676,136.226,180.146,85.456,175.596z"/>
	</g>
	<path class="st8" d="M226.371,171.883h-95.411c8.98-4.114,17.29-9.752,24.583-16.784c16.526-15.935,26.116-37.322,27.004-60.193
		C185.994,19.112,96.228-26.12,37.152,23.658C-5.301,59.43-5.079,125.491,39.055,160.693c15.491,12.355,34.757,19.189,55.076,19.189
		h132.24c8.073,0,16,6.11,16,16.95c0,8.822-7.178,16-16,16h-181c-15.99,0-29,13.009-29,29v7.417c0,2.209,1.791,4,4,4s4-1.791,4-4
		v-7.417c0-11.58,9.421-21,21-21h181c12.36,0,24-9.56,24-24.95C250.371,182.649,239.605,171.883,226.371,171.883z M161.269,47.014
		c-24.456-2.143-46.567-15.323-60.098-35.812C126.2,13.388,148.013,27.02,161.269,47.014z M91.619,10.935
		c15.406,26.786,43.567,43.564,74.454,44.35c2.945,5.844,5.099,11.893,6.51,18.069C128.174,87.086,80.824,60.219,70.383,14.447
		C76.982,12.405,84.166,11.159,91.619,10.935z M62.831,17.218c11.814,49.184,62.639,78.441,111.141,64.056
		c0.505,4.016,0.691,7.7,0.636,11.318c-53.697,36.532-126.672-2.668-125.726-67.775C53.95,21.371,58.28,19.149,62.831,17.218z
		 M41.008,30.906c0.668,12.142,3.877,24.144,9.339,34.958C39.555,72.199,27.468,75.909,14.968,76.73
		C18.359,58.409,27.983,42.335,41.008,30.906z M13.895,84.797c14.263-0.68,28.078-4.782,40.375-11.974
		c5.462,8.741,12.375,16.326,19.828,22.299c-16.563,13.487-37.251,19.48-57.562,17.781C14.063,103.954,13.117,94.497,13.895,84.797z
		 M30.409,140.55c-4.821-6.228-8.404-12.639-11.114-19.465c22.038,0.979,43.977-6.182,61.461-21.123
		c10.266,6.746,21.548,11.118,32.999,13.16C93.454,138.383,60.583,148.528,30.409,140.55z M93.278,171.871
		c-19.695-0.204-38.855-7.485-53.848-21.418c33.215,4.348,64.896-10.254,83.51-36.211c5.25,0.384,10.278,0.321,15.329-0.182
		C133.455,139.166,116.61,160.949,93.278,171.871z M146.606,112.82c9.555-1.893,18.811-5.403,27.253-10.311
		c-4.578,33.505-29.483,60.077-61.813,67.365C130.344,156.167,142.986,135.634,146.606,112.82z"/>
</g>
</svg>
