<?xml version="1.0" encoding="utf-8"?>
<!-- Generator: Adobe Illustrator 22.1.0, SVG Export Plug-In . SVG Version: 6.00 Build 0)  -->
<svg version="1.1" id="Icon_Set" xmlns="http://www.w3.org/2000/svg" xmlns:xlink="http://www.w3.org/1999/xlink" x="0px" y="0px"
	 viewBox="0 0 256 256" style="enable-background:new 0 0 256 256;" xml:space="preserve">
<style type="text/css">
	.st0{fill:#5FCDFF;}
	.st1{fill:#87828E;}
	.st2{fill:#B76C6C;}
	.st3{fill:#FF4A73;}
	.st4{fill:#73D7F9;}
	.st5{fill:#30B6FF;}
	.st6{fill:#A4A4A5;}
	.st7{fill:#F973A3;}
	.st8{fill:#5F266D;}
	.st9{fill:#FFE2E2;}
	.st10{fill:#FFEFEE;}
	.st11{fill:#796E84;}
	.st12{fill:#3193F3;}
	.st13{fill:#35B1FC;}
	.st14{fill:#307FED;}
	.st15{fill:#FFCFCF;}
	.st16{fill:#EA2A6A;}
	.st17{fill:#44C7B6;}
	.st18{fill:#3BB2A0;}
	.st19{fill:#4BDBC3;}
	.st20{fill:#C98585;}
	.st21{fill:#965959;}
	.st22{fill:#FFBB98;}
	.st23{fill:#FFCAA6;}
	.st24{fill:#FFAA80;}
	.st25{fill:#F9D335;}
	.st26{fill:#F2C300;}
	.st27{fill:#F9E27D;}
</style>
<g>
	<path class="st9" d="M94.406,235.438H76.531c-2.761,0-5-2.239-5-5v-14.854h27.875v14.854
		C99.406,233.199,97.168,235.438,94.406,235.438z"/>
	<path class="st9" d="M179.469,235.438h-17.875c-2.761,0-5-2.239-5-5v-14.854h27.875v14.854
		C184.469,233.199,182.23,235.438,179.469,235.438z"/>
	<path class="st10" d="M91.53,235.44h-15c-2.76,0-5-2.24-5-5v-14.86h15v14.86C86.53,233.2,88.77,235.44,91.53,235.44z"/>
	<path class="st10" d="M176.59,235.44h-15c-2.76,0-5-2.24-5-5v-14.86h15v14.86C171.59,233.2,173.83,235.44,176.59,235.44z"/>
	<g>
		<path class="st1" d="M17.956,132.529h220.089l-26.136,67.739c-3.893,9.291-12.983,15.338-23.057,15.338H67.149
			c-10.074,0-19.164-6.047-23.058-15.338L17.956,132.529z"/>
	</g>
	<g>
		<path class="st6" d="M82.15,215.61h-15c-10.07,0-19.16-6.05-23.06-15.34l-26.13-67.74h15l26.13,67.74
			C62.99,209.56,72.08,215.61,82.15,215.61z"/>
	</g>
	<g>
		<path class="st11" d="M238.04,132.53l-26.13,67.74c-3.9,9.29-12.99,15.34-23.06,15.34h-15c10.07,0,19.16-6.05,23.06-15.34
			l26.13-67.74H238.04z"/>
	</g>
	<path class="st0" d="M238.044,132.529H17.956L44.092,64.79c3.893-9.291,12.983-15.338,23.058-15.338h121.701
		c10.074,0,16.164,6.047,20.057,15.338L238.044,132.529z"/>
	<path class="st4" d="M82.15,49.45c-10.07,0-19.16,6.05-23.06,15.34l-26.13,67.74h-15l26.13-67.74c3.9-9.29,12.99-15.34,23.06-15.34
		H82.15z"/>
	<path class="st5" d="M238.04,132.53h-15l-29.13-67.74c-3.9-9.29-9.99-15.34-20.06-15.34h15c10.07,0,16.16,6.05,20.06,15.34
		L238.04,132.53z"/>
	<path class="st12" d="M241.973,132.529H14.027c-4.952,0-8.967-4.015-8.967-8.967v0c0-4.952,4.015-8.967,8.967-8.967h227.946
		c4.952,0,8.967,4.015,8.967,8.967v0C250.939,128.514,246.925,132.529,241.973,132.529z"/>
	<path class="st13" d="M29.03,132.53h-15c-4.95,0-8.97-4.02-8.97-8.97c0-2.48,1-4.72,2.63-6.34c1.62-1.62,3.87-2.62,6.34-2.62h15
		c-2.47,0-4.72,1-6.34,2.62c-1.63,1.62-2.63,3.86-2.63,6.34C20.06,128.51,24.08,132.53,29.03,132.53z"/>
	<path class="st14" d="M250.94,123.56c0,2.48-1,4.72-2.63,6.34c-1.62,1.62-3.87,2.63-6.34,2.63h-15c4.95,0,8.97-4.02,8.97-8.97
		s-4.02-8.96-8.97-8.96h15C246.92,114.6,250.94,118.61,250.94,123.56z"/>
	<path class="st12" d="M241.973,150.466H14.027c-4.952,0-8.967-4.014-8.967-8.967v0c0-4.952,4.015-8.967,8.967-8.967h227.946
		c4.952,0,8.967,4.015,8.967,8.967v0C250.939,146.451,246.925,150.466,241.973,150.466z"/>
	<path class="st13" d="M29.03,150.467h-15c-4.95,0-8.97-4.02-8.97-8.97c0-2.48,1-4.72,2.63-6.34c1.62-1.62,3.87-2.62,6.34-2.62h15
		c-2.47,0-4.72,1-6.34,2.62c-1.63,1.62-2.63,3.86-2.63,6.34C20.06,146.447,24.08,150.467,29.03,150.467z"/>
	<path class="st14" d="M250.94,141.497c0,2.48-1,4.72-2.63,6.34c-1.62,1.62-3.87,2.63-6.34,2.63h-15c4.95,0,8.97-4.02,8.97-8.97
		s-4.02-8.96-8.97-8.96h15C246.92,132.537,250.94,136.547,250.94,141.497z"/>
	<path class="st9" d="M55.984,141.495H45.917c-4.952,0-8.967-4.014-8.967-8.967v0c0-4.952,4.015-8.967,8.967-8.967h10.067
		c4.952,0,8.967,4.015,8.967,8.967v0C64.951,137.481,60.936,141.495,55.984,141.495z"/>
	<path class="st9" d="M210.083,141.495h-10.067c-4.952,0-8.967-4.014-8.967-8.967v0c0-4.952,4.014-8.967,8.967-8.967h10.067
		c4.952,0,8.967,4.015,8.967,8.967v0C219.049,137.481,215.035,141.495,210.083,141.495z"/>
	<path class="st10" d="M58.45,141.16c-0.78,0.22-1.61,0.34-2.47,0.34H45.92c-4.95,0-8.97-4.02-8.97-8.97c0-2.47,1.01-4.72,2.63-6.34
		c1.62-1.63,3.86-2.63,6.34-2.63h10.06c0.86,0,1.69,0.12,2.47,0.34c-1.49,0.43-2.81,1.22-3.87,2.29c-1.62,1.62-2.63,3.87-2.63,6.34
		C51.95,136.62,54.7,140.08,58.45,141.16z"/>
	<path class="st10" d="M212.55,141.16c-0.78,0.22-1.61,0.34-2.47,0.34h-10.06c-4.96,0-8.97-4.02-8.97-8.97c0-2.47,1-4.72,2.63-6.34
		c1.62-1.63,3.86-2.63,6.34-2.63h10.06c0.86,0,1.69,0.12,2.47,0.34c-1.49,0.43-2.81,1.22-3.87,2.29c-1.63,1.62-2.63,3.87-2.63,6.34
		C206.05,136.62,208.79,140.08,212.55,141.16z"/>
	<g>
		<path class="st8" d="M254.94,123.56c0-7.146-5.818-12.96-12.97-12.96h-9.006l-20.366-47.358
			c-4.957-11.806-12.946-17.792-23.748-17.792h-21.1V30.562c0-7.72-6.28-14-14-14h-51.5c-7.72,0-14,6.28-14,14V45.45h-21.1
			c-11.711,0-22.21,6.983-26.748,17.792c-0.015,0.036-0.03,0.072-0.044,0.109L22.135,110.6H14.03c-3.467,0-6.723,1.347-9.159,3.783
			c-2.458,2.442-3.811,5.701-3.811,9.177c0,3.48,1.385,6.637,3.623,8.968c-2.333,2.418-3.623,5.589-3.623,8.972
			c0,7.146,5.818,12.96,12.97,12.96h8.106l18.222,47.25c0.014,0.037,0.029,0.073,0.044,0.109
			c4.538,10.808,15.037,17.792,26.748,17.792h0.381v10.828c0,4.962,4.038,9,9,9h17.875c4.962,0,9-4.038,9-9V219.61h49.188v10.828
			c0,4.962,4.038,9,9,9h17.875c4.962,0,9-4.038,9-9V219.61h0.381c11.711,0,22.21-6.983,26.748-17.792
			c0.015-0.036,0.03-0.072,0.044-0.109l18.222-47.25h8.106c3.467,0,6.723-1.347,9.159-3.783c2.458-2.442,3.811-5.701,3.811-9.177
			c0-3.48-1.385-6.637-3.623-8.969C253.65,130.112,254.94,126.942,254.94,123.56z M96.25,30.562c0-3.309,2.691-6,6-6h51.5
			c3.309,0,6,2.691,6,6V45.45h-63.5V30.562z M47.8,66.287c3.299-7.8,10.888-12.837,19.35-12.837h25.081
			c0.007,0,0.013,0.002,0.019,0.002s0.013-0.002,0.019-0.002h71.461c0.007,0,0.013,0.002,0.019,0.002s0.013-0.002,0.019-0.002
			h25.081c7.478,0,12.68,4.095,16.385,12.92l19.02,44.23H30.71L47.8,66.287z M95.406,230.438c0,0.551-0.449,1-1,1H76.531
			c-0.551,0-1-0.449-1-1V219.61h19.875V230.438z M180.469,230.438c0,0.551-0.449,1-1,1h-17.875c-0.551,0-1-0.449-1-1V219.61h19.875
			V230.438z M208.2,198.774c-3.299,7.799-10.888,12.835-19.35,12.835h-4.12c-0.088-0.006-0.172-0.026-0.261-0.026
			c-2.771,0-32.848,0.026-117.319,0.026c-8.462,0-16.051-5.037-19.35-12.835L30.71,154.46H225.29L208.2,198.774z M245.481,145.011
			c-0.934,0.934-2.181,1.449-3.511,1.449H14.03c-2.74,0-4.97-2.225-4.97-4.96c0-1.33,0.515-2.574,1.467-3.521
			c1.86-1.871,1.55-1.45,23.062-1.45c1.691,5.196,6.575,8.965,12.328,8.965h10.067c5.753,0,10.637-3.769,12.328-8.965h119.376
			c1.691,5.196,6.575,8.965,12.328,8.965h10.067c5.753,0,10.637-3.769,12.328-8.965c8.677,0,10.841,0,19.56,0
			c2.74,0,4.97,2.229,4.97,4.97C246.94,142.83,246.425,144.074,245.481,145.011z M40.951,132.529c0-2.739,2.228-4.967,4.966-4.967
			h10.067c2.738,0,4.966,2.227,4.967,4.965c0.001,2.736-2.225,4.968-4.967,4.968H45.917
			C43.179,137.495,40.951,135.267,40.951,132.529z M195.049,132.527c0.001-2.738,2.229-4.965,4.967-4.965h10.067
			c2.738,0,4.966,2.228,4.966,4.967c0,2.738-2.228,4.966-4.966,4.966h-10.067c-2.738,0-4.965-2.226-4.966-4.963
			c0-0.001,0-0.001,0-0.002C195.05,132.529,195.049,132.528,195.049,132.527z M245.481,127.071
			c-1.887,1.887-1.585,1.458-23.07,1.458c-1.69-5.198-6.575-8.968-12.328-8.968h-10.067c-5.754,0-10.639,3.77-12.329,8.968H68.313
			c-1.69-5.198-6.575-8.968-12.329-8.968H45.917c-5.754,0-10.638,3.77-12.328,8.968c-8.676,0-10.841,0-19.559,0
			c-4.432,0-6.624-5.389-3.511-8.481c2.167-2.167-11.773-1.449,231.452-1.449c2.74,0,4.97,2.225,4.97,4.96
			C246.94,124.89,246.425,126.134,245.481,127.071z"/>
		<path class="st8" d="M66.125,66.084c-2.209,0-4,1.791-4,4v25.333c0,2.209,1.791,4,4,4s4-1.791,4-4V70.084
			C70.125,67.875,68.334,66.084,66.125,66.084z"/>
		<path class="st8" d="M90.875,66.084c-2.209,0-4,1.791-4,4v25.333c0,2.209,1.791,4,4,4s4-1.791,4-4V70.084
			C94.875,67.875,93.084,66.084,90.875,66.084z"/>
		<path class="st8" d="M115.625,66.084c-2.209,0-4,1.791-4,4v25.333c0,2.209,1.791,4,4,4s4-1.791,4-4V70.084
			C119.625,67.875,117.834,66.084,115.625,66.084z"/>
		<path class="st8" d="M140.375,66.084c-2.209,0-4,1.791-4,4v25.333c0,2.209,1.791,4,4,4s4-1.791,4-4V70.084
			C144.375,67.875,142.584,66.084,140.375,66.084z"/>
		<path class="st8" d="M165.125,66.084c-2.209,0-4,1.791-4,4v25.333c0,2.209,1.791,4,4,4s4-1.791,4-4V70.084
			C169.125,67.875,167.334,66.084,165.125,66.084z"/>
		<path class="st8" d="M189.875,66.084c-2.209,0-4,1.791-4,4v25.333c0,2.209,1.791,4,4,4s4-1.791,4-4V70.084
			C193.875,67.875,192.084,66.084,189.875,66.084z"/>
		<path class="st8" d="M170.531,203.084h14.813c5.661,0,10.73-3.375,12.915-8.597l3.257-7.786c0.853-2.038-0.108-4.381-2.146-5.234
			c-2.039-0.853-4.381,0.108-5.234,2.146c-5.697,13.618-2.664,11.471-23.605,11.471c-2.209,0-4,1.791-4,4
			S168.322,203.084,170.531,203.084z"/>
		<path class="st8" d="M207.306,172.863l2.051-4.902c0.853-2.038-0.108-4.381-2.146-5.234c-2.038-0.854-4.381,0.108-5.234,2.146
			l-2.051,4.902C197.876,174.676,205.27,177.729,207.306,172.863z"/>
	</g>
</g>
</svg>
