<?xml version="1.0" encoding="utf-8"?>
<!-- Generator: Adobe Illustrator 22.1.0, SVG Export Plug-In . SVG Version: 6.00 Build 0)  -->
<svg version="1.1" id="Icon_Set" xmlns="http://www.w3.org/2000/svg" xmlns:xlink="http://www.w3.org/1999/xlink" x="0px" y="0px"
	 viewBox="0 0 256 256" style="enable-background:new 0 0 256 256;" xml:space="preserve">
<style type="text/css">
	.st0{fill:#5FCDFF;}
	.st1{fill:#87828E;}
	.st2{fill:#B76C6C;}
	.st3{fill:#FF4A73;}
	.st4{fill:#73D7F9;}
	.st5{fill:#30B6FF;}
	.st6{fill:#A4A4A5;}
	.st7{fill:#F973A3;}
	.st8{fill:#5F266D;}
	.st9{fill:#FFE2E2;}
	.st10{fill:#FFEFEE;}
	.st11{fill:#796E84;}
	.st12{fill:#3193F3;}
	.st13{fill:#35B1FC;}
	.st14{fill:#307FED;}
	.st15{fill:#FFCFCF;}
	.st16{fill:#EA2A6A;}
	.st17{fill:#44C7B6;}
	.st18{fill:#3BB2A0;}
	.st19{fill:#4BDBC3;}
	.st20{fill:#C98585;}
	.st21{fill:#965959;}
	.st22{fill:#FFBB98;}
	.st23{fill:#FFCAA6;}
	.st24{fill:#FFAA80;}
	.st25{fill:#F9D335;}
	.st26{fill:#F2C300;}
	.st27{fill:#F9E27D;}
</style>
<g>
	<g>
		<path class="st0" d="M35.693,184.6h184.614c13.807,0,25-11.193,25-25v-40H15.693c-2.761,0-5,2.239-5,5v35
			C10.693,173.407,21.886,184.6,35.693,184.6z"/>
		<circle class="st1" cx="180.207" cy="229.865" r="21.271"/>
		<circle class="st1" cx="90.462" cy="229.865" r="21.271"/>
		<path class="st2" d="M199.025,154.822c3.544-6.139,12.404-6.139,15.949,0c0.074,0.128,3.236,5.605,3.176,5.502
			c3.544,6.139-0.886,13.812-7.974,13.812c-0.147,0-6.472,0-6.353,0c-7.088,0-11.518-7.673-7.974-13.812
			C195.922,160.196,199.085,154.718,199.025,154.822z"/>
		<path class="st2" d="M38.618,154.822c3.544-6.139,12.404-6.139,15.949,0l1.588,2.751l1.588,2.751
			c3.544,6.139-0.886,13.812-7.974,13.812c-0.147,0-6.472,0-6.353,0c-7.088,0-11.518-7.673-7.974-13.812
			C35.516,160.196,38.678,154.718,38.618,154.822z"/>
		<path class="st3" d="M136.19,119.58v-51.8c0-0.03,0-0.05-0.01-0.08c0-0.77-0.19-1.52-0.54-2.19c-0.29-0.57-0.69-1.08-1.18-1.51
			L90.03,25.52c9.14,1.47,16.89,0.83,23.3-0.83c13.23-3.41,20.74-11.14,22.86-13.62c0.13-0.15,0.24-0.28,0.33-0.39v-0.4
			c0,0,0.06,0.07,0.16,0.2c0.1-0.13,0.16-0.2,0.16-0.2l0.36,0.82c1.9,2.18,7.8,8.24,17.92,12.02c7.77,2.91,18.03,4.47,30.88,1.9
			l1.96-0.91l0.06-0.03c0,0,0,0,0,0.01c0.01,0.05,0.03,0.22,0.07,0.51c0.37,2.23,2.3,11.33,10.05,20.46
			c5.5,6.48,13.93,12.98,26.83,17.04c0.04,0.01,0.09,0.03,0.13,0.04l0.62-0.36c0,0-0.07,0.17-0.19,0.48c0,0.01,0,0.01,0,0.01
			c-0.82,2.17-3.78,11.31-1.4,23.41c1.97,10.02,7.61,22.08,21.17,33.9H136.19z"/>
		<path class="st4" d="M50.69,184.6h-15c-13.8,0-25-11.19-25-25v-35c0-2.76,2.24-5,5-5h15c-2.76,0-5,2.24-5,5v35
			C25.69,173.41,36.89,184.6,50.69,184.6z"/>
		<path class="st5" d="M245.31,119.6v40c0,13.81-11.2,25-25,25h-15c13.8,0,25-11.19,25-25v-40H245.31z"/>
		<path class="st6" d="M187.71,249.78c-2.33,0.88-4.86,1.36-7.5,1.36c-11.75,0-21.27-9.53-21.27-21.28
			c0-11.74,9.52-21.27,21.27-21.27c2.64,0,5.17,0.48,7.5,1.36c-8.05,3.04-13.77,10.81-13.77,19.91
			C173.94,238.97,179.66,246.74,187.71,249.78z"/>
		<path class="st6" d="M97.96,249.78c-2.33,0.88-4.86,1.36-7.5,1.36c-11.75,0-21.27-9.53-21.27-21.28
			c0-11.74,9.52-21.27,21.27-21.27c2.64,0,5.17,0.48,7.5,1.36c-8.05,3.03-13.77,10.81-13.77,19.91
			C84.19,238.97,89.91,246.75,97.96,249.78z"/>
		<path class="st7" d="M225.1,62.14c-0.04-0.01-0.09-0.03-0.13-0.04l-80.641,46.561L198.14,45.06c-7.75-9.13-9.68-18.23-10.05-20.46
			c-0.04-0.29-0.06-0.46-0.07-0.51c0-0.01,0-0.01,0-0.01l-0.06,0.03l-48.033,83.188L155.12,23.12C145,19.34,139.1,13.28,137.2,11.1
			l-0.36-0.82c0,0-0.06,0.07-0.16,0.2c-0.1-0.13-0.16-0.2-0.16-0.2v0.4c-0.09,0.11-0.2,0.24-0.33,0.39v46.91l-22.76-33.11l-0.1-0.18
			c-6.41,1.66-14.16,2.3-23.3,0.83L134.46,64c0.49,0.43,0.89,0.94,1.18,1.51c0.35,0.67,0.54,1.42,0.54,2.19
			c0.004,0.009,0.007,0.016,0.01,0.025v51.025l87.94-33.07c-2.38-12.1,0.58-21.24,1.4-23.41c0,0,0,0,0-0.01
			c0.12-0.31,0.19-0.48,0.19-0.48L225.1,62.14z"/>
	</g>
	<g>
		<path class="st8" d="M247.933,116.769c-26.514-23.102-20.804-46.547-18.963-52.042l5.106-2.948
			c1.913-1.104,2.569-3.551,1.464-5.464c-1.104-1.913-3.55-2.569-5.464-1.464l-5.414,3.126c-25.571-8.704-31.3-27.372-32.453-32.944
			l2.946-5.103c1.105-1.913,0.449-4.359-1.464-5.464c-1.913-1.105-4.36-0.45-5.464,1.464l-3.117,5.4
			c-26.583,5.274-40.911-8.179-44.495-12.185c-0.024-0.067-0.063-0.128-0.09-0.194V4.658c0-2.209-1.791-4-4-4s-4,1.791-4,4v4.725
			c-3.742,4.026-17.057,15.934-40.775,12.542l-8.105-7.019c-1.671-1.446-4.196-1.264-5.643,0.405
			c-1.446,1.67-1.265,4.196,0.405,5.643c7.902,6.844,46.496,40.267,54.118,46.868v47.984H76.522L46.821,84.732
			c-2.659-3.066-6.505-4.822-10.574-4.822h-20.55c-4.962,0-9,4.038-9,9v8.41c0,2.209,1.791,4,4,4s4-1.791,4-4v-8.41
			c0-0.551,0.449-1,1-1h20.55c1.762,0,3.426,0.767,4.565,2.104c0.05,0.058,0.101,0.115,0.153,0.169l24.49,25.622H15.693
			c-4.962,0-9,4.038-9,9v35c0,15.991,13.009,29,29,29h88.678l-19.567,20.474c-4.078-2.822-9.019-4.481-14.343-4.481
			c-13.935,0-25.271,11.337-25.271,25.271s11.337,25.271,25.271,25.271s25.271-11.336,25.271-25.271
			c0-5.73-1.92-11.019-5.146-15.263l24.746-25.898l24.752,25.896c-3.228,4.244-5.148,9.534-5.148,15.265
			c0,13.935,11.336,25.271,25.271,25.271s25.271-11.336,25.271-25.271s-11.337-25.271-25.271-25.271
			c-5.322,0-10.262,1.658-14.34,4.479l-19.568-20.472h74.008c15.991,0,29-13.009,29-29v-40
			C249.307,118.728,248.763,117.492,247.933,116.769z M90.462,247.342c-9.523,0-17.271-7.748-17.271-17.271
			s7.748-17.271,17.271-17.271s17.271,7.748,17.271,17.271S99.985,247.342,90.462,247.342z M180.207,212.799
			c9.523,0,17.271,7.748,17.271,17.271s-7.748,17.271-17.271,17.271s-17.271-7.748-17.271-17.271S170.684,212.799,180.207,212.799z
			 M186.812,34.381c3.549,8.587,11.491,20.89,28.988,28.712l-68.348,39.461L186.812,34.381z M140.524,19.853
			c10.358,7.974,23.864,11.984,39.46,10.354l-39.46,68.347V19.853z M140.524,115.791l79.072-45.652
			c-1.399,10.436-0.312,27.875,15.902,45.667h-94.974V115.791z M101.678,30.525c14.387-0.364,24.591-5.71,30.846-10.437v37.15
			L101.678,30.525z M35.693,180.806c-11.58,0-21-9.42-21-21v-35c0-0.551,0.449-1,1-1h57.41l54.483,57H35.693z M241.307,159.806
			c0,11.58-9.42,21-21,21h-81.655l-54.483-57h157.138V159.806z"/>
		<path class="st8" d="M195.561,153.028C195.561,153.028,195.561,153.028,195.561,153.028c-3.252,5.632-7.52,11.187-3.176,18.709
			c4.393,7.607,11.699,6.604,17.791,6.604c10.169,0,16.525-11,11.438-19.812c-3.258-5.642-5.933-12.105-14.614-12.105c0,0,0,0,0,0
			C202.225,146.424,197.948,148.893,195.561,153.028z M202.489,157.028c2.004-3.47,7.013-3.478,9.021,0l3.176,5.501
			c2.004,3.47-0.495,7.812-4.51,7.812c-6.411,0-9.015,0.594-10.863-2.604C197.466,164.538,199.285,162.578,202.489,157.028z"/>
		<g>
			
				<ellipse transform="matrix(0.9397 -0.342 0.342 0.9397 -33.8875 76.5806)" class="st8" cx="200.213" cy="134.384" rx="4.959" ry="7.359"/>
			
				<ellipse transform="matrix(0.342 -0.9397 0.9397 0.342 14.6996 289.7611)" class="st8" cx="214.26" cy="134.384" rx="7.359" ry="4.959"/>
		</g>
		<g>
			<path class="st8" d="M192.709,151.58c2.574-0.937,3.534-4.792,2.143-8.612c-1.39-3.819-4.604-6.156-7.177-5.219
				c-2.574,0.937-3.533,4.792-2.143,8.612C186.922,150.18,190.135,152.517,192.709,151.58z"/>
			<path class="st8" d="M221.764,151.58c2.574,0.937,5.787-1.4,7.177-5.219c1.39-3.819,0.43-7.675-2.143-8.612
				c-2.574-0.937-5.787,1.4-7.177,5.219C218.231,146.787,219.19,150.643,221.764,151.58z"/>
		</g>
		<path class="st8" d="M46.593,146.424c-4.775,0-9.051,2.469-11.438,6.604c0,0,0,0,0,0l-3.176,5.501
			c-5.082,8.804,1.263,19.812,11.438,19.812h6.353c10.167,0,16.526-10.999,11.438-19.813
			C57.949,152.887,55.274,146.424,46.593,146.424z M49.769,170.341c-6.416,0-9.017,0.594-10.863-2.604
			c-0.452-0.783-1.357-2.858,0-5.208c3.205-5.551,3.994-8.106,7.687-8.106c3.694,0,4.481,2.554,7.686,8.105
			C56.283,166,53.784,170.341,49.769,170.341z"/>
		<g>
			
				<ellipse transform="matrix(0.9397 -0.342 0.342 0.9397 -43.5607 21.7184)" class="st8" cx="39.806" cy="134.384" rx="4.96" ry="7.359"/>
			
				<ellipse transform="matrix(0.342 -0.9397 0.9397 0.342 -90.8453 139.0274)" class="st8" cx="53.853" cy="134.384" rx="7.359" ry="4.959"/>
		</g>
		<g>
			<path class="st8" d="M32.302,151.58c2.574-0.937,3.534-4.792,2.143-8.612c-1.39-3.819-4.604-6.156-7.177-5.219
				c-2.574,0.937-3.534,4.792-2.143,8.612C26.515,150.18,29.728,152.517,32.302,151.58z"/>
			<path class="st8" d="M66.392,137.749c-2.574-0.937-5.787,1.4-7.177,5.219c-1.39,3.819-0.43,7.675,2.143,8.612
				c2.574,0.937,5.787-1.4,7.177-5.219C69.925,142.541,68.965,138.686,66.392,137.749z"/>
		</g>
		<path class="st8" d="M163.667,138.384h3.999c2.209,0,4-1.791,4-4s-1.791-4-4-4h-3.999c-2.209,0-4,1.791-4,4
			S161.458,138.384,163.667,138.384z"/>
		<path class="st8" d="M124.667,138.384h24c2.209,0,4-1.791,4-4s-1.791-4-4-4h-24c-2.209,0-4,1.791-4,4
			S122.458,138.384,124.667,138.384z"/>
	</g>
</g>
</svg>
