<?xml version="1.0" encoding="utf-8"?>
<!-- Generator: Adobe Illustrator 22.1.0, SVG Export Plug-In . SVG Version: 6.00 Build 0)  -->
<svg version="1.1" id="Icon_Set" xmlns="http://www.w3.org/2000/svg" xmlns:xlink="http://www.w3.org/1999/xlink" x="0px" y="0px"
	 viewBox="0 0 256 256" style="enable-background:new 0 0 256 256;" xml:space="preserve">
<style type="text/css">
	.st0{fill:#5FCDFF;}
	.st1{fill:#87828E;}
	.st2{fill:#B76C6C;}
	.st3{fill:#FF4A73;}
	.st4{fill:#73D7F9;}
	.st5{fill:#30B6FF;}
	.st6{fill:#A4A4A5;}
	.st7{fill:#F973A3;}
	.st8{fill:#5F266D;}
	.st9{fill:#FFE2E2;}
	.st10{fill:#FFEFEE;}
	.st11{fill:#796E84;}
	.st12{fill:#3193F3;}
	.st13{fill:#35B1FC;}
	.st14{fill:#307FED;}
	.st15{fill:#FFCFCF;}
	.st16{fill:#EA2A6A;}
	.st17{fill:#44C7B6;}
	.st18{fill:#3BB2A0;}
	.st19{fill:#4BDBC3;}
	.st20{fill:#C98585;}
	.st21{fill:#965959;}
	.st22{fill:#FFBB98;}
	.st23{fill:#FFCAA6;}
	.st24{fill:#FFAA80;}
	.st25{fill:#F9D335;}
	.st26{fill:#F2C300;}
	.st27{fill:#F9E27D;}
</style>
<g>
	<g id="XMLID_87_">
		<path id="XMLID_145_" class="st2" d="M182.64,121.902v91.21H72.72c0-0.609-0.006-91.733,0.01-92.34
			c0.33-12.71,6.07-24.06,15-31.84c7.69-6.7,17.72-10.75,28.71-10.75h22.48c11,0,21.03,4.05,28.72,10.76
			C176.83,96.952,182.64,108.742,182.64,121.902z"/>
		<path id="XMLID_144_" class="st21" d="M182.64,121.902v91.21h-15V88.942C176.83,96.952,182.64,108.742,182.64,121.902z"/>
		<path id="XMLID_140_" class="st2" d="M233.496,122.889c-16.554,55.862-15.688,53.152-16.086,53.953
			c-2.921,5.87-11.142,6.487-14.908,1.126c-0.504-0.718,2.359,5.343-44.087-95.146l69.648,28.468
			C232.909,112.833,235.412,118.178,233.496,122.889z"/>
		<path id="XMLID_139_" class="st3" d="M163.971,251.255H91.423c-2.761,0-5-2.239-5-5v-5.356c0-2.761,2.239-5,5-5h72.549
			c2.761,0,5,2.239,5,5v5.356C168.971,249.017,166.732,251.255,163.971,251.255z"/>
		<path id="XMLID_85_" class="st7" d="M106.427,251.252h-15c-2.77,0-5-2.24-5-5v-5.35c0-2.76,2.23-5,5-5h15c-2.77,0-5,2.24-5,5v5.35
			C101.427,249.012,103.657,251.252,106.427,251.252z"/>
		<path id="XMLID_136_" class="st16" d="M168.967,240.902v5.35c0,2.76-2.23,5-5,5h-15c2.77,0,5-2.24,5-5v-5.35c0-2.76-2.23-5-5-5h15
			C166.737,235.902,168.967,238.142,168.967,240.902z"/>
		<path id="XMLID_135_" class="st20" d="M87.73,88.932v124.18h-15v-92.34C73.06,108.062,78.8,96.712,87.73,88.932z"/>
		<path id="XMLID_83_" class="st22" d="M166.16,235.899H89.2c-13.982,0-25.316-11.334-25.316-25.316
			c0-38.031,29.81-64.935,63.796-64.935h0c35.233,0,63.796,28.562,63.796,63.796C191.476,225.712,179.359,235.899,166.16,235.899z"
			/>
		<path id="XMLID_79_" class="st24" d="M191.489,209.44c0,16.267-12.117,26.46-25.32,26.46h-15c13.98,0,25.32-11.34,25.32-25.32
			c0-18.818-6.906-34.466-18.69-46.25c-9.88-9.88-22.99-16.53-37.61-18.24c2.46-0.29,4.96-0.44,7.5-0.44
			c17.62,0,33.57,7.14,45.11,18.68C184.349,175.88,191.489,191.82,191.489,209.44z"/>
		<path id="XMLID_75_" class="st23" d="M104.225,235.902h-15c-13.98,0-25.31-11.34-25.31-25.32c0-38.027,29.806-64.93,63.79-64.93
			c2.54,0,5.04,0.15,7.5,0.44c-30.397,3.558-56.29,28.95-56.29,64.49C78.915,224.562,90.245,235.902,104.225,235.902z"/>
		<path id="XMLID_71_" class="st2" d="M131.022,199.865c-16.442,0-24.038-8.966-24.038-20c0-9.736,4.189-13.379,10-13.379h24.038
			c11.913,0,10,14.673,10,13.379C151.022,190.911,142.068,199.865,131.022,199.865z"/>
		<path id="XMLID_65_" class="st20" d="M136.507,199.092c-1.74,0.5-3.58,0.77-5.48,0.77c-16.449,0-24.04-8.962-24.04-20
			c0-9.726,4.175-13.38,10-13.38h15c-5.747,0-10,3.573-10,13.38C121.987,189.012,128.127,196.722,136.507,199.092z"/>
		<path id="XMLID_31_" class="st2" d="M22.504,122.749c16.554,55.862,15.688,53.152,16.087,53.953
			c2.921,5.87,11.141,6.487,14.908,1.126c0.504-0.718-2.359,5.344,44.087-95.147L27.938,111.15
			C23.091,112.693,20.588,118.038,22.504,122.749z"/>
	</g>
	<path class="st1" d="M191.13,43.252v42.31c0,9.56-28.41,17.31-63.46,17.31c-19.43,0-36.83-2.38-48.47-6.14
		c-9.36-3.01-15-6.91-15-11.17v-43.75l15,0.17L191.13,43.252z"/>
	<polygon class="st6" points="209.633,34.597 128.632,67.039 45.7,34.597 128.632,4.745 	"/>
	<path class="st25" d="M78.316,153.907h-0.537c-4.447,0-8.051-3.605-8.051-8.051v-20.397c0-4.447,3.605-8.051,8.051-8.051h0.537
		c4.447,0,8.051,3.605,8.051,8.051v20.397C86.367,150.303,82.763,153.907,78.316,153.907z"/>
	<path class="st6" d="M79.2,41.982v54.75c-9.36-3.01-15-6.91-15-11.17v-43.75L79.2,41.982z"/>
	<path class="st11" d="M191.13,45.922v39.64c0,9.56-28.41,17.31-63.46,17.31c-2.54,0-5.04-0.04-7.5-0.12
		c31.52-1.01,55.96-8.32,55.96-17.19v-39.64H191.13z"/>
</g>
<g>
	<path class="st8" d="M94.961,117.346c0.823-0.773,8.328-7.337,18.146,0.269c1.751,1.355,4.262,1.031,5.612-0.712
		c1.353-1.746,1.034-4.259-0.712-5.612c-12.445-9.641-24.146-4.025-28.595,0.291C85.664,115.219,91.118,120.952,94.961,117.346z"/>
	<circle class="st8" cx="103.347" cy="128.382" r="7.125"/>
	<path class="st8" d="M142.587,117.324c0.321-0.312,7.998-7.555,18.125,0.291c4.191,3.243,9.063-3.098,4.9-6.324
		c-12.445-9.641-24.147-4.025-28.596,0.291c-1.586,1.538-1.624,4.07-0.086,5.656S141.001,118.861,142.587,117.324z"/>
	<circle class="st8" cx="150.951" cy="128.382" r="7.125"/>
	<path class="st8" d="M229.44,107.453l-37.038-15.14c1.811-2.055,2.727-4.285,2.727-6.673V44.793l15.99-6.404
		c3.394-1.36,3.324-6.203-0.104-7.467L130.015,1.069c-0.883-0.325-1.853-0.33-2.737-0.01L44.346,30.911
		c-3.466,1.247-3.536,6.146-0.103,7.489L60.2,44.642V85.64c0,2.428,0.944,4.693,2.813,6.775l-36.45,14.897
		c-6.901,2.298-10.456,9.907-7.848,16.664c16.821,56.733,15.742,53.349,16.294,54.426c4.687,9.427,18.365,9.357,22.813-0.223
		L68.72,154.6v21.363c-6.388,11.231-8.836,22.502-8.836,34.542c0,13.894,9.719,25.553,22.714,28.557
		c-0.226,1.137-0.175,1.294-0.175,7.115c0,4.962,4.037,9,9,9h72.548c4.963,0,9-4.038,9-9v-5.356c0-0.605-0.062-1.195-0.176-1.766
		c12.334-2.866,22.681-13.637,22.681-29.689c0-12.14-3.224-23.535-8.836-33.403v-22.614l11.544,24.981
		c4.878,10.469,20.286,9.275,23.541-1.732l15.561-52.481C239.895,117.356,236.333,109.759,229.44,107.453z M57.078,34.831
		L128.615,9.08l69.872,25.75l-69.873,27.985L90.411,47.87l38.687-10.805c2.128-0.594,3.371-2.801,2.776-4.929
		c-0.595-2.127-2.794-3.371-4.929-2.776L78.022,43.024l-12.18-4.765c-0.078-0.035-0.158-0.063-0.239-0.093L57.078,34.831z
		 M82.367,125.537v20.397c0,5.307-8.64,5.474-8.64,0c0-7.357,0-12.693,0-20.397C73.728,120.058,82.367,120.238,82.367,125.537z
		 M73.87,90.406c-1.623-0.803-5.67-3.06-5.67-4.766V47.772l5.67,2.218V90.406z M81.87,107.072v-5.302
		c0.717,0.195,1.444,0.385,2.188,0.569L81.87,107.072z M76.72,157.932c0.35,0.031,0.702,0.054,1.06,0.054h0.536
		c6.646,0,12.052-5.406,12.052-12.051v-20.397c0-3.578-1.576-6.788-4.061-8.997l5.788-12.516c21.87,3.941,49.996,3.902,71.707-0.098
		l14.839,32.111v28.689c-12.435-14.178-30.664-23.155-50.96-23.155s-38.525,8.977-50.96,23.155V157.932z M81.87,93.452V53.119
		l45.305,17.723c0.949,0.371,1.998,0.367,2.944-0.012l57.011-22.834V85.64c0,1.57-4.839,6.328-21.824,9.854
		C140.034,100.751,103.589,99.963,81.87,93.452z M65.728,125.537v16.47l-15.164,32.806c-1.752,3.78-7.43,3.35-8.618-0.63
		c-0.084-0.283-15.627-52.743-15.738-53.016c-1.035-2.551,0.311-5.448,2.943-6.284c0.247-0.079,41.47-16.934,41.711-17.032
		c0.945,0.45,1.946,0.887,3.009,1.309v14.989C69.14,115.777,65.728,120.261,65.728,125.537z M164.971,246.177c0,0.551-0.448,1-1,1
		H91.423c-0.552,0-1-0.449-1-1v-5.356c0-0.551,0.448-1,1-1h72.548C165.312,239.821,164.971,241.042,164.971,246.177z
		 M187.476,209.366c0,14.143-10.448,22.455-21.315,22.455c-3.703,0-73.18,0-76.96,0c-10.932,0-21.316-8.35-21.316-22.455
		c0-32.971,26.824-59.795,59.796-59.795S187.476,176.395,187.476,209.366z M229.793,121.307
		c-0.148,0.365-15.822,53.39-15.964,53.672c-1.713,3.442-6.784,3.455-8.389-0.017l-33.622-72.756
		c4.249-1.075,8.841-2.52,12.804-4.43c0.227,0.093,41.986,17.17,42.219,17.244C229.48,115.863,230.829,118.754,229.793,121.307z"/>
	<path class="st8" d="M162.389,196.607c-2.209,0-4,1.791-4,4c0,7.295-5.936,13.231-13.23,13.231
		c-6.211,0-11.421-4.307-12.838-10.087c12.632-0.677,22.702-11.166,22.702-23.964v-3.379c0-7.72-6.28-14-14-14h-24.039
		c-7.72,0-14,6.28-14,14v3.379c0,11.947,8.775,21.88,20.218,23.699c-1.319,5.914-6.6,10.352-12.906,10.352
		c-7.296,0-13.231-5.936-13.231-13.231c0-2.209-1.791-4-4-4s-4,1.791-4,4c0,20.674,26.79,29.156,38.663,12.088
		c11.87,17.064,38.662,8.605,38.662-12.088C166.389,198.398,164.598,196.607,162.389,196.607z M126.983,195.787
		c-8.822,0-16-7.178-16-16v-3.379c0-3.309,2.691-6,6-6h24.039c3.309,0,6,2.691,6,6v3.379c0,8.822-7.178,16-16,16H126.983z"/>
	<path class="st8" d="M178.453,71.349c-2.209,0-4,1.791-4,4V80c0,0.025-0.005,0.053-0.016,0.078
		c-0.805,0.272-2.624,0.876-4.912,1.559c-2.116,0.632-3.32,2.86-2.688,4.977c0.519,1.735,2.108,2.857,3.831,2.857
		c0.379,0,0.765-0.054,1.146-0.168c0.81-0.242,5.462-1.659,6.215-2.042c2.729-1.399,4.424-4.181,4.424-7.261v-4.651
		C182.453,73.14,180.662,71.349,178.453,71.349z"/>
	<path class="st8" d="M155.694,84.696c-0.662,0.054-1.244,0.076-1.768,0.056c-2.187-0.068-4.06,1.649-4.138,3.858
		c-0.076,2.208,1.65,4.06,3.858,4.137c0.214,0.007,0.431,0.011,0.653,0.011c0.633,0,1.32-0.03,2.044-0.089
		c2.202-0.18,3.841-2.11,3.661-4.312C159.827,86.156,157.888,84.526,155.694,84.696z"/>
</g>
</svg>
