<?xml version="1.0" encoding="utf-8"?>
<!-- Generator: Adobe Illustrator 22.1.0, SVG Export Plug-In . SVG Version: 6.00 Build 0)  -->
<svg version="1.1" id="Icon_Set" xmlns="http://www.w3.org/2000/svg" xmlns:xlink="http://www.w3.org/1999/xlink" x="0px" y="0px"
	 viewBox="0 0 256 256" style="enable-background:new 0 0 256 256;" xml:space="preserve">
<style type="text/css">
	.st0{fill:#5FCDFF;}
	.st1{fill:#87828E;}
	.st2{fill:#B76C6C;}
	.st3{fill:#FF4A73;}
	.st4{fill:#73D7F9;}
	.st5{fill:#30B6FF;}
	.st6{fill:#A4A4A5;}
	.st7{fill:#F973A3;}
	.st8{fill:#5F266D;}
	.st9{fill:#FFE2E2;}
	.st10{fill:#FFEFEE;}
	.st11{fill:#796E84;}
	.st12{fill:#3193F3;}
	.st13{fill:#35B1FC;}
	.st14{fill:#307FED;}
	.st15{fill:#FFCFCF;}
	.st16{fill:#EA2A6A;}
	.st17{fill:#44C7B6;}
	.st18{fill:#3BB2A0;}
	.st19{fill:#4BDBC3;}
	.st20{fill:#C98585;}
	.st21{fill:#965959;}
	.st22{fill:#FFBB98;}
	.st23{fill:#FFCAA6;}
	.st24{fill:#FFAA80;}
	.st25{fill:#F9D335;}
	.st26{fill:#F2C300;}
	.st27{fill:#F9E27D;}
</style>
<g>
	<path class="st12" d="M193.967,78.609l-16.24,64.7c-1.94,7.95,2.94,15.96,10.89,17.9c7.95,1.93,15.97-2.94,17.9-10.9l17.36-69.28
		L193.967,78.609z"/>
	<path class="st3" d="M185.003,94.751c-6.042-1.758-12.361,1.737-14.084,7.789c-1.69,5.939,1.678,12.139,7.581,13.953l5.532,1.695
		l5.553-22.122L185.003,94.751z"/>
	<path class="st13" d="M199.617,159.589c-3.2,1.88-7.11,2.56-11,1.62c-7.95-1.94-12.83-9.95-10.89-17.9l16.24-64.7l14.7,1.19
		l-15.94,63.51C191.137,149.819,194.117,156.369,199.617,159.589z"/>
	<g>
		<path id="XMLID_201_" class="st3" d="M127.586,199.813v19.602c0,3.447-1.962,6.606-5.076,8.1
			c-2.718,1.305-5.526,2.448-8.424,3.429c-19.647,6.723-42.777,6.246-61.245-0.009c-2.934-0.999-5.76-2.142-8.424-3.42
			c-3.114-1.494-5.076-4.653-5.076-8.1v-19.602H127.586z"/>
		<path id="XMLID_200_" class="st7" d="M52.841,199.813v31.122c-2.934-0.999-5.76-2.142-8.424-3.42
			c-3.114-1.494-5.076-4.653-5.076-8.1v-19.602H52.841z"/>
		<path id="XMLID_199_" class="st16" d="M127.586,199.813v19.602c0,3.447-1.962,6.606-5.076,8.1
			c-2.718,1.305-5.526,2.448-8.424,3.429v-31.131H127.586z"/>
		<path id="XMLID_198_" class="st22" d="M14.113,90.67c-3.339-0.882-6.39,2.169-5.508,5.508c8.476,31.93,6.962,21.9,15.261,53.149
			l36.577-46.586C37.163,96.566,45.693,99.052,14.113,90.67z"/>
		<path id="XMLID_197_" class="st22" d="M152.822,90.67c-31.579,8.382-23.096,5.874-46.375,12.049l36.616,46.537
			c8.299-31.249,6.791-21.148,15.267-53.078C159.212,92.839,156.161,89.788,152.822,90.67z"/>
		<path id="XMLID_196_" class="st22" d="M143.768,158.485c0,3.816-0.351,7.551-1.035,11.169c-5.239,28-29.818,49.131-59.265,49.131
			c-33.294,0-60.3-26.989-60.3-60.3c0-32.328,25.871-60.3,60.714-60.3c33.881,0.499,59.217,27.355,59.868,59.022
			C143.768,157.63,143.768,158.062,143.768,158.485z"/>
		<circle id="XMLID_195_" class="st25" cx="83.468" cy="237.814" r="13.157"/>
		<path id="XMLID_194_" class="st20" d="M86.979,173.004c-1.801,2.248-5.221,2.248-7.023,0l-4.063-5.069l-1.712-2.136
			c-2.361-2.946-0.264-7.314,3.511-7.314h5.774h5.774c3.775,0,5.872,4.368,3.511,7.314l-1.712,2.136L86.979,173.004z"/>
		<path id="XMLID_193_" class="st27" d="M90.218,249.107c-1.971,1.179-4.284,1.863-6.75,1.863c-7.263,0-13.158-5.886-13.158-13.158
			c0-7.263,5.895-13.158,13.158-13.158c2.466,0,4.779,0.684,6.75,1.863c-3.834,2.295-6.408,6.498-6.408,11.295
			C83.81,242.618,86.384,246.812,90.218,249.107z"/>
		<path class="st23" d="M90.254,218.408c-2.223,0.252-4.491,0.378-6.786,0.378c-33.291,0-60.3-26.991-60.3-60.3
			c0-32.328,25.875-60.3,60.714-60.3c2.151,0.036,4.266,0.171,6.345,0.405c-31.167,3.519-53.559,29.826-53.559,59.895
			C36.668,189.527,60.122,215.078,90.254,218.408z"/>
		<path class="st24" d="M143.768,158.486c0,3.816-0.351,7.551-1.035,11.169c-5.238,27.999-29.817,49.131-59.265,49.131
			c-2.268,0-4.5-0.126-6.696-0.378c26.37-2.97,47.628-22.941,52.461-48.753c0.684-3.618,1.035-7.353,1.035-11.169
			c0-0.423,0-0.855-0.018-1.278c-0.603-29.664-22.86-55.098-53.523-58.617c2.34-0.27,4.725-0.405,7.155-0.405
			c33.885,0.495,59.22,27.351,59.868,59.022C143.768,157.631,143.768,158.063,143.768,158.486z"/>
		<path id="XMLID_192_" class="st20" d="M143.768,158.485c0,3.816-0.351,7.551-1.035,11.169c-0.9,0.054-1.809,0.072-2.718,0.072
			c-31.905,0-57.78-25.866-57.78-57.789c0-4.734,0.567-9.342,1.647-13.752c33.881,0.499,59.217,27.355,59.868,59.022
			C143.768,157.63,143.768,158.062,143.768,158.485z"/>
		<path class="st21" d="M83.882,98.186c-0.126,0.522-0.243,1.044-0.36,1.566c31.399,7.203,51.28,37.66,45.873,69.003
			c3.438,0.639,6.993,0.972,10.62,0.972c0.909,0,1.818-0.018,2.718-0.072C149.579,133.444,122.481,98.75,83.882,98.186z"/>
	</g>
	<path class="st3" d="M109.04,66.717l-37.054,7.398c-3.093,0.618-5.979-1.749-5.979-4.903V21.16c0-3.155,2.886-5.521,5.98-4.903
		l37.053,7.406V66.717z"/>
	<path class="st0" d="M213.449,5.168c-6.611-0.412-12.901,0.782-18.521,3.228c-12.201,5.31-25.019,9.069-38.257,10.417l-47.631,4.85
		v43.033l49.735,5.047c12.357,1.254,24.309,4.834,35.625,9.955c5.027,2.275,10.607,3.543,16.484,3.543
		c22.653,0,40.917-18.795,40.047-41.642C250.154,23.207,233.817,6.439,213.449,5.168z"/>
	<path class="st7" d="M81.007,69.209c0,1.1,0.35,2.1,0.94,2.92l-9.96,1.99c-3.09,0.61-5.98-1.75-5.98-4.91v-48.05
		c0-3.15,2.89-5.52,5.98-4.9l9.96,1.99c-0.59,0.81-0.94,1.81-0.94,2.91V69.209z"/>
	<path class="st5" d="M210.887,85.239c-2.57,0-5.08-0.24-7.5-0.71c19.04-3.6,33.31-20.67,32.54-40.93
		c-0.71-18.71-14.53-34.38-32.54-37.8c3.23-0.62,6.6-0.84,10.06-0.63c20.37,1.27,36.71,18.04,37.48,38.43
		C251.797,66.449,233.537,85.239,210.887,85.239z"/>
	<polygon class="st4" points="124.037,22.129 124.037,68.219 109.037,66.699 109.037,23.659 	"/>
	<g>
		<path class="st8" d="M111.314,173.514c-2.209,0-4,1.791-4,4c0,5.427-4.415,9.842-9.843,9.842c-5.4,0-9.794-4.371-9.839-9.761
			c0.938-0.52,1.775-1.228,2.464-2.086l5.78-7.21c2.06-2.57,2.46-6.02,1.03-8.99c-1.43-2.98-4.37-4.82-7.66-4.82h-11.55
			c-3.3,0-6.24,1.84-7.67,4.82c-1.42,2.97-1.03,6.42,1.03,8.99l5.78,7.21c0.689,0.859,1.527,1.567,2.465,2.087
			c-0.045,5.389-4.439,9.76-9.838,9.76c-5.428,0-9.843-4.415-9.843-9.842c0-2.209-1.791-4-4-4s-4,1.791-4,4
			c0,9.838,8.004,17.842,17.843,17.842c5.678,0,10.733-2.675,14.003-6.821c10.462,13.264,31.847,5.854,31.847-11.021
			C115.314,175.305,113.523,173.514,111.314,173.514z M83.857,170.499c-0.197,0.256-0.583,0.256-0.78,0l-5.77-7.2
			c-0.263-0.307-0.059-0.81,0.39-0.81h11.55c0.414,0,0.65,0.445,0.39,0.81L83.857,170.499z"/>
		<path class="st8" d="M62.441,143.131c0.729,0.564,1.592,0.838,2.447,0.838c1.194,0,2.377-0.533,3.165-1.55
			c1.353-1.746,1.034-4.259-0.712-5.612c-11.415-8.843-22.168-3.677-26.259,0.291c-1.586,1.538-1.624,4.071-0.086,5.656
			c1.539,1.586,4.07,1.623,5.656,0.086C46.932,142.57,53.597,136.279,62.441,143.131z"/>
		<path class="st8" d="M104.83,142.84c0.279-0.271,6.944-6.562,15.788,0.291c0.729,0.564,1.592,0.838,2.447,0.838
			c3.793,0,5.466-4.827,2.453-7.162c-11.415-8.843-22.168-3.677-26.259,0.291c-1.586,1.538-1.624,4.071-0.086,5.656
			C100.712,144.34,103.244,144.377,104.83,142.84z"/>
		<path class="st8" d="M165.803,150.075c-0.47-2.159-2.605-3.526-4.759-3.058l-13.837,3.012c-0.013-0.222-0.042-0.323-0.072-0.511
			c8.021-30.131,6.645-20.612,15.062-52.317c1.666-6.303-4.085-12.062-10.4-10.396c-30.931,8.207-23.318,5.947-45.093,11.713
			c-13.648-5.339-29.567-5.875-44.147-0.849c-0.093,0-2.284,0.833-2.37,0.866c-21.748-5.761-14.051-3.504-45.052-11.732
			C8.839,85.137,3.07,90.884,4.739,97.204c4.288,16.156,6.064,21.728,7.783,27.116c1.632,5.119,3.32,10.416,7.266,25.239
			c-0.005,0.029-0.057,0.433-0.061,0.469l-13.835-3.011c-2.153-0.467-4.289,0.899-4.759,3.058c-0.47,2.159,0.898,4.289,3.058,4.759
			l14.977,3.26c0,6.441,0.748,11.288,2.061,16.539l-16.835,2.765c-4.827,0.794-4.231,7.948,0.644,7.948
			c0.538,0,18.179-2.932,18.71-3.019c2.823,6.776,6.292,12.813,11.601,18.812v18.27c0,4.97,2.88,9.57,7.34,11.72
			c7.19,3.45,15.24,5.87,23.63,7.24c0.29,9.21,7.87,16.6,17.15,16.6c9.28,0,16.86-7.39,17.15-16.6c8.39-1.37,16.44-3.79,23.63-7.24
			c4.46-2.15,7.34-6.75,7.34-11.72v-18.26c4.98-5.62,8.88-11.93,11.62-18.819c0.532,0.087,18.154,3.016,18.693,3.016
			c4.87,0,5.473-7.154,0.644-7.948l-16.827-2.764c1.809-6.782,2.196-14.463,2.042-16.538l14.988-3.262
			C164.904,154.364,166.272,152.233,165.803,150.075z M23.886,134.24c-1.635-5.74-2.7-9.081-3.742-12.35
			c-1.689-5.296-3.435-10.772-7.672-26.733c-0.102-0.381,0.25-0.722,0.614-0.62c25.833,6.856,24.761,6.425,36.263,9.421
			c-11.805,7.378-20.514,18.002-25.463,30.282C23.887,134.239,23.886,134.24,23.886,134.24z M67.917,230.569
			c-7.73-1.26-15.14-3.48-21.76-6.66c-1.71-0.82-2.81-2.58-2.81-4.5v-10.69c9.43,7.56,20.72,12.26,32.68,13.64
			C72.467,224.079,69.587,226.989,67.917,230.569z M92.487,239.389c-0.74,4.3-4.51,7.58-9.02,7.58c-5.066,0-9.16-4.125-9.16-9.15
			c0-5.057,4.139-9.16,9.16-9.16C89.117,228.659,93.474,233.795,92.487,239.389z M123.587,219.409c0,1.92-1.1,3.68-2.8,4.5
			c-6.63,3.18-14.04,5.41-21.77,6.66c-1.67-3.58-4.55-6.49-8.11-8.21c11.96-1.38,23.25-6.08,32.68-13.63V219.409z M137.796,173.333
			l-15.773-2.591c-2.177-0.358-4.237,1.118-4.596,3.299c-0.357,2.18,1.119,4.237,3.299,4.596l14.363,2.359
			c-19,43.429-83.05,46.258-103.219-0.003l14.342-2.356c2.18-0.358,3.656-2.416,3.299-4.596c-0.358-2.18-2.415-3.651-4.596-3.299
			l-15.757,2.588c0,0,0-0.001,0-0.002c-1.2-4.379-1.87-8.908-1.96-13.487l17.515,3.812c0.286,0.062,0.572,0.092,0.854,0.092
			c1.841,0,3.497-1.278,3.904-3.15c0.47-2.159-0.898-4.289-3.058-4.759l-18.836-4.1c2.292-19.324,14.695-36.015,31.79-44.138
			c0,0,0.001,0,0.001-0.001v12.288c0,2.209,1.791,4,4,4c2.209,0,4-1.791,4-4v-15.367c5.417-1.62,11.025-2.2,12.261-2.2v27.367
			c0,2.209,1.791,4,4,4s4-1.791,4-4v-27.346c5.42,0.4,11.191,1.806,11.939,2.18v15.367c0,2.209,1.791,4,4,4s4-1.791,4-4V107.59
			c17.819,8.463,29.717,25.735,31.798,44.145l-18.843,4.101c-2.159,0.47-3.527,2.601-3.058,4.759c0.407,1.872,2.063,3.15,3.904,3.15
			c0.282,0,0.568-0.03,0.854-0.092l17.522-3.814C139.634,164.995,138.933,168.784,137.796,173.333z M143.029,134.233
			c-5.444-13.065-14.505-23.375-25.492-30.285c-0.002-0.001-0.004-0.003-0.007-0.004c11.562-3.005,10.433-2.54,36.313-9.407
			c0.388-0.099,0.719,0.251,0.62,0.615C147.639,120.857,147.344,119.099,143.029,134.233z"/>
		<path class="st8" d="M254.927,43.449c-1.153-29.928-32.577-51.354-61.59-38.72c-23.604,10.266-34.141,9.801-84.08,14.9
			l-36.49-7.29c-5.499-1.12-10.76,3.091-10.76,8.82v48.05c0,5.777,5.31,9.937,10.76,8.83l36.53-7.29l49.08,4.97
			c16.451,1.67,28.812,7.411,29.812,7.661l-1.848,7.595c-8.765-2.549-17.018,2.561-19.27,10.47
			c-2.269,7.972,2.331,16.438,10.254,18.872l1.747,0.537l-5.232,21.507c-3.952,16.199,13.755,29.229,28.063,20.524
			c4.297-2.614,7.315-6.746,8.5-11.63l15.746-64.703C242.942,80.445,255.693,63.63,254.927,43.449z M105.037,63.439l-33.83,6.75
			c-0.643,0.132-1.2-0.361-1.2-0.98v-48.05c0-0.567,0.454-1.073,1.2-0.98l33.83,6.76V63.439z M183.885,98.592l0.563,0.164
			l-3.481,14.311C169.33,109.491,175.177,96.054,183.885,98.592z M202.629,149.367c-0.681,2.808-2.415,5.182-4.884,6.684
			c-8.199,4.987-18.409-2.46-16.132-11.796l14.042-57.726c1.736,0.434,8.459,3.83,21.72,2.239L202.629,149.367z M194.437,77.339
			c-21.952-9.615-31.778-9.227-81.4-14.26v-35.8c46.39-4.729,58.601-4.386,83.49-15.21c23.642-10.288,49.467,7.074,50.41,31.68
			C247.98,71.719,218.733,89.526,194.437,77.339z"/>
		<path class="st8" d="M214.397,63.999c-0.86,0-1.74-0.04-2.59-0.1c-2.21-0.15-4.12,1.51-4.28,3.71c-0.15,2.2,1.51,4.12,3.71,4.27
			c1.05,0.08,2.11,0.12,3.16,0.12c2.21,0,4-1.8,4-4C218.397,65.789,216.607,63.999,214.397,63.999z"/>
		<path class="st8" d="M198.727,60.429c-6.81-3.03-13.69-5.43-20.44-7.14c-5.146-1.293-7.075,6.462-1.97,7.75
			c6.32,1.6,12.76,3.85,19.16,6.7c2,0.906,4.384-0.008,5.28-2.03C201.657,63.689,200.747,61.329,198.727,60.429z"/>
		<path class="st8" d="M192.235,140.814c-3.268,0-5.918,2.649-5.918,5.918s2.649,5.918,5.918,5.918c3.268,0,5.918-2.649,5.918-5.918
			S195.503,140.814,192.235,140.814z"/>
		<path class="st8" d="M15.377,24.208c7.469,0,10.971,1.673,15.026,3.609c4.309,2.058,9.192,4.391,18.474,4.391c2.209,0,4-1.791,4-4
			s-1.791-4-4-4c-7.469,0-10.971-1.673-15.026-3.609c-4.309-2.058-9.192-4.391-18.474-4.391c-2.209,0-4,1.791-4,4
			S13.168,24.208,15.377,24.208z"/>
		<path class="st8" d="M15.377,45.165c7.469,0,10.971,1.673,15.026,3.609c4.309,2.058,9.192,4.391,18.474,4.391c2.209,0,4-1.791,4-4
			s-1.791-4-4-4c-7.469,0-10.971-1.673-15.026-3.609c-4.309-2.058-9.192-4.391-18.474-4.391c-2.209,0-4,1.791-4,4
			S13.168,45.165,15.377,45.165z"/>
		<path class="st8" d="M15.377,66.122c15.462,0,15.743,8,33.5,8c2.209,0,4-1.791,4-4s-1.791-4-4-4
			c-7.469,0-10.971-1.673-15.026-3.609c-4.309-2.058-9.192-4.391-18.474-4.391c-2.209,0-4,1.791-4,4S13.168,66.122,15.377,66.122z"
			/>
	</g>
</g>
</svg>
