<?xml version="1.0" encoding="utf-8"?>
<!-- Generator: Adobe Illustrator 22.1.0, SVG Export Plug-In . SVG Version: 6.00 Build 0)  -->
<svg version="1.1" id="Icon_Set" xmlns="http://www.w3.org/2000/svg" xmlns:xlink="http://www.w3.org/1999/xlink" x="0px" y="0px"
	 viewBox="0 0 256 256" style="enable-background:new 0 0 256 256;" xml:space="preserve">
<style type="text/css">
	.st0{fill:#5FCDFF;}
	.st1{fill:#87828E;}
	.st2{fill:#B76C6C;}
	.st3{fill:#FF4A73;}
	.st4{fill:#73D7F9;}
	.st5{fill:#30B6FF;}
	.st6{fill:#A4A4A5;}
	.st7{fill:#F973A3;}
	.st8{fill:#5F266D;}
	.st9{fill:#FFE2E2;}
	.st10{fill:#FFEFEE;}
	.st11{fill:#796E84;}
	.st12{fill:#3193F3;}
	.st13{fill:#35B1FC;}
	.st14{fill:#307FED;}
	.st15{fill:#FFCFCF;}
	.st16{fill:#EA2A6A;}
	.st17{fill:#44C7B6;}
	.st18{fill:#3BB2A0;}
	.st19{fill:#4BDBC3;}
	.st20{fill:#C98585;}
	.st21{fill:#965959;}
	.st22{fill:#FFBB98;}
	.st23{fill:#FFCAA6;}
	.st24{fill:#FFAA80;}
	.st25{fill:#F9D335;}
	.st26{fill:#F2C300;}
	.st27{fill:#F9E27D;}
</style>
<g>
	<g>
		<path class="st17" d="M218.98,117.645l-33.89,125.13c-1.18,4.36-5.13,7.39-9.65,7.39H81.89c-4.5,0-8.44-3-9.64-7.34l-34.63-125.18
			l90.68-97.48L218.98,117.645z"/>
		<path class="st3" d="M170.69,198.545v51.62H85.31v-51.62c0-23.58,19.11-42.69,42.69-42.69c11.79,0,22.46,4.78,30.19,12.5
			C165.91,176.085,170.69,186.755,170.69,198.545z"/>
		<path class="st2" d="M116.564,206.67c5.101-8.836,17.854-8.836,22.956,0c0.106,0.184,4.658,8.068,4.572,7.919
			c5.101,8.836-1.275,19.88-11.478,19.88c-0.212,0-9.316,0-9.144,0c-10.202,0-16.579-11.045-11.478-19.88
			C112.098,214.405,116.65,206.521,116.564,206.67z"/>
		<path class="st19" d="M96.89,250.165h-15c-4.5,0-8.44-3-9.64-7.34l-34.63-125.18l90.68-97.48l7.5,8.06l-83.18,89.42l34.63,125.18
			C88.45,247.165,92.39,250.165,96.89,250.165z"/>
		<path class="st20" d="M135.54,234.145c-0.93,0.21-1.91,0.32-2.93,0.32c-0.21,0-9.14,0-9.14,0c-10.2,0-16.58-11.04-11.48-19.88
			c0.11-0.18,4.57-7.91,4.57-7.91c4.06-7.03,12.95-8.47,18.99-4.32c-1.56,1.06-2.94,2.5-3.99,4.32c0,0-4.46,7.73-4.57,7.91
			C122.4,222.545,127.11,232.285,135.54,234.145z"/>
		<path class="st18" d="M218.98,117.645l-33.89,125.13c-1.18,4.36-5.13,7.39-9.65,7.39h-15c4.52,0,8.47-3.03,9.65-7.39l33.89-125.13
			l-83.18-89.42l7.5-8.06L218.98,117.645z"/>
		<path class="st16" d="M170.69,198.545v51.62h-15v-51.62c0-11.79-4.78-22.46-12.5-30.19c-6.05-6.04-13.91-10.29-22.69-11.84
			c2.44-0.43,4.94-0.66,7.5-0.66c11.79,0,22.46,4.78,30.19,12.5C165.91,176.085,170.69,186.755,170.69,198.545z"/>
		<path class="st7" d="M135.5,156.515c-20,3.54-35.19,21.01-35.19,42.03v51.62h-15v-51.62c0-23.58,19.11-42.69,42.69-42.69
			C130.56,155.855,133.07,156.085,135.5,156.515z"/>
		<g>
			<path class="st2" d="M234.401,149.179c-3.842,0-7.674-1.536-10.498-4.571L128.302,41.21L32.097,144.608
				c-5.392,5.796-14.462,6.124-20.259,0.732c-5.797-5.392-6.124-14.463-0.732-20.259L117.806,10.4
				c2.712-2.915,6.514-4.571,10.496-4.571s7.783,1.656,10.496,4.571L244.894,125.08c5.392,5.797,5.065,14.868-0.732,20.259
				C241.4,147.909,237.897,149.179,234.401,149.179z"/>
		</g>
		<g>
			<path class="st20" d="M26.11,125.085c-5.4,5.79-5.07,14.86,0.73,20.25c0.71,0.66,1.47,1.24,2.27,1.72
				c-5.35,3.3-12.44,2.77-17.27-1.72c-5.8-5.39-6.13-14.46-0.73-20.25l106.7-114.69c2.71-2.91,6.51-4.57,10.49-4.57
				c2.67,0,5.27,0.75,7.51,2.12c-1.1,0.67-2.11,1.49-3,2.45L26.11,125.085z"/>
		</g>
		<g>
			<path class="st21" d="M244.16,145.335c-2.76,2.57-6.26,3.84-9.76,3.84c-2.61,0-5.22-0.71-7.51-2.12c0.8-0.48,1.56-1.06,2.27-1.72
				c5.8-5.39,6.13-14.46,0.73-20.25L123.8,10.395c-0.89-0.96-1.9-1.78-2.99-2.45c2.23-1.37,4.82-2.12,7.49-2.12
				c3.98,0,7.79,1.66,10.5,4.57l106.09,114.69C250.29,130.875,249.96,139.945,244.16,145.335z"/>
		</g>
		<path class="st3" d="M147.468,90.081l-10.983,16.065c-1.123,1.643-0.702,3.886,0.941,5.009l2.418,1.653
			c6.157,4.21,14.845,2.756,18.951-3.471c3.991-6.052,2.399-14.238-3.608-18.345l-2.71-1.852
			C150.834,88.017,148.592,88.438,147.468,90.081z"/>
		<path class="st3" d="M108.532,90.081l10.983,16.065c1.123,1.643,0.702,3.886-0.941,5.009l-2.418,1.653
			c-6.157,4.21-14.845,2.756-18.951-3.471c-3.991-6.052-2.399-14.238,3.608-18.345l2.71-1.852
			C105.166,88.017,107.408,88.438,108.532,90.081z"/>
	</g>
	<g>
		<path class="st8" d="M247.83,122.364L141.726,7.675c-7.243-7.784-19.604-7.789-26.848,0L8.178,122.356
			c-3.336,3.586-5.075,8.256-4.899,13.15c0.585,16.2,20.618,23.792,31.748,11.827l5.127-5.51l28.241,102.069
			c1.673,6.049,7.223,10.273,13.495,10.273c8.891,0,82.983,0,93.551,0c6.307,0,11.862-4.254,13.511-10.344l27.47-101.412
			l4.552,4.924c11.127,11.96,31.162,4.402,31.748-11.827C252.897,130.612,251.158,125.941,247.83,122.364z M166.69,246.165H89.31
			v-47.62c0-34.47,41.823-51.556,66.051-27.363c7.307,7.316,11.33,17.034,11.33,27.363V246.165z M181.229,241.731
			c-0.706,2.611-3.087,4.435-5.788,4.435h-0.75v-47.62c0-25.665-20.741-46.69-46.69-46.69c-25.745,0-46.69,20.945-46.69,46.69
			v47.572c-2.443-0.241-4.54-1.953-5.204-4.358L46.552,134.946l81.741-87.853l81.717,88.383L181.229,241.731z M226.839,141.893
			L131.238,38.495c-1.578-1.709-4.28-1.713-5.865-0.009L29.169,141.884c-3.879,4.17-10.434,4.41-14.606,0.527
			c-4.182-3.89-4.42-10.424-0.527-14.606l106.7-114.682c4.103-4.412,11.076-4.36,15.125-0.008l106.104,114.689
			c1.881,2.021,2.861,4.654,2.762,7.413C244.394,144.433,233.056,148.572,226.839,141.893z"/>
		<path class="st8" d="M142.983,204.67c-6.642-11.503-23.237-11.512-29.884,0c0,0,0,0,0,0l-4.571,7.918
			c-6.643,11.503,1.651,25.88,14.941,25.88h9.144c13.278,0,21.588-14.369,14.942-25.88L142.983,204.67z M132.613,230.469h-9.144
			c-7.122,0-11.579-7.707-8.014-13.88l4.571-7.918c3.561-6.168,12.463-6.175,16.028,0l4.571,7.918
			C144.188,222.757,139.742,230.469,132.613,230.469z"/>
		<path class="st8" d="M110.175,197.602c-2.001-5.497-6.626-8.861-10.331-7.512c-3.705,1.348-5.086,6.898-3.085,12.395
			c2.001,5.497,6.626,8.861,10.331,7.512C110.794,208.649,112.175,203.099,110.175,197.602z"/>
		<g>
			<path class="st8" d="M121.514,195.2c3.705-1.348,5.086-6.898,3.085-12.395c-2.001-5.497-6.626-8.861-10.331-7.512
				s-5.086,6.898-3.085,12.395S117.809,196.549,121.514,195.2z"/>
			<path class="st8" d="M134.486,195.2c3.705,1.348,8.33-2.015,10.331-7.512c2.001-5.497,0.62-11.047-3.085-12.395
				c-3.705-1.348-8.33,2.015-10.331,7.512S130.782,193.852,134.486,195.2z"/>
		</g>
		
			<ellipse transform="matrix(0.342 -0.9397 0.9397 0.342 -87.6155 274.9596)" class="st8" cx="152.533" cy="200.044" rx="10.593" ry="7.138"/>
		<path class="st8" d="M111.834,87.826C111.834,87.825,111.834,87.825,111.834,87.826c-2.366-3.461-7.107-4.353-10.569-1.986
			l-2.71,1.853c-17.848,12.203-1.414,42.962,21.865,27.049l2.779,4.186l-14.295,21.528c-1.776,2.673,0.174,6.213,3.328,6.213
			c2.9,0,2.538-0.585,15.769-20.511c13.323,20.064,12.903,20.511,15.769,20.511c3.154,0,5.104-3.54,3.328-6.213l-14.295-21.528
			l2.779-4.186c2.078,1.421,7.384,5.727,15.523,4.127c15.175-2.982,18.771-22.678,6.342-31.176l-2.71-1.853
			c-3.463-2.366-8.202-1.475-10.569,1.986c0,0,0,0,0,0c-14.108,20.636-9.262,13.472-16.166,23.87
			C120.723,100.736,125.355,107.603,111.834,87.826z M113.897,109.508c-4.297,2.939-10.47,2.001-13.354-2.371
			c-2.785-4.224-1.652-9.985,2.526-12.841l2.383-1.629l10.536,15.411L113.897,109.508z M150.547,92.667l2.383,1.629
			c6.631,4.532,4.853,15.104-3.369,16.722c-4.63,0.904-7.42-1.484-9.55-2.94L150.547,92.667z"/>
		<path class="st8" d="M190.451,161.063c1.73,0,3.325-1.132,3.837-2.876l4.218-14.395c0.621-2.12-0.594-4.342-2.714-4.963
			c-2.118-0.621-4.342,0.593-4.964,2.714l-4.218,14.395C185.862,158.493,187.778,161.063,190.451,161.063z"/>
		<path class="st8" d="M185.002,179.663c1.729,0,3.325-1.132,3.837-2.876l1.232-4.205c0.621-2.12-0.594-4.342-2.714-4.963
			c-2.119-0.622-4.342,0.593-4.964,2.713l-1.232,4.205C180.413,177.092,182.328,179.663,185.002,179.663z"/>
	</g>
</g>
</svg>
