<?xml version="1.0" encoding="utf-8"?>
<!-- Generator: Adobe Illustrator 22.1.0, SVG Export Plug-In . SVG Version: 6.00 Build 0)  -->
<svg version="1.1" id="Icon_Set" xmlns="http://www.w3.org/2000/svg" xmlns:xlink="http://www.w3.org/1999/xlink" x="0px" y="0px"
	 viewBox="0 0 256 256" style="enable-background:new 0 0 256 256;" xml:space="preserve">
<style type="text/css">
	.st0{fill:#5FCDFF;}
	.st1{fill:#87828E;}
	.st2{fill:#B76C6C;}
	.st3{fill:#FF4A73;}
	.st4{fill:#73D7F9;}
	.st5{fill:#30B6FF;}
	.st6{fill:#A4A4A5;}
	.st7{fill:#F973A3;}
	.st8{fill:#5F266D;}
	.st9{fill:#FFE2E2;}
	.st10{fill:#FFEFEE;}
	.st11{fill:#796E84;}
	.st12{fill:#3193F3;}
	.st13{fill:#35B1FC;}
	.st14{fill:#307FED;}
	.st15{fill:#FFCFCF;}
	.st16{fill:#EA2A6A;}
	.st17{fill:#44C7B6;}
	.st18{fill:#3BB2A0;}
	.st19{fill:#4BDBC3;}
	.st20{fill:#C98585;}
	.st21{fill:#965959;}
	.st22{fill:#FFBB98;}
	.st23{fill:#FFCAA6;}
	.st24{fill:#FFAA80;}
	.st25{fill:#F9D335;}
	.st26{fill:#F2C300;}
	.st27{fill:#F9E27D;}
</style>
<g>
	<path class="st17" d="M249.166,210.881H6.833V32.13c0-5.523,4.477-10,10-10h222.333c5.523,0,10,4.477,10,10V210.881z"/>
	<path class="st1" d="M239.166,233.87H16.833c-5.523,0-10-4.477-10-10v-12.988h242.333v12.988
		C249.166,229.392,244.689,233.87,239.166,233.87z"/>
	<path class="st18" d="M178.416,210.881H79.25v-89.667c0-5.523,4.477-10,10-10h79.167c5.523,0,10,4.477,10,10V210.881z"/>
	<path class="st19" d="M31.83,22.13c-5.52,0-10,4.48-10,10v178.75h-15V32.13c0-5.52,4.48-10,10-10H31.83z"/>
	<path class="st6" d="M31.83,233.87h-15c-5.52,0-10-4.48-10-10v-12.99h15v12.99C21.83,229.39,26.31,233.87,31.83,233.87z"/>
	<path class="st18" d="M249.17,32.13v178.75h-15V32.13c0-5.52-4.48-10-10-10h15C244.69,22.13,249.17,26.61,249.17,32.13z"/>
	<path class="st11" d="M249.17,210.88v12.99c0,5.52-4.48,10-10,10h-15c5.52,0,10-4.48,10-10v-12.99H249.17z"/>
	<path class="st6" d="M181.5,152.881h-6c-2.761,0-5-2.239-5-5v-8.167c0-2.761,2.239-5,5-5h6c2.761,0,5,2.239,5,5v8.167
		C186.5,150.643,184.261,152.881,181.5,152.881z"/>
	<path class="st6" d="M181.5,190.965h-6c-2.761,0-5-2.239-5-5v-8.167c0-2.761,2.239-5,5-5h6c2.761,0,5,2.239,5,5v8.167
		C186.5,188.726,184.261,190.965,181.5,190.965z"/>
	<path class="st8" d="M239.167,18.13H16.833c-7.72,0-14,6.28-14,14v178.751v12.988c0,7.72,6.28,14,14,14h222.333
		c7.72,0,14-6.28,14-14v-12.988V32.13C253.167,24.411,246.886,18.13,239.167,18.13z M206.083,26.13h15.667v180.751h-15.667V26.13z
		 M182.42,121.21V26.13h15.663v180.751H182.42v-11.964c4.532-0.462,8.08-4.301,8.08-8.953v-8.167c0-4.652-3.548-8.491-8.08-8.953
		v-12.01c4.532-0.462,8.08-4.301,8.08-8.953v-8.167c0-4.652-3.548-8.491-8.08-8.953V121.21z M174.5,139.714c0-0.551,0.448-1,1-1h6
		c0.552,0,1,0.449,1,1v8.167c0,0.551-0.448,1-1,1h-3.066c-0.005,0-0.01-0.001-0.015-0.001s-0.01,0.001-0.015,0.001H175.5
		c-0.552,0-1-0.449-1-1V139.714z M174.5,177.798c0-0.551,0.448-1,1-1h2.901c0.007,0,0.013,0.002,0.019,0.002
		s0.013-0.002,0.019-0.002h3.061c0.552,0,1,0.449,1,1v8.167c0,0.551-0.448,1-1,1h-3.036c-0.015,0-0.029-0.004-0.044-0.004
		s-0.029,0.004-0.044,0.004H175.5c-0.552,0-1-0.449-1-1V177.798z M157.083,26.13h17.337v82.45c-1.822-0.869-3.851-1.37-6-1.37
		h-11.337V26.13z M157.083,115.21h11.337c3.309,0,6,2.691,6,6v9.576c-4.454,0.536-7.92,4.333-7.92,8.929v8.167
		c0,4.596,3.465,8.393,7.92,8.929v12.059c-4.454,0.536-7.92,4.333-7.92,8.929v8.167c0,4.596,3.465,8.393,7.92,8.929v11.987h-17.337
		V115.21z M133.417,26.13h15.666v81.08h-15.666V26.13z M133.417,115.21h15.666v91.67h-15.666V115.21z M108.083,26.13h17.333v81.08
		h-17.333V26.13z M108.083,115.21h17.333v91.67h-17.333V115.21z M83.25,26.13h16.833v81.08H89.25c-2.149,0-4.178,0.501-6,1.37V26.13
		z M83.25,121.21c0-3.309,2.691-6,6-6h10.833v25.338H83.25V121.21z M83.25,148.548h4.417v18.333c0,2.209,1.791,4,4,4s4-1.791,4-4
		v-18.333h4.417v58.332H83.25V148.548z M59.583,26.13H75.25v95.08v85.671H59.583V26.13z M34.25,26.13h17.333v180.751H34.25V26.13z
		 M10.833,32.13c0-3.309,2.691-6,6-6h9.417v180.751H10.833V32.13z M245.167,223.87c0,3.309-2.691,6-6,6H16.833c-3.309,0-6-2.691-6-6
		v-8.988h234.333V223.87z M245.167,206.881H229.75V26.13h9.417c3.309,0,6,2.691,6,6V206.881z"/>
</g>
</svg>
