<?xml version="1.0" encoding="utf-8"?>
<!-- Generator: Adobe Illustrator 22.1.0, SVG Export Plug-In . SVG Version: 6.00 Build 0)  -->
<svg version="1.1" id="Icon_Set" xmlns="http://www.w3.org/2000/svg" xmlns:xlink="http://www.w3.org/1999/xlink" x="0px" y="0px"
	 viewBox="0 0 256 256" style="enable-background:new 0 0 256 256;" xml:space="preserve">
<style type="text/css">
	.st0{fill:#5FCDFF;}
	.st1{fill:#87828E;}
	.st2{fill:#B76C6C;}
	.st3{fill:#FF4A73;}
	.st4{fill:#73D7F9;}
	.st5{fill:#30B6FF;}
	.st6{fill:#A4A4A5;}
	.st7{fill:#F973A3;}
	.st8{fill:#5F266D;}
	.st9{fill:#FFE2E2;}
	.st10{fill:#FFEFEE;}
	.st11{fill:#796E84;}
	.st12{fill:#3193F3;}
	.st13{fill:#35B1FC;}
	.st14{fill:#307FED;}
	.st15{fill:#FFCFCF;}
	.st16{fill:#EA2A6A;}
	.st17{fill:#44C7B6;}
	.st18{fill:#3BB2A0;}
	.st19{fill:#4BDBC3;}
	.st20{fill:#C98585;}
	.st21{fill:#965959;}
	.st22{fill:#FFBB98;}
	.st23{fill:#FFCAA6;}
	.st24{fill:#FFAA80;}
	.st25{fill:#F9D335;}
	.st26{fill:#F2C300;}
	.st27{fill:#F9E27D;}
</style>
<g>
	<g>
		<path class="st9" d="M82.675,72.398H58.497V32.621c0-2.761,2.239-5,5-5h14.179c2.761,0,5,2.239,5,5V72.398z"/>
		<path class="st10" d="M78.082,27.64c-2.57,0.21-4.59,2.36-4.59,4.98V72.4h-15V32.62c0-2.76,2.24-5,5-5h14.18
			C77.812,27.62,77.952,27.63,78.082,27.64z"/>
		<path class="st9" d="M100.826,97.684h-60.48V74.383c0-5.523,4.477-10,10-10h40.48c5.523,0,10,4.477,10,10V97.684z"/>
		<path class="st15" d="M100.822,74.38v23.3h-15v-23.3c0-5.52-4.47-10-10-10h15C96.352,64.38,100.822,68.86,100.822,74.38z"/>
		<path class="st10" d="M65.342,64.38c-5.52,0-10,4.48-10,10v23.3h-15v-23.3c0-5.52,4.48-10,10-10H65.342z"/>
		<path class="st9" d="M115.958,242.042H25.282c-11.046,0-20-8.954-20-20v-80.073c0-27.614,22.386-50,50-50h30.676
			c27.614,0,50,22.386,50,50v80.073C135.958,233.088,127.004,242.042,115.958,242.042z"/>
		<circle id="XMLID_185_" class="st0" cx="179.445" cy="39.716" r="25.755"/>
		<circle id="XMLID_179_" class="st0" cx="151.193" cy="97.684" r="13.895"/>
		<circle id="XMLID_170_" class="st0" cx="212.58" cy="159.359" r="13.895"/>
		<circle id="XMLID_169_" class="st0" cx="236.369" cy="125.58" r="13.895"/>
		<circle id="XMLID_168_" class="st0" cx="193.2" cy="97.684" r="13.895"/>
		<circle id="XMLID_167_" class="st0" cx="165.088" cy="157.06" r="13.895"/>
		<circle id="XMLID_134_" class="st0" cx="233.954" cy="65.471" r="13.895"/>
		<path class="st4" d="M250.752,221.64c0,10.8-8.75,19.56-19.55,19.56h-68.39c-7.78,0-14.36-5.15-16.5-12.23
			c-0.48-1.59-0.74-3.27-0.74-5.01c0-9.52,7.72-17.24,17.24-17.24c4.46,0,8.52,1.71,11.58,4.49c-0.11-0.91-0.18-1.84-0.18-2.79
			c0-12.59,10.21-22.79,22.79-22.79c4.56,0,8.81,1.34,12.37,3.65c5.6,3.62,9.5,9.63,10.28,16.59c3.23-2.38,7.23-3.78,11.55-3.78
			C242.002,202.09,250.752,210.84,250.752,221.64z"/>
		<path class="st10" d="M40.282,242.038h-15c-11.05,0-20-8.96-20-20v-80.08c0-27.61,22.38-50,50-50h15c-27.62,0-50,22.39-50,50
			v80.08C20.282,233.078,29.232,242.038,40.282,242.038z"/>
		<path class="st15" d="M135.922,141.96v80.08c0,11.04-8.95,20-20,20h-15c11.05,0,20-8.96,20-20v-80.08c0-27.61-22.38-50-50-50h15
			C113.542,91.96,135.922,114.35,135.922,141.96z"/>
		<path class="st17" d="M135.962,176.21v45.83c0,9.32-6.38,17.15-15,19.37c-1.6,0.41-3.28,0.63-5,0.63h-90.68
			c-1.72,0-3.4-0.22-5-0.63c-8.63-2.22-15-10.05-15-19.37v-67.35c5.6-2.68,10.58-4.44,15-5.48c9.7-2.31,16.76-1.18,22,1.08
			c7.09,3.06,9.56,7.65,14.15,13.1c2.84,3.36,6.49,7.04,12.52,10.9c3.92,2.51,27.05,17.3,52.01,9.57c0.88-0.27,1.76-0.57,2.65-0.9
			C128.332,181.19,132.432,178.84,135.962,176.21z"/>
		<path class="st19" d="M20.282,149.228v92.2c-8.63-2.22-15-10.05-15-19.37v-67.35C10.882,152.028,15.862,150.268,20.282,149.228z"
			/>
		<path class="st18" d="M135.962,176.21v45.83c0,9.32-6.38,17.15-15,19.37v-57.55c0.88-0.27,1.76-0.57,2.65-0.9
			C128.332,181.19,132.432,178.84,135.962,176.21z"/>
		<circle class="st9" cx="70.586" cy="166.163" r="36.417"/>
		<path class="st15" d="M107.002,166.16c0,20.12-16.3,36.42-36.42,36.42c-2.57,0-5.08-0.27-7.5-0.77
			c16.52-3.46,28.92-18.1,28.92-35.65c0-17.54-12.4-32.18-28.92-35.64c2.42-0.5,4.93-0.77,7.5-0.77
			C90.702,129.75,107.002,146.05,107.002,166.16z"/>
		<path class="st10" d="M78.082,201.81c-2.42,0.5-4.93,0.77-7.5,0.77c-20.11,0-36.41-16.3-36.41-36.42
			c0-20.11,16.3-36.41,36.41-36.41c2.57,0,5.08,0.27,7.5,0.77c-16.51,3.46-28.91,18.1-28.91,35.64
			C49.172,183.71,61.572,198.35,78.082,201.81z"/>
		<path class="st4" d="M186.942,64.36c-2.37,0.72-4.89,1.11-7.5,1.11c-14.22,0-25.75-11.53-25.75-25.75
			c0-14.23,11.53-25.76,25.75-25.76c2.61,0,5.13,0.39,7.5,1.11c-10.56,3.21-18.25,13.03-18.25,24.65
			C168.692,51.33,176.382,61.15,186.942,64.36z"/>
		<path class="st4" d="M241.452,77.17c-2.16,1.39-4.74,2.2-7.5,2.2c-7.67,0-13.89-6.23-13.89-13.9c0-7.67,6.22-13.89,13.89-13.89
			c2.76,0,5.34,0.81,7.5,2.2c-3.84,2.47-6.39,6.78-6.39,11.69C235.062,70.38,237.612,74.7,241.452,77.17z"/>
		<path class="st4" d="M158.692,109.38c-2.16,1.39-4.74,2.2-7.5,2.2c-7.67,0-13.89-6.22-13.89-13.9c0-7.67,6.22-13.89,13.89-13.89
			c2.76,0,5.34,0.8,7.5,2.2c-3.84,2.47-6.39,6.78-6.39,11.69C152.302,102.59,154.852,106.91,158.692,109.38z"/>
		<path class="st4" d="M200.702,109.38c-2.16,1.39-4.73,2.2-7.5,2.2c-7.68,0-13.9-6.22-13.9-13.9c0-7.67,6.22-13.89,13.9-13.89
			c2.77,0,5.34,0.8,7.5,2.2c-3.85,2.46-6.4,6.78-6.4,11.69C194.302,102.6,196.852,106.92,200.702,109.38z"/>
		<path class="st4" d="M172.592,168.75c-2.16,1.4-4.74,2.2-7.5,2.2c-7.68,0-13.9-6.22-13.9-13.89s6.22-13.89,13.9-13.89
			c2.76,0,5.34,0.8,7.5,2.2c-3.85,2.47-6.4,6.78-6.4,11.69C166.192,161.97,168.742,166.28,172.592,168.75z"/>
		<path class="st0" d="M220.082,171.05c-2.16,1.4-4.73,2.2-7.5,2.2c-7.68,0-13.9-6.22-13.9-13.89c0-7.67,6.22-13.9,13.9-13.9
			c2.77,0,5.34,0.81,7.5,2.2c-3.85,2.47-6.4,6.79-6.4,11.7C213.682,164.27,216.232,168.59,220.082,171.05z"/>
		<path class="st0" d="M250.752,221.64c0,10.8-8.75,19.56-19.55,19.56h-68.39c-7.78,0-14.36-5.15-16.5-12.23
			c4.88-5,11.69-8.11,19.23-8.11c6.96,0,13.28,2.67,18.05,7.01c-0.17-1.43-0.27-2.88-0.27-4.36c0-16.33,11.03-30.09,26.05-34.23
			c5.6,3.62,9.5,9.63,10.28,16.59c3.23-2.38,7.23-3.78,11.55-3.78C242.002,202.09,250.752,210.84,250.752,221.64z"/>
		<path class="st4" d="M243.872,137.27c-2.16,1.4-4.74,2.2-7.5,2.2c-7.68,0-13.9-6.22-13.9-13.89c0-7.67,6.22-13.89,13.9-13.89
			c2.76,0,5.34,0.8,7.5,2.2c-3.85,2.47-6.4,6.78-6.4,11.69C237.472,130.49,240.022,134.8,243.872,137.27z"/>
		<path class="st2" d="M62.542,168.703c3.587-6.213,12.555-6.213,16.142,0l1.607,2.784l1.607,2.784
			c3.587,6.213-0.897,13.979-8.071,13.979h-3.215h-3.215c-7.174,0-11.658-7.766-8.071-13.979l1.607-2.784L62.542,168.703z"/>
		<path class="st20" d="M78.119,187.224c-1.26,0.65-2.71,1.03-4.29,1.03h-6.43c-7.18,0-11.66-7.77-8.07-13.98l1.6-2.79l1.61-2.78
			c3.42-5.91,11.7-6.2,15.57-0.86c-0.21,0.27-0.4,0.56-0.57,0.86l-1.61,2.78l-1.6,2.79
			C71.529,179.124,73.639,184.914,78.119,187.224z"/>
	</g>
	<g>
		<path class="st8" d="M139.92,142.38c0-23.13-14.61-42.91-35.1-50.59V74.8c0-7.72-6.28-14-14-14h-4.15V39.346h33.685l13.439,13.439
			c3.738,3.736,9.399-1.914,5.657-5.657L124.84,32.518c-0.757-0.757-1.825-1.171-2.829-1.171H86.509
			c-0.792-4.158-4.45-7.306-8.839-7.306H63.49c-4.96,0-9,4.04-9,9V60.8h-4.15c-7.72,0-14,6.28-14,14v17
			c-20.48,7.68-35.09,27.46-35.09,50.58v80.08c0,13.375,10.902,24,24.03,24h90.68c13.11,0,24-10.68,24-24
			C139.96,209.087,139.92,155.749,139.92,142.38z M9.28,222.46v-64.8c8.9-3.98,16.75-5.71,23.44-5.19
			c-1.65,4.39-2.55,9.15-2.55,14.11c0,22.29,18.13,40.42,40.41,40.42c13.38,0,25.27-6.54,32.63-16.59
			c10.074,0.524,19.732-1.578,28.71-6.45v38.5c0,8.896-7.288,16-15.96,16H25.28C16.514,238.46,9.28,231.356,9.28,222.46z
			 M9.25,142.38c0-21.233,14.454-38.965,33.53-44.28c3.96-1.12,8.15-1.72,12.47-1.72h30.67c4.32,0,8.5,0.6,12.47,1.72
			c19.097,5.347,33.53,23.049,33.53,44.28v32.21c-7.168,4.881-15.332,7.569-24.17,7.87c2.09-4.88,3.25-10.25,3.25-15.88
			c0-22.28-18.13-40.41-40.42-40.41c-14.3,0-26.89,7.47-34.08,18.71c-7.95-1.35-17.07,0.03-27.25,4.11V142.38z M44.34,74.8
			c0-3.31,2.7-6,6-6c5.296,0,34.718,0,40.48,0c3.31,0,6,2.69,6,6v14.69c-3.52-0.73-7.17-1.11-10.9-1.11H55.25
			c-3.74,0-7.39,0.38-10.91,1.11V74.8z M62.49,33.04c0-0.55,0.45-1,1-1h14.18c0.55,0,1,0.45,1,1V60.8H62.49V33.04z M70.58,199
			c-17.87,0-32.41-14.54-32.41-32.42c0-17.92,14.565-32.41,32.41-32.41c17.88,0,32.42,14.54,32.42,32.41
			C103,184.329,88.623,199,70.58,199z"/>
		<path class="st8" d="M179.44,69.89c16.41,0,29.76-13.35,29.76-29.75c0-16.41-13.35-29.76-29.76-29.76
			c-16.4,0-29.75,13.35-29.75,29.76C149.69,56.54,163.04,69.89,179.44,69.89z M179.44,18.38c12,0,21.76,9.76,21.76,21.76
			c0,11.99-9.76,21.75-21.76,21.75c-11.99,0-21.75-9.76-21.75-21.75C157.69,28.14,167.45,18.38,179.44,18.38z"/>
		<path class="st8" d="M185.99,47.36c-3.925,3.542,1.461,9.479,5.37,5.93c0.66-0.6,1.29-1.26,1.85-1.95
			c3.08-3.784-1.953-8.515-5.445-5.796C187.231,45.96,186.529,46.866,185.99,47.36z"/>
		<path class="st8" d="M179.44,30.38c3.777,0,7.377,2.225,8.96,5.89c2.107,4.821,9.449,1.684,7.34-3.18
			c-2.82-6.51-9.22-10.71-16.3-10.71C174.155,22.38,174.147,30.38,179.44,30.38z"/>
		<path class="st8" d="M169.09,98.1c0-9.86-8.03-17.89-17.9-17.89S133.3,88.24,133.3,98.1c0,9.87,8.02,17.9,17.89,17.9
			S169.09,107.97,169.09,98.1z M151.19,108c-5.46,0-9.89-4.44-9.89-9.9c0-5.45,4.43-9.89,9.89-9.89s9.9,4.44,9.9,9.89
			C161.09,103.56,156.65,108,151.19,108z"/>
		<path class="st8" d="M194.68,159.78c0,9.87,8.03,17.89,17.9,17.89s17.89-8.02,17.89-17.89s-8.02-17.9-17.89-17.9
			S194.68,149.91,194.68,159.78z M212.58,149.88c5.45,0,9.89,4.44,9.89,9.9c0,5.46-4.44,9.89-9.89,9.89c-5.46,0-9.9-4.43-9.9-9.89
			C202.68,154.32,207.12,149.88,212.58,149.88z"/>
		<path class="st8" d="M236.37,108.11c-9.87,0-17.9,8.02-17.9,17.89s8.03,17.89,17.9,17.89c9.86,0,17.89-8.02,17.89-17.89
			S246.23,108.11,236.37,108.11z M236.37,135.89c-5.46,0-9.9-4.43-9.9-9.89c0-5.46,4.44-9.89,9.9-9.89c5.45,0,9.89,4.43,9.89,9.89
			C246.26,131.46,241.82,135.89,236.37,135.89z"/>
		<path class="st8" d="M193.2,80.21c-9.87,0-17.9,8.03-17.9,17.89c0,9.87,8.03,17.9,17.9,17.9s17.89-8.03,17.89-17.9
			C211.09,88.24,203.07,80.21,193.2,80.21z M193.2,108c-5.46,0-9.9-4.44-9.9-9.9c0-5.45,4.44-9.89,9.9-9.89
			c5.45,0,9.89,4.44,9.89,9.89C203.09,103.56,198.65,108,193.2,108z"/>
		<path class="st8" d="M165.09,175.37c9.86,0,17.89-8.02,17.89-17.89s-8.03-17.89-17.89-17.89c-9.87,0-17.9,8.02-17.9,17.89
			S155.22,175.37,165.09,175.37z M165.09,147.59c5.45,0,9.89,4.43,9.89,9.89s-4.44,9.89-9.89,9.89c-5.46,0-9.9-4.43-9.9-9.89
			S159.63,147.59,165.09,147.59z"/>
		<path class="st8" d="M233.95,83.79c9.87,0,17.9-8.03,17.9-17.9c0-9.87-8.03-17.89-17.9-17.89s-17.89,8.02-17.89,17.89
			C216.06,75.76,224.08,83.79,233.95,83.79z M233.95,56c5.46,0,9.9,4.43,9.9,9.89c0,5.46-4.44,9.9-9.9,9.9
			c-5.45,0-9.89-4.44-9.89-9.9C224.06,60.43,228.5,56,233.95,56z"/>
		<path class="st8" d="M222.37,200.21c-8.905-26.369-47.456-23.055-51.82,4.4c-13.83-5.475-28.98,4.815-28.98,19.77
			c0,11.71,9.53,21.24,21.24,21.24h68.39c12.99,0,23.55-10.57,23.55-23.56C254.75,205.4,237.837,193.979,222.37,200.21z
			 M231.2,237.62h-68.39c-7.3,0-13.24-5.94-13.24-13.24c0-11.442,13.62-17.501,22.13-9.79c2.751,2.507,7.101,0.221,6.66-3.44
			c-3.089-25.024,34.564-29.054,37.31-4.42c0.347,3.077,3.874,4.581,6.34,2.78c10.217-7.472,24.74-0.184,24.74,12.55
			C246.75,230.64,239.78,237.62,231.2,237.62z"/>
		<path class="st8" d="M82.15,167.13c-4.795-8.297-17.145-9.484-23.07,0c-2.315,4.007-1.594,2.758-3.22,5.57
			c-5.121,8.898,1.282,19.98,11.54,19.98h6.43c10.271,0,16.653-11.104,11.53-19.98L82.15,167.13z M78.43,176.7
			c2.075,3.557-0.509,7.98-4.6,7.98H67.4c-4.109,0-6.649-4.434-4.61-7.98c1.203-2.105,1.429-2.464,3.22-5.57
			c2.087-3.604,7.183-3.501,9.21,0C77.87,175.735,77.17,174.521,78.43,176.7z"/>
		<g>
			<path class="st8" d="M66.292,158.7c2.61-0.95,3.58-4.85,2.17-8.72c-1.41-3.86-4.66-6.23-7.26-5.28
				c-2.61,0.95-3.58,4.85-2.17,8.71C60.432,157.28,63.692,159.65,66.292,158.7z"/>
			<path class="st8" d="M75.412,158.7c2.61,0.95,5.86-1.42,7.27-5.29c1.4-3.86,0.43-7.76-2.17-8.71c-2.61-0.95-5.86,1.42-7.27,5.28
				C71.842,153.85,72.812,157.75,75.412,158.7z"/>
		</g>
		<g>
			<path class="st8" d="M56.078,169.12c0.02,0,0.05-0.01,0.07-0.02c2.727-0.982,3.521-5.022,2.17-8.71
				c-1.41-3.87-4.66-6.23-7.26-5.29c-2.71,1.017-3.528,4.991-2.17,8.72C50.278,167.66,53.488,170.01,56.078,169.12z"/>
			<path class="st8" d="M90.648,155.1c-2.6-0.94-5.85,1.42-7.26,5.29c-1.41,3.86-0.44,7.76,2.17,8.71c2.6,0.95,5.85-1.41,7.26-5.28
				C94.228,159.95,93.258,156.05,90.648,155.1z"/>
		</g>
	</g>
</g>
</svg>
