<?xml version="1.0" encoding="utf-8"?>
<!-- Generator: Adobe Illustrator 22.1.0, SVG Export Plug-In . SVG Version: 6.00 Build 0)  -->
<svg version="1.1" id="Icon_Set" xmlns="http://www.w3.org/2000/svg" xmlns:xlink="http://www.w3.org/1999/xlink" x="0px" y="0px"
	 viewBox="0 0 256 256" style="enable-background:new 0 0 256 256;" xml:space="preserve">
<style type="text/css">
	.st0{fill:#5FCDFF;}
	.st1{fill:#87828E;}
	.st2{fill:#B76C6C;}
	.st3{fill:#FF4A73;}
	.st4{fill:#73D7F9;}
	.st5{fill:#30B6FF;}
	.st6{fill:#A4A4A5;}
	.st7{fill:#F973A3;}
	.st8{fill:#5F266D;}
	.st9{fill:#FFE2E2;}
	.st10{fill:#FFEFEE;}
	.st11{fill:#796E84;}
	.st12{fill:#3193F3;}
	.st13{fill:#35B1FC;}
	.st14{fill:#307FED;}
	.st15{fill:#FFCFCF;}
	.st16{fill:#EA2A6A;}
	.st17{fill:#44C7B6;}
	.st18{fill:#3BB2A0;}
	.st19{fill:#4BDBC3;}
	.st20{fill:#C98585;}
	.st21{fill:#965959;}
	.st22{fill:#FFBB98;}
	.st23{fill:#FFCAA6;}
	.st24{fill:#FFAA80;}
	.st25{fill:#F9D335;}
	.st26{fill:#F2C300;}
	.st27{fill:#F9E27D;}
</style>
<g>
	<path class="st9" d="M141.299,113.095H64.678V43.163c0-5.523,4.477-10,10-10h56.621c5.523,0,10,4.477,10,10V113.095z"/>
	<path class="st0" d="M103.694,236.833L103.694,236.833c-15.114,0-27.77-11.452-29.276-26.491l-9.74-97.247h76.621l-8.289,96.825
		C131.707,225.141,118.971,236.833,103.694,236.833z"/>
	<path class="st12" d="M111.74,63.38v19.5c0,4.83-3.92,8.75-8.75,8.75s-8.75-3.92-8.75-8.75v-19.5c0-4.83,3.92-8.75,8.75-8.75
		c2.41,0,4.6,0.98,6.19,2.56C110.76,58.78,111.74,60.96,111.74,63.38z"/>
	<path class="st3" d="M111.74,73.13v9.75c0,4.83-3.92,8.75-8.75,8.75s-8.75-3.92-8.75-8.75v-9.75H111.74z"/>
	<g>
		<path class="st2" d="M95.043,196.593c3.544-6.139,12.404-6.139,15.949,0l1.588,2.751l1.588,2.751
			c3.544,6.139-0.886,13.812-7.974,13.812h-3.176h-3.176c-7.088,0-11.518-7.673-7.974-13.812l1.588-2.751L95.043,196.593z"/>
	</g>
	<path class="st10" d="M89.68,33.16c-5.52,0-10,4.48-10,10v69.93h-15V43.16c0-5.52,4.48-10,10-10H89.68z"/>
	<path class="st4" d="M111.2,235.86c-2.4,0.63-4.92,0.97-7.51,0.97c-15.11,0-27.77-11.45-29.27-26.49l-9.74-97.25h15l9.74,97.25
		C90.66,222.81,99.58,232.81,111.2,235.86z"/>
	<path class="st15" d="M141.3,43.16v69.93h-15V43.16c0-5.52-4.48-10-10-10h15C136.82,33.16,141.3,37.64,141.3,43.16z"/>
	<path class="st5" d="M141.3,113.09l-8.29,96.83c-1.3,15.22-14.04,26.91-29.32,26.91c-2.58,0-5.1-0.33-7.49-0.97
		c11.76-3.1,20.73-13.3,21.81-25.94l8.29-96.83H141.3z"/>
	<g>
		<path class="st8" d="M102.989,50.629c-7.03,0-12.75,5.72-12.75,12.75v19.5c0,7.03,5.72,12.75,12.75,12.75s12.75-5.72,12.75-12.75
			v-19.5C115.739,56.349,110.019,50.629,102.989,50.629z M107.739,82.879c0,2.619-2.131,4.75-4.75,4.75s-4.75-2.131-4.75-4.75v-5.75
			h9.5V82.879z M107.739,69.129h-9.5v-5.75c0-2.619,2.131-4.75,4.75-4.75s4.75,2.131,4.75,4.75V69.129z"/>
		<g>
			<path class="st8" d="M98.748,182.864c2.574-0.937,3.534-4.792,2.143-8.612c-1.39-3.819-4.604-6.156-7.177-5.219
				c-2.574,0.937-3.534,4.792-2.143,8.612C92.961,181.464,96.174,183.801,98.748,182.864z"/>
			
				<ellipse transform="matrix(0.342 -0.9397 0.9397 0.342 -92.7772 219.3974)" class="st8" cx="110.278" cy="175.949" rx="7.359" ry="4.96"/>
		</g>
		<g>
			<path class="st8" d="M88.727,193.145c2.574-0.937,3.534-4.792,2.143-8.612c-1.39-3.819-4.604-6.156-7.177-5.219
				s-3.534,4.792-2.143,8.612C82.939,191.745,86.153,194.081,88.727,193.145z"/>
			<path class="st8" d="M117.782,193.145c2.574,0.937,5.787-1.4,7.177-5.219c1.39-3.819,0.43-7.675-2.143-8.612
				c-2.574-0.937-5.787,1.4-7.177,5.219C114.249,188.352,115.208,192.208,117.782,193.145z"/>
		</g>
		<path class="st8" d="M191.322,246.5h-77.628c-3.278,0-5.946-2.643-5.995-5.91c15.629-1.831,27.921-14.252,29.296-30.33
			l8.289-96.825c0.005-0.056-0.005-0.11-0.003-0.166c0.003-0.06,0.018-0.115,0.018-0.176V43.163c0-5.711-3.441-10.626-8.355-12.801
			V5.5c0-2.209-1.791-4-4-4s-4,1.791-4,4v23.663h-6.978V5.5c0-2.209-1.791-4-4-4s-4,1.791-4,4v23.663h-6.977V5.5
			c0-2.209-1.791-4-4-4s-4,1.791-4,4v23.663h-6.978V5.5c0-2.209-1.791-4-4-4s-4,1.791-4,4v23.663h-6.977V5.5c0-2.209-1.791-4-4-4
			s-4,1.791-4,4v24.861c-4.914,2.175-8.356,7.091-8.356,12.802v69.932c0,0.071,0.017,0.138,0.021,0.208
			c0.003,0.064-0.007,0.126-0.001,0.19l9.74,97.248c1.583,15.81,13.852,28.027,29.261,29.848
			c0.049,7.678,6.306,13.911,13.995,13.911h77.628c2.209,0,4-1.791,4-4S193.531,246.5,191.322,246.5z M68.678,43.163
			c0-3.309,2.691-6,6-6h56.621c3.309,0,6,2.691,6,6v65.932H68.678V43.163z M103.694,232.833c-13.114,0-23.989-9.84-25.296-22.889
			l-9.299-92.849h67.843l-7.917,92.483C127.889,222.835,117,232.833,103.694,232.833z"/>
		<path class="st8" d="M124.348,161.98c0.137,0.014,0.272,0.021,0.406,0.021c2.028,0,3.767-1.538,3.975-3.599l0.342-3.396
			c0.222-2.198-1.381-4.16-3.579-4.381c-2.201-0.223-4.16,1.381-4.381,3.579l-0.342,3.396
			C120.549,159.797,122.151,161.758,124.348,161.98z"/>
		<path class="st8" d="M126.195,143.66c0.136,0.014,0.271,0.021,0.406,0.021c2.028,0,3.767-1.538,3.975-3.6l1.403-13.93
			c0.222-2.198-1.381-4.159-3.579-4.381c-2.19-0.222-4.159,1.381-4.381,3.579l-1.404,13.93
			C122.395,141.477,123.997,143.438,126.195,143.66z"/>
		<path class="st8" d="M114.456,194.593c-2.388-4.135-6.664-6.604-11.438-6.604s-9.051,2.469-11.438,6.604l-3.176,5.501
			c-2.388,4.135-2.388,9.072,0,13.208s6.664,6.604,11.438,6.604h6.353c4.775,0,9.051-2.469,11.438-6.604s2.387-9.073,0-13.207
			L114.456,194.593z M110.704,209.302c-0.452,0.783-1.796,2.604-4.51,2.604h-6.353c-2.714,0-4.059-1.821-4.51-2.604
			c-0.452-0.783-1.357-2.857,0-5.208l3.176-5.5c0,0,0,0,0,0c1.356-2.35,3.606-2.604,4.51-2.604s3.153,0.254,4.51,2.604l3.176,5.501
			C112.061,206.444,111.156,208.519,110.704,209.302z"/>
	</g>
</g>
</svg>
