<?xml version="1.0" encoding="utf-8"?>
<!-- Generator: Adobe Illustrator 22.1.0, SVG Export Plug-In . SVG Version: 6.00 Build 0)  -->
<svg version="1.1" id="Icon_Set" xmlns="http://www.w3.org/2000/svg" xmlns:xlink="http://www.w3.org/1999/xlink" x="0px" y="0px"
	 viewBox="0 0 256 256" style="enable-background:new 0 0 256 256;" xml:space="preserve">
<style type="text/css">
	.st0{fill:#5FCDFF;}
	.st1{fill:#87828E;}
	.st2{fill:#B76C6C;}
	.st3{fill:#FF4A73;}
	.st4{fill:#73D7F9;}
	.st5{fill:#30B6FF;}
	.st6{fill:#A4A4A5;}
	.st7{fill:#F973A3;}
	.st8{fill:#5F266D;}
	.st9{fill:#FFE2E2;}
	.st10{fill:#FFEFEE;}
	.st11{fill:#796E84;}
	.st12{fill:#3193F3;}
	.st13{fill:#35B1FC;}
	.st14{fill:#307FED;}
	.st15{fill:#FFCFCF;}
	.st16{fill:#EA2A6A;}
	.st17{fill:#44C7B6;}
	.st18{fill:#3BB2A0;}
	.st19{fill:#4BDBC3;}
	.st20{fill:#C98585;}
	.st21{fill:#965959;}
	.st22{fill:#FFBB98;}
	.st23{fill:#FFCAA6;}
	.st24{fill:#FFAA80;}
	.st25{fill:#F9D335;}
	.st26{fill:#F2C300;}
	.st27{fill:#F9E27D;}
</style>
<g>
	<g>
		<path class="st2" d="M168.971,172.95h-82.57c0,0-26.029,22.581-25.029,62.565h48.842h34.944H194
			C195,195.53,168.971,172.95,168.971,172.95z"/>
		<path class="st20" d="M76.37,235.52h-15c-1-39.99,25.03-62.57,25.03-62.57h15C101.4,172.95,75.37,195.53,76.37,235.52z"/>
		<path class="st21" d="M194,235.52h-15c1-39.99-25.03-62.57-25.03-62.57h15C168.97,172.95,195,195.53,194,235.52z"/>
		<g>
			<path id="XMLID_471_" class="st2" d="M182.64,48.468v91.21H72.72v-91.21c0-0.38,0-0.75,0.01-1.13c0.33-12.71,6.07-24.06,15-31.84
				c7.69-6.7,17.72-10.75,28.71-10.75h22.48c11,0,21.03,4.05,28.72,10.76C176.83,23.518,182.64,35.308,182.64,48.468z"/>
			<path id="XMLID_470_" class="st21" d="M182.64,48.468v91.21h-15V15.508C176.83,23.518,182.64,35.308,182.64,48.468z"/>
			<path id="XMLID_467_" class="st2" d="M233.496,49.455l-15.601,52.648c-0.132,0.445-0.278,0.889-0.485,1.305
				c-2.921,5.87-11.142,6.487-14.908,1.126c-0.274-0.39-0.489-0.819-0.689-1.252L158.414,9.388l69.648,28.468
				C232.909,39.399,235.412,44.744,233.496,49.455z"/>
			<path id="XMLID_466_" class="st3" d="M163.971,177.821H91.423c-2.761,0-5-2.239-5-5v-5.356c0-2.761,2.239-5,5-5h72.549
				c2.761,0,5,2.239,5,5v5.356C168.971,175.583,166.732,177.821,163.971,177.821z"/>
			<path id="XMLID_465_" class="st7" d="M106.427,177.818h-15c-2.77,0-5-2.24-5-5v-5.35c0-2.76,2.23-5,5-5h15c-2.77,0-5,2.24-5,5
				v5.35C101.427,175.578,103.657,177.818,106.427,177.818z"/>
			<path id="XMLID_464_" class="st16" d="M168.967,167.468v5.35c0,2.76-2.23,5-5,5h-15c2.77,0,5-2.24,5-5v-5.35c0-2.76-2.23-5-5-5
				h15C166.737,162.468,168.967,164.708,168.967,167.468z"/>
			<path id="XMLID_463_" class="st20" d="M87.73,15.498v124.18h-15v-92.34C73.06,34.628,78.8,23.278,87.73,15.498z"/>
			<path id="XMLID_462_" class="st22" d="M166.16,162.465H89.2c-13.982,0-25.316-11.334-25.316-25.316v-1.139
				c0-35.233,28.562-63.796,63.796-63.796h0c35.233,0,63.796,28.562,63.796,63.796v1.139
				C191.476,151.131,180.142,162.465,166.16,162.465z"/>
			<path id="XMLID_461_" class="st24" d="M191.477,136.008v1.14c0,13.98-11.34,25.32-25.32,25.32h-15
				c13.98,0,25.32-11.34,25.32-25.32v-1.14c0-17.62-7.14-33.56-18.69-45.11c-9.88-9.88-22.99-16.53-37.61-18.24
				c2.46-0.29,4.96-0.44,7.5-0.44c17.62,0,33.57,7.14,45.11,18.68C184.337,102.448,191.477,118.388,191.477,136.008z"/>
			<path id="XMLID_460_" class="st23" d="M104.197,162.468h-15c-13.98,0-25.31-11.34-25.31-25.32v-1.14
				c0-35.23,28.56-63.79,63.79-63.79c2.54,0,5.04,0.15,7.5,0.44c-31.7,3.71-56.29,30.66-56.29,63.35v1.14
				C78.887,151.128,90.217,162.468,104.197,162.468z"/>
			<path id="XMLID_459_" class="st2" d="M131.022,126.431h-4.038c-11.046,0-20-8.954-20-20v-3.379c0-5.523,4.477-10,10-10h24.038
				c5.523,0,10,4.477,10,10v3.379C151.022,117.477,142.068,126.431,131.022,126.431z"/>
			<path id="XMLID_458_" class="st20" d="M136.507,125.658c-1.74,0.5-3.58,0.77-5.48,0.77h-4.04c-11.05,0-20-8.95-20-20v-3.38
				c0-5.52,4.47-10,10-10h15c-5.53,0-10,4.48-10,10v3.38C121.987,115.578,128.127,123.288,136.507,125.658z"/>
			<path id="XMLID_457_" class="st2" d="M22.504,49.315l15.601,52.648c0.132,0.445,0.278,0.889,0.485,1.305
				c2.921,5.87,11.141,6.487,14.908,1.126c0.274-0.39,0.489-0.819,0.689-1.252L97.586,9.248L27.938,37.716
				C23.091,39.259,20.588,44.604,22.504,49.315z"/>
		</g>
		<path class="st12" d="M242.75,251.015H12.971c-4.28,0-7.75-3.47-7.75-7.75v0c0-4.28,3.47-7.75,7.75-7.75H242.75
			c4.28,0,7.75,3.47,7.75,7.75v0C250.5,247.545,247.03,251.015,242.75,251.015z"/>
		<path class="st9" d="M77.724,235.515H7.667v-26.5c0-5.523,4.477-10,10-10h50.058c5.523,0,10,4.477,10,10V235.515z"/>
		<path class="st17" d="M55.305,173.371c-9.896,7.468-7.95,6.811-23.666,6.811c-7.717,0-13.973,6.256-13.973,13.973v4.861h44.612
			v-22.17C62.279,173.253,58.173,171.207,55.305,173.371z"/>
		<path class="st13" d="M27.97,251.02h-15c-4.28,0-7.75-3.47-7.75-7.75c0-2.15,0.87-4.08,2.27-5.48c1.4-1.41,3.34-2.27,5.48-2.27h15
			c-2.14,0-4.08,0.86-5.48,2.27c-1.4,1.4-2.27,3.33-2.27,5.48C20.22,247.55,23.69,251.02,27.97,251.02z"/>
		<path class="st10" d="M32.67,199.02c-5.53,0-10,4.47-10,10v26.5h-15v-26.5c0-5.53,4.47-10,10-10H32.67z"/>
		<path class="st19" d="M62.28,176.85v2.12c-3.1,1.45-6.15,1.21-15.64,1.21c-7.72,0-13.97,6.26-13.97,13.97v4.87h-15v-4.87
			c0-7.71,6.25-13.97,13.97-13.97c15.72,0,13.77,0.66,23.66-6.81C58.17,171.21,62.28,173.25,62.28,176.85z"/>
		<path class="st15" d="M77.72,209.02v26.5h-15v-26.5c0-5.53-4.47-10-10-10h15C73.25,199.02,77.72,203.49,77.72,209.02z"/>
		<path class="st14" d="M250.5,243.27c0,2.14-0.87,4.08-2.27,5.48c-1.4,1.4-3.34,2.27-5.48,2.27h-15c4.28,0,7.75-3.47,7.75-7.75
			c0-4.29-3.47-7.75-7.75-7.75h15C247.03,235.52,250.5,238.98,250.5,243.27z"/>
	</g>
	<g>
		<path class="st8" d="M94.983,43.968c0.322-0.312,7.996-7.555,18.125,0.291c4.186,3.241,9.065-3.097,4.899-6.324
			c-12.444-9.641-24.146-4.025-28.594,0.291c-1.585,1.538-1.624,4.07-0.086,5.656C90.864,45.466,93.397,45.506,94.983,43.968z"/>
		
			<ellipse transform="matrix(0.9871 -0.1602 0.1602 0.9871 -7.4798 17.265)" class="st8" cx="103.347" cy="55.026" rx="7.125" ry="7.125"/>
		<path class="st8" d="M142.587,43.968c0.322-0.312,7.997-7.555,18.125,0.291c1.754,1.358,4.265,1.026,5.612-0.712
			c1.353-1.746,1.034-4.259-0.712-5.612c-12.444-9.641-24.145-4.025-28.594,0.291c-1.585,1.538-1.624,4.07-0.086,5.656
			C138.468,45.466,141.001,45.506,142.587,43.968z"/>
		<circle class="st8" cx="150.951" cy="55.026" r="7.125"/>
		<path class="st8" d="M110.295,148.482c7.216,0,13.593-3.625,17.431-9.143c3.838,5.518,10.216,9.143,17.431,9.143
			c11.707,0,21.231-9.524,21.231-21.231c0-2.209-1.791-4-4-4s-4,1.791-4,4c0,7.295-5.936,13.231-13.231,13.231
			c-6.21,0-11.421-4.307-12.838-10.087c12.633-0.677,22.702-11.165,22.702-23.964v-3.379c0-7.72-6.28-14-14-14h-24.039
			c-7.72,0-14,6.28-14,14v3.379c0,11.947,8.775,21.88,20.217,23.699c-1.319,5.914-6.6,10.352-12.906,10.352
			c-7.296,0-13.231-5.936-13.231-13.231c0-2.209-1.791-4-4-4s-4,1.791-4,4C89.063,138.958,98.588,148.482,110.295,148.482z
			 M110.983,106.431v-3.379c0-3.309,2.691-6,6-6h24.039c3.309,0,6,2.691,6,6v3.379c0,8.822-7.178,16-16,16h-4.039
			C118.161,122.431,110.983,115.253,110.983,106.431z"/>
		<path class="st8" d="M242.75,231.515h-44.743c-0.629-34.075-19.65-55.037-25.036-60.298v-3.752c0-0.605-0.062-1.195-0.176-1.766
			c12.34-2.867,22.681-13.639,22.681-29.689c0-11.883-3.083-23.055-8.476-32.777V80.77l11.181,24.192
			c4.841,10.458,20.283,9.32,23.548-1.722l15.551-52.478c2.622-6.775-0.96-14.369-7.838-16.664L162.335,6.67l0.047-0.084
			c-6.884-3.851-14.984-6.097-23.122-6.097h-22.49c-6.912,0-13.832,1.702-20.626,5.033c-0.024,0.009-0.049,0.014-0.072,0.023
			L26.558,33.958c-6.889,2.299-10.456,9.9-7.838,16.664l15.551,52.477c3.26,11.023,18.711,12.205,23.548,1.722L69,80.629v21.492
			c-6.54,11.279-9.116,22.715-9.116,35.028c0,13.894,9.719,25.552,22.713,28.556c-0.113,0.569-0.175,1.157-0.175,1.759v3.735
			c-2.964,2.907-10.187,10.721-16.144,23.006v-17.361c0-3.189-1.773-6.054-4.628-7.476c-8.587-4.275-11.527,6.813-20.292,6.813
			H31.64c-8.844,0-17.973,6.523-17.973,19.423c-5.775,1.726-10,7.081-10,13.41v26.5c0,0.182,0.03,0.355,0.054,0.531
			c-1.56,1.994-2.499,4.497-2.499,7.219c0,6.479,5.271,11.75,11.75,11.75H242.75c6.479,0,11.75-5.271,11.75-11.75
			S249.229,231.515,242.75,231.515z M226.549,41.559c0.098,0.04,0.198,0.077,0.3,0.109c2.629,0.836,3.98,3.727,2.941,6.281
			c-0.049,0.121-0.093,0.245-0.13,0.371l-15.602,52.649c-1.179,3.979-6.859,4.414-8.616,0.636L187,61.702v-0.213h-0.099
			L166.31,16.937L226.549,41.559z M100.611,12.235c5.366-2.485,10.79-3.747,16.159-3.747h22.49c5.373,0,10.822,1.187,15.925,3.445
			L179,63.461v28.324c-26.846-31.11-74.683-31.494-102-0.739V63.488h-0.078L100.611,12.235z M50.556,101.467
			c-1.721,3.732-7.418,3.378-8.615-0.641c-0.087-0.293-15.616-52.736-15.731-53.02c-1.042-2.56,0.321-5.446,2.941-6.28
			c0.232-0.074,60.314-24.639,60.539-24.731L50.556,101.467z M67.884,136.01c0-32.971,26.824-59.795,59.796-59.795
			c31.447,0,59.795,24.869,59.795,60.935c0,11.753-9.562,21.315-21.315,21.315c-6.693,0-69.069,0-76.96,0
			C78.294,158.465,67.884,150.136,67.884,136.01z M164.971,167.465v5.356c0,0.551-0.449,1-1,1H91.422c-0.551,0-1-0.449-1-1v-5.356
			c0-0.551,0.449-1,1-1h72.549C164.522,166.465,164.971,166.914,164.971,167.465z M85.505,179.586
			c1.584,1.387,3.651,2.236,5.917,2.236h72.549c2.26,0,4.323-0.844,5.905-2.225c6.456,7.266,19.569,25.247,20.133,51.919H81.725
			v-22.5c0-5.442-3.127-10.157-7.673-12.472C78.005,188.719,82.483,182.984,85.505,179.586z M31.64,184.182
			c16.694,0,15.468,0.385,26.075-7.618c0.233-0.179,0.564-0.019,0.564,0.281v18.17H21.667
			C21.667,187.756,26.774,184.182,31.64,184.182z M11.667,209.015c0-3.309,2.691-6,6-6h4.384v20.75c0,2.209,1.791,4,4,4s4-1.791,4-4
			v-20.75h8.645v20.75c0,2.209,1.791,4,4,4s4-1.791,4-4v-20.75h8.645v20.75c0,2.209,1.791,4,4,4s4-1.791,4-4v-20.75h4.384
			c3.309,0,6,2.691,6,6v22.5c-15.693,0-27.806,0-62.058,0V209.015z M242.75,247.015H12.971c-2.068,0-3.75-1.682-3.75-3.75
			s1.682-3.75,3.75-3.75c3.141,0,218.471,0,229.779,0c2.068,0,3.75,1.682,3.75,3.75S244.818,247.015,242.75,247.015z"/>
		<path class="st8" d="M167.803,219.195c0.043,0.822,0.065,1.662,0.065,2.496c0,2.209,1.791,4,4,4s4-1.791,4-4
			c0-0.974-0.026-1.955-0.076-2.917c-0.116-2.206-1.996-3.897-4.205-3.784C169.381,215.106,167.687,216.989,167.803,219.195z"/>
		<path class="st8" d="M164.94,205.871c0.625,1.565,2.127,2.518,3.716,2.518c0.493,0,0.996-0.092,1.482-0.286
			c2.051-0.819,3.051-3.146,2.231-5.198c-3.417-8.558-8.188-13.055-8.39-13.242c-1.612-1.498-4.122-1.405-5.629,0.198
			c-1.507,1.603-1.428,4.13,0.166,5.646C158.554,195.541,162.232,199.088,164.94,205.871z"/>
	</g>
</g>
</svg>
