<svg id="Layer_1" data-name="Layer 1" xmlns="http://www.w3.org/2000/svg" viewBox="0 0 16 16"><title>Trade_Icons</title><path d="M8.8,9.25H7.12V2.05h0L5.49,9.25H3.73L2.16,2.05h0v7.2H.46V.64H3.08L4.64,7.43h0L6.2.64H8.8Z"/><path d="M10.47,10.93h.15c.29,0,.83,0,.83-.67a.6.6,0,0,0-.62-.64c-.67,0-.67.64-.67.81H9.25a1.48,1.48,0,0,1,1.65-1.6,1.39,1.39,0,0,1,1.54,1.39,1,1,0,0,1-.6.95h0a1.11,1.11,0,0,1,.75,1.16,1.58,1.58,0,0,1-1.69,1.6,1.55,1.55,0,0,1-1.73-1.66h1c0,.27.07.87.73.87a.73.73,0,0,0,.74-.82c0-.68-.66-.71-1.11-.71Z"/><path d="M14.46,8.84c1.17,0,1.72.81,1.72,2.55s-.55,2.56-1.72,2.56-1.72-.81-1.72-2.56S13.29,8.84,14.46,8.84Zm0,4.32c.56,0,.71-.49.71-1.77S15,9.62,14.46,9.62s-.71.48-.71,1.77S13.9,13.16,14.46,13.16Z"/></svg>