<svg id="Layer_1" data-name="Layer 1" xmlns="http://www.w3.org/2000/svg" viewBox="0 0 16 16"><title>Trade_Icons</title><path d="M8.74,9.25H7.06V2.05H7L5.43,9.25H3.66L2.09,2.05h0v7.2H.39V.64H3L4.58,7.43h0L6.13.64h2.6Z"/><path d="M9.39,9.7h.14c.95,0,1.2-.49,1.22-.86h.81v5h-1V10.39H9.39Z"/><path d="M13.42,10.83a1.37,1.37,0,0,1,.89-.27,1.5,1.5,0,0,1,1.51,1.6A1.68,1.68,0,0,1,14,13.95a1.52,1.52,0,0,1-1.62-1.46h1a.66.66,0,0,0,.69.68c.47,0,.74-.4.74-.93s-.21-.89-.73-.89a.69.69,0,0,0-.66.36l-.88,0,.34-2.73h2.73v.83h-2Z"/></svg>