<svg id="Layer_1" data-name="Layer 1" xmlns="http://www.w3.org/2000/svg" viewBox="0 0 16 16"><title>Trade_Icons</title><path d="M7.56,7.51a2,2,0,1,1,2-2A2,2,0,0,1,7.56,7.51Zm0-3.08a1,1,0,1,0,1,1A1,1,0,0,0,7.56,4.43Z"/><rect x="7.06" y="7.01" width="1" height="8.42"/><path d="M5.12,9.09A4.38,4.38,0,0,1,4,3l.82.57a3.38,3.38,0,0,0,.88,4.73Z"/><path d="M10.31,8.87l-.63-.78a3.38,3.38,0,0,0,.65-4.55L11.15,3a4.38,4.38,0,0,1-.84,5.9Z"/><path d="M11.8,10.56l-.64-.77A5.63,5.63,0,0,0,12,2l.78-.62a6.63,6.63,0,0,1-.94,9.23Z"/><path d="M3.33,10.56a6.63,6.63,0,0,1-.88-9.31l.77.64A5.63,5.63,0,0,0,4,9.79Z"/></svg>