<svg id="Layer_1" data-name="Layer 1" xmlns="http://www.w3.org/2000/svg" viewBox="0 0 16 16"><title>Trade_Icons</title><rect x="8" y="10" width="5" height="1"/><path d="M6.42,8.25H3.13l-.39.91a2,2,0,0,0-.19.75.62.62,0,0,0,.32.58,2.66,2.66,0,0,0,.91.16v.25H.68v-.25a1.38,1.38,0,0,0,.82-.42,5.52,5.52,0,0,0,.8-1.4L5.63,1.39h.13l2.65,6c0,.29-1.5,2-1.63,1.69Zm-.23-.51L4.8,4.53,3.37,7.74Z"/><path d="M10.65,7.15a3.5,3.5,0,1,1-3.5,3.5,3.5,3.5,0,0,1,3.5-3.5m0-1a4.5,4.5,0,1,0,4.5,4.5,4.5,4.5,0,0,0-4.5-4.5Z"/></svg>