<svg id="Layer_1" data-name="Layer 1" xmlns="http://www.w3.org/2000/svg" viewBox="0 0 16 16"><title>Trade_Icons</title><rect x="2.97" y="4.97" width="10" height="6"/><polygon points="1.47 5.34 0.47 5.34 0.47 2.34 3.47 2.34 3.47 3.34 1.47 3.34 1.47 5.34"/><polygon points="15.53 5.34 14.53 5.34 14.53 3.34 12.53 3.34 12.53 2.34 15.53 2.34 15.53 5.34"/><polygon points="15.53 13.66 12.53 13.66 12.53 12.66 14.53 12.66 14.53 10.66 15.53 10.66 15.53 13.66"/><polygon points="3.47 13.66 0.47 13.66 0.47 10.66 1.47 10.66 1.47 12.66 3.47 12.66 3.47 13.66"/></svg>