<svg id="Layer_1" data-name="Layer 1" xmlns="http://www.w3.org/2000/svg" viewBox="0 0 16 16"><title>Trade_Icons</title><path d="M7.66,10a2.68,2.68,0,0,0-2.4,1.48L3,16H6.63a3.83,3.83,0,0,0,3.42-2.12A2.68,2.68,0,0,0,7.66,10Z"/><polygon points="11 10.97 12.26 9.97 10 7.7 9 8.98 11 10.97"/><polygon points="0 0 0 16 2 16 2 15 1 15 1 1 15.22 1 10.62 6.91 13.05 9.34 15 7.79 15 15 11 15 11 16 16 16 16 7 16 5 16 1 16 0 0 0"/><polygon points="3 3 3 5 2 5 2 9 3 9 3 11 4 11 4 9 5 9 5 5 4 5 4 3 3 3"/><polygon points="7 2 7 4 6 4 6 7 7 7 7 8 8 8 8 7 9 7 9 4 8 4 8 2 7 2"/></svg>