<svg id="Layer_1" data-name="Layer 1" xmlns="http://www.w3.org/2000/svg" viewBox="0 0 16 16"><title>Trade_Icons</title><path d="M9,13.92A4.09,4.09,0,0,1,8,14,6,6,0,0,1,8,2a5.85,5.85,0,0,1,5.91,5h2A8,8,0,0,0,0,8a8,8,0,0,0,8,8,5.88,5.88,0,0,0,1,0Z"/><path d="M10.64,15.42a2.3,2.3,0,0,1,.76-1.8c1.06-1.11,2.73-1.54,2.73-2.59a.7.7,0,0,0-.76-.64c-.72,0-.93.6-.92,1.21H10.76A2.37,2.37,0,0,1,13.45,9C14.77,9,16,9.56,16,11c0,1.12-.86,1.58-1.68,2.09-.46.29-.95.53-1.28.77H16v1.53Z"/><circle cx="8" cy="8" r="2.56"/></svg>