<svg id="Layer_1" data-name="Layer 1" xmlns="http://www.w3.org/2000/svg" viewBox="0 0 16 16"><title>Trade_Icons</title><rect x="0.02" y="2" width="4" height="2"/><rect x="12.02" y="1" width="4" height="3"/><rect x="6.02" width="4" height="4"/><path d="M14,9.08a2,2,0,0,0-1.63.85L10,9.14S10,9,10,9A2,2,0,1,0,6,9a2,2,0,0,0,.09.56L3.69,11A2,2,0,1,0,4,12S4,12,4,12l2.6-1.56a2,2,0,0,0,3.08-.34l2.35.78a2,2,0,0,0,0,.22,2,2,0,1,0,2-2Z"/><rect x="0.02" y="5" width="16" height="1"/><rect x="0.02" y="15" width="16" height="1"/></svg>