<svg id="Layer_1" data-name="Layer 1" xmlns="http://www.w3.org/2000/svg" viewBox="0 0 17 17"><title>Trade_Icons</title><rect x="9" y="11.5" width="5" height="1"/><rect x="11" y="9.5" width="1" height="5"/><path d="M7.49,9.51H3.28l-.5,1.16a2.58,2.58,0,0,0-.25,1,.8.8,0,0,0,.4.74,3.4,3.4,0,0,0,1.17.21v.33h-4v-.33A1.77,1.77,0,0,0,1.2,12a7.07,7.07,0,0,0,1-1.8L6.48.74h.17L10,8.4c0,.37-1.92,2.55-2.08,2.16Zm-.3-.65L5.41,4.76,3.59,8.86Z"/><path d="M11.65,8.65a3.5,3.5,0,1,1-3.5,3.5,3.5,3.5,0,0,1,3.5-3.5m0-1a4.5,4.5,0,1,0,4.5,4.5,4.5,4.5,0,0,0-4.5-4.5Z"/></svg>