<svg id="Lineal" xmlns="http://www.w3.org/2000/svg" viewBox="0 0 64 64"><title>Lineal_Expand</title><g id="_5" data-name="5"><path d="M9.21,27.24a1,1,0,0,1-1-.84A15.95,15.95,0,0,1,17.09,9.6,1,1,0,1,1,18,11.41,14,14,0,0,0,10.2,26.09a1,1,0,0,1-.83,1.14Z"/><path d="M54.8,27.24h-.15a1,1,0,0,1-.84-1.14,13.92,13.92,0,0,0-7.76-14.68,1,1,0,0,1-.46-1.34,1,1,0,0,1,1.33-.47,15.94,15.94,0,0,1,8.87,16.8A1,1,0,0,1,54.8,27.24Z"/><path d="M32.4,58.68a9.89,9.89,0,0,1-9.49-7,1,1,0,0,1,.15-.89,1,1,0,0,1,.8-.41H40.94a1,1,0,0,1,.81.41,1,1,0,0,1,.15.89A9.89,9.89,0,0,1,32.4,58.68Zm-7-6.3a7.94,7.94,0,0,0,14.11,0Z"/><path d="M32.4,14.94a1,1,0,0,1-1-1V8.12a1,1,0,1,1,2,0v5.82A1,1,0,0,1,32.4,14.94Z"/><path d="M17.57,42.92a1,1,0,0,1-.68-.27,1,1,0,0,1-.32-.73V28.36A15.45,15.45,0,0,1,32,12.94,15.45,15.45,0,0,1,47.43,28.36V41.92a1,1,0,0,1-1.07,1l-.38,0H18l-.38,0Zm1-2H45.43V28.36A13.43,13.43,0,0,0,32,14.94,13.44,13.44,0,0,0,18.57,28.36Z"/><path d="M18,52.38h-.45a1,1,0,0,1-1-1,1,1,0,0,1,.32-.74,1,1,0,0,1,.76-.27H18a1,1,0,1,1,0,2Z"/><path d="M46.43,52.38H46a1,1,0,0,1,0-2h.38a1,1,0,0,1,1.07,1v0A1,1,0,0,1,46.43,52.38Z"/><path d="M46,52.38H18l-.52,0a5.72,5.72,0,0,1-5.22-5.72,5.66,5.66,0,0,1,1.69-4,5.76,5.76,0,0,1,3.51-1.66l.54,0H46a4.28,4.28,0,0,1,.52,0A5.74,5.74,0,0,1,50,50.7a5.78,5.78,0,0,1-3.51,1.66ZM18,42.9l-.38,0A3.76,3.76,0,0,0,15.38,44a3.74,3.74,0,0,0,2.29,6.37H46.36a3.74,3.74,0,0,0,3.36-3.73,3.71,3.71,0,0,0-3.38-3.72l-.36,0Z"/></g></svg>