<svg id="Lineal" xmlns="http://www.w3.org/2000/svg" viewBox="0 0 64 64"><title>Lineal_Expand</title><g id="_1" data-name="1"><path d="M32,57.75a9.89,9.89,0,0,1-9.49-7,1,1,0,0,1,.15-.89,1,1,0,0,1,.8-.41H40.55a1,1,0,0,1,.81.41,1,1,0,0,1,.15.89A9.9,9.9,0,0,1,32,57.75Zm-7-6.3a7.95,7.95,0,0,0,14.12,0Z"/><path d="M32,14a1,1,0,0,1-1-1V7.2a1,1,0,1,1,2,0V13A1,1,0,0,1,32,14Z"/><path d="M17.18,42a1,1,0,0,1-.68-.26,1,1,0,0,1-.32-.74V27.44a15.43,15.43,0,0,1,30.85,0V41a1,1,0,0,1-.32.74A1,1,0,0,1,46,42l-.37,0h-28l-.36,0Zm1-2H45V27.44a13.43,13.43,0,1,0-26.85,0Z"/><path d="M17.62,51.45h-.44a1,1,0,0,1-1-1,1,1,0,0,1,.32-.74,1,1,0,0,1,.75-.27h.37a1,1,0,1,1,0,2Z"/><path d="M46,51.45h-.44a1,1,0,0,1,0-2H46a1,1,0,0,1,1.07,1v0A1,1,0,0,1,46,51.45Z"/><path d="M45.59,51.45h-28l-.51,0a5.74,5.74,0,0,1-3.54-9.78A5.77,5.77,0,0,1,17.09,40l.53,0h28a4.41,4.41,0,0,1,.52,0,5.7,5.7,0,0,1,5.22,5.71,5.63,5.63,0,0,1-1.68,4.06,5.78,5.78,0,0,1-3.52,1.66ZM17.62,42l-.36,0a3.74,3.74,0,0,0,0,7.45H46a3.84,3.84,0,0,0,2.28-1.08,3.7,3.7,0,0,0,1.09-2.65A3.76,3.76,0,0,0,45.94,42l-.35,0Z"/></g></svg>