<svg id="Lineal" xmlns="http://www.w3.org/2000/svg" viewBox="0 0 64 64"><title>Lineal_Expand</title><g id="_17" data-name="17"><path d="M32,61.35l-.24-.06A31.18,31.18,0,0,1,8.18,31V14.29L32,5l23.82,9.34V31A31.18,31.18,0,0,1,32.24,61.29ZM10.18,15.66V31A29.19,29.19,0,0,0,32,59.29,29.19,29.19,0,0,0,53.82,31V15.66L32,7.09Z"/><path d="M32,44.45A11.29,11.29,0,1,1,43.29,33.17,11.3,11.3,0,0,1,32,44.45Zm0-20.57a9.29,9.29,0,1,0,9.29,9.29A9.3,9.3,0,0,0,32,23.88Z"/><path d="M32,34.17a1,1,0,0,1-1-1V26.45a1,1,0,0,1,2,0v6.72A1,1,0,0,1,32,34.17Z"/><path d="M28.54,38.29a1,1,0,0,1-.64-.23,1,1,0,0,1-.12-1.41l3.45-4.12a1,1,0,0,1,1.54,1.28l-3.46,4.12A1,1,0,0,1,28.54,38.29Z"/></g></svg>