<svg id="Lineal" xmlns="http://www.w3.org/2000/svg" viewBox="0 0 64 64"><defs><style>.cls-1{fill:none;stroke:#000;stroke-linecap:round;stroke-linejoin:round;stroke-width:2px;}</style></defs><title>Lineal_Expand</title><g id="_18" data-name="18"><path class="cls-1" d="M10.83,9.91V21.62l0,27.27a3.48,3.48,0,0,0,3.48,3.48H52a3.48,3.48,0,0,0,3.48-3.48l0-39ZM38.37,44.27H28a1.7,1.7,0,0,1-1.54-1.69A1.72,1.72,0,0,1,28,40.87V36a5.2,5.2,0,0,1,10.39,0v4.88a1.72,1.72,0,0,1,1.55,1.71A1.7,1.7,0,0,1,38.37,44.27Z"/><path d="M55.52,22.62H10.78a1,1,0,0,1-1-1L9.83,9.91a1,1,0,0,1,1-1H55.57a1,1,0,0,1,.71.3,1,1,0,0,1,.29.71l0,11.7A1,1,0,0,1,55.52,22.62Zm-43.73-2H54.52l0-9.71H11.83Z"/><path d="M15.34,13.58a1,1,0,0,1-1-1V7.25a1,1,0,0,1,2,0v5.33A1,1,0,0,1,15.34,13.58Z"/><path d="M24.34,13.58a1,1,0,0,1-1-1V7.25a1,1,0,0,1,2,0v5.33A1,1,0,0,1,24.34,13.58Z"/><path d="M33.34,13.58a1,1,0,0,1-1-1V7.25a1,1,0,0,1,2,0v5.33A1,1,0,0,1,33.34,13.58Z"/><path d="M42.34,13.58a1,1,0,0,1-1-1V7.25a1,1,0,0,1,2,0v5.33A1,1,0,0,1,42.34,13.58Z"/><path d="M51.34,13.58a1,1,0,0,1-1-1V7.25a1,1,0,0,1,2,0v5.33A1,1,0,0,1,51.34,13.58Z"/><path d="M33.32,47.54a4.2,4.2,0,0,1-4-3,1,1,0,0,1,.95-1.29H36.4a1,1,0,0,1,1,1.29A4.2,4.2,0,0,1,33.32,47.54Zm-1-2.25a2.35,2.35,0,0,0,2.1,0Z"/><path d="M33.32,31.8a1,1,0,0,1-1-1V28.71a1,1,0,0,1,2,0V30.8A1,1,0,0,1,33.32,31.8Z"/><path d="M28,41.88a1,1,0,0,1-.63-.23,1,1,0,0,1-.35-.78V36a6.2,6.2,0,1,1,12.39,0v4.87a1,1,0,0,1-.36.78,1,1,0,0,1-.83.21H28Zm1-2h8.39V36A4.2,4.2,0,0,0,29,36Z"/><path d="M28.14,45.29H28a1,1,0,0,1-1-1,1,1,0,0,1,1.14-1h0a1,1,0,0,1,1,1,1,1,0,0,1-1,1Zm-.16-1h0Z"/><path d="M38.37,45.29h-.16a1,1,0,0,1,0-2,.92.92,0,0,1,.81.21,1,1,0,0,1,.35.77v0A1,1,0,0,1,38.37,45.29Z"/><path d="M38.21,45.29H28.14l-.29,0a2.71,2.71,0,0,1,0-5.39H38.21a1.94,1.94,0,0,1,.35,0,2.71,2.71,0,0,1-.06,5.38ZM28.14,41.87a.72.72,0,0,0-.7.71.7.7,0,0,0,.63.7H38.21a.73.73,0,0,0,.71-.71.71.71,0,0,0-.64-.71Z"/></g></svg>