<svg id="Lineal" xmlns="http://www.w3.org/2000/svg" viewBox="0 0 64 64"><title>Lineal_Expand</title><g id="_9" data-name="9"><path d="M51.26,55.56H13.5A4.47,4.47,0,0,1,9,51.07l0-39a1,1,0,0,1,1-1H54.8a1,1,0,0,1,1,1l0,39A4.49,4.49,0,0,1,51.26,55.56ZM11.06,13.1l0,38a2.48,2.48,0,0,0,2.48,2.49H51.26a2.49,2.49,0,0,0,2.49-2.48l0-38Z"/><path d="M54.75,24.81H10a1,1,0,0,1-1-1L9.06,12.1a1,1,0,0,1,1-1H54.8a1,1,0,0,1,1,1l0,11.7A1,1,0,0,1,54.75,24.81ZM11,22.81H53.75l0-9.71H11.06Z"/><path d="M14.57,15.77a1,1,0,0,1-1-1V9.44a1,1,0,1,1,2,0v5.33A1,1,0,0,1,14.57,15.77Z"/><path d="M23.57,15.77a1,1,0,0,1-1-1V9.44a1,1,0,1,1,2,0v5.33A1,1,0,0,1,23.57,15.77Z"/><path d="M32.57,15.77a1,1,0,0,1-1-1V9.44a1,1,0,1,1,2,0v5.33A1,1,0,0,1,32.57,15.77Z"/><path d="M41.57,15.77a1,1,0,0,1-1-1V9.44a1,1,0,1,1,2,0v5.33A1,1,0,0,1,41.57,15.77Z"/><path d="M50.57,15.77a1,1,0,0,1-1-1V9.44a1,1,0,1,1,2,0v5.33A1,1,0,0,1,50.57,15.77Z"/><path d="M24.74,47.45A1,1,0,0,1,24,45.74L39.69,30.08a1,1,0,0,1,1.42,0,1,1,0,0,1,0,1.41L25.45,47.15A1,1,0,0,1,24.74,47.45Z"/><path d="M40.4,47.45a1,1,0,0,1-.71-.3L24,31.49a1,1,0,0,1,0-1.41,1,1,0,0,1,1.42,0L41.11,45.74a1,1,0,0,1-.71,1.71Z"/></g></svg>