<svg id="Lineal" xmlns="http://www.w3.org/2000/svg" viewBox="0 0 64 64"><title>Lineal_Expand</title><g id="_15" data-name="15"><path d="M44,49.2H20a1,1,0,0,1-1-1V43.36A13,13,0,0,1,25.68,32,13,13,0,0,1,19,20.65v-6.5a1,1,0,0,1,1-1H44a1,1,0,0,1,1,1v6.5A13,13,0,0,1,38.32,32,13,13,0,0,1,45,43.36V48.2A1,1,0,0,1,44,49.2Zm-23-2H43V43.36a11,11,0,0,0-7.46-10.42,1,1,0,0,1,0-1.89A11,11,0,0,0,43,20.65v-5.5H21v5.5a11,11,0,0,0,7.46,10.4,1,1,0,0,1,0,1.89A11,11,0,0,0,21,43.36Z"/><path d="M47.1,15.15H16.89a1,1,0,0,1-1-1v-7a1,1,0,0,1,1-1H47.1a1,1,0,0,1,1,1v7A1,1,0,0,1,47.1,15.15Zm-29.21-2H46.1v-5H17.89Z"/><path d="M40.09,49.2H23.9a1,1,0,0,1-1-1V43.88a9.11,9.11,0,0,1,9.1-9.1,9.08,9.08,0,0,1,9.09,9.1V48.2A1,1,0,0,1,40.09,49.2Zm-15.19-2H39.09V43.88a7.1,7.1,0,1,0-14.19,0Z"/><path d="M47.1,56.23H16.89a1,1,0,0,1-1-1v-7a1,1,0,0,1,1-1H47.1a1,1,0,0,1,1,1v7A1,1,0,0,1,47.1,56.23Zm-29.21-2H46.1v-5H17.89Z"/></g></svg>