<svg id="Lineal" xmlns="http://www.w3.org/2000/svg" viewBox="0 0 64 64"><title>Lineal_Expand</title><g id="_2" data-name="2"><path d="M31,57.75A25.75,25.75,0,1,1,56.75,32,25.78,25.78,0,0,1,31,57.75Zm0-49.5A23.75,23.75,0,1,0,54.75,32,23.77,23.77,0,0,0,31,8.25Z"/><path d="M31,52A20,20,0,1,1,51,32,20,20,0,0,1,31,52Zm0-38A18,18,0,1,0,49,32,18,18,0,0,0,31,14Z"/><path d="M31,33a1,1,0,0,1-1-1V17.32a1,1,0,0,1,2,0V32A1,1,0,0,1,31,33Z"/><path d="M24.61,40.62a1.05,1.05,0,0,1-.65-.23A1,1,0,0,1,23.84,39l6.39-7.62a1,1,0,0,1,1.54,1.28l-6.4,7.62A1,1,0,0,1,24.61,40.62Z"/><circle cx="31" cy="32" r="3.07"/><path d="M31,35.57A3.57,3.57,0,1,1,34.57,32,3.57,3.57,0,0,1,31,35.57Zm0-6.14A2.57,2.57,0,1,0,33.57,32,2.57,2.57,0,0,0,31,29.43Z"/></g></svg>