<svg id="Lineal" xmlns="http://www.w3.org/2000/svg" viewBox="0 0 64 64"><title>Lineal_Expand</title><g id="_16" data-name="16"><path d="M29.33,53.53h0a1,1,0,0,1-.71-.3l-17-17a1,1,0,0,1,0-1.41l3.42-3.42a13,13,0,0,1,12.76-3.31,13,13,0,0,1,3.3-12.75l4.6-4.6a1,1,0,0,1,1.42,0l17,17a1,1,0,0,1,.29.71,1,1,0,0,1-.29.7l-4.6,4.6a13,13,0,0,1-12.75,3.31,13,13,0,0,1-3.31,12.75L30,53.23A1,1,0,0,1,29.33,53.53Zm-15.56-18L29.33,51.11,32,48.4a11,11,0,0,0,2.09-12.64,1,1,0,0,1,1.34-1.34A11,11,0,0,0,48.1,32.34L52,28.45,36.44,12.89l-3.89,3.89a11,11,0,0,0-2.08,12.63,1,1,0,0,1-.19,1.15,1,1,0,0,1-1.15.19,11,11,0,0,0-12.64,2.09Z"/><path d="M41.1,32.88a9.07,9.07,0,0,1-6.44-2.66,1,1,0,0,1-.29-.7,1,1,0,0,1,.29-.71l9.56-9.55a1,1,0,0,1,1.42,0L51.36,25a1,1,0,0,1,.29.71,1,1,0,0,1-.29.7l-3.83,3.83A9.06,9.06,0,0,1,41.1,32.88Zm-4.27-3.41a7.12,7.12,0,0,0,9.28-.66l3.13-3.12-4.31-4.31Z"/><path d="M55.61,31.65a1,1,0,0,1-.71-.3L33.53,10a1,1,0,0,1,0-1.41l5-5a1,1,0,0,1,1.42,0L61.29,25a1,1,0,0,1,0,1.41l-5,5a1,1,0,0,1-.71.3Zm-20-22.37,20,20,3.56-3.56-20-20Z"/><path d="M26.57,50.77a1,1,0,0,1-.71-.3l-5.73-5.73a1,1,0,0,1-.29-.7,1,1,0,0,1,.29-.71l8.79-8.78a1,1,0,0,1,1.42,0,9.1,9.1,0,0,1,0,12.86l-3.06,3.06A1,1,0,0,1,26.57,50.77ZM22.25,44l4.32,4.31L28.92,46h0a7.1,7.1,0,0,0,.66-9.28Z"/><path d="M26.55,60.7a1,1,0,0,1-.71-.3L4.48,39a1,1,0,0,1,0-1.41l5-5a1,1,0,0,1,1.42,0L32.24,54a1,1,0,0,1,.29.71,1,1,0,0,1-.29.7l-5,5A1,1,0,0,1,26.55,60.7ZM6.6,38.33l20,20,3.57-3.55-20-20Z"/></g></svg>