<svg id="Lineal" xmlns="http://www.w3.org/2000/svg" viewBox="0 0 64 64"><title>Lineal_Expand</title><g id="_20" data-name="20"><path d="M50.86,55.37H13.1a4.47,4.47,0,0,1-4.49-4.49l.05-39a1,1,0,0,1,1-1H54.39a1,1,0,0,1,.71.29,1,1,0,0,1,.29.71l0,39A4.5,4.5,0,0,1,50.86,55.37ZM10.66,12.91l-.05,38a2.47,2.47,0,0,0,.73,1.76,2.42,2.42,0,0,0,1.76.73H50.86a2.49,2.49,0,0,0,2.49-2.48l0-38Z"/><path d="M54.34,24.62H9.61a1,1,0,0,1-.71-.29,1,1,0,0,1-.29-.71l.05-11.71a1,1,0,0,1,1-1H54.39a1,1,0,0,1,.71.3,1,1,0,0,1,.29.71l0,11.7A1,1,0,0,1,54.34,24.62Zm-43.73-2H53.35l0-9.71H10.65Z"/><path d="M14.16,15.58a1,1,0,0,1-1-1V9.25a1,1,0,0,1,2,0v5.33A1,1,0,0,1,14.16,15.58Z"/><path d="M23.17,15.58a1,1,0,0,1-1-1V9.25a1,1,0,0,1,2,0v5.33A1,1,0,0,1,23.17,15.58Z"/><path d="M32.17,15.58a1,1,0,0,1-1-1V9.25a1,1,0,0,1,2,0v5.33A1,1,0,0,1,32.17,15.58Z"/><path d="M41.17,15.58a1,1,0,0,1-1-1V9.25a1,1,0,0,1,2,0v5.33A1,1,0,0,1,41.17,15.58Z"/><path d="M50.17,15.58a1,1,0,0,1-1-1V9.25a1,1,0,0,1,2,0v5.33A1,1,0,0,1,50.17,15.58Z"/><path d="M39.56,38.81a1,1,0,0,1-.71-.29L32,31.67l-6.84,6.85a1,1,0,0,1-1.42-1.42l7.55-7.55a1,1,0,0,1,1.42,0l7.55,7.55a1,1,0,0,1-.7,1.71Z"/><path d="M39.72,43.55a1,1,0,0,1-.71-.29l-6.84-6.85-6.85,6.85a1,1,0,0,1-1.42-1.42l7.56-7.55a1,1,0,0,1,1.41,0l7.56,7.55a1,1,0,0,1,0,1.42A1,1,0,0,1,39.72,43.55Z"/></g></svg>