<svg id="Lineal" xmlns="http://www.w3.org/2000/svg" viewBox="0 0 64 64"><title>Lineal_Expand</title><g id="_8" data-name="8"><path d="M31.68,57.77a9.9,9.9,0,0,1-9.5-7,1,1,0,0,1,.15-.89,1,1,0,0,1,.81-.41H40.23a1,1,0,0,1,.81.41,1,1,0,0,1,.15.89A9.91,9.91,0,0,1,31.68,57.77Zm-7.06-6.29a8,8,0,0,0,14.13,0Z"/><path d="M31.68,14a1,1,0,0,1-1-1V7.22a1,1,0,1,1,2,0V13A1,1,0,0,1,31.68,14Z"/><path d="M45.71,42h-.07l-.37,0h-28L17,42a1,1,0,0,1-.77-.27,1,1,0,0,1-.34-.73V27.46a15.42,15.42,0,0,1,26.26-11,1,1,0,0,1,.13,1.28,7,7,0,0,0-1.23,4,7.11,7.11,0,0,0,5,6.8,1,1,0,0,1,.7.95V41a1,1,0,0,1-.32.73A1,1,0,0,1,45.71,42ZM17.86,40H44.71V30.2A9.09,9.09,0,0,1,39,21.75a8.94,8.94,0,0,1,1.12-4.37A13.29,13.29,0,0,0,31.28,14,13.44,13.44,0,0,0,17.86,27.46Z"/><path d="M17.3,51.48h-.44a1,1,0,0,1-1-1,1,1,0,0,1,.32-.74,1,1,0,0,1,.75-.27h.37a1,1,0,1,1,0,2Z"/><path d="M45.71,51.48h-.44a1,1,0,0,1,0-2h.37a1,1,0,0,1,.75.26,1,1,0,0,1,.32.73v0A1,1,0,0,1,45.71,51.48Z"/><path d="M45.27,51.48h-28l-.5,0a5.74,5.74,0,0,1-3.56-9.77A5.65,5.65,0,0,1,16.77,40l.53,0h28a4.24,4.24,0,0,1,.51,0,5.74,5.74,0,0,1,3.55,9.77,5.78,5.78,0,0,1-3.52,1.66ZM17.3,42,17,42a3.75,3.75,0,0,0-3.41,3.72A3.77,3.77,0,0,0,17,49.47H45.64a3.74,3.74,0,0,0,0-7.45l-.35,0Z"/><path d="M48.13,30.86a9.22,9.22,0,0,1-2.71-.4A9.11,9.11,0,0,1,39,21.75a9,9,0,0,1,1.57-5.11,9.11,9.11,0,1,1,7.54,14.22Zm0-16.22A7.12,7.12,0,0,0,46,28.55a7.2,7.2,0,0,0,2.12.31,7.11,7.11,0,0,0,0-14.22Z"/><path d="M48.13,25.51a1,1,0,0,1-1-1V19a1,1,0,1,1,2,0v5.51A1,1,0,0,1,48.13,25.51Z"/><path d="M50.88,22.76h-5.5a1,1,0,0,1,0-2h5.5a1,1,0,0,1,0,2Z"/></g></svg>