<svg id="Lineal" xmlns="http://www.w3.org/2000/svg" viewBox="0 0 64 64"><title>Lineal_Expand</title><g id="_6" data-name="6"><path d="M50.86,57.86H13.1a4.49,4.49,0,0,1-4.49-4.49l.05-39a1,1,0,0,1,1-1H54.39a1,1,0,0,1,1,1l0,39A4.5,4.5,0,0,1,50.86,57.86ZM10.66,15.4l-.05,38a2.49,2.49,0,0,0,2.49,2.49H50.86a2.5,2.5,0,0,0,2.49-2.49l0-38Z"/><path d="M54.34,27.1H9.61a1,1,0,0,1-1-1l.05-11.71a1,1,0,0,1,1-1H54.39a1,1,0,0,1,1,1l0,11.71A1,1,0,0,1,54.34,27.1Zm-43.73-2H53.35l0-9.7H10.65Z"/><path d="M14.16,18.06a1,1,0,0,1-1-1V11.73a1,1,0,0,1,2,0v5.33A1,1,0,0,1,14.16,18.06Z"/><path d="M23.17,18.06a1,1,0,0,1-1-1V11.73a1,1,0,0,1,2,0v5.33A1,1,0,0,1,23.17,18.06Z"/><path d="M32.17,18.06a1,1,0,0,1-1-1V11.73a1,1,0,0,1,2,0v5.33A1,1,0,0,1,32.17,18.06Z"/><path d="M41.17,18.06a1,1,0,0,1-1-1V11.73a1,1,0,0,1,2,0v5.33A1,1,0,0,1,41.17,18.06Z"/><path d="M50.17,18.06a1,1,0,0,1-1-1V11.73a1,1,0,0,1,2,0v5.33A1,1,0,0,1,50.17,18.06Z"/><path d="M24.64,43.31H27l.45-8.43H24.92L25,33.65h4l-.51,9.66h2.12l-.07,1.2h-6Z"/><path d="M30.77,45.13h-6a.91.91,0,0,1-.6-.26.78.78,0,0,1-.25-.57L24,43.1a.42.42,0,0,1,.45-.4h1.94l.38-7.21H25.12a.9.9,0,0,1-.59-.26.78.78,0,0,1-.25-.57l.06-1.23a.41.41,0,0,1,.45-.4h4a.91.91,0,0,1,.6.26.78.78,0,0,1,.25.57l-.47,8.84h1.23A.9.9,0,0,1,31,43a.79.79,0,0,1,.26.57l-.07,1.2A.41.41,0,0,1,30.77,45.13ZM27.4,43.9h1.1a1.2,1.2,0,0,1-.37-.23.79.79,0,0,1-.26-.57l.47-8.84h-1a1,1,0,0,1,.51.26.78.78,0,0,1,.25.57l-.44,8.44A.41.41,0,0,1,27.4,43.9Z"/><path d="M32.88,43.31h2.37l.44-8.43H33.16l.07-1.23h4l-.51,9.66h2.11l-.06,1.2h-6Z"/><path d="M39,45.13H33a.9.9,0,0,1-.59-.26.78.78,0,0,1-.25-.57l.06-1.2a.41.41,0,0,1,.45-.4h1.94L35,35.49H33.36a.9.9,0,0,1-.59-.26.79.79,0,0,1-.26-.57l.07-1.23A.41.41,0,0,1,33,33h4a.9.9,0,0,1,.59.26.79.79,0,0,1,.26.57l-.47,8.84h1.22a.91.91,0,0,1,.6.26.78.78,0,0,1,.25.57l-.06,1.2A.41.41,0,0,1,39,45.13ZM35.64,43.9h1.1a1.14,1.14,0,0,1-.38-.23.78.78,0,0,1-.25-.57l.47-8.84h-1a1,1,0,0,1,.51.26.78.78,0,0,1,.25.57l-.45,8.44A.4.4,0,0,1,35.64,43.9Z"/></g></svg>