<svg id="Lineal" xmlns="http://www.w3.org/2000/svg" viewBox="0 0 64 64"><title>Lineal_Expand</title><g id="_3" data-name="3"><path d="M25.63,36.31a.51.51,0,0,1,.06.46l-.37,1a.5.5,0,0,1-.46.32H20.23l-.15-.5,0-.11-.24-.8.09-.24a.51.51,0,0,1,.47-.32h1.58l2.19-5.84H22.8a.49.49,0,0,1-.41-.21.48.48,0,0,1-.06-.46l.37-1a.51.51,0,0,1,.47-.32h3.28a.52.52,0,0,1,.41.21.5.5,0,0,1,.05.46L24.23,36.1h1A.51.51,0,0,1,25.63,36.31Z"/><path d="M33.53,28.48a.54.54,0,0,1,.06.46L30.9,36.1h1a.49.49,0,0,1,.41.21.48.48,0,0,1,.06.46l-.36,1a.51.51,0,0,1-.47.32H26.67a.49.49,0,0,1-.41-.22.5.5,0,0,1-.06-.46l.37-1A.5.5,0,0,1,27,36.1h1.58l2.19-5.84H29.47a.51.51,0,0,1-.41-.21.48.48,0,0,1-.06-.46l.38-1a.49.49,0,0,1,.46-.32h3.28A.51.51,0,0,1,33.53,28.48Z"/><path d="M59.54,49.16H40.69a1,1,0,0,1-.8-.41,1,1,0,0,1-.15-.9l9.71-30a1.06,1.06,0,0,1,1-.69,1,1,0,0,1,1,.71l9.14,30a1,1,0,0,1-1,1.29Zm-17.47-2H58.19L50.38,21.51Z"/><path d="M40.69,49.16H4.46a1,1,0,0,1-.8-.41,1,1,0,0,1-.15-.9l9.71-30a1,1,0,0,1,.95-.69H50.4a1,1,0,0,1,.81.41,1,1,0,0,1,.15.9l-9.71,30A1,1,0,0,1,40.69,49.16Zm-34.85-2H40l9.06-28H14.9Z"/><path d="M17,21.15a1,1,0,0,1-1-1V15.83a1,1,0,0,1,2,0v4.32A1,1,0,0,1,17,21.15Z"/><path d="M24.28,21.15a1,1,0,0,1-1-1V15.83a1,1,0,1,1,2,0v4.32A1,1,0,0,1,24.28,21.15Z"/><path d="M31.57,21.15a1,1,0,0,1-1-1V15.83a1,1,0,1,1,2,0v4.32A1,1,0,0,1,31.57,21.15Z"/><path d="M38.86,21.15a1,1,0,0,1-1-1V15.83a1,1,0,1,1,2,0v4.32A1,1,0,0,1,38.86,21.15Z"/><path d="M46.15,21.15a1,1,0,0,1-1-1V15.83a1,1,0,1,1,2,0v4.32A1,1,0,0,1,46.15,21.15Z"/></g></svg>