<svg id="Lineal" xmlns="http://www.w3.org/2000/svg" viewBox="0 0 64 64"><title>Lineal_Expand</title><g id="_4" data-name="4"><path d="M42.39,58.5H21.61L17.1,33.17,21.61,7.84H42.39L46.9,33.17Zm-19.11-2H40.72l4.15-23.33L40.72,9.84H23.28L19.13,33.17Z"/><path d="M32,48.05A14.88,14.88,0,1,1,46.88,33.17,14.89,14.89,0,0,1,32,48.05Zm0-27.76A12.88,12.88,0,1,0,44.88,33.17,12.9,12.9,0,0,0,32,20.29Z"/><path d="M32,44.84A11.67,11.67,0,1,1,43.67,33.17,11.69,11.69,0,0,1,32,44.84ZM32,23.5a9.67,9.67,0,1,0,9.67,9.67A9.68,9.68,0,0,0,32,23.5Z"/><path d="M32,34.17a1,1,0,0,1-1-1V25.68a1,1,0,0,1,2,0v7.49A1,1,0,0,1,32,34.17Z"/><path d="M28.41,38.45a1,1,0,0,1-.76-1.65l3.58-4.27a1,1,0,0,1,1.41-.12,1,1,0,0,1,.13,1.4l-3.59,4.28A1,1,0,0,1,28.41,38.45Z"/><circle cx="32" cy="33.17" r="1.72"/><path d="M32,35.39a2.22,2.22,0,1,1,2.22-2.22A2.21,2.21,0,0,1,32,35.39ZM32,32a1.22,1.22,0,1,0,1.22,1.22A1.22,1.22,0,0,0,32,32Z"/></g></svg>