<svg id="Lineal" xmlns="http://www.w3.org/2000/svg" viewBox="0 0 64 64"><defs><style>.cls-1{fill:none;stroke:#000;stroke-miterlimit:10;stroke-width:2px;}</style></defs><title>Lineal_Expand</title><g id="_12" data-name="12"><path d="M54.16,29.69l-.55-1.61A21.81,21.81,0,0,0,36.32,13.56l-1.68-.26,1-1.35A12.82,12.82,0,1,1,55.3,28.43ZM38.4,11.93A23.75,23.75,0,0,1,54.85,25.75,10.82,10.82,0,0,0,38.4,11.93Z"/><path d="M11.36,30.77l-1.18-.95a12.68,12.68,0,0,1-4.79-10,12.82,12.82,0,0,1,23.18-7.56l.89,1.23L28,13.84A21.85,21.85,0,0,0,11.76,29.31ZM18.21,9A10.83,10.83,0,0,0,7.39,19.84a10.7,10.7,0,0,0,2.93,7.4A23.85,23.85,0,0,1,26,12.3,10.93,10.93,0,0,0,18.21,9Z"/><path d="M32.88,39.07a3.79,3.79,0,0,1-2.48-.91,3.85,3.85,0,1,1,2.48.91Zm0-5.7a1.85,1.85,0,0,0-1.19,3.26,1.79,1.79,0,0,0,1.19.44,1.85,1.85,0,0,0,0-3.7Z"/><path d="M32.88,59.15A24,24,0,0,1,9,35.22a23.42,23.42,0,0,1,.89-6.45A23.92,23.92,0,0,1,55.5,27.43a23.55,23.55,0,0,1,1.31,7.79A24,24,0,0,1,32.88,59.15Zm0-45.86a22.37,22.37,0,0,0-4.9.55A21.85,21.85,0,0,0,11.76,29.31,21.51,21.51,0,0,0,11,35.22a21.93,21.93,0,0,0,43.86,0,21.73,21.73,0,0,0-1.19-7.13h0A21.81,21.81,0,0,0,36.32,13.56,22.44,22.44,0,0,0,32.88,13.29Zm0,40.55a18.62,18.62,0,0,1-3.18-37,19.27,19.27,0,0,1,4.54-.22,18.62,18.62,0,0,1-1.36,37.19Zm0-35.24a16.92,16.92,0,0,0-2.84.24A16.52,16.52,0,0,0,16.66,31.62a15.89,15.89,0,0,0-.4,3.6A16.62,16.62,0,1,0,34.1,18.65C33.7,18.62,33.29,18.6,32.88,18.6Z"/><path class="cls-1" d="M50,30.91a17.61,17.61,0,0,0-15.8-13.26c-.42,0-.86,0-1.29,0a17.63,17.63,0,0,0-17.2,13.8,17.2,17.2,0,0,0-.42,3.82A17.62,17.62,0,1,0,50,30.91ZM32.88,38.07a2.85,2.85,0,0,1,0-5.7,2.85,2.85,0,0,1,0,5.7Z"/><path d="M32.88,39.07a3.79,3.79,0,0,1-2.48-.91,3.85,3.85,0,1,1,2.48.91Zm0-5.7a1.85,1.85,0,0,0-1.19,3.26,1.79,1.79,0,0,0,1.19.44,1.85,1.85,0,0,0,0-3.7Z"/><path d="M32.88,36.22a1,1,0,0,1-1-1V21.62a1,1,0,0,1,2,0v13.6A1,1,0,0,1,32.88,36.22Z"/><path d="M27,43.28a1,1,0,0,1-.64-.24,1,1,0,0,1-.13-1.4l5.93-7.06a1,1,0,1,1,1.53,1.28l-5.92,7.06A1,1,0,0,1,27,43.28Z"/><path d="M35.73,35.22a2.85,2.85,0,0,1-2.85,2.85,2.85,2.85,0,0,1,0-5.7A2.85,2.85,0,0,1,35.73,35.22Z"/><path d="M32.88,38.57a3.35,3.35,0,1,1,3.35-3.35A3.32,3.32,0,0,1,32.88,38.57Zm0-5.7a2.35,2.35,0,1,0,2.35,2.35A2.35,2.35,0,0,0,32.88,32.87Z"/></g></svg>