<svg id="Lineal" xmlns="http://www.w3.org/2000/svg" viewBox="0 0 64 64"><title>Lineal_Expand</title><g id="_10" data-name="10"><path d="M49.56,57.73H16.44a5.84,5.84,0,0,1-5.83-5.83V18.77a5.83,5.83,0,0,1,5.83-5.83H49.56a5.83,5.83,0,0,1,5.83,5.83V51.9A5.84,5.84,0,0,1,49.56,57.73ZM16.44,14.94a3.83,3.83,0,0,0-3.83,3.83V51.9a3.83,3.83,0,0,0,3.83,3.83H49.56a3.83,3.83,0,0,0,3.83-3.83V18.77a3.83,3.83,0,0,0-3.83-3.83Z"/><path d="M33.18,51.79A16.71,16.71,0,1,1,49.89,35.08,16.73,16.73,0,0,1,33.18,51.79Zm0-31.42A14.71,14.71,0,1,0,47.89,35.08,14.73,14.73,0,0,0,33.18,20.37Z"/><path d="M33.18,36.08a1,1,0,0,1-1-1V23a1,1,0,1,1,2,0V35.08A1,1,0,0,1,33.18,36.08Z"/><path d="M27.9,42.37a1,1,0,0,1-.77-1.64l5.28-6.29a1,1,0,1,1,1.53,1.28L28.66,42A1,1,0,0,1,27.9,42.37Z"/><circle cx="33.18" cy="35.08" r="2.54"/><path d="M33.18,38.12a3,3,0,1,1,3-3A3,3,0,0,1,33.18,38.12Zm0-5.08a2,2,0,1,0,2,2A2,2,0,0,0,33.18,33Z"/><path d="M37.6,14.94H28.4a2.59,2.59,0,0,1-2.58-2.58V9.7A2.59,2.59,0,0,1,28.4,7.12h9.2A2.59,2.59,0,0,1,40.18,9.7v2.66A2.59,2.59,0,0,1,37.6,14.94ZM28.4,9.12a.58.58,0,0,0-.58.58v2.66a.58.58,0,0,0,.58.58h9.2a.58.58,0,0,0,.58-.58V9.7a.58.58,0,0,0-.58-.58Z"/></g></svg>