<svg id="Lineal" xmlns="http://www.w3.org/2000/svg" viewBox="0 0 64 64"><title>Lineal_Expand</title><g id="_11" data-name="11"><path d="M52.48,55.56H14.72a4.42,4.42,0,0,1-3.17-1.31,4.47,4.47,0,0,1-1.32-3.18l0-39a1,1,0,0,1,1-1H56a1,1,0,0,1,.7.29,1,1,0,0,1,.3.71l-.05,39A4.49,4.49,0,0,1,52.48,55.56ZM12.28,13.1l0,38a2.49,2.49,0,0,0,2.49,2.49H52.48A2.49,2.49,0,0,0,55,51.08l0-38Z"/><path d="M56,24.81H11.23a1,1,0,0,1-.71-.29,1,1,0,0,1-.29-.71l0-11.71a1,1,0,0,1,1-1H56a1,1,0,0,1,1,1L57,23.81A1,1,0,0,1,56,24.81Zm-43.73-2H55l0-9.71H12.28Z"/><path d="M15.79,15.77a1,1,0,0,1-1-1V9.44a1,1,0,1,1,2,0v5.33A1,1,0,0,1,15.79,15.77Z"/><path d="M24.79,15.77a1,1,0,0,1-1-1V9.44a1,1,0,1,1,2,0v5.33A1,1,0,0,1,24.79,15.77Z"/><path d="M33.79,15.77a1,1,0,0,1-1-1V9.44a1,1,0,1,1,2,0v5.33A1,1,0,0,1,33.79,15.77Z"/><path d="M42.79,15.77a1,1,0,0,1-1-1V9.44a1,1,0,1,1,2,0v5.33A1,1,0,0,1,42.79,15.77Z"/><path d="M51.79,15.77a1,1,0,0,1-1-1V9.44a1,1,0,1,1,2,0v5.33A1,1,0,0,1,51.79,15.77Z"/><path d="M25.64,37.1H17.77a1,1,0,0,1-1-1V29.19a1,1,0,0,1,1-1h7.87a1,1,0,0,1,1,1V36.1A1,1,0,0,1,25.64,37.1Zm-6.87-2h5.87V30.19H18.77Z"/><path d="M37.73,37.1H29.85a1,1,0,0,1-1-1V29.19a1,1,0,0,1,1-1h7.88a1,1,0,0,1,1,1V36.1A1,1,0,0,1,37.73,37.1Zm-6.88-2h5.88V30.19H30.85Z"/><path d="M25.64,47.71H17.77a1,1,0,0,1-1-1V39.79a1,1,0,0,1,1-1h7.87a1,1,0,0,1,1,1v6.92A1,1,0,0,1,25.64,47.71Zm-6.87-2h5.87V40.79H18.77Z"/><path d="M37.73,47.71H29.85a1,1,0,0,1-1-1V39.79a1,1,0,0,1,1-1h7.88a1,1,0,0,1,1,1v6.92A1,1,0,0,1,37.73,47.71Zm-6.88-2h5.88V40.79H30.85Z"/><path d="M49.94,37.1H42.06a1,1,0,0,1-1-1V29.19a1,1,0,0,1,1-1h7.88a1,1,0,0,1,1,1V36.1A1,1,0,0,1,49.94,37.1Zm-6.88-2h5.88V30.19H43.06Z"/><path d="M49.94,47.71H42.06a1,1,0,0,1-1-1V39.79a1,1,0,0,1,1-1h7.88a1,1,0,0,1,1,1v6.92A1,1,0,0,1,49.94,47.71Zm-6.88-2h5.88V40.79H43.06Z"/></g></svg>