<svg id="Lineal" xmlns="http://www.w3.org/2000/svg" viewBox="0 0 64 64"><title>Lineal_Expand</title><g id="_7" data-name="7"><path d="M29.68,57.77a9.9,9.9,0,0,1-9.5-7,1,1,0,0,1,.15-.89,1,1,0,0,1,.8-.41H38.22a1,1,0,0,1,.81.41,1,1,0,0,1,.15.89A9.9,9.9,0,0,1,29.68,57.77Zm-7.06-6.29a8,8,0,0,0,14.12,0Z"/><path d="M29.68,14a1,1,0,0,1-1-1V7.22a1,1,0,1,1,2,0V13A1,1,0,0,1,29.68,14Z"/><path d="M14.85,42a1,1,0,0,1-.68-.27,1,1,0,0,1-.32-.73V27.46a15.43,15.43,0,0,1,26.27-11,1,1,0,0,1,.12,1.27A7.12,7.12,0,0,0,44,28.55a1,1,0,0,1,.7.95V41a1,1,0,0,1-.31.73,1,1,0,0,1-.76.27l-.38,0h-28l-.38,0Zm1-2H42.71V30.21a9.11,9.11,0,0,1-4.57-12.84A13.43,13.43,0,0,0,15.85,27.46Z"/><path d="M15.3,51.48h-.45a1,1,0,0,1-1-1,1,1,0,0,1,1.08-1h.37a1,1,0,1,1,0,2Z"/><path d="M43.71,51.48h-.45a1,1,0,0,1,0-2h.38a1,1,0,0,1,1.07,1v0A1,1,0,0,1,43.71,51.48Z"/><path d="M43.26,51.48h-28l-.52,0a5.72,5.72,0,0,1-5.22-5.72,5.66,5.66,0,0,1,1.69-4.05A5.76,5.76,0,0,1,14.76,40l.54,0h28a4.28,4.28,0,0,1,.52,0,5.74,5.74,0,0,1,3.54,9.77,5.78,5.78,0,0,1-3.51,1.66ZM15.3,42l-.38,0a3.76,3.76,0,0,0-2.26,1.08A3.74,3.74,0,0,0,15,49.47H43.64A3.74,3.74,0,0,0,47,45.74,3.71,3.71,0,0,0,43.62,42l-.36,0Z"/><path d="M46.12,30.86a9.3,9.3,0,0,1-2.7-.4,9.14,9.14,0,1,1,2.7.4Zm0-16.22A7.12,7.12,0,0,0,44,28.55a7.24,7.24,0,0,0,2.11.31,7.11,7.11,0,1,0,0-14.22Z"/><path d="M46.13,22.76a1,1,0,0,1-1-1V16.25a1,1,0,0,1,2,0v5.51A1,1,0,0,1,46.13,22.76Z"/><path d="M43.4,26a1,1,0,0,1-.64-.24,1,1,0,0,1-.12-1.41l2.72-3.25a1,1,0,0,1,1.53,1.29l-2.72,3.25A1,1,0,0,1,43.4,26Z"/></g></svg>