<?xml version="1.0" encoding="UTF-8"?>
<!DOCTYPE svg PUBLIC "-//W3C//DTD SVG 1.1//EN" "http://www.w3.org/Graphics/SVG/1.1/DTD/svg11.dtd">
<!-- Creator: CorelDRAW -->
<svg xmlns="http://www.w3.org/2000/svg" xml:space="preserve" width="2048px" height="2048px" style="shape-rendering:geometricPrecision; text-rendering:geometricPrecision; image-rendering:optimizeQuality; fill-rule:evenodd; clip-rule:evenodd"
viewBox="0 0 2048 2048"
 xmlns:xlink="http://www.w3.org/1999/xlink">
 <defs>
  <style type="text/css">
   <![CDATA[
    .fil4 {fill:none}
    .fil1 {fill:#FFB300}
    .fil3 {fill:#FFCA28}
    .fil2 {fill:#43A047;fill-rule:nonzero}
    .fil0 {fill:#5D4037;fill-rule:nonzero}
   ]]>
  </style>
 </defs>
 <g id="Layer_x0020_1">
  <metadata id="CorelCorpID_0Corel-Layer"/>
  <polygon class="fil0" points="1166.17,1101.67 1166.17,860.103 1230.17,860.103 1230.17,1101.67 "/>
  <polygon class="fil0" points="1463.92,1026.46 1463.92,784.884 1527.93,784.884 1527.93,1026.46 "/>
  <path class="fil1" d="M1747.77 1088.58c-160.177,-25.3394 -329.959,-15.5835 -482.55,41.6622 -38.4166,14.4118 -75.6804,31.8591 -111.194,52.4233l-9.463 5.48032 -8.54292 -6.82678c-17.1992,-13.7445 -34.7788,-27.0142 -52.6807,-39.8292l-19.4516 -13.9252 20.2973 -12.6602c46.7835,-29.178 96.5351,-53.3894 148.148,-72.7524 167.79,-62.9481 353.959,-74.3445 530.164,-46.4717l15.8114 2.50158 -14.7437 92.8961 -15.7949 -2.49803z"/>
  <path class="fil1" d="M1748.45 1222.72c-140.747,-20.5252 -290.998,-11.0327 -424.35,40.7044 -19.0666,7.39725 -37.7906,15.6756 -56.0658,24.8563l-10.6228 5.33622 -8.17442 -8.63268c-14.713,-15.5339 -29.9138,-30.6059 -45.541,-45.2197l-16.2496 -15.1961 19.5768 -10.5685c26.8654,-14.5028 54.6626,-27.2516 83.1237,-38.2949 148.438,-57.5918 314.908,-69.0461 471.678,-46.1847l15.7772 2.30079 -13.265 93.2162 -15.887 -2.31732z"/>
  <path class="fil2" d="M1490.51 289.722c43.9737,0 81.3792,35.2335 106.3,92.1993 21.4169,48.9544 34.6654,115.779 34.6654,188.864 0,73.0831 -13.2484,139.909 -34.6654,188.864 -24.9213,56.9646 -62.3268,92.1981 -106.3,92.1981 -43.9737,0 -81.3792,-35.2335 -106.3,-92.1993 -21.4181,-48.9544 -34.6666,-115.78 -34.6666,-188.863 0,-73.0831 13.2484,-139.91 34.6666,-188.864 24.9213,-56.9646 62.3245,-92.1993 106.3,-92.1993z"/>
  <path class="fil2" d="M1198.17 452.576c38.6811,0 71.2926,30.3307 92.745,79.3654 17.948,41.0244 29.0504,96.8954 29.0504,157.88 0,60.9851 -11.1024,116.855 -29.0504,157.88 -21.4524,49.0335 -54.0638,79.3642 -92.745,79.3642 -38.68,0 -71.2926,-30.3307 -92.745,-79.3654 -17.948,-41.0256 -29.0516,-96.8942 -29.0516,-157.879 0,-60.9851 11.1024,-116.855 29.0516,-157.88 21.4524,-49.0347 54.0626,-79.3654 92.745,-79.3654z"/>
  <path class="fil3" d="M285.986 868.237c14.4839,-1.83898 29.0256,-3.23622 43.5981,-4.14803 107.776,-6.73701 220.011,10.1173 323.876,38.3563 116.354,31.6335 230.082,79.6394 334.546,139.779 19.1232,11.0091 37.9914,22.4634 56.5725,34.3654 212.646,136.213 409.484,346.333 442.526,606.55 1.61811,12.7465 2.88071,25.5437 3.68268,38.3693l1.00158 16.0264 -93.9686 5.52874 -0.994489 -15.9095c-0.672048,-10.7599 -1.6441,-21.5067 -3.00118,-32.2016 -29.3398,-231.142 -212.028,-418.672 -400.072,-539.125 -12.9709,-8.30906 -26.0918,-16.3866 -39.3485,-24.2327 -98.4934,-58.2934 -206.197,-105.047 -316.436,-135.954 -96.704,-27.1122 -202.133,-43.878 -302.739,-37.5898 -12.5055,0.780709 -25.0028,1.88977 -37.4327,3.46654l-15.8776 2.01496 -11.7992 -93.2812 15.8658 -2.01378zm0.328347 252.496c132.756,-16.1221 283.09,19.2248 405.32,69.9319 128.699,53.3918 256.049,135.421 347.368,241.26 36.2953,42.0662 67.5615,88.7528 90.2351,139.57 21.2209,47.5595 34.5048,97.8166 37.9028,149.848l1.04528 16.0063 -93.9579 5.89371 -1.04055 -15.9236c-2.66693,-40.7989 -13.2024,-80.1957 -29.8418,-117.488 -18.9083,-42.3756 -45.2563,-81.3166 -75.5127,-116.385 -81.7701,-94.7705 -197.103,-168.034 -312.297,-215.823 -107.157,-44.4544 -241.539,-77.4969 -358.068,-63.3461l-15.9343 1.93583 -11.0504 -93.5587 15.8303 -1.92166zm0 -123.737c11.5595,-1.40433 23.1685,-2.43307 34.787,-3.19134 185.302,-12.1004 394.245,50.7603 557.345,135.516 26.4213,13.7303 52.3713,28.3772 77.7497,43.9512 186.084,114.193 364.983,294.147 392.49,520.752 1.10197,9.07914 1.91811,18.1949 2.51221,27.3225l1.04291 16.0028 -93.9568 5.89371 -1.03937 -15.9236c-0.483071,-7.39843 -1.21063,-14.7839 -2.10354,-22.1433 -23.8087,-196.162 -187.818,-353.29 -348.031,-451.608 -19.4941,-11.9622 -39.3485,-23.3398 -59.5123,-34.1351 -150.719,-80.7012 -347.946,-142.944 -520.519,-131.675 -9.8941,0.646063 -19.7681,1.58858 -29.6114,2.78268l-15.9331 1.93465 -11.0504 -93.5576 15.8303 -1.92166z"/>
 </g>
 <rect class="fil4" width="2048" height="2048"/>
</svg>
