<?xml version="1.0" encoding="UTF-8"?>
<!DOCTYPE svg PUBLIC "-//W3C//DTD SVG 1.1//EN" "http://www.w3.org/Graphics/SVG/1.1/DTD/svg11.dtd">
<!-- Creator: CorelDRAW -->
<svg xmlns="http://www.w3.org/2000/svg" xml:space="preserve" width="2048px" height="2048px" style="shape-rendering:geometricPrecision; text-rendering:geometricPrecision; image-rendering:optimizeQuality; fill-rule:evenodd; clip-rule:evenodd"
viewBox="0 0 2048 2048"
 xmlns:xlink="http://www.w3.org/1999/xlink">
 <defs>
  <style type="text/css">
   <![CDATA[
    .fil4 {fill:none}
    .fil2 {fill:#661804}
    .fil1 {fill:#CB4400}
    .fil0 {fill:#D56830}
    .fil3 {fill:#FFC399}
   ]]>
  </style>
 </defs>
 <g id="Layer_x0020_1">
  <metadata id="CorelCorpID_0Corel-Layer"/>
  <g id="_343540712">
   <polygon id="_343543856" class="fil0" points="605.292,604.711 255.999,1072.04 307.679,1110.61 420.499,959.666 420.499,1742.19 420.499,1774.46 452.768,1774.46 1595.23,1774.46 1627.5,1774.46 1627.5,1742.19 1627.5,959.666 1740.32,1110.61 1792,1072.04 1442.71,604.711 1436.78,598.661 1043.92,289.23 1024,273.544 1004.08,289.23 611.216,598.661 "/>
   <g>
    <polygon id="_343544024" class="fil1" points="1570.06,1774.46 1595.23,1774.46 1627.5,1774.46 1627.5,1742.19 1627.5,959.666 1627.5,851.952 1570.06,775.104 "/>
    <polygon id="_343543376" class="fil1" points="1455.19,1774.46 1512.63,1774.46 1512.63,698.256 1455.19,621.408 "/>
    <polygon id="_343543112" class="fil1" points="1340.31,1774.46 1397.75,1774.46 1397.75,567.917 1340.31,522.678 "/>
    <polygon id="_343543760" class="fil1" points="1225.44,1774.46 1282.87,1774.46 1282.87,477.439 1225.44,432.2 "/>
    <polygon id="_343543088" class="fil1" points="1110.56,1774.46 1168,1774.46 1168,386.96 1110.56,341.72 "/>
    <polygon id="_343543592" class="fil1" points="995.685,1774.46 1053.12,1774.46 1053.12,296.482 1043.92,289.23 1024,273.544 1004.08,289.23 995.685,295.845 "/>
    <polygon id="_343542536" class="fil1" points="880.81,1774.46 938.247,1774.46 938.247,341.085 880.81,386.324 "/>
    <polygon id="_343542392" class="fil1" points="765.934,1774.46 823.372,1774.46 823.372,431.562 765.934,476.802 "/>
    <polygon id="_343542368" class="fil1" points="651.058,1774.46 708.497,1774.46 708.497,522.041 651.058,567.28 "/>
    <polygon id="_343542968" class="fil1" points="593.621,620.325 536.183,697.173 536.183,1774.46 593.621,1774.46 "/>
    <polygon id="_343542296" class="fil1" points="478.745,774.022 421.308,850.869 421.308,1774.46 452.768,1774.46 478.745,1774.46 "/>
   </g>
   <polygon id="_343542248" class="fil2" points="1436.78,598.661 1043.92,289.23 1024,273.544 1004.08,289.23 611.216,598.661 605.292,604.711 255.999,1072.04 307.679,1110.61 420.499,959.666 420.499,959.714 605.292,712.472 611.216,706.423 1004.08,396.991 1024,381.305 1043.92,396.991 1436.78,706.423 1442.71,712.472 1627.5,959.714 1627.5,959.666 1740.32,1110.61 1792,1072.04 1442.71,604.711 "/>
   <g>
    <rect id="_343542152" class="fil3" x="876.748" y="598.489" width="295.312" height="295.312"/>
    <rect id="_343542080" class="fil2" x="897.93" y="619.671" width="252.948" height="252.948"/>
    <rect id="_343542224" class="fil3" transform="matrix(0.771612 0.771612 -5.58688 5.58688 1146.02 609.556)" width="19.4114" height="46.2154"/>
    <rect id="_343541600" class="fil3" transform="matrix(-0.771612 0.771612 5.58688 5.58688 902.792 609.556)" width="19.4114" height="46.2154"/>
   </g>
   <g>
    <g>
     <rect id="_343541960" class="fil3" x="681.001" y="1236.59" width="295.312" height="537.866"/>
     <rect id="_343541480" class="fil2" x="702.183" y="1257.68" width="252.948" height="516.772"/>
     <polygon id="_343541408" class="fil3" points="953.93,1241.54 972.275,1252.13 699.008,1774.46 680.664,1763.87 "/>
     <polygon id="_343540952" class="fil3" points="699.01,1241.54 680.665,1252.13 953.932,1774.46 972.276,1763.87 "/>
    </g>
    <g>
     <rect id="_343541120" class="fil3" x="1072.83" y="1236.59" width="295.312" height="537.866"/>
     <rect id="_343541168" class="fil2" x="1094.01" y="1257.68" width="252.948" height="516.772"/>
     <polygon id="_343540448" class="fil3" points="1345.76,1241.54 1364.11,1252.13 1090.84,1774.46 1072.5,1763.87 "/>
     <polygon id="_343540400" class="fil3" points="1090.84,1241.54 1072.5,1252.13 1345.76,1774.46 1364.11,1763.87 "/>
    </g>
   </g>
  </g>
 </g>
 <rect class="fil4" width="2048" height="2048"/>
</svg>
