<?xml version="1.0" encoding="UTF-8"?>
<!DOCTYPE svg PUBLIC "-//W3C//DTD SVG 1.1//EN" "http://www.w3.org/Graphics/SVG/1.1/DTD/svg11.dtd">
<!-- Creator: CorelDRAW -->
<svg xmlns="http://www.w3.org/2000/svg" xml:space="preserve" width="2048px" height="2048px" style="shape-rendering:geometricPrecision; text-rendering:geometricPrecision; image-rendering:optimizeQuality; fill-rule:evenodd; clip-rule:evenodd"
viewBox="0 0 2048 2048"
 xmlns:xlink="http://www.w3.org/1999/xlink">
 <defs>
  <style type="text/css">
   <![CDATA[
    .fil4 {fill:none}
    .fil0 {fill:#263238}
    .fil1 {fill:#455A64}
    .fil2 {fill:#883D28;fill-rule:nonzero}
    .fil3 {fill:#CB7800;fill-rule:nonzero}
   ]]>
  </style>
 </defs>
 <g id="Layer_x0020_1">
  <metadata id="CorelCorpID_0Corel-Layer"/>
  <g id="_343545152">
   <g>
    <path id="_343545944" class="fil0" d="M1568.81 1524.71l-48.9201 0c-9.96497,0 -18.1169,8.15316 -18.1169,18.1169l0 2.7189 85.154 0 0 -2.7189c0,-9.96379 -8.15197,-18.1169 -18.1169,-18.1169z"/>
    <rect id="_343545752" class="fil0" x="1535.06" y="1488.92" width="18.5708" height="43.9358"/>
    <circle id="_343546088" class="fil0" cx="1544.35" cy="1492.41" r="13.525"/>
    <g>
     <ellipse id="_343545512" class="fil0" cx="1581.15" cy="1492.41" rx="36.8063" ry="13.0318"/>
     <ellipse id="_343545704" class="fil0" cx="1507.54" cy="1492.41" rx="36.8063" ry="13.0318"/>
    </g>
    <path id="_343544936" class="fil1" d="M1383.56 1540.35l224.371 0c48.3709,0 87.9461,39.5764 87.9461,87.9461l0 24.626 -58.141 0 0 -8.77678c0,-24.1866 -19.787,-43.9737 -43.9725,-43.9737l-13.4693 0c-1.61339,8.53229 -17.0894,15.2268 -35.9469,15.2268 -18.8587,0 -34.3347,-6.69449 -35.9481,-15.2268l-124.839 0 0 -59.8217z"/>
    <rect id="_343545056" class="fil1" x="1629.36" y="1652.19" width="74.2004" height="13.0345" rx="6.51733" ry="6.51733"/>
   </g>
   <path id="_343545200" class="fil2" d="M1536.96 1032.41c-0.425197,136.687 -21.0638,272.394 -61.5296,407.138l-9.9945 32.0008c-32.9894,101.825 -77.2997,203.099 -132.791,303.831l-9.15946 16.6252 -18.841 0 -96.7111 0 -33.1843 0 -218.047 0 -32.0008 0 -218.047 0 -33.1843 0 -96.7123 0 -18.841 0 -9.15946 -16.6252c-55.4918,-100.732 -99.802,-202.005 -132.791,-303.831l-9.9945 -32.0008c-40.4658,-134.744 -61.1044,-270.451 -61.5296,-407.138 -0.393307,-126.359 16.5142,-253.345 51.0107,-380.97l0.18189 -0.670867 0.18189 -0.672048 0.914174 -3.35551 0.183071 -0.672048 0.184252 -0.670867 0.184252 -0.672048 0.185433 -0.670867 0.184252 -0.670867 0.185433 -0.672048 0.558662 -2.01378 0.186614 -0.672048 0.937796 -3.3567 0.188977 -0.672048 0.377953 -1.34291 0.190158 -0.670867 0.190158 -0.672048 0.762993 -2.68583 0.191339 -0.672048 0.191339 -0.670867 0.0295276 -0.105118 0.355512 -1.2378 0.193701 -0.672048 0.00944883 -0.0318898 1.34882 -4.67008 0.196063 -0.672048 0.0330709 -0.116929 0.162992 -0.553937 0.196063 -0.672048 1.38189 -4.70197 0.198425 -0.672048 0.0165354 -0.0590552 0.183071 -0.612993 0.0011811 -0.00354331c0.596457,-2.01496 1.19646,-4.03111 1.80473,-6.04371l10.0016 -32.0008 1.34646 -4.13977 0.191339 -0.585827 0.0791339 -0.242126 1.0878 -3.31181 0.272835 -0.827953 0.113386 -0.343701 0.16063 -0.484252 0.274016 -0.827953 0.82441 -2.48386 0.276378 -0.827953 0.0330709 -0.101575 0.243307 -0.726379 0.277559 -0.829134 0.833859 -2.48386 0.231496 -0.687402 0.0484252 -0.140551 0.106299 -0.317717 0.733465 -2.16732 0.281103 -0.827953 0.281103 -0.829134 0.151181 -0.445276 0.131102 -0.382677 0.282284 -0.827953 0.283465 -0.829134 0.283465 -0.827953 0.283465 -0.829134 0.284646 -0.827953 0.068504 -0.201969 0.216142 -0.625985 0.285827 -0.829134 0.285827 -0.827953 0.287008 -0.829134 0.287008 -0.827953 0.575197 -1.65709 0.288189 -0.829134 0.28937 -0.827953 0.28937 -0.829134 0.28937 -0.827953 0.290551 -0.829134 0.290551 -0.829134 0.291733 -0.827953 0.291733 -0.829134 0.292914 -0.827953 0.292914 -0.829134 0.106299 -0.303544 0.186614 -0.525591 0.294095 -0.827953 0.589371 -1.65827 0.295276 -0.829134 0.295276 -0.827953 0.0212599 -0.0614174 0.275197 -0.767717 0.296457 -0.829134 0.297638 -0.829134 0.297638 -0.827953 0.298819 -0.829134c30.1796,-83.8005 67.9335,-167.871 113.345,-252.221l9.08741 -16.8756 19.0382 0 96.8363 0 33.0957 0 218.012 0 32.0008 0 218.012 0 33.0957 0 96.8351 0 19.0382 0 9.08741 16.8756c45.4193,84.3497 83.1674,168.423 113.345,252.221l0.298819 0.829134 0.297638 0.827953 0.297638 0.829134 0.296457 0.829134 0.275197 0.767717 0.0212599 0.0614174 0.295276 0.827953 0.295276 0.829134 0.589371 1.65827 0.294095 0.827953 0.186614 0.525591 0.106299 0.303544 0.292914 0.829134 0.292914 0.827953 0.291733 0.829134 0.291733 0.827953 0.290551 0.829134 0.290551 0.829134 0.28937 0.827953 0.28937 0.829134 0.28937 0.827953 0.288189 0.829134 0.575197 1.65709 0.287008 0.827953 0.287008 0.829134 0.285827 0.827953 0.285827 0.829134 0.216142 0.625985 0.068504 0.201969 0.284646 0.827953 0.283465 0.829134 0.283465 0.827953 0.283465 0.829134 0.282284 0.827953 0.131102 0.382677 0.151181 0.445276 0.281103 0.829134 0.281103 0.827953 0.733465 2.16732 0.106299 0.317717 0.0484252 0.140551 0.231496 0.687402 0.833859 2.48386 0.277559 0.829134 0.243307 0.726379 0.0330709 0.101575 0.276378 0.827953 0.82441 2.48386 0.274016 0.827953 0.16063 0.484252 0.113386 0.343701 0.272835 0.827953 1.0878 3.31181 0.0791339 0.242126 0.191339 0.585827 1.34646 4.13977 10.0016 32.0008c0.605906,2.01496 1.20709,4.02992 1.80473,6.04371l0.0011811 0.00354331 0.183071 0.612993 0.0165354 0.0590552 0.198425 0.672048 1.38189 4.70197 0.196063 0.672048 0.162992 0.553937 0.0330709 0.116929 0.196063 0.672048 1.34882 4.67008 0.00944883 0.0318898 0.193701 0.672048 0.355512 1.2378 0.0295276 0.105118 0.191339 0.670867 0.191339 0.672048 0.762993 2.68583 0.190158 0.672048 0.190158 0.670867 0.377953 1.34291 0.188977 0.672048 0.937796 3.3567 0.186614 0.672048 0.558662 2.01378 0.185433 0.672048 0.184252 0.670867 0.185433 0.670867 0.184252 0.672048 0.184252 0.670867 0.183071 0.672048 0.914174 3.35551 0.18189 0.672048 0.18189 0.670867c34.4953,127.624 51.3957,254.614 51.0107,380.97z"/>
   <path id="_343544744" class="fil3" d="M1484.66 1407.54c-2.95394,10.6724 -6.02835,21.339 -9.23032,31.9996l-9.9945 32.0008c-3.45709,10.6724 -7.04174,21.339 -10.748,31.9996l-148.375 0c-16.7811,97.1871 -38.6185,193.461 -65.1426,288.456l-33.2374 0 -33.1843 0 -33.2799 0 2.51103 -8.78977c26.3044,-92.0717 48.0567,-185.413 64.9075,-279.666l-220.186 0 0 288.456 -31.9996 0 -32.0008 0 -31.9996 0 0 -288.456 -220.186 0c16.8508,94.2532 38.6032,187.595 64.9075,279.666l2.51103 8.78977 -33.2799 0 -33.1843 0 -33.2374 0c-26.524,-94.995 -48.3615,-191.269 -65.1426,-288.456l-148.376 0c-3.7063,-10.6606 -7.29095,-21.3272 -10.748,-31.9996l-9.9945 -32.0008c-3.20197,-10.6606 -6.27638,-21.3272 -9.23032,-31.9996l163.435 0c-17.1567,-124.115 -25.7008,-249.285 -25.9099,-374.602 -0.218504,-131.299 8.87245,-262.444 26.8547,-392.488l-162.658 0 0.119291 -0.431103 0.937796 -3.3567 0.188977 -0.672048 0.377953 -1.34291 0.190158 -0.670867 0.190158 -0.672048 0.762993 -2.68583 0.191339 -0.672048 0.191339 -0.670867 0.0295276 -0.105118 0.355512 -1.2378 0.193701 -0.672048 0.00944883 -0.0318898 1.34882 -4.67008 0.196063 -0.672048 0.0330709 -0.116929 0.162992 -0.553937 0.196063 -0.672048 1.38189 -4.70197 0.198425 -0.672048 0.0165354 -0.0590552 0.183071 -0.612993 0.0011811 -0.00354331c0.596457,-2.01496 1.19646,-4.03111 1.80473,-6.04371l10.0016 -32.0008 1.34646 -4.13977 0.191339 -0.585827 0.0791339 -0.242126 1.0878 -3.31181 0.272835 -0.827953 0.113386 -0.343701 0.16063 -0.484252 0.274016 -0.827953 0.82441 -2.48386 0.276378 -0.827953 0.0330709 -0.101575 0.243307 -0.726379 0.277559 -0.829134 0.833859 -2.48386 0.231496 -0.687402 0.0484252 -0.140551 0.106299 -0.317717 0.733465 -2.16732 0.281103 -0.827953 0.281103 -0.829134 0.151181 -0.445276 0.131102 -0.382677 0.282284 -0.827953 0.283465 -0.829134 0.283465 -0.827953 0.283465 -0.829134 0.284646 -0.827953 0.068504 -0.201969 0.216142 -0.625985 0.285827 -0.829134 0.285827 -0.827953 0.287008 -0.829134 0.183071 -0.529134 147.588 0c16.7457,-97.1304 38.3516,-193.389 64.3701,-288.456l33.1878 0 33.0957 0 33.2268 0 -2.40945 8.61733c-25.7823,92.2028 -47.2796,185.588 -64.0749,279.839l219.269 0 0 -288.456 31.9996 0 32.0008 0 31.9996 0 0 288.456 219.269 0c-16.7953,-94.2509 -38.2925,-187.636 -64.0749,-279.839l-2.40945 -8.61733 33.2268 0 33.0957 0 33.1878 0c26.0185,95.067 47.6244,191.326 64.3701,288.456l147.587 0 0.183071 0.529134 0.287008 0.829134 0.285827 0.827953 0.285827 0.829134 0.216142 0.625985 0.068504 0.201969 0.284646 0.827953 0.283465 0.829134 0.283465 0.827953 0.283465 0.829134 0.282284 0.827953 0.131102 0.382677 0.151181 0.445276 0.281103 0.829134 0.281103 0.827953 0.733465 2.16732 0.106299 0.317717 0.0484252 0.140551 0.231496 0.687402 0.833859 2.48386 0.277559 0.829134 0.243307 0.726379 0.0330709 0.101575 0.276378 0.827953 0.82441 2.48386 0.274016 0.827953 0.16063 0.484252 0.113386 0.343701 0.272835 0.827953 1.0878 3.31181 0.0791339 0.242126 0.191339 0.585827 1.34646 4.13977 10.0016 32.0008c0.605906,2.01496 1.20709,4.02992 1.80473,6.04371l0.0011811 0.00354331 0.183071 0.612993 0.0165354 0.0590552 0.198425 0.672048 1.38189 4.70197 0.196063 0.672048 0.162992 0.553937 0.0330709 0.116929 0.196063 0.672048 1.34882 4.67008 0.00944883 0.0318898 0.193701 0.672048 0.355512 1.2378 0.0295276 0.105118 0.191339 0.670867 0.191339 0.672048 0.762993 2.68583 0.190158 0.672048 0.190158 0.670867 0.377953 1.34291 0.188977 0.672048 0.937796 3.3567 0.119291 0.431103 -162.657 0c17.9823,130.044 27.0732,261.189 26.8547,392.488 -0.209055,125.317 -8.75316,250.487 -25.9099,374.602l163.434 0zm-826.653 -767.09c-18.6059,129.959 -28.0855,261.088 -27.867,392.381 0.209055,125.387 9.03426,250.608 26.928,374.709l235.632 0 0 -767.09 -234.693 0zm330.694 767.09l235.632 0c17.8937,-124.101 26.7189,-249.321 26.928,-374.709 0.218504,-131.294 -9.26103,-262.422 -27.867,-392.381l-234.693 0 0 767.09z"/>
  </g>
 </g>
 <rect class="fil4" width="2048" height="2048"/>
</svg>
