<?xml version="1.0" encoding="UTF-8"?>
<!DOCTYPE svg PUBLIC "-//W3C//DTD SVG 1.1//EN" "http://www.w3.org/Graphics/SVG/1.1/DTD/svg11.dtd">
<!-- Creator: CorelDRAW -->
<svg xmlns="http://www.w3.org/2000/svg" xml:space="preserve" width="2048px" height="2048px" style="shape-rendering:geometricPrecision; text-rendering:geometricPrecision; image-rendering:optimizeQuality; fill-rule:evenodd; clip-rule:evenodd"
viewBox="0 0 2048 2048"
 xmlns:xlink="http://www.w3.org/1999/xlink">
 <defs>
  <style type="text/css">
   <![CDATA[
    .fil3 {fill:none}
    .fil2 {fill:#C7799E}
    .fil0 {fill:#43A047;fill-rule:nonzero}
    .fil1 {fill:#A9336B;fill-rule:nonzero}
   ]]>
  </style>
 </defs>
 <g id="Layer_x0020_1">
  <metadata id="CorelCorpID_0Corel-Layer"/>
  <g id="_343546568">
   <path id="_343547480" class="fil0" d="M1047.92 676.59c-30.2233,-150.032 -6.88938,-280.084 32.4957,-351.291 13.415,-24.254 29.1957,-42.8115 46.1079,-54.43 21.1701,-14.5441 43.9347,-18.8043 66.7583,-11.1614 19.761,6.62008 37.8898,22.4008 52.6961,48.5552 30.9768,-5.23111 55.3193,-4.65591 73.656,0.960237 29.2902,8.97048 44.9681,28.1799 48.7678,55.8768 2.82992,20.6398 -2.57008,45.3839 -15.0083,73.2615 -29.8925,67.0016 -104.673,161.57 -202.495,262.811l-40.9288 -39.3733c0.151181,0.764174 0.295276,1.5248 0.45,2.29016l-62.4993 12.5008z"/>
   <path id="_343546808" class="fil0" d="M937.575 664.089c0.154725,-0.765355 0.3,-1.52599 0.45,-2.29016l-40.9288 39.3733c-97.8225,-101.241 -172.603,-195.809 -202.495,-262.811 -12.4382,-27.8776 -17.8382,-52.6217 -15.0083,-73.2615 3.79961,-27.6969 19.4776,-46.9063 48.7678,-55.8768 18.3366,-5.61615 42.6792,-6.19134 73.656,-0.960237 14.8063,-26.1544 32.9351,-41.9351 52.6961,-48.5552 22.8236,-7.64292 45.5882,-3.38268 66.7583,11.1614 16.9122,11.6185 32.6929,30.176 46.1079,54.43 39.3851,71.2064 62.7189,201.259 32.4957,351.291l-62.4993 -12.5008z"/>
   <path id="_343546256" class="fil1" d="M1096.13 1666.5c-13.6536,45.8634 -27.6544,92.8926 -61.578,118.871l-30.4831 23.3433 -17.3917 -34.3429c-20.7567,-40.9926 -33.2422,-75.5741 -43.813,-104.856 -12.6721,-35.1024 -22.1669,-61.3973 -40.5437,-79.128 -399.931,-385.866 -399.024,-660.252 -249.619,-815.102 89.4036,-92.6635 232.892,-140.354 375.166,-142.315 142.506,-1.96299 285.174,41.9965 372.622,132.631 146.086,151.41 139.973,426.86 -272.456,824.786 -12.9697,12.5126 -22.3299,43.9548 -31.9028,76.1127z"/>
   <path id="_343546136" class="fil2" d="M1229.03 1198.2c57.5977,-1.20118 117.856,-15.5539 180.058,-39.5197 15.6496,-6.04961 23.4343,-23.6445 17.3835,-39.2953 -6.04961,-15.6508 -23.6445,-23.4355 -39.2953,-17.3847 -55.9063,21.541 -109.326,34.4268 -159.337,35.4685 -48.3166,1.0063 -93.7926,-9.14174 -135.656,-33.4453 -14.5335,-8.41654 -33.1406,-3.45945 -41.5583,11.074 -8.41654,14.5335 -3.45945,33.1406 11.074,41.5583 51.9733,30.1713 108.041,42.7784 167.33,41.5441z"/>
   <path id="_343546664" class="fil2" d="M903.387 1400.97c44.0977,-1.11024 89.8524,-14.2063 136.82,-36.0638 13.676,-6.36497 19.6004,-22.6134 13.2354,-36.2894 -6.36615,-13.6748 -22.6146,-19.6004 -36.2894,-13.2343 -40.6843,18.9331 -79.291,30.2528 -115.048,31.1516 -34.2189,0.861024 -66.4642,-7.84607 -96.2009,-28.6973 -12.3189,-8.60552 -29.2855,-5.59489 -37.891,6.72402 -8.60552,12.3189 -5.59489,29.2855 6.72402,37.891 39.9012,27.978 83.0127,39.6662 128.649,38.5181z"/>
  </g>
 </g>
 <rect class="fil3" width="2048" height="2048"/>
</svg>
