<?xml version="1.0" encoding="UTF-8"?>
<!DOCTYPE svg PUBLIC "-//W3C//DTD SVG 1.1//EN" "http://www.w3.org/Graphics/SVG/1.1/DTD/svg11.dtd">
<!-- Creator: CorelDRAW -->
<svg xmlns="http://www.w3.org/2000/svg" xml:space="preserve" width="2048px" height="2048px" style="shape-rendering:geometricPrecision; text-rendering:geometricPrecision; image-rendering:optimizeQuality; fill-rule:evenodd; clip-rule:evenodd"
viewBox="0 0 2048 2048"
 xmlns:xlink="http://www.w3.org/1999/xlink">
 <defs>
  <style type="text/css">
   <![CDATA[
    .fil3 {fill:none}
    .fil1 {fill:#FFB300}
    .fil2 {fill:#FFEDBE}
    .fil0 {fill:#66BB6A;fill-rule:nonzero}
   ]]>
  </style>
 </defs>
 <g id="Layer_x0020_1">
  <metadata id="CorelCorpID_0Corel-Layer"/>
  <path class="fil0" d="M541.463 1064.7c9.3756,-71.2914 6.40158,-128.839 -1.73977,-173.882 -15.5091,-85.8024 -47.2618,-122.042 -47.7331,-122.517l-1.00039 -1.12441c-5.98937,-6.60709 -10.5673,-14.1697 -13.6784,-22.213 -3.11811,-8.06457 -4.81063,-16.7433 -5.0067,-25.5142l-0.125197 -0.624804 0 -2.03622 0.125197 -0.624804c0.145276,-6.25158 0.96378,-12.2693 2.46614,-17.8701 1.50354,-5.61024 3.77126,-11.2264 6.81851,-16.7043l0.00944883 0.00590552c8.09056,-14.6457 20.3965,-25.1008 34.4422,-30.4229 14.8878,-5.64331 31.3843,-5.54292 46.826,1.30748l-0.0200788 0.0472441c114.34,50.2406 181.857,145.065 221,228.794 38.3693,82.0784 49.4906,153.741 50.4957,160.449 11.9138,69.2847 16.3004,137.654 20.3788,201.262 10.5591,164.659 18.8362,293.678 166.299,293.678 151.98,0 160.898,-131.203 172.231,-297.976 4.26024,-62.7024 8.82993,-129.917 20.5784,-198.092 0.924804,-6.24922 12.0225,-77.3835 50.3244,-158.96 39.1418,-83.3658 106.697,-177.976 221.084,-228.181l0.00590552 0.0129921c15.4595,-6.8504 31.9311,-6.91772 46.7552,-1.27441 14.0185,5.33859 26.3717,15.8421 34.4953,30.4831l0.125197 0.124016c7.52835,13.6819 10.3358,29.3244 8.68701,44.2678 -1.65,14.9445 -7.77402,29.4177 -18.111,40.8331 -6.69213,8.00788 -77.2548,96.4394 -50.6433,297.503l0.250394 1.87559c24.7134,338.181 -95.3068,553.689 -258.669,655.545 -81.1465,50.5949 -172.915,73.0146 -263.204,68.4662 -90.3638,-4.55197 -179.172,-36.0709 -254.316,-93.3414 -149.126,-113.654 -244.392,-328.25 -189.15,-633.297z"/>
  <path class="fil1" d="M1367.61 733.138c-43.6052,42.3957 -77.6729,93.6367 -103.454,148.546 -23.0646,49.1256 -41.7343,105.315 -50.3244,158.961 -10.5036,65.5926 -16.0784,131.855 -20.5784,198.092 -3.51378,51.704 -6.25749,104.009 -16.6193,154.898 -7.78465,38.2382 -21.0839,79.1729 -49.9134,106.899 -28.8107,27.7087 -66.8422,36.1784 -105.698,36.1784 -37.2059,0 -73.6158,-8.1189 -101.336,-34.5177 -28.539,-27.1795 -41.524,-67.7245 -49.0595,-105.392 -10.1067,-50.5288 -12.6142,-102.454 -15.9036,-153.768 -4.31575,-67.2957 -9.66142,-134.639 -20.3788,-201.262 -8.73898,-54.3225 -27.2173,-110.655 -50.4957,-160.449 -26.8736,-57.4878 -62.7874,-110.994 -109.188,-154.558l-11.8618 -11.1366 2.01024 -16.1457c11.2429,-90.3107 34.6524,-181.448 78.2197,-261.858 51.6331,-95.2961 134.947,-197.282 250.63,-208.702 91.2308,-9.00709 170.157,41.9504 230.438,105.61 94.4599,99.7524 137.224,238.184 152.986,371.916l1.84843 15.6803 -11.3209 11.0079z"/>
  <g id="_343549040">
   <path id="_343551320" class="fil2" d="M880.335 447.045c20.6162,0 37.3288,-16.7138 37.3288,-37.3311 0,-20.6162 -16.7126,-37.3288 -37.3288,-37.3288 -20.6185,0 -37.3323,16.7126 -37.3323,37.3288 0,20.6173 16.7138,37.3311 37.3323,37.3311z"/>
   <path id="_343550888" class="fil2" d="M1013.4 447.045c20.6162,0 37.3288,-16.7138 37.3288,-37.3311 0,-20.6162 -16.7126,-37.3288 -37.3288,-37.3288 -20.6173,0 -37.3299,16.7126 -37.3299,37.3288 0,20.6173 16.7126,37.3311 37.3299,37.3311z"/>
   <path id="_343550768" class="fil2" d="M1146.46 447.045c20.6173,0 37.3311,-16.7138 37.3311,-37.3311 0,-20.6162 -16.7138,-37.3288 -37.3311,-37.3288 -20.6162,0 -37.3288,16.7126 -37.3288,37.3288 0,20.6173 16.7126,37.3311 37.3288,37.3311z"/>
   <path id="_343550744" class="fil2" d="M1253.64 521.709c0,-20.6173 -16.7138,-37.3311 -37.3311,-37.3311 -20.6162,0 -37.3299,16.7138 -37.3299,37.3311 0,20.6162 16.7138,37.3288 37.3299,37.3288 20.6173,0 37.3311,-16.7126 37.3311,-37.3288z"/>
   <path id="_343551032" class="fil2" d="M1091.54 559.037c20.6162,0 37.3288,-16.7126 37.3288,-37.3288 0,-20.6173 -16.7126,-37.3311 -37.3288,-37.3311 -20.6173,0 -37.3299,16.7138 -37.3299,37.3311 0,20.6162 16.7126,37.3288 37.3299,37.3288z"/>
   <path id="_343551488" class="fil2" d="M958.478 559.037c20.615,0 37.3299,-16.7126 37.3299,-37.3288 0,-20.6173 -16.715,-37.3311 -37.3299,-37.3311 -20.6173,0 -37.3311,16.7138 -37.3311,37.3311 0,20.6162 16.7138,37.3288 37.3311,37.3288z"/>
   <path id="_343551464" class="fil2" d="M825.413 559.037c20.6162,0 37.3311,-16.7126 37.3311,-37.3288 0,-20.6173 -16.715,-37.3311 -37.3311,-37.3311 -20.6185,0 -37.3299,16.7138 -37.3299,37.3311 0,20.6162 16.7114,37.3288 37.3299,37.3288z"/>
   <path id="_343550072" class="fil2" d="M825.413 683.913c20.6162,0 37.3311,-16.7126 37.3311,-37.3299 0,-20.6162 -16.715,-37.3311 -37.3311,-37.3311 -20.6185,0 -37.3299,16.715 -37.3299,37.3311 0,20.6173 16.7114,37.3299 37.3299,37.3299z"/>
   <path id="_343550432" class="fil2" d="M958.478 683.913c20.615,0 37.3299,-16.7126 37.3299,-37.3299 0,-20.6162 -16.715,-37.3311 -37.3299,-37.3311 -20.6173,0 -37.3311,16.715 -37.3311,37.3311 0,20.6173 16.7138,37.3299 37.3311,37.3299z"/>
   <path id="_343550024" class="fil2" d="M1091.54 683.913c20.6162,0 37.3288,-16.7126 37.3288,-37.3299 0,-20.6162 -16.7126,-37.3311 -37.3288,-37.3311 -20.6173,0 -37.3299,16.715 -37.3299,37.3311 0,20.6173 16.7126,37.3299 37.3299,37.3299z"/>
   <path id="_343550648" class="fil2" d="M1216.31 683.913c20.6173,0 37.3311,-16.7126 37.3311,-37.3299 0,-20.6162 -16.7138,-37.3311 -37.3311,-37.3311 -20.6162,0 -37.3299,16.715 -37.3299,37.3311 0,20.6173 16.7138,37.3299 37.3299,37.3299z"/>
   <path id="_343550192" class="fil2" d="M1253.64 771.458c0,-20.6162 -16.7138,-37.3299 -37.3311,-37.3299 -20.6162,0 -37.3299,16.7138 -37.3299,37.3299 0,20.6173 16.7138,37.3299 37.3299,37.3299 20.6173,0 37.3311,-16.7126 37.3311,-37.3299z"/>
   <path id="_343550480" class="fil2" d="M1091.54 808.788c20.6162,0 37.3288,-16.7126 37.3288,-37.3299 0,-20.6162 -16.7126,-37.3299 -37.3288,-37.3299 -20.6173,0 -37.3299,16.7138 -37.3299,37.3299 0,20.6173 16.7126,37.3299 37.3299,37.3299z"/>
   <path id="_343550264" class="fil2" d="M958.478 808.788c20.615,0 37.3299,-16.7126 37.3299,-37.3299 0,-20.6162 -16.715,-37.3299 -37.3299,-37.3299 -20.6173,0 -37.3311,16.7138 -37.3311,37.3299 0,20.6173 16.7138,37.3299 37.3311,37.3299z"/>
   <path id="_343550528" class="fil2" d="M825.413 808.788c20.6162,0 37.3311,-16.7126 37.3311,-37.3299 0,-20.6162 -16.715,-37.3299 -37.3311,-37.3299 -20.6185,0 -37.3299,16.7138 -37.3299,37.3299 0,20.6173 16.7114,37.3299 37.3299,37.3299z"/>
   <path id="_343549832" class="fil2" d="M958.478 933.663c20.615,0 37.3299,-16.715 37.3299,-37.3299 0,-20.6185 -16.715,-37.3311 -37.3299,-37.3311 -20.6173,0 -37.3311,16.7126 -37.3311,37.3311 0,20.615 16.7138,37.3299 37.3311,37.3299z"/>
   <path id="_343549664" class="fil2" d="M1091.54 933.663c20.6162,0 37.3288,-16.715 37.3288,-37.3299 0,-20.6185 -16.7126,-37.3311 -37.3288,-37.3311 -20.6173,0 -37.3299,16.7126 -37.3299,37.3311 0,20.615 16.7126,37.3299 37.3299,37.3299z"/>
   <path id="_343549352" class="fil2" d="M958.478 1081.67c20.615,0 37.3299,-16.715 37.3299,-37.3311 0,-20.6162 -16.715,-37.3299 -37.3299,-37.3299 -20.6173,0 -37.3311,16.7138 -37.3311,37.3299 0,20.6162 16.7138,37.3311 37.3311,37.3311z"/>
   <path id="_343549808" class="fil2" d="M1091.54 1081.67c20.6162,0 37.3288,-16.715 37.3288,-37.3311 0,-20.6162 -16.7126,-37.3299 -37.3288,-37.3299 -20.6173,0 -37.3299,16.7138 -37.3299,37.3299 0,20.6162 16.7126,37.3311 37.3299,37.3311z"/>
   <path id="_343549280" class="fil2" d="M1091.54 1230.99c20.6162,0 37.3288,-16.7138 37.3288,-37.3311 0,-20.6173 -16.7126,-37.3299 -37.3288,-37.3299 -20.6173,0 -37.3299,16.7126 -37.3299,37.3299 0,20.6173 16.7126,37.3311 37.3299,37.3311z"/>
   <path id="_343549880" class="fil2" d="M958.478 1230.99c20.615,0 37.3299,-16.7138 37.3299,-37.3311 0,-20.6173 -16.715,-37.3299 -37.3299,-37.3299 -20.6173,0 -37.3311,16.7126 -37.3311,37.3299 0,20.6173 16.7138,37.3311 37.3311,37.3311z"/>
   <path id="_343549400" class="fil2" d="M958.478 1417.64c20.615,0 37.3299,-16.7126 37.3299,-37.3288 0,-20.6173 -16.715,-37.3311 -37.3299,-37.3311 -20.6173,0 -37.3311,16.7138 -37.3311,37.3311 0,20.6162 16.7138,37.3288 37.3311,37.3288z"/>
   <path id="_343549952" class="fil2" d="M1091.54 1417.64c20.6162,0 37.3288,-16.7126 37.3288,-37.3288 0,-20.6173 -16.7126,-37.3311 -37.3288,-37.3311 -20.6173,0 -37.3299,16.7138 -37.3299,37.3311 0,20.6162 16.7126,37.3288 37.3299,37.3288z"/>
  </g>
 </g>
 <rect class="fil3" width="2048" height="2048"/>
</svg>
