<?xml version="1.0" encoding="UTF-8"?>
<!DOCTYPE svg PUBLIC "-//W3C//DTD SVG 1.1//EN" "http://www.w3.org/Graphics/SVG/1.1/DTD/svg11.dtd">
<!-- Creator: CorelDRAW -->
<svg xmlns="http://www.w3.org/2000/svg" xml:space="preserve" width="2048px" height="2048px" style="shape-rendering:geometricPrecision; text-rendering:geometricPrecision; image-rendering:optimizeQuality; fill-rule:evenodd; clip-rule:evenodd"
viewBox="0 0 2048 2048"
 xmlns:xlink="http://www.w3.org/1999/xlink">
 <defs>
  <style type="text/css">
   <![CDATA[
    .fil6 {fill:none}
    .fil9 {fill:#212121}
    .fil3 {fill:#A9410A}
    .fil7 {fill:#ABA69A}
    .fil5 {fill:#C38777}
    .fil0 {fill:#CBC5B6}
    .fil2 {fill:#DED7C6}
    .fil11 {fill:#F57C00}
    .fil1 {fill:#FB8C00}
    .fil4 {fill:#FFAC97}
    .fil10 {fill:#FFCA28}
    .fil8 {fill:#FFFFFE}
    .fil12 {fill:#424242;fill-rule:nonzero}
    .fil13 {fill:#FFB300;fill-rule:nonzero}
   ]]>
  </style>
 </defs>
 <g id="Layer_x0020_1">
  <metadata id="CorelCorpID_0Corel-Layer"/>
  <g id="_343551632">
   <g>
    <path id="_343556240" class="fil0" d="M776.825 1170.42c0,0 10.6913,38.2961 -18.3402,73.9725l-6.68859 148.285 -17.0327 19.6937c0,0 2.12835,48.437 -5.85473,46.3075l-87.293 2.12953c0,0 8.51575,-40.4528 43.6465,-68.1308l18.1689 -29.3953 -17.4697 -151.422c-14.8394,-38.1331 -49.3205,-120.81 -77.341,-198.476 -11.8358,-32.8051 149.956,154.683 168.204,157.036z"/>
    <path id="_343556552" class="fil1" d="M736.121 1410.8l-1.35827 1.56969c0,0 2.12835,48.437 -5.85473,46.3075l-87.2918 2.12953c0,0 6.98032,-33.1642 34.3796,-59.9823l60.1252 9.9756z"/>
   </g>
   <path id="_343556168" class="fil2" d="M446.544 866.6c0,0 -16.9595,-22.2874 -37.3087,-5.32914 0,0 -32.4638,-16.474 -48.4536,-1.93701 0,0 -10.8059,26.0693 -49.7386,14.2453 0,0 -9.85867,-0.680315 -24.3957,-7.46339 0,0 -2.66339,-11.8689 -7.26615,-15.0201 0,0 -15.5079,-4.11733 -23.2583,-16.9583 0,0 -4.60394,-30.2823 42.3957,-68.5619l42.1548 -52.8142c0,0 0.972048,-16.9583 8.96694,-25.9217 0,0 0.726379,-25.4386 20.1071,-37.0666l20.3504 -22.5307 1.21181 -12.5976 11.387 -6.78426 2.42244 -17.2016c0,0 -1.45276,-4.84489 10.6595,-4.84489l13.8095 0.242126 3.39213 -2.17914 8.2382 0 -0.242126 4.60276 18.8965 0 1.45276 5.32914c0,0 23.015,-1.21181 20.3504,-0.484252 -9.84922,2.69173 222.062,71.3835 354.249,41.9138 0,0 156.474,-2.94331 261.768,18.8232 0,0 345.47,6.75119 405.705,-23.3669 0,0 131.355,-2.51339 171.356,51.6036 0,0 69.5847,8.63268 69.5847,129.103l-4.65709 198.17c22.0217,15.4807 43.728,50.9079 43.728,50.9079 -2.05512,5.49685 -21.3012,-13.474 -21.3012,-13.474 5.08701,1.92402 24.7453,47.2902 24.7453,47.2902 13.7469,37.3925 -4.40197,70.6607 -4.40197,70.6607 -2.19921,-9.21024 -6.18662,-8.66103 -6.18662,-8.66103 0.823229,20.6209 -12.9225,34.9193 -12.9225,34.9193 7.42442,-17.5961 0.549213,-40.6926 0.549213,-40.6926 -13.1965,24.7453 -5.22284,57.4642 -5.22284,57.4642 -18.1465,-13.4717 -12.9236,-53.4768 -12.9236,-53.4768 10.1728,-38.7685 -12.3756,-62.413 -12.3756,-62.413 9.34961,37.6677 -17.8713,74.7839 -17.8713,74.7839 15.2421,-25.7138 1.65,-92.9292 1.65,-92.9292 -7.02875,-17.5725 3.75,-60.9296 4.1126,-62.3741l-2.36929 -146.925c0,0 -1.17756,-120.589 -20.589,-100 0,0 -38.739,153.718 -26.4685,265.881 0,0 18.8291,88.2367 34.1233,109.414 0,0 5.29489,19.4091 -34.7044,125.294l-17.0587 75.8847 -7.05827 72.9414c-6.61418,9.07324 -14.563,16.8118 -23.5299,23.5288l-4.04292 53.6741 -109.413 1.76457c0,0 1.76575,-59.4119 74.1178,-104.706 0,0 19.9358,-60.9579 14.7095,-138.236l-17.0575 -42.9426 -101.96 142.205c-23.4721,-7.04174 -29.4603,45.4288 -17.4473,80.7379 0,0 -6.68859,-10.8555 3.31063,4.73268 0,0 6.47008,24.1181 -27.3532,19.9996l-87.3532 0c0,0 4.92284,-23.85 53.7473,-41.4981 0,0 24.7087,-12.3508 50.0032,-94.7044 0,0 23.9433,-62.1922 21.1772,-134.118 -7.20119,-0.3 -13.5248,-0.265748 -19.1728,-0.0259843l1.05118 28.1693c0.200788,5.38465 -4.04055,9.95434 -9.42639,10.1551l-0.0011811 0c-5.38465,0.200788 -9.95434,-4.03937 -10.1563,-9.4252l-1.01102 -27.1087c-1.79528,0.246851 -3.52087,0.500788 -5.17796,0.753544l0.767717 20.5559c0.157087,4.19646 -3.14764,7.75631 -7.3441,7.91339l-0.0011811 0c-4.19764,0.157087 -7.75749,-3.14646 -7.91457,-7.3441l-0.711024 -19.0417c-2.1248,0.187795 -4.22953,0.294095 -6.36378,0.288189l0.804331 21.541c0.200788,5.38583 -4.04055,9.95552 -9.42639,10.1575l0 0c-5.38583,0.200788 -9.95552,-4.04055 -10.1563,-9.42639l-0.957875 -25.6831c-3.00709,-0.993308 -6.22441,-2.22992 -9.73583,-3.77717l0.664961 17.8146c0.151181,4.0441 -3.03544,7.47638 -7.08071,7.62638l-0.0011811 0.0011811c-4.0441,0.15 -7.47638,-3.03544 -7.62756,-7.07953l-0.96378 -25.8461c-13.3772,-7.3063 -30.3036,-17.9634 -52.852,-33.3048 0,0 -124.593,65.1461 -321.854,31.3961 0,0 -65.4957,-13.1599 -100.201,8.60434 0,0 11.8146,42.3225 -20.2689,81.7489l-6.78426 152.955 -18.8244 21.7654c0,0 2.35276,53.53 -6.47008,51.1772l-96.4713 2.35276c0,0 9.41103,-44.7059 48.2351,-75.2953l20.0799 -32.4851 -25.3736 -134.574 -73.9855 -97.8438c-53.0386,-25.8012 -110.888,-123.808 -141.584,-189.23 -13.2307,-54.2965 -62.6422,-108.425 -123.206,-95.3883z"/>
   <path id="_343556480" class="fil0" d="M1581.92 1207.15c-25.8544,44.3457 -123.532,183.457 -119.407,222.943 0,0 -6.68859,-10.8567 3.31063,4.73268 0,0 6.47008,24.1169 -27.3532,19.9996l-87.3532 0c0,0 14.4095,-61.1764 63.2339,-78.8245 0,0 9.60237,2.79213 40.5166,-57.378 0,0 23.9433,-62.1922 21.1772,-134.118 -7.20119,-0.3 -13.5248,-0.265748 -19.1728,-0.0259843l1.05118 28.1693c0.200788,5.38465 -4.04055,9.95434 -9.42639,10.1551l-0.0011811 0c-5.38465,0.200788 -9.95434,-4.03937 -10.1563,-9.4252l-1.01102 -27.1087c-1.79528,0.246851 -3.52087,0.500788 -5.17796,0.753544l0.767717 20.5559c0.157087,4.19646 -3.14764,7.75631 -7.3441,7.91339l-0.0011811 0c-4.19764,0.157087 -7.75749,-3.14646 -7.91457,-7.3441l-0.711024 -19.0417c-2.1248,0.187795 -4.22953,0.294095 -6.36378,0.288189l0.804331 21.541c0.200788,5.38583 -4.04055,9.95552 -9.42639,10.1575l0 0c-5.38583,0.200788 -9.95552,-4.04055 -10.1563,-9.42639l-0.957875 -25.6831c-3.00709,-0.993308 -6.22441,-2.22992 -9.73583,-3.77717l0.664961 17.8146c0.151181,4.0441 -3.03544,7.47638 -7.08071,7.62638l-0.0011811 0.0011811c-4.0441,0.15 -7.47638,-3.03544 -7.62756,-7.07953l-0.96378 -25.8461 -2.03504 -1.12205c15.0165,-20.5075 29.9634,-34.6453 42.5492,-34.4091 45.1571,0.849213 175.303,67.9583 175.303,67.9583z"/>
   <path id="_343555616" class="fil3" d="M1739.68 1009.57c22.0217,15.4807 43.728,50.9079 43.728,50.9079 -2.05512,5.49685 -21.3012,-13.474 -21.3012,-13.474 5.08701,1.92402 24.7453,47.2902 24.7453,47.2902 13.7469,37.3925 -4.40197,70.6607 -4.40197,70.6607 -2.19921,-9.21024 -6.18662,-8.66103 -6.18662,-8.66103 0.823229,20.6209 -12.9225,34.9193 -12.9225,34.9193 7.42442,-17.5961 0.549213,-40.6926 0.549213,-40.6926 -13.1965,24.7453 -5.22284,57.4642 -5.22284,57.4642 -18.1465,-13.4717 -12.9236,-53.4768 -12.9236,-53.4768 10.1728,-38.7685 -12.3756,-62.413 -12.3756,-62.413 9.34961,37.6677 -17.8713,74.7839 -17.8713,74.7839 15.2421,-25.7138 1.65,-92.9292 1.65,-92.9292 -7.02875,-17.5725 3.75,-60.9296 4.1126,-62.3741l-0.00354331 -0.201969c12.4193,-6.55867 18.424,-1.80354 18.424,-1.80354z"/>
   <path id="_343555424" class="fil4" d="M1476.05 1184.5c-7.20119,-0.3 -13.5248,-0.265748 -19.1728,-0.0259843l1.05118 28.1693c0.200788,5.38465 -4.04055,9.95434 -9.42639,10.1551l-0.0011811 0c-5.38465,0.200788 -9.95434,-4.03937 -10.1563,-9.4252l-1.01102 -27.1087c-1.79528,0.246851 -3.52087,0.500788 -5.17796,0.753544l0.767717 20.5559c0.157087,4.19646 -3.14764,7.75631 -7.3441,7.91339l-0.0011811 0c-4.19764,0.157087 -7.75749,-3.14646 -7.91457,-7.3441l-0.711024 -19.0417c-2.1248,0.187795 -4.22953,0.294095 -6.36378,0.288189l0.804331 21.541c0.200788,5.38583 -4.04055,9.95552 -9.42639,10.1575l0 0c-5.38583,0.200788 -9.95552,-4.04055 -10.1563,-9.42639l-0.957875 -25.6831c-3.00709,-0.993308 -6.22441,-2.22992 -9.73583,-3.77717l0.664961 17.8146c0.151181,4.0441 -3.03544,7.47638 -7.08071,7.62638l-0.0011811 0.0011811c-4.0441,0.15 -7.47638,-3.03544 -7.62756,-7.07953l-0.96378 -25.8461c-13.0984,-7.15394 -29.602,-17.5228 -51.4524,-32.354 0,0 165.618,-24.3638 161.394,42.1359z"/>
   <path id="_343555952" class="fil1" d="M845.319 1437.89c0,0 2.35276,53.53 -6.47008,51.1772l-96.4713 2.35276c0,0 7.27796,-34.5473 35.4118,-63.6839l67.5296 10.1539z"/>
   <path id="_343555448" class="fil1" d="M1472.98 1392.77c1.42205,0 -15.0957,26.4697 -7.15276,42.0591 0,0 6.47008,24.1169 -27.3532,19.9996l-87.3532 0c0,0 14.4095,-61.1764 63.2339,-78.8245l58.6252 16.7658z"/>
   <path id="_343554872" class="fil1" d="M1623.61 1437.6l-4.04292 53.6741 -109.413 1.76457c0,0 0.967324,-32.3114 30.4902,-67.4445l82.9654 12.0059z"/>
   <path id="_343555136" class="fil2" d="M283.46 856.704l-0.0484252 -0.103937 -0.00354331 -0.00590552 -0.0519685 -0.109843 -0.0531496 -0.108662 -0.0425197 -0.0885827 -0.0106299 -0.0212599 -0.0531496 -0.108662 -0.0543308 -0.10748 -0.0354331 -0.0732284 -0.0188977 -0.0354331 -0.0543308 -0.10748 -0.0543308 -0.106299 -0.0295276 -0.0578741 -0.0259843 -0.0484252 -0.0555119 -0.106299 -0.056693 -0.106299 -0.022441 -0.0425197 -0.034252 -0.0625985 -0.056693 -0.103937 -0.056693 -0.103937 -0.0165354 -0.0283465 -0.158268 -0.279921 -0.00826772 -0.0141732 -0.0507874 -0.0874016 -0.0590552 -0.101575 -0.0590552 -0.0992127 0 -0.0011811 -0.0602363 -0.0992127 -0.0602363 -0.0980316 -0.0531496 -0.0862205 -0.00708662 -0.011811 -0.0614174 -0.0980316 -0.0614174 -0.0968505 -0.046063 -0.0708662 -0.0153543 -0.0248032 -0.0625985 -0.0944883 -0.0625985 -0.0944883 -0.0377953 -0.056693 -0.0248032 -0.0366142 -0.0637796 -0.0921261 -0.0637796 -0.090945 -0.0295276 -0.0437008 -0.034252 -0.0472441 -0.12874 -0.178347 -0.022441 -0.0295276 -0.0425197 -0.0578741 -0.0661418 -0.0874016 -0.0661418 -0.0850394 -0.0129921 -0.0177165 -0.0531496 -0.0673229 -0.0661418 -0.0838583 -0.0673229 -0.0826772 -0.00472441 -0.00590552 -0.0625985 -0.0755906 -0.131102 -0.153543 -0.00472441 -0.00590552 -0.19252 -0.214961 -0.0129921 -0.0153543 -0.13937 -0.147638 -0.0472441 -0.0484252 -0.0236221 -0.0236221 -0.140551 -0.13937 -0.0389764 -0.0377953 -0.0330709 -0.0307087 -0.142913 -0.132284 -0.0295276 -0.0259843 -0.0425197 -0.0377953 -0.0732284 -0.0625985 -0.0732284 -0.0614174 -0.0188977 -0.0165354 -0.0543308 -0.0437008 -0.147638 -0.114567 -0.0106299 -0.00826772 -0.0637796 -0.0472441 -0.15 -0.106299 -0.00354331 -0.0011811 -0.0011811 0 -0.00354331 -0.0011811 -0.00354331 -0.0011811 -0.00472441 -0.0011811 -0.00472441 -0.0011811 -0.00472441 -0.0011811 -0.00708662 -0.0011811 -0.00354331 -0.0011811 -0.00236221 -0.0011811 -0.00590552 -0.0011811 -0.00236221 -0.0011811 -0.00826772 -0.00236221 -0.00826772 -0.00236221 -0.00944883 -0.00236221 -0.00944883 -0.00236221 -0.0106299 -0.00354331 -0.00708662 -0.0011811 -0.00236221 -0.0011811 -0.00236221 0 -0.011811 -0.00354331 -0.011811 -0.00354331 -0.0129921 -0.00354331 -0.0141732 -0.00472441 -0.0141732 -0.00354331 -0.00590552 -0.00236221 -0.00826772 -0.00236221 -0.0153543 -0.00354331 -0.0165354 -0.00472441 -0.0165354 -0.00590552 -0.0177165 -0.00472441 -0.0177165 -0.00472441 -0.00472441 -0.00236221 -0.0129921 -0.00354331 -0.0188977 -0.00472441 -0.0200788 -0.00590552 -0.0200788 -0.00590552 -0.0200788 -0.00708662 -0.0212599 -0.00590552 -0.00354331 -0.0011811 -0.0188977 -0.00590552 -0.022441 -0.00590552 -0.022441 -0.00708662 -0.0236221 -0.00708662 -0.0236221 -0.00708662 -0.0248032 -0.00826772 -0.0259843 -0.00708662 -0.0248032 -0.00826772 -0.0271654 -0.00826772 -0.0259843 -0.00826772 -0.0271654 -0.00826772 -0.0248032 -0.00826772 -0.00354331 -0.0011811 -0.0283465 -0.00826772 -0.0295276 -0.00944883 -0.0295276 -0.00944883 -0.0295276 -0.00944883 -0.0307087 -0.00944883 -0.022441 -0.00826772 -0.00826772 -0.00236221 -0.0318898 -0.00944883 -0.0318898 -0.0106299 -0.0330709 -0.0106299 -0.0330709 -0.0106299 -0.0330709 -0.0106299 -0.0212599 -0.00708662 -0.0129921 -0.00472441 -0.034252 -0.011811 -0.0354331 -0.0106299 -0.0354331 -0.011811 -0.0366142 -0.0129921 -0.0366142 -0.011811 49.2213 -30.0614c0.312992,0.421654 0.622441,0.848032 0.930709,1.27559l-44.8347 34.7764z"/>
   <path id="_343554800" class="fil4" d="M349.297 871.658c-7.65945,4.61339 -19.7929,7.52835 -38.2536,1.92166 0,0 -9.85867,-0.680315 -24.3957,-7.46339 0,0 -2.66339,-11.8689 -7.26615,-15.0201 0,0 -15.5079,-4.11733 -23.2583,-16.9583 0,0 -3.26103,-21.4736 23.7709,-51.1122 31.741,14.6327 59.8489,41.204 69.4028,88.6324z"/>
   <path id="_343554968" class="fil5" d="M283.46 856.704c-1.10315,-2.34803 -2.47205,-4.50827 -4.07835,-5.60788 0,0 -0.452363,-0.119291 -1.23898,-0.382677l48.8752 -29.791c0.726379,0.177165 1.2248,0.49252 0.930709,1.27559l-44.4886 34.5059z"/>
   <path id="_343555016" class="fil3" d="M448.681 588.48l11.1921 0 1.45276 5.32914c0,0 23.015,-1.21181 20.3504,-0.484252 -3.40276,0.929528 22.0618,9.73938 62.2926,19.6559 0.705119,115.419 -9.94725,266.984 -127.282,136.623 -77.0753,-74.8607 1.91929,-140.428 31.9937,-161.124z"/>
   <path id="_343554536" class="fil6" d="M448.681 588.48l11.1921 0 1.45276 5.32914c0,0 23.015,-1.21181 20.3504,-0.484252 -0.151181,0.0413386 -0.243307,0.0980316 -0.281103,0.170079l-0.00354331 0.00590552c-0.034252,0.0708662 -0.0129921,0.159449 0.0578741,0.258662l0.00708662 0.011811c0.0744095,0.0992127 0.20315,0.212599 0.379134,0.337796l0.034252 0.0248032c0.18189,0.127559 0.414567,0.266929 0.694489,0.419292l0.0330709 0.0188977c0.282284,0.152362 0.612993,0.315355 0.989765,0.491339l0.102756 0.0484252c0.372048,0.172441 0.788977,0.354331 1.24725,0.548032l0.153543 0.0637796c0.464174,0.193701 0.966142,0.39567 1.51299,0.609449l0.187795 0.0732284c0.522048,0.201969 1.07835,0.412205 1.67244,0.63189l0.421654 0.154725c0.592914,0.216142 1.21654,0.440552 1.87441,0.672048l0.115748 0.0401575 0.0377953 0.0141732 0.20315 0.0696851c0.656693,0.229134 1.34764,0.465355 2.06575,0.708662l0.634252 0.21378 2.06221 0.681497 0.711024 0.231496 2.36457 0.755906 0.78189 0.246851c0.852757,0.26811 1.73386,0.542126 2.63977,0.819686l0.702756 0.214961 2.6374 0.797245 1.35354 0.402756 2.37874 0.699213 1.43504 0.416929 3.03898 0.871654 0.905906 0.256299c1.13268,0.320079 2.28662,0.644882 3.46772,0.972048l0.304725 0.0850394 0.334252 0.090945c1.32402,0.366142 2.67284,0.735827 4.05355,1.11024l0.151181 0.0413386 0.276378 0.0744095c1.22599,0.33189 2.4815,0.667323 3.75118,1.00394l1.40197 0.370866 3.61299 0.944883 1.17874 0.305906c1.36299,0.351969 2.75079,0.7063 4.1563,1.06181l0.487796 0.125197 0.405118 0.101575c1.38543,0.349607 2.79449,0.702756 4.21772,1.05473l1.24843 0.309449m-127.189 136.645c-77.0753,-74.8607 1.91929,-140.428 31.9937,-161.124"/>
   <path id="_343553816" class="fil2" d="M501.818 601.473c10.6748,3.29173 25.0736,7.29804 42.1477,11.5063 0.0779528,13.0276 0.0129921,26.5169 -0.334252,40.0087 -23.3055,22.9984 -45.9048,40.891 -45.9048,40.891l-30.9036 -16.6465c0,0 12.8398,-41.1945 34.9949,-75.7595z"/>
   <path id="_343554008" class="fil2" d="M466.823 677.233c0,0 44.1803,-141.784 110.075,-119.989 65.8938,21.7949 -79.1717,136.636 -79.1717,136.636 -14.9008,4.05 -25.5862,-0.696851 -30.9036,-16.6465z"/>
   <path id="_343553864" class="fil7" d="M483.878 676.59c1.48465,2.45433 3.32953,3.09213 6.69804,2.5252 18.5469,-14.9173 37.337,-32.2547 53.4508,-49.4162 9.91891,-10.5638 20.4886,-22.7764 27.7725,-35.3362 1.93347,-3.33425 7.66536,-14.3374 6.03898,-18.3933 -0.630709,-1.57323 -4.59804,-3.08504 -5.96457,-3.53622 -39.6981,-13.1303 -76.4256,70.5071 -87.9957,104.157z"/>
   <path id="_343554488" class="fil3" d="M1231.63 833.93c0,0 26.2347,-73.454 50.7166,-58.5886 0,0 27.9827,21.8634 13.1185,59.4615 0,0 62.9528,37.5969 26.2299,75.1997 -27.1335,88.6347 -269.568,-62.0504 -90.065,-76.0725z"/>
   <path id="_343553048" class="fil3" d="M1040.13 868.906c0,0 -69.515,94.0005 -128.541,113.239 0,0 25.3524,104.056 135.529,103.18 0,0 130.29,8.30906 156.088,-68.2064 0,0 -81.3201,-31.9146 -163.076,-148.213z"/>
   <path id="_343553576" class="fil3" d="M699.069 836.098c0,0 -67.3312,-16.6134 -48.9697,69.9556 0,0 -42.8433,150.401 87.4453,149.525 200.347,12.1169 42.1099,-140.878 -38.4756,-219.481z"/>
   <path id="_343553600" class="fil3" d="M761.533 642.559c26.5607,-0.141732 51.9201,-2.31024 74.393,-7.32048 0,0 156.474,-2.94331 261.768,18.8232 0,0 205.623,4.01457 327.253,-7.9819 18.7205,107.397 -98.0965,92.0847 -98.0965,92.0847 -15.737,5.24764 -87.4442,-36.7264 -87.4442,-36.7264 -96.1843,20.9858 -89.1875,106.681 -89.1875,106.681 -43.7197,34.9784 -129.417,-13.9925 -129.417,-13.9925 -26.2335,150.398 -148.65,138.161 -148.65,138.161 -129.025,-16.311 -117.195,-226.272 -110.619,-289.728z"/>
   <path id="_343553216" class="fil3" d="M1432.21 833.278c0,0 -67.3312,-16.6134 -48.9697,69.9556 0,0 -42.8433,150.401 87.4453,149.525 200.347,12.1169 42.1099,-140.878 -38.4756,-219.481z"/>
   <ellipse id="_343553360" class="fil2" transform="matrix(0.853488 -0.521112 0.521112 0.853488 418.256 678.409)" rx="21.124" ry="16.5933"/>
   <ellipse id="_343553024" class="fil8" transform="matrix(1.02416 -0.62532 0.62532 1.02416 418.256 678.409)" rx="13.1244" ry="8.59371"/>
   <ellipse id="_343552520" class="fil9" transform="matrix(0.609244 -0.371984 0.371984 0.609244 418.256 678.409)" rx="13.1244" ry="8.59371"/>
   <ellipse id="_343552808" class="fil5" cx="275.462" cy="814.227" rx="9.21851" ry="5.7815"/>
   <path id="_343552448" class="fil10" d="M461.014 915.4c-5.94804,-0.446457 -11.1319,4.01221 -11.5784,9.96024 -0.447638,5.94804 4.01221,11.1319 9.95906,11.5795 5.94804,0.446457 11.1319,-4.01221 11.5795,-9.96024 0.446457,-5.94804 -4.01221,-11.1319 -9.96024,-11.5795zm-0.37441 4.97835c-3.19843,-0.240945 -5.98583,2.15788 -6.22678,5.3563 -0.240945,3.19843 2.15788,5.98701 5.3563,6.22678 3.19843,0.240945 5.98701,-2.15788 6.22678,-5.3563 0.240945,-3.19843 -2.15669,-5.98701 -5.3563,-6.22678z"/>
   <circle id="_343552568" class="fil11" transform="matrix(-0.250396 -0.0188227 -0.0188226 0.250396 451.616 1040.42)" r="40.6252"/>
   <path id="_343552592" class="fil12" d="M630.723 655.558c-2.38583,-13.1906 6.37441,-25.8189 19.565,-28.2047 13.1906,-2.38583 25.8189,6.37441 28.2047,19.565 0.10748,0.590552 39.6591,206.349 -188.371,255.865 -13.1126,2.79803 -26.0138,-5.563 -28.8107,-18.6756 -2.79803,-13.1126 5.56182,-26.0138 18.6756,-28.8107 181.595,-39.4335 150.82,-199.279 150.736,-199.739z"/>
   <path id="_343552712" class="fil10" d="M459.589 934.373c46.3193,0.555119 16.0394,52.9052 42.0437,86.432 0,0 28.8213,30.1016 -14.2843,22.5331l-35.7485 -2.68701 -35.7496 -2.68701c-43.7516,1.03819 -10.7551,-24.4158 -10.7551,-24.4158 30.7252,-29.263 8.61142,-85.5509 54.4937,-79.1753z"/>
   <path id="_343551560" class="fil13" d="M480.465 879.076c1.28858,-2.3504 4.24134,-3.21142 6.59174,-1.92402 2.35158,1.28858 3.2126,4.24134 1.92402,6.59292l-24.5173 44.7579c-1.28858,2.35158 -4.24134,3.2126 -6.59174,1.92402 -2.35158,-1.28858 -3.2126,-4.24016 -1.92402,-6.59174l24.5173 -44.7591z"/>
  </g>
 </g>
 <rect class="fil6" width="2048" height="2048"/>
</svg>
