<?xml version="1.0" encoding="UTF-8"?>
<!DOCTYPE svg PUBLIC "-//W3C//DTD SVG 1.1//EN" "http://www.w3.org/Graphics/SVG/1.1/DTD/svg11.dtd">
<!-- Creator: CorelDRAW -->
<svg xmlns="http://www.w3.org/2000/svg" xml:space="preserve" width="2048px" height="2048px" style="shape-rendering:geometricPrecision; text-rendering:geometricPrecision; image-rendering:optimizeQuality; fill-rule:evenodd; clip-rule:evenodd"
viewBox="0 0 2048 2048"
 xmlns:xlink="http://www.w3.org/1999/xlink">
 <defs>
  <style type="text/css">
   <![CDATA[
    .fil7 {fill:none}
    .fil5 {fill:#45342E}
    .fil3 {fill:#5D4037}
    .fil0 {fill:#795548}
    .fil6 {fill:#45342E;fill-rule:nonzero}
    .fil4 {fill:#5D4037;fill-rule:nonzero}
    .fil1 {fill:#E65100;fill-rule:nonzero}
    .fil2 {fill:#EF6C00;fill-rule:nonzero}
   ]]>
  </style>
 </defs>
 <g id="Layer_x0020_1">
  <metadata id="CorelCorpID_0Corel-Layer"/>
  <g id="_343557296">
   <path id="_343559168" class="fil0" d="M1058.41 852.809l0 701.125 -70.8886 0 0 -701.125c23.6292,0 47.2595,0 70.8886,0z"/>
   <path id="_343558856" class="fil1" d="M994.281 1518.49l57.3733 0c20.4106,0 38.9492,8.33386 52.3725,21.7583 13.4256,13.4244 21.7583,31.963 21.7583,52.3737l0 62.6233 0 23.6303 -23.6292 0 -158.376 0 -23.6303 0 0 -23.6303 0 -62.6233c0,-20.4106 8.33386,-38.9492 21.7583,-52.3737 13.4244,-13.4244 31.963,-21.7583 52.3737,-21.7583z"/>
   <path id="_343558616" class="fil2" d="M888.631 1631.61l268.67 0c12.3555,0 23.5713,5.04095 31.6855,13.1551 8.11654,8.11654 13.1551,19.3335 13.1551,31.6855l0 70.7056c0,12.352 -5.03977,23.5689 -13.1563,31.6843l-0.0921261 0c-8.11654,8.11536 -19.3004,13.1563 -31.5922,13.1563l-268.67 0c-12.2433,0 -23.4284,-5.03859 -31.591,-13.1563l-0.0011811 0 -0.046063 -0.046063 -0.046063 -0.046063 0 -0.0011811c-8.11772,-8.1626 -13.1551,-19.3441 -13.1551,-31.591l0 -70.7056c0,-12.2917 5.03859,-23.478 13.1528,-31.5945l0 -0.0921261c8.11536,-8.11536 19.3335,-13.1539 31.6866,-13.1539z"/>
   <polygon id="_343558304" class="fil3" points="808.002,1167.3 1442.51,1167.3 1442.51,1238.19 808.002,1238.19 "/>
   <polygon id="_343558112" class="fil4" points="1404.39,1202.71 1364.47,1121.89 1333.25,1058.69 1396.23,1090.41 1577.06,1181.52 1618.82,1202.57 1577.06,1223.61 1395.53,1315.07 1331.97,1347.1 1363.87,1283.51 "/>
   <polygon id="_343557728" class="fil4" points="479.494,1111.24 728.365,1111.24 740.457,1114.65 853.58,1182.53 887.271,1202.74 853.58,1222.96 740.457,1290.83 728.365,1294.25 479.494,1294.25 429.174,1294.25 461.403,1255.57 505.426,1202.74 461.403,1149.92 429.174,1111.24 "/>
   <polygon id="_343557848" class="fil5" points="1442.51,1202.89 1442.51,1238.19 808.002,1238.19 808.002,1202.89 "/>
   <polygon id="_343558064" class="fil6" points="1618.18,1202.89 1577.06,1223.61 1395.53,1315.07 1331.97,1347.1 1363.87,1283.51 1404.3,1202.89 "/>
   <polygon id="_343558256" class="fil6" points="887.025,1202.89 853.58,1222.96 740.457,1290.83 728.365,1294.25 479.494,1294.25 429.174,1294.25 461.403,1255.57 505.303,1202.89 "/>
   <path id="_343558016" class="fil3" d="M1282.24 325.685l-41.9528 -2.01732c0,0 -1.61339,-33.8847 -15.3284,-52.037l-2.62205 26.7236c0,0 -9.78426,-35.4969 -24.5079,-42.3544l1.81536 36.7075c0,0 -16.1339,-30.8599 -37.7162,-34.4894l9.27757 36.5067c0,0 -20.9764,-24.6095 -42.5575,-21.3815l12.3024 30.8599c0,0 -27.6319,-17.9504 -48.2044,-7.05945l31.4634 34.2886c0,0 -27.0862,-5.77087 -42.7583,10.8898l43.5662 8.0693c0,0 -21.3803,4.03347 -30.6579,28.2366l45.7713 5.14016c-93.6107,119.189 -80.602,346.981 -272.628,346.981 -88.8402,-37.78 -27.854,-184.459 -162.825,-202.064 0,0 66.1548,59.7024 47.5996,87.1324 0,0 -33.4807,-108.126 -132.619,-83.3422l49.5685 24.7843c0,0 -198.275,-24.7855 -223.06,99.1371 0,0 99.1383,-99.1371 173.491,-24.7843 0,0 -146.998,-21.8421 -160.244,125.393l-13.2473 122.451c53.1142,-72.8434 46.3548,-179.144 99.1383,-198.275 0,0 54.2504,-30.4748 35.2299,13.5225 -4.8189,11.1484 -4.96654,8.73426 -13.8768,15.541 -58.9477,45.026 -81.4134,172.352 -86.6587,217.755 -5.51339,47.726 158.171,-300.625 185.145,-181.482 0,0 -107.303,5.64685 -87.9402,126.665 0,0 21.7831,-94.3926 116.178,-76.6442 0,0 -172.862,33.3485 -73.7245,231.624 0,0 -47.7367,-187.52 112.446,-192.897 202.334,53.3847 359.953,242.153 508.275,-64.5426 0,0 67.7693,-106.497 13.715,-227.515 0,0 -54.0556,-96.0095 -27.4311,-131.508 0,0 -0.89882,-3.9 -0.714567,-9.57402 1.80945,22.5579 8.77914,47.752 33.3886,54.7536 44.8536,-1.24134 20.5725,-35.0953 20.5725,-35.0953 -0.269292,-13.5012 -24.9402,-35.315 -41.224,-48.2646 9.10158,-8.23938 24.4583,-14.5358 50.152,-14.5358l-49.6701 -13.8437 43.0725 -19.4551z"/>
  </g>
 </g>
 <rect class="fil7" width="2048" height="2048"/>
</svg>
