<?xml version="1.0" encoding="UTF-8"?>
<!DOCTYPE svg PUBLIC "-//W3C//DTD SVG 1.1//EN" "http://www.w3.org/Graphics/SVG/1.1/DTD/svg11.dtd">
<!-- Creator: CorelDRAW -->
<svg xmlns="http://www.w3.org/2000/svg" xml:space="preserve" width="2048px" height="2048px" style="shape-rendering:geometricPrecision; text-rendering:geometricPrecision; image-rendering:optimizeQuality; fill-rule:evenodd; clip-rule:evenodd"
viewBox="0 0 2048 2048"
 xmlns:xlink="http://www.w3.org/1999/xlink">
 <defs>
  <style type="text/css">
   <![CDATA[
    .fil10 {fill:none}
    .fil6 {fill:#212121}
    .fil7 {fill:#473832}
    .fil4 {fill:#5B433B}
    .fil1 {fill:#684B41}
    .fil0 {fill:#795548}
    .fil2 {fill:#AEB6B8}
    .fil3 {fill:#CFD8DC}
    .fil5 {fill:#FFFFFE}
    .fil8 {fill:#473832;fill-rule:nonzero}
    .fil9 {fill:#CFD8DC;fill-rule:nonzero}
   ]]>
  </style>
 </defs>
 <g id="Layer_x0020_1">
  <metadata id="CorelCorpID_0Corel-Layer"/>
  <g id="_343561376">
   <path id="_458642304" class="fil0" d="M527.66 1257.42c0,0 -87.2871,252.59 -5.60315,330.58 0,0 -36.1418,74.4331 -106.658,-42.2174l11.8276 -332.776 100.434 44.413z"/>
   <path id="_458641728" class="fil1" d="M642.942 1142.55c0,0 -29.5536,265.607 67.291,323.707 0,0 -18.8728,80.5619 -113.334,-17.7083l-60.7453 -294.11 106.788 -11.889z"/>
   <path id="_458642064" class="fil2" d="M503.96 1199.91c0,0 104.041,176.095 232.041,-79.9052l-128.001 -128.001 -104.04 207.906z"/>
   <path id="_343544048" class="fil0" d="M1246.26 1262.07c0,0 -0.921261,267.244 101.593,314.633 0,0 -10.1315,82.1197 -114.579,-5.46142l-116.955 -386.014 129.941 76.8426z"/>
   <path id="_343566368" class="fil1" d="M1363.03 1045.64c0,0 -31.565,362.517 65.2808,420.618 0,0 -18.874,80.5619 -113.334,-17.7083l-41.791 -231.625 89.8442 -171.285z"/>
   <path id="_343565048" class="fil2" d="M1212.5 1206.66c0,0 133.525,154.937 214.266,-119.655l-148.608 -103.365 -65.6587 223.021z"/>
   <path id="_343564976" class="fil3" d="M508.125 1328.52c0,0 -95.693,43.5189 -133.97,-108.801l0 -261.119c0,-492.354 551.908,-284.41 1014.35,-369.92 0,0 344.495,130.56 95.693,456.961l-114.833 87.0402c-95.6741,134.999 -165.888,239.321 -267.939,65.2796 0,0 -382.772,21.7595 -516.743,-43.5201 0,0 0,87.0402 -76.5544,174.08z"/>
   <ellipse id="_343563920" class="fil0" cx="1271.34" cy="545.164" rx="141.439" ry="65.2799"/>
   <ellipse id="_343564352" class="fil0" cx="1650.56" cy="545.164" rx="141.439" ry="65.2799"/>
   <path id="_343564208" class="fil4" d="M1650.56 501.644c29.5914,0 63.802,4.61339 90.8942,17.1177 8.3752,3.86575 28.7858,15.1394 28.7858,26.4024 0,11.263 -20.4106,22.5378 -28.7858,26.4024 -27.0921,12.5043 -61.3028,17.1177 -90.8942,17.1177 -29.5914,0 -63.802,-4.61339 -90.8942,-17.1177 -8.3752,-3.86457 -28.7847,-15.1394 -28.7847,-26.4024 0,-11.263 20.4095,-22.5366 28.7847,-26.4024 27.0921,-12.5043 61.3028,-17.1177 90.8942,-17.1177z"/>
   <ellipse id="_343562192" class="fil4" cx="1271.34" cy="545.164" rx="119.68" ry="43.5202"/>
   <ellipse id="_343562024" class="fil0" cx="1460.95" cy="628.906" rx="141.439" ry="192.542"/>
   <ellipse id="_343561952" class="fil5" cx="1540.49" cy="574.717" rx="25.5913" ry="13.9182"/>
   <ellipse id="_343561616" class="fil6" cx="1540.49" cy="574.717" rx="10.7223" ry="8.87123"/>
   <ellipse id="_343561520" class="fil5" cx="1385.51" cy="574.717" rx="25.5913" ry="13.9182"/>
   <ellipse id="_343561832" class="fil6" cx="1385.51" cy="574.717" rx="10.7223" ry="8.87123"/>
   <path id="_343561784" class="fil7" d="M1423.39 729.948l28.9713 28.9713c4.72796,4.72796 12.4618,4.72796 17.1886,0l28.9713 -28.9713c3.01063,-3.01063 4.10315,-7.23898 3.27992,-11.1343 -27.2292,-10.2886 -54.4607,-10.4882 -81.6898,0 -0.823229,3.89528 0.26811,8.12363 3.27874,11.1343z"/>
   <path id="_343561040" class="fil8" d="M1455.51 763.172c0,-3.78544 2.43662,-6.8563 5.44252,-6.8563 3.00709,0 5.4437,3.07087 5.4437,6.8563l0 51.4193c0,3.78662 -2.43662,6.8563 -5.4437,6.8563 -3.00591,0 -5.44252,-3.06969 -5.44252,-6.8563l0 -51.4193z"/>
   <path id="_343560896" class="fil8" d="M1493.63 784.1c1.99606,-2.8252 5.43308,-3.07677 7.67481,-0.562205 2.24292,2.51339 2.44252,6.84331 0.446457,9.66733 -13.2945,18.8103 -26.8843,28.2343 -40.767,28.2425 -13.8768,0.00826772 -27.4902,-9.39686 -40.8355,-28.2425 -1.99606,-2.82402 -1.79528,-7.15394 0.446457,-9.66733 2.24292,-2.51457 5.67993,-2.26299 7.67599,0.562205 11.1933,15.8067 22.0984,23.6953 32.713,23.6894 10.6099,-0.00708662 21.4925,-7.91103 32.6457,-23.6894z"/>
   <path id="_343561304" class="fil9" d="M538.101 699.078c25.3902,-0.198425 46.1363,20.2229 46.3347,45.613 0.198425,25.389 -20.2229,46.1363 -45.613,46.3347 -0.544489,0.00354331 -190.514,0.126378 -190.514,131.257 0,25.4894 -20.6646,46.154 -46.154,46.154 -25.4906,0 -46.1552,-20.6646 -46.1552,-46.154 0,-223.331 281.294,-223.199 282.102,-223.205z"/>
  </g>
 </g>
 <rect class="fil10" width="2048" height="2048"/>
</svg>
