<?xml version="1.0" encoding="UTF-8"?>
<!DOCTYPE svg PUBLIC "-//W3C//DTD SVG 1.1//EN" "http://www.w3.org/Graphics/SVG/1.1/DTD/svg11.dtd">
<!-- Creator: CorelDRAW -->
<svg xmlns="http://www.w3.org/2000/svg" xml:space="preserve" width="2048px" height="2048px" style="shape-rendering:geometricPrecision; text-rendering:geometricPrecision; image-rendering:optimizeQuality; fill-rule:evenodd; clip-rule:evenodd"
viewBox="0 0 2048 2048"
 xmlns:xlink="http://www.w3.org/1999/xlink">
 <defs>
  <style type="text/css">
   <![CDATA[
    .fil5 {fill:none}
    .fil3 {fill:#424242}
    .fil4 {fill:#E8F5E9}
    .fil0 {fill:#37474F;fill-rule:nonzero}
    .fil2 {fill:#3D8840;fill-rule:nonzero}
    .fil1 {fill:#43A047;fill-rule:nonzero}
   ]]>
  </style>
 </defs>
 <g id="Layer_x0020_1">
  <metadata id="CorelCorpID_0Corel-Layer"/>
  <g id="_458642856">
   <path id="_458643792" class="fil0" d="M445.571 544.929l73.3501 284.606 -61.7504 15.7512 -73.3501 -284.606c17.1473,-25.4126 38.3551,-27.0083 61.7504,-15.7512z"/>
   <g>
    <polygon id="_458643744" class="fil0" points="1060.42,778.31 934.79,652.68 980.041,607.43 1105.67,733.06 "/>
    <path id="_458643240" class="fil0" d="M1067.47 565.246c12.4949,-12.4949 12.4949,-32.7555 0,-45.2504 -12.4949,-12.4949 -32.7555,-12.4949 -45.2504,0l-173.397 173.395c-12.4949,12.4949 -12.4949,32.7555 0,45.2504 12.4949,12.4949 32.7555,12.4949 45.2504,0l173.397 -173.395z"/>
   </g>
   <path id="_458643648" class="fil1" d="M445.927 825.888l315.18 0c14.3256,0 26.4532,9.41457 30.5327,22.3925l64.35 160.877 171.412 4.66418 -74.9493 -174.884 -0.0708662 0.0307087c-6.47953,-15.1181 -0.408662,-32.4603 13.5602,-40.4044l200.107 -139.682 18.2504 26.1248 -18.3165 -26.2394c9.34489,-6.52323 20.9599,-7.363 30.7441,-3.25158l489.263 172.241 0.0188977 -0.0531496c13.3488,4.69843 21.6201,17.3528 21.3744,30.7677l0 210.187 76.9926 91.0099 0.0555119 -0.0425197c11.4142,13.4929 9.72993,33.6851 -3.763,45.0992 -40.1008,33.9296 -394.321,223.748 -469.817,267.274l-556.859 0c-167.382,0 -335.13,0 -494.478,0 -2.19095,-4.26851 -3.45355,-9.09568 -3.5126,-14.2193l0 -0.370866 -0.00236221 0 0 -387.809c0,-7.61339 2.66103,-14.6032 7.10079,-20.0977l157.106 -210.727 -0.0200788 -0.0141732c6.29528,-8.44371 15.9602,-12.8929 25.7421,-12.874z"/>
   <path id="_458643408" class="fil2" d="M1673.51 1270.49c-122.705,70.1422 -310.129,171.23 -362.655,201.514 -20.5772,-32.7756 -31.6902,-70.8627 -31.6902,-110.317 0,-55.2426 21.7807,-107.806 60.8351,-146.862 39.0555,-39.0544 91.6194,-60.8351 146.862,-60.8351 55.2437,0 107.808,21.7795 146.863,60.8363 16.4327,16.4327 29.8051,35.2559 39.7855,55.6642z"/>
   <path id="_458643816" class="fil2" d="M753.995 1472l-0.00354331 0 -408.245 0c-37.754,-46.565 -58.4882,-104.613 -58.4882,-165.232 0,-69.8575 27.5315,-136.304 76.9194,-185.693 49.389,-49.3878 115.836,-76.9194 185.693,-76.9194 69.8575,0 136.304,27.5315 185.693,76.9194 49.3878,49.389 76.9194,115.836 76.9194,185.693 0,60.6189 -20.7343,118.667 -58.4882,165.232z"/>
   <path id="_458642832" class="fil3" d="M712.936 1143.7c-41.7343,-41.7331 -99.3887,-67.5473 -163.065,-67.5473 -63.678,0 -121.331,25.8142 -163.065,67.5473 -41.7331,41.7343 -67.5473,99.3875 -67.5473,163.065 0,63.678 25.813,121.332 67.5473,163.065 41.7331,41.7343 99.3875,67.5473 163.065,67.5473 63.678,0 121.331,-25.8142 163.065,-67.5473 41.7331,-41.7343 67.5473,-99.3875 67.5473,-163.065 0,-63.6768 -25.8142,-121.331 -67.5473,-163.065z"/>
   <path id="_458642880" class="fil3" d="M1662.56 1361.68c0,-48.5138 -19.6689,-92.439 -51.463,-124.234 -31.7953,-31.7953 -75.7217,-51.463 -124.236,-51.463 -48.5126,0 -92.439,19.6689 -124.234,51.463 -31.7941,31.7953 -51.463,75.7217 -51.463,124.234 0,48.5138 19.6677,92.4402 51.463,124.236 31.7953,31.7941 75.7205,51.463 124.234,51.463 48.5138,0 92.4402,-19.6677 124.236,-51.463 31.7953,-31.7953 51.463,-75.7217 51.463,-124.236z"/>
   <path id="_458643072" class="fil4" d="M636.228 1220.41c-22.102,-22.1008 -52.6347,-35.7721 -86.3575,-35.7721 -33.7229,0 -64.2556,13.6713 -86.3575,35.7721 -22.1008,22.102 -35.7721,52.6347 -35.7721,86.3575 0,33.7229 13.6701,64.2556 35.7721,86.3575 22.102,22.102 52.6347,35.7721 86.3575,35.7721 33.7229,0 64.2556,-13.6713 86.3575,-35.7721 22.1008,-22.102 35.7721,-52.6347 35.7721,-86.3575 0,-33.7229 -13.6713,-64.2556 -35.7721,-86.3575z"/>
   <path id="_458643024" class="fil4" d="M1567.53 1361.68c0,-22.2732 -9.0319,-42.4429 -23.6327,-57.0437 -14.6008,-14.5984 -34.7705,-23.6315 -57.0437,-23.6315 -22.2732,0 -42.4441,9.0319 -57.0426,23.6327 -14.6008,14.5984 -23.6327,34.7693 -23.6327,57.0426 0,22.2732 9.03308,42.4429 23.6315,57.0437 14.6008,14.6008 34.7705,23.6327 57.0437,23.6327 22.2756,0 42.4453,-9.03308 57.0437,-23.6327 14.5996,-14.5984 23.6327,-34.7681 23.6327,-57.0437z"/>
  </g>
 </g>
 <rect class="fil5" width="2048" height="2048"/>
</svg>
