<?xml version="1.0" encoding="UTF-8"?>
<!DOCTYPE svg PUBLIC "-//W3C//DTD SVG 1.1//EN" "http://www.w3.org/Graphics/SVG/1.1/DTD/svg11.dtd">
<!-- Creator: CorelDRAW -->
<svg xmlns="http://www.w3.org/2000/svg" xml:space="preserve" width="2048px" height="2048px" style="shape-rendering:geometricPrecision; text-rendering:geometricPrecision; image-rendering:optimizeQuality; fill-rule:evenodd; clip-rule:evenodd"
viewBox="0 0 2048 2048"
 xmlns:xlink="http://www.w3.org/1999/xlink">
 <defs>
  <style type="text/css">
   <![CDATA[
    .fil5 {fill:none}
    .fil3 {fill:#3B4A52}
    .fil2 {fill:#455A64}
    .fil0 {fill:#E07303}
    .fil1 {fill:#F57C00}
    .fil4 {fill:#455A64;fill-rule:nonzero}
   ]]>
  </style>
 </defs>
 <g id="Layer_x0020_1">
  <metadata id="CorelCorpID_0Corel-Layer"/>
  <g id="_458644560">
   <rect id="_458646000" class="fil0" transform="matrix(-0.768684 -0.768684 2.46487 -2.46487 539.018 1581.32)" width="94.6713" height="287.49"/>
   <g>
    <rect id="_458645808" class="fil1" transform="matrix(-0.768684 0.768684 -2.84463 -2.84463 1562.1 1489.26)" width="94.6713" height="287.49"/>
    <path id="_458645784" class="fil2" d="M343.649 411.56l69.7441 -69.613c42.6863,-42.6059 100.68,-66.2764 160.942,-66.2186 60.4607,0.0543308 118.139,23.7579 160.885,66.5871l283.38 283.916 -36.5599 36.4855 -355.318 354.65 -36.4878 -36.5587 -246.953 -247.421c-42.6059,-42.6863 -66.2752,-100.681 -66.2186,-160.942 0.0555119,-60.4607 23.7579,-118.14 66.5871,-160.885z"/>
    <path id="_458646192" class="fil2" d="M1493.97 1766.12c-74.7851,-74.7839 -74.7851,-196.041 0,-270.825 74.7839,-74.7851 196.041,-74.7851 270.825,0l6.14882 6.14882 -270.825 270.825 -6.14882 -6.14882zm17.6599 -103.823l149.342 -149.342c-41.6918,-11.1803 -86.6871,0.485433 -117.771,31.5709 -31.0855,31.0843 -42.7512,76.0796 -31.5709,117.771z"/>
    <polygon id="_458645280" class="fil1" points="1710.09,1562.3 1560.96,1711.42 1511.73,1662.19 1660.86,1513.07 "/>
    <polygon id="_458645232" class="fil3" points="1007.49,934.648 867.473,794.636 850.436,731.045 633.609,633.534 731.119,850.361 794.71,867.399 934.723,1007.41 971.104,971.03 "/>
   </g>
   <path id="_458644920" class="fil2" d="M262.149 1513.18c74.7839,-74.7851 196.041,-74.7851 270.825,0 74.7839,74.7839 74.7839,196.041 0,270.825l-6.14882 6.14882 -270.826 -270.825 6.15 -6.14882zm103.823 17.6599l149.342 149.341c11.1803,-41.6906 -0.486615,-86.6859 -31.5709,-117.771 -31.0843,-31.0843 -76.0796,-42.75 -117.771,-31.5697z"/>
   <polygon id="_458645136" class="fil1" points="465.975,1729.31 316.851,1580.18 366.082,1530.95 515.204,1680.08 "/>
   <g>
    <g>
     <path id="_458645424" class="fil4" d="M1490.29 320.143l-174.392 174.19c-16.265,16.2461 -22.4752,40.4847 -19.3748,66.4406 3.43583,28.7823 18.1228,59.2182 43.226,84.3509l62.4934 62.5654c25.0193,25.0488 55.4764,39.7394 84.3898,43.2248 25.9441,3.12874 50.1579,-3.02717 66.3721,-19.2225l174.392 -174.19 64.5993 -17.7803 -16.0299 66.4323 -174.392 174.189c-32.0622,32.0256 -76.8532,44.5737 -123.18,38.9859 -43.3583,-5.22874 -88.4493,-26.6729 -124.804,-63.0697l-62.4934 -62.5654c-36.2681,-36.3118 -57.6308,-81.4713 -62.8241,-124.969 -5.52993,-46.3229 7.04174,-91.0678 39.0555,-123.043l174.392 -174.19 61.8756 -13.6488 -13.3063 62.2997z"/>
     <polygon id="_458645376" class="fil4" points="1585.52,415.48 1332.16,668.54 1283.6,619.889 1536.95,366.829 1603.49,351.205 "/>
     <polygon id="_458644632" class="fil4" points="1680.74,510.817 1427.39,763.876 1378.82,715.225 1632.17,462.166 1700.1,443.399 "/>
    </g>
    <polygon id="_458644608" class="fil3" points="1197.52,922.813 1337.53,782.8 1401.12,765.762 1281.81,646.446 1264.77,710.037 1124.76,850.048 1161.14,886.431 "/>
   </g>
  </g>
 </g>
 <rect class="fil5" width="2048" height="2048"/>
</svg>
