<?xml version="1.0" encoding="UTF-8"?>
<!DOCTYPE svg PUBLIC "-//W3C//DTD SVG 1.1//EN" "http://www.w3.org/Graphics/SVG/1.1/DTD/svg11.dtd">
<!-- Creator: CorelDRAW -->
<svg xmlns="http://www.w3.org/2000/svg" xml:space="preserve" width="2048px" height="2048px" style="shape-rendering:geometricPrecision; text-rendering:geometricPrecision; image-rendering:optimizeQuality; fill-rule:evenodd; clip-rule:evenodd"
viewBox="0 0 2048 2048"
 xmlns:xlink="http://www.w3.org/1999/xlink">
 <defs>
  <style type="text/css">
   <![CDATA[
    .fil4 {fill:none}
    .fil0 {fill:#37474F;fill-rule:nonzero}
    .fil2 {fill:#BF360C;fill-rule:nonzero}
    .fil1 {fill:#F4511E;fill-rule:nonzero}
    .fil3 {fill:#FFB300;fill-rule:nonzero}
   ]]>
  </style>
 </defs>
 <g id="Layer_x0020_1">
  <metadata id="CorelCorpID_0Corel-Layer"/>
  <path class="fil0" d="M684.505 892.748c13.5992,11.2524 33.7477,9.34961 45,-4.24961 11.2524,-13.5992 9.34961,-33.7477 -4.24961,-45l-269.444 -222.569 -20.3752 24.6248 20.3799 -24.6721c-9.76891,-8.0693 -22.9016,-9.36379 -33.7016,-4.43032l-144.49 50.1378c-16.637,5.72953 -25.4799,23.863 -19.7504,40.5 5.72953,16.637 23.863,25.4799 40.5,19.7504l130.473 -45.2741 255.658 211.182z"/>
  <polygon class="fil0" points="831.086,1168.86 1415.96,1168.86 1415.96,1289.11 831.086,1289.11 "/>
  <path class="fil1" d="M1242.53 795.314l0 -252.973 0 -32.0008 32.0008 0 168.443 0 21.4973 0 8.12835 20.126 103.461 256.199c-104.321,41.8146 -222.41,8.64922 -333.531,8.64922z"/>
  <path class="fil2" d="M1674.35 1024.38l-93.6438 154.117 -9.45355 15.1252 -17.6717 0 -860.111 0 -17.6717 0 -9.45355 -15.1252 -96.3202 -154.117 1104.33 0zm-1104.33 0l-0.23504 -0.375591 10.5461 -16.8756 129.014 -206.426 9.45355 -15.1252 17.6717 0 817.106 0 21.2705 0 8.22993 19.7504 86.0079 206.426 5.26063 12.626 -1104.33 0z"/>
  <path class="fil1" d="M1674.35 1024.38l-33.4666 55.0784 -1036.44 0 -34.4233 -55.0784 1104.33 0zm-1064.56 -64.376l1037.74 0 21.5622 51.75 5.26063 12.626 -1104.33 0 -0.23504 -0.375591 10.5461 -16.8756 29.452 -47.1248z"/>
  <polygon class="fil3" points="487.999,1320.61 1673.99,1320.61 1692.66,1320.6 1701.87,1336.98 1787.87,1490.04 1814.64,1537.66 1760,1537.66 1594.66,1537.66 1594.66,1436.85 1530.66,1436.85 1530.66,1537.66 1457.04,1537.66 1457.04,1436.85 1393.04,1436.85 1393.04,1537.66 1319.42,1537.66 1319.42,1436.85 1255.42,1436.85 1255.42,1537.66 1181.8,1537.66 1181.8,1436.85 1117.8,1436.85 1117.8,1537.66 1044.19,1537.66 1044.19,1436.85 980.185,1436.85 980.185,1537.66 906.566,1537.66 906.566,1436.85 842.565,1436.85 842.565,1537.66 768.948,1537.66 768.948,1436.85 704.946,1436.85 704.946,1537.66 631.328,1537.66 631.328,1436.85 567.326,1436.85 567.326,1537.66 401.99,1537.66 347.352,1537.66 374.114,1490.04 460.124,1336.98 469.327,1320.6 "/>
 </g>
 <rect class="fil4" width="2048" height="2048"/>
</svg>
