<?xml version="1.0" encoding="UTF-8"?>
<!DOCTYPE svg PUBLIC "-//W3C//DTD SVG 1.1//EN" "http://www.w3.org/Graphics/SVG/1.1/DTD/svg11.dtd">
<!-- Creator: CorelDRAW -->
<svg xmlns="http://www.w3.org/2000/svg" xml:space="preserve" width="2048px" height="2048px" style="shape-rendering:geometricPrecision; text-rendering:geometricPrecision; image-rendering:optimizeQuality; fill-rule:evenodd; clip-rule:evenodd"
viewBox="0 0 2048 2048"
 xmlns:xlink="http://www.w3.org/1999/xlink">
 <defs>
  <style type="text/css">
   <![CDATA[
    .fil3 {fill:none}
    .fil2 {fill:#1B5E20}
    .fil0 {fill:#2E7D32;fill-rule:nonzero}
    .fil1 {fill:#E53935;fill-rule:nonzero}
   ]]>
  </style>
 </defs>
 <g id="Layer_x0020_1">
  <metadata id="CorelCorpID_0Corel-Layer"/>
  <g id="_458648736">
   <path id="_458649912" class="fil0" d="M1002.11 594.302c1.44095,15.2599 14.9823,26.4614 30.241,25.0205 15.2599,-1.44095 26.4614,-14.9823 25.0205,-30.241 -3.06142,-31.3429 -1.0311,-58.6961 6.78898,-81.5056 7.2626,-21.1807 19.7563,-38.589 38.1071,-51.7619 12.4358,-8.9504 15.261,-26.2902 6.31063,-38.726 -8.9504,-12.4358 -26.2902,-15.2599 -38.726,-6.30945 -28.252,20.2795 -47.3717,46.7516 -58.3406,78.7406 -10.4114,30.3614 -13.2402,65.4827 -9.40158,104.783z"/>
   <path id="_458649456" class="fil1" d="M1024 602.315c103.364,-78.2989 186.649,-57.906 241.917,7.12205 30.0201,35.3233 50.5052,84.6284 60.1796,137.896 9.49016,52.2461 8.64568,108.812 -3.78898,159.851 -27.7158,113.762 -110.131,201.065 -259.833,164.593 -20.8441,-5.07874 -31.9477,-8.7815 -38.4744,-11.1732 -6.52678,2.39173 -17.628,6.09449 -38.4744,11.1732 -149.704,36.4737 -232.118,-50.8335 -259.833,-164.593 -12.4347,-51.0402 -13.2791,-107.604 -3.78898,-159.851 9.67442,-53.2678 30.1595,-102.573 60.1796,-137.896 55.2674,-65.028 138.553,-85.4209 241.917,-7.12205z"/>
   <g>
    <path id="_458649552" class="fil0" d="M1216.72 837.886c34.0075,-72.3001 40.4658,-129.516 20.961,-172.515 -19.35,-42.6626 -63.8705,-70.7776 -132.033,-85.2272 -7.26969,-3.40985 -15.3697,-9.58465 -9.89174,5.41182 -44.6764,111.695 -8.58898,141.416 42.5351,183.481 22.0335,18.1288 46.9973,38.6693 68.876,69.6922l5.49331 7.78819 4.05945 -8.63032z"/>
    <path id="_458649792" class="fil0" d="M1095.77 585.564c-0.42874,0.233858 -0.609449,-0.764174 -0.914174,-1.14567 -14.7662,-18.4677 -30.2138,-35.9339 -45.5788,-52.8556 -2.06693,-2.27126 -1.90158,-5.78741 0.369685,-7.85316 2.27008,-2.06693 5.78622,-1.90158 7.85316,0.369685 15.7571,17.354 31.6406,35.2677 46.7894,54.3449l1.37126 1.72677 -9.89056 5.413z"/>
    <path id="_458648664" class="fil2" d="M1147.51 662.884l-19.8945 -33.4878 -0.158268 -0.068504c-1.27913,1.71732 -2.94567,4.44331 -4.78937,7.85079 -3.81851,7.05945 -7.38662,16.4917 -9.10513,26.2217 -0.946064,5.35276 -1.32402,10.7516 -0.861024,15.8197 0.274016,3.05906 -1.98307,5.7626 -5.04213,6.0378 -3.06024,0.275197 -5.76378,-1.98307 -6.0378,-5.04213 -0.561024,-6.13583 -0.12874,-12.5256 0.973229,-18.763 1.93583,-10.9583 5.95985,-21.5917 10.2709,-29.5583 2.66575,-4.92756 5.64449,-8.97993 8.57245,-11.7319l-0.0011811 -0.00236221c0.399213,-0.400394 0.820867,-0.77126 1.26732,-1.10787 0.943702,-0.768898 1.87677,-1.3937 2.78622,-1.86142 1.57441,-0.87756 3.70866,-1.37362 6.25158,-1.5 1.08425,-0.0543308 2.24173,-0.0401575 3.46181,0.0389764 3.39331,0.220866 7.27087,0.95315 11.3823,2.17795 8.68938,2.5878 19.0583,7.26142 28.1681,13.6358 5.21339,3.64843 10.0417,7.85906 13.9618,12.5681 1.9689,2.3563 1.65473,5.863 -0.701575,7.8319 -2.3563,1.9689 -5.863,1.65473 -7.8319,-0.701575 -3.27874,-3.9378 -7.35827,-7.48938 -11.7886,-10.5898 -8.10237,-5.6693 -17.2914,-9.81497 -24.9756,-12.1039 -1.36536,-0.4063 -2.64921,-0.765355 -3.83268,-1.07126l0.811418 1.26378c6.58229,10.3724 12.8398,21.1051 18.6839,32.2559 4.06654,-0.172441 9.15473,0.585827 14.661,2.2252 8.68938,2.5878 19.0583,7.26142 28.1681,13.6358 5.21339,3.64843 10.0417,7.85906 13.963,12.5681 1.9689,2.3563 1.65473,5.86418 -0.701575,7.8319 -2.3563,1.9689 -5.86418,1.65473 -7.8319,-0.701575 -3.27874,-3.9378 -7.35945,-7.48938 -11.7898,-10.5886 -8.10237,-5.67048 -17.2914,-9.81615 -24.9744,-12.1039 -2.15551,-0.64252 -4.10551,-1.16339 -5.77796,-1.54843 9.95198,20.4827 18.4784,42.3685 25.0524,66.0001 0.82441,2.95866 -0.904725,6.02481 -3.86221,6.8504 -2.95866,0.82441 -6.02481,-0.905906 -6.8504,-3.86339 -6.81142,-24.4866 -15.7807,-47.0516 -26.2878,-68.0941 -0.145276,-0.0507874 -0.290551,-0.109843 -0.433465,-0.173622 -1.27795,1.71614 -2.94449,4.44213 -4.78819,7.84961 -3.81851,7.05827 -7.38662,16.4906 -9.10631,26.2193 -0.944883,5.35394 -1.32402,10.7528 -0.861024,15.8221 0.275197,3.05906 -1.98189,5.7626 -5.04213,6.0378 -3.05906,0.275197 -5.7626,-1.98189 -6.0378,-5.04213 -0.561024,-6.13701 -0.12874,-12.5268 0.97441,-18.7654 1.93583,-10.9571 5.96103,-21.5906 10.2697,-29.5571 3.00473,-5.55119 6.4063,-9.99331 9.68505,-12.7146z"/>
   </g>
  </g>
  <g id="_458647800">
   <g>
    <path id="_458649072" class="fil0" d="M542.628 1156.57c1.44095,15.2599 14.9823,26.4603 30.241,25.0193 15.2599,-1.44095 26.4614,-14.9811 25.0205,-30.241 -3.06142,-31.3429 -1.0311,-58.6949 6.78898,-81.5044 7.2626,-21.1807 19.7563,-38.589 38.1071,-51.7619 12.4358,-8.9504 15.261,-26.2902 6.31063,-38.726 -8.9504,-12.4358 -26.2902,-15.2599 -38.726,-6.30945 -28.252,20.2795 -47.3717,46.7516 -58.3418,78.7394 -10.4102,30.3626 -13.239,65.4839 -9.4004,104.784z"/>
    <path id="_458649024" class="fil1" d="M564.517 1164.59c103.364,-78.2989 186.649,-57.9071 241.917,7.12205 30.0201,35.3233 50.5052,84.6284 60.1796,137.896 9.49016,52.2449 8.64568,108.812 -3.78898,159.851 -27.7158,113.76 -110.131,201.065 -259.833,164.593 -20.8441,-5.07874 -31.9477,-8.7815 -38.4744,-11.1744 -6.52678,2.39292 -17.628,6.09567 -38.4744,11.1744 -149.704,36.4737 -232.118,-50.8335 -259.833,-164.593 -12.4347,-51.0402 -13.2791,-107.606 -3.79016,-159.851 9.6756,-53.2678 30.1607,-102.573 60.1808,-137.896 55.2674,-65.0292 138.553,-85.4209 241.917,-7.12205z"/>
    <g>
     <path id="_458648568" class="fil0" d="M757.241 1400.16c34.0075,-72.3012 40.4658,-129.517 20.961,-172.517 -19.3512,-42.6615 -63.8705,-70.7764 -132.033,-85.226 -7.26969,-3.40985 -15.3697,-9.58465 -9.89174,5.41063 -44.6764,111.696 -8.58898,141.416 42.5351,183.482 22.0335,18.1288 46.9973,38.6693 68.876,69.6922l5.49331 7.78701 4.05945 -8.62914z"/>
     <path id="_458649264" class="fil0" d="M636.285 1147.84c-0.42874,0.233858 -0.609449,-0.764174 -0.914174,-1.14567 -14.7662,-18.4677 -30.2138,-35.9339 -45.5788,-52.8567 -2.06693,-2.27008 -1.90158,-5.78622 0.369685,-7.85316 2.27008,-2.06575 5.78622,-1.9004 7.85316,0.369685 15.7571,17.3551 31.6406,35.2689 46.7894,54.3461l1.37126 1.72677 -9.89056 5.413z"/>
     <path id="_458649192" class="fil2" d="M688.028 1225.15l-19.8945 -33.4866 -0.158268 -0.068504c-1.27913,1.71732 -2.94567,4.44331 -4.78937,7.85079 -3.81851,7.05945 -7.38662,16.4917 -9.10631,26.2217 -0.944883,5.35276 -1.32284,10.7504 -0.859843,15.8185 0.274016,3.06024 -1.98307,5.76378 -5.04213,6.03898 -3.06024,0.274016 -5.76378,-1.98307 -6.03898,-5.04213 -0.559843,-6.13701 -0.127559,-12.5256 0.97441,-18.763 1.93465,-10.9583 5.95985,-21.5929 10.2697,-29.5583 2.66693,-4.92756 5.64449,-8.97993 8.57363,-11.7319l-0.0011811 -0.00354331c0.399213,-0.399213 0.820867,-0.770079 1.26732,-1.10787 0.943702,-0.767717 1.87677,-1.3937 2.78622,-1.86024 1.57441,-0.87756 3.70748,-1.3748 6.25158,-1.5 1.08307,-0.0543308 2.24173,-0.0413386 3.46181,0.0389764 3.39331,0.220866 7.27087,0.95315 11.3823,2.17795 8.68938,2.5878 19.0583,7.26024 28.1681,13.6358 5.21339,3.64725 10.0406,7.85788 13.9618,12.5681 1.9689,2.3563 1.65473,5.863 -0.701575,7.8319 -2.3563,1.9689 -5.863,1.65354 -7.8319,-0.702756 -3.27874,-3.9378 -7.35827,-7.48819 -11.7898,-10.5886 -8.10119,-5.6693 -17.2902,-9.81615 -24.9744,-12.1039 -1.36536,-0.4063 -2.64921,-0.765355 -3.83268,-1.07126l0.811418 1.2626c6.58229,10.3736 12.8398,21.1063 18.6839,32.2571 4.06654,-0.172441 9.15473,0.584646 14.661,2.2252 8.68938,2.5878 19.0583,7.26142 28.1681,13.6358 5.21339,3.64843 10.0417,7.85906 13.963,12.5681 1.9689,2.3563 1.65473,5.863 -0.701575,7.8319 -2.35748,1.9689 -5.86418,1.65473 -7.8319,-0.701575 -3.27874,-3.9378 -7.35945,-7.48938 -11.7898,-10.5898 -8.10237,-5.6693 -17.2914,-9.81497 -24.9744,-12.1039 -2.15551,-0.641339 -4.10551,-1.16221 -5.77796,-1.54725 9.95198,20.4815 18.4772,42.3685 25.0524,66.0001 0.82441,2.95748 -0.904725,6.02481 -3.86221,6.84922 -2.95866,0.825591 -6.02481,-0.904725 -6.8504,-3.86221 -6.8126,-24.4866 -15.7807,-47.0516 -26.2878,-68.0941 -0.145276,-0.0519685 -0.290551,-0.109843 -0.433465,-0.174803 -1.27795,1.71732 -2.94449,4.44331 -4.78819,7.85079 -3.81851,7.05827 -7.38662,16.4894 -9.10631,26.2193 -0.944883,5.35276 -1.32402,10.7528 -0.861024,15.8221 0.275197,3.05906 -1.98189,5.7626 -5.04213,6.0378 -3.05906,0.275197 -5.7626,-1.98307 -6.0378,-5.04213 -0.561024,-6.13701 -0.12874,-12.5268 0.97441,-18.7654 1.93465,-10.9571 5.95985,-21.5917 10.2697,-29.5571 3.00473,-5.55119 6.4063,-9.99331 9.68505,-12.7158z"/>
    </g>
   </g>
   <g>
    <path id="_458649048" class="fil0" d="M1461.6 1156.57c1.44213,15.2599 14.9823,26.4603 30.241,25.0193 15.2599,-1.44095 26.4614,-14.9811 25.0205,-30.241 -3.06142,-31.3429 -1.0311,-58.6949 6.78898,-81.5044 7.2626,-21.1807 19.7563,-38.589 38.1071,-51.7619 12.4358,-8.9504 15.261,-26.2902 6.31063,-38.726 -8.9504,-12.4358 -26.2902,-15.2599 -38.726,-6.30945 -28.252,20.2795 -47.3717,46.7516 -58.3406,78.7394 -10.4114,30.3626 -13.2402,65.4839 -9.40158,104.784z"/>
    <path id="_458649168" class="fil1" d="M1483.48 1164.59c103.364,-78.2989 186.649,-57.9071 241.917,7.12205 30.0201,35.3233 50.5052,84.6284 60.1808,137.896 9.48898,52.2449 8.64449,108.812 -3.79016,159.851 -27.7158,113.76 -110.131,201.065 -259.832,164.593 -20.8453,-5.07874 -31.9488,-8.7815 -38.4756,-11.1744 -6.52678,2.39292 -17.628,6.09567 -38.4744,11.1744 -149.704,36.4737 -232.118,-50.8335 -259.833,-164.593 -12.4347,-51.0402 -13.2791,-107.606 -3.78898,-159.851 9.67442,-53.2678 30.1595,-102.573 60.1796,-137.896 55.2674,-65.0292 138.553,-85.4209 241.917,-7.12205z"/>
    <g>
     <path id="_458648064" class="fil0" d="M1676.21 1400.16c34.0075,-72.3012 40.4658,-129.517 20.9622,-172.517 -19.3512,-42.6615 -63.8717,-70.7764 -132.034,-85.226 -7.26969,-3.40985 -15.3697,-9.58465 -9.89174,5.41063 -44.6764,111.696 -8.58898,141.416 42.5351,183.482 22.0335,18.1288 46.9973,38.6693 68.8772,69.6922l5.49213 7.78701 4.05945 -8.62914z"/>
     <path id="_458648232" class="fil0" d="M1555.25 1147.84c-0.42874,0.233858 -0.609449,-0.764174 -0.914174,-1.14567 -14.7662,-18.4677 -30.2138,-35.9339 -45.5788,-52.8567 -2.06693,-2.27008 -1.90158,-5.78622 0.369685,-7.85316 2.27008,-2.06575 5.78622,-1.9004 7.85316,0.369685 15.7571,17.3551 31.6418,35.2689 46.7894,54.3461l1.37126 1.72677 -9.89056 5.413z"/>
     <path id="_458648424" class="fil2" d="M1606.99 1225.15l-19.8945 -33.4866 -0.158268 -0.068504c-1.27795,1.71732 -2.94567,4.44331 -4.78937,7.85079 -3.81851,7.05945 -7.38662,16.4917 -9.10513,26.2217 -0.946064,5.35276 -1.32402,10.7504 -0.861024,15.8185 0.274016,3.06024 -1.98307,5.76378 -5.04213,6.03898 -3.06024,0.274016 -5.76378,-1.98307 -6.0378,-5.04213 -0.561024,-6.13701 -0.12874,-12.5256 0.973229,-18.763 1.93583,-10.9583 5.96103,-21.5929 10.2709,-29.5583 2.66575,-4.92756 5.64449,-8.97993 8.57245,-11.7319l-0.0011811 -0.00354331c0.399213,-0.399213 0.820867,-0.770079 1.26732,-1.10787 0.943702,-0.767717 1.87677,-1.3937 2.78622,-1.86024 1.57441,-0.87756 3.70866,-1.3748 6.25158,-1.5 1.08425,-0.0543308 2.24173,-0.0413386 3.46181,0.0389764 3.39331,0.220866 7.27087,0.95315 11.3823,2.17795 8.68938,2.5878 19.0583,7.26024 28.1681,13.6358 5.21339,3.64725 10.0417,7.85788 13.963,12.5681 1.96772,2.3563 1.65354,5.863 -0.702756,7.8319 -2.3563,1.9689 -5.863,1.65354 -7.8319,-0.702756 -3.27874,-3.9378 -7.35827,-7.48819 -11.7886,-10.5886 -8.10237,-5.6693 -17.2914,-9.81615 -24.9744,-12.1039 -1.36654,-0.4063 -2.6504,-0.765355 -3.83386,-1.07126l0.812599 1.2626c6.58111,10.3736 12.8386,21.1063 18.6827,32.2571 4.06654,-0.172441 9.15473,0.584646 14.661,2.2252 8.68938,2.5878 19.0583,7.26142 28.1693,13.6358 5.21221,3.64843 10.0406,7.85906 13.9618,12.5681 1.9689,2.3563 1.65473,5.863 -0.701575,7.8319 -2.3563,1.9689 -5.863,1.65473 -7.8319,-0.701575 -3.27874,-3.9378 -7.35945,-7.48938 -11.7898,-10.5898 -8.10237,-5.6693 -17.2902,-9.81497 -24.9744,-12.1039 -2.15433,-0.641339 -4.10551,-1.16221 -5.77796,-1.54725 9.95198,20.4815 18.4784,42.3685 25.0524,66.0001 0.82441,2.95748 -0.904725,6.02481 -3.86221,6.84922 -2.95866,0.825591 -6.02481,-0.904725 -6.8504,-3.86221 -6.81142,-24.4866 -15.7807,-47.0516 -26.2866,-68.0941 -0.146457,-0.0519685 -0.291733,-0.109843 -0.434646,-0.174803 -1.27795,1.71732 -2.94449,4.44331 -4.78819,7.85079 -3.81851,7.05827 -7.38662,16.4894 -9.10631,26.2193 -0.944883,5.35276 -1.32402,10.7528 -0.861024,15.8221 0.275197,3.05906 -1.98189,5.7626 -5.04213,6.0378 -3.05906,0.275197 -5.7626,-1.98307 -6.0378,-5.04213 -0.561024,-6.13701 -0.12874,-12.5268 0.97441,-18.7654 1.93583,-10.9571 5.96103,-21.5917 10.2709,-29.5571 3.00355,-5.55119 6.40512,-9.99331 9.68387,-12.7158z"/>
    </g>
   </g>
  </g>
 </g>
 <rect class="fil3" width="2048" height="2048"/>
</svg>
