<?xml version="1.0" encoding="UTF-8"?>
<!DOCTYPE svg PUBLIC "-//W3C//DTD SVG 1.1//EN" "http://www.w3.org/Graphics/SVG/1.1/DTD/svg11.dtd">
<!-- Creator: CorelDRAW -->
<svg xmlns="http://www.w3.org/2000/svg" xml:space="preserve" width="2048px" height="2048px" style="shape-rendering:geometricPrecision; text-rendering:geometricPrecision; image-rendering:optimizeQuality; fill-rule:evenodd; clip-rule:evenodd"
viewBox="0 0 2048 2048"
 xmlns:xlink="http://www.w3.org/1999/xlink">
 <defs>
  <style type="text/css">
   <![CDATA[
    .fil5 {fill:none}
    .fil4 {fill:#3E2723}
    .fil0 {fill:#43A047}
    .fil1 {fill:#FFB300}
    .fil3 {fill:#E9A403;fill-rule:nonzero}
    .fil2 {fill:#FFB300;fill-rule:nonzero}
   ]]>
  </style>
 </defs>
 <g id="Layer_x0020_1">
  <metadata id="CorelCorpID_0Corel-Layer"/>
  <g id="_458650752">
   <g>
    <g>
     <g>
      <path id="_458652288" class="fil0" d="M687.612 971.645l-228.202 357.664c-15.4795,24.261 -46.9241,30.7701 -70.0524,14.5311 -23.1272,-16.2378 -29.3303,-49.1705 -13.8591,-73.4197l190.628 -298.775 121.486 0z"/>
      <g>
       <path id="_458652192" class="fil0" d="M846.475 971.645l-290.644 715.617c-10.878,26.7827 -40.7114,39.3886 -66.2646,27.9933 -25.5555,-11.3988 -37.5851,-42.6827 -26.7047,-69.4701l273.797 -674.141 109.815 0z"/>
       <path id="_458651904" class="fil0" d="M992.287 971.645l-119.134 704.045c-4.87205,28.7918 -31.011,48.0922 -58.5119,43.0607 -27.5103,-5.03268 -45.9957,-32.5453 -41.1154,-61.3937l116.033 -685.712 102.729 0z"/>
      </g>
     </g>
     <g>
      <path id="_458652120" class="fil0" d="M1360.39 971.645l228.202 357.664c15.4795,24.261 46.9241,30.7701 70.0524,14.5311 23.1272,-16.2378 29.3303,-49.1705 13.8591,-73.4197l-190.628 -298.775 -121.486 0z"/>
      <g>
       <path id="_458650968" class="fil0" d="M1201.53 971.645l290.644 715.617c10.878,26.7827 40.7114,39.3886 66.2646,27.9933 25.5555,-11.3988 37.5851,-42.6827 26.7047,-69.4701l-273.797 -674.141 -109.815 0z"/>
       <path id="_458650920" class="fil0" d="M1055.71 971.645l119.134 704.045c4.87205,28.7918 31.011,48.0922 58.5119,43.0607 27.5103,-5.03268 45.9957,-32.5453 41.1154,-61.3937l-116.033 -685.712 -102.729 0z"/>
      </g>
     </g>
    </g>
    <g>
     <path id="_458651568" class="fil1" d="M1060.73 365.175l0 141.22c0,20.2772 -16.4457,36.7229 -36.724,36.7229 -20.2772,0 -36.7229,-16.4457 -36.7229,-36.7229l0 -141.22c0,-20.2772 16.4457,-36.7229 36.7229,-36.7229 20.2784,0 36.724,16.4457 36.724,36.7229z"/>
     <path id="_458650872" class="fil1" d="M1462.63 548.842l-99.8564 99.8564c-14.3362,14.3374 -37.5945,14.3374 -51.9307,0 -14.3362,-14.3351 -14.3362,-37.5933 0,-51.9296l99.8576 -99.8564c14.3362,-14.3374 37.5933,-14.3374 51.9296,0 14.3374,14.3362 14.3374,37.5933 0,51.9296z"/>
     <path id="_458650392" class="fil1" d="M646.93 496.913l99.8576 99.8564c14.3362,14.3362 14.3362,37.5945 0,51.9296 -14.3362,14.3374 -37.5945,14.3374 -51.9307,0l-99.8564 -99.8564c-14.3374,-14.3362 -14.3374,-37.5933 0,-51.9296 14.3362,-14.3374 37.5933,-14.3374 51.9296,0z"/>
     <circle id="_458650800" class="fil1" cx="834.514" cy="455.504" r="37.5053"/>
     <circle id="_458650176" class="fil1" cx="1213.49" cy="455.504" r="37.5053"/>
     <path id="_458650728" class="fil2" d="M1024 985.286l-454.768 0 -24.4831 0 0 -24.4831c0,-132.338 53.6433,-252.151 140.372,-338.88 86.7284,-86.7284 206.542,-140.372 338.88,-140.372 132.338,0 252.151,53.6433 338.881,140.372 86.7284,86.7284 140.372,206.542 140.372,338.88l0 24.4831 -24.4831 0 -454.77 0z"/>
     <path id="_458650248" class="fil3" d="M1024 481.551c132.338,0 252.151,53.6433 338.881,140.372 86.7284,86.7284 140.372,206.542 140.372,338.881l0 24.4819 -24.4831 0 -454.77 0 0 -503.735z"/>
    </g>
   </g>
   <rect id="_458650536" class="fil4" x="255.999" y="972.665" width="1536" height="86.9435" rx="43.4717" ry="43.4717"/>
  </g>
 </g>
 <rect class="fil5" width="2048" height="2048"/>
</svg>
