<?xml version="1.0" encoding="UTF-8"?>
<!DOCTYPE svg PUBLIC "-//W3C//DTD SVG 1.1//EN" "http://www.w3.org/Graphics/SVG/1.1/DTD/svg11.dtd">
<!-- Creator: CorelDRAW -->
<svg xmlns="http://www.w3.org/2000/svg" xml:space="preserve" width="2048px" height="2048px" style="shape-rendering:geometricPrecision; text-rendering:geometricPrecision; image-rendering:optimizeQuality; fill-rule:evenodd; clip-rule:evenodd"
viewBox="0 0 2048 2048"
 xmlns:xlink="http://www.w3.org/1999/xlink">
 <defs>
  <style type="text/css">
   <![CDATA[
    .fil5 {fill:none}
    .fil3 {fill:#1B5E20}
    .fil4 {fill:#2E7D32}
    .fil0 {fill:#2E7D32;fill-rule:nonzero}
    .fil1 {fill:#8E24AA;fill-rule:nonzero}
    .fil2 {fill:#E53935;fill-rule:nonzero}
   ]]>
  </style>
 </defs>
 <g id="Layer_x0020_1">
  <metadata id="CorelCorpID_0Corel-Layer"/>
  <g id="_458652456">
   <path id="_458617416" class="fil0" d="M895.654 863.54c-26.3339,-84.4985 -60.926,-166.039 -105.499,-244.431 -44.576,-78.3993 -99.2658,-153.895 -165.807,-226.33l47.9989 -44.1685c69.8705,76.0607 127.429,155.568 174.487,238.329 47.0599,82.7694 83.4886,168.553 111.115,257.197l-62.2949 19.4032z"/>
   <path id="_458617512" class="fil1" d="M990.963 798.911c77.8194,0 148.275,31.5473 199.278,82.5497 51.0012,51.0012 82.5473,121.459 82.5473,199.277 0,77.8182 -31.5461,148.275 -82.5473,199.277 -51.0036,51.0012 -121.461,82.5485 -199.278,82.5485 -77.8182,0 -148.276,-31.5473 -199.277,-82.5485 -51.0024,-51.0024 -82.5497,-121.459 -82.5497,-199.277 0,-77.8182 31.5473,-148.276 82.5485,-199.277 51.0024,-51.0024 121.46,-82.5497 199.278,-82.5497z"/>
   <path id="_458653656" class="fil0" d="M494.651 1109.64c62.7378,-105.121 95.8064,-220.29 111.833,-342.927 16.2614,-124.427 15.0484,-257.018 9.313,-394.737l65.106 -2.55236c5.85945,140.726 7.04764,276.608 -9.82442,405.716 -17.1071,130.897 -52.7103,254.339 -120.514,367.944l-55.9134 -33.4441z"/>
   <path id="_458653464" class="fil0" d="M1320.08 1019.45c2.05748,21.7949 21.398,37.7941 43.1941,35.7366 21.7949,-2.05866 37.7941,-21.3992 35.7355,-43.1941 -4.37126,-44.7685 -1.47284,-83.8371 9.69804,-116.417 10.3736,-30.2528 28.2189,-55.1174 54.43,-73.9323 17.7614,-12.7843 21.7961,-37.5508 9.01182,-55.3134 -12.7843,-17.7626 -37.5508,-21.7961 -55.3122,-9.013 -40.3536,28.9677 -67.663,66.7784 -83.3304,112.467 -14.8701,43.3677 -18.9106,93.5327 -13.4268,149.666z"/>
   <path id="_458653488" class="fil2" d="M1351.34 1030.9c147.638,-111.835 266.595,-82.7091 345.538,10.174 42.8776,50.452 72.1371,120.876 85.956,196.96 13.5543,74.6245 12.3473,155.419 -5.413,228.32 -39.587,162.487 -157.303,287.186 -371.126,235.092 -29.7721,-7.25434 -45.6319,-12.5433 -54.9544,-15.9591 -9.32245,3.41575 -25.1788,8.70473 -54.9532,15.9591 -213.827,52.0961 -331.54,-72.6071 -371.127,-235.092 -17.7614,-72.9024 -18.9673,-153.696 -5.413,-228.32 13.8189,-76.0831 43.0784,-146.508 85.956,-196.96 78.9414,-92.8831 197.9,-122.009 345.538,-10.174z"/>
   <path id="_458653344" class="fil0" d="M1626.61 1367.37c48.5741,-103.269 57.7985,-184.991 29.9398,-246.409 -27.639,-60.9343 -91.2272,-101.093 -188.587,-121.732 -10.3843,-4.87087 -21.9532,-13.689 -14.1284,7.72914 -63.8126,159.538 -12.2693,201.989 60.7536,262.071 31.4717,25.8945 67.1268,55.2331 98.3788,99.5434l7.84489 11.1236 5.79804 -12.3272z"/>
   <path id="_458653248" class="fil0" d="M1453.85 1006.97c-0.611811,0.334252 -0.869292,-1.09134 -1.30512,-1.63583 -21.091,-26.3788 -43.1552,-51.326 -65.1012,-75.4961 -2.95158,-3.24331 -2.71536,-8.26536 0.527953,-11.2169 3.24331,-2.95158 8.26536,-2.71536 11.2169,0.527953 22.5071,24.7866 45.1937,50.3752 66.8304,77.6233l1.95827 2.46614 -14.1272 7.7315z"/>
   <path id="_458653368" class="fil3" d="M1527.75 1117.41l-28.4162 -47.8311 -0.225591 -0.0968505c-1.82599,2.45197 -4.20709,6.34607 -6.83977,11.2134 -5.45552,10.0831 -10.552,23.5547 -13.0063,37.4528 -1.35118,7.64528 -1.89095,15.3555 -1.22953,22.5957 0.392126,4.37008 -2.83229,8.23111 -7.20237,8.62323 -4.37008,0.393307 -8.23111,-2.8311 -8.62442,-7.20119 -0.799607,-8.76497 -0.183071,-17.8902 1.39134,-26.7992 2.76378,-15.652 8.51339,-30.841 14.6693,-42.2197 3.80788,-7.03701 8.06221,-12.8256 12.2457,-16.7563l-0.00236221 -0.00472441c0.570473,-0.570473 1.17284,-1.09961 1.81063,-1.58268 1.34764,-1.09724 2.67992,-1.99016 3.97914,-2.65748 2.24882,-1.25433 5.29607,-1.96299 8.92914,-2.14252 1.54843,-0.0767717 3.20197,-0.0578741 4.94528,0.0555119 4.84725,0.316536 10.3854,1.36181 16.2567,3.11103 12.411,3.69567 27.2209,10.3713 40.2343,19.4764 7.44568,5.20985 14.341,11.2252 19.9417,17.9516 2.81221,3.36614 2.36339,8.37402 -1.00158,11.1862 -3.36614,2.81221 -8.3752,2.36339 -11.1874,-1.00276 -4.68307,-5.62441 -10.5106,-10.6961 -16.839,-15.124 -11.5724,-8.09883 -24.6969,-14.0209 -35.6717,-17.289 -1.95118,-0.581103 -3.78425,-1.09252 -5.47441,-1.52953l1.15984 1.80354c9.4004,14.8158 18.3378,30.1453 26.6858,46.0725 5.80867,-0.245669 13.0748,0.836221 20.9398,3.17953 12.4122,3.69567 27.2221,10.3713 40.2343,19.4764 7.44686,5.20985 14.3421,11.224 19.9429,17.9516 2.81221,3.36496 2.36339,8.37402 -1.00276,11.1862 -3.36496,2.81221 -8.37402,2.36339 -11.1862,-1.00276 -4.68307,-5.62441 -10.5106,-10.6973 -16.839,-15.1252 -11.5724,-8.09764 -24.6969,-14.0197 -35.6717,-17.2878 -3.07796,-0.916536 -5.86418,-1.66181 -8.25355,-2.21103 14.2146,29.2547 26.3929,60.5162 35.7839,94.2698 1.17874,4.22481 -1.29213,8.60552 -5.51693,9.78426 -4.22481,1.17756 -8.60552,-1.29331 -9.78308,-5.51811 -9.73111,-34.9748 -22.5414,-67.2048 -37.5485,-97.2603 -0.207874,-0.0732284 -0.415748,-0.157087 -0.618898,-0.249213 -1.82599,2.45315 -4.20591,6.34607 -6.83859,11.2122 -5.45552,10.0819 -10.552,23.5536 -13.0075,37.4504 -1.35,7.64646 -1.89095,15.3579 -1.22953,22.5992 0.392126,4.37008 -2.83229,8.23111 -7.20237,8.62323 -4.37008,0.393307 -8.23111,-2.8311 -8.62323,-7.20119 -0.800788,-8.76615 -0.184252,-17.8925 1.39016,-26.8028 2.76496,-15.6508 8.51457,-30.8398 14.6705,-42.2174 4.28977,-7.92993 9.14883,-14.2736 13.8319,-18.1618z"/>
   <path id="_458653200" class="fil1" d="M484.863 1090.05c63.1949,0 120.41,25.6181 161.828,67.0359 41.4166,41.4166 67.0347,98.6339 67.0347,161.828 0,63.1949 -25.6181,120.41 -67.0347,161.828 -41.4177,41.4166 -98.6339,67.0347 -161.828,67.0347 -63.1937,0 -120.411,-25.6181 -161.828,-67.0347 -41.4177,-41.4177 -67.0359,-98.6328 -67.0359,-161.828 0,-63.1937 25.6181,-120.411 67.0347,-161.828 41.4177,-41.4177 98.6351,-67.0359 161.829,-67.0359z"/>
   <path id="_458653152" class="fil0" d="M269.408 822.106c112.322,20.191 193.648,7.95001 245.762,-34.8544 51.7052,-42.4701 74.0375,-114.285 68.7745,-213.669 2.01614,-11.2902 7.54134,-24.7477 -11.1224,-11.6457 -170.617,-20.348 -198.281,40.4268 -237.417,126.513 -16.8673,37.1008 -35.9776,79.1351 -70.6902,120.789l-8.71418 10.4575 13.4079 2.40945z"/>
   <path id="_458652720" class="fil0" d="M572.813 561.95c-0.48189,-0.504331 0.829134,-1.12205 1.24134,-1.68307 20.0221,-27.1996 38.4083,-54.9697 56.0752,-82.4245 2.36811,-3.68977 7.28032,-4.76103 10.9713,-2.39292 3.68977,2.36929 4.76103,7.2815 2.39292,10.9713 -18.1181,28.1563 -36.9614,56.693 -57.6815,84.6438l-1.87559 2.52992 -11.1236 -11.6445z"/>
   <path id="_458652648" class="fil3" d="M485.267 661.922l38.8465 -39.828 0.0354331 -0.243307c-2.84173,-1.12913 -7.2189,-2.42008 -12.6024,-3.70512 -11.1508,-2.65866 -25.4823,-4.09489 -39.5422,-2.8689 -7.73386,0.67441 -15.3225,2.14725 -22.1433,4.65945 -4.11969,1.51063 -8.68465,-0.604725 -10.1953,-4.72323 -1.50945,-4.11969 0.604725,-8.68465 4.72441,-10.1953 8.25946,-3.04134 17.2335,-4.80709 26.2465,-5.59252 15.8339,-1.38071 31.9937,0.240945 44.5772,3.24213 7.78347,1.85669 14.4756,4.46811 19.3559,7.49174l0.00354331 -0.00354331c0.699213,0.403937 1.36536,0.848032 1.99606,1.33937 1.41024,1.01811 2.61732,2.07402 3.59764,3.15591 1.79291,1.84725 3.26693,4.60866 4.38071,8.07048 0.474804,1.4752 0.884646,3.07796 1.22599,4.79174 0.949607,4.76339 1.37244,10.3831 1.20354,16.5071 -0.359055,12.9449 -2.97284,28.9784 -8.40001,43.904 -3.1063,8.54056 -7.13032,16.7587 -12.1784,23.9091 -2.52284,3.58819 -7.47756,4.4504 -11.0646,1.92756 -3.58701,-2.52402 -4.4504,-7.47756 -1.92756,-11.0646 4.22126,-5.97993 7.61221,-12.9225 10.252,-20.1803 4.82599,-13.2744 7.1504,-27.4843 7.46693,-38.9315 0.0555119,-2.03504 0.0755906,-3.93898 0.0602363,-5.68465l-1.44213 1.5874c-11.8784,12.9154 -24.3721,25.5166 -37.5957,37.702 1.74095,5.54646 2.57599,12.8457 2.34921,21.0496 -0.357874,12.9449 -2.97284,28.9784 -8.40001,43.904 -3.10512,8.54056 -7.13032,16.7587 -12.1784,23.9091 -2.52284,3.58701 -7.47756,4.4504 -11.0646,1.92756 -3.58701,-2.52402 -4.4504,-7.47756 -1.92638,-11.0658 4.22008,-5.97874 7.61103,-12.9213 10.2508,-20.1791 4.82717,-13.2744 7.1504,-27.4843 7.46693,-38.9315 0.0885827,-3.21024 0.0862205,-6.09331 -0.0011811,-8.5441 -24.5788,21.3024 -51.6225,41.1567 -81.7961,58.9642 -3.77599,2.2311 -8.64686,0.977954 -10.878,-2.79803 -2.2311,-3.77599 -0.979135,-8.64686 2.79685,-10.878 31.265,-18.4512 59.0823,-39.1666 84.2292,-61.441 0.0165354,-0.220866 0.0437008,-0.441733 0.080315,-0.662599 -2.84173,-1.12913 -7.2189,-2.42008 -12.6012,-3.70394 -11.1496,-2.65984 -25.4811,-4.09607 -39.5398,-2.87008 -7.73505,0.673229 -15.3248,2.14725 -22.1469,4.66063 -4.11969,1.51063 -8.68465,-0.604725 -10.1941,-4.72441 -1.51063,-4.11969 0.603544,-8.68465 4.72323,-10.1941 8.26064,-3.04252 17.2358,-4.80827 26.25,-5.59371 15.8327,-1.38071 31.9925,0.242126 44.5748,3.24331 8.77087,2.09173 16.1563,5.14252 21.124,8.66103z"/>
   <ellipse id="_458652624" class="fil4" cx="646.402" cy="365.872" rx="31.1995" ry="31.315"/>
  </g>
 </g>
 <rect class="fil5" width="2048" height="2048"/>
</svg>
