<?xml version="1.0" encoding="UTF-8"?>
<!DOCTYPE svg PUBLIC "-//W3C//DTD SVG 1.1//EN" "http://www.w3.org/Graphics/SVG/1.1/DTD/svg11.dtd">
<!-- Creator: CorelDRAW -->
<svg xmlns="http://www.w3.org/2000/svg" xml:space="preserve" width="2048px" height="2048px" style="shape-rendering:geometricPrecision; text-rendering:geometricPrecision; image-rendering:optimizeQuality; fill-rule:evenodd; clip-rule:evenodd"
viewBox="0 0 2048 2048"
 xmlns:xlink="http://www.w3.org/1999/xlink">
 <defs>
  <style type="text/css">
   <![CDATA[
    .fil5 {fill:none}
    .fil4 {fill:#1B5E20}
    .fil1 {fill:#9CCC65}
    .fil2 {fill:#2E7D32;fill-rule:nonzero}
    .fil0 {fill:#5D4037;fill-rule:nonzero}
    .fil3 {fill:#E53935;fill-rule:nonzero}
   ]]>
  </style>
 </defs>
 <g id="Layer_x0020_1">
  <metadata id="CorelCorpID_0Corel-Layer"/>
  <path class="fil0" d="M890.604 1152.39c5.44961,50.7945 7.79174,147.027 7.2567,198.064 -1.39134,132.667 -22.3394,266.519 -58.6371,401.294 -4.55552,17.0516 5.57363,34.5697 22.6252,39.1252 0.71693,0.191339 1.43386,0.354331 2.15197,0.494882l0 0.630709 352.001 0 0 -0.357874c1.25551,-0.179528 2.51457,-0.432284 3.77008,-0.767717 17.0516,-4.55552 27.1807,-22.0736 22.6252,-39.1252 -36.2977,-134.775 -57.2457,-268.627 -58.6371,-401.294 -0.540945,-51.528 1.84961,-148.25 7.41142,-199.532l-5.38819 -0.00236221 -237.812 0 0.00708662 0.924804 -31.9051 0.333071c-8.48977,0.0885827 -16.9795,0.159449 -25.4693,0.212599z"/>
  <path class="fil1" d="M1587.73 627.917c2.76969,-14.6303 4.22126,-29.4626 4.22126,-44.3433 0,-65.5878 -26.5902,-124.973 -69.5753,-167.958 -42.9851,-42.9851 -102.37,-69.5753 -167.958,-69.5753 -16.8142,0 -33.4004,1.81063 -49.5591,5.24646 -8.46615,1.8 -16.7977,4.07126 -24.9709,6.78544 -27.5823,-29.178 -60.5741,-53.2914 -97.4079,-70.7646 -42.3201,-20.0752 -89.5524,-31.3087 -139.297,-31.3087 -47.7307,0 -93.1371,10.3323 -134.105,28.8874 -36.228,16.4091 -68.9516,39.3118 -96.7052,67.2319 -5.28307,-1.20118 -10.6618,-2.23347 -16.128,-3.08977 -12.5315,-1.96417 -24.8669,-2.98819 -36.8929,-2.98819 -65.5878,0 -124.973,26.589 -167.958,69.5753 -42.9851,42.9851 -69.5753,102.37 -69.5753,167.958 0,7.513 0.42874,15.4453 1.26378,23.7437 -75.1406,38.8666 -121.879,100.623 -143.188,169.247 -15.2539,49.1268 -17.2429,101.74 -7.10316,151.839 10.1693,50.2489 32.4815,97.9938 65.7886,137.217 50.7296,59.7414 126.384,99.9969 222.899,99.9969 71.0138,0 81.1737,0.0354331 91.5072,0.0673229 56.7721,0.18189 110.389,0.35315 162.755,-0.19252l-0.00944883 -1.25906 270.052 0c29.7898,0.056693 61.0749,0.184252 94.2922,0.390945 32.967,0.20315 67.9548,0.490158 105.409,0.868111 73.1989,0.739371 135.476,-22.9441 183.835,-61.4374 45.0154,-35.8323 77.7839,-84.4902 95.9162,-138.176 18.0366,-53.4024 21.5268,-111.965 8.09646,-167.928 -13.2118,-55.0477 -42.6095,-107.373 -90.3969,-149.634 1.87795,-6.65906 3.47953,-13.4634 4.79292,-20.4z"/>
  <g id="_458621952">
   <path id="_458622552" class="fil2" d="M1394.55 566.737c0.212599,2.25 2.20984,3.90237 4.45985,3.68977 2.25,-0.212599 3.90237,-2.20984 3.68977,-4.45985 -0.451181,-4.62284 -0.152362,-8.65631 1.00158,-12.0201 1.07126,-3.12402 2.91378,-5.69174 5.61969,-7.63465 1.83425,-1.31929 2.25118,-3.87638 0.930709,-5.71063 -1.31929,-1.83425 -3.87756,-2.25118 -5.71063,-0.930709 -4.16693,2.99055 -6.98741,6.89528 -8.60434,11.6126 -1.53543,4.47756 -1.95236,9.6567 -1.38662,15.4536z"/>
   <path id="_458622120" class="fil3" d="M1397.78 567.918c15.2445,-11.5476 27.5268,-8.53938 35.6776,1.05118 4.42796,5.20867 7.44922,12.4807 8.87599,20.3362 1.39961,7.70552 1.27441,16.0477 -0.558662,23.5748 -4.0878,16.7776 -16.2425,29.6528 -38.3209,24.274 -3.07441,-0.748819 -4.71142,-1.29567 -5.67402,-1.64764 -0.962599,0.351969 -2.59961,0.89882 -5.67402,1.64764 -22.0784,5.37874 -34.2331,-7.49764 -38.3209,-24.274 -1.83307,-7.52717 -1.95827,-15.8693 -0.558662,-23.5748 1.42677,-7.85552 4.44803,-15.1276 8.87599,-20.3362 8.15079,-9.59056 20.4331,-12.5988 35.6776,-1.05118z"/>
   <g>
    <path id="_458622096" class="fil2" d="M1426.2 602.66c5.01496,-10.663 5.96811,-19.1008 3.09095,-25.4421 -2.85355,-6.29174 -9.4193,-10.4386 -19.4717,-12.5693 -1.07244,-0.50315 -2.26772,-1.41378 -1.45984,0.797245 -6.58819,16.4728 -1.26614,20.8559 6.27402,27.0603 3.24922,2.67402 6.93071,5.70355 10.1575,10.278l0.810237 1.14921 0.598819 -1.27323z"/>
    <path id="_458622048" class="fil2" d="M1408.36 565.448c-0.0625985,0.034252 -0.0897638,-0.113386 -0.134646,-0.168898 -2.17677,-2.72362 -4.45512,-5.29961 -6.72166,-7.79528 -0.304725,-0.335433 -0.279921,-0.853938 0.0543308,-1.15866 0.335433,-0.304725 0.853938,-0.279921 1.15866,0.0543308 2.32323,2.55945 4.66654,5.20158 6.90001,8.01497l0.201969 0.255118 -1.45866 0.798426z"/>
    <path id="_458622432" class="fil4" d="M1415.99 576.851l-2.93386 -4.93819 -0.0236221 -0.0106299c-0.187795,0.253937 -0.433465,0.655512 -0.705119,1.15748 -0.563386,1.04173 -1.09016,2.43307 -1.34291,3.86811 -0.140551,0.788977 -0.196063,1.58504 -0.127559,2.33268 0.0401575,0.451181 -0.292914,0.850394 -0.744095,0.890552 -0.451181,0.0401575 -0.849213,-0.292914 -0.890552,-0.744095 -0.0814961,-0.904725 -0.0188977,-1.84725 0.144095,-2.76732 0.285827,-1.61575 0.878741,-3.18425 1.51536,-4.35827 0.392126,-0.72756 0.831497,-1.3252 1.26378,-1.73032l0 -0.0011811c0.0590552,-0.0590552 0.120473,-0.113386 0.186614,-0.162992 0.13937,-0.113386 0.276378,-0.205512 0.411024,-0.274016 0.232677,-0.129921 0.546851,-0.20315 0.922442,-0.222047 0.159449,-0.00708662 0.330709,-0.00590552 0.510237,0.00590552 0.500788,0.0330709 1.07244,0.140551 1.67835,0.32126 1.2815,0.381496 2.81103,1.07126 4.15394,2.01142 0.768898,0.537402 1.4811,1.15866 2.05984,1.85315 0.290551,0.347244 0.243307,0.864568 -0.103937,1.15512 -0.347244,0.290551 -0.864568,0.244488 -1.15512,-0.103937 -0.483071,-0.579922 -1.08543,-1.10433 -1.73858,-1.56142 -1.19528,-0.836221 -2.55,-1.44685 -3.68268,-1.78465 -0.201969,-0.0602363 -0.390945,-0.113386 -0.565748,-0.158268l0.119291 0.186614c0.970867,1.52953 1.89449,3.11221 2.75551,4.7563 0.6,-0.0248032 1.35,0.0874016 2.1626,0.328347 1.2815,0.382677 2.81103,1.07126 4.15394,2.01142 0.768898,0.538583 1.4811,1.15866 2.05984,1.85315 0.290551,0.348425 0.243307,0.864568 -0.103937,1.15512 -0.347244,0.290551 -0.864568,0.244488 -1.15512,-0.102756 -0.483071,-0.581103 -1.08543,-1.10433 -1.73858,-1.5626 -1.19528,-0.83504 -2.55,-1.44685 -3.68268,-1.78465 -0.317717,-0.0944883 -0.605906,-0.17126 -0.852757,-0.227953 1.46811,3.02008 2.72481,6.24804 3.69449,9.73347 0.121654,0.435827 -0.133465,0.88819 -0.569292,1.00984 -0.435827,0.121654 -0.88819,-0.133465 -1.00984,-0.569292 -1.00512,-3.61181 -2.32795,-6.93898 -3.87756,-10.0429 -0.0212599,-0.00708662 -0.0425197,-0.0153543 -0.0637796,-0.0248032 -0.188977,0.252756 -0.434646,0.654331 -0.7063,1.15748 -0.563386,1.04055 -1.08898,2.43189 -1.34291,3.86693 -0.13937,0.788977 -0.194882,1.58504 -0.126378,2.33268 0.0401575,0.451181 -0.292914,0.850394 -0.744095,0.890552 -0.451181,0.0413386 -0.850394,-0.291733 -0.890552,-0.742914 -0.0826772,-0.905906 -0.0188977,-1.84843 0.144095,-2.76851 0.284646,-1.61575 0.878741,-3.18425 1.51417,-4.35827 0.442914,-0.818505 0.944883,-1.47402 1.42795,-1.87559z"/>
   </g>
  </g>
  <g id="_458621904">
   <path id="_458621856" class="fil2" d="M1090.82 503.71c0.212599,2.25 2.20984,3.90237 4.45985,3.68977 2.25,-0.212599 3.90237,-2.20984 3.68977,-4.45985 -0.451181,-4.62284 -0.152362,-8.65631 1.00158,-12.0201 1.07126,-3.12402 2.91378,-5.69174 5.61969,-7.63465 1.83425,-1.31929 2.25118,-3.87638 0.930709,-5.71063 -1.31929,-1.83425 -3.87756,-2.25118 -5.71063,-0.930709 -4.16693,2.99055 -6.98741,6.89528 -8.60434,11.6126 -1.53543,4.47756 -1.95236,9.6567 -1.38662,15.4536z"/>
   <path id="_458621736" class="fil3" d="M1094.04 504.891c15.2445,-11.5476 27.5268,-8.53938 35.6776,1.05118 4.42796,5.20867 7.44922,12.4807 8.87599,20.3362 1.39961,7.70552 1.27441,16.0477 -0.558662,23.5748 -4.0878,16.7776 -16.2425,29.6528 -38.3209,24.274 -3.07441,-0.748819 -4.71142,-1.29567 -5.67402,-1.64764 -0.962599,0.351969 -2.59961,0.89882 -5.67402,1.64764 -22.0784,5.37874 -34.2331,-7.49764 -38.3209,-24.274 -1.83307,-7.52717 -1.95827,-15.8693 -0.558662,-23.5748 1.42677,-7.85552 4.44803,-15.1276 8.87599,-20.3362 8.15079,-9.59056 20.4331,-12.5988 35.6776,-1.05118z"/>
   <g>
    <path id="_458622288" class="fil2" d="M1122.47 539.633c5.01496,-10.663 5.96811,-19.1008 3.09095,-25.4421 -2.85355,-6.29174 -9.4193,-10.4386 -19.4717,-12.5693 -1.07244,-0.50315 -2.26772,-1.41378 -1.45984,0.797245 -6.58819,16.4728 -1.26614,20.8559 6.27402,27.0603 3.24922,2.67402 6.93071,5.70355 10.1575,10.278l0.810237 1.14921 0.598819 -1.27323z"/>
    <path id="_458621928" class="fil2" d="M1104.63 502.421c-0.0625985,0.034252 -0.0897638,-0.113386 -0.134646,-0.168898 -2.17677,-2.72362 -4.45512,-5.29961 -6.72166,-7.79528 -0.304725,-0.335433 -0.279921,-0.853938 0.0543308,-1.15866 0.335433,-0.304725 0.853938,-0.279921 1.15866,0.0543308 2.32323,2.55945 4.66654,5.20158 6.90001,8.01497l0.201969 0.255118 -1.45866 0.798426z"/>
    <path id="_458621808" class="fil4" d="M1112.26 513.824l-2.93386 -4.93819 -0.0236221 -0.0106299c-0.187795,0.253937 -0.433465,0.655512 -0.705119,1.15748 -0.563386,1.04173 -1.09016,2.43307 -1.34291,3.86811 -0.140551,0.788977 -0.196063,1.58504 -0.127559,2.33268 0.0401575,0.451181 -0.292914,0.850394 -0.744095,0.890552 -0.451181,0.0401575 -0.849213,-0.292914 -0.890552,-0.744095 -0.0814961,-0.904725 -0.0188977,-1.84725 0.144095,-2.76732 0.285827,-1.61575 0.878741,-3.18425 1.51536,-4.35827 0.392126,-0.72756 0.831497,-1.3252 1.26378,-1.73032l0 -0.0011811c0.0590552,-0.0590552 0.120473,-0.113386 0.186614,-0.162992 0.13937,-0.113386 0.276378,-0.205512 0.411024,-0.274016 0.232677,-0.129921 0.546851,-0.20315 0.922442,-0.222047 0.159449,-0.00708662 0.330709,-0.00590552 0.510237,0.00590552 0.500788,0.0330709 1.07244,0.140551 1.67835,0.32126 1.2815,0.381496 2.81103,1.07126 4.15394,2.01142 0.768898,0.537402 1.4811,1.15866 2.05984,1.85315 0.290551,0.347244 0.243307,0.864568 -0.103937,1.15512 -0.347244,0.290551 -0.864568,0.244488 -1.15512,-0.103937 -0.483071,-0.579922 -1.08543,-1.10433 -1.73858,-1.56142 -1.19528,-0.836221 -2.55,-1.44685 -3.68268,-1.78465 -0.201969,-0.0602363 -0.390945,-0.113386 -0.565748,-0.158268l0.119291 0.186614c0.970867,1.52953 1.89449,3.11221 2.75551,4.7563 0.6,-0.0248032 1.35,0.0874016 2.1626,0.328347 1.2815,0.382677 2.81103,1.07126 4.15394,2.01142 0.768898,0.538583 1.4811,1.15866 2.05984,1.85315 0.290551,0.348425 0.243307,0.864568 -0.103937,1.15512 -0.347244,0.290551 -0.864568,0.244488 -1.15512,-0.102756 -0.483071,-0.581103 -1.08543,-1.10433 -1.73858,-1.5626 -1.19528,-0.83504 -2.55,-1.44685 -3.68268,-1.78465 -0.317717,-0.0944883 -0.605906,-0.17126 -0.852757,-0.227953 1.46811,3.02008 2.72481,6.24804 3.69449,9.73347 0.121654,0.435827 -0.133465,0.88819 -0.569292,1.00984 -0.435827,0.121654 -0.88819,-0.133465 -1.00984,-0.569292 -1.00512,-3.61181 -2.32795,-6.93898 -3.87756,-10.0429 -0.0212599,-0.00708662 -0.0425197,-0.0153543 -0.0637796,-0.0248032 -0.188977,0.252756 -0.434646,0.654331 -0.7063,1.15748 -0.563386,1.04055 -1.08898,2.43189 -1.34291,3.86693 -0.13937,0.788977 -0.194882,1.58504 -0.126378,2.33268 0.0401575,0.451181 -0.292914,0.850394 -0.744095,0.890552 -0.451181,0.0413386 -0.850394,-0.291733 -0.890552,-0.742914 -0.0826772,-0.905906 -0.0188977,-1.84843 0.144095,-2.76851 0.284646,-1.61575 0.878741,-3.18425 1.51417,-4.35827 0.442914,-0.818505 0.944883,-1.47402 1.42795,-1.87559z"/>
   </g>
  </g>
  <g id="_458620992">
   <path id="_458621544" class="fil2" d="M830.305 531.923c0.212599,2.25 2.20984,3.90237 4.45985,3.68977 2.25,-0.212599 3.90237,-2.20984 3.68977,-4.45985 -0.451181,-4.62284 -0.152362,-8.65631 1.00158,-12.0201 1.07126,-3.12402 2.91378,-5.69174 5.61969,-7.63465 1.83425,-1.31929 2.25118,-3.87638 0.930709,-5.71063 -1.31929,-1.83425 -3.87756,-2.25118 -5.71063,-0.930709 -4.16693,2.99055 -6.98741,6.89528 -8.60434,11.6126 -1.53543,4.47756 -1.95236,9.6567 -1.38662,15.4536z"/>
   <path id="_458621520" class="fil3" d="M833.533 533.104c15.2445,-11.5476 27.5268,-8.53938 35.6776,1.05118 4.42796,5.20867 7.44922,12.4807 8.87599,20.3362 1.39961,7.70552 1.27441,16.0477 -0.558662,23.5748 -4.0878,16.7776 -16.2425,29.6528 -38.3209,24.274 -3.07441,-0.748819 -4.71142,-1.29567 -5.67402,-1.64764 -0.962599,0.351969 -2.59961,0.89882 -5.67402,1.64764 -22.0784,5.37874 -34.2331,-7.49764 -38.3209,-24.274 -1.83307,-7.52717 -1.95827,-15.8693 -0.558662,-23.5748 1.42677,-7.85552 4.44803,-15.1276 8.87599,-20.3362 8.15079,-9.59056 20.4331,-12.5988 35.6776,-1.05118z"/>
   <g>
    <path id="_458621592" class="fil2" d="M861.956 567.846c5.01496,-10.663 5.96811,-19.1008 3.09095,-25.4421 -2.85355,-6.29174 -9.4193,-10.4386 -19.4717,-12.5693 -1.07244,-0.50315 -2.26772,-1.41378 -1.45984,0.797245 -6.58819,16.4728 -1.26614,20.8559 6.27402,27.0603 3.24922,2.67402 6.93071,5.70355 10.1575,10.278l0.810237 1.14921 0.598819 -1.27323z"/>
    <path id="_458621496" class="fil2" d="M844.117 530.634c-0.0625985,0.034252 -0.0897638,-0.113386 -0.134646,-0.168898 -2.17677,-2.72362 -4.45512,-5.29961 -6.72166,-7.79528 -0.304725,-0.335433 -0.279921,-0.853938 0.0543308,-1.15866 0.335433,-0.304725 0.853938,-0.279921 1.15866,0.0543308 2.32323,2.55945 4.66654,5.20158 6.90001,8.01497l0.201969 0.255118 -1.45866 0.798426z"/>
    <path id="_458621088" class="fil4" d="M851.748 542.037l-2.93386 -4.93819 -0.0236221 -0.0106299c-0.187795,0.253937 -0.433465,0.655512 -0.705119,1.15748 -0.563386,1.04173 -1.09016,2.43307 -1.34291,3.86811 -0.140551,0.788977 -0.196063,1.58504 -0.127559,2.33268 0.0401575,0.451181 -0.292914,0.850394 -0.744095,0.890552 -0.451181,0.0401575 -0.849213,-0.292914 -0.890552,-0.744095 -0.0814961,-0.904725 -0.0188977,-1.84725 0.144095,-2.76732 0.285827,-1.61575 0.878741,-3.18425 1.51536,-4.35827 0.392126,-0.72756 0.831497,-1.3252 1.26378,-1.73032l0 -0.0011811c0.0590552,-0.0590552 0.120473,-0.113386 0.186614,-0.162992 0.13937,-0.113386 0.276378,-0.205512 0.411024,-0.274016 0.232677,-0.129921 0.546851,-0.20315 0.922442,-0.222047 0.159449,-0.00708662 0.330709,-0.00590552 0.510237,0.00590552 0.500788,0.0330709 1.07244,0.140551 1.67835,0.32126 1.2815,0.381496 2.81103,1.07126 4.15394,2.01142 0.768898,0.537402 1.4811,1.15866 2.05984,1.85315 0.290551,0.347244 0.243307,0.864568 -0.103937,1.15512 -0.347244,0.290551 -0.864568,0.244488 -1.15512,-0.103937 -0.483071,-0.579922 -1.08543,-1.10433 -1.73858,-1.56142 -1.19528,-0.836221 -2.55,-1.44685 -3.68268,-1.78465 -0.201969,-0.0602363 -0.390945,-0.113386 -0.565748,-0.158268l0.119291 0.186614c0.970867,1.52953 1.89449,3.11221 2.75551,4.7563 0.6,-0.0248032 1.35,0.0874016 2.1626,0.328347 1.2815,0.382677 2.81103,1.07126 4.15394,2.01142 0.768898,0.538583 1.4811,1.15866 2.05984,1.85315 0.290551,0.348425 0.243307,0.864568 -0.103937,1.15512 -0.347244,0.290551 -0.864568,0.244488 -1.15512,-0.102756 -0.483071,-0.581103 -1.08543,-1.10433 -1.73858,-1.5626 -1.19528,-0.83504 -2.55,-1.44685 -3.68268,-1.78465 -0.317717,-0.0944883 -0.605906,-0.17126 -0.852757,-0.227953 1.46811,3.02008 2.72481,6.24804 3.69449,9.73347 0.121654,0.435827 -0.133465,0.88819 -0.569292,1.00984 -0.435827,0.121654 -0.88819,-0.133465 -1.00984,-0.569292 -1.00512,-3.61181 -2.32795,-6.93898 -3.87756,-10.0429 -0.0212599,-0.00708662 -0.0425197,-0.0153543 -0.0637796,-0.0248032 -0.188977,0.252756 -0.434646,0.654331 -0.7063,1.15748 -0.563386,1.04055 -1.08898,2.43189 -1.34291,3.86693 -0.13937,0.788977 -0.194882,1.58504 -0.126378,2.33268 0.0401575,0.451181 -0.292914,0.850394 -0.744095,0.890552 -0.451181,0.0413386 -0.850394,-0.291733 -0.890552,-0.742914 -0.0826772,-0.905906 -0.0188977,-1.84843 0.144095,-2.76851 0.284646,-1.61575 0.878741,-3.18425 1.51417,-4.35827 0.442914,-0.818505 0.944883,-1.47402 1.42795,-1.87559z"/>
   </g>
  </g>
  <g id="_458620272">
   <path id="_458620944" class="fil2" d="M667.634 616.56c0.212599,2.25 2.20984,3.90237 4.45985,3.68977 2.25,-0.212599 3.90237,-2.20984 3.68977,-4.45985 -0.451181,-4.62284 -0.152362,-8.65631 1.00158,-12.0201 1.07126,-3.12402 2.91378,-5.69174 5.61969,-7.63465 1.83425,-1.31929 2.25118,-3.87638 0.930709,-5.71063 -1.31929,-1.83425 -3.87756,-2.25118 -5.71063,-0.930709 -4.16693,2.99055 -6.98741,6.89528 -8.60434,11.6126 -1.53543,4.47756 -1.95236,9.6567 -1.38662,15.4536z"/>
   <path id="_458621664" class="fil3" d="M670.862 617.741c15.2445,-11.5476 27.5268,-8.53938 35.6776,1.05118 4.42796,5.20867 7.44922,12.4807 8.87599,20.3362 1.39961,7.70552 1.27441,16.0477 -0.558662,23.5748 -4.0878,16.7776 -16.2425,29.6528 -38.3209,24.274 -3.07441,-0.748819 -4.71142,-1.29567 -5.67402,-1.64764 -0.962599,0.351969 -2.59961,0.89882 -5.67402,1.64764 -22.0784,5.37874 -34.2331,-7.49764 -38.3209,-24.274 -1.83307,-7.52717 -1.95827,-15.8693 -0.558662,-23.5748 1.42677,-7.85552 4.44803,-15.1276 8.87599,-20.3362 8.15079,-9.59056 20.4331,-12.5988 35.6776,-1.05118z"/>
   <g>
    <path id="_458621232" class="fil2" d="M699.285 652.483c5.01496,-10.663 5.96811,-19.1008 3.09095,-25.4421 -2.85355,-6.29174 -9.4193,-10.4386 -19.4717,-12.5693 -1.07244,-0.50315 -2.26772,-1.41378 -1.45984,0.797245 -6.58819,16.4728 -1.26614,20.8559 6.27402,27.0603 3.24922,2.67402 6.93071,5.70355 10.1575,10.278l0.810237 1.14921 0.598819 -1.27323z"/>
    <path id="_458620920" class="fil2" d="M681.446 615.271c-0.0625985,0.034252 -0.0897638,-0.113386 -0.134646,-0.168898 -2.17677,-2.72362 -4.45512,-5.29961 -6.72166,-7.79528 -0.304725,-0.335433 -0.279921,-0.853938 0.0543308,-1.15866 0.335433,-0.304725 0.853938,-0.279921 1.15866,0.0543308 2.32323,2.55945 4.66654,5.20158 6.90001,8.01497l0.201969 0.255118 -1.45866 0.798426z"/>
    <path id="_458620392" class="fil4" d="M689.077 626.673l-2.93386 -4.93819 -0.0236221 -0.0106299c-0.187795,0.253937 -0.433465,0.655512 -0.705119,1.15748 -0.563386,1.04173 -1.09016,2.43307 -1.34291,3.86811 -0.140551,0.788977 -0.196063,1.58504 -0.127559,2.33268 0.0401575,0.451181 -0.292914,0.850394 -0.744095,0.890552 -0.451181,0.0401575 -0.849213,-0.292914 -0.890552,-0.744095 -0.0814961,-0.904725 -0.0188977,-1.84725 0.144095,-2.76732 0.285827,-1.61575 0.878741,-3.18425 1.51536,-4.35827 0.392126,-0.72756 0.831497,-1.3252 1.26378,-1.73032l0 -0.0011811c0.0590552,-0.0590552 0.120473,-0.113386 0.186614,-0.162992 0.13937,-0.113386 0.276378,-0.205512 0.411024,-0.274016 0.232677,-0.129921 0.546851,-0.20315 0.922442,-0.222047 0.159449,-0.00708662 0.330709,-0.00590552 0.510237,0.00590552 0.500788,0.0330709 1.07244,0.140551 1.67835,0.32126 1.2815,0.381496 2.81103,1.07126 4.15394,2.01142 0.768898,0.537402 1.4811,1.15866 2.05984,1.85315 0.290551,0.347244 0.243307,0.864568 -0.103937,1.15512 -0.347244,0.290551 -0.864568,0.244488 -1.15512,-0.103937 -0.483071,-0.579922 -1.08543,-1.10433 -1.73858,-1.56142 -1.19528,-0.836221 -2.55,-1.44685 -3.68268,-1.78465 -0.201969,-0.0602363 -0.390945,-0.113386 -0.565748,-0.158268l0.119291 0.186614c0.970867,1.52953 1.89449,3.11221 2.75551,4.7563 0.6,-0.0248032 1.35,0.0874016 2.1626,0.328347 1.2815,0.382677 2.81103,1.07126 4.15394,2.01142 0.768898,0.538583 1.4811,1.15866 2.05984,1.85315 0.290551,0.348425 0.243307,0.864568 -0.103937,1.15512 -0.347244,0.290551 -0.864568,0.244488 -1.15512,-0.102756 -0.483071,-0.581103 -1.08543,-1.10433 -1.73858,-1.5626 -1.19528,-0.83504 -2.55,-1.44685 -3.68268,-1.78465 -0.317717,-0.0944883 -0.605906,-0.17126 -0.852757,-0.227953 1.46811,3.02008 2.72481,6.24804 3.69449,9.73347 0.121654,0.435827 -0.133465,0.88819 -0.569292,1.00984 -0.435827,0.121654 -0.88819,-0.133465 -1.00984,-0.569292 -1.00512,-3.61181 -2.32795,-6.93898 -3.87756,-10.0429 -0.0212599,-0.00708662 -0.0425197,-0.0153543 -0.0637796,-0.0248032 -0.188977,0.252756 -0.434646,0.654331 -0.7063,1.15748 -0.563386,1.04055 -1.08898,2.43189 -1.34291,3.86693 -0.13937,0.788977 -0.194882,1.58504 -0.126378,2.33268 0.0401575,0.451181 -0.292914,0.850394 -0.744095,0.890552 -0.451181,0.0413386 -0.850394,-0.291733 -0.890552,-0.742914 -0.0826772,-0.905906 -0.0188977,-1.84843 0.144095,-2.76851 0.284646,-1.61575 0.878741,-3.18425 1.51417,-4.35827 0.442914,-0.818505 0.944883,-1.47402 1.42795,-1.87559z"/>
   </g>
  </g>
  <g id="_458620800">
   <path id="_458620200" class="fil2" d="M582.997 848.859c0.212599,2.25 2.20984,3.90237 4.45985,3.68977 2.25,-0.212599 3.90237,-2.20984 3.68977,-4.45985 -0.451181,-4.62284 -0.152362,-8.65631 1.00158,-12.0201 1.07126,-3.12402 2.91378,-5.69174 5.61969,-7.63465 1.83425,-1.31929 2.25118,-3.87638 0.930709,-5.71063 -1.31929,-1.83425 -3.87756,-2.25118 -5.71063,-0.930709 -4.16693,2.99055 -6.98741,6.89528 -8.60434,11.6126 -1.53543,4.47756 -1.95236,9.6567 -1.38662,15.4536z"/>
   <path id="_458620872" class="fil3" d="M586.225 850.04c15.2445,-11.5476 27.5268,-8.53938 35.6776,1.05118 4.42796,5.20867 7.44922,12.4807 8.87599,20.3362 1.39961,7.70552 1.27441,16.0477 -0.558662,23.5748 -4.0878,16.7776 -16.2425,29.6528 -38.3209,24.274 -3.07441,-0.748819 -4.71142,-1.29567 -5.67402,-1.64764 -0.962599,0.351969 -2.59961,0.89882 -5.67402,1.64764 -22.0784,5.37874 -34.2331,-7.49764 -38.3209,-24.274 -1.83307,-7.52717 -1.95827,-15.8693 -0.558662,-23.5748 1.42677,-7.85552 4.44803,-15.1276 8.87599,-20.3362 8.15079,-9.59056 20.4331,-12.5988 35.6776,-1.05118z"/>
   <g>
    <path id="_458620824" class="fil2" d="M614.649 884.782c5.01496,-10.663 5.96811,-19.1008 3.09095,-25.4421 -2.85355,-6.29174 -9.4193,-10.4386 -19.4717,-12.5693 -1.07244,-0.50315 -2.26772,-1.41378 -1.45984,0.797245 -6.58819,16.4728 -1.26614,20.8559 6.27402,27.0603 3.24922,2.67402 6.93071,5.70355 10.1575,10.278l0.810237 1.14921 0.598819 -1.27323z"/>
    <path id="_458620584" class="fil2" d="M596.809 847.57c-0.0625985,0.034252 -0.0897638,-0.113386 -0.134646,-0.168898 -2.17677,-2.72362 -4.45512,-5.29961 -6.72166,-7.79528 -0.304725,-0.335433 -0.279921,-0.853938 0.0543308,-1.15866 0.335433,-0.304725 0.853938,-0.279921 1.15866,0.0543308 2.32323,2.55945 4.66654,5.20158 6.90001,8.01497l0.201969 0.255118 -1.45866 0.798426z"/>
    <path id="_458620704" class="fil4" d="M604.44 858.973l-2.93386 -4.93819 -0.0236221 -0.0106299c-0.187795,0.253937 -0.433465,0.655512 -0.705119,1.15748 -0.563386,1.04173 -1.09016,2.43307 -1.34291,3.86811 -0.140551,0.788977 -0.196063,1.58504 -0.127559,2.33268 0.0401575,0.451181 -0.292914,0.850394 -0.744095,0.890552 -0.451181,0.0401575 -0.849213,-0.292914 -0.890552,-0.744095 -0.0814961,-0.904725 -0.0188977,-1.84725 0.144095,-2.76732 0.285827,-1.61575 0.878741,-3.18425 1.51536,-4.35827 0.392126,-0.72756 0.831497,-1.3252 1.26378,-1.73032l0 -0.0011811c0.0590552,-0.0590552 0.120473,-0.113386 0.186614,-0.162992 0.13937,-0.113386 0.276378,-0.205512 0.411024,-0.274016 0.232677,-0.129921 0.546851,-0.20315 0.922442,-0.222047 0.159449,-0.00708662 0.330709,-0.00590552 0.510237,0.00590552 0.500788,0.0330709 1.07244,0.140551 1.67835,0.32126 1.2815,0.381496 2.81103,1.07126 4.15394,2.01142 0.768898,0.537402 1.4811,1.15866 2.05984,1.85315 0.290551,0.347244 0.243307,0.864568 -0.103937,1.15512 -0.347244,0.290551 -0.864568,0.244488 -1.15512,-0.103937 -0.483071,-0.579922 -1.08543,-1.10433 -1.73858,-1.56142 -1.19528,-0.836221 -2.55,-1.44685 -3.68268,-1.78465 -0.201969,-0.0602363 -0.390945,-0.113386 -0.565748,-0.158268l0.119291 0.186614c0.970867,1.52953 1.89449,3.11221 2.75551,4.7563 0.6,-0.0248032 1.35,0.0874016 2.1626,0.328347 1.2815,0.382677 2.81103,1.07126 4.15394,2.01142 0.768898,0.538583 1.4811,1.15866 2.05984,1.85315 0.290551,0.348425 0.243307,0.864568 -0.103937,1.15512 -0.347244,0.290551 -0.864568,0.244488 -1.15512,-0.102756 -0.483071,-0.581103 -1.08543,-1.10433 -1.73858,-1.5626 -1.19528,-0.83504 -2.55,-1.44685 -3.68268,-1.78465 -0.317717,-0.0944883 -0.605906,-0.17126 -0.852757,-0.227953 1.46811,3.02008 2.72481,6.24804 3.69449,9.73347 0.121654,0.435827 -0.133465,0.88819 -0.569292,1.00984 -0.435827,0.121654 -0.88819,-0.133465 -1.00984,-0.569292 -1.00512,-3.61181 -2.32795,-6.93898 -3.87756,-10.0429 -0.0212599,-0.00708662 -0.0425197,-0.0153543 -0.0637796,-0.0248032 -0.188977,0.252756 -0.434646,0.654331 -0.7063,1.15748 -0.563386,1.04055 -1.08898,2.43189 -1.34291,3.86693 -0.13937,0.788977 -0.194882,1.58504 -0.126378,2.33268 0.0401575,0.451181 -0.292914,0.850394 -0.744095,0.890552 -0.451181,0.0413386 -0.850394,-0.291733 -0.890552,-0.742914 -0.0826772,-0.905906 -0.0188977,-1.84843 0.144095,-2.76851 0.284646,-1.61575 0.878741,-3.18425 1.51417,-4.35827 0.442914,-0.818505 0.944883,-1.47402 1.42795,-1.87559z"/>
   </g>
  </g>
  <g id="_458619432">
   <path id="_458620896" class="fil2" d="M836.907 764.222c0.212599,2.25 2.20984,3.90237 4.45985,3.68977 2.25,-0.212599 3.90237,-2.20984 3.68977,-4.45985 -0.451181,-4.62284 -0.152362,-8.65631 1.00158,-12.0201 1.07126,-3.12402 2.91378,-5.69174 5.61969,-7.63465 1.83425,-1.31929 2.25118,-3.87638 0.930709,-5.71063 -1.31929,-1.83425 -3.87756,-2.25118 -5.71063,-0.930709 -4.16693,2.99055 -6.98741,6.89528 -8.60434,11.6126 -1.53543,4.47756 -1.95236,9.6567 -1.38662,15.4536z"/>
   <path id="_458620608" class="fil3" d="M840.135 765.403c15.2445,-11.5476 27.5268,-8.53938 35.6776,1.05118 4.42796,5.20867 7.44922,12.4807 8.87599,20.3362 1.39961,7.70552 1.27441,16.0477 -0.558662,23.5748 -4.0878,16.7776 -16.2425,29.6528 -38.3209,24.274 -3.07441,-0.748819 -4.71142,-1.29567 -5.67402,-1.64764 -0.962599,0.351969 -2.59961,0.89882 -5.67402,1.64764 -22.0784,5.37874 -34.2331,-7.49764 -38.3209,-24.274 -1.83307,-7.52717 -1.95827,-15.8693 -0.558662,-23.5748 1.42677,-7.85552 4.44803,-15.1276 8.87599,-20.3362 8.15079,-9.59056 20.4331,-12.5988 35.6776,-1.05118z"/>
   <g>
    <path id="_458620560" class="fil2" d="M868.559 800.145c5.01496,-10.663 5.96811,-19.1008 3.09095,-25.4421 -2.85355,-6.29174 -9.4193,-10.4386 -19.4717,-12.5693 -1.07244,-0.50315 -2.26772,-1.41378 -1.45984,0.797245 -6.58819,16.4728 -1.26614,20.8559 6.27402,27.0603 3.24922,2.67402 6.93071,5.70355 10.1575,10.278l0.810237 1.14921 0.598819 -1.27323z"/>
    <path id="_458619624" class="fil2" d="M850.719 762.934c-0.0625985,0.034252 -0.0897638,-0.113386 -0.134646,-0.168898 -2.17677,-2.72362 -4.45512,-5.29961 -6.72166,-7.79528 -0.304725,-0.335433 -0.279921,-0.853938 0.0543308,-1.15866 0.335433,-0.304725 0.853938,-0.279921 1.15866,0.0543308 2.32323,2.55945 4.66654,5.20158 6.90001,8.01497l0.201969 0.255118 -1.45866 0.798426z"/>
    <path id="_458619456" class="fil4" d="M858.35 774.336l-2.93386 -4.93819 -0.0236221 -0.0106299c-0.187795,0.253937 -0.433465,0.655512 -0.705119,1.15748 -0.563386,1.04173 -1.09016,2.43307 -1.34291,3.86811 -0.140551,0.788977 -0.196063,1.58504 -0.127559,2.33268 0.0401575,0.451181 -0.292914,0.850394 -0.744095,0.890552 -0.451181,0.0401575 -0.849213,-0.292914 -0.890552,-0.744095 -0.0814961,-0.904725 -0.0188977,-1.84725 0.144095,-2.76732 0.285827,-1.61575 0.878741,-3.18425 1.51536,-4.35827 0.392126,-0.72756 0.831497,-1.3252 1.26378,-1.73032l0 -0.0011811c0.0590552,-0.0590552 0.120473,-0.113386 0.186614,-0.162992 0.13937,-0.113386 0.276378,-0.205512 0.411024,-0.274016 0.232677,-0.129921 0.546851,-0.20315 0.922442,-0.222047 0.159449,-0.00708662 0.330709,-0.00590552 0.510237,0.00590552 0.500788,0.0330709 1.07244,0.140551 1.67835,0.32126 1.2815,0.381496 2.81103,1.07126 4.15394,2.01142 0.768898,0.537402 1.4811,1.15866 2.05984,1.85315 0.290551,0.347244 0.243307,0.864568 -0.103937,1.15512 -0.347244,0.290551 -0.864568,0.244488 -1.15512,-0.103937 -0.483071,-0.579922 -1.08543,-1.10433 -1.73858,-1.56142 -1.19528,-0.836221 -2.55,-1.44685 -3.68268,-1.78465 -0.201969,-0.0602363 -0.390945,-0.113386 -0.565748,-0.158268l0.119291 0.186614c0.970867,1.52953 1.89449,3.11221 2.75551,4.7563 0.6,-0.0248032 1.35,0.0874016 2.1626,0.328347 1.2815,0.382677 2.81103,1.07126 4.15394,2.01142 0.768898,0.538583 1.4811,1.15866 2.05984,1.85315 0.290551,0.348425 0.243307,0.864568 -0.103937,1.15512 -0.347244,0.290551 -0.864568,0.244488 -1.15512,-0.102756 -0.483071,-0.581103 -1.08543,-1.10433 -1.73858,-1.5626 -1.19528,-0.83504 -2.55,-1.44685 -3.68268,-1.78465 -0.317717,-0.0944883 -0.605906,-0.17126 -0.852757,-0.227953 1.46811,3.02008 2.72481,6.24804 3.69449,9.73347 0.121654,0.435827 -0.133465,0.88819 -0.569292,1.00984 -0.435827,0.121654 -0.88819,-0.133465 -1.00984,-0.569292 -1.00512,-3.61181 -2.32795,-6.93898 -3.87756,-10.0429 -0.0212599,-0.00708662 -0.0425197,-0.0153543 -0.0637796,-0.0248032 -0.188977,0.252756 -0.434646,0.654331 -0.7063,1.15748 -0.563386,1.04055 -1.08898,2.43189 -1.34291,3.86693 -0.13937,0.788977 -0.194882,1.58504 -0.126378,2.33268 0.0401575,0.451181 -0.292914,0.850394 -0.744095,0.890552 -0.451181,0.0413386 -0.850394,-0.291733 -0.890552,-0.742914 -0.0826772,-0.905906 -0.0188977,-1.84843 0.144095,-2.76851 0.284646,-1.61575 0.878741,-3.18425 1.51417,-4.35827 0.442914,-0.818505 0.944883,-1.47402 1.42795,-1.87559z"/>
   </g>
  </g>
  <g id="_458619672">
   <path id="_458619408" class="fil2" d="M745.668 983.318c0.212599,2.25 2.20984,3.90237 4.45985,3.68977 2.25,-0.212599 3.90237,-2.20984 3.68977,-4.45985 -0.451181,-4.62284 -0.152362,-8.65631 1.00158,-12.0201 1.07126,-3.12402 2.91378,-5.69174 5.61969,-7.63465 1.83425,-1.31929 2.25118,-3.87638 0.930709,-5.71063 -1.31929,-1.83425 -3.87756,-2.25118 -5.71063,-0.930709 -4.16693,2.99055 -6.98741,6.89528 -8.60434,11.6126 -1.53543,4.47756 -1.95236,9.6567 -1.38662,15.4536z"/>
   <path id="_458619384" class="fil3" d="M748.896 984.499c15.2445,-11.5476 27.5268,-8.53938 35.6776,1.05118 4.42796,5.20867 7.44922,12.4807 8.87599,20.3362 1.39961,7.70552 1.27441,16.0477 -0.558662,23.5748 -4.0878,16.7776 -16.2425,29.6528 -38.3209,24.274 -3.07441,-0.748819 -4.71142,-1.29567 -5.67402,-1.64764 -0.962599,0.351969 -2.59961,0.89882 -5.67402,1.64764 -22.0784,5.37874 -34.2331,-7.49764 -38.3209,-24.274 -1.83307,-7.52717 -1.95827,-15.8693 -0.558662,-23.5748 1.42677,-7.85552 4.44803,-15.1276 8.87599,-20.3362 8.15079,-9.59056 20.4331,-12.5988 35.6776,-1.05118z"/>
   <g>
    <path id="_458619984" class="fil2" d="M777.319 1019.24c5.01496,-10.663 5.96811,-19.1008 3.09095,-25.4421 -2.85355,-6.29174 -9.4193,-10.4386 -19.4717,-12.5693 -1.07244,-0.50315 -2.26772,-1.41378 -1.45984,0.797245 -6.58819,16.4728 -1.26614,20.8559 6.27402,27.0603 3.24922,2.67402 6.93071,5.70355 10.1575,10.278l0.810237 1.14921 0.598819 -1.27323z"/>
    <path id="_458619960" class="fil2" d="M759.48 982.029c-0.0625985,0.034252 -0.0897638,-0.113386 -0.134646,-0.168898 -2.17677,-2.72362 -4.45512,-5.29961 -6.72166,-7.79528 -0.304725,-0.335433 -0.279921,-0.853938 0.0543308,-1.15866 0.335433,-0.304725 0.853938,-0.279921 1.15866,0.0543308 2.32323,2.55945 4.66654,5.20158 6.90001,8.01497l0.201969 0.255118 -1.45866 0.798426z"/>
    <path id="_458620080" class="fil4" d="M767.111 993.432l-2.93386 -4.93819 -0.0236221 -0.0106299c-0.187795,0.253937 -0.433465,0.655512 -0.705119,1.15748 -0.563386,1.04173 -1.09016,2.43307 -1.34291,3.86811 -0.140551,0.788977 -0.196063,1.58504 -0.127559,2.33268 0.0401575,0.451181 -0.292914,0.850394 -0.744095,0.890552 -0.451181,0.0401575 -0.849213,-0.292914 -0.890552,-0.744095 -0.0814961,-0.904725 -0.0188977,-1.84725 0.144095,-2.76732 0.285827,-1.61575 0.878741,-3.18425 1.51536,-4.35827 0.392126,-0.72756 0.831497,-1.3252 1.26378,-1.73032l0 -0.0011811c0.0590552,-0.0590552 0.120473,-0.113386 0.186614,-0.162992 0.13937,-0.113386 0.276378,-0.205512 0.411024,-0.274016 0.232677,-0.129921 0.546851,-0.20315 0.922442,-0.222047 0.159449,-0.00708662 0.330709,-0.00590552 0.510237,0.00590552 0.500788,0.0330709 1.07244,0.140551 1.67835,0.32126 1.2815,0.381496 2.81103,1.07126 4.15394,2.01142 0.768898,0.537402 1.4811,1.15866 2.05984,1.85315 0.290551,0.347244 0.243307,0.864568 -0.103937,1.15512 -0.347244,0.290551 -0.864568,0.244488 -1.15512,-0.103937 -0.483071,-0.579922 -1.08543,-1.10433 -1.73858,-1.56142 -1.19528,-0.836221 -2.55,-1.44685 -3.68268,-1.78465 -0.201969,-0.0602363 -0.390945,-0.113386 -0.565748,-0.158268l0.119291 0.186614c0.970867,1.52953 1.89449,3.11221 2.75551,4.7563 0.6,-0.0248032 1.35,0.0874016 2.1626,0.328347 1.2815,0.382677 2.81103,1.07126 4.15394,2.01142 0.768898,0.538583 1.4811,1.15866 2.05984,1.85315 0.290551,0.348425 0.243307,0.864568 -0.103937,1.15512 -0.347244,0.290551 -0.864568,0.244488 -1.15512,-0.102756 -0.483071,-0.581103 -1.08543,-1.10433 -1.73858,-1.5626 -1.19528,-0.83504 -2.55,-1.44685 -3.68268,-1.78465 -0.317717,-0.0944883 -0.605906,-0.17126 -0.852757,-0.227953 1.46811,3.02008 2.72481,6.24804 3.69449,9.73347 0.121654,0.435827 -0.133465,0.88819 -0.569292,1.00984 -0.435827,0.121654 -0.88819,-0.133465 -1.00984,-0.569292 -1.00512,-3.61181 -2.32795,-6.93898 -3.87756,-10.0429 -0.0212599,-0.00708662 -0.0425197,-0.0153543 -0.0637796,-0.0248032 -0.188977,0.252756 -0.434646,0.654331 -0.7063,1.15748 -0.563386,1.04055 -1.08898,2.43189 -1.34291,3.86693 -0.13937,0.788977 -0.194882,1.58504 -0.126378,2.33268 0.0401575,0.451181 -0.292914,0.850394 -0.744095,0.890552 -0.451181,0.0413386 -0.850394,-0.291733 -0.890552,-0.742914 -0.0826772,-0.905906 -0.0188977,-1.84843 0.144095,-2.76851 0.284646,-1.61575 0.878741,-3.18425 1.51417,-4.35827 0.442914,-0.818505 0.944883,-1.47402 1.42795,-1.87559z"/>
   </g>
  </g>
  <g id="_458619144">
   <path id="_458620104" class="fil2" d="M1084.21 764.222c0.212599,2.25 2.20984,3.90237 4.45985,3.68977 2.25,-0.212599 3.90237,-2.20984 3.68977,-4.45985 -0.451181,-4.62284 -0.152362,-8.65631 1.00158,-12.0201 1.07126,-3.12402 2.91378,-5.69174 5.61969,-7.63465 1.83425,-1.31929 2.25118,-3.87638 0.930709,-5.71063 -1.31929,-1.83425 -3.87756,-2.25118 -5.71063,-0.930709 -4.16693,2.99055 -6.98741,6.89528 -8.60434,11.6126 -1.53543,4.47756 -1.95236,9.6567 -1.38662,15.4536z"/>
   <path id="_458619288" class="fil3" d="M1087.44 765.403c15.2445,-11.5476 27.5268,-8.53938 35.6776,1.05118 4.42796,5.20867 7.44922,12.4807 8.87599,20.3362 1.39961,7.70552 1.27441,16.0477 -0.558662,23.5748 -4.0878,16.7776 -16.2425,29.6528 -38.3209,24.274 -3.07441,-0.748819 -4.71142,-1.29567 -5.67402,-1.64764 -0.962599,0.351969 -2.59961,0.89882 -5.67402,1.64764 -22.0784,5.37874 -34.2331,-7.49764 -38.3209,-24.274 -1.83307,-7.52717 -1.95827,-15.8693 -0.558662,-23.5748 1.42677,-7.85552 4.44803,-15.1276 8.87599,-20.3362 8.15079,-9.59056 20.4331,-12.5988 35.6776,-1.05118z"/>
   <g>
    <path id="_458618712" class="fil2" d="M1115.87 800.145c5.01496,-10.663 5.96811,-19.1008 3.09095,-25.4421 -2.85355,-6.29174 -9.4193,-10.4386 -19.4717,-12.5693 -1.07244,-0.50315 -2.26772,-1.41378 -1.45984,0.797245 -6.58819,16.4728 -1.26614,20.8559 6.27402,27.0603 3.24922,2.67402 6.93071,5.70355 10.1575,10.278l0.810237 1.14921 0.598819 -1.27323z"/>
    <path id="_458619240" class="fil2" d="M1098.03 762.934c-0.0625985,0.034252 -0.0897638,-0.113386 -0.134646,-0.168898 -2.17677,-2.72362 -4.45512,-5.29961 -6.72166,-7.79528 -0.304725,-0.335433 -0.279921,-0.853938 0.0543308,-1.15866 0.335433,-0.304725 0.853938,-0.279921 1.15866,0.0543308 2.32323,2.55945 4.66654,5.20158 6.90001,8.01497l0.201969 0.255118 -1.45866 0.798426z"/>
    <path id="_458619168" class="fil4" d="M1105.66 774.336l-2.93386 -4.93819 -0.0236221 -0.0106299c-0.187795,0.253937 -0.433465,0.655512 -0.705119,1.15748 -0.563386,1.04173 -1.09016,2.43307 -1.34291,3.86811 -0.140551,0.788977 -0.196063,1.58504 -0.127559,2.33268 0.0401575,0.451181 -0.292914,0.850394 -0.744095,0.890552 -0.451181,0.0401575 -0.849213,-0.292914 -0.890552,-0.744095 -0.0814961,-0.904725 -0.0188977,-1.84725 0.144095,-2.76732 0.285827,-1.61575 0.878741,-3.18425 1.51536,-4.35827 0.392126,-0.72756 0.831497,-1.3252 1.26378,-1.73032l0 -0.0011811c0.0590552,-0.0590552 0.120473,-0.113386 0.186614,-0.162992 0.13937,-0.113386 0.276378,-0.205512 0.411024,-0.274016 0.232677,-0.129921 0.546851,-0.20315 0.922442,-0.222047 0.159449,-0.00708662 0.330709,-0.00590552 0.510237,0.00590552 0.500788,0.0330709 1.07244,0.140551 1.67835,0.32126 1.2815,0.381496 2.81103,1.07126 4.15394,2.01142 0.768898,0.537402 1.4811,1.15866 2.05984,1.85315 0.290551,0.347244 0.243307,0.864568 -0.103937,1.15512 -0.347244,0.290551 -0.864568,0.244488 -1.15512,-0.103937 -0.483071,-0.579922 -1.08543,-1.10433 -1.73858,-1.56142 -1.19528,-0.836221 -2.55,-1.44685 -3.68268,-1.78465 -0.201969,-0.0602363 -0.390945,-0.113386 -0.565748,-0.158268l0.119291 0.186614c0.970867,1.52953 1.89449,3.11221 2.75551,4.7563 0.6,-0.0248032 1.35,0.0874016 2.1626,0.328347 1.2815,0.382677 2.81103,1.07126 4.15394,2.01142 0.768898,0.538583 1.4811,1.15866 2.05984,1.85315 0.290551,0.348425 0.243307,0.864568 -0.103937,1.15512 -0.347244,0.290551 -0.864568,0.244488 -1.15512,-0.102756 -0.483071,-0.581103 -1.08543,-1.10433 -1.73858,-1.5626 -1.19528,-0.83504 -2.55,-1.44685 -3.68268,-1.78465 -0.317717,-0.0944883 -0.605906,-0.17126 -0.852757,-0.227953 1.46811,3.02008 2.72481,6.24804 3.69449,9.73347 0.121654,0.435827 -0.133465,0.88819 -0.569292,1.00984 -0.435827,0.121654 -0.88819,-0.133465 -1.00984,-0.569292 -1.00512,-3.61181 -2.32795,-6.93898 -3.87756,-10.0429 -0.0212599,-0.00708662 -0.0425197,-0.0153543 -0.0637796,-0.0248032 -0.188977,0.252756 -0.434646,0.654331 -0.7063,1.15748 -0.563386,1.04055 -1.08898,2.43189 -1.34291,3.86693 -0.13937,0.788977 -0.194882,1.58504 -0.126378,2.33268 0.0401575,0.451181 -0.292914,0.850394 -0.744095,0.890552 -0.451181,0.0413386 -0.850394,-0.291733 -0.890552,-0.742914 -0.0826772,-0.905906 -0.0188977,-1.84843 0.144095,-2.76851 0.284646,-1.61575 0.878741,-3.18425 1.51417,-4.35827 0.442914,-0.818505 0.944883,-1.47402 1.42795,-1.87559z"/>
   </g>
  </g>
  <g id="_458618928">
   <path id="_458619360" class="fil2" d="M1197.06 651.374c0.212599,2.25 2.20984,3.90237 4.45985,3.68977 2.25,-0.212599 3.90237,-2.20984 3.68977,-4.45985 -0.451181,-4.62284 -0.152362,-8.65631 1.00158,-12.0201 1.07126,-3.12402 2.91378,-5.69174 5.61969,-7.63465 1.83425,-1.31929 2.25118,-3.87638 0.930709,-5.71063 -1.31929,-1.83425 -3.87756,-2.25118 -5.71063,-0.930709 -4.16693,2.99055 -6.98741,6.89528 -8.60434,11.6126 -1.53543,4.47756 -1.95236,9.6567 -1.38662,15.4536z"/>
   <path id="_458618664" class="fil3" d="M1200.29 652.555c15.2445,-11.5476 27.5268,-8.53938 35.6776,1.05118 4.42796,5.20867 7.44922,12.4807 8.87599,20.3362 1.39961,7.70552 1.27441,16.0477 -0.558662,23.5748 -4.0878,16.7776 -16.2425,29.6528 -38.3209,24.274 -3.07441,-0.748819 -4.71142,-1.29567 -5.67402,-1.64764 -0.962599,0.351969 -2.59961,0.89882 -5.67402,1.64764 -22.0784,5.37874 -34.2331,-7.49764 -38.3209,-24.274 -1.83307,-7.52717 -1.95827,-15.8693 -0.558662,-23.5748 1.42677,-7.85552 4.44803,-15.1276 8.87599,-20.3362 8.15079,-9.59056 20.4331,-12.5988 35.6776,-1.05118z"/>
   <g>
    <path id="_458619000" class="fil2" d="M1228.71 687.297c5.01496,-10.663 5.96811,-19.1008 3.09095,-25.4421 -2.85355,-6.29174 -9.4193,-10.4386 -19.4717,-12.5693 -1.07244,-0.50315 -2.26772,-1.41378 -1.45984,0.797245 -6.58819,16.4728 -1.26614,20.8559 6.27402,27.0603 3.24922,2.67402 6.93071,5.70355 10.1575,10.278l0.810237 1.14921 0.598819 -1.27323z"/>
    <path id="_458618976" class="fil2" d="M1210.87 650.085c-0.0625985,0.034252 -0.0897638,-0.113386 -0.134646,-0.168898 -2.17677,-2.72362 -4.45512,-5.29961 -6.72166,-7.79528 -0.304725,-0.335433 -0.279921,-0.853938 0.0543308,-1.15866 0.335433,-0.304725 0.853938,-0.279921 1.15866,0.0543308 2.32323,2.55945 4.66654,5.20158 6.90001,8.01497l0.201969 0.255118 -1.45866 0.798426z"/>
    <path id="_458619312" class="fil4" d="M1218.51 661.488l-2.93386 -4.93819 -0.0236221 -0.0106299c-0.187795,0.253937 -0.433465,0.655512 -0.705119,1.15748 -0.563386,1.04173 -1.09016,2.43307 -1.34291,3.86811 -0.140551,0.788977 -0.196063,1.58504 -0.127559,2.33268 0.0401575,0.451181 -0.292914,0.850394 -0.744095,0.890552 -0.451181,0.0401575 -0.849213,-0.292914 -0.890552,-0.744095 -0.0814961,-0.904725 -0.0188977,-1.84725 0.144095,-2.76732 0.285827,-1.61575 0.878741,-3.18425 1.51536,-4.35827 0.392126,-0.72756 0.831497,-1.3252 1.26378,-1.73032l0 -0.0011811c0.0590552,-0.0590552 0.120473,-0.113386 0.186614,-0.162992 0.13937,-0.113386 0.276378,-0.205512 0.411024,-0.274016 0.232677,-0.129921 0.546851,-0.20315 0.922442,-0.222047 0.159449,-0.00708662 0.330709,-0.00590552 0.510237,0.00590552 0.500788,0.0330709 1.07244,0.140551 1.67835,0.32126 1.2815,0.381496 2.81103,1.07126 4.15394,2.01142 0.768898,0.537402 1.4811,1.15866 2.05984,1.85315 0.290551,0.347244 0.243307,0.864568 -0.103937,1.15512 -0.347244,0.290551 -0.864568,0.244488 -1.15512,-0.103937 -0.483071,-0.579922 -1.08543,-1.10433 -1.73858,-1.56142 -1.19528,-0.836221 -2.55,-1.44685 -3.68268,-1.78465 -0.201969,-0.0602363 -0.390945,-0.113386 -0.565748,-0.158268l0.119291 0.186614c0.970867,1.52953 1.89449,3.11221 2.75551,4.7563 0.6,-0.0248032 1.35,0.0874016 2.1626,0.328347 1.2815,0.382677 2.81103,1.07126 4.15394,2.01142 0.768898,0.538583 1.4811,1.15866 2.05984,1.85315 0.290551,0.348425 0.243307,0.864568 -0.103937,1.15512 -0.347244,0.290551 -0.864568,0.244488 -1.15512,-0.102756 -0.483071,-0.581103 -1.08543,-1.10433 -1.73858,-1.5626 -1.19528,-0.83504 -2.55,-1.44685 -3.68268,-1.78465 -0.317717,-0.0944883 -0.605906,-0.17126 -0.852757,-0.227953 1.46811,3.02008 2.72481,6.24804 3.69449,9.73347 0.121654,0.435827 -0.133465,0.88819 -0.569292,1.00984 -0.435827,0.121654 -0.88819,-0.133465 -1.00984,-0.569292 -1.00512,-3.61181 -2.32795,-6.93898 -3.87756,-10.0429 -0.0212599,-0.00708662 -0.0425197,-0.0153543 -0.0637796,-0.0248032 -0.188977,0.252756 -0.434646,0.654331 -0.7063,1.15748 -0.563386,1.04055 -1.08898,2.43189 -1.34291,3.86693 -0.13937,0.788977 -0.194882,1.58504 -0.126378,2.33268 0.0401575,0.451181 -0.292914,0.850394 -0.744095,0.890552 -0.451181,0.0413386 -0.850394,-0.291733 -0.890552,-0.742914 -0.0826772,-0.905906 -0.0188977,-1.84843 0.144095,-2.76851 0.284646,-1.61575 0.878741,-3.18425 1.51417,-4.35827 0.442914,-0.818505 0.944883,-1.47402 1.42795,-1.87559z"/>
   </g>
  </g>
  <g id="_458618040">
   <path id="_458618160" class="fil2" d="M1372.94 820.647c0.212599,2.25 2.20984,3.90237 4.45985,3.68977 2.25,-0.212599 3.90237,-2.20984 3.68977,-4.45985 -0.451181,-4.62284 -0.152362,-8.65631 1.00158,-12.0201 1.07126,-3.12402 2.91378,-5.69174 5.61969,-7.63465 1.83425,-1.31929 2.25118,-3.87638 0.930709,-5.71063 -1.31929,-1.83425 -3.87756,-2.25118 -5.71063,-0.930709 -4.16693,2.99055 -6.98741,6.89528 -8.60434,11.6126 -1.53543,4.47756 -1.95236,9.6567 -1.38662,15.4536z"/>
   <path id="_458618088" class="fil3" d="M1376.17 821.828c15.2445,-11.5476 27.5268,-8.53938 35.6776,1.05118 4.42796,5.20867 7.44922,12.4807 8.87599,20.3362 1.39961,7.70552 1.27441,16.0477 -0.558662,23.5748 -4.0878,16.7776 -16.2425,29.6528 -38.3209,24.274 -3.07441,-0.748819 -4.71142,-1.29567 -5.67402,-1.64764 -0.962599,0.351969 -2.59961,0.89882 -5.67402,1.64764 -22.0784,5.37874 -34.2331,-7.49764 -38.3209,-24.274 -1.83307,-7.52717 -1.95827,-15.8693 -0.558662,-23.5748 1.42677,-7.85552 4.44803,-15.1276 8.87599,-20.3362 8.15079,-9.59056 20.4331,-12.5988 35.6776,-1.05118z"/>
   <g>
    <path id="_458617920" class="fil2" d="M1404.59 856.57c5.01496,-10.663 5.96811,-19.1008 3.09095,-25.4421 -2.85355,-6.29174 -9.4193,-10.4386 -19.4717,-12.5693 -1.07244,-0.50315 -2.26772,-1.41378 -1.45984,0.797245 -6.58819,16.4728 -1.26614,20.8559 6.27402,27.0603 3.24922,2.67402 6.93071,5.70355 10.1575,10.278l0.810237 1.14921 0.598819 -1.27323z"/>
    <path id="_458618352" class="fil2" d="M1386.75 819.359c-0.0625985,0.034252 -0.0897638,-0.113386 -0.134646,-0.168898 -2.17677,-2.72362 -4.45512,-5.29961 -6.72166,-7.79528 -0.304725,-0.335433 -0.279921,-0.853938 0.0543308,-1.15866 0.335433,-0.304725 0.853938,-0.279921 1.15866,0.0543308 2.32323,2.55945 4.66654,5.20158 6.90001,8.01497l0.201969 0.255118 -1.45866 0.798426z"/>
    <path id="_458618280" class="fil4" d="M1394.38 830.761l-2.93386 -4.93819 -0.0236221 -0.0106299c-0.187795,0.253937 -0.433465,0.655512 -0.705119,1.15748 -0.563386,1.04173 -1.09016,2.43307 -1.34291,3.86811 -0.140551,0.788977 -0.196063,1.58504 -0.127559,2.33268 0.0401575,0.451181 -0.292914,0.850394 -0.744095,0.890552 -0.451181,0.0401575 -0.849213,-0.292914 -0.890552,-0.744095 -0.0814961,-0.904725 -0.0188977,-1.84725 0.144095,-2.76732 0.285827,-1.61575 0.878741,-3.18425 1.51536,-4.35827 0.392126,-0.72756 0.831497,-1.3252 1.26378,-1.73032l0 -0.0011811c0.0590552,-0.0590552 0.120473,-0.113386 0.186614,-0.162992 0.13937,-0.113386 0.276378,-0.205512 0.411024,-0.274016 0.232677,-0.129921 0.546851,-0.20315 0.922442,-0.222047 0.159449,-0.00708662 0.330709,-0.00590552 0.510237,0.00590552 0.500788,0.0330709 1.07244,0.140551 1.67835,0.32126 1.2815,0.381496 2.81103,1.07126 4.15394,2.01142 0.768898,0.537402 1.4811,1.15866 2.05984,1.85315 0.290551,0.347244 0.243307,0.864568 -0.103937,1.15512 -0.347244,0.290551 -0.864568,0.244488 -1.15512,-0.103937 -0.483071,-0.579922 -1.08543,-1.10433 -1.73858,-1.56142 -1.19528,-0.836221 -2.55,-1.44685 -3.68268,-1.78465 -0.201969,-0.0602363 -0.390945,-0.113386 -0.565748,-0.158268l0.119291 0.186614c0.970867,1.52953 1.89449,3.11221 2.75551,4.7563 0.6,-0.0248032 1.35,0.0874016 2.1626,0.328347 1.2815,0.382677 2.81103,1.07126 4.15394,2.01142 0.768898,0.538583 1.4811,1.15866 2.05984,1.85315 0.290551,0.348425 0.243307,0.864568 -0.103937,1.15512 -0.347244,0.290551 -0.864568,0.244488 -1.15512,-0.102756 -0.483071,-0.581103 -1.08543,-1.10433 -1.73858,-1.5626 -1.19528,-0.83504 -2.55,-1.44685 -3.68268,-1.78465 -0.317717,-0.0944883 -0.605906,-0.17126 -0.852757,-0.227953 1.46811,3.02008 2.72481,6.24804 3.69449,9.73347 0.121654,0.435827 -0.133465,0.88819 -0.569292,1.00984 -0.435827,0.121654 -0.88819,-0.133465 -1.00984,-0.569292 -1.00512,-3.61181 -2.32795,-6.93898 -3.87756,-10.0429 -0.0212599,-0.00708662 -0.0425197,-0.0153543 -0.0637796,-0.0248032 -0.188977,0.252756 -0.434646,0.654331 -0.7063,1.15748 -0.563386,1.04055 -1.08898,2.43189 -1.34291,3.86693 -0.13937,0.788977 -0.194882,1.58504 -0.126378,2.33268 0.0401575,0.451181 -0.292914,0.850394 -0.744095,0.890552 -0.451181,0.0413386 -0.850394,-0.291733 -0.890552,-0.742914 -0.0826772,-0.905906 -0.0188977,-1.84843 0.144095,-2.76851 0.284646,-1.61575 0.878741,-3.18425 1.51417,-4.35827 0.442914,-0.818505 0.944883,-1.47402 1.42795,-1.87559z"/>
   </g>
  </g>
  <g id="_458617248">
   <path id="_458618448" class="fil2" d="M1327.32 1000.73c0.212599,2.25 2.20984,3.90237 4.45985,3.68977 2.25,-0.212599 3.90237,-2.20984 3.68977,-4.45985 -0.451181,-4.62284 -0.152362,-8.65631 1.00158,-12.0201 1.07126,-3.12402 2.91378,-5.69174 5.61969,-7.63465 1.83425,-1.31929 2.25118,-3.87638 0.930709,-5.71063 -1.31929,-1.83425 -3.87756,-2.25118 -5.71063,-0.930709 -4.16693,2.99055 -6.98741,6.89528 -8.60434,11.6126 -1.53543,4.47756 -1.95236,9.6567 -1.38662,15.4536z"/>
   <path id="_458618400" class="fil3" d="M1330.55 1001.91c15.2445,-11.5476 27.5268,-8.53938 35.6776,1.05118 4.42796,5.20867 7.44922,12.4807 8.87599,20.3362 1.39961,7.70552 1.27441,16.0477 -0.558662,23.5748 -4.0878,16.7776 -16.2425,29.6528 -38.3209,24.274 -3.07441,-0.748819 -4.71142,-1.29567 -5.67402,-1.64764 -0.962599,0.351969 -2.59961,0.89882 -5.67402,1.64764 -22.0784,5.37874 -34.2331,-7.49764 -38.3209,-24.274 -1.83307,-7.52717 -1.95827,-15.8693 -0.558662,-23.5748 1.42677,-7.85552 4.44803,-15.1276 8.87599,-20.3362 8.15079,-9.59056 20.4331,-12.5988 35.6776,-1.05118z"/>
   <g>
    <path id="_458617944" class="fil2" d="M1358.97 1036.65c5.01496,-10.663 5.96811,-19.1008 3.09095,-25.4421 -2.85355,-6.29174 -9.4193,-10.4386 -19.4717,-12.5693 -1.07244,-0.50315 -2.26772,-1.41378 -1.45984,0.797245 -6.58819,16.4728 -1.26614,20.8559 6.27402,27.0603 3.24922,2.67402 6.93071,5.70355 10.1575,10.278l0.810237 1.14921 0.598819 -1.27323z"/>
    <path id="_458618424" class="fil2" d="M1341.13 999.438c-0.0625985,0.034252 -0.0897638,-0.113386 -0.134646,-0.168898 -2.17677,-2.72362 -4.45512,-5.29961 -6.72166,-7.79528 -0.304725,-0.335433 -0.279921,-0.853938 0.0543308,-1.15866 0.335433,-0.304725 0.853938,-0.279921 1.15866,0.0543308 2.32323,2.55945 4.66654,5.20158 6.90001,8.01497l0.201969 0.255118 -1.45866 0.798426z"/>
    <path id="_458617080" class="fil4" d="M1348.76 1010.84l-2.93386 -4.93819 -0.0236221 -0.0106299c-0.187795,0.253937 -0.433465,0.655512 -0.705119,1.15748 -0.563386,1.04173 -1.09016,2.43307 -1.34291,3.86811 -0.140551,0.788977 -0.196063,1.58504 -0.127559,2.33268 0.0401575,0.451181 -0.292914,0.850394 -0.744095,0.890552 -0.451181,0.0401575 -0.849213,-0.292914 -0.890552,-0.744095 -0.0814961,-0.904725 -0.0188977,-1.84725 0.144095,-2.76732 0.285827,-1.61575 0.878741,-3.18425 1.51536,-4.35827 0.392126,-0.72756 0.831497,-1.3252 1.26378,-1.73032l0 -0.0011811c0.0590552,-0.0590552 0.120473,-0.113386 0.186614,-0.162992 0.13937,-0.113386 0.276378,-0.205512 0.411024,-0.274016 0.232677,-0.129921 0.546851,-0.20315 0.922442,-0.222047 0.159449,-0.00708662 0.330709,-0.00590552 0.510237,0.00590552 0.500788,0.0330709 1.07244,0.140551 1.67835,0.32126 1.2815,0.381496 2.81103,1.07126 4.15394,2.01142 0.768898,0.537402 1.4811,1.15866 2.05984,1.85315 0.290551,0.347244 0.243307,0.864568 -0.103937,1.15512 -0.347244,0.290551 -0.864568,0.244488 -1.15512,-0.103937 -0.483071,-0.579922 -1.08543,-1.10433 -1.73858,-1.56142 -1.19528,-0.836221 -2.55,-1.44685 -3.68268,-1.78465 -0.201969,-0.0602363 -0.390945,-0.113386 -0.565748,-0.158268l0.119291 0.186614c0.970867,1.52953 1.89449,3.11221 2.75551,4.7563 0.6,-0.0248032 1.35,0.0874016 2.1626,0.328347 1.2815,0.382677 2.81103,1.07126 4.15394,2.01142 0.768898,0.538583 1.4811,1.15866 2.05984,1.85315 0.290551,0.348425 0.243307,0.864568 -0.103937,1.15512 -0.347244,0.290551 -0.864568,0.244488 -1.15512,-0.102756 -0.483071,-0.581103 -1.08543,-1.10433 -1.73858,-1.5626 -1.19528,-0.83504 -2.55,-1.44685 -3.68268,-1.78465 -0.317717,-0.0944883 -0.605906,-0.17126 -0.852757,-0.227953 1.46811,3.02008 2.72481,6.24804 3.69449,9.73347 0.121654,0.435827 -0.133465,0.88819 -0.569292,1.00984 -0.435827,0.121654 -0.88819,-0.133465 -1.00984,-0.569292 -1.00512,-3.61181 -2.32795,-6.93898 -3.87756,-10.0429 -0.0212599,-0.00708662 -0.0425197,-0.0153543 -0.0637796,-0.0248032 -0.188977,0.252756 -0.434646,0.654331 -0.7063,1.15748 -0.563386,1.04055 -1.08898,2.43189 -1.34291,3.86693 -0.13937,0.788977 -0.194882,1.58504 -0.126378,2.33268 0.0401575,0.451181 -0.292914,0.850394 -0.744095,0.890552 -0.451181,0.0413386 -0.850394,-0.291733 -0.890552,-0.742914 -0.0826772,-0.905906 -0.0188977,-1.84843 0.144095,-2.76851 0.284646,-1.61575 0.878741,-3.18425 1.51417,-4.35827 0.442914,-0.818505 0.944883,-1.47402 1.42795,-1.87559z"/>
   </g>
  </g>
 </g>
 <rect class="fil5" width="2048" height="2048"/>
</svg>
