<?xml version="1.0" encoding="UTF-8"?>
<!DOCTYPE svg PUBLIC "-//W3C//DTD SVG 1.1//EN" "http://www.w3.org/Graphics/SVG/1.1/DTD/svg11.dtd">
<!-- Creator: CorelDRAW -->
<svg xmlns="http://www.w3.org/2000/svg" xml:space="preserve" width="2048px" height="2048px" style="shape-rendering:geometricPrecision; text-rendering:geometricPrecision; image-rendering:optimizeQuality; fill-rule:evenodd; clip-rule:evenodd"
viewBox="0 0 2048 2048"
 xmlns:xlink="http://www.w3.org/1999/xlink">
 <defs>
  <style type="text/css">
   <![CDATA[
    .fil6 {fill:none}
    .fil3 {fill:none;fill-rule:nonzero}
    .fil13 {fill:#212121}
    .fil0 {fill:#41322D}
    .fil2 {fill:#49362F}
    .fil8 {fill:#5B433B}
    .fil1 {fill:#5D4037}
    .fil7 {fill:#795548}
    .fil10 {fill:#F57C00}
    .fil9 {fill:#FFCA28}
    .fil12 {fill:#FFFFFE}
    .fil14 {fill:#41322D;fill-rule:nonzero}
    .fil5 {fill:#424242;fill-rule:nonzero}
    .fil4 {fill:#BDBDBD;fill-rule:nonzero}
    .fil11 {fill:#FFB300;fill-rule:nonzero}
   ]]>
  </style>
 </defs>
 <g id="Layer_x0020_1">
  <metadata id="CorelCorpID_0Corel-Layer"/>
  <g id="_458623392">
   <path id="_458629752" class="fil0" d="M397.604 901.266c-16.7646,-3.78662 -59.4248,-44.9445 -60.313,-64.2686 -2.80866,-61.0878 -21.9591,-73.4942 -48.9414,-72.4264 -35.5996,1.40788 -55.1493,104.752 13.689,142.026 0,0 59.0115,6.47126 65.1036,40.7374 0,0 68.5323,8.37638 30.4618,-46.0689z"/>
   <path id="_458629920" class="fil1" d="M1385.28 1536.89c-4.46103,5.4189 -10.0453,12.7878 -10.4528,16.2083 0.379134,1.19055 1.86732,3.06969 3.20315,4.57796l1.97835 1.96536c6.05079,6.013 16.0595,11.9244 23.2689,16.539 17.5571,11.2382 34.6996,21.6709 49.5485,36.3036 1.74567,0.729922 4.03465,1.53543 6.29528,2.23465 5.4626,-7.07835 10.1114,-26.4579 11.2807,-32.4437 21.6756,-44.4237 7.50473,-98.2111 2.64803,-150.023 -1.05945,-15.652 -2.53937,-31.4481 -3.25748,-47.1012 -0.0212599,-0.451181 -0.0330709,-0.930709 -0.0602363,-1.40433l-0.129921 -0.42874c-4.59567,-15.0331 -8.5878,-30.5516 -12.6284,-45.7489 -6.75709,-25.4044 -33.1028,-92.3717 -39.4075,-117.891 -2.15788,-8.74253 -4.28622,-17.4921 -6.37323,-26.2512 -3.91418,-16.428 -7.73505,-32.915 -11.1473,-49.4563 -1.01929,-4.94055 -2.10945,-10.1469 -3.07205,-15.4028 -10.5307,10.8059 -21.515,21.6201 -33.0792,32.439 -13.3394,12.4807 -26.7366,24.2681 -40.1988,35.1744 -13.4303,10.8827 -27.1736,21.1382 -41.2843,30.6331l9.86103 13.5c9.09922,12.4547 37.937,66.4512 46.8839,79.0146 9.63308,13.5272 19.1894,27.1358 28.4421,40.9252 7.02048,10.4599 14.4461,21.5374 20.3291,32.6717 7.64764,14.4744 10.0595,34.5083 11.2807,50.7142 0.826772,10.9536 -2.36693,25.3099 -2.27953,36.3118 0.0649607,8.11654 3.21496,13.8343 2.8937,21.9437 -0.531496,13.3772 -3.80315,27.4087 -14.5429,34.9937z"/>
   <path id="_458628744" class="fil2" d="M1380.25 1535.08c-5.02087,6.09804 -11.3055,14.3929 -11.765,18.2421 0.426378,1.34055 2.10236,3.45591 3.60591,5.15315l2.22638 2.21221c6.81024,6.7689 18.0768,13.4221 26.191,18.6154 19.7622,12.6496 39.0567,24.3921 55.7693,40.8614 1.96536,0.822048 4.54252,1.72914 7.08544,2.51693 6.14882,-7.96772 11.3823,-29.7815 12.698,-36.5174 3.68268,-18.8563 5.39882,-38.9681 6.06851,-58.8945l-85.2036 -47.315c-0.0177165,5.25355 -0.0992127,10.5095 -0.307087,15.7382 -0.596457,15.0555 -4.28032,30.8492 -16.3689,39.3874z"/>
   <path id="_458628672" class="fil3" d="M1450.62 1137.63c-23.3705,26.1118 -47.3859,51.4559 -72.7406,75.1749 -25.7268,24.0673 -52.4126,46.0642 -80.5501,64.8957"/>
   <path id="_458628960" class="fil4" d="M1445.04 616.453c-18.6827,-25.0772 -41.3965,-46.8898 -67.7634,-65.7402 -65.9375,-47.1367 -77.7343,-33.091 -138.325,-101.504 84.9296,-9.03308 101.96,-4.32166 176.158,48.7181 31.6465,22.6229 59.1248,49.0985 82.0111,79.8154l-52.0807 38.7107z"/>
   <polygon id="_458629200" class="fil5" points="1455.2,1609.15 1455.19,1609.13 1455.2,1609.18 1455.21,1609.2 "/>
   <path id="_458629152" class="fil6" d="M562.135 1304.95c-0.63189,0.0732284 -1.2685,0.153543 -1.90158,0.239764"/>
   <path id="_458629296" class="fil1" d="M509.848 1282.56l4.55197 86.0918c2.5878,25.3807 8.06812,73.6796 18.5421,96.4477 0.0696851,0.15 0.140551,0.307087 0.214961,0.464174l0.212599 0.314173c13.5744,19.9158 26.1059,52.6831 34.7268,75.3993 2.88071,7.59095 9.79843,29.9292 15.4795,43.6689l96.4961 0c1.01339,-20.7874 -14.974,-41.9185 -23.4803,-60.9485 -10.95,-24.4961 -22.239,-49.0122 -32.3351,-73.9477l-1.29803 0.459449 -10.5295 -31.4126c-6.14882,-18.3508 -0.0555119,-102.837 4.1752,-121.482 2.74252,-12.0862 5.53229,-24.2386 7.26615,-36.5162l0.516142 -3.65079 -0.798426 -0.263386 -0.233858 -0.0767717 -1.03228 -0.335433 -0.868111 -0.27874 -0.473622 -0.15 -1.76102 -0.552756 -1.03701 -0.318898 -0.853938 -0.259843 -0.18189 -0.0543308 -1.03819 -0.31063 -0.63189 -0.185433 -0.874016 -0.252756 -1.2626 -0.360236 -0.602363 -0.167717 -1.56969 -0.433465 -0.442914 -0.119291 -1.25787 -0.333071 -1.0441 -0.270473 -0.648426 -0.165354 -1.04528 -0.261024 -0.170079 -0.0425197 -0.863386 -0.211417 -1.33819 -0.315355 -0.807875 -0.185433 -1.34882 -0.302362 -0.483071 -0.105118 -1.51417 -0.32126 -0.585827 -0.119291 -1.44567 -0.288189 -0.629528 -0.120473 -1.48228 -0.274016 -0.578741 -0.102756 -1.50354 -0.256299 -0.454725 -0.0755906 -1.5874 -0.249213 -0.483071 -0.0708662 -1.47874 -0.210236 -0.568111 -0.0755906 -1.56142 -0.198425 -0.0874016 -0.0106299 -0.0826772 -0.0106299 -0.231496 -0.0271654c-0.561024,-0.0649607 -1.11969,-0.126378 -1.68071,-0.185433l-0.131102 -0.0141732 -0.00708662 -0.0011811 -0.134646 -0.0129921c-0.605906,-0.0637796 -1.21063,-0.121654 -1.81772,-0.174803l-0.101575 -0.00944883 -0.0708662 -0.00590552c-0.649607,-0.056693 -1.29921,-0.108662 -1.94882,-0.154725l-0.0519685 -0.00354331c-0.648426,-0.046063 -1.29921,-0.0850394 -1.94882,-0.121654l-0.154725 -0.00826772c-0.614174,-0.0318898 -1.22835,-0.0602363 -1.84252,-0.0838583l-0.257481 -0.00944883c-0.587008,-0.0200788 -1.1752,-0.0377953 -1.76457,-0.0496063l-0.36378 -0.00590552c-0.591733,-0.011811 -1.18347,-0.0165354 -1.77638,-0.0177165l-0.239764 0c-0.614174,0 -1.22717,0.00472441 -1.84488,0.0165354l-0.263386 0.00472441c-0.624804,0.0106299 -1.25079,0.0283465 -1.87677,0.0507874l-0.165354 0.00590552c-0.640158,0.0248032 -1.28032,0.0543308 -1.92284,0.0897638l-0.166536 0.0106299c-0.623623,0.0354331 -1.25079,0.0767717 -1.87677,0.124016l-0.270473 0.0212599c-0.607087,0.0472441 -1.21299,0.0992127 -1.82008,0.157087l-0.291733 0.0295276c-0.620079,0.0602363 -1.24134,0.125197 -1.8626,0.197244l-0.177165 0.022441c-0.633071,0.0732284 -1.26732,0.154725 -1.90158,0.239764l-0.0779528 0.0106299 -0.0720473 0.0106299c-0.676772,0.0944883 -1.35354,0.193701 -2.0315,0.302362 -5.73544,0.911812 -11.1047,2.95866 -15.978,5.89371 -1.67126,1.0063 -6.2752,4.94764 -11.889,10.0028 -0.629528,0.714567 -1.24252,1.44803 -1.8378,2.19803l-0.315355 -0.250394c-5.4,4.9063 -11.4614,10.5721 -16.6606,15.5563z"/>
   <path id="_458628792" class="fil2" d="M578.391 1568.34l-0.857481 15.3532c-0.173622,3.1311 -0.453544,6.29056 -0.68504,9.42048 -0.839764,11.3575 -1.72677,22.8709 -1.72677,34.2579 0,5.23229 0.786615,23.041 4.6689,27.4288 0.780709,0.230315 2.20866,0.272835 2.87008,0.272835 15.9697,0 32.0209,-0.407481 47.9989,-0.574016 29.0823,-0.301181 41.8111,-0.598819 70.8945,-0.598819 6.84567,0 7.66182,-2.64921 9.14056,-9.37324 1.14685,-5.20748 0.734646,-11.6882 -0.0472441,-16.9146 -1.05236,-7.02402 -3.01536,-14.1142 -5.54646,-20.7437 -5.30315,-13.8957 -16.4965,-32.713 -31.1882,-37.8355l-7.0063 -2.44252 -88.5154 1.74921z"/>
   <path id="_458628288" class="fil7" d="M1425.78 1113.02c5.70119,-10.4067 12.3579,-20.2299 17.2677,-27.6508 17.8784,-27.026 37.4292,-53.3989 57.2422,-79.0359 61.1067,-79.0548 85.48,-150.268 187.831,-98.0422 11.4709,5.85237 22.8815,11.015 35.126,15.0284l1.83189 0.470079c7.93938,2.03268 16.4386,3.07441 24.6213,2.23583 9.0945,-0.930709 17.3516,-3.9567 24.3555,-9.95552 6.96851,-5.96693 11.4496,-13.8095 14.2335,-22.3831l1.09134 -4.26024c3.08859,-12.0709 2.87362,-26.8866 2.19331,-39.4382l-0.281103 -2.95984c-1.78583,-18.8858 -4.4752,-37.7374 -8.44016,-56.2926 -17.3173,-81.0556 -56.7248,-152.571 -129.188,-196.009 -47.7071,-28.5992 -107.959,-42.3366 -163.403,-37.128 -6.34725,0.596457 -12.7016,1.4126 -18.9709,2.58071l-3.85394 0.718111 -3.91536 -0.217323c-18.9886,-1.05473 -28.4634,5.22284 -36.8611,22.063 -50.2323,100.759 -10.1138,199.876 -239.045,251.081 -59.1733,13.2354 -119.352,23.3162 -179.25,32.6599 -78.3662,12.2244 -137.74,11.7319 -213.109,-12.5339 -6.3626,-2.04803 -12.7028,-4.17284 -19.0441,-6.2941 -28.1587,-9.4252 -55.3926,-18.0555 -84.606,-23.8536 -41.1426,-8.16733 -83.1981,-10.7433 -125.082,-10.3973 -52.8532,0.433465 -107.002,12.6721 -146.936,49.2827 -78.306,71.7898 -61.6607,188.255 -41.341,281.194 4.02992,18.4347 9.94489,41.8441 9.94489,60.5764 0,23.8087 -31.226,80.804 -42.4973,103.159 -13.9453,27.6567 -50.7839,97.2083 -50.7839,127.057 0,25.1575 4.61929,54.1158 8.29843,79.0749 1.72205,11.6669 3.52796,23.3221 5.33622,34.9784 1.74685,11.2476 3.94607,22.3441 6.29292,33.4772 2.13543,10.1244 4.99843,20.7154 2.29488,31.0122 -3.12166,11.8807 -5.29725,27.574 -5.29725,39.7866 0,6.10985 0.348425,12.8788 1.75158,18.8362 0.869292,3.68977 2.27244,8.74016 6.21615,10.2461 0.635434,0.243307 1.22953,0.37441 1.91221,0.37441 19.3382,-0.00590552 38.8311,-0.533859 58.1823,-0.778347 24.652,-0.311811 49.3252,-0.681497 73.9784,-0.681497 2.03504,0 7.01812,-0.19252 9.67324,-1.04764 0.324803,-1.54606 0.39567,-3.81496 0.39567,-4.92048 0,-7.87678 -16.6524,-27.7689 -21.4193,-33.7406 -11.2323,-14.0693 -28.9654,-34.9347 -32.4591,-52.5815 -2.03858,-10.3004 -4.22599,-20.5902 -6.32717,-30.8788 -4.65118,-22.7634 -10.3831,-45.1181 -15.2575,-67.7693 -3.60355,-16.7445 -6.2256,-33.2398 -1.84488,-50.1579 4.3063,-16.6276 14.2606,-29.5063 25.5579,-42.0048 14.8417,-16.4197 30.9107,-32.1177 46.1244,-48.2658l48.8552 -51.854 0.0578741 0.558662 0.250394 -0.26811 0.50315 -0.533859 0.183071 -0.194882 0.068504 -0.0720473 0.252756 -0.263386 0.00236221 -0.00472441 0.252756 -0.259843 0.0755906 -0.0779528 0.179528 -0.185433 0.148819 -0.148819 0.109843 -0.111024 0.220866 -0.223229 0.0366142 -0.0377953 0.259843 -0.258662 0.0354331 -0.0366142 0.223229 -0.220866 0.111024 -0.108662 0.152362 -0.147638 0.184252 -0.180709 0.0767717 -0.0755906 0.261024 -0.251575 0.00236221 -0.00236221 0.263386 -0.253937 0.0732284 -0.068504 0.19252 -0.183071 0.147638 -0.13937 0.120473 -0.111024 0.223229 -0.209055 0.0448819 -0.0413386 0.26811 -0.248032 0.0307087 -0.0295276 0.238583 -0.217323 0.10748 -0.100394 0.162992 -0.146457 0.186614 -0.167717 0.0862205 -0.0767717 0.261024 -0.23504 0.011811 -0.00944883 0.272835 -0.239764 0.0673229 -0.0614174 0.207874 -0.180709 0.146457 -0.127559 0.129921 -0.113386 0.22441 -0.193701 0.0519685 -0.046063 0.27874 -0.23504 0.0248032 -0.0236221 0.252756 -0.21378 0.105118 -0.0885827 0.174803 -0.145276 0.185433 -0.155906 0.0968505 -0.0791339 0.263386 -0.218504 0.0177165 -0.0129921 0.283465 -0.232677 0.0614174 -0.0519685 0.220866 -0.177165 0.145276 -0.115748 0.140551 -0.113386 0.225591 -0.179528 0.0602363 -0.0484252 0.288189 -0.225591 0.0188977 -0.0153543 0.26811 -0.209055 0.102756 -0.0791339 0.186614 -0.144095 0.184252 -0.142913 0.105118 -0.0791339 0.26811 -0.20315 0.0236221 -0.0188977 0.291733 -0.219685 0.0590552 -0.0425197 0.233858 -0.173622 0.140551 -0.106299 0.153543 -0.112205 0.225591 -0.164173 0.0696851 -0.0507874 0.295276 -0.214961 0.0141732 -0.00944883 0.282284 -0.20315 0.0992127 -0.0696851 0.199606 -0.141732 0.183071 -0.12874 0.115748 -0.0814961 0.26811 -0.187795 0.0307087 -0.022441 0.301181 -0.206693 0.0531496 -0.0366142 0.248032 -0.168898 0.13937 -0.0944883 0.164173 -0.111024 0.22441 -0.152362 0.0791339 -0.0507874 0.303544 -0.201969 0.00708662 -0.00472441 0.298819 -0.196063 0.0933072 -0.0602363 0.21378 -0.13937 0.180709 -0.116929 0.126378 -0.0814961 0.26811 -0.17126 0.0389764 -0.0259843 0.31063 -0.193701 0.046063 -0.0307087 0.263386 -0.162992 0.135827 -0.0838583 0.175984 -0.108662 0.223229 -0.138189 0.0885827 -0.0531496 0.312992 -0.188977c8.2689,-4.97835 17.5547,-8.47796 27.6768,-10.089 0.739371,-0.11811 1.4811,-0.226772 2.22047,-0.330709l0.16063 -0.0248032c0.719292,-0.0992127 1.43976,-0.191339 2.15906,-0.277559l0.219685 -0.0271654c0.707481,-0.0838583 1.41732,-0.16063 2.12599,-0.233858l0.21378 -0.0200788c0.725197,-0.0732284 1.44803,-0.138189 2.17205,-0.198425l0.116929 -0.00944883c0.714567,-0.056693 1.43032,-0.108662 2.1437,-0.153543l0.301181 -0.0200788c0.662599,-0.0413386 1.32284,-0.0755906 1.98425,-0.106299l0.399213 -0.0177165c0.669686,-0.0283465 1.33819,-0.0531496 2.00906,-0.0720473l0.23504 -0.00354331c0.67441,-0.0177165 1.34764,-0.0330709 2.01969,-0.0401575l0.132284 -0.0011811 0.0874016 0c0.742914,-0.00472441 1.48465,-0.00708662 2.22402,-0.0011811l0.00472441 0c0.718111,0.00472441 1.43622,0.0177165 2.15315,0.034252l0.15 0.00236221 0.141732 0.00354331c0.648426,0.0165354 1.29449,0.0389764 1.94173,0.0637796l0.357874 0.0129921c0.660237,0.0271654 1.32047,0.0602363 1.97953,0.0968505l0.320079 0.0165354c0.660237,0.0401575 1.31929,0.0826772 1.97835,0.129921l0.370866 0.0259843c0.657875,0.0484252 1.31457,0.101575 1.97244,0.158268l0.316536 0.0271654c0.649607,0.0578741 1.29567,0.116929 1.9441,0.183071l0.448819 0.0472441c0.635434,0.0661418 1.27205,0.134646 1.90748,0.209055l0.333071 0.0389764 1.93347 0.239764 0.127559 0.0165354 0.240945 0.0330709c0.679134,0.0897638 1.36063,0.18189 2.04095,0.281103l0.00944883 0.0011811c0.722835,0.105118 1.44331,0.214961 2.16614,0.328347l0.103937 0.0153543 0.144095 0.022441c0.628347,0.100394 1.25551,0.204331 1.88386,0.31063l0.376772 0.0637796 1.8437 0.324803 0.56693 0.105118 1.81654 0.343701 0.415748 0.0814961 1.84961 0.373229 0.389764 0.080315 1.75984 0.37441 0.760631 0.166536 1.55197 0.347244 0.253937 0.0578741 0.231496 0.0543308 1.79291 0.420473 0.114567 0.0271654 0.11811 0.0271654 0.46063 0.113386 1.22008 0.298819 1.11378 0.27874 1.20945 0.309449 1.10669 0.288189 1.2815 0.340158 0.361418 0.0956694 0.279921 0.0767717 1.18937 0.324803 0.220866 0.0614174 0.967324 0.269292 1.18701 0.335433 0.106299 0.0295276 0.964961 0.277559 0.114567 0.0318898 1.18583 0.347244 0.0425197 0.0106299 0.864568 0.257481 0.277559 0.0814961 1.18347 0.355512 0.957875 0.290551 0.22441 0.068504 1.18228 0.362599 0.0248032 -0.166536 38.4 9.42048c60.6248,14.8701 129.598,19.8177 191.726,22.2898l1.94528 -0.0165354c153.558,-1.21536 135.549,-1.47402 236.605,-33.0555l8.77442 26.8736c0.106299,0.277559 0.209055,0.559843 0.31063,0.843308 0.334252,0.941339 0.617717,1.87559 0.88819,2.82638l0.00236221 0.0106299c4.22126,12.9272 5.83229,35.4248 7.28268,49.1658 2.86772,27.1323 5.27244,54.3426 7.5626,81.5292 0.472441,5.61733 0.94252,11.2335 1.40906,16.852 2.60197,31.3713 5.14252,62.7745 7.21064,94.1859l4.29095 28.0878 2.31378 25.2071 92.9646 -19.2118 -2.11299 -20.7378c-2.92205,-28.689 -10.3902,-56.739 -12.841,-85.4717 -1.99843,-23.4331 -4.91221,-46.9867 -6.48898,-70.4103 -2.6752,-39.704 26.9197,-91.9843 47.1567,-125.876l25.2189 -42.2363 0.0011811 0.00236221c13.6382,-9.12638 26.9433,-19.037 39.9674,-29.5914 13.3476,-10.8142 26.1591,-22.0618 38.5453,-33.6473 12.0673,-11.289 24.2374,-23.4036 36.476,-36.1181 9.57284,-9.94489 18.7902,-19.8484 27.7453,-29.7177z"/>
   <path id="_458628168" class="fil0" d="M1776.82 913.476c3.00236,-3.08386 5.46142,-6.55749 7.46693,-10.2992 -41.2429,-14.5193 -71.9693,-37.1929 -71.9693,-37.1929 24.7276,26.1201 46.4705,40.2579 64.5024,47.4922z"/>
   <path id="_458628576" class="fil0" d="M1790.52 886.407c1.50236,-7.39489 1.64173,-15.8209 1.37126,-23.5949 -7.10079,-8.31024 -16.5272,-14.8134 -27.3992,-20.1898 -12.4453,21.5232 10.6843,39.7725 10.6843,39.7725 4.00866,4.41142 10.1965,5.37048 15.3437,4.01221z"/>
   <path id="_458628336" class="fil8" d="M317.772 1597.39c0.675591,5.28426 0.739371,10.5933 -0.635434,15.8256 -3.12166,11.8807 -5.29725,27.574 -5.29725,39.7866 0,6.10985 0.348425,12.8788 1.75158,18.8362 0.869292,3.68977 2.27244,8.74016 6.21615,10.2461 0.635434,0.243307 1.22953,0.37441 1.91221,0.37441 19.3382,-0.00590552 38.8311,-0.533859 58.1823,-0.778347 24.652,-0.311811 49.3252,-0.681497 73.9784,-0.681497 2.03504,0 7.01812,-0.19252 9.67324,-1.04764 0.324803,-1.54606 0.39567,-3.81496 0.39567,-4.92048 0,-7.87678 -16.6524,-27.7689 -21.4193,-33.7406 -9.75473,-12.2197 -24.411,-29.5642 -30.3874,-45.476l-94.3702 1.57559z"/>
   <path id="_458627952" class="fil4" d="M1525.39 598.502c-4.93701,-30.8788 -14.9575,-60.7335 -29.589,-89.6552 -36.0059,-71.1638 -54.5646,-56.817 -66.4938,-143.303 75.8245,20.4012 86.941,39.8658 124.479,114.057 17.5606,34.7103 29.6445,70.9052 35.6929,108.73 -14.3445,29.302 -36.5445,29.6044 -64.089,10.1717z"/>
   <g>
    <path id="_458627904" class="fil9" d="M1548.02 1014.21c5.76142,-1.5437 11.6835,1.87559 13.2272,7.63583 1.5437,5.76142 -1.87559,11.6835 -7.63701,13.2272 -5.76142,1.5437 -11.6835,-1.87559 -13.2272,-7.63583 -1.5437,-5.76142 1.87559,-11.6835 7.63701,-13.2272zm1.29213 4.82126c3.09803,-0.830316 6.28347,1.00866 7.11378,4.1067 0.830316,3.09921 -1.00866,6.28347 -4.10788,7.11378 -3.09803,0.830316 -6.28229,-1.00866 -7.1126,-4.1067 -0.830316,-3.09921 1.00866,-6.28347 4.1067,-7.11378z"/>
    <g>
     <circle id="_458627208" class="fil10" transform="matrix(0.242546 -0.0649901 0.0649901 0.242546 1580.47 1135.32)" r="40.6252"/>
     <g>
      <path id="_458627064" class="fil11" d="M1333.02 790.404c-0.105118,-13.4043 -11.0575,-24.1866 -24.4618,-24.0815 -13.4043,0.105118 -24.1855,11.0575 -24.0815,24.4618 0.00472441,0.6 -0.651969,210.124 232.605,216.437 13.4043,0.314173 24.528,-10.2957 24.8421,-23.7 0.314173,-13.4043 -10.2957,-24.528 -23.7,-24.8421 -185.759,-5.02796 -185.201,-167.809 -185.204,-168.275z"/>
      <path id="_458627136" class="fil9" d="M1552.95 1032.59c-45.4111,9.14528 -5.93741,54.9626 -25.265,92.7355 0,0 -22.7303,34.9299 18.2197,19.4894l34.6288 -9.27875 34.6288 -9.27875c43.1835,-7.10316 6.03426,-25.989 6.03426,-25.989 -35.6244,-23.048 -24.3473,-82.4634 -68.2465,-67.6784z"/>
      <path id="_458627472" class="fil11" d="M1522.17 982.133c-1.70197,-2.07047 -4.76339,-2.36811 -6.83386,-0.666142 -2.07166,1.70315 -2.36929,4.76339 -0.667323,6.83504l32.4024 39.4276c1.70315,2.07047 4.76339,2.36929 6.83504,0.666142 2.07047,-1.70197 2.36929,-4.76339 0.666142,-6.83386l-32.4024 -39.4288z"/>
     </g>
    </g>
   </g>
   <path id="_458626968" class="fil0" d="M1542.49 914.355c-264.497,-25.4492 -63.9591,-401.052 -21.6815,-217.693 36.0319,55.9359 -46.0595,140.361 21.6815,217.693z"/>
   <path id="_458626776" class="fil0" d="M1626.79 672.804c10.2402,5.9126 20.7921,18.554 16.7941,31.1658 -0.368504,1.16221 -0.861024,2.28071 -1.47047,3.33544 -7.56142,13.0961 -26.4047,10.4102 -37.5414,3.98032 -10.2425,-5.9126 -20.7957,-18.554 -16.7953,-31.1681 0.367323,-1.16102 0.859843,-2.27953 1.46929,-3.33425 7.56142,-13.0961 26.4059,-10.4091 37.5437,-3.97914z"/>
   <ellipse id="_458626536" class="fil12" transform="matrix(0.66967 0.386634 -0.386634 0.66967 1615.68 692.044)" rx="33.0071" ry="22.2662"/>
   <ellipse id="_458627040" class="fil13" transform="matrix(0.317216 0.183145 -0.183145 0.317216 1615.68 692.044)" rx="33.0071" ry="22.2662"/>
   <path id="_458626656" class="fil0" d="M1008.18 866.567c-78.3662,12.2244 -137.739,11.7331 -213.109,-12.5339 -6.3626,-2.04803 -12.7028,-4.17284 -19.0429,-6.2941 -28.1599,-9.42402 -55.3926,-18.0543 -84.606,-23.8536 -31.1835,-6.18898 -57.5162,-8.85591 -89.6859,-10.0264 5.93623,0.937796 11.5677,1.97599 17.465,3.14764 27.8835,5.53465 122.602,43.5579 149.519,52.5662 6.42402,2.14961 12.848,4.3004 19.2957,6.3756 78.8032,25.3689 142.567,26.0244 223.712,13.3665 60.5032,-9.43702 120.952,-19.5685 180.729,-32.9386 31.35,-7.01221 64.813,-16.3323 95.8383,-29.8205 -1.82008,-9.51851 -2.81339,-17.6504 -3.35551,-23.7366 -25.5284,11.6681 -57.3874,22.1138 -97.5095,31.089 -59.1733,13.2343 -119.352,23.315 -179.25,32.6587z"/>
   <path id="_458626896" class="fil14" d="M1269.05 800.818c-0.957875,-0.574016 -2.2004,-0.262205 -2.77441,0.69567 -0.574016,0.957875 -0.263386,2.2004 0.694489,2.77441 0.0318898,0.0177165 11.3469,6.68859 3.68859,15.5138 -0.733465,0.84567 -0.643701,2.12717 0.201969,2.86063 0.84567,0.733465 2.12717,0.643701 2.86063,-0.201969 10.8473,-12.4984 -4.62756,-21.6166 -4.67126,-21.6425z"/>
   <path id="_458626464" class="fil14" d="M1255.59 803.407c-0.957875,-0.574016 -2.2004,-0.263386 -2.77441,0.694489 -0.574016,0.957875 -0.263386,2.2004 0.694489,2.77441 0.0318898,0.0188977 11.3469,6.68859 3.68859,15.5138 -0.733465,0.84567 -0.643701,2.12717 0.201969,2.86063 0.84567,0.733465 2.12717,0.643701 2.86063,-0.201969 10.8473,-12.4984 -4.62756,-21.6166 -4.67126,-21.6414z"/>
   <path id="_458626560" class="fil14" d="M1242.14 805.994c-0.957875,-0.574016 -2.2004,-0.262205 -2.77441,0.694489 -0.574016,0.957875 -0.263386,2.2004 0.694489,2.77441 0.0318898,0.0188977 11.3469,6.68977 3.68859,15.515 -0.733465,0.84567 -0.643701,2.12717 0.201969,2.86063 0.84567,0.733465 2.12717,0.64252 2.86063,-0.20315 10.8473,-12.4973 -4.62756,-21.6154 -4.67126,-21.6414z"/>
   <path id="_458625816" class="fil14" d="M1228.69 808.582c-0.957875,-0.574016 -2.2004,-0.262205 -2.77441,0.69567 -0.574016,0.957875 -0.262205,2.2004 0.694489,2.77441 0.0318898,0.0177165 11.3469,6.68859 3.68859,15.5138 -0.733465,0.84567 -0.643701,2.12717 0.201969,2.86063 0.84567,0.733465 2.12717,0.643701 2.86063,-0.201969 10.8473,-12.4984 -4.62756,-21.6166 -4.67126,-21.6425z"/>
   <path id="_458625744" class="fil14" d="M1215.23 811.171c-0.957875,-0.574016 -2.2004,-0.263386 -2.77441,0.694489 -0.574016,0.957875 -0.262205,2.2004 0.694489,2.77441 0.0318898,0.0188977 11.3469,6.68859 3.68859,15.5138 -0.733465,0.84567 -0.643701,2.12717 0.201969,2.86063 0.84567,0.733465 2.12717,0.643701 2.86063,-0.201969 10.8473,-12.4984 -4.62756,-21.6166 -4.67126,-21.6414z"/>
   <path id="_458625648" class="fil14" d="M1201.78 813.759c-0.957875,-0.574016 -2.2004,-0.262205 -2.77441,0.694489 -0.574016,0.957875 -0.262205,2.2004 0.694489,2.77441 0.0318898,0.0188977 11.3469,6.68977 3.68859,15.515 -0.733465,0.84567 -0.643701,2.12717 0.201969,2.86063 0.84567,0.733465 2.12717,0.64252 2.86063,-0.20315 10.8473,-12.4973 -4.62756,-21.6154 -4.67126,-21.6414z"/>
   <path id="_458625552" class="fil14" d="M1188.33 816.347c-0.957875,-0.574016 -2.2004,-0.262205 -2.77441,0.69567 -0.574016,0.957875 -0.262205,2.2004 0.694489,2.77441 0.0318898,0.0177165 11.3469,6.68859 3.68859,15.5138 -0.733465,0.84567 -0.64252,2.12717 0.201969,2.86063 0.84567,0.733465 2.12717,0.643701 2.86063,-0.201969 10.8473,-12.4984 -4.62756,-21.6166 -4.67126,-21.6425z"/>
   <path id="_458626128" class="fil14" d="M1174.88 818.936c-0.957875,-0.574016 -2.2004,-0.263386 -2.77441,0.694489 -0.574016,0.957875 -0.262205,2.2004 0.69567,2.77441 0.0307087,0.0188977 11.3457,6.68859 3.6874,15.515 -0.733465,0.844489 -0.64252,2.12717 0.201969,2.85945 0.84567,0.733465 2.12717,0.643701 2.86063,-0.201969 10.8473,-12.4984 -4.62756,-21.6154 -4.67126,-21.6414z"/>
   <path id="_458626056" class="fil14" d="M1161.42 821.523c-0.957875,-0.574016 -2.2004,-0.262205 -2.77441,0.694489 -0.574016,0.957875 -0.262205,2.20158 0.69567,2.77441 0.0307087,0.0188977 11.3457,6.68977 3.6874,15.515 -0.733465,0.84567 -0.64252,2.12717 0.201969,2.86063 0.84567,0.733465 2.12717,0.64252 2.86063,-0.20315 10.8473,-12.4973 -4.62756,-21.6154 -4.67126,-21.6414z"/>
   <path id="_458625936" class="fil14" d="M1147.97 824.111c-0.957875,-0.572835 -2.2004,-0.262205 -2.77441,0.69567 -0.574016,0.957875 -0.262205,2.2004 0.69567,2.77441 0.0307087,0.0177165 11.3457,6.68859 3.6874,15.5138 -0.733465,0.84567 -0.64252,2.12717 0.20315,2.86063 0.844489,0.733465 2.12599,0.643701 2.85945,-0.201969 10.8473,-12.4984 -4.62756,-21.6166 -4.67126,-21.6425z"/>
   <path id="_458626224" class="fil14" d="M1134.52 826.7c-0.957875,-0.574016 -2.2004,-0.263386 -2.77441,0.694489 -0.574016,0.957875 -0.262205,2.2004 0.69567,2.77441 0.0307087,0.0188977 11.3457,6.68859 3.6874,15.515 -0.733465,0.844489 -0.64252,2.12717 0.20315,2.86063 0.844489,0.733465 2.12717,0.64252 2.86063,-0.20315 10.8461,-12.4984 -4.62874,-21.6154 -4.67244,-21.6414z"/>
   <path id="_458626200" class="fil14" d="M1121.07 829.288c-0.957875,-0.574016 -2.2004,-0.262205 -2.77441,0.694489 -0.574016,0.957875 -0.262205,2.20158 0.69567,2.77441 0.0307087,0.0188977 11.3469,6.68977 3.6874,15.515 -0.733465,0.84567 -0.64252,2.12717 0.20315,2.86063 0.844489,0.733465 2.12717,0.64252 2.86063,-0.201969 10.8461,-12.4984 -4.62756,-21.6166 -4.67244,-21.6425z"/>
   <path id="_458625960" class="fil14" d="M1107.61 831.876c-0.957875,-0.572835 -2.2004,-0.262205 -2.77441,0.69567 -0.574016,0.957875 -0.262205,2.2004 0.69567,2.77441 0.0307087,0.0177165 11.3469,6.68859 3.6874,15.5138 -0.733465,0.84567 -0.64252,2.12717 0.20315,2.86063 0.84567,0.733465 2.12717,0.643701 2.86063,-0.201969 10.8461,-12.4984 -4.62756,-21.6166 -4.67244,-21.6425z"/>
   <path id="_458625600" class="fil14" d="M1094.16 834.465c-0.957875,-0.574016 -2.2004,-0.263386 -2.77441,0.694489 -0.574016,0.957875 -0.262205,2.2004 0.69567,2.77441 0.0307087,0.0188977 11.3469,6.68859 3.6874,15.515 -0.733465,0.84567 -0.64252,2.12717 0.20315,2.86063 0.84567,0.733465 2.12717,0.64252 2.86063,-0.20315 10.8461,-12.4984 -4.62756,-21.6154 -4.67244,-21.6414z"/>
   <path id="_458624784" class="fil14" d="M1080.71 837.053c-0.956694,-0.574016 -2.2004,-0.262205 -2.77441,0.69567 -0.572835,0.956694 -0.262205,2.2004 0.69567,2.77441 0.0318898,0.0177165 11.3469,6.68859 3.6874,15.5138 -0.733465,0.84567 -0.64252,2.12717 0.20315,2.86063 0.84567,0.733465 2.12717,0.64252 2.86063,-0.201969 10.8461,-12.4984 -4.62756,-21.6166 -4.67244,-21.6425z"/>
   <path id="_458625144" class="fil14" d="M1067.25 839.642c-0.956694,-0.574016 -2.2004,-0.263386 -2.77441,0.694489 -0.572835,0.957875 -0.262205,2.2004 0.69567,2.77441 0.0318898,0.0177165 11.3469,6.68859 3.6874,15.5138 -0.733465,0.84567 -0.64252,2.12717 0.20315,2.86063 0.84567,0.733465 2.12717,0.643701 2.86063,-0.201969 10.8461,-12.4984 -4.62756,-21.6166 -4.67244,-21.6414z"/>
   <path id="_458625336" class="fil14" d="M1053.8 842.229c-0.956694,-0.574016 -2.2004,-0.263386 -2.77441,0.694489 -0.572835,0.957875 -0.262205,2.2004 0.69567,2.77441 0.0318898,0.0188977 11.3469,6.68859 3.6874,15.515 -0.733465,0.84567 -0.64252,2.12717 0.20315,2.86063 0.84567,0.733465 2.12717,0.64252 2.86063,-0.20315 10.8461,-12.4984 -4.62756,-21.6154 -4.67244,-21.6414z"/>
   <path id="_458625432" class="fil14" d="M1040.35 844.817c-0.956694,-0.574016 -2.2004,-0.262205 -2.77323,0.69567 -0.574016,0.956694 -0.263386,2.2004 0.694489,2.77441 0.0318898,0.0177165 11.3469,6.68859 3.6874,15.5138 -0.733465,0.84567 -0.64252,2.12717 0.20315,2.86063 0.84567,0.733465 2.12717,0.64252 2.86063,-0.201969 10.8461,-12.4984 -4.62756,-21.6166 -4.67244,-21.6425z"/>
   <path id="_458625000" class="fil14" d="M1026.9 847.406c-0.957875,-0.574016 -2.20158,-0.263386 -2.77441,0.694489 -0.574016,0.957875 -0.263386,2.2004 0.694489,2.77441 0.0318898,0.0177165 11.3469,6.68859 3.6874,15.5138 -0.732284,0.84567 -0.64252,2.12717 0.20315,2.86063 0.84567,0.733465 2.12717,0.643701 2.86063,-0.201969 10.8461,-12.4984 -4.62756,-21.6166 -4.67126,-21.6414z"/>
   <path id="_458625048" class="fil14" d="M1013.44 849.994c-0.957875,-0.574016 -2.20158,-0.263386 -2.77441,0.694489 -0.574016,0.957875 -0.263386,2.2004 0.694489,2.77441 0.0318898,0.0188977 11.3469,6.68977 3.68859,15.515 -0.733465,0.84567 -0.643701,2.12717 0.201969,2.86063 0.84567,0.733465 2.12717,0.64252 2.86063,-0.20315 10.8461,-12.4984 -4.62756,-21.6154 -4.67126,-21.6414z"/>
   <path id="_458624760" class="fil14" d="M999.992 852.582c-0.957875,-0.574016 -2.2004,-0.262205 -2.77441,0.69567 -0.574016,0.956694 -0.263386,2.2004 0.694489,2.77441 0.0318898,0.0177165 11.3469,6.68859 3.68859,15.5138 -0.733465,0.84567 -0.643701,2.12717 0.201969,2.86063 0.84567,0.733465 2.12717,0.643701 2.86063,-0.201969 10.8461,-12.4984 -4.62756,-21.6166 -4.67126,-21.6425z"/>
   <path id="_458625264" class="fil14" d="M986.539 855.171c-0.957875,-0.574016 -2.2004,-0.263386 -2.77441,0.694489 -0.574016,0.957875 -0.263386,2.2004 0.694489,2.77441 0.0318898,0.0177165 11.3469,6.68859 3.68859,15.5138 -0.733465,0.84567 -0.643701,2.12717 0.201969,2.86063 0.84567,0.733465 2.12717,0.643701 2.86063,-0.201969 10.8461,-12.4984 -4.62756,-21.6166 -4.67126,-21.6414z"/>
   <path id="_458624928" class="fil14" d="M969.519 855.559c-0.820867,-0.755906 -2.10118,-0.703938 -2.85709,0.116929 -0.757087,0.822048 -0.703938,2.10236 0.116929,2.85827 0.0271654,0.0248032 9.75237,8.85237 0.461811,15.9402 -0.889371,0.679134 -1.06063,1.95236 -0.381496,2.84173 0.679134,0.889371 1.95236,1.06181 2.84173,0.382677 13.1575,-10.037 -0.144095,-22.1055 -0.18189,-22.1398z"/>
   <path id="_458625360" class="fil14" d="M955.341 857.384c-0.820867,-0.757087 -2.10118,-0.703938 -2.85827,0.116929 -0.755906,0.820867 -0.703938,2.10118 0.11811,2.85709 0.0271654,0.0248032 9.75237,8.85355 0.461811,15.9402 -0.889371,0.679134 -1.06181,1.95236 -0.382677,2.84292 0.679134,0.889371 1.95236,1.06063 2.84292,0.381496 13.1575,-10.0358 -0.144095,-22.1043 -0.18189,-22.1386z"/>
   <path id="_458624544" class="fil14" d="M942.807 857.404c-0.820867,-0.757087 -2.10118,-0.703938 -2.85709,0.116929 -0.757087,0.820867 -0.703938,2.10118 0.116929,2.85827 0.0271654,0.0236221 9.75237,8.85237 0.461811,15.939 -0.889371,0.679134 -1.06063,1.95236 -0.381496,2.84292 0.679134,0.889371 1.95236,1.06063 2.84173,0.381496 13.1575,-10.0358 -0.144095,-22.1043 -0.18189,-22.1386z"/>
   <path id="_458624448" class="fil14" d="M930.349 856.251c-0.820867,-0.755906 -2.10118,-0.703938 -2.85709,0.11811 -0.755906,0.820867 -0.703938,2.10118 0.116929,2.85709 0.0271654,0.0248032 9.75355,8.85355 0.462992,15.9402 -0.890552,0.679134 -1.06181,1.95236 -0.382677,2.84173 0.679134,0.890552 1.95236,1.06181 2.84173,0.382677 13.1575,-10.0358 -0.142913,-22.1055 -0.18189,-22.1398z"/>
   <path id="_458624568" class="fil14" d="M915.294 857.373c-0.820867,-0.755906 -2.10118,-0.703938 -2.85827,0.11811 -0.755906,0.820867 -0.703938,2.10118 0.11811,2.85709 0.0271654,0.0248032 9.75237,8.85237 0.461811,15.9402 -0.889371,0.679134 -1.06063,1.95236 -0.381496,2.84173 0.677953,0.890552 1.95118,1.06181 2.84173,0.382677 13.1575,-10.037 -0.144095,-22.1055 -0.18189,-22.1398z"/>
   <path id="_458624424" class="fil14" d="M901.137 857.509c-0.822048,-0.755906 -2.10236,-0.703938 -2.85827,0.116929 -0.755906,0.822048 -0.703938,2.10118 0.116929,2.85827 0.0283465,0.0236221 9.75355,8.85237 0.462992,15.9402 -0.889371,0.679134 -1.06181,1.95236 -0.382677,2.84173 0.679134,0.889371 1.95236,1.06181 2.84173,0.382677 13.1587,-10.037 -0.142913,-22.1055 -0.180709,-22.1398z"/>
   <path id="_458624640" class="fil14" d="M887.461 857.104c-0.820867,-0.757087 -2.10118,-0.703938 -2.85709,0.116929 -0.755906,0.820867 -0.703938,2.10118 0.116929,2.85827 0.0271654,0.0236221 9.75355,8.85237 0.462992,15.939 -0.890552,0.679134 -1.06181,1.95236 -0.382677,2.84292 0.679134,0.889371 1.95236,1.06181 2.84173,0.382677 13.1575,-10.037 -0.144095,-22.1055 -0.18189,-22.1398z"/>
   <path id="_458624112" class="fil14" d="M872.748 853.944c-0.822048,-0.757087 -2.10118,-0.703938 -2.85827,0.116929 -0.755906,0.820867 -0.703938,2.10118 0.11811,2.85827 0.0271654,0.0236221 9.75237,8.85237 0.461811,15.939 -0.889371,0.679134 -1.06181,1.95236 -0.382677,2.84292 0.679134,0.889371 1.95236,1.06063 2.84292,0.382677 13.1575,-10.037 -0.144095,-22.1055 -0.18189,-22.1398z"/>
   <path id="_458624352" class="fil14" d="M859.997 851.743c-0.820867,-0.757087 -2.10118,-0.703938 -2.85827,0.116929 -0.755906,0.820867 -0.703938,2.10118 0.11811,2.85709 0.0271654,0.0248032 9.75237,8.85355 0.461811,15.9402 -0.889371,0.679134 -1.06181,1.95236 -0.382677,2.84292 0.679134,0.889371 1.95236,1.06063 2.84292,0.381496 13.1575,-10.0358 -0.144095,-22.1055 -0.18189,-22.1386z"/>
   <path id="_458624688" class="fil14" d="M848.587 850.09c-0.820867,-0.755906 -2.10118,-0.703938 -2.85709,0.11811 -0.755906,0.820867 -0.703938,2.10118 0.116929,2.85709 0.0271654,0.0248032 9.75355,8.85237 0.462992,15.9402 -0.890552,0.679134 -1.06181,1.95236 -0.382677,2.84173 0.679134,0.890552 1.95236,1.06181 2.84173,0.382677 13.1575,-10.0358 -0.144095,-22.1055 -0.18189,-22.1398z"/>
   <path id="_458624040" class="fil14" d="M834.488 849.214c-0.820867,-0.755906 -2.10118,-0.703938 -2.85709,0.116929 -0.757087,0.822048 -0.703938,2.10236 0.116929,2.85827 0.0271654,0.0248032 9.75237,8.85237 0.461811,15.9402 -0.889371,0.679134 -1.06063,1.95236 -0.381496,2.84173 0.677953,0.889371 1.95236,1.06181 2.84173,0.382677 13.1575,-10.037 -0.144095,-22.1055 -0.18189,-22.1398z"/>
   <path id="_458624160" class="fil14" d="M819.605 846.951c-0.820867,-0.757087 -2.10118,-0.703938 -2.85827,0.116929 -0.755906,0.820867 -0.703938,2.10118 0.11811,2.85709 0.0271654,0.0248032 9.75237,8.85355 0.461811,15.9402 -0.889371,0.679134 -1.06181,1.95236 -0.382677,2.84292 0.679134,0.889371 1.95236,1.06063 2.84292,0.381496 13.1575,-10.0358 -0.144095,-22.1055 -0.18189,-22.1386z"/>
   <path id="_458624136" class="fil14" d="M804.89 844.046c-0.820867,-0.757087 -2.10118,-0.703938 -2.85827,0.116929 -0.755906,0.822048 -0.703938,2.10118 0.11811,2.85827 0.0271654,0.0236221 9.75237,8.85237 0.461811,15.9402 -0.889371,0.677953 -1.06181,1.95236 -0.382677,2.84173 0.679134,0.889371 1.95236,1.06181 2.84292,0.382677 13.1575,-10.037 -0.144095,-22.1055 -0.18189,-22.1398z"/>
   <path id="_458623680" class="fil14" d="M790.375 836.655c-0.820867,-0.755906 -2.10118,-0.703938 -2.85709,0.11811 -0.757087,0.820867 -0.703938,2.10118 0.116929,2.85709 0.0271654,0.0248032 9.75237,8.85237 0.461811,15.9402 -0.889371,0.679134 -1.06063,1.95236 -0.381496,2.84173 0.679134,0.890552 1.95236,1.06181 2.84173,0.382677 13.1575,-10.037 -0.144095,-22.1055 -0.18189,-22.1398z"/>
   <path id="_458623296" class="fil14" d="M771.955 831.144c-0.822048,-0.757087 -2.10118,-0.703938 -2.85827,0.116929 -0.755906,0.820867 -0.703938,2.10118 0.11811,2.85709 0.0271654,0.0248032 9.75237,8.85355 0.461811,15.9402 -0.889371,0.679134 -1.06181,1.95236 -0.382677,2.84292 0.679134,0.889371 1.95236,1.06063 2.84292,0.381496 13.1575,-10.0358 -0.144095,-22.1043 -0.18189,-22.1386z"/>
   <path id="_458623248" class="fil14" d="M755.254 826.207c-0.820867,-0.755906 -2.10118,-0.703938 -2.85827,0.11811 -0.755906,0.820867 -0.703938,2.10118 0.11811,2.85709 0.0271654,0.0248032 9.75237,8.85237 0.461811,15.9402 -0.889371,0.679134 -1.06181,1.95236 -0.382677,2.84173 0.679134,0.890552 1.95236,1.06181 2.84292,0.382677 13.1575,-10.0358 -0.144095,-22.1055 -0.18189,-22.1398z"/>
   <path id="_458623488" class="fil14" d="M735.325 822.097c-0.820867,-0.755906 -2.10118,-0.703938 -2.85709,0.116929 -0.755906,0.822048 -0.703938,2.10118 0.116929,2.85827 0.0271654,0.0236221 9.75355,8.85237 0.462992,15.9402 -0.890552,0.679134 -1.06181,1.95236 -0.382677,2.84173 0.679134,0.889371 1.95236,1.06181 2.84173,0.382677 13.1575,-10.037 -0.144095,-22.1055 -0.18189,-22.1398z"/>
   <path id="_458623920" class="fil14" d="M718.029 819.552c-0.820867,-0.755906 -2.10118,-0.703938 -2.85709,0.11811 -0.757087,0.820867 -0.703938,2.10118 0.116929,2.85709 0.0271654,0.0248032 9.75355,8.85237 0.462992,15.9402 -0.890552,0.679134 -1.06181,1.95236 -0.382677,2.84173 0.679134,0.890552 1.95236,1.06181 2.84173,0.382677 13.1575,-10.0358 -0.144095,-22.1055 -0.18189,-22.1398z"/>
   <path id="_458623872" class="fil14" d="M702.978 817.169c-0.820867,-0.757087 -2.10118,-0.703938 -2.85709,0.116929 -0.757087,0.820867 -0.703938,2.10118 0.116929,2.85709 0.0271654,0.0248032 9.75237,8.85355 0.461811,15.9402 -0.889371,0.679134 -1.06063,1.95236 -0.381496,2.84292 0.677953,0.889371 1.95236,1.06063 2.84173,0.381496 13.1575,-10.0358 -0.144095,-22.1055 -0.18189,-22.1386z"/>
   <path id="_458623824" class="fil14" d="M687.173 815.794c-0.820867,-0.755906 -2.10118,-0.703938 -2.85827,0.116929 -0.755906,0.822048 -0.703938,2.10118 0.11811,2.85827 0.0271654,0.0236221 9.75237,8.85237 0.461811,15.9402 -0.889371,0.679134 -1.06063,1.95236 -0.382677,2.84173 0.679134,0.889371 1.95236,1.06181 2.84292,0.382677 13.1575,-10.037 -0.144095,-22.1055 -0.18189,-22.1398z"/>
   <path id="_458623848" class="fil8" d="M1136.84 1580.83c0.675591,5.28426 0.739371,10.5933 -0.635434,15.8256 -3.12166,11.8807 -5.29725,27.574 -5.29725,39.7866 0,6.10985 0.348425,12.8788 1.75158,18.8362 0.869292,3.68977 2.27244,8.74016 6.21615,10.2461 0.635434,0.243307 1.22953,0.37441 1.91221,0.37441 19.3382,-0.00590552 38.8311,-0.533859 58.1823,-0.778347 24.652,-0.311811 49.3252,-0.681497 73.9784,-0.681497 2.03504,0 7.01812,-0.19252 9.67324,-1.04764 0.324803,-1.54606 0.39567,-3.81496 0.39567,-4.92048 0,-7.87678 -16.6524,-27.7689 -21.4193,-33.7406 -9.75473,-12.2197 -24.411,-29.5642 -30.3874,-45.476l-94.3702 1.57559z"/>
  </g>
 </g>
 <rect class="fil6" width="2048" height="2048"/>
</svg>
