<?xml version="1.0" encoding="UTF-8"?>
<!DOCTYPE svg PUBLIC "-//W3C//DTD SVG 1.1//EN" "http://www.w3.org/Graphics/SVG/1.1/DTD/svg11.dtd">
<!-- Creator: CorelDRAW -->
<svg xmlns="http://www.w3.org/2000/svg" xml:space="preserve" width="2048px" height="2048px" style="shape-rendering:geometricPrecision; text-rendering:geometricPrecision; image-rendering:optimizeQuality; fill-rule:evenodd; clip-rule:evenodd"
viewBox="0 0 2048 2048"
 xmlns:xlink="http://www.w3.org/1999/xlink">
 <defs>
  <style type="text/css">
   <![CDATA[
    .fil5 {fill:none}
    .fil1 {fill:#FF5722}
    .fil2 {fill:#FFA689}
    .fil0 {fill:#43A047;fill-rule:nonzero}
    .fil3 {fill:#5D4037;fill-rule:nonzero}
    .fil4 {fill:#795548;fill-rule:nonzero}
   ]]>
  </style>
 </defs>
 <g id="Layer_x0020_1">
  <metadata id="CorelCorpID_0Corel-Layer"/>
  <g id="_458631144">
   <path id="_458631432" class="fil0" d="M1075.26 728.528c10.4976,15.0272 31.1929,18.6992 46.2201,8.20158 15.0272,-10.4965 18.7004,-31.1929 8.20276,-46.2201 -19.6075,-27.9886 -42.9579,-55.1315 -69.2363,-81.606 -25.9099,-26.1012 -54.841,-51.7548 -85.9548,-77.0764 -14.237,-11.576 -35.165,-9.4193 -46.741,4.81772 -11.576,14.237 -9.42048,35.165 4.81772,46.741 29.2819,23.8311 56.4662,47.9292 80.7461,72.3898 23.9067,24.0851 44.8323,48.3237 61.9453,72.7524z"/>
   <path id="_458631168" class="fil0" d="M1138.83 678.655c0.718111,18.3366 16.1669,32.6185 34.5024,31.8992 18.3366,-0.718111 32.6185,-16.1658 31.9004,-34.5024 -1.39134,-34.167 -6.38032,-69.5847 -14.1862,-105.977 -7.73741,-36.0733 -18.228,-73.2768 -30.711,-111.293 -5.67993,-17.4732 -24.4524,-27.0331 -41.9244,-21.3532 -17.4732,5.67993 -27.0331,24.4524 -21.3532,41.9244 11.8099,35.9693 21.6874,70.9371 28.8898,104.523 7.13623,33.2634 11.6693,64.9997 12.8823,94.7788z"/>
   <path id="_458631096" class="fil1" d="M1397.8 1144.11c-8.52284,-208.725 -17.0492,-417.45 -145.224,-479.155 -2.36221,-1.13858 -5.30079,-2.44725 -8.81103,-3.92717 -13.6417,-5.75315 -27.1276,-9.58583 -40.3075,-11.5973 -23.3067,-3.5563 -45.6567,-1.42323 -66.2138,5.83701 -1.51654,0.537402 -3.02362,1.10079 -4.52008,1.69252 -7.08308,2.79685 -13.8992,6.20079 -20.4154,10.1858 -18.463,11.2925 -34.5048,27.2551 -47.3174,47.3398 -3.80315,5.96221 -7.32166,12.2882 -10.5343,18.9614l0 0.126378c-1.39843,2.9067 -2.7189,5.82993 -3.95551,8.76142 -52.1138,123.552 57.1122,291.487 166.334,459.417 10.1681,15.6331 20.3362,31.265 30.3579,46.8378l75.5103 0 16.1752 0 63.789 0c-1.99843,-34.2296 -3.43465,-69.3556 -4.86733,-104.48z"/>
   <path id="_458631048" class="fil2" d="M1155.67 875.65c-17.4721,5.53583 -27.15,24.1914 -21.613,41.6634 5.53583,17.4732 24.1902,27.15 41.6634,21.6142l19.6583 -6.2693c17.4721,-5.53583 27.15,-24.1914 21.613,-41.6634 -5.53583,-17.4732 -24.1902,-27.15 -41.6634,-21.6142l-19.6583 6.2693z"/>
   <path id="_458631024" class="fil2" d="M1256.9 1012.35c-17.4732,5.53583 -27.15,24.1914 -21.6142,41.6646 5.53583,17.4732 24.1914,27.15 41.6634,21.6142l19.6583 -6.2693c17.4732,-5.53701 27.15,-24.1914 21.6142,-41.6646 -5.53583,-17.4732 -24.1914,-27.15 -41.6646,-21.6142l-19.6571 6.2693z"/>
  </g>
  <g id="_458630256">
   <path id="_458630952" class="fil0" d="M565.334 728.528c10.4976,15.0272 31.1929,18.6992 46.2201,8.20158 15.0272,-10.4965 18.7004,-31.1929 8.20276,-46.2201 -19.6075,-27.9886 -42.9579,-55.1315 -69.2363,-81.606 -25.9099,-26.1012 -54.841,-51.7548 -85.9548,-77.0764 -14.237,-11.576 -35.165,-9.4193 -46.741,4.81772 -11.576,14.237 -9.42048,35.165 4.81772,46.741 29.2819,23.8311 56.4662,47.9292 80.7461,72.3898 23.9067,24.0851 44.8323,48.3237 61.9453,72.7524z"/>
   <path id="_458630568" class="fil0" d="M628.907 678.655c0.718111,18.3366 16.1669,32.6185 34.5024,31.8992 18.3366,-0.718111 32.6185,-16.1658 31.9004,-34.5024 -1.39134,-34.167 -6.38032,-69.5847 -14.1862,-105.977 -7.73741,-36.0733 -18.228,-73.2768 -30.711,-111.293 -5.67993,-17.4732 -24.4524,-27.0331 -41.9244,-21.3532 -17.4732,5.67993 -27.0331,24.4524 -21.3532,41.9244 11.8099,35.9693 21.6874,70.9371 28.8898,104.523 7.13623,33.2634 11.6693,64.9997 12.8823,94.7788z"/>
   <path id="_458630832" class="fil1" d="M887.877 1144.11c-8.52284,-208.725 -17.0492,-417.45 -145.224,-479.155 -2.36221,-1.13858 -5.30079,-2.44725 -8.81103,-3.92717 -13.6417,-5.75315 -27.1276,-9.58583 -40.3075,-11.5973 -23.3067,-3.5563 -45.6567,-1.42323 -66.2138,5.83701 -1.51654,0.537402 -3.02362,1.10079 -4.52008,1.69252 -7.08308,2.79685 -13.8992,6.20079 -20.4154,10.1858 -18.463,11.2925 -34.5048,27.2551 -47.3174,47.3398 -3.80315,5.96221 -7.32166,12.2882 -10.5343,18.9614l0 0.126378c-1.39843,2.9067 -2.7189,5.82993 -3.95551,8.76142 -52.1138,123.552 57.1122,291.487 166.334,459.417 10.1681,15.6331 20.3362,31.265 30.3579,46.8378l75.5103 0 16.1752 0 63.789 0c-1.99843,-34.2296 -3.43465,-69.3556 -4.86733,-104.48z"/>
   <path id="_458630280" class="fil2" d="M645.745 875.65c-17.4721,5.53583 -27.15,24.1914 -21.613,41.6634 5.53583,17.4732 24.1902,27.15 41.6634,21.6142l19.6583 -6.2693c17.4721,-5.53583 27.15,-24.1914 21.613,-41.6634 -5.53583,-17.4732 -24.1902,-27.15 -41.6634,-21.6142l-19.6583 6.2693z"/>
   <path id="_458630328" class="fil2" d="M746.976 1012.35c-17.4732,5.53583 -27.15,24.1914 -21.6142,41.6646 5.53583,17.4732 24.1914,27.15 41.6634,21.6142l19.6583 -6.2693c17.4732,-5.53701 27.15,-24.1914 21.6142,-41.6646 -5.53583,-17.4732 -24.1914,-27.15 -41.6646,-21.6142l-19.6571 6.2693z"/>
  </g>
  <path class="fil3" d="M303.985 1224.13l1440.03 0c12.8457,0 24.5032,5.23465 32.9327,13.6642 8.42953,8.42953 13.663,20.087 13.663,32.9327l0 127.006c0,12.8457 -5.23347,24.5032 -13.663,32.9327 -8.42953,8.42953 -20.087,13.663 -32.9327,13.663l-1440.03 0c-12.8457,0 -24.5032,-5.23347 -32.9327,-13.663 -8.42953,-8.42953 -13.663,-20.087 -13.663,-32.9327l0 -127.006c0,-12.8457 5.23347,-24.5032 13.663,-32.9327 8.42953,-8.42953 20.087,-13.6642 32.9327,-13.6642z"/>
  <path class="fil3" d="M303.984 1553.72l1440.03 0c13.2272,0 25.2343,5.39056 33.9142,14.0705 8.68111,8.67993 14.0705,20.6823 14.0705,33.9154l0 127.006c0,13.2331 -5.38937,25.2343 -14.0705,33.9154 -8.67993,8.67993 -20.687,14.0705 -33.9142,14.0705l-1440.03 0c-13.2272,0 -25.2343,-5.39056 -33.9142,-14.0705 -8.68111,-8.68111 -14.0705,-20.6823 -14.0705,-33.9154l0 -127.006c0,-13.2331 5.38937,-25.2355 14.0705,-33.9154 8.67993,-8.67993 20.687,-14.0705 33.9142,-14.0705z"/>
  <polygon class="fil4" points="1729.48,1418.57 1729.48,1568 318.523,1568 318.523,1418.57 "/>
 </g>
 <rect class="fil5" width="2048" height="2048"/>
</svg>
