<?xml version="1.0" encoding="UTF-8"?>
<!DOCTYPE svg PUBLIC "-//W3C//DTD SVG 1.1//EN" "http://www.w3.org/Graphics/SVG/1.1/DTD/svg11.dtd">
<!-- Creator: CorelDRAW -->
<svg xmlns="http://www.w3.org/2000/svg" xml:space="preserve" width="2048px" height="2048px" style="shape-rendering:geometricPrecision; text-rendering:geometricPrecision; image-rendering:optimizeQuality; fill-rule:evenodd; clip-rule:evenodd"
viewBox="0 0 2048 2048"
 xmlns:xlink="http://www.w3.org/1999/xlink">
 <defs>
  <style type="text/css">
   <![CDATA[
    .fil2 {fill:none}
    .fil1 {fill:#EF5350;fill-rule:nonzero}
    .fil0 {fill:#FFCA28;fill-rule:nonzero}
   ]]>
  </style>
 </defs>
 <g id="Layer_x0020_1">
  <metadata id="CorelCorpID_0Corel-Layer"/>
  <g id="_458632440">
   <path id="_458632824" class="fil0" d="M1384.37 958.543c20.8536,-98.8725 49.6181,-196.507 83.3977,-294.168 40.4729,-117.011 88.1009,-233.971 137.902,-353.157l29.25 13.3583 -29.3138 -13.4457c7.08662,-16.9618 25.9571,-24.6921 42.1465,-17.2665 7.89686,3.62126 13.6973,10.1823 16.7445,17.9209l95.3953 201.174 0.0720473 -0.0377953c4.92993,10.3961 4.22953,22.1847 -0.87756,31.5626 -38.778,76.6583 -69.502,155.469 -93.0639,236.01 -17.0941,58.4327 -30.4949,117.837 -40.5355,178.049l-241.118 0z"/>
   <path id="_458632656" class="fil0" d="M1051.57 958.543c8.01379,-102.841 22.1504,-205.015 41.6327,-307.01 23.4709,-122.883 54.9981,-246.701 93.1442,-372.091l30.3756 10.0843 -30.489 -10.1811c4.39961,-14.4614 17.289,-23.6126 31.0677,-23.3469l229.729 0c17.6728,0 32.0008,15.0118 32.0008,33.528 0,6.08268 -1.54606,11.7862 -4.24961,16.7043 -45.815,90.6532 -82.0642,197.878 -109.458,314.707 -24.9189,106.27 -42.5351,220.533 -53.3894,337.605l-260.365 0z"/>
   <path id="_458633136" class="fil0" d="M619.888 763.851c14.4083,64.9808 26.2831,129.828 35.341,194.692l-238.992 0c-11.0634,-72.0213 -25.5461,-141.678 -43.6489,-207.144 -22.1043,-79.9406 -49.6548,-153.613 -83.0115,-217.635 -3.09567,-5.16142 -4.88859,-11.2677 -4.88859,-17.8134 0,-18.5162 14.328,-33.528 32.0008,-33.528l202.525 0c13.6843,-0.294095 26.5323,8.70355 31.0394,23.0327l-30.3921 10.4953 30.3756 -10.4776c27.0886,86.1142 50.5181,172.091 69.6508,258.378z"/>
   <path id="_458632512" class="fil0" d="M719.311 958.543c7.06064,-102.558 19.5047,-204.47 36.6508,-306.225 20.7768,-123.308 48.5374,-247.003 82.0383,-371.829l30.75 9.03662 -30.8055 -9.0756c4.03583,-15.039 17.2477,-24.7831 31.4965,-24.4524l202.482 0c17.6728,0 32.0008,15.0118 32.0008,33.528 0,6.12993 -1.57087,11.8736 -4.31339,16.8189 -39.9603,90.0709 -71.7178,196.941 -95.8654,313.673 -22.0855,106.767 -37.6796,221.333 -47.2642,338.525l-237.17 0z"/>
  </g>
  <g id="_458631744">
   <path id="_458632584" class="fil0" d="M1634.38 1792l-143.397 0c-13.7185,0 -25.4209,-9.26812 -29.9705,-22.2874 -35.7992,-89.5371 -62.152,-176.698 -80.3694,-261.994 -13.324,-62.38 -22.2473,-123.726 -27.2929,-184.244l253.268 0c3.76181,58.3595 9.59174,117.253 17.2477,176.541 10.7764,83.452 25.0559,166.961 42.1866,250.258l-31.1256 7.37953 31.2484 -7.40434c3.80906,18.5232 -7.09371,36.8551 -24.3508,40.9429 -2.49921,0.591733 -4.99252,0.850394 -7.44449,0.807875z"/>
   <path id="_458631960" class="fil0" d="M1321.36 1792l-143.439 0c-15.3461,0 -28.167,-11.5961 -31.278,-27.0673 -25.5295,-86.4237 -45.8599,-171.112 -61.3619,-254.321 -11.6847,-62.7213 -20.778,-125.071 -27.4288,-187.136l244.415 0c3.0437,64.7067 7.94174,128.521 14.6067,190.563 9.00827,83.8583 21.1205,163.331 36.1158,236.236l-31.1256 7.37953 31.2473 -7.40552c3.80906,18.5221 -7.09134,36.8551 -24.3484,40.9429 -2.48504,0.588189 -4.96536,0.846851 -7.40316,0.809056z"/>
   <path id="_458631792" class="fil0" d="M554.098 1792l-126.478 0c-2.51221,0.0401575 -5.06693,-0.236221 -7.62402,-0.862205 -17.2299,-4.22008 -28.0087,-22.6347 -24.0768,-41.1272l0.0944883 0.022441c15.4193,-72.5256 27.3248,-151.988 35.4118,-235.497 6.01063,-62.0717 9.91418,-126.149 11.5866,-191.061l226.741 0c-4.84489,61.6997 -12.5681,123.767 -23.3835,186.321 -14.7354,85.2142 -35.0492,170.857 -61.4658,257.183 -3.78662,14.4366 -16.1445,25.0205 -30.8055,25.0205z"/>
   <path id="_458632176" class="fil0" d="M960.989 1792l-126.475 0c-15.4134,0 -28.2815,-11.6988 -31.3205,-27.2729 -22.4717,-86.1284 -40.4386,-171.026 -54.2256,-254.92 -10.2614,-62.4367 -18.254,-124.52 -24.1063,-186.332l223.09 0c2.68583,65.08 7.00749,129.072 12.8835,191.093 7.86851,83.0363 18.6059,162.601 32.0162,236.531l0.0555119 -0.011811c3.37796,18.6189 -7.94646,36.652 -25.2933,40.278 -2.22638,0.465355 -4.44449,0.668504 -6.62481,0.634252z"/>
  </g>
  <path class="fil1" d="M402.998 958.543l1242 0c26.0835,0 49.7741,10.6488 66.9249,27.802 17.1532,17.1532 27.802,40.8437 27.802,66.9249l0 175.479c0,26.0835 -10.6488,49.7741 -27.802,66.9249 -17.1508,17.1532 -40.8414,27.802 -66.9249,27.802l-1242 0c-26.0823,0 -49.7717,-10.6488 -66.926,-27.8008 -17.152,-17.1543 -27.8008,-40.8437 -27.8008,-66.926l0 -175.479c0,-26.0811 10.6488,-49.7717 27.8008,-66.926 17.1543,-17.152 40.8437,-27.8008 66.926,-27.8008z"/>
 </g>
 <rect class="fil2" width="2048" height="2048"/>
</svg>
