<?xml version="1.0" encoding="UTF-8"?>
<!DOCTYPE svg PUBLIC "-//W3C//DTD SVG 1.1//EN" "http://www.w3.org/Graphics/SVG/1.1/DTD/svg11.dtd">
<!-- Creator: CorelDRAW -->
<svg xmlns="http://www.w3.org/2000/svg" xml:space="preserve" width="2048px" height="2048px" style="shape-rendering:geometricPrecision; text-rendering:geometricPrecision; image-rendering:optimizeQuality; fill-rule:evenodd; clip-rule:evenodd"
viewBox="0 0 2048 2048"
 xmlns:xlink="http://www.w3.org/1999/xlink">
 <defs>
  <style type="text/css">
   <![CDATA[
    .fil3 {fill:none}
    .fil2 {fill:#6F5339}
    .fil0 {fill:#C58C53}
    .fil1 {fill:#6F5339;fill-rule:nonzero}
   ]]>
  </style>
 </defs>
 <g id="Layer_x0020_1">
  <metadata id="CorelCorpID_0Corel-Layer"/>
  <path class="fil0" d="M1444.03 821.032c-109.456,-170.437 -256.492,-291.252 -420.032,-291.252 -163.54,0 -310.576,120.815 -420.032,291.252 -119.95,186.778 -195.769,434.831 -197.397,645.475 460.327,0 628.654,0 1234.86,0 -1.62756,-210.644 -77.4461,-458.697 -197.397,-645.475z"/>
  <path class="fil1" d="M288 1454.22c-17.6728,0 -32.0008,14.328 -32.0008,32.0008 0,17.6728 14.328,32.0008 32.0008,32.0008l1472 0c17.6728,0 32.0008,-14.328 32.0008,-32.0008 0,-17.6728 -14.328,-32.0008 -32.0008,-32.0008l-1472 0z"/>
  <path class="fil2" d="M671.077 919.646l70.2969 106.97c9.66497,14.7047 29.4213,18.7902 44.126,9.1252 14.7047,-9.66497 18.7902,-29.4213 9.1252,-44.126l-70.2969 -106.97c-9.66497,-14.7047 -29.4213,-18.7902 -44.126,-9.1252 -14.7047,9.66497 -18.7902,29.4213 -9.1252,44.126z"/>
  <path class="fil2" d="M1154.23 866.161l70.2969 106.97c9.66497,14.7047 29.4213,18.7902 44.126,9.1252 14.7047,-9.66497 18.7902,-29.4213 9.1252,-44.126l-70.2969 -106.97c-9.66497,-14.7047 -29.4213,-18.7902 -44.126,-9.1252 -14.7047,9.66497 -18.7902,29.4213 -9.1252,44.126z"/>
  <path class="fil2" d="M1389.5 1228.15l-104.088 74.4969c-14.3587,10.2165 -17.7165,30.1406 -7.50001,44.4992 10.2165,14.3587 30.1406,17.7165 44.4992,7.50001l104.088 -74.4969c14.3587,-10.2165 17.7165,-30.1406 7.50001,-44.4992 -10.2165,-14.3587 -30.1406,-17.7165 -44.4992,-7.50001z"/>
  <path class="fil2" d="M704 1262.44l0 204.072 372.364 0 0 -204.072c0,-25.3323 -10.3417,-48.3414 -27,-64.9997 -16.6583,-16.6583 -39.6674,-27 -64.9997,-27l-188.365 0c-25.3323,0 -48.3414,10.3417 -64.9997,27 -16.6583,16.6583 -27,39.6674 -27,64.9997z"/>
 </g>
 <rect class="fil3" width="2048" height="2048"/>
</svg>
