<?xml version="1.0" encoding="UTF-8"?>
<!DOCTYPE svg PUBLIC "-//W3C//DTD SVG 1.1//EN" "http://www.w3.org/Graphics/SVG/1.1/DTD/svg11.dtd">
<!-- Creator: CorelDRAW -->
<svg xmlns="http://www.w3.org/2000/svg" xml:space="preserve" width="2048px" height="2048px" style="shape-rendering:geometricPrecision; text-rendering:geometricPrecision; image-rendering:optimizeQuality; fill-rule:evenodd; clip-rule:evenodd"
viewBox="0 0 2048 2048"
 xmlns:xlink="http://www.w3.org/1999/xlink">
 <defs>
  <style type="text/css">
   <![CDATA[
    .fil8 {fill:none}
    .fil7 {fill:#212121}
    .fil6 {fill:#7A7E67}
    .fil5 {fill:#E1F5FE}
    .fil0 {fill:#E9A403}
    .fil1 {fill:#FFB300}
    .fil2 {fill:#A9AE8D;fill-rule:nonzero}
    .fil4 {fill:#E53935;fill-rule:nonzero}
    .fil3 {fill:#FFB300;fill-rule:nonzero}
   ]]>
  </style>
 </defs>
 <g id="Layer_x0020_1">
  <metadata id="CorelCorpID_0Corel-Layer"/>
  <g id="_458636208">
   <path id="_458636040" class="fil0" d="M236.853 606.616l0.36378 4.12796c0,0 200.19,35.5642 163.914,-48.2823l-148.132 35.002 -16.1457 9.15237z"/>
   <path id="_458635704" class="fil1" d="M369.874 519.493c0,0 -101.667,-4.71851 -133.022,87.1229 0,0 250.521,11.628 133.022,-87.1229z"/>
  </g>
  <path class="fil2" d="M887.821 1711.39c-17.465,2.55355 -33.6969,-9.53505 -36.2504,-27 -2.55355,-17.465 9.53505,-33.6969 27,-36.2504l53.9185 -7.99489c-0.96378,-3.23386 -1.42559,-6.67796 -1.30039,-10.2378 0.375591,-10.2791 2.63858,-22.1669 6.99331,-36.3319 7.11497,-23.1378 16.8862,-42.0296 24.7075,-63.7689 0.703938,-1.95827 1.3748,-3.94134 2.00551,-5.95985l-89.791 -0.582284c-3.6437,1.18465 -7.56379,1.7315 -11.6197,1.50945 -2.73307,-0.155906 -40.4859,100.383 -44.7107,111.228l14.4602 13.1386c13.0476,11.8736 13.9996,32.0776 2.12599,45.1252 -11.8736,13.0476 -32.0776,13.9996 -45.1252,2.12599l-34.102 -30.9839 -63.1571 9.36497c-17.465,2.55355 -33.6969,-9.53505 -36.2504,-27 -2.55355,-17.465 9.53505,-33.6969 27,-36.2504l77.9847 -11.563 -0.00590552 -0.0377953c0.929528,-0.138189 1.85669,-0.232677 2.77795,-0.28937l35.3079 -90.645c-87.3154,-42.6768 -106.635,-154.888 -172.958,-191.518 -86.8879,-10.0099 -154.879,-51.3142 -204.633,-124.909 -47.967,-70.9501 -77.9847,-172.114 -90.7064,-304.477 -7.663,-80.3068 15.8847,-129.554 42.1961,-184.579 7.213,-15.0862 14.6634,-30.6638 21.5658,-47.5099 -6.71221,-3.67205 -13.1539,-7.58977 -19.5756,-11.4945 -12.4713,-7.58505 -28.1847,-26.4921 -40.402,-29.5583 -12.3036,-36.7087 -6.88819,-64.6347 -2.73189,-95.295 23.8701,-21.2563 23.654,-31.9666 20.5099,-40.6158 -6.12638,-16.8484 -14.7118,-40.4563 -15.2752,-82.9961l-0.122835 0.0011811c-0.231496,-17.6705 13.9075,-32.1851 31.578,-32.4166 2.51575,-0.0330709 4.96772,0.226772 7.32402,0.745276 5.69528,1.11732 11.3953,3.39449 17.4756,6.31654 1.62165,-13.4339 5.14607,-26.6103 9.83032,-41.4922l-0.0236221 -0.108662c5.30552,-16.8567 23.2748,-26.2205 40.1315,-20.915 1.8874,0.594095 3.68032,1.34764 5.3693,2.24055 5.6067,2.64685 7.72796,5.10237 10.4599,8.86536 0.312992,0.411024 0.614174,0.826772 0.905906,1.25197l0.0106299 -0.00708662c0.483071,0.67441 0.936615,1.35945 1.35945,2.05748 4.07953,5.4567 14.8016,18.8764 27.4654,26.224 7.53308,4.37008 17.576,4.00512 28.0902,-14.1154l-0.0531496 -0.0590552c8.8689,-15.2858 28.4516,-20.4874 43.7374,-11.6185 10.9417,6.34843 16.715,18.1866 15.861,30.0083 -0.0318898,21.9921 -6.94253,45.1689 -13.6547,67.6772 -1.04882,3.51851 -2.09291,7.01693 -3.08859,10.4445 34.7422,9.42402 63.1099,24.561 88.4965,44.3587 31.7221,24.7358 57.4229,55.813 85.1386,91.8709 9.07796,11.7673 17.074,26.6398 24.6236,43.3429 6.94371,15.3579 13.6252,32.452 20.4992,50.0658 73.5686,187.34 168.782,213.196 334.542,112.384 56.5701,-34.402 109.519,-78.3225 154.187,-115.429 -0.464174,-0.734646 54.3189,-44.1095 59.5264,-48.0319 2.48032,-3.56693 4.97953,-7.31103 7.51182,-11.2075 2.31614,-3.56221 6.18426,-9.71812 10.7268,-16.9937 -5.35512,-19.9725 98.8784,-146.445 172.57,-136.943 0.246851,-0.3 3.00473,0.396851 3.49961,0.516142 23.1343,4.04055 36.4748,17.1201 51.776,32.126 0.611811,0.575197 1.03228,0.904725 1.66063,1.6063 9.73938,9.42993 20.7673,19.7599 34.526,23.3965 0.467717,-0.121654 1.73386,0.382677 2.23583,0.549213 42.0107,10.4126 96.9072,29.2666 136.428,51.6367 38.4473,21.7654 64.8355,49.0914 62.6363,81.2138 -0.643701,2.20748 -0.712205,5.8193 -1.77638,8.76142 -10.1421,32.1721 -61.3465,82.9595 -123.104,128.41 -28.826,21.2138 -60.3201,41.9965 -90.978,59.6315 12.9378,4.65945 23.7839,8.56536 26.0587,8.56536 17.6728,0 32.0008,14.328 32.0008,32.0008 0,7.72205 -2.73544,14.8039 -7.28977,20.3327 -10.8095,14.6303 -31.011,34.6772 -53.7721,55.3536 -32.4485,29.4768 -72.1406,62.0611 -94.33,79.7079 -23.1862,37.8177 -44.3941,85.3843 -65.2607,132.191 -26.1709,58.702 -51.8363,116.267 -82.767,157.942l0.0708662 0.0708662c-0.298819,0.402756 -0.605906,0.797245 -0.921261,1.18228 -17.2465,22.6229 -40.4729,38.1142 -67.1422,50.1118 -24.1902,10.8827 -51.1937,18.7228 -78.991,26.7662l-0.938977 0.274016c-27.7229,8.08465 -56.7532,16.552 -83.0422,28.9925 -3.72402,1.75748 -7.61693,2.73071 -11.4921,2.98937 -2.31614,2.96575 -5.19804,5.5689 -8.60788,7.63347 -15.4087,9.33426 -29.5406,20.7366 -41.302,35.3185 -25.4799,31.5827 -23.2736,48.1252 -34.5437,79.4753 -7.50001,20.8477 -17.0669,39.43 -23.7083,61.0193 -2.70236,8.79095 -4.07481,15.2646 -4.24134,19.8319 -0.236221,6.69331 -2.51929,12.8291 -6.2256,17.8335l39.365 35.7662c13.0476,11.8736 13.9996,32.0776 2.12599,45.1252 -11.8736,13.0476 -32.0776,13.9996 -45.1252,2.12599l-34.102 -30.9839 -63.1571 9.36497z"/>
  <path class="fil3" d="M887.821 1711.39c-17.465,2.55355 -33.6969,-9.53505 -36.2504,-27 -2.55355,-17.465 9.53505,-33.6969 27,-36.2504l53.9185 -7.99489c-0.96378,-3.23386 -1.42559,-6.67796 -1.30039,-10.2378 0.375591,-10.2791 2.63858,-22.1669 6.99331,-36.3319 7.11497,-23.1378 16.8862,-42.0296 24.7075,-63.7689 0.703938,-1.95827 1.3748,-3.94134 2.00551,-5.95985l64.9146 4.97953c-1.86851,6.81851 -3.91536,14.1236 -6.92008,22.4811 -7.50001,20.8477 -17.0669,39.43 -23.7083,61.0193 -2.70236,8.79095 -4.07481,15.2646 -4.24134,19.8319 -0.236221,6.69331 -2.51929,12.8291 -6.2256,17.8335l39.365 35.7662c13.0476,11.8736 13.9996,32.0776 2.12599,45.1252 -11.8736,13.0476 -32.0776,13.9996 -45.1252,2.12599l-34.102 -30.9839 -63.1571 9.36497zm-20.2087 -186.654c-1.35591,0.0992127 -2.73425,0.114567 -4.12796,0.0377953l-63.6945 -15.7866 -35.3079 90.645c-0.921261,0.056693 -1.84843,0.151181 -2.77795,0.28937l0.00590552 0.0377953 -77.9847 11.563c-17.465,2.55355 -29.5536,18.7854 -27,36.2504 2.55355,17.465 18.7854,29.5536 36.2504,27l63.1571 -9.36497 34.102 30.9839c13.0476,11.8736 33.2516,10.9217 45.1252,-2.12599 11.8736,-13.0476 10.9217,-33.2516 -2.12599,-45.1252l-14.4602 -13.1386c4.22481,-10.8449 41.9776,-111.384 44.7107,-111.228l4.12796 -0.0377953z"/>
  <path class="fil4" d="M352.044 493.153c3.98622,-5.92678 2.8311,-9.11576 1.00984,-14.126 -6.12638,-16.8484 -14.7118,-40.4563 -15.2752,-82.9961l-0.122835 0.0011811c-0.231496,-17.6705 13.9075,-32.1851 31.578,-32.4166 2.51575,-0.0330709 4.96772,0.226772 7.32402,0.745276 5.69528,1.11732 11.3953,3.39449 17.4756,6.31654 1.62165,-13.4339 5.14607,-26.6103 9.83032,-41.4922l-0.0236221 -0.108662c5.30552,-16.8567 23.2748,-26.2205 40.1315,-20.915 1.8874,0.594095 3.68032,1.34764 5.3693,2.24055 5.6067,2.64685 7.72796,5.10237 10.4599,8.86536 0.312992,0.411024 0.614174,0.826772 0.905906,1.25197l0.0106299 -0.00708662c0.483071,0.67441 0.936615,1.35945 1.35945,2.05748 4.07953,5.4567 14.8016,18.8764 27.4654,26.224 7.53308,4.37008 17.576,4.00512 28.0902,-14.1154l-0.0531496 -0.0590552c8.8689,-15.2858 28.4516,-20.4874 43.7374,-11.6185 10.9417,6.34843 16.715,18.1866 15.861,30.0083 -0.0318898,21.9921 -6.94253,45.1689 -13.6547,67.6772 -1.04882,3.51851 -2.09291,7.01693 -3.08859,10.4445 0,0 -99.5103,-20.8264 -208.389,62.0209l-0.0011811 0.0011811z"/>
  <circle class="fil5" cx="498.667" cy="524.378" r="30.715"/>
  <path class="fil6" d="M1427.17 901.651c-254.378,148.29 -529.585,-58.1091 -587.536,-48.7985 -623.31,100.149 83.0481,806.174 587.536,48.7985z"/>
  <circle class="fil7" cx="498.667" cy="524.379" r="15.7154"/>
 </g>
 <rect class="fil8" width="2048" height="2048"/>
</svg>
