<?xml version="1.0" encoding="UTF-8"?>
<!DOCTYPE svg PUBLIC "-//W3C//DTD SVG 1.1//EN" "http://www.w3.org/Graphics/SVG/1.1/DTD/svg11.dtd">
<!-- Creator: CorelDRAW -->
<svg xmlns="http://www.w3.org/2000/svg" xml:space="preserve" width="2048px" height="2048px" style="shape-rendering:geometricPrecision; text-rendering:geometricPrecision; image-rendering:optimizeQuality; fill-rule:evenodd; clip-rule:evenodd"
viewBox="0 0 2048 2048"
 xmlns:xlink="http://www.w3.org/1999/xlink">
 <defs>
  <style type="text/css">
   <![CDATA[
    .fil10 {fill:none}
    .fil8 {fill:none;fill-rule:nonzero}
    .fil3 {fill:#212121}
    .fil5 {fill:#5D4037}
    .fil4 {fill:#666666}
    .fil2 {fill:#D59706}
    .fil1 {fill:#FFB300}
    .fil0 {fill:#FFCA28}
    .fil7 {fill:#424242;fill-rule:nonzero}
    .fil6 {fill:#5D4037;fill-rule:nonzero}
    .fil9 {fill:#EDD89B;fill-rule:nonzero}
   ]]>
  </style>
 </defs>
 <g id="Layer_x0020_1">
  <metadata id="CorelCorpID_0Corel-Layer"/>
  <g id="_458637024">
   <g>
    <g>
     <ellipse id="_458639472" class="fil0" cx="1024" cy="1680.17" rx="265.548" ry="93.7228"/>
     <ellipse id="_458639712" class="fil1" cx="1024" cy="1555.21" rx="390.512" ry="137.828"/>
     <ellipse id="_458639832" class="fil0" cx="1024" cy="1399" rx="484.235" ry="170.907"/>
     <ellipse id="_458639664" class="fil1" cx="1024" cy="1228.17" rx="546.717" ry="192.959"/>
     <ellipse id="_458639976" class="fil0" cx="1024" cy="1057.33" rx="484.235" ry="170.907"/>
     <g>
      <ellipse id="_458639784" class="fil1" cx="1024" cy="901.129" rx="390.512" ry="137.828"/>
      <ellipse id="_458638920" class="fil0" cx="1024" cy="776.164" rx="265.548" ry="93.7228"/>
     </g>
    </g>
    <path id="_458638632" class="fil2" d="M1024 1495.99c-91.18,0 -165.106,-73.9264 -165.106,-165.106 0,-91.1788 73.9264,-165.105 165.106,-165.105 91.1788,0 165.105,73.9264 165.105,165.105 0,91.18 -73.9264,165.106 -165.105,165.106z"/>
    <ellipse id="_458639184" class="fil3" cx="1024" cy="1330.88" rx="145.568" ry="145.568"/>
    <path id="_458638680" class="fil4" d="M914.25 1426.52c26.6858,30.6 65.9587,49.9359 109.75,49.9359 46.552,0 87.9993,-21.8516 114.646,-55.8567 0.473622,-0.604725 0.94252,-1.21181 1.40551,-1.82362 18.5244,-24.4217 29.5158,-54.8717 29.5158,-87.8883 0,-9.0378 -0.823229,-17.8831 -2.4,-26.4662 -9.913,53.9717 -49.5945,97.5272 -101.393,113.019 -5.00197,1.49528 -10.1173,2.72953 -15.3295,3.68622 -8.57481,1.57441 -17.4142,2.39646 -26.4449,2.39646 -11.1957,0 -22.0961,-1.26378 -32.5654,-3.6567 -0.794883,-0.18189 -1.5874,-0.369685 -2.37874,-0.564567 -55.1185,-13.5803 -97.8792,-58.5603 -108.224,-114.88 -1.57677,8.58308 -2.4,17.4284 -2.4,26.4662 0,30.7984 9.56457,59.3623 25.8839,82.8851 3.07796,4.43504 6.39567,8.69056 9.93426,12.7476z"/>
   </g>
   <g>
    <g>
     <polygon id="_458639040" class="fil5" points="1707.01,700.633 1733.5,674.145 1792,758.735 "/>
     <path id="_458638008" class="fil0" d="M1514.36 481.493c47.426,548.785 548.785,47.426 0,0z"/>
     <g>
      <path id="_458638296" class="fil5" d="M1590.49 702.19c8.30197,8.39764 16.9146,15.0921 25.689,20.2335 28.8012,-18.5173 54.6142,-39.6437 77.7603,-63.0981 22.9382,-23.2429 43.239,-48.7477 61.2189,-76.2414 -5.14252,-8.72481 -11.8205,-17.2961 -20.1874,-25.5508 -18.2303,29.1461 -39.0591,55.9678 -62.8843,80.1107 -24,24.3201 -51.0626,45.9544 -81.5965,64.5461z"/>
      <path id="_458638560" class="fil5" d="M1551.9 643.958c4.58032,10.0075 9.44646,19.0618 14.537,27.267 28.4457,-18.3803 53.967,-39.3142 76.8756,-62.5276 22.6642,-22.9677 42.7548,-48.1418 60.5741,-75.2611 -8.21457,-5.08465 -17.276,-9.94607 -27.2929,-14.5181 -16.3264,24.5339 -34.6193,47.3091 -55.1339,68.0965 -20.798,21.0756 -43.8969,40.1339 -69.5599,56.9434z"/>
      <path id="_458638512" class="fil5" d="M1528.57 573.873c2.66929,11.3421 5.61851,21.9295 8.77796,31.917 19.963,-14.5831 38.367,-30.5268 55.3359,-47.7225 16.5378,-16.7575 31.7055,-34.6914 45.6201,-53.6977 -9.99331,-3.15118 -20.5677,-6.09922 -31.9134,-8.76142 -11.0445,14.3162 -22.8768,27.9272 -35.5583,40.7776 -13.1469,13.3205 -27.2114,25.8355 -42.2622,37.487z"/>
     </g>
     <path id="_458638488" class="fil6" d="M1471.28 438.417c12.052,-12.052 27.8504,-18.0791 43.6489,-18.0791 15.7996,0 31.5981,6.02717 43.65,18.0791 12.0532,12.052 18.0791,27.8516 18.0791,43.65 0,15.7984 -6.02599,31.5969 -18.0791,43.65 -12.052,12.052 -27.8516,18.078 -43.65,18.078 -15.7984,0 -31.5969,-6.02599 -43.65,-18.078 -12.052,-12.0532 -18.0791,-27.8516 -18.078,-43.65 0,-15.7984 6.02599,-31.5969 18.0791,-43.65z"/>
     <path id="_458638224" class="fil7" d="M1453.91 370.848c-10.702,-3.75473 -24.6685,-1.08425 -37.9713,12.2185 -13.3028,13.3028 -15.9732,27.2693 -12.2185,37.9725 1.39134,3.96496 3.70276,7.56497 6.69804,10.5602 2.99528,2.99528 6.59528,5.3067 10.5602,6.69804 10.7032,3.75473 24.6697,1.08425 37.9725,-12.2185 13.3028,-13.3028 15.9732,-27.2693 12.2173,-37.9725 -1.39016,-3.96496 -3.70158,-7.56497 -6.69804,-10.5602 -2.99528,-2.99528 -6.5941,-5.3067 -10.5602,-6.69804z"/>
     <path id="_458638344" class="fil6" d="M1399.71 366.846c20.4284,-20.4284 43.4044,-23.9929 61.7965,-17.5406 7.34882,2.57835 13.8803,6.72402 19.1776,12.0201 5.29607,5.29725 9.44174,11.8287 12.0201,19.1776 6.45237,18.3921 2.8878,41.367 -17.5406,61.7953 -20.4284,20.4284 -43.4032,23.9929 -61.7953,17.5406 -7.35001,-2.57835 -13.8815,-6.72402 -19.1776,-12.0201 -5.29725,-5.29607 -9.44292,-11.8287 -12.0201,-19.1776 -6.45355,-18.3921 -2.88898,-41.367 17.5394,-61.7953z"/>
     <line id="_458637960" class="fil8" x1="1461.37" y1="601.352" x2="1461.37" y2= "601.352" />
     <line id="_458638128" class="fil8" x1="1481.39" y1="612.376" x2="1481.39" y2= "612.376" />
     <path id="_458638368" class="fil6" d="M1367.37 358.148c-4.47874,-4.47874 -11.7413,-4.47874 -16.2201,0 -4.47992,4.47874 -4.47992,11.7413 0,16.2201l9.60355 9.60473c1.57323,1.57323 3.49016,2.59252 5.50748,3.06024l29.1862 8.95394c6.03544,1.87205 12.4465,-1.50473 14.3185,-7.54016 1.87323,-6.03544 -1.50354,-12.4465 -7.53898,-14.3185l-27.2303 -8.35394 -7.62638 -7.62638z"/>
     <path id="_458637288" class="fil6" d="M1407.24 318.286c-4.47874,-4.47874 -11.7413,-4.47874 -16.2201,0 -4.47992,4.47874 -4.47992,11.7413 0,16.2213l7.62638 7.62638 8.35276 27.2292c1.87205,6.03662 8.28308,9.41221 14.3197,7.54016 6.03544,-1.87205 9.41103,-8.28308 7.53898,-14.3185l-8.95276 -29.1862c-0.467717,-2.01851 -1.48819,-3.93544 -3.06142,-5.50748l-9.60355 -9.60473z"/>
     <path id="_458637672" class="fil9" d="M1753.1 402.676c16.8331,-25.0843 -13.6087,-67.5603 -24.6036,-87.5339 -6.44646,-11.7118 -13.6772,-20.602 -21.5091,-27.0614 -19.7008,-16.2496 -42.104,-17.1721 -64.9973,-8.67402 -20.7461,7.69843 -41.7496,23.4378 -61.1103,42.1311 -77.7804,75.0957 -88.1375,120.236 -66.6355,140.412 34.6784,32.5406 187.593,17.1165 238.856,-59.2737z"/>
     <path id="_458637744" class="fil9" d="M1435.54 720.233c-25.0855,16.8331 -67.5615,-13.6087 -87.5351,-24.6036 -11.7106,-6.44646 -20.6008,-13.6772 -27.0614,-21.5091 -16.2496,-19.7008 -17.1709,-42.104 -8.67402,-64.9973 7.69961,-20.7461 23.439,-41.7496 42.1311,-61.1103 75.0957,-77.7804 120.236,-88.1387 140.412,-66.6367 32.5406,34.6796 17.1177,187.595 -59.2725,238.857z"/>
    </g>
    <g>
     <polygon id="_458637504" class="fil5" points="340.988,700.633 314.502,674.145 255.999,758.735 "/>
     <path id="_458637432" class="fil0" d="M533.64 481.493c-47.426,548.785 -548.785,47.426 0,0z"/>
     <g>
      <path id="_458637480" class="fil5" d="M457.512 702.19c-8.30197,8.39764 -16.9146,15.0921 -25.689,20.2335 -28.8012,-18.5173 -54.6142,-39.6437 -77.7603,-63.0981 -22.9382,-23.2429 -43.239,-48.7477 -61.2189,-76.2414 5.14252,-8.72481 11.8205,-17.2961 20.1874,-25.5508 18.2303,29.1461 39.0591,55.9678 62.8843,80.1107 24,24.3201 51.0626,45.9544 81.5965,64.5461z"/>
      <path id="_458637336" class="fil5" d="M496.104 643.958c-4.58032,10.0075 -9.44646,19.0618 -14.537,27.267 -28.4457,-18.3803 -53.967,-39.3142 -76.8756,-62.5276 -22.6642,-22.9677 -42.7548,-48.1418 -60.5741,-75.2611 8.21457,-5.08465 17.276,-9.94607 27.2929,-14.5181 16.3264,24.5339 34.6193,47.3091 55.1339,68.0965 20.798,21.0756 43.8969,40.1339 69.5599,56.9434z"/>
      <path id="_458637168" class="fil5" d="M519.434 573.873c-2.66929,11.3421 -5.61851,21.9295 -8.77796,31.917 -19.963,-14.5831 -38.367,-30.5268 -55.3359,-47.7225 -16.5378,-16.7575 -31.7055,-34.6914 -45.6201,-53.6977 9.99331,-3.15118 20.5677,-6.09922 31.9134,-8.76142 11.0445,14.3162 22.8768,27.9272 35.5583,40.7776 13.1469,13.3205 27.2114,25.8355 42.2622,37.487z"/>
     </g>
     <path id="_458637768" class="fil6" d="M576.715 438.417c-12.052,-12.052 -27.8504,-18.0791 -43.6489,-18.0791 -15.7996,0 -31.5981,6.02717 -43.65,18.0791 -12.0532,12.052 -18.0791,27.8516 -18.0791,43.65 0,15.7984 6.02599,31.5969 18.0791,43.65 12.052,12.052 27.8516,18.078 43.65,18.078 15.7984,0 31.5969,-6.02599 43.65,-18.078 12.052,-12.0532 18.0791,-27.8516 18.078,-43.65 0,-15.7984 -6.02599,-31.5969 -18.0791,-43.65z"/>
     <path id="_458637072" class="fil7" d="M594.095 370.848c10.702,-3.75473 24.6685,-1.08425 37.9713,12.2185 13.3028,13.3028 15.9732,27.2693 12.2185,37.9725 -1.39134,3.96496 -3.70276,7.56497 -6.69804,10.5602 -2.99528,2.99528 -6.59528,5.3067 -10.5602,6.69804 -10.7032,3.75473 -24.6697,1.08425 -37.9725,-12.2185 -13.3028,-13.3028 -15.9732,-27.2693 -12.2173,-37.9725 1.39016,-3.96496 3.70158,-7.56497 6.69804,-10.5602 2.99528,-2.99528 6.5941,-5.3067 10.5602,-6.69804z"/>
     <path id="_458636712" class="fil6" d="M648.288 366.846c-20.4284,-20.4284 -43.4044,-23.9929 -61.7965,-17.5406 -7.34882,2.57835 -13.8803,6.72402 -19.1776,12.0201 -5.29607,5.29725 -9.44174,11.8287 -12.0201,19.1776 -6.45237,18.3921 -2.8878,41.367 17.5406,61.7953 20.4284,20.4284 43.4032,23.9929 61.7953,17.5406 7.35001,-2.57835 13.8815,-6.72402 19.1776,-12.0201 5.29725,-5.29607 9.44292,-11.8287 12.0201,-19.1776 6.45355,-18.3921 2.88898,-41.367 -17.5394,-61.7953z"/>
     <line id="_458636544" class="fil8" x1="586.63" y1="601.352" x2="586.63" y2= "601.352" />
     <line id="_458636592" class="fil8" x1="566.609" y1="612.376" x2="566.609" y2= "612.376" />
     <path id="_458636832" class="fil6" d="M680.626 358.148c4.47874,-4.47874 11.7413,-4.47874 16.2201,0 4.47992,4.47874 4.47992,11.7413 0,16.2201l-9.60355 9.60473c-1.57323,1.57323 -3.49016,2.59252 -5.50748,3.06024l-29.1862 8.95394c-6.03544,1.87205 -12.4465,-1.50473 -14.3185,-7.54016 -1.87323,-6.03544 1.50354,-12.4465 7.53898,-14.3185l27.2303 -8.35394 7.62638 -7.62638z"/>
     <path id="_458636376" class="fil6" d="M640.764 318.286c4.47874,-4.47874 11.7413,-4.47874 16.2201,0 4.47992,4.47874 4.47992,11.7413 0,16.2213l-7.62638 7.62638 -8.35276 27.2292c-1.87205,6.03662 -8.28308,9.41221 -14.3197,7.54016 -6.03544,-1.87205 -9.41103,-8.28308 -7.53898,-14.3185l8.95276 -29.1862c0.467717,-2.01851 1.48819,-3.93544 3.06142,-5.50748l9.60355 -9.60473z"/>
     <path id="_458636856" class="fil9" d="M294.9 402.676c-16.8331,-25.0843 13.6087,-67.5603 24.6036,-87.5339 6.44646,-11.7118 13.6772,-20.602 21.5091,-27.0614 19.7008,-16.2496 42.104,-17.1721 64.9973,-8.67402 20.7461,7.69843 41.7496,23.4378 61.1103,42.1311 77.7804,75.0957 88.1375,120.236 66.6355,140.412 -34.6784,32.5406 -187.593,17.1165 -238.856,-59.2737z"/>
     <path id="_458636520" class="fil9" d="M612.456 720.233c25.0855,16.8331 67.5615,-13.6087 87.5351,-24.6036 11.7106,-6.44646 20.6008,-13.6772 27.0614,-21.5091 16.2496,-19.7008 17.1709,-42.104 8.67402,-64.9973 -7.69961,-20.7461 -23.439,-41.7496 -42.1311,-61.1103 -75.0957,-77.7804 -120.236,-88.1387 -140.412,-66.6367 -32.5406,34.6796 -17.1177,187.595 59.2725,238.857z"/>
    </g>
   </g>
  </g>
 </g>
 <rect class="fil10" width="2048" height="2048"/>
</svg>
