<?xml version="1.0" encoding="UTF-8"?>
<!DOCTYPE svg PUBLIC "-//W3C//DTD SVG 1.1//EN" "http://www.w3.org/Graphics/SVG/1.1/DTD/svg11.dtd">
<!-- Creator: CorelDRAW -->
<svg xmlns="http://www.w3.org/2000/svg" xml:space="preserve" width="2048px" height="2048px" style="shape-rendering:geometricPrecision; text-rendering:geometricPrecision; image-rendering:optimizeQuality; fill-rule:evenodd; clip-rule:evenodd"
viewBox="0 0 2048 2048"
 xmlns:xlink="http://www.w3.org/1999/xlink">
 <defs>
  <style type="text/css">
   <![CDATA[
    .fil2 {fill:none}
    .fil1 {fill:#262F34}
    .fil0 {fill:#37474F}
   ]]>
  </style>
 </defs>
 <g id="Layer_x0020_1">
  <metadata id="CorelCorpID_0Corel-Layer"/>
  <g id="_458640144">
   <path id="_458641392" class="fil0" d="M766.292 898.174c10.7563,-140.803 38.4815,-287.289 61.7162,-410.06 14.374,-75.9497 27.0626,-142.994 33.1902,-194.629 0.307087,-1.78228 0.470079,-3.61299 0.470079,-5.48268 0,-17.6728 -14.328,-32.0008 -32.0008,-32.0008l-349.799 0c-17.6728,0 -32.0008,14.328 -32.0008,32.0008l0 233.198c0,17.6728 14.328,32.0008 32.0008,32.0008l99.678 0c-239.401,420.065 -235.98,734.647 -114.854,941.95 115.631,197.899 337.65,296.851 559.308,296.851 221.658,0 443.677,-98.9528 559.308,-296.851 121.125,-207.301 124.549,-521.885 -114.855,-941.95l99.6792 0c17.6728,0 32.0008,-14.328 32.0008,-32.0008l0 -233.198c0,-17.6728 -14.328,-32.0008 -32.0008,-32.0008l-349.372 0c-1.36063,-0.0165354 -2.74016,0.0531496 -4.12914,0.214961 -17.5547,2.04331 -30.1276,17.9327 -28.0843,35.4874l0.0437008 -0.00472441c6.04489,51.8717 18.8622,119.588 33.4016,196.415 23.2347,122.772 50.9599,269.258 61.7174,410.06 19.8071,259.26 -18.476,499.322 -257.71,519.174 -239.234,-19.852 -277.517,-259.914 -257.708,-519.174z"/>
   <path id="_458641056" class="fil1" d="M645.839 1064.97c14.6705,-14.6693 23.7473,-34.937 23.7473,-57.3201 0,-22.3831 -9.07678,-42.6508 -23.7473,-57.3201 -14.6717,-14.6717 -34.937,-23.7473 -57.3201,-23.7473 -22.3819,0 -42.6496,9.0756 -57.3213,23.7473 -14.6705,14.6693 -23.7473,34.937 -23.7473,57.3201 0,22.3831 9.07678,42.6508 23.7473,57.3201 14.6717,14.6717 34.9394,23.7473 57.3213,23.7473 22.3831,0 42.6485,-9.0756 57.3201,-23.7473z"/>
   <path id="_458641368" class="fil1" d="M685.493 1315.81c0,-22.3831 -9.07678,-42.6508 -23.7473,-57.3201 -14.6717,-14.6717 -34.937,-23.7473 -57.3201,-23.7473 -22.3819,0 -42.6496,9.0756 -57.3213,23.7473 -14.6705,14.6693 -23.7473,34.937 -23.7473,57.3201 0,22.3831 9.07678,42.6508 23.7473,57.3201 14.6717,14.6717 34.9394,23.7473 57.3213,23.7473 22.3831,0 42.6485,-9.0756 57.3201,-23.7473 14.6705,-14.6693 23.7473,-34.937 23.7473,-57.3201z"/>
   <path id="_458640888" class="fil1" d="M890.879 1548.58c0,-22.3831 -9.07678,-42.6508 -23.7473,-57.3201 -14.6717,-14.6717 -34.937,-23.7473 -57.3201,-23.7473 -22.3819,0 -42.6496,9.0756 -57.3213,23.7473 -14.6705,14.6693 -23.7473,34.937 -23.7473,57.3201 0,22.3831 9.07678,42.6508 23.7473,57.3201 14.6717,14.6717 34.9394,23.7473 57.3213,23.7473 22.3831,0 42.6485,-9.0756 57.3201,-23.7473 14.6705,-14.6693 23.7473,-34.937 23.7473,-57.3201z"/>
   <path id="_458641608" class="fil1" d="M1293.94 1605.9c14.6705,-14.6693 23.7473,-34.937 23.7473,-57.3201 0,-22.3831 -9.07678,-42.6508 -23.7473,-57.3201 -14.6717,-14.6717 -34.937,-23.7473 -57.3201,-23.7473 -22.3819,0 -42.6496,9.0756 -57.3213,23.7473 -14.6705,14.6693 -23.7473,34.937 -23.7473,57.3201 0,22.3831 9.07678,42.6508 23.7473,57.3201 14.6717,14.6717 34.9394,23.7473 57.3213,23.7473 22.3831,0 42.6485,-9.0756 57.3201,-23.7473z"/>
   <path id="_458640672" class="fil1" d="M1513.96 1315.81c0,-22.3831 -9.07678,-42.6508 -23.7473,-57.3201 -14.6717,-14.6717 -34.937,-23.7473 -57.3201,-23.7473 -22.3819,0 -42.6496,9.0756 -57.3213,23.7473 -14.6705,14.6693 -23.7473,34.937 -23.7473,57.3201 0,22.3831 9.07678,42.6508 23.7473,57.3201 14.6717,14.6717 34.9394,23.7473 57.3213,23.7473 22.3831,0 42.6485,-9.0756 57.3201,-23.7473 14.6705,-14.6693 23.7473,-34.937 23.7473,-57.3201z"/>
   <path id="_458640288" class="fil1" d="M1522.92 1064.97c14.6693,-14.6717 23.7461,-34.9394 23.7461,-57.3213 0,-22.3819 -9.07678,-42.6496 -23.7461,-57.3213 -14.6717,-14.6693 -34.9394,-23.7461 -57.3213,-23.7461 -22.3819,0 -42.6496,9.0756 -57.3201,23.7461 -14.6717,14.6717 -23.7473,34.9394 -23.7473,57.3213 0,22.3819 9.0756,42.6496 23.7473,57.3213 14.6705,14.6705 34.9382,23.7461 57.3201,23.7461 22.3819,0 42.6496,-9.07678 57.3213,-23.7461z"/>
  </g>
 </g>
 <rect class="fil2" width="2048" height="2048"/>
</svg>
