<?xml version="1.0" encoding="UTF-8"?>
<!DOCTYPE svg PUBLIC "-//W3C//DTD SVG 1.1//EN" "http://www.w3.org/Graphics/SVG/1.1/DTD/svg11.dtd">
<!-- Creator: CorelDRAW -->
<svg xmlns="http://www.w3.org/2000/svg" xml:space="preserve" width="2048px" height="2048px" style="shape-rendering:geometricPrecision; text-rendering:geometricPrecision; image-rendering:optimizeQuality; fill-rule:evenodd; clip-rule:evenodd"
viewBox="0 0 2048 2048"
 xmlns:xlink="http://www.w3.org/1999/xlink">
 <defs>
  <style type="text/css">
   <![CDATA[
    .fil13 {fill:none}
    .fil4 {fill:#212121}
    .fil11 {fill:#263238}
    .fil5 {fill:#5B4226}
    .fil3 {fill:#614626}
    .fil2 {fill:#684A26}
    .fil12 {fill:#795326}
    .fil0 {fill:#835827}
    .fil1 {fill:#A76C2A}
    .fil10 {fill:#CFD8DC}
    .fil9 {fill:#DAD7D5}
    .fil7 {fill:#EFEBE9}
    .fil6 {fill:#212121;fill-rule:nonzero}
    .fil8 {fill:#EFEBE9;fill-rule:nonzero}
   ]]>
  </style>
 </defs>
 <g id="Layer_x0020_1">
  <metadata id="CorelCorpID_0Corel-Layer"/>
  <g id="_458624016">
   <path id="_459596984" class="fil0" d="M522.515 561.078c0,0 43.8461,-22.1681 79.9666,-6.89882l-15.4252 8.19331c0,0 41.2099,-7.07835 56.7615,7.07127l-21.9095 11.2689c0,0 44.4166,-3.95551 57.6331,3.6567l-18.574 11.028c0,0 39.8681,0.0968505 48.3733,9.53977l-24.7134 13.7091c0,0 43.5508,4.67363 49.4138,18.7772l-29.3469 11.4366c0,0 32.2713,3.25394 43.2957,16.6122l-32.1071 4.18465c0,0 37.578,14.7921 38.6233,29.2453l-61.2012 3.68032 -170.79 -141.504z"/>
   <path id="_459595832" class="fil0" d="M1438.1 798.141c166.974,-32.3929 230.763,161.466 230.763,161.466 29.4886,110.901 123.139,157.917 123.139,157.917 -163.927,48.867 -252.052,-153.697 -252.052,-153.697 -44.6197,-116.301 -68.8123,-126.51 -78.0379,-124.466l-23.8122 -41.2205z"/>
   <path id="_459595808" class="fil1" d="M975.91 788.582c51.5044,0 107.844,-15.8539 156.995,-25.3323 20.3138,-3.42756 154.898,-23.3705 167.267,-23.3918 164.479,-0.296457 224.876,138.18 173.79,284.225 15.5764,104.666 71.0504,142.97 51.3709,245.548 -2.99882,61.2426 -4.15985,83.7308 -4.27087,145.904 -0.13937,76.9607 4.70552,66.6024 -16.2095,73.9524 -35.4177,12.4453 -10.3654,32.8689 -16.8567,51.254 -9.00591,25.5047 -50.3233,20.0965 -80.6694,20.3528 -4.78229,-10.474 21.4441,-51.2528 27.9355,-58.0737 18.1819,-19.0973 27.2126,-21.3555 33.6969,-58.6748l-29.7107 -151.221c-10.9453,36.0213 -23.615,76.7292 -33.9236,114.48 -17.4213,63.8032 4.29213,66.1583 -34.7292,78.476l-25.9973 12.7512c-3.59174,34.3725 28.8272,38.328 -44.426,52.0477l-34.4091 -2.7626c-0.333071,-29.1272 56.7308,-75.3001 62.8937,-83.2985 24.9071,-32.3197 29.2559,-66.9036 33.4217,-114.771 3.94252,-45.2894 -8.6693,-88.056 -21.7169,-126.423 -6.7004,-19.7008 -12.8457,-35.1733 -19.0122,-55.2815 -8.44607,-27.5481 -11.5358,-32.6374 -28.5189,-48.9237 -100.763,-96.6331 -71.5902,-54.0449 -195.14,-19.3583 -122.345,34.35 -142.517,27.6981 -267.547,32.6185 -14.778,80.876 -8.79686,39.228 -7.24371,126.752 1.11378,62.7319 -7.86497,88.7552 6.00237,154.184 8.82048,41.6174 11.0492,38.7898 -7.3441,52.8981 -18.7654,14.3953 -0.0472441,33.9992 -16.4847,54.8811l-61.4292 9.07087c16.6323,-40.1693 44.4496,-54.8103 39.2209,-126.969 -5.06339,-69.8528 -8.32914,-48.2658 -25.7126,-111.941l3.80079 121.909c3.70748,18.2221 10.0146,40.2567 -2.61496,55.2745 -53.2548,63.3095 24.1961,84.5977 -94.5568,71.7414 -4.08189,-38.2559 80.8075,-49.6536 44.4662,-178.565 -15.8138,-56.0953 -6.52796,-25.2059 -13.4693,-69.9449 -6.10749,-39.3744 -31.063,-81.7938 -44.5595,-116 -8.70119,-22.0536 -11.785,-39.3555 -17.5996,-62.5453 -8.76024,-34.9418 -14.7059,-33.3862 -30.2173,-53.2737 -40.5721,-52.0182 -22.8378,-90.9851 -21.3142,-126.504 1.59921,-37.2898 -27.5067,-91.1009 -36.9425,-127.56 -5.01142,-19.363 -10.5165,-78.3461 -36.7607,-85.5875 -12.3496,-3.40512 -17.6138,5.12953 -29.2146,9.88465 -25.0465,10.2673 -118.225,16.4079 -129.494,39.6933 -7.38308,15.2599 -1.77756,11.8925 -9.64607,17.439 -4.33347,3.05433 -57.0343,19.7823 -73.5461,-6.2126 -40.5532,-63.8375 60.1382,-116.167 91.7859,-156.928 32.6008,-41.987 -5.88544,-12.3744 59.4473,-74.5253l-12.724 -63.2611c10.3524,5.37756 32.2382,35.9067 58.193,50.4615 32.9032,18.45 89.1473,-1.18819 189.984,80.6575 17.5949,14.2807 66.456,60.365 84.8599,78.8056 24.3626,24.4099 30.2977,28.0961 71.1107,38.8961 91.5367,24.2232 110.498,53.1733 167.77,53.1733z"/>
   <path id="_459596480" class="fil2" d="M1485.61 1513.18c1.08898,8.87953 5.59252,18.4713 2.38229,27.5646 -9.00591,25.5047 -50.3233,20.0965 -80.6694,20.3528 -4.26378,-9.33898 16.1232,-42.7701 25.1941,-54.7406l53.093 6.82323z"/>
   <path id="_459596048" class="fil2" d="M738.197 1506.56c-7.52245,33.6177 16.3878,43.7516 -74.4154,33.9213 -1.77047,-16.598 13.2059,-28.1445 27.763,-46.4221l46.6524 12.5008z"/>
   <path id="_459596096" class="fil3" d="M265.482 781.302c-0.99567,-1.56851 -1.88386,-3.12874 -2.71181,-4.68189 13.9973,-6.62363 37.8071,-21.9992 46.5378,-26.1036 -7.9252,8.44725 -30.2953,23.8335 -43.826,30.7855z"/>
   <path id="_459595760" class="fil4" d="M465.809 538.884c2.52284,1.15984 5.16969,2.14843 7.95709,3.00945 -0.338977,40.9016 -8.63623,156.043 -89.9162,182.218 -1.99134,0.640158 -7.70197,2.40236 -9.78308,2.93504l1.70433 -8.92324c83.726,-21.4158 90.104,-141.841 90.0379,-179.24z"/>
   <path id="_459595064" class="fil4" d="M369.717 755.658c-2.84764,1.07953 -5.48859,2.21221 -7.88859,3.40394 -1.00039,-47.3185 -28.4256,-80.83 -44.3327,-96.3509l5.99056 -5.25827c16.5449,16.3075 44.0516,50.3705 46.2307,98.2052z"/>
   <path id="_459595424" class="fil0" d="M416.717 549.85l-12.724 -63.2611c10.3524,5.37756 32.2382,35.9067 58.193,50.4615 0.226772,0.127559 0.458268,0.245669 0.688583,0.369685l0.0011811 0.00944883c-1.45276,49.8674 -40.8532,69.3969 -46.1587,12.4205z"/>
   <path id="_459595616" class="fil0" d="M1439.25 1293.13c-10.9453,36.0213 -23.615,76.7292 -33.9236,114.48 -17.4213,63.8032 4.29213,66.1583 -34.7292,78.476l-25.9973 12.7512c-3.59174,34.3725 28.8272,38.328 -44.426,52.0477l-34.4091 -2.7626c-0.333071,-29.1272 56.7308,-75.3001 62.8937,-83.2985 24.9071,-32.3197 29.2559,-66.9036 33.4217,-114.771 3.94252,-45.2894 -8.6693,-88.056 -21.7169,-126.423 -6.7004,-19.7008 -12.8457,-35.1733 -19.0122,-55.2815 -5.87126,-19.1504 -9.15591,-27.4488 -16.3169,-36.1985 89.7662,39.3567 134.216,160.981 134.216,160.981z"/>
   <path id="_459595712" class="fil5" d="M1344.31 1504.14c-0.10748,29.517 25.1528,33.7642 -44.1426,46.7422l-34.4091 -2.7626c-0.168898,-14.7721 14.4248,-33.926 29.6551,-50.263l48.8965 6.28347z"/>
   <path id="_459595328" class="fil0" d="M832.781 1132.58l-2.6374 0.101575c0.853938,-0.0838583 1.73622,-0.111024 2.6374,-0.101575zm-2.6374 0.101575c-14.778,80.876 -8.79686,39.228 -7.24371,126.752 1.11378,62.7319 -7.86497,88.7552 6.00237,154.184 8.82048,41.6174 11.0492,38.7898 -7.3441,52.8981 -18.7654,14.3953 -0.0472441,33.9992 -16.4847,54.8811l-61.4292 9.07087c16.6323,-40.1693 44.4496,-54.8103 39.2209,-126.969 -5.06339,-69.8528 -8.32914,-48.2658 -25.7126,-111.941 0,0 22.9831,-153.967 72.991,-158.876z"/>
   <path id="_459594320" class="fil5" d="M771.344 1479.2l41.0977 5.28189c-0.598819,11.1449 2.97047,23.7756 -7.3689,36.9107l-61.4292 9.07087c8.28072,-19.9996 19.3335,-33.6709 27.7004,-51.2634z"/>
   <path id="_459594752" class="fil3" d="M271.751 749.887c0,0 8.60316,-4.45158 12.1878,-14.6693 0,0 6.77363,-10.0122 1.31575,-16.9583 -9.19843,-7.78229 -24.2138,22.6417 -13.5036,31.6276z"/>
   <path id="_459594536" class="fil6" d="M365.703 704.893c0.0011811,0.00354331 4.6441,-1.30866 5.87363,-1.82835 4.70552,-1.98662 22.9394,-15.7961 89.4898,-102.48l2.90551 9.25749c-92.5607,120.562 -97.0973,98.5359 -97.1198,98.4804l-1.14921 -3.42992z"/>
   <rect id="_459594440" class="fil7" transform="matrix(0.366633 0.0958665 -0.0958665 0.366633 458.034 597.612)" width="37.2248" height="26.3882" rx="1.65827" ry="1.65827"/>
   <path id="_459594560" class="fil8" d="M360.894 701.323c6.12993,2.08347 10.8366,6.45591 13.4894,11.8382 2.65276,5.38347 3.25158,11.7791 1.16929,17.9091 -2.08347,6.13111 -6.45473,10.8366 -11.8382,13.4894 -5.38347,2.65276 -11.7791,3.25276 -17.9091,1.16929 -6.13111,-2.08229 -10.8366,-6.45473 -13.4894,-11.8382 -2.65276,-5.38347 -3.25276,-11.778 -1.16929,-17.9091 2.08347,-6.12993 6.45473,-10.8366 11.8382,-13.4894 5.38347,-2.65276 11.778,-3.25158 17.9091,-1.16929zm9.68741 13.7126c-2.17323,-4.41024 -6.02835,-7.99016 -11.0516,-9.69804 -5.02205,-1.70669 -10.2626,-1.21536 -14.6717,0.956694 -4.40906,2.17323 -7.99016,6.02835 -9.69686,11.0516 -1.70669,5.02323 -1.21536,10.2626 0.956694,14.6717 2.17205,4.40906 6.02835,7.99016 11.0516,9.69686 5.02323,1.70669 10.2626,1.21654 14.6717,-0.956694 4.40788,-2.17205 7.99016,-6.02835 9.69686,-11.0516 1.70669,-5.02205 1.21654,-10.2614 -0.956694,-14.6705z"/>
   <polygon id="_459594944" class="fil7" points="412.616,699.473 411.15,697.554 404.497,703.62 411.036,712.655 418.3,706.612 417.078,705.119 412.161,709.662 407.637,703.727 "/>
   <polygon id="_458634384" class="fil9" points="411.903,704.033 408.346,707.417 408.957,708.227 412.856,704.967 "/>
   <path id="_458652912" class="fil10" d="M394.086 608.527c-7.60631,1.90984 -12.6945,7.75276 -11.3646,13.0476 1.3311,5.29607 8.57481,8.03977 16.1811,6.12874 7.60631,-1.90984 12.6945,-7.75276 11.3646,-13.0476 -1.32992,-5.29607 -8.57481,-8.03977 -16.1811,-6.12874z"/>
   <path id="_458638032" class="fil11" d="M394.623 610.666c-4.11378,1.03347 -6.61064,5.2063 -5.57835,9.32009 1.03347,4.11378 5.2063,6.61182 9.32009,5.57835 4.11378,-1.03347 6.61182,-5.2063 5.57835,-9.32009 -1.03347,-4.11378 -5.2063,-6.61182 -9.32009,-5.57835z"/>
   <path id="_458630472" class="fil12" d="M375.907 624.68c12.1973,-20.3717 34.0548,-21.7028 49.9323,-4.76693 -17.961,-26.3717 -37.767,-24.6272 -49.9323,4.76693z"/>
  </g>
 </g>
 <rect class="fil13" width="2048" height="2048"/>
</svg>
