<?xml version="1.0" encoding="UTF-8"?>
<!DOCTYPE svg PUBLIC "-//W3C//DTD SVG 1.1//EN" "http://www.w3.org/Graphics/SVG/1.1/DTD/svg11.dtd">
<!-- Creator: CorelDRAW -->
<svg xmlns="http://www.w3.org/2000/svg" xml:space="preserve" width="2048px" height="2048px" style="shape-rendering:geometricPrecision; text-rendering:geometricPrecision; image-rendering:optimizeQuality; fill-rule:evenodd; clip-rule:evenodd"
viewBox="0 0 2048 2048"
 xmlns:xlink="http://www.w3.org/1999/xlink">
 <defs>
  <style type="text/css">
   <![CDATA[
    .fil5 {fill:none}
    .fil0 {fill:#E53935}
    .fil1 {fill:#EF5350}
    .fil2 {fill:#1E88E5;fill-rule:nonzero}
    .fil4 {fill:#8BC34A;fill-rule:nonzero}
    .fil3 {fill:#EF5350;fill-rule:nonzero}
   ]]>
  </style>
 </defs>
 <g id="Layer_x0020_1">
  <metadata id="CorelCorpID_0Corel-Layer"/>
  <g id="_459597728">
   <rect id="_459598952" class="fil0" x="908.515" y="776.298" width="230.968" height="223.067"/>
   <path id="_459599336" class="fil1" d="M630.303 648.101l55.6453 0 0 203.825 -55.6453 0c-9.56576,0 -17.3917,-7.82599 -17.3917,-17.3917l0 -169.042c0,-9.56576 7.82599,-17.3917 17.3917,-17.3917z"/>
   <polygon id="_459599552" class="fil0" points="863.444,717.671 685.948,648.101 685.948,851.926 863.444,782.356 "/>
   <path id="_459599168" class="fil2" d="M601.315 673.887c5.3067,2.04095 2.95276,10.0736 -2.74725,8.7567l-0.475985 -0.148819 -8.6067 -3.22087c-5.3067,-2.04095 -2.95276,-10.0724 2.74607,-8.7567l0.475985 0.15 8.60788 3.21969zm-342.338 -118.246c-5.3067,-2.04095 -2.95276,-10.0736 2.74725,-8.7567l0.474804 0.148819 3.36851 1.2626c5.3067,2.04095 2.95276,10.0724 -2.74725,8.7567l-0.474804 -0.15 -3.36851 -1.26142zm20.5878 7.70434c-5.30788,-2.04095 -2.95394,-10.0736 2.74607,-8.75788l0.475985 0.15 8.60906 3.22087c5.30788,2.04095 2.95394,10.0724 -2.74607,8.7567l-0.475985 -0.15 -8.60906 -3.21969zm25.8284 9.66261c-5.3067,-2.04095 -2.95276,-10.0736 2.74725,-8.7567l0.474804 0.148819 8.61024 3.22087c5.3067,2.04095 2.95276,10.0724 -2.74725,8.7567l-0.474804 -0.15 -8.61024 -3.21969zm25.8295 9.66024c-5.30788,-2.04095 -2.95394,-10.0724 2.74607,-8.7567l0.475985 0.15 8.60906 3.21969c5.3067,2.04095 2.95394,10.0736 -2.74607,8.75788l-0.475985 -0.15 -8.60906 -3.22087zm25.8284 9.66142c-5.3067,-2.04213 -2.95276,-10.0736 2.74725,-8.75788l0.474804 0.15 8.61024 3.21969c5.3067,2.04213 2.95276,10.0736 -2.74725,8.75788l-0.475985 -0.15 -8.60906 -3.21969zm25.8284 9.66024c-5.3067,-2.04095 -2.95276,-10.0736 2.74725,-8.75788l0.475985 0.15 8.60906 3.22087c5.3067,2.04095 2.95276,10.0724 -2.74725,8.7567l-0.474804 -0.15 -8.61024 -3.21969zm25.8295 9.66024c-5.3067,-2.04095 -2.95276,-10.0724 2.74607,-8.7567l0.475985 0.15 8.61024 3.21969c5.3067,2.04095 2.95276,10.0736 -2.74725,8.7567l-0.475985 -0.148819 -8.60906 -3.22087zm25.8284 9.66024c-5.3067,-2.04095 -2.95276,-10.0724 2.74725,-8.7567l0.475985 0.15 8.6067 3.21969c5.3067,2.04095 2.95276,10.0736 -2.74607,8.75788l-0.475985 -0.15 -8.60788 -3.22087zm25.8248 9.66142c-5.3067,-2.04095 -2.95276,-10.0736 2.74725,-8.75788l0.474804 0.15 8.60788 3.22087c5.3067,2.04095 2.95276,10.0724 -2.74725,8.7567l-0.474804 -0.15 -8.60788 -3.21969zm25.8248 9.66024c-5.3067,-2.04095 -2.95394,-10.0736 2.74607,-8.7567l0.475985 0.148819 8.60788 3.22087c5.3067,2.04095 2.95276,10.0724 -2.74725,8.7567l-0.475985 -0.15 -8.6067 -3.21969zm25.8248 9.66024c-5.30788,-2.04095 -2.95394,-10.0724 2.74607,-8.7567l0.475985 0.15 8.6067 3.21969c5.30788,2.04095 2.95394,10.0736 -2.74607,8.75788l-0.475985 -0.15 -8.6067 -3.22087zm25.8236 9.66142c-5.3067,-2.04213 -2.95276,-10.0736 2.74725,-8.75788l0.475985 0.15 8.6067 3.21969c5.3067,2.04213 2.95394,10.0736 -2.74607,8.75788l-0.475985 -0.15 -8.60788 -3.21969zm25.8248 9.66024c-5.3067,-2.04095 -2.95276,-10.0736 2.74725,-8.75788l0.474804 0.15 8.60788 3.22087c5.3067,2.04095 2.95276,10.0724 -2.74725,8.7567l-0.474804 -0.15 -8.60788 -3.21969z"/>
   <path id="_459598784" class="fil2" d="M600.7 714.069c5.9941,1.38307 3.81969,10.3134 -1.99252,8.97166l-8.97284 -1.9937c-5.99292,-1.38307 -3.81969,-10.3134 1.9937,-8.97166l8.97166 1.9937zm-333.979 -64.8012c-5.99292,-1.38425 -3.81969,-10.3146 1.9937,-8.97284l8.97402 1.99606c5.99292,1.38307 3.81969,10.3134 -1.9937,8.97166l-8.97402 -1.99488zm26.9232 5.98583c-5.99292,-1.38307 -3.81969,-10.3134 1.9937,-8.97166l8.97166 1.99488c5.9941,1.38307 3.81969,10.3146 -1.99252,8.97284l-8.97284 -1.99606zm26.9197 5.98465c-5.9941,-1.38307 -3.81969,-10.3146 1.99252,-8.97284l8.97284 1.9937c5.99292,1.38307 3.81969,10.3146 -1.9937,8.97284l-8.97166 -1.9937zm26.9185 5.98229c-5.99292,-1.38307 -3.81969,-10.3146 1.9937,-8.97284l8.97166 1.9937c5.99292,1.38307 3.81969,10.3146 -1.9937,8.97284l-8.97166 -1.9937zm26.9185 5.98229c-5.99292,-1.38307 -3.81969,-10.3146 1.9937,-8.97284l8.97166 1.9937c5.9941,1.38307 3.81969,10.3146 -1.99252,8.97284l-8.97284 -1.9937zm26.9173 5.98229c-5.99292,-1.38307 -3.81969,-10.3146 1.99252,-8.97284l8.97284 1.9937c5.99292,1.38307 3.81969,10.3146 -1.9937,8.97284l-8.97166 -1.9937zm26.9162 5.98229c-5.99292,-1.38307 -3.81969,-10.3146 1.9937,-8.97284l8.97166 1.9937c5.9941,1.38307 3.81969,10.3146 -1.99252,8.97166l-8.97284 -1.99252zm26.9173 5.97993c-5.99292,-1.38307 -3.81969,-10.3146 1.99252,-8.97284l8.97284 1.9937c5.99292,1.38307 3.81969,10.3146 -1.9937,8.97284l-8.97166 -1.9937zm26.9162 5.97993c-5.99292,-1.38307 -3.81969,-10.3146 1.9937,-8.97284l8.97166 1.9937c5.9941,1.38307 3.81969,10.3146 -1.99252,8.97284l-8.97284 -1.9937zm26.9173 5.97993c-5.99292,-1.38307 -3.81969,-10.3146 1.99252,-8.97166l8.97284 1.99252c5.99292,1.38307 3.81969,10.3146 -1.9937,8.97284l-8.97166 -1.9937zm26.9162 5.97993c-5.99292,-1.38307 -3.81969,-10.3134 1.9937,-8.97166l8.97166 1.99252c5.9941,1.38307 3.81969,10.3146 -1.99252,8.97284l-8.97284 -1.9937zm26.9173 5.97993c-5.99292,-1.38307 -3.81969,-10.3134 1.99252,-8.97166l8.97284 1.9937c5.99292,1.38307 3.81969,10.3134 -1.9937,8.97166l-8.97166 -1.9937z"/>
   <path id="_459598664" class="fil2" d="M600.381 742.41c5.93032,0.846851 4.69016,9.95434 -1.35473,9.08977l-9.08977 -1.35473c-5.93032,-0.846851 -4.69016,-9.95434 1.35473,-9.08977l9.08977 1.35473zm-337.719 -41.0847c-5.93032,-0.846851 -4.69016,-9.95434 1.35473,-9.08977l9.09213 1.35709c5.93032,0.846851 4.69016,9.95316 -1.35473,9.08977l-9.09213 -1.35709zm27.2752 4.07126c-5.93032,-0.846851 -4.69016,-9.95434 1.35473,-9.08977l9.09213 1.35709c5.93032,0.846851 4.69016,9.95434 -1.35473,9.08977l-9.09213 -1.35709zm27.2752 4.07126c-5.93032,-0.846851 -4.69016,-9.95434 1.35473,-9.08977l9.09213 1.35709c5.92914,0.846851 4.69016,9.95434 -1.35591,9.08977l-9.09095 -1.35709zm27.2752 4.07126c-5.93032,-0.846851 -4.69016,-9.95316 1.35473,-9.08977l9.09095 1.35709c5.93032,0.846851 4.69134,9.95434 -1.35473,9.08977l-9.09095 -1.35709zm27.274 4.0689c-5.92914,-0.846851 -4.69016,-9.95316 1.35591,-9.08859l9.09095 1.35473c5.93032,0.846851 4.69016,9.95316 -1.35473,9.08859l-9.09213 -1.35473zm27.2752 4.06772c-5.92914,-0.846851 -4.69016,-9.95434 1.35591,-9.08977l9.09095 1.35473c5.93032,0.846851 4.69016,9.95434 -1.35473,9.08977l-9.09213 -1.35473zm27.2752 4.06654c-5.93032,-0.846851 -4.69016,-9.95316 1.35473,-9.08977l9.08977 1.35591c5.93032,0.846851 4.69016,9.95316 -1.35473,9.08859l-9.08977 -1.35473zm27.2705 4.06772c-5.92914,-0.846851 -4.69016,-9.95434 1.35591,-9.08977l9.08859 1.35473c5.93032,0.846851 4.69016,9.95316 -1.35473,9.08977l-9.08977 -1.35473zm27.2717 4.06654c-5.93032,-0.846851 -4.69134,-9.95316 1.35473,-9.08977l9.08977 1.35473c5.92914,0.846851 4.69016,9.95434 -1.35591,9.08977l-9.08859 -1.35473zm27.2705 4.06654c-5.93032,-0.846851 -4.69016,-9.95316 1.35473,-9.08859l9.08977 1.35473c5.93032,0.846851 4.69016,9.95316 -1.35591,9.08977l-9.08859 -1.35591zm27.2705 4.06772c-5.93032,-0.846851 -4.69016,-9.95434 1.35473,-9.08977l9.08977 1.35473c5.93032,0.846851 4.69016,9.95434 -1.35473,9.08977l-9.08977 -1.35473zm27.2705 4.06654c-5.93032,-0.846851 -4.69016,-9.95316 1.35473,-9.08859l9.08977 1.35473c5.93032,0.846851 4.69016,9.95316 -1.35473,9.08859l-9.08977 -1.35473z"/>
   <path id="_459598760" class="fil2" d="M599.808 772.896c5.31496,0 6.40276,8.24056 0.4063,9.163l-0.615355 0.0259843 -9.18662 -0.205512c-5.31615,0 -6.40394,-8.24056 -0.4063,-9.16418l0.614174 -0.0259843 9.1878 0.206693zm-339.324 1.56732c-5.31496,0 -6.40276,-8.24056 -0.4063,-9.163l0.615355 -0.0259843 8.30316 0.188977c5.31496,0 6.40276,8.24056 0.4063,9.163l-0.615355 0.0259843 -8.30316 -0.188977zm26.6823 0.605906c-5.31496,0 -6.40394,-8.24056 -0.4063,-9.163l0.615355 -0.0259843 9.18898 0.206693c5.31496,0 6.40394,8.24056 0.4063,9.163l-0.615355 0.0259843 -9.18898 -0.206693zm27.5681 0.62126c-5.31496,0 -6.40394,-8.24056 -0.4063,-9.163l0.615355 -0.0259843 9.18898 0.205512c5.31496,0 6.40394,8.24056 0.4063,9.16418l-0.615355 0.0259843 -9.18898 -0.206693zm27.5681 0.618898c-5.31496,0 -6.40276,-8.24056 -0.4063,-9.163l0.615355 -0.0259843 9.18898 0.205512c5.31615,0 6.40394,8.24056 0.4063,9.16418l-0.615355 0.0259843 -9.18898 -0.206693zm27.5681 0.618898c-5.31496,0 -6.40276,-8.24056 -0.4063,-9.163l0.615355 -0.0259843 9.18898 0.205512c5.31615,0 6.40394,8.24056 0.4063,9.16418l-0.614174 0.0259843 -9.19016 -0.206693zm27.5681 0.618898c-5.31496,0 -6.40276,-8.24056 -0.4063,-9.163l0.615355 -0.0259843 9.18898 0.205512c5.31615,0 6.40394,8.24056 0.4063,9.16418l-0.614174 0.0259843 -9.19016 -0.206693zm27.5681 0.618898c-5.31496,0 -6.40276,-8.24056 -0.4063,-9.163l0.615355 -0.0259843 9.18898 0.205512c5.31615,0 6.40394,8.24056 0.4063,9.16418l-0.614174 0.0259843 -9.19016 -0.206693zm27.5681 0.618898c-5.31496,0 -6.40276,-8.24056 -0.405118,-9.163l0.614174 -0.0259843 9.18898 0.205512c5.31615,0 6.40394,8.24056 0.4063,9.16418l-0.614174 0.0259843 -9.19016 -0.206693zm27.5681 0.618898c-5.31496,0 -6.40276,-8.24056 -0.405118,-9.163l0.614174 -0.0259843 9.18898 0.205512c5.31615,0 6.40394,8.24056 0.4063,9.163l-0.614174 0.0271654 -9.19016 -0.206693zm27.5681 0.618898c-5.31496,0 -6.40276,-8.24056 -0.405118,-9.163l0.614174 -0.0259843 9.18898 0.205512c5.31615,0 6.40394,8.24056 0.4063,9.163l-0.614174 0.0271654 -9.19016 -0.206693zm27.5681 0.618898c-5.31496,0 -6.40276,-8.24056 -0.405118,-9.163l0.614174 -0.0271654 9.18898 0.206693c5.31615,0 6.40394,8.24056 0.4063,9.163l-0.614174 0.0259843 -9.19016 -0.205512zm27.5681 0.618898c-5.31496,0 -6.40276,-8.24056 -0.405118,-9.16418l0.614174 -0.0259843 9.18662 0.206693c5.31615,0 6.40394,8.24056 0.4063,9.163l-0.614174 0.0259843 -9.1878 -0.205512z"/>
   <path id="_459598616" class="fil2" d="M599.428 802.679c4.74922,-0.338977 6.91654,6.20197 2.34095,8.69646 -0.668504,0.27874 -1.02756,0.426378 -1.78937,0.480709l-9.17363 0.549213c-4.74922,0.338977 -6.91654,-6.20197 -2.34095,-8.69646 0.668504,-0.27874 1.02638,-0.426378 1.78937,-0.480709l9.17363 -0.549213zm-338.563 29.5051c-4.74922,0.338977 -6.91654,-6.20079 -2.34095,-8.69646 0.668504,-0.277559 1.02756,-0.425197 1.78937,-0.479528l8.81339 -0.530315c4.74922,-0.337796 6.91654,6.20197 2.34095,8.69646 -0.668504,0.27874 -1.02756,0.426378 -1.78937,0.480709l-8.81339 0.529134zm27.1666 -1.63228c-4.74922,0.338977 -6.91654,-6.20197 -2.34095,-8.69646 0.668504,-0.27874 1.02756,-0.426378 1.78937,-0.480709l9.17599 -0.551575c4.74922,-0.337796 6.91654,6.20197 2.34095,8.69646 -0.668504,0.27874 -1.02756,0.426378 -1.78937,0.480709l-9.17599 0.551575zm27.5292 -1.65473c-4.74922,0.338977 -6.91654,-6.20197 -2.34095,-8.69646 0.668504,-0.27874 1.02638,-0.426378 1.78937,-0.480709l9.17599 -0.549213c4.74922,-0.337796 6.91654,6.20197 2.34095,8.69646 -0.668504,0.27874 -1.02756,0.426378 -1.78937,0.480709l-9.17599 0.549213zm27.5268 -1.65c-4.74922,0.337796 -6.91654,-6.20197 -2.34095,-8.69646 0.668504,-0.27874 1.02756,-0.426378 1.78937,-0.480709l9.17363 -0.549213c4.74922,-0.338977 6.91654,6.20197 2.34095,8.69646 -0.668504,0.277559 -1.02638,0.425197 -1.78937,0.479528l-9.17363 0.550394zm27.5244 -1.65118c-4.74922,0.338977 -6.91536,-6.20079 -2.34095,-8.69646 0.668504,-0.277559 1.02756,-0.425197 1.78937,-0.479528l9.17481 -0.549213c4.74804,-0.338977 6.91536,6.20197 2.33977,8.69646 -0.668504,0.277559 -1.02638,0.425197 -1.78819,0.479528l-9.17481 0.549213zm27.5244 -1.65c-4.74804,0.338977 -6.91536,-6.20197 -2.33977,-8.69646 0.668504,-0.277559 1.02638,-0.425197 1.78819,-0.479528l9.17481 -0.549213c4.74922,-0.338977 6.91536,6.20079 2.34095,8.69646 -0.669686,0.277559 -1.02756,0.425197 -1.78937,0.479528l-9.17481 0.549213zm27.5256 -1.65c-4.74922,0.338977 -6.91654,-6.20197 -2.34095,-8.69646 0.668504,-0.277559 1.02638,-0.425197 1.78937,-0.479528l9.17363 -0.550394c4.74922,-0.337796 6.91654,6.20197 2.34095,8.69646 -0.668504,0.27874 -1.02756,0.426378 -1.78937,0.480709l-9.17363 0.549213zm27.5244 -1.65c-4.74922,0.337796 -6.91654,-6.20197 -2.34095,-8.69646 0.668504,-0.27874 1.02756,-0.426378 1.78937,-0.480709l9.17363 -0.549213c4.74922,-0.338977 6.91654,6.20197 2.34095,8.69646 -0.668504,0.27874 -1.02638,0.426378 -1.78937,0.480709l-9.17363 0.549213zm27.5244 -1.64882c-4.74922,0.338977 -6.91536,-6.20079 -2.34095,-8.69646 0.669686,-0.277559 1.02756,-0.425197 1.78937,-0.479528l9.17481 -0.549213c4.74804,-0.338977 6.91536,6.20079 2.34095,8.69646 -0.669686,0.277559 -1.02756,0.425197 -1.78937,0.479528l-9.17481 0.549213zm27.5244 -1.64764c-4.74804,0.338977 -6.91536,-6.20197 -2.33977,-8.69646 0.668504,-0.277559 1.02638,-0.425197 1.78937,-0.479528l9.17363 -0.550394c4.74922,-0.337796 6.91536,6.20197 2.34095,8.69646 -0.668504,0.27874 -1.02756,0.426378 -1.78937,0.480709l-9.17481 0.549213zm27.5256 -1.64764c-4.74922,0.337796 -6.91654,-6.20197 -2.34095,-8.69764 0.668504,-0.277559 1.02638,-0.425197 1.78937,-0.479528l9.17363 -0.549213c4.74922,-0.338977 6.91654,6.20197 2.34095,8.69646 -0.668504,0.277559 -1.02638,0.425197 -1.78937,0.479528l-9.17363 0.550394zm27.5221 -1.64882c-4.74922,0.338977 -6.91536,-6.20197 -2.34095,-8.69646 0.669686,-0.277559 1.02756,-0.425197 1.78937,-0.479528l9.17481 -0.549213c4.74804,-0.338977 6.91536,6.20079 2.34095,8.69646 -0.669686,0.277559 -1.02756,0.425197 -1.78937,0.479528l-9.17481 0.549213z"/>
   <path id="_459598352" class="fil2" d="M599.089 835.136c5.91142,-0.844489 7.31575,8.24174 1.22953,9.11103l-9.10867 1.22717c-5.91142,0.844489 -7.31575,-8.24292 -1.22953,-9.11221l9.10867 -1.22599zm-335.805 54.5741c-5.91024,0.844489 -7.31575,-8.24292 -1.22953,-9.11221l9.10985 -1.22835c5.91024,-0.844489 7.31457,8.24292 1.22835,9.11103l-9.10867 1.22953zm27.3272 -3.6874c-5.91024,0.844489 -7.31575,-8.24292 -1.22953,-9.11103l9.10985 -1.22953c5.91024,-0.844489 7.31457,8.24292 1.22835,9.11103l-9.10867 1.22953zm27.3272 -3.6874c-5.91024,0.844489 -7.31575,-8.24292 -1.22953,-9.11103l9.10985 -1.22953c5.91024,-0.844489 7.31457,8.24292 1.22835,9.11221l-9.10867 1.22835zm27.3272 -3.6874c-5.91024,0.84567 -7.31575,-8.24174 -1.22953,-9.11103l9.10985 -1.22835c5.91024,-0.844489 7.31457,8.24292 1.22835,9.11103l-9.10867 1.22835zm27.3272 -3.68622c-5.91142,0.844489 -7.31575,-8.24292 -1.22953,-9.11103l9.10985 -1.22953c5.91024,-0.844489 7.31457,8.24292 1.22835,9.11103l-9.10867 1.22953zm27.3272 -3.6874c-5.91142,0.844489 -7.31575,-8.24292 -1.22953,-9.11103l9.10985 -1.22953c5.91024,-0.844489 7.31457,8.24292 1.22835,9.11221l-9.10867 1.22835zm27.3272 -3.6874c-5.91142,0.84567 -7.31575,-8.24174 -1.22953,-9.11103l9.10867 -1.22835c5.91142,-0.844489 7.31575,8.24174 1.22953,9.11103l-9.10867 1.22835zm27.3272 -3.68622c-5.91142,0.844489 -7.31575,-8.24292 -1.22953,-9.11103l9.10867 -1.22953c5.91142,-0.844489 7.31575,8.24292 1.22953,9.11103l-9.10867 1.22953zm27.3272 -3.6874c-5.91142,0.844489 -7.31575,-8.24292 -1.22953,-9.11103l9.10867 -1.22953c5.91142,-0.844489 7.31575,8.24292 1.22953,9.11103l-9.10867 1.22953zm27.3272 -3.6874c-5.91142,0.844489 -7.31575,-8.24174 -1.22953,-9.11103l9.10867 -1.22835c5.91142,-0.84567 7.31575,8.24174 1.22953,9.11103l-9.10867 1.22835zm27.3272 -3.68622c-5.91142,0.844489 -7.31575,-8.24292 -1.22953,-9.11221l9.10867 -1.22599c5.91142,-0.844489 7.31575,8.24174 1.22953,9.11103l-9.10867 1.22717zm27.3272 -3.68268c-5.91142,0.844489 -7.31575,-8.24292 -1.22953,-9.11221l9.10867 -1.22599c5.91142,-0.844489 7.31575,8.24174 1.22953,9.11103l-9.10867 1.22717z"/>
   <path id="_459598688" class="fil1" d="M1417.7 648.101l-55.6453 0 0 203.825 55.6453 0c9.56576,0 17.3917,-7.82599 17.3917,-17.3917l0 -169.042c0,-9.56576 -7.82599,-17.3917 -17.3917,-17.3917z"/>
   <polygon id="_459598544" class="fil0" points="1184.56,717.671 1362.05,648.101 1362.05,851.926 1184.56,782.356 "/>
   <path id="_459598376" class="fil2" d="M1446.68 673.887c-5.3067,2.04095 -2.95276,10.0736 2.74725,8.7567l0.475985 -0.148819 8.6067 -3.22087c5.3067,-2.04095 2.95276,-10.0724 -2.74607,-8.7567l-0.475985 0.15 -8.60788 3.21969zm342.338 -118.246c5.3067,-2.04095 2.95276,-10.0736 -2.74725,-8.7567l-0.474804 0.148819 -3.36851 1.2626c-5.3067,2.04095 -2.95276,10.0724 2.74725,8.7567l0.474804 -0.15 3.36851 -1.26142zm-20.5878 7.70434c5.30788,-2.04095 2.95394,-10.0736 -2.74607,-8.75788l-0.475985 0.15 -8.60906 3.22087c-5.30788,2.04095 -2.95394,10.0724 2.74607,8.7567l0.475985 -0.15 8.60906 -3.21969zm-25.8284 9.66261c5.3067,-2.04095 2.95276,-10.0736 -2.74725,-8.7567l-0.474804 0.148819 -8.61024 3.22087c-5.3067,2.04095 -2.95276,10.0724 2.74725,8.7567l0.474804 -0.15 8.61024 -3.21969zm-25.8295 9.66024c5.30788,-2.04095 2.95394,-10.0724 -2.74607,-8.7567l-0.475985 0.15 -8.60906 3.21969c-5.3067,2.04095 -2.95394,10.0736 2.74607,8.75788l0.475985 -0.15 8.60906 -3.22087zm-25.8284 9.66142c5.3067,-2.04213 2.95276,-10.0736 -2.74725,-8.75788l-0.474804 0.15 -8.61024 3.21969c-5.3067,2.04213 -2.95276,10.0736 2.74725,8.75788l0.475985 -0.15 8.60906 -3.21969zm-25.8284 9.66024c5.3067,-2.04095 2.95276,-10.0736 -2.74725,-8.75788l-0.475985 0.15 -8.60906 3.22087c-5.3067,2.04095 -2.95276,10.0724 2.74725,8.7567l0.474804 -0.15 8.61024 -3.21969zm-25.8295 9.66024c5.3067,-2.04095 2.95276,-10.0724 -2.74607,-8.7567l-0.475985 0.15 -8.61024 3.21969c-5.3067,2.04095 -2.95276,10.0736 2.74725,8.7567l0.475985 -0.148819 8.60906 -3.22087zm-25.8284 9.66024c5.3067,-2.04095 2.95276,-10.0724 -2.74725,-8.7567l-0.475985 0.15 -8.6067 3.21969c-5.3067,2.04095 -2.95276,10.0736 2.74607,8.75788l0.475985 -0.15 8.60788 -3.22087zm-25.8248 9.66142c5.3067,-2.04095 2.95276,-10.0736 -2.74725,-8.75788l-0.474804 0.15 -8.60788 3.22087c-5.3067,2.04095 -2.95276,10.0724 2.74725,8.7567l0.474804 -0.15 8.60788 -3.21969zm-25.8248 9.66024c5.3067,-2.04095 2.95394,-10.0736 -2.74607,-8.7567l-0.475985 0.148819 -8.60788 3.22087c-5.3067,2.04095 -2.95276,10.0724 2.74725,8.7567l0.475985 -0.15 8.6067 -3.21969zm-25.8248 9.66024c5.30788,-2.04095 2.95394,-10.0724 -2.74607,-8.7567l-0.475985 0.15 -8.6067 3.21969c-5.30788,2.04095 -2.95394,10.0736 2.74607,8.75788l0.475985 -0.15 8.6067 -3.22087zm-25.8236 9.66142c5.3067,-2.04213 2.95276,-10.0736 -2.74725,-8.75788l-0.475985 0.15 -8.6067 3.21969c-5.3067,2.04213 -2.95394,10.0736 2.74607,8.75788l0.475985 -0.15 8.60788 -3.21969zm-25.8248 9.66024c5.3067,-2.04095 2.95276,-10.0736 -2.74725,-8.75788l-0.474804 0.15 -8.60788 3.22087c-5.3067,2.04095 -2.95276,10.0724 2.74725,8.7567l0.474804 -0.15 8.60788 -3.21969z"/>
   <path id="_459597704" class="fil2" d="M1447.3 714.069c-5.9941,1.38307 -3.81969,10.3134 1.99252,8.97166l8.97284 -1.9937c5.99292,-1.38307 3.81969,-10.3134 -1.9937,-8.97166l-8.97166 1.9937zm333.979 -64.8012c5.99292,-1.38425 3.81969,-10.3146 -1.9937,-8.97284l-8.97402 1.99606c-5.99292,1.38307 -3.81969,10.3134 1.9937,8.97166l8.97402 -1.99488zm-26.9232 5.98583c5.99292,-1.38307 3.81969,-10.3134 -1.9937,-8.97166l-8.97166 1.99488c-5.9941,1.38307 -3.81969,10.3146 1.99252,8.97284l8.97284 -1.99606zm-26.9197 5.98465c5.9941,-1.38307 3.81969,-10.3146 -1.99252,-8.97284l-8.97284 1.9937c-5.99292,1.38307 -3.81969,10.3146 1.9937,8.97284l8.97166 -1.9937zm-26.9185 5.98229c5.99292,-1.38307 3.81969,-10.3146 -1.9937,-8.97284l-8.97166 1.9937c-5.99292,1.38307 -3.81969,10.3146 1.9937,8.97284l8.97166 -1.9937zm-26.9185 5.98229c5.99292,-1.38307 3.81969,-10.3146 -1.9937,-8.97284l-8.97166 1.9937c-5.9941,1.38307 -3.81969,10.3146 1.99252,8.97284l8.97284 -1.9937zm-26.9173 5.98229c5.99292,-1.38307 3.81969,-10.3146 -1.99252,-8.97284l-8.97284 1.9937c-5.99292,1.38307 -3.81969,10.3146 1.9937,8.97284l8.97166 -1.9937zm-26.9162 5.98229c5.99292,-1.38307 3.81969,-10.3146 -1.9937,-8.97284l-8.97166 1.9937c-5.9941,1.38307 -3.81969,10.3146 1.99252,8.97166l8.97284 -1.99252zm-26.9173 5.97993c5.99292,-1.38307 3.81969,-10.3146 -1.99252,-8.97284l-8.97284 1.9937c-5.99292,1.38307 -3.81969,10.3146 1.9937,8.97284l8.97166 -1.9937zm-26.9162 5.97993c5.99292,-1.38307 3.81969,-10.3146 -1.9937,-8.97284l-8.97166 1.9937c-5.9941,1.38307 -3.81969,10.3146 1.99252,8.97284l8.97284 -1.9937zm-26.9173 5.97993c5.99292,-1.38307 3.81969,-10.3146 -1.99252,-8.97166l-8.97284 1.99252c-5.99292,1.38307 -3.81969,10.3146 1.9937,8.97284l8.97166 -1.9937zm-26.9162 5.97993c5.99292,-1.38307 3.81969,-10.3134 -1.9937,-8.97166l-8.97166 1.99252c-5.9941,1.38307 -3.81969,10.3146 1.99252,8.97284l8.97284 -1.9937zm-26.9173 5.97993c5.99292,-1.38307 3.81969,-10.3134 -1.99252,-8.97166l-8.97284 1.9937c-5.99292,1.38307 -3.81969,10.3134 1.9937,8.97166l8.97166 -1.9937z"/>
   <path id="_459597512" class="fil2" d="M1447.62 742.41c-5.93032,0.846851 -4.69016,9.95434 1.35473,9.08977l9.08977 -1.35473c5.93032,-0.846851 4.69016,-9.95434 -1.35473,-9.08977l-9.08977 1.35473zm337.719 -41.0847c5.93032,-0.846851 4.69016,-9.95434 -1.35473,-9.08977l-9.09213 1.35709c-5.93032,0.846851 -4.69016,9.95316 1.35473,9.08977l9.09213 -1.35709zm-27.2752 4.07126c5.93032,-0.846851 4.69016,-9.95434 -1.35473,-9.08977l-9.09213 1.35709c-5.93032,0.846851 -4.69016,9.95434 1.35473,9.08977l9.09213 -1.35709zm-27.2752 4.07126c5.93032,-0.846851 4.69016,-9.95434 -1.35473,-9.08977l-9.09213 1.35709c-5.92914,0.846851 -4.69016,9.95434 1.35591,9.08977l9.09095 -1.35709zm-27.2752 4.07126c5.93032,-0.846851 4.69016,-9.95316 -1.35473,-9.08977l-9.09095 1.35709c-5.93032,0.846851 -4.69134,9.95434 1.35473,9.08977l9.09095 -1.35709zm-27.274 4.0689c5.92914,-0.846851 4.69016,-9.95316 -1.35591,-9.08859l-9.09095 1.35473c-5.93032,0.846851 -4.69016,9.95316 1.35473,9.08859l9.09213 -1.35473zm-27.2752 4.06772c5.92914,-0.846851 4.69016,-9.95434 -1.35591,-9.08977l-9.09095 1.35473c-5.93032,0.846851 -4.69016,9.95434 1.35473,9.08977l9.09213 -1.35473zm-27.2752 4.06654c5.93032,-0.846851 4.69016,-9.95316 -1.35473,-9.08977l-9.08977 1.35591c-5.93032,0.846851 -4.69016,9.95316 1.35473,9.08859l9.08977 -1.35473zm-27.2705 4.06772c5.92914,-0.846851 4.69016,-9.95434 -1.35591,-9.08977l-9.08859 1.35473c-5.93032,0.846851 -4.69016,9.95316 1.35473,9.08977l9.08977 -1.35473zm-27.2717 4.06654c5.93032,-0.846851 4.69134,-9.95316 -1.35473,-9.08977l-9.08977 1.35473c-5.92914,0.846851 -4.69016,9.95434 1.35591,9.08977l9.08859 -1.35473zm-27.2705 4.06654c5.93032,-0.846851 4.69016,-9.95316 -1.35473,-9.08859l-9.08977 1.35473c-5.93032,0.846851 -4.69016,9.95316 1.35591,9.08977l9.08859 -1.35591zm-27.2705 4.06772c5.93032,-0.846851 4.69016,-9.95434 -1.35473,-9.08977l-9.08977 1.35473c-5.93032,0.846851 -4.69016,9.95434 1.35473,9.08977l9.08977 -1.35473zm-27.2705 4.06654c5.93032,-0.846851 4.69016,-9.95316 -1.35473,-9.08859l-9.08977 1.35473c-5.93032,0.846851 -4.69016,9.95316 1.35473,9.08859l9.08977 -1.35473z"/>
   <path id="_459597488" class="fil2" d="M1448.19 772.896c-5.31496,0 -6.40276,8.24056 -0.4063,9.163l0.615355 0.0259843 9.18662 -0.205512c5.31615,0 6.40394,-8.24056 0.4063,-9.16418l-0.614174 -0.0259843 -9.1878 0.206693zm339.324 1.56732c5.31496,0 6.40276,-8.24056 0.4063,-9.163l-0.615355 -0.0259843 -8.30316 0.188977c-5.31496,0 -6.40276,8.24056 -0.4063,9.163l0.615355 0.0259843 8.30316 -0.188977zm-26.6823 0.605906c5.31496,0 6.40394,-8.24056 0.4063,-9.163l-0.615355 -0.0259843 -9.18898 0.206693c-5.31496,0 -6.40394,8.24056 -0.4063,9.163l0.615355 0.0259843 9.18898 -0.206693zm-27.5681 0.62126c5.31496,0 6.40394,-8.24056 0.4063,-9.163l-0.615355 -0.0259843 -9.18898 0.205512c-5.31496,0 -6.40394,8.24056 -0.4063,9.16418l0.615355 0.0259843 9.18898 -0.206693zm-27.5681 0.618898c5.31496,0 6.40276,-8.24056 0.4063,-9.163l-0.615355 -0.0259843 -9.18898 0.205512c-5.31615,0 -6.40394,8.24056 -0.4063,9.16418l0.615355 0.0259843 9.18898 -0.206693zm-27.5681 0.618898c5.31496,0 6.40276,-8.24056 0.4063,-9.163l-0.615355 -0.0259843 -9.18898 0.205512c-5.31615,0 -6.40394,8.24056 -0.4063,9.16418l0.614174 0.0259843 9.19016 -0.206693zm-27.5681 0.618898c5.31496,0 6.40276,-8.24056 0.4063,-9.163l-0.615355 -0.0259843 -9.18898 0.205512c-5.31615,0 -6.40394,8.24056 -0.4063,9.16418l0.614174 0.0259843 9.19016 -0.206693zm-27.5681 0.618898c5.31496,0 6.40276,-8.24056 0.4063,-9.163l-0.615355 -0.0259843 -9.18898 0.205512c-5.31615,0 -6.40394,8.24056 -0.4063,9.16418l0.614174 0.0259843 9.19016 -0.206693zm-27.5681 0.618898c5.31496,0 6.40276,-8.24056 0.405118,-9.163l-0.614174 -0.0259843 -9.18898 0.205512c-5.31615,0 -6.40394,8.24056 -0.4063,9.16418l0.614174 0.0259843 9.19016 -0.206693zm-27.5681 0.618898c5.31496,0 6.40276,-8.24056 0.405118,-9.163l-0.614174 -0.0259843 -9.18898 0.205512c-5.31615,0 -6.40394,8.24056 -0.4063,9.163l0.614174 0.0271654 9.19016 -0.206693zm-27.5681 0.618898c5.31496,0 6.40276,-8.24056 0.405118,-9.163l-0.614174 -0.0259843 -9.18898 0.205512c-5.31615,0 -6.40394,8.24056 -0.4063,9.163l0.614174 0.0271654 9.19016 -0.206693zm-27.5681 0.618898c5.31496,0 6.40276,-8.24056 0.405118,-9.163l-0.614174 -0.0271654 -9.18898 0.206693c-5.31615,0 -6.40394,8.24056 -0.4063,9.163l0.614174 0.0259843 9.19016 -0.205512zm-27.5681 0.618898c5.31496,0 6.40276,-8.24056 0.405118,-9.16418l-0.614174 -0.0259843 -9.18662 0.206693c-5.31615,0 -6.40394,8.24056 -0.4063,9.163l0.614174 0.0259843 9.1878 -0.205512z"/>
   <path id="_459597320" class="fil2" d="M1448.57 802.679c-4.74922,-0.338977 -6.91654,6.20197 -2.34095,8.69646 0.668504,0.27874 1.02756,0.426378 1.78937,0.480709l9.17363 0.549213c4.74922,0.338977 6.91654,-6.20197 2.34095,-8.69646 -0.668504,-0.27874 -1.02638,-0.426378 -1.78937,-0.480709l-9.17363 -0.549213zm338.563 29.5051c4.74922,0.338977 6.91654,-6.20079 2.34095,-8.69646 -0.668504,-0.277559 -1.02756,-0.425197 -1.78937,-0.479528l-8.81339 -0.530315c-4.74922,-0.337796 -6.91654,6.20197 -2.34095,8.69646 0.668504,0.27874 1.02756,0.426378 1.78937,0.480709l8.81339 0.529134zm-27.1666 -1.63228c4.74922,0.338977 6.91654,-6.20197 2.34095,-8.69646 -0.668504,-0.27874 -1.02756,-0.426378 -1.78937,-0.480709l-9.17599 -0.551575c-4.74922,-0.337796 -6.91654,6.20197 -2.34095,8.69646 0.668504,0.27874 1.02756,0.426378 1.78937,0.480709l9.17599 0.551575zm-27.5292 -1.65473c4.74922,0.338977 6.91654,-6.20197 2.34095,-8.69646 -0.668504,-0.27874 -1.02638,-0.426378 -1.78937,-0.480709l-9.17599 -0.549213c-4.74922,-0.337796 -6.91654,6.20197 -2.34095,8.69646 0.668504,0.27874 1.02756,0.426378 1.78937,0.480709l9.17599 0.549213zm-27.5268 -1.65c4.74922,0.337796 6.91654,-6.20197 2.34095,-8.69646 -0.668504,-0.27874 -1.02756,-0.426378 -1.78937,-0.480709l-9.17363 -0.549213c-4.74922,-0.338977 -6.91654,6.20197 -2.34095,8.69646 0.668504,0.277559 1.02638,0.425197 1.78937,0.479528l9.17363 0.550394zm-27.5244 -1.65118c4.74922,0.338977 6.91536,-6.20079 2.34095,-8.69646 -0.668504,-0.277559 -1.02756,-0.425197 -1.78937,-0.479528l-9.17481 -0.549213c-4.74804,-0.338977 -6.91536,6.20197 -2.33977,8.69646 0.668504,0.277559 1.02638,0.425197 1.78819,0.479528l9.17481 0.549213zm-27.5244 -1.65c4.74804,0.338977 6.91536,-6.20197 2.33977,-8.69646 -0.668504,-0.277559 -1.02638,-0.425197 -1.78819,-0.479528l-9.17481 -0.549213c-4.74922,-0.338977 -6.91536,6.20079 -2.34095,8.69646 0.669686,0.277559 1.02756,0.425197 1.78937,0.479528l9.17481 0.549213zm-27.5256 -1.65c4.74922,0.338977 6.91654,-6.20197 2.34095,-8.69646 -0.668504,-0.277559 -1.02638,-0.425197 -1.78937,-0.479528l-9.17363 -0.550394c-4.74922,-0.337796 -6.91654,6.20197 -2.34095,8.69646 0.668504,0.27874 1.02756,0.426378 1.78937,0.480709l9.17363 0.549213zm-27.5244 -1.65c4.74922,0.337796 6.91654,-6.20197 2.34095,-8.69646 -0.668504,-0.27874 -1.02756,-0.426378 -1.78937,-0.480709l-9.17363 -0.549213c-4.74922,-0.338977 -6.91654,6.20197 -2.34095,8.69646 0.668504,0.27874 1.02638,0.426378 1.78937,0.480709l9.17363 0.549213zm-27.5244 -1.64882c4.74922,0.338977 6.91536,-6.20079 2.34095,-8.69646 -0.669686,-0.277559 -1.02756,-0.425197 -1.78937,-0.479528l-9.17481 -0.549213c-4.74804,-0.338977 -6.91536,6.20079 -2.34095,8.69646 0.669686,0.277559 1.02756,0.425197 1.78937,0.479528l9.17481 0.549213zm-27.5244 -1.64764c4.74804,0.338977 6.91536,-6.20197 2.33977,-8.69646 -0.668504,-0.277559 -1.02638,-0.425197 -1.78937,-0.479528l-9.17363 -0.550394c-4.74922,-0.337796 -6.91536,6.20197 -2.34095,8.69646 0.668504,0.27874 1.02756,0.426378 1.78937,0.480709l9.17481 0.549213zm-27.5256 -1.64764c4.74922,0.337796 6.91654,-6.20197 2.34095,-8.69764 -0.668504,-0.277559 -1.02638,-0.425197 -1.78937,-0.479528l-9.17363 -0.549213c-4.74922,-0.338977 -6.91654,6.20197 -2.34095,8.69646 0.668504,0.277559 1.02638,0.425197 1.78937,0.479528l9.17363 0.550394zm-27.5221 -1.64882c4.74922,0.338977 6.91536,-6.20197 2.34095,-8.69646 -0.669686,-0.277559 -1.02756,-0.425197 -1.78937,-0.479528l-9.17481 -0.549213c-4.74804,-0.338977 -6.91536,6.20079 -2.34095,8.69646 0.669686,0.277559 1.02756,0.425197 1.78937,0.479528l9.17481 0.549213z"/>
   <path id="_459598016" class="fil2" d="M1448.91 835.136c-5.91142,-0.844489 -7.31575,8.24174 -1.22953,9.11103l9.10867 1.22717c5.91142,0.844489 7.31575,-8.24292 1.22953,-9.11221l-9.10867 -1.22599zm335.805 54.5741c5.91024,0.844489 7.31575,-8.24292 1.22953,-9.11221l-9.10985 -1.22835c-5.91024,-0.844489 -7.31457,8.24292 -1.22835,9.11103l9.10867 1.22953zm-27.3272 -3.6874c5.91024,0.844489 7.31575,-8.24292 1.22953,-9.11103l-9.10985 -1.22953c-5.91024,-0.844489 -7.31457,8.24292 -1.22835,9.11103l9.10867 1.22953zm-27.3272 -3.6874c5.91024,0.844489 7.31575,-8.24292 1.22953,-9.11103l-9.10985 -1.22953c-5.91024,-0.844489 -7.31457,8.24292 -1.22835,9.11221l9.10867 1.22835zm-27.3272 -3.6874c5.91024,0.84567 7.31575,-8.24174 1.22953,-9.11103l-9.10985 -1.22835c-5.91024,-0.844489 -7.31457,8.24292 -1.22835,9.11103l9.10867 1.22835zm-27.3272 -3.68622c5.91142,0.844489 7.31575,-8.24292 1.22953,-9.11103l-9.10985 -1.22953c-5.91024,-0.844489 -7.31457,8.24292 -1.22835,9.11103l9.10867 1.22953zm-27.3272 -3.6874c5.91142,0.844489 7.31575,-8.24292 1.22953,-9.11103l-9.10985 -1.22953c-5.91024,-0.844489 -7.31457,8.24292 -1.22835,9.11221l9.10867 1.22835zm-27.3272 -3.6874c5.91142,0.84567 7.31575,-8.24174 1.22953,-9.11103l-9.10867 -1.22835c-5.91142,-0.844489 -7.31575,8.24174 -1.22953,9.11103l9.10867 1.22835zm-27.3272 -3.68622c5.91142,0.844489 7.31575,-8.24292 1.22953,-9.11103l-9.10867 -1.22953c-5.91142,-0.844489 -7.31575,8.24292 -1.22953,9.11103l9.10867 1.22953zm-27.3272 -3.6874c5.91142,0.844489 7.31575,-8.24292 1.22953,-9.11103l-9.10867 -1.22953c-5.91142,-0.844489 -7.31575,8.24292 -1.22953,9.11103l9.10867 1.22953zm-27.3272 -3.6874c5.91142,0.844489 7.31575,-8.24174 1.22953,-9.11103l-9.10867 -1.22835c-5.91142,-0.84567 -7.31575,8.24174 -1.22953,9.11103l9.10867 1.22835zm-27.3272 -3.68622c5.91142,0.844489 7.31575,-8.24292 1.22953,-9.11221l-9.10867 -1.22599c-5.91142,-0.844489 -7.31575,8.24174 -1.22953,9.11103l9.10867 1.22717zm-27.3272 -3.68268c5.91142,0.844489 7.31575,-8.24292 1.22953,-9.11221l-9.10867 -1.22599c-5.91142,-0.844489 -7.31575,8.24174 -1.22953,9.11103l9.10867 1.22717z"/>
   <path id="_459597992" class="fil3" d="M896.509 965.802l-39.8079 0 -57.5552 0c-14.1732,0 -26.8524,6.47363 -35.8607,16.898 -8.20749,9.49961 -13.3039,22.3441 -13.3039,36.241l0 315.787c0,13.8969 5.09646,26.7425 13.3051,36.2398 9.00709,10.4268 21.6886,16.9004 35.8595,16.9004l449.705 0c14.1709,0 26.8512,-6.47481 35.8607,-16.9004 8.20867,-9.49961 13.3051,-22.3453 13.3051,-36.2398l0 -315.787c0,-13.8921 -5.09646,-26.7402 -13.3051,-36.2398 -9.00709,-10.4244 -21.6862,-16.8992 -35.8607,-16.8992l-69.6898 0 -27.6732 0 -254.979 0z"/>
   <polygon id="_459597464" class="fil4" points="326.915,1340.07 1721.08,1340.07 1721.08,1501.26 326.915,1501.26 "/>
   <rect id="_459597800" class="fil1" x="828.87" y="640.417" width="390.261" height="217.451" rx="54.3532" ry="54.3532"/>
  </g>
 </g>
 <rect class="fil5" width="2048" height="2048"/>
</svg>
