<?xml version="1.0" encoding="UTF-8"?>
<!DOCTYPE svg PUBLIC "-//W3C//DTD SVG 1.1//EN" "http://www.w3.org/Graphics/SVG/1.1/DTD/svg11.dtd">
<!-- Creator: CorelDRAW -->
<svg xmlns="http://www.w3.org/2000/svg" xml:space="preserve" width="2048px" height="2048px" style="shape-rendering:geometricPrecision; text-rendering:geometricPrecision; image-rendering:optimizeQuality; fill-rule:evenodd; clip-rule:evenodd"
viewBox="0 0 2048 2048"
 xmlns:xlink="http://www.w3.org/1999/xlink">
 <defs>
  <style type="text/css">
   <![CDATA[
    .fil6 {fill:none}
    .fil1 {fill:#899399}
    .fil0 {fill:#B0BEC5}
    .fil4 {fill:#BF3463}
    .fil5 {fill:#D5D0BD}
    .fil3 {fill:#EC407A}
    .fil2 {fill:#FFF8E1}
   ]]>
  </style>
 </defs>
 <g id="Layer_x0020_1">
  <metadata id="CorelCorpID_0Corel-Layer"/>
  <g id="_459600248">
   <path id="_459602168" class="fil0" d="M1387.43 810.898c0,-198.034 -198.034,-393.822 -198.034,-393.822l-331.334 0c0,0 -198.034,195.788 -198.034,393.822l727.403 0z"/>
   <path id="_459602024" class="fil1" d="M1212.5 441.832c-14.1165,-15.8658 -23.1036,-24.7559 -23.1036,-24.7559l-331.334 0c0,0 -8.98701,8.89016 -23.1036,24.7559l377.541 0z"/>
   <path id="_459601880" class="fil0" d="M676.249 798.093l696.286 0c8.49095,0 15.437,6.94489 15.437,15.4323l0 879.679c0,54.3284 -44.4626,98.7957 -98.8028,98.7957l-529.552 0c-54.3437,0 -98.8052,-44.4674 -98.8052,-98.7957l0 -879.679c0,-8.48741 6.94489,-15.4323 15.437,-15.4323z"/>
   <path id="_459601904" class="fil2" d="M709.535 860.407l0 833.652c0,27.1276 22.3807,49.5059 49.5083,49.5059l530.698 0c27.1276,0 49.5083,-22.3784 49.5083,-49.5059l0 -833.652 -629.715 0z"/>
   <path id="_459601952" class="fil3" d="M858.061 417.076l331.12 0 0 -80.4532c0,-44.3457 -36.2799,-80.6233 -80.6245,-80.6233l-169.871 0c-44.3445,0 -80.6245,36.2776 -80.6245,80.6233l0 80.4532z"/>
   <g>
    <path id="_459601616" class="fil4" d="M874.469 417.076l13.539 0 0 -143.035c-5.05158,4.10315 -9.60119,8.79922 -13.539,13.9831l0 129.052z"/>
    <path id="_459601736" class="fil4" d="M900.356 417.076l13.539 0 0 -157.147c-4.71496,1.53425 -9.2445,3.4878 -13.539,5.82638l0 151.321z"/>
    <path id="_459601592" class="fil4" d="M926.245 417.076l13.539 0 0 -161.077 -1.09843 0c-4.22835,0 -8.38465,0.334252 -12.4406,0.968505l0 160.108z"/>
    <polygon id="_459601520" class="fil4" points="952.132,417.076 965.671,417.076 965.671,255.999 952.132,255.999 "/>
    <polygon id="_459600392" class="fil4" points="978.021,417.076 991.559,417.076 991.559,255.999 978.021,255.999 "/>
    <polygon id="_459600560" class="fil4" points="1003.91,417.076 1017.45,417.076 1017.45,255.999 1003.91,255.999 "/>
    <polygon id="_459600584" class="fil4" points="1029.8,417.076 1043.33,417.076 1043.33,255.999 1029.8,255.999 "/>
    <polygon id="_459600488" class="fil4" points="1055.68,417.076 1069.22,417.076 1069.22,255.999 1055.68,255.999 "/>
    <polygon id="_459600416" class="fil4" points="1081.57,417.076 1095.11,417.076 1095.11,255.999 1081.57,255.999 "/>
    <path id="_459599912" class="fil4" d="M1107.46 417.076l13.539 0 0 -160.108c-4.05709,-0.634252 -8.21457,-0.968505 -12.4429,-0.968505l-1.09606 0 0 161.077z"/>
    <path id="_459599672" class="fil4" d="M1133.35 417.076l13.539 0 0 -151.318c-4.29449,-2.33858 -8.82402,-4.29449 -13.539,-5.82874l0 157.147z"/>
    <path id="_459600104" class="fil4" d="M1159.24 417.076l13.539 0 0 -129.05c-3.9378,-5.18504 -8.48977,-9.88111 -13.539,-13.9831l0 143.033z"/>
   </g>
   <ellipse id="_459600224" class="fil5" cx="1024.39" cy="861.011" rx="314.845" ry="31.3618"/>
  </g>
 </g>
 <rect class="fil6" width="2048" height="2048"/>
</svg>
