<?xml version="1.0" encoding="UTF-8"?>
<!DOCTYPE svg PUBLIC "-//W3C//DTD SVG 1.1//EN" "http://www.w3.org/Graphics/SVG/1.1/DTD/svg11.dtd">
<!-- Creator: CorelDRAW -->
<svg xmlns="http://www.w3.org/2000/svg" xml:space="preserve" width="2048px" height="2048px" style="shape-rendering:geometricPrecision; text-rendering:geometricPrecision; image-rendering:optimizeQuality; fill-rule:evenodd; clip-rule:evenodd"
viewBox="0 0 2048 2048"
 xmlns:xlink="http://www.w3.org/1999/xlink">
 <defs>
  <style type="text/css">
   <![CDATA[
    .fil9 {fill:none}
    .fil0 {fill:#1E6DAF}
    .fil6 {fill:#B3800B}
    .fil2 {fill:#D59706}
    .fil5 {fill:#E3F2FD}
    .fil3 {fill:#E66400}
    .fil1 {fill:#FFB300}
    .fil7 {fill:#1E6DAF;fill-rule:nonzero}
    .fil4 {fill:#1E88E5;fill-rule:nonzero}
    .fil8 {fill:#212121;fill-rule:nonzero}
   ]]>
  </style>
 </defs>
 <g id="Layer_x0020_1">
  <metadata id="CorelCorpID_0Corel-Layer"/>
  <rect class="fil0" x="1099.35" y="463.311" width="39.6036" height="512.001" rx="19.8024" ry="19.8024"/>
  <g id="_459602768">
   <g>
    <rect id="_459609200" class="fil1" x="357.304" y="712.597" width="369" height="341.997" rx="17.791" ry="17.791"/>
    <g>
     <path id="_459608744" class="fil2" d="M726.304 737.542l0 27.0992 -237.049 0c-7.45394,0 -13.5496,-6.09686 -13.5496,-13.5496l0 0c0,-7.45276 6.09567,-13.5496 13.5496,-13.5496l237.049 0z"/>
     <path id="_459608696" class="fil2" d="M357.304 817.644l0 -27.0992 237.046 0c7.45512,0 13.552,6.09686 13.552,13.5508l0 0c0,7.45158 -6.09686,13.5484 -13.552,13.5484l-237.046 0z"/>
     <path id="_459608432" class="fil2" d="M726.304 843.546l0 27.0992 -237.049 0c-7.45394,0 -13.5496,-6.09686 -13.5496,-13.5496l0 0c0,-7.45276 6.09567,-13.5496 13.5496,-13.5496l237.049 0z"/>
     <path id="_459608576" class="fil2" d="M357.304 923.645l0 -27.0969 237.046 0c7.45512,0 13.552,6.09449 13.552,13.5496l0 0c0,7.45276 -6.09686,13.5473 -13.552,13.5473l-237.046 0z"/>
     <path id="_459607808" class="fil2" d="M726.304 949.548l0 27.0992 -237.049 0c-7.45394,0 -13.5496,-6.09686 -13.5496,-13.5496l0 0c0,-7.45276 6.09567,-13.5496 13.5496,-13.5496l237.049 0z"/>
     <path id="_459607520" class="fil2" d="M357.304 1029.65l0 -27.0992 237.046 0c7.45512,0 13.552,6.09686 13.552,13.5508l0 0c0,7.45158 -6.09686,13.5484 -13.552,13.5484l-237.046 0z"/>
    </g>
    <polygon id="_459607760" class="fil3" points="513.709,711.818 569.897,711.818 569.897,1053.81 513.709,1053.81 "/>
   </g>
   <g>
    <rect id="_459607616" class="fil1" x="751.451" y="775.104" width="301.393" height="279.337" rx="14.5311" ry="14.5311"/>
    <g>
     <path id="_459607280" class="fil2" d="M1052.84 795.479l0 22.1339 -193.617 0c-6.08741,0 -11.0669,-4.97953 -11.0669,-11.0669l0 0c0,-6.08741 4.97953,-11.0669 11.0669,-11.0669l193.617 0z"/>
     <path id="_459606776" class="fil2" d="M751.451 860.904l0 -22.1339 193.616 0c6.08859,0 11.0681,4.97953 11.0681,11.0681l0 0c0,6.08623 -4.97953,11.0658 -11.0681,11.0658l-193.616 0z"/>
     <path id="_459606632" class="fil2" d="M1052.84 882.061l0 22.1339 -193.617 0c-6.08741,0 -11.0669,-4.97953 -11.0669,-11.0669l0 0c0,-6.08741 4.97953,-11.0669 11.0669,-11.0669l193.617 0z"/>
     <path id="_459606680" class="fil2" d="M751.451 947.485l0 -22.1327 193.616 0c6.08859,0 11.0681,4.97835 11.0681,11.0669l0 0c0,6.08741 -4.97953,11.0658 -11.0681,11.0658l-193.616 0z"/>
     <path id="_459607016" class="fil2" d="M1052.84 968.642l0 22.1339 -193.617 0c-6.08741,0 -11.0669,-4.97953 -11.0669,-11.0669l0 0c0,-6.08741 4.97953,-11.0669 11.0669,-11.0669l193.617 0z"/>
     <path id="_459606440" class="fil2" d="M751.451 1034.07l0 -22.1339 193.616 0c6.08859,0 11.0681,4.97953 11.0681,11.0681l0 0c0,6.08623 -4.97953,11.0658 -11.0681,11.0658l-193.616 0z"/>
    </g>
    <polygon id="_459606248" class="fil3" points="879.2,774.467 925.093,774.467 925.093,1053.8 879.2,1053.8 "/>
   </g>
   <path id="_459606392" class="fil4" d="M1162.05 488.875l166.297 0c69.0237,0 118.303,30.6591 156.865,77.1249 36.4583,43.93 62.2418,101.102 86.3646,158.999l69.2894 166.297 13.4398 32.2547 -34.9418 0 -457.314 0 -23.3256 0 0 -23.3268 0 -388.022 0 -23.3268 23.3256 0z"/>
   <path id="_459605840" class="fil4" d="M1681.9 983.976l48.7075 30.5374c2.28425,1.4315 7.22599,4.16575 12.0473,6.83268 25.8213,14.2831 49.3418,27.2929 49.3418,65.4792l0 201.301c0,21.1807 -8.64568,40.415 -22.5721,54.3414 -13.9252,13.9264 -33.1595,22.5721 -54.3402,22.5721l-39.9213 0 -15.2965 0 -7.54961 0 -421.396 0 -37.5343 0 -25.2307 0 -29.4366 0 0 -29.4366 0 -29.4355 -0.0011811 -391.571 513.975 5.1 29.2075 64.2792z"/>
   <path id="_459606464" class="fil5" d="M1208.27 555.11l0 302.205 353.263 0 -49.4433 -118.663c-20.1638,-48.3957 -41.5052,-95.9304 -70.004,-130.271 -26.6339,-32.0941 -60.3922,-53.2713 -107.248,-53.2713l-126.568 0z"/>
   <rect id="_459605336" class="fil6" x="981.549" y="1003.81" width="48.2226" height="27.5559"/>
   <rect id="_459605096" class="fil6" x="638.97" y="992.551" width="59.0114" height="33.7209"/>
   <path id="_459605000" class="fil4" d="M1161.71 1287.28l0 66.3686 0 11.3882 -216.711 0 -24.6768 0 -60.1311 0 -468.037 0 -5.38111 0 -45.3485 0c-23.5252,0 -44.8914,-11.4177 -60.3567,-29.811 -15.4677,-18.3898 -25.0689,-43.7977 -25.0689,-71.7733l0 -265.873c0,-27.9768 9.60119,-53.3811 25.0677,-71.7733 15.4665,-18.3921 36.8327,-29.8099 60.3579,-29.8099l811.933 0 0 28.8473 8.35276 0 0 362.437z"/>
   <path id="_459605384" class="fil7" d="M860.192 1365.04c-220.165,0 -247.872,0 -468.037,0 -0.0673229,-2.32441 -0.10748,-4.65355 -0.10748,-6.98623 0,-62.276 24.5492,-121.521 68.5772,-165.549 44.028,-44.028 103.274,-68.5772 165.549,-68.5772 62.2772,0 121.52,24.5492 165.548,68.5772 44.0292,44.028 68.5772,103.273 68.5772,165.549 0,2.33268 -0.0389764,4.66181 -0.10748,6.98623z"/>
   <path id="_459604952" class="fil8" d="M626.174 1156.62c55.6193,0 105.978,22.5484 142.432,59.002 36.4536,36.4524 59.0008,86.8135 59.0008,142.432 0,55.6193 -22.5484,105.978 -59.0008,142.432 -36.4536,36.4548 -86.8123,59.0008 -142.432,59.0008 -55.6193,0 -105.979,-22.5461 -142.432,-59.0008 -36.4536,-36.4536 -59.002,-86.8123 -59.002,-142.432 0,-55.6182 22.5473,-105.979 59.002,-142.432 36.4524,-36.4536 86.8123,-59.002 142.432,-59.002zm53.0906 148.343c-13.585,-13.585 -32.3551,-21.9886 -53.0906,-21.9886 -20.7343,0 -39.5044,8.40355 -53.0894,21.9886 -13.5862,13.585 -21.9898,32.3563 -21.9898,53.0906 0,20.7343 8.40355,39.5044 21.9898,53.0894 13.585,13.5862 32.3551,21.9898 53.0894,21.9898 20.7343,0 39.5055,-8.40355 53.0906,-21.9898 13.585,-13.585 21.9874,-32.3551 21.9874,-53.0894 0,-20.7343 -8.40119,-39.5055 -21.9874,-53.0906z"/>
   <ellipse id="_459605144" class="fil5" cx="626.174" cy="1358.05" rx="96.8386" ry="96.8385"/>
   <path id="_459604448" class="fil7" d="M1670.14 1365.04c-220.166,0 -247.872,0 -468.038,0 -0.0673229,-2.32441 -0.10748,-4.65355 -0.10748,-6.98623 0,-62.276 24.5492,-121.521 68.5784,-165.549 44.0268,-44.028 103.273,-68.5772 165.549,-68.5772 62.276,0 121.52,24.5492 165.547,68.5772 44.0292,44.028 68.5784,103.273 68.5784,165.549 0,2.33268 -0.0401575,4.66181 -0.10748,6.98623z"/>
   <path id="_459604208" class="fil8" d="M1436.13 1156.62c55.6182,0 105.978,22.5484 142.43,59.002 36.4548,36.4524 59.002,86.8135 59.002,142.432 0,55.6193 -22.5484,105.978 -59.002,142.432 -36.4524,36.4548 -86.8123,59.0008 -142.43,59.0008 -55.6193,0 -105.98,-22.5461 -142.433,-59.0008 -36.4536,-36.4536 -59.002,-86.8123 -59.002,-142.432 0,-55.6182 22.5473,-105.979 59.002,-142.432 36.4524,-36.4536 86.8135,-59.002 142.433,-59.002zm53.0894 148.343c-13.585,-13.585 -32.3551,-21.9886 -53.0894,-21.9886 -20.7354,0 -39.5055,8.40355 -53.0906,21.9886 -13.5862,13.585 -21.9898,32.3563 -21.9898,53.0906 0,20.7343 8.40355,39.5044 21.9898,53.0894 13.585,13.5862 32.3551,21.9898 53.0906,21.9898 20.7331,0 39.5044,-8.40355 53.0894,-21.9898 13.585,-13.585 21.9886,-32.3551 21.9886,-53.0894 0,-20.7343 -8.40237,-39.5055 -21.9886,-53.0906z"/>
   <ellipse id="_459604712" class="fil5" cx="1436.13" cy="1358.05" rx="96.8386" ry="96.8385"/>
   <g>
    <rect id="_459604352" class="fil1" x="751.453" y="488.833" width="301.393" height="279.337" rx="14.5311" ry="14.5311"/>
    <g>
     <path id="_459604664" class="fil2" d="M1052.84 509.208l0 22.1339 -193.617 0c-6.08741,0 -11.0669,-4.97953 -11.0669,-11.0669l0 0c0,-6.08741 4.97953,-11.0669 11.0669,-11.0669l193.617 0z"/>
     <path id="_459603944" class="fil2" d="M751.452 574.633l0 -22.1339 193.616 0c6.08859,0 11.0681,4.97953 11.0681,11.0681l0 0c0,6.08623 -4.97953,11.0658 -11.0681,11.0658l-193.616 0z"/>
     <path id="_459604160" class="fil2" d="M1052.84 595.79l0 22.1339 -193.617 0c-6.08741,0 -11.0669,-4.97953 -11.0669,-11.0669l0 0c0,-6.08741 4.97953,-11.0669 11.0669,-11.0669l193.617 0z"/>
     <path id="_459603560" class="fil2" d="M751.452 661.214l0 -22.1327 193.616 0c6.08859,0 11.0681,4.97835 11.0681,11.0669l0 0c0,6.08741 -4.97953,11.0658 -11.0681,11.0658l-193.616 0z"/>
     <path id="_459603920" class="fil2" d="M1052.84 682.371l0 22.1339 -193.617 0c-6.08741,0 -11.0669,-4.97953 -11.0669,-11.0669l0 0c0,-6.08741 4.97953,-11.0669 11.0669,-11.0669l193.617 0z"/>
     <path id="_459603584" class="fil2" d="M751.452 747.795l0 -22.1339 193.616 0c6.08859,0 11.0681,4.97953 11.0681,11.0681l0 0c0,6.08623 -4.97953,11.0658 -11.0681,11.0658l-193.616 0z"/>
    </g>
    <polygon id="_459603248" class="fil3" points="879.201,488.196 925.094,488.196 925.094,767.533 879.201,767.533 "/>
   </g>
  </g>
 </g>
 <rect class="fil9" width="2048" height="2048"/>
</svg>
