<?xml version="1.0" encoding="UTF-8"?>
<!DOCTYPE svg PUBLIC "-//W3C//DTD SVG 1.1//EN" "http://www.w3.org/Graphics/SVG/1.1/DTD/svg11.dtd">
<!-- Creator: CorelDRAW -->
<svg xmlns="http://www.w3.org/2000/svg" xml:space="preserve" width="2048px" height="2048px" style="shape-rendering:geometricPrecision; text-rendering:geometricPrecision; image-rendering:optimizeQuality; fill-rule:evenodd; clip-rule:evenodd"
viewBox="0 0 2048 2048"
 xmlns:xlink="http://www.w3.org/1999/xlink">
 <defs>
  <style type="text/css">
   <![CDATA[
    .fil2 {fill:none}
    .fil0 {fill:#43A047;fill-rule:nonzero}
    .fil1 {fill:#5D4037;fill-rule:nonzero}
   ]]>
  </style>
 </defs>
 <g id="Layer_x0020_1">
  <metadata id="CorelCorpID_0Corel-Layer"/>
  <path class="fil0" d="M1066.93 1313.76c39.7264,-105.207 61.7209,-208.921 62.7804,-310.862 1.05236,-101.404 -18.6106,-201.588 -62.1603,-300.359l58.0134 -25.5366c47.2052,107.06 68.5158,215.94 67.3678,326.392 -1.14213,109.912 -24.5256,220.862 -66.7477,332.679l-59.2536 -22.3134z"/>
  <path class="fil0" d="M904.796 271.497c187.497,83.0776 264.768,178.375 279.884,258.932 14.9976,79.9123 -28.4008,145.12 -89.3233,175.36 -60.7371,30.1465 -139.077,25.4457 -194.255,-34.2969 -55.7516,-60.365 -85.9725,-179.036 -39.9402,-378.055l8.65985 -37.4374 34.9748 15.4973z"/>
  <path class="fil0" d="M1635.2 746.972c-145.811,144.109 -262.705,181.19 -343.171,165.827 -79.9134,-15.2563 -124.768,-79.4682 -130.645,-147.197 -5.86063,-67.552 27.1831,-138.764 103.029,-168.315 76.5686,-29.8299 198.064,-14.5949 366.449,100.969l31.6512 21.724 -27.313 26.9929z"/>
  <path class="fil0" d="M1036.19 1032.61c-72.0697,38.8453 -194.681,38.6398 -377.138,-54.9213l-34.0878 -17.4791 23.55 -30.1217c125.881,-160.994 237.14,-212.127 319.077,-206.729 81.1477,5.34804 134.068,63.378 148.826,129.643 14.7732,66.3331 -8.65631,141.032 -80.2276,179.608z"/>
  <path class="fil1" d="M1649.32 1792l-1250.63 0 -38.1957 0 7.0819 -37.5603c13.1752,-69.8882 50.6504,-131.232 103.253,-174.835 51.7571,-42.9036 118.139,-68.7225 190.432,-68.7225 8.63386,0 18.026,0.473622 28.1858,1.42677 1.58268,0.148819 3.15118,0.307087 4.70433,0.473622 23.987,-40.5851 57.0922,-74.6091 96.0957,-99.6225 41.1166,-26.3705 88.8934,-42.8221 139.567,-46.5118 19.663,-21.3555 43.2095,-38.6811 69.2032,-51.1323 30.1701,-14.4532 63.4276,-22.3311 97.5391,-22.3311 52.2815,0 100.573,17.9244 139.07,47.9823 34.2555,26.7449 60.6414,63.0898 75.0627,104.935 1.28032,0.39567 2.55473,0.805512 3.82087,1.22953 8.03977,2.6941 15.4925,5.76851 22.3181,9.17599l2.23229 1.36299 93.5705 56.7071c61.1764,9.51142 116.296,37.6288 159.354,78.3768 44.8394,42.4347 76.5792,98.5099 88.4481,161.485l7.07953 37.5603 -38.1933 0z"/>
 </g>
 <rect class="fil2" width="2048" height="2048"/>
</svg>
