<?xml version="1.0" encoding="UTF-8"?>
<!DOCTYPE svg PUBLIC "-//W3C//DTD SVG 1.1//EN" "http://www.w3.org/Graphics/SVG/1.1/DTD/svg11.dtd">
<!-- Creator: CorelDRAW -->
<svg xmlns="http://www.w3.org/2000/svg" xml:space="preserve" width="2048px" height="2048px" style="shape-rendering:geometricPrecision; text-rendering:geometricPrecision; image-rendering:optimizeQuality; fill-rule:evenodd; clip-rule:evenodd"
viewBox="0 0 2048 2048"
 xmlns:xlink="http://www.w3.org/1999/xlink">
 <defs>
  <style type="text/css">
   <![CDATA[
    .fil6 {fill:none}
    .fil2 {fill:#263238}
    .fil3 {fill:#677B85}
    .fil0 {fill:#78909C}
    .fil5 {fill:#D59706}
    .fil1 {fill:#ECEFF1}
    .fil4 {fill:#FFB300}
   ]]>
  </style>
 </defs>
 <g id="Layer_x0020_1">
  <metadata id="CorelCorpID_0Corel-Layer"/>
  <g id="_459610520">
   <g>
    <path id="_459611720" class="fil0" d="M827.055 1790.51c4.16929,2.53347 9.49016,1.61102 13.5142,-1.05709 153.552,-101.804 294.65,-216.893 407.103,-364.014 119.865,-156.817 207.409,-334.681 270.353,-521.286 2.83819,-8.41654 5.77205,-16.8083 8.67757,-25.2012 5.66103,-16.3547 15.7878,-40.8177 13.9595,-58.4682 -0.517323,-4.99134 -1.60394,-9.3756 -3.53859,-13.9866 -2.32559,-5.53937 -5.5063,-10.9595 -8.56064,-16.1244l-18.9638 -32.0658 36.9083 -5.05748c63.2776,-8.67402 125.452,-31.8567 171.736,-77.1201 55.0382,-53.8241 74.7804,-125.582 73.7162,-200.977 -0.200788,-14.1791 -1.10906,-28.3465 -2.65394,-42.4429l-0.168898 -1.5437c-1.33937,-5.3752 -6.48308,-9.07205 -12.1417,-8.45316 -4.46929,0.490158 -7.79764,3.82323 -9.55749,7.78229 -27.2327,61.2792 -71.6363,112.225 -132.078,142.291 -48.6378,24.1961 -102.521,30.2339 -155.87,21.0402l-21.5929 -3.72166 -3.72166 -21.5929c-9.19371,-53.3493 -3.15591,-107.232 21.0402,-155.87 30.0662,-60.4418 81.0119,-104.845 142.291,-132.078 3.95906,-1.75984 7.29213,-5.08819 7.78229,-9.55749 0.618898,-5.65867 -3.07796,-10.8024 -8.45316,-12.1417l-1.5437 -0.168898c-14.0965,-1.54488 -28.2638,-2.45315 -42.4429,-2.65394 -75.3945,-1.06417 -147.152,18.678 -200.977,73.7162 -45.2634,46.2839 -68.4461,108.458 -77.1201,171.736l-5.05748 36.9083 -32.0658 -18.9638c-5.16496,-3.05433 -10.585,-6.23504 -16.1244,-8.56064 -4.61103,-1.93465 -8.99528,-3.02126 -13.9866,-3.53859 -17.6504,-1.82835 -42.1134,8.29843 -58.4682,13.9595 -8.39292,2.90551 -16.7847,5.83937 -25.2012,8.67757 -186.605,62.9445 -364.468,150.488 -521.286,270.353 -147.121,112.453 -262.21,253.551 -364.014,407.103 -2.66811,4.02402 -3.59055,9.34489 -1.05709,13.5142l1.03701 1.21772c25.128,29.5252 52.3241,37.0725 88.0902,21.4725 38.302,-16.7043 75.3107,-60.6248 99.6473,-93.3639l1.35 -1.81654 1.65709 -1.5437c81.4997,-75.7985 173.327,-150.383 271.924,-202.792 70.917,-37.6973 154.38,-70.5816 236.137,-64.9123 3.40748,0.23504 7.03347,-0.400394 9.67442,-2.63504l0.748819 -0.796064c32.7402,-34.8355 68.4579,-67.0453 107.817,-94.2709 35.4839,-24.5445 73.5804,-44.68 114.188,-59.367l8.1319 -2.94095 8.19449 2.7626c17.7567,5.98701 35.7922,11.1626 54.0107,15.5492 13.8343,3.33071 27.7902,6.17717 41.8193,8.57245 2.39528,14.0291 5.24174,27.9851 8.57245,41.8193 4.38662,18.2185 9.56221,36.254 15.5492,54.0107l2.7626 8.19449 -2.94095 8.1319c-14.687,40.6075 -34.8225,78.704 -59.367,114.188 -27.2256,39.3591 -59.4355,75.0768 -94.2709,107.817l-0.796064 0.748819c-2.23465,2.64095 -2.87008,6.26693 -2.63504,9.67442 5.6693,81.7571 -27.215,165.22 -64.9123,236.137 -52.4091,98.5973 -126.993,190.425 -202.792,271.924l-1.5437 1.65709 -1.81654 1.35c-32.739,24.3366 -76.6595,61.3453 -93.3639,99.6473 -15.6,35.7662 -8.05276,62.9623 21.4725,88.0902l1.21772 1.03701z"/>
    <g>
     <path id="_459611648" class="fil1" d="M1417.1 630.904c-14.8122,-14.811 -38.824,-14.8099 -53.6351,0 -14.811,14.8122 -14.8122,38.824 0,53.6351 14.8099,14.811 38.8229,14.811 53.6351,0 14.8099,-14.811 14.8099,-38.824 0,-53.6351z"/>
     <path id="_459611096" class="fil2" d="M1413.53 627.755l-23.2524 23.2536 -23.2536 -23.2536c-1.23662,0.962599 -2.42717,2.0126 -3.56457,3.14882 -1.13622,1.1374 -2.18622,2.32795 -3.14882,3.56457l23.2536 23.2524 -23.2536 23.2547c0.961418,1.23662 2.01142,2.42717 3.14882,3.56339 1.13622,1.1374 2.32677,2.1874 3.56339,3.14882l23.2547 -23.2536 23.2524 23.2536c1.23662,-0.962599 2.42717,-2.0126 3.56457,-3.14882 1.13622,-1.1374 2.18622,-2.32795 3.14882,-3.56457l-23.2536 -23.2536 23.2536 -23.2524c-0.962599,-1.23662 -2.0126,-2.42717 -3.14882,-3.56457 -1.1374,-1.13622 -2.32795,-2.18622 -3.56457,-3.14882z"/>
    </g>
   </g>
   <path id="_459610616" class="fil3" d="M827.055 1790.51c4.16929,2.53347 9.49016,1.61102 13.5142,-1.05709 153.552,-101.804 294.65,-216.893 407.103,-364.014 119.865,-156.817 207.409,-334.681 270.353,-521.286 2.83819,-8.41654 5.77205,-16.8083 8.67757,-25.2012 5.66103,-16.3547 15.7878,-40.8177 13.9595,-58.4682 -0.517323,-4.99134 -1.60394,-9.3756 -3.53859,-13.9866 -2.32559,-5.53937 -5.5063,-10.9595 -8.56064,-16.1244l-18.9638 -32.0658c0,0 -103.655,14.6587 -207.68,-12.2244 2.39528,14.0291 5.24174,27.9851 8.57245,41.8193 4.38662,18.2185 9.56221,36.254 15.5492,54.0107l2.7626 8.19449 -2.94095 8.1319c-14.687,40.6075 -34.8225,78.704 -59.367,114.188 -27.2256,39.3591 -59.4355,75.0768 -94.2709,107.817l-0.796064 0.748819c-2.23465,2.64095 -2.87008,6.26693 -2.63504,9.67442 5.6693,81.7571 -27.215,165.22 -64.9123,236.137 -52.4091,98.5973 -126.993,190.425 -202.792,271.924l-1.5437 1.65709 -1.81654 1.35c-32.739,24.3366 -76.6595,61.3453 -93.3639,99.6473 -15.6,35.7662 -8.05276,62.9623 21.4725,88.0902l1.21772 1.03701z"/>
   <path id="_459610568" class="fil3" d="M1457.9 590.104l-3.72166 -21.5929c-9.19371,-53.3493 -3.15591,-107.232 21.0402,-155.87 30.0662,-60.4418 81.0119,-104.845 142.291,-132.078 3.95906,-1.75984 7.29213,-5.08819 7.78229,-9.55749 0.618898,-5.65867 -3.07796,-10.8024 -8.45316,-12.1417l-1.5437 -0.168898c-14.0965,-1.54488 -28.2638,-2.45315 -42.4429,-2.65394 -75.3945,-1.06417 -147.152,18.678 -200.977,73.7162 -45.2634,46.2839 -68.4461,108.458 -77.1201,171.736l-5.05748 36.9083 -24.8114 -14.674 0.00708662 0.00472441c95.2146,62.3705 193.006,66.3721 193.006,66.3721z"/>
   <path id="_459610688" class="fil4" d="M827.055 1790.51c4.16929,2.53347 9.49016,1.61102 13.5142,-1.05709 147.321,-97.6725 283.173,-207.58 393.267,-346.265l-125.287 -125.287c-1.54725,2.98819 -3.10276,5.95748 -4.6689,8.90316 -52.4091,98.5973 -126.993,190.425 -202.792,271.924l-1.5437 1.65709 -1.81654 1.35c-32.739,24.3366 -76.6595,61.3453 -93.3639,99.6473 -15.6,35.7662 -8.05276,62.9623 21.4725,88.0902l1.21772 1.03701zm-222.241 -976.345c-138.685,110.094 -248.593,245.946 -346.265,393.267 -2.66811,4.02402 -3.59055,9.34489 -1.05709,13.5142l1.03701 1.21772c25.128,29.5252 52.3241,37.0725 88.0902,21.4725 38.302,-16.7043 75.3107,-60.6248 99.6473,-93.3639l1.35 -1.81654 1.65709 -1.5437c81.4997,-75.7985 173.327,-150.383 271.924,-202.792 2.94567,-1.56614 5.91497,-3.12166 8.90316,-4.6689l-125.287 -125.287z"/>
   <path id="_459610808" class="fil5" d="M1210.92 1471.19c7.75158,-9.2067 15.3945,-18.5374 22.911,-28.0063l-125.287 -125.287c-1.54725,2.98819 -3.10276,5.95748 -4.6689,8.90316 -4.28504,8.06339 -8.72245,16.0807 -13.2945,24.052l120.339 120.338zm-513.78 -513.779l-120.338 -120.339c9.2067,-7.75158 18.5374,-15.3945 28.0063,-22.911l125.287 125.287c-2.98819,1.54725 -5.95748,3.10276 -8.90316,4.6689 -8.06339,4.28504 -16.0807,8.72245 -24.052,13.2945z"/>
  </g>
 </g>
 <rect class="fil6" width="2048" height="2048"/>
</svg>
