<?xml version="1.0" encoding="UTF-8"?>
<!DOCTYPE svg PUBLIC "-//W3C//DTD SVG 1.1//EN" "http://www.w3.org/Graphics/SVG/1.1/DTD/svg11.dtd">
<!-- Creator: CorelDRAW -->
<svg xmlns="http://www.w3.org/2000/svg" xml:space="preserve" width="2048px" height="2048px" style="shape-rendering:geometricPrecision; text-rendering:geometricPrecision; image-rendering:optimizeQuality; fill-rule:evenodd; clip-rule:evenodd"
viewBox="0 0 2048 2048"
 xmlns:xlink="http://www.w3.org/1999/xlink">
 <defs>
  <style type="text/css">
   <![CDATA[
    .fil2 {fill:none}
    .fil0 {fill:#CD8D58}
    .fil1 {fill:#E8C8AF}
   ]]>
  </style>
 </defs>
 <g id="Layer_x0020_1">
  <metadata id="CorelCorpID_0Corel-Layer"/>
  <path class="fil0" d="M1606.36 1027.24c0.341339,-167.307 -18.7512,-334.512 -59.1367,-501.6 46.5201,-86.7426 50.7603,-161.021 31.9099,-207.83 -9.61891,-23.8866 -25.2189,-41.6634 -44.8713,-51.9697 -20.2441,-10.6181 -43.7811,-12.8563 -68.5949,-5.29725 -41.6457,12.6874 -88.1741,55.5036 -125.262,136.892 -100.002,-10.0984 -203.176,-18.1914 -310.89,-20.0091 -109.097,-1.84134 -222.095,2.78622 -339.885,18.3272 -36.9355,-75.9922 -82.2154,-115.512 -122.684,-126.533 -24.9083,-6.78308 -48.4453,-3.62717 -68.5619,7.9878l0.0318898 0.0543308c-19.1953,11.113 -34.2449,29.4697 -43.2307,53.6847 -18.104,48.7843 -11.8595,125.889 38.9929,215.145 -35.1922,149.124 -52.4847,303.583 -52.5437,463.173 -0.0602363,159.951 17.1957,324.918 51.0839,494.693 -49.552,88.317 -55.1847,165.319 -36.75,213.956 8.61497,22.7268 22.4622,40.2496 39.9933,51.3508 18.574,11.7614 40.3784,15.9768 63.7571,11.341 37.637,-7.46339 79.9253,-39.6012 116.399,-103.272 99.5174,30.0614 206.046,45.5256 319.302,45.6567 112.863,0.132284 232.345,-14.9457 358.16,-45.9555 36.6036,68.3835 80.2146,103.484 119.128,112.421 23.2488,5.33741 45.0922,2.04567 63.8729,-8.67166 18.0414,-10.2933 32.4721,-27.0815 41.7166,-49.213 19.2721,-46.1339 15.913,-119.607 -28.8721,-205.336 36.9992,-166.142 56.5926,-332.471 56.9339,-498.995z"/>
  <path class="fil1" d="M662.654 906.144l0 235.25c0,28.2402 11.5323,53.8902 30.1075,72.4654 18.5764,18.5752 44.2311,30.1075 72.4666,30.1075l517.542 0c28.2366,0 53.8878,-11.5323 72.4642,-30.1087 18.5764,-18.5764 30.1087,-44.2276 30.1087,-72.4642l0 -235.25c0,-28.2355 -11.5323,-53.8902 -30.1075,-72.4666 -18.5752,-18.5752 -44.2252,-30.1075 -72.4654,-30.1075l-517.542 0c-28.2402,0 -53.8926,11.5311 -72.4678,30.1063 -18.5752,18.5752 -30.1063,44.2276 -30.1063,72.4678z"/>
 </g>
 <rect class="fil2" width="2048" height="2048"/>
</svg>
