<?xml version="1.0" encoding="UTF-8"?>
<!DOCTYPE svg PUBLIC "-//W3C//DTD SVG 1.1//EN" "http://www.w3.org/Graphics/SVG/1.1/DTD/svg11.dtd">
<!-- Creator: CorelDRAW -->
<svg xmlns="http://www.w3.org/2000/svg" xml:space="preserve" width="2048px" height="2048px" style="shape-rendering:geometricPrecision; text-rendering:geometricPrecision; image-rendering:optimizeQuality; fill-rule:evenodd; clip-rule:evenodd"
viewBox="0 0 2048 2048"
 xmlns:xlink="http://www.w3.org/1999/xlink">
 <defs>
  <style type="text/css">
   <![CDATA[
    .fil3 {fill:none}
    .fil1 {fill:none;fill-rule:nonzero}
    .fil0 {fill:#6D4C41;fill-rule:nonzero}
    .fil2 {fill:#90A4AE;fill-rule:nonzero}
   ]]>
  </style>
 </defs>
 <g id="Layer_x0020_1">
  <metadata id="CorelCorpID_0Corel-Layer"/>
  <g id="_459612824">
   <path id="_459612632" class="fil0" d="M795.066 680.784l956.055 763.315c23.4106,18.691 37.0429,45.2197 40.1457,72.9001 3.09567,27.6047 -4.30158,56.4142 -22.9358,79.7552l-0.00236221 0.00354331c-18.691,23.4106 -45.2197,37.0441 -72.9012,40.1457 -27.6071,3.09449 -56.4178,-4.30276 -79.7587,-22.9382l-988.517 -789.233 -30.7855 -24.5799 30.2859 -25.0453c18.848,-15.5858 39.3201,-31.402 61.4445,-47.5807 21.3343,-15.6012 44.4473,-31.6418 69.3449,-48.2422l19.4799 -12.9874 18.1453 14.4874z"/>
   <line id="_459613304" class="fil1" x1="492.566" y1="439.27" x2="492.568" y2= "439.272" />
   <path id="_459612992" class="fil0" d="M339.918 456.466c18.6898,-23.4024 45.2138,-37.0347 72.8906,-40.1351 27.6071,-3.09449 56.4142,4.30394 79.7564,22.9382l0.00354331 0.00354331 100.397 80.1568 30.7559 24.5551 -30.3815 25.0701c-19.7445,16.2933 -38.6811,33.2067 -56.7922,50.6894 -18.1158,17.4874 -35.0339,35.204 -50.7437,53.1071l-20.139 22.9512 -23.7366 -18.9508 -84.8138 -67.715c-23.4106,-18.691 -37.0429,-45.2197 -40.1457,-72.9001 -3.09449,-27.6083 4.30276,-56.4178 22.9382,-79.7587l0.0106299 -0.011811z"/>
   <path id="_459613160" class="fil2" d="M739.767 418.713l208.068 166.121 -19.8756 25.0004 19.9654 -25.0075c13.8106,11.0256 16.0677,31.1622 5.04213,44.9729 -3.01536,3.77599 -6.71221,6.68623 -10.774,8.70001 -206.786,124.449 -336.264,217.102 -409.727,332.6 -72.9816,114.741 -92.6587,256.151 -80.8359,479.631l0.0838583 -0.00472441c0.933072,17.648 -12.6165,32.7142 -30.2646,33.6473 -12.339,0.651969 -23.4142,-5.77559 -29.2807,-15.7335 -14.2417,-19.6453 -27.2079,-39.2126 -38.9114,-58.676 -98.1402,-163.205 -120.161,-334.222 -74.3693,-496.242 45.3414,-160.422 157.305,-311.15 327.686,-435.58 30.1819,-22.0429 61.9311,-43.1138 95.1863,-63.1146l-0.0519685 -0.0874016c12.4193,-7.46812 27.8752,-5.52048 38.0587,3.77362z"/>
  </g>
 </g>
 <rect class="fil3" width="2048" height="2048"/>
</svg>
