<?xml version="1.0" encoding="UTF-8"?>
<!DOCTYPE svg PUBLIC "-//W3C//DTD SVG 1.1//EN" "http://www.w3.org/Graphics/SVG/1.1/DTD/svg11.dtd">
<!-- Creator: CorelDRAW -->
<svg xmlns="http://www.w3.org/2000/svg" xml:space="preserve" width="2048px" height="2048px" style="shape-rendering:geometricPrecision; text-rendering:geometricPrecision; image-rendering:optimizeQuality; fill-rule:evenodd; clip-rule:evenodd"
viewBox="0 0 2048 2048"
 xmlns:xlink="http://www.w3.org/1999/xlink">
 <defs>
  <style type="text/css">
   <![CDATA[
    .fil2 {fill:none}
    .fil0 {fill:#CD8D58}
    .fil1 {fill:#E5C2A6}
   ]]>
  </style>
 </defs>
 <g id="Layer_x0020_1">
  <metadata id="CorelCorpID_0Corel-Layer"/>
  <path class="fil0" d="M1600.86 1027.2c0.338977,-165.623 -18.5587,-331.145 -58.526,-496.549 46.0489,-85.9229 50.2335,-159.516 31.5496,-205.915 -9.55276,-23.7201 -25.0488,-41.3764 -44.5725,-51.6154 -20.1154,-10.5496 -43.5012,-12.7748 -68.1497,-5.26654 -41.2689,12.5717 -87.365,54.9579 -124.112,135.49 -98.9363,-9.98741 -201.013,-17.9894 -307.586,-19.787 -107.955,-1.82244 -219.761,2.75197 -336.307,18.1146 -36.5953,-75.1914 -81.4548,-114.31 -121.562,-125.231 -24.7465,-6.73819 -48.13,-3.60118 -68.1201,7.94056 -19.0099,10.976 -33.9485,29.2276 -42.9071,53.3682 -17.9421,48.3508 -11.7768,124.743 38.563,213.155 -34.826,147.619 -51.939,300.521 -51.9981,458.498 -0.0602363,158.34 17.0197,321.639 50.5571,489.7 -49.0548,87.4843 -54.6178,163.779 -36.3461,211.986 8.55473,22.5673 22.3075,39.9674 39.7229,50.9941 18.4571,11.687 40.1256,15.8776 63.352,11.2713 37.3004,-7.39607 79.1906,-39.1961 115.324,-102.176 98.4839,29.7213 203.896,45.0118 315.963,45.1418 111.69,0.131102 229.923,-14.7803 354.418,-45.4477 36.2634,67.6465 79.467,102.384 118.031,111.241 23.0977,5.30433 44.8004,2.03268 63.463,-8.61851 17.9244,-10.226 32.2559,-26.8984 41.4378,-48.8764 19.102,-45.7288 15.7949,-118.527 -28.5425,-203.452 36.6189,-164.469 56.0091,-329.119 56.3469,-493.966z"/>
  <path class="fil1" d="M722.37 696.797c30.6945,111.204 63.228,183.663 111.105,224.386 43.4079,36.9237 95.5229,46.9949 164.799,34.526l0 354.979c-5.5004,62.6977 -41.5288,75.0249 -79.9442,88.154 -31.4835,10.761 -64.0949,21.9083 -92.4887,50.302l45.2504 45.2504c18.078,-18.078 43.3453,-26.7154 67.7375,-35.0516 59.3162,-20.2713 114.924,-39.2788 123.321,-145.074l0.125197 -2.5004 0 -328.78c70.7705,9.30001 122.799,-3.32244 164.505,-42.7205 45.6284,-43.1044 74.3386,-117.207 99.2257,-229.988l10.0536 -45.5611 -45.9296 7.06064c-116.159,17.8559 -192.862,41.6587 -239.587,83.1296 -4.83898,4.29449 -9.34371,8.73308 -13.5248,13.324 -9.58938,-15.4146 -21.9,-29.0823 -37.1882,-41.289 -48.6768,-38.8654 -126.53,-58.6052 -243.586,-70.3985l-46.2721 -4.66181 12.3969 44.9126z"/>
 </g>
 <rect class="fil2" width="2048" height="2048"/>
</svg>
