<?xml version="1.0" encoding="UTF-8"?>
<!DOCTYPE svg PUBLIC "-//W3C//DTD SVG 1.1//EN" "http://www.w3.org/Graphics/SVG/1.1/DTD/svg11.dtd">
<!-- Creator: CorelDRAW -->
<svg xmlns="http://www.w3.org/2000/svg" xml:space="preserve" width="2048px" height="2048px" style="shape-rendering:geometricPrecision; text-rendering:geometricPrecision; image-rendering:optimizeQuality; fill-rule:evenodd; clip-rule:evenodd"
viewBox="0 0 2048 2048"
 xmlns:xlink="http://www.w3.org/1999/xlink">
 <defs>
  <style type="text/css">
   <![CDATA[
    .fil3 {fill:none}
    .fil0 {fill:#677B85;fill-rule:nonzero}
    .fil2 {fill:#78909C;fill-rule:nonzero}
    .fil1 {fill:#E53935;fill-rule:nonzero}
   ]]>
  </style>
 </defs>
 <g id="Layer_x0020_1">
  <metadata id="CorelCorpID_0Corel-Layer"/>
  <g id="_459614888">
   <g>
    <polygon id="_459614216" class="fil0" points="761.419,803.925 1202.42,1244.92 1156.84,1290.51 715.836,849.509 "/>
    <path id="_459614840" class="fil0" d="M634.764 445.844c-10.2236,-14.5335 -30.2953,-18.0295 -44.8288,-7.80591 -14.5335,10.2224 -18.0284,30.2941 -7.80591,44.8276l188.104 266.662 -108.791 108.791 -266.665 -188.101c-14.5335,-10.2236 -34.6051,-6.72756 -44.8276,7.80591 -10.2224,14.5335 -6.72756,34.6051 7.80591,44.8276l287.158 202.558c12.6579,10.1764 31.2154,9.39331 42.9626,-2.35276l-0.00236221 -0.00236221 146.607 -146.607c11.3457,-10.8437 13.3571,-28.6465 4.03701,-41.8595l-0.0496063 0.034252 -203.704 -288.779z"/>
    <path id="_459614504" class="fil0" d="M474.103 516.609c-12.587,-12.587 -32.9965,-12.587 -45.5835,0 -12.587,12.5858 -12.587,32.9965 0,45.5823l287.318 287.318c12.587,12.587 32.9965,12.587 45.5835,0 12.587,-12.587 12.587,-32.9965 0,-45.5835l-287.318 -287.316z"/>
    <path id="_459614696" class="fil1" d="M1135.29 1266.47l43.0926 -43.0937c20.7591,-20.7591 48.0874,-31.1398 75.3863,-31.1398 27.2988,0 54.626,10.3807 75.3863,31.1398l343.616 343.617 0.0011811 0.0011811c20.7579,20.7579 31.1398,48.0851 31.1398,75.3839 0,27.3 -10.3819,54.626 -31.1398,75.3839l-0.0011811 0.0011811 -43.0926 43.0937c-20.7591,20.7591 -48.0851,31.1398 -75.3863,31.1398 -27.3,0 -54.6272,-10.3807 -75.3863,-31.1398l-343.615 -343.617c-20.7603,-20.7591 -31.141,-48.0863 -31.141,-75.3851 0,-27.3 10.3807,-54.6272 31.1398,-75.3851z"/>
   </g>
   <path id="_459614264" class="fil2" d="M1538.46 740.222c-56.1685,143.817 -140.041,282.679 -249.39,416.979l-20.7106 25.4362 -24.9992 -21.1536 -227.114 -192.181 -24.554 -20.778 20.7768 -24.554 552.521 -652.955c136.965,-111.424 -12.2457,432.631 -26.5299,469.206z"/>
   <polygon id="_459614552" class="fil2" points="1083.06,1005.19 917.359,1200.77 868.25,1159.21 1033.95,963.633 "/>
   <path id="_459614408" class="fil1" d="M972.363 1176.23l43.6134 36.9048c21.4571,18.1559 33.5327,43.3677 35.6965,69.3579 2.16142,25.9524 -5.57481,52.793 -23.7307,74.2477l-294.277 347.77c-18.1571,21.4571 -43.3701,33.5303 -69.3579,35.6953 -25.9524,2.1626 -52.7906,-5.57481 -74.2465,-23.7307l-43.6146 -36.9048c-21.4559,-18.1547 -33.5303,-43.3666 -35.6953,-69.3567 -2.16024,-25.9524 5.57481,-52.7894 23.7307,-74.2477l294.277 -347.77c18.1571,-21.4559 43.3689,-33.5303 69.3567,-35.6953 25.9512,-2.1626 52.7918,5.57363 74.2477,23.7295z"/>
  </g>
 </g>
 <rect class="fil3" width="2048" height="2048"/>
</svg>
