<?xml version="1.0" encoding="UTF-8"?>
<!DOCTYPE svg PUBLIC "-//W3C//DTD SVG 1.1//EN" "http://www.w3.org/Graphics/SVG/1.1/DTD/svg11.dtd">
<!-- Creator: CorelDRAW -->
<svg xmlns="http://www.w3.org/2000/svg" xml:space="preserve" width="2048px" height="2048px" style="shape-rendering:geometricPrecision; text-rendering:geometricPrecision; image-rendering:optimizeQuality; fill-rule:evenodd; clip-rule:evenodd"
viewBox="0 0 2048 2048"
 xmlns:xlink="http://www.w3.org/1999/xlink">
 <defs>
  <style type="text/css">
   <![CDATA[
    .fil2 {fill:none}
    .fil1 {fill:#CD8D58}
    .fil0 {fill:#546E7A;fill-rule:nonzero}
   ]]>
  </style>
 </defs>
 <g id="Layer_x0020_1">
  <metadata id="CorelCorpID_0Corel-Layer"/>
  <g id="_459615272">
   <path id="_459615680" class="fil0" d="M1075.63 912.575l105.188 157.768 -91.0737 56.5619c-40.3051,25.0323 -123.618,-79.9205 -145.33,-106.264 43.7658,-35.9894 87.4512,-72.0756 131.216,-108.066z"/>
   <path id="_459615656" class="fil0" d="M333.757 751.015c-16.8827,-96.7737 1.02165,-194.497 46.9583,-277.368 45.5256,-82.1339 118.565,-149.687 212.517,-187.276 108.385,-43.3642 224.051,-38.7059 323.436,3.87874 99.4654,42.6189 182.667,123.163 226.021,231.525 37.6158,94.0194 39.1051,193.508 11.0528,283.088 -28.5638,91.2107 -87.8138,172.236 -170.791,226.834l0.068504 0.105118c-13.3252,8.76733 -31.2366,5.07166 -40.004,-8.25355 -7.58859,-11.5347 -5.83701,-26.504 3.41221,-36.0059 34.8851,-43.1658 57.7831,-94.9642 66.2682,-149.741 8.30316,-53.5973 2.77087,-110.099 -18.8752,-164.204 -32.1792,-80.4308 -93.8883,-140.193 -167.642,-171.795 -73.8343,-31.6359 -159.71,-35.1201 -240.117,-2.9504 -54.0981,21.6437 -98.8394,56.6351 -131.95,99.6591 -34.2166,44.4615 -56.0292,97.6288 -62.9091,153.602l-28.6571 -3.49843 28.6666 3.52441c-1.94528,15.8315 -16.3595,27.0874 -32.191,25.1421 -13.8272,-1.69961 -24.163,-12.9071 -25.2626,-26.2666z"/>
   <path id="_459615608" class="fil1" d="M1667.21 1754.23c-23.7579,22.1729 -104.446,84.0449 -171.295,-24.1536l-343.503 -508.522c0,0 -89.9646,4.88859 -102.653,-98.8607l53.8654 -44.8807 53.8654 -44.8796c99.7548,31.2047 78.7087,118.811 78.7087,118.811l438.172 429.644c94.356,85.2792 18.9378,153.476 -7.15985,172.841z"/>
  </g>
 </g>
 <rect class="fil2" width="2048" height="2048"/>
</svg>
