<?xml version="1.0" encoding="UTF-8"?>
<!DOCTYPE svg PUBLIC "-//W3C//DTD SVG 1.1//EN" "http://www.w3.org/Graphics/SVG/1.1/DTD/svg11.dtd">
<!-- Creator: CorelDRAW -->
<svg xmlns="http://www.w3.org/2000/svg" xml:space="preserve" width="2048px" height="2048px" style="shape-rendering:geometricPrecision; text-rendering:geometricPrecision; image-rendering:optimizeQuality; fill-rule:evenodd; clip-rule:evenodd"
viewBox="0 0 2048 2048"
 xmlns:xlink="http://www.w3.org/1999/xlink">
 <defs>
  <style type="text/css">
   <![CDATA[
    .fil7 {fill:none}
    .fil4 {fill:#661804}
    .fil6 {fill:#B0BEC5}
    .fil3 {fill:#CB4400}
    .fil1 {fill:#CFD8DC}
    .fil2 {fill:#D56830}
    .fil5 {fill:#FFC399}
    .fil0 {fill:#455A64;fill-rule:nonzero}
   ]]>
  </style>
 </defs>
 <g id="Layer_x0020_1">
  <metadata id="CorelCorpID_0Corel-Layer"/>
  <path class="fil0" d="M1540.88 545.059l0.00354331 0c69.0898,0 131.876,28.2402 177.375,73.7398 45.4985,45.4973 73.7398,108.285 73.7398,177.375l0 8.87245 -502.231 0 0 -8.87245c0,-69.0886 28.2402,-131.877 73.7398,-177.375 45.4973,-45.4985 108.285,-73.7398 177.373,-73.7398z"/>
  <polygon class="fil1" points="1792,1503.02 1792,804.963 1289.77,804.963 1289.77,1055.93 1291.28,1057.95 1289.77,1059.08 1289.77,1503.02 1289.77,1535.16 1321.9,1535.16 1759.87,1535.16 1792,1535.16 "/>
  <polygon class="fil2" points="491.503,743.039 256.14,1057.94 290.962,1083.93 366.984,982.218 366.984,1509.5 366.984,1531.25 388.728,1531.25 1158.55,1531.25 1180.3,1531.25 1180.3,1509.5 1180.3,982.218 1256.32,1083.93 1291.14,1057.94 1055.78,743.039 1051.79,738.963 787.06,530.459 773.64,519.89 760.221,530.459 495.495,738.963 "/>
  <polygon class="fil3" points="1141.59,1531.25 1158.55,1531.25 1180.3,1531.25 1180.3,1509.5 1180.3,982.218 1180.3,909.637 1141.59,857.855 "/>
  <polygon class="fil3" points="1064.19,1531.25 1102.89,1531.25 1102.89,806.073 1064.19,754.29 "/>
  <polygon class="fil3" points="986.781,1531.25 1025.48,1531.25 1025.48,718.247 986.781,687.764 "/>
  <polygon class="fil3" points="909.374,1531.25 948.078,1531.25 948.078,657.28 909.374,626.797 "/>
  <polygon class="fil3" points="831.968,1531.25 870.67,1531.25 870.67,596.313 831.968,565.829 "/>
  <polygon class="fil3" points="754.561,1531.25 793.264,1531.25 793.264,535.346 787.06,530.459 773.64,519.89 760.221,530.459 754.561,534.917 "/>
  <polygon class="fil3" points="677.155,1531.25 715.857,1531.25 715.857,565.401 677.155,595.884 "/>
  <polygon class="fil3" points="599.748,1531.25 638.451,1531.25 638.451,626.367 599.748,656.851 "/>
  <polygon class="fil3" points="522.342,1531.25 561.045,1531.25 561.045,687.334 522.342,717.818 "/>
  <polygon class="fil3" points="483.639,753.56 444.936,805.344 444.936,1531.25 483.639,1531.25 "/>
  <polygon class="fil3" points="406.232,857.127 367.53,908.909 367.53,1531.25 388.728,1531.25 406.232,1531.25 "/>
  <polygon class="fil4" points="1051.79,738.963 787.06,530.459 773.64,519.89 760.221,530.459 495.495,738.963 491.503,743.039 256.14,1057.94 290.962,1083.93 366.984,982.218 366.984,982.25 491.503,815.652 495.495,811.576 760.221,603.073 773.64,592.503 787.06,603.073 1051.79,811.576 1055.78,815.652 1180.3,982.25 1180.3,982.218 1256.32,1083.93 1291.14,1057.94 1055.78,743.039 "/>
  <rect class="fil5" x="674.418" y="738.847" width="198.99" height="198.99"/>
  <rect class="fil4" x="688.691" y="753.12" width="170.444" height="170.444"/>
  <rect class="fil5" transform="matrix(0.519934 0.519934 -3.7646 3.7646 855.858 746.305)" width="19.4114" height="46.2154"/>
  <rect class="fil5" transform="matrix(-0.519934 0.519934 3.7646 3.7646 691.967 746.305)" width="19.4114" height="46.2154"/>
  <rect class="fil5" x="542.518" y="1168.82" width="198.99" height="362.429"/>
  <rect class="fil4" x="556.791" y="1183.03" width="170.444" height="348.216"/>
  <polygon class="fil5" points="726.425,1172.15 738.786,1179.29 554.651,1531.25 542.291,1524.11 "/>
  <polygon class="fil5" points="554.653,1172.15 542.292,1179.29 726.427,1531.25 738.787,1524.11 "/>
  <rect class="fil5" x="806.545" y="1168.82" width="198.99" height="362.429"/>
  <rect class="fil4" x="820.818" y="1183.03" width="170.444" height="348.216"/>
  <polygon class="fil5" points="990.453,1172.15 1002.81,1179.29 818.679,1531.25 806.318,1524.11 "/>
  <polygon class="fil5" points="818.681,1172.15 806.319,1179.29 990.454,1531.25 1002.81,1524.11 "/>
  <g id="_459616736">
   <polygon id="_459617984" class="fil6" points="1715.05,1535.16 1753.75,1535.16 1753.75,804.963 1715.05,804.963 "/>
   <polygon id="_459617432" class="fil6" points="1637.64,1535.16 1676.34,1535.16 1676.34,804.963 1637.64,804.963 "/>
   <polygon id="_459617768" class="fil6" points="1560.24,1535.16 1598.94,1535.16 1598.94,804.963 1560.24,804.963 "/>
   <polygon id="_459617288" class="fil6" points="1482.83,1535.16 1521.53,1535.16 1521.53,804.963 1482.83,804.963 "/>
   <polygon id="_459616952" class="fil6" points="1405.42,804.963 1405.42,1535.16 1444.13,1535.16 1444.13,804.963 "/>
   <polygon id="_459617048" class="fil6" points="1328.02,804.963 1328.02,1535.16 1349.22,1535.16 1366.72,1535.16 1366.72,804.963 "/>
  </g>
  <g id="_459615944">
   <rect id="_459616880" class="fil4" x="1431.51" y="776.263" width="39.7733" height="596.607" rx="19.8862" ry="19.8862"/>
   <rect id="_459616664" class="fil4" x="1610.49" y="776.263" width="39.7733" height="596.607" rx="19.8862" ry="19.8862"/>
   <rect id="_459617000" class="fil4" transform="matrix(6.3421E-015 0.621465 -0.239464 1.64592E-014 1642.54 835.925)" width="63.9993" height="832.001" rx="19.8862" ry="19.8862"/>
   <rect id="_459616592" class="fil4" transform="matrix(6.3421E-015 0.621465 -0.239464 1.64592E-014 1642.54 935.359)" width="63.9993" height="832.001" rx="19.8862" ry="19.8862"/>
   <rect id="_459616280" class="fil4" transform="matrix(6.3421E-015 0.621465 -0.239464 1.64592E-014 1642.54 1034.79)" width="63.9993" height="832.001" rx="19.8862" ry="19.8862"/>
   <rect id="_459615968" class="fil4" transform="matrix(6.3421E-015 0.621465 -0.239464 1.64592E-014 1642.54 1134.23)" width="63.9993" height="832.001" rx="19.8862" ry="19.8862"/>
   <rect id="_459615896" class="fil4" transform="matrix(6.3421E-015 0.621465 -0.239464 1.64592E-014 1642.54 1233.66)" width="63.9993" height="832.001" rx="19.8862" ry="19.8862"/>
  </g>
 </g>
 <rect class="fil7" width="2048" height="2048"/>
</svg>
