<?xml version="1.0" encoding="UTF-8"?>
<!DOCTYPE svg PUBLIC "-//W3C//DTD SVG 1.1//EN" "http://www.w3.org/Graphics/SVG/1.1/DTD/svg11.dtd">
<!-- Creator: CorelDRAW -->
<svg xmlns="http://www.w3.org/2000/svg" xml:space="preserve" width="2048px" height="2048px" style="shape-rendering:geometricPrecision; text-rendering:geometricPrecision; image-rendering:optimizeQuality; fill-rule:evenodd; clip-rule:evenodd"
viewBox="0 0 2048 2048"
 xmlns:xlink="http://www.w3.org/1999/xlink">
 <defs>
  <style type="text/css">
   <![CDATA[
    .fil7 {fill:none}
    .fil6 {fill:#212121}
    .fil3 {fill:#424242}
    .fil5 {fill:#80DEEA}
    .fil4 {fill:#FFEBEE}
    .fil2 {fill:#424242;fill-rule:nonzero}
    .fil1 {fill:#C84A47;fill-rule:nonzero}
    .fil0 {fill:#EF5350;fill-rule:nonzero}
   ]]>
  </style>
 </defs>
 <g id="Layer_x0020_1">
  <metadata id="CorelCorpID_0Corel-Layer"/>
  <g id="_459624224">
   <path id="_459592952" class="fil0" d="M288 1444.78l-32.0008 0 0 -32.0008 0 -338.315c0,-47.3835 19.363,-90.4383 50.5548,-121.63 31.1929,-31.1929 74.2477,-50.5548 121.631,-50.5548l9.81497 0 1225.69 0 32.0008 0 0.315355 0 0 542.575 -1408 0 0 -0.0744095z"/>
   <path id="_459592856" class="fil1" d="M1696 1030.65l0 414.205 -501.837 0c-8.99174,-17.5536 -16.4114,-35.8925 -22.1469,-54.7784 -9.5445,-31.428 -14.3291,-64.0808 -14.3291,-96.9225 0,-88.6312 34.9205,-172.912 97.5816,-235.573 62.6611,-62.6599 146.943,-97.5816 235.575,-97.5816 54.4205,0 107.736,13.1315 155.826,38.6233 17.3587,9.20198 33.8729,19.9323 49.33,32.028zm-205.156 198.919c-16.9488,0 -32.9764,6.64252 -44.9587,18.6248 -11.9835,11.9835 -18.626,28.0099 -18.626,44.9599 0,16.9488 6.64371,32.9764 18.626,44.9599 11.9823,11.9823 28.0099,18.6248 44.9587,18.6248 16.9488,0 32.9764,-6.64252 44.9587,-18.626 11.9835,-11.9823 18.626,-28.0099 18.626,-44.9587 0,-16.9488 -6.64371,-32.9764 -18.626,-44.9599 -11.9823,-11.9823 -28.0099,-18.6248 -44.9587,-18.6248z"/>
   <path id="_459593360" class="fil1" d="M793.686 1444.86l-470.933 0c-5.30906,-20.2205 -7.97127,-41.0492 -7.97127,-61.9819 0,-0.804331 0.00472441,-1.60748 0.011811,-2.41181 0.634252,-63.9024 26.1106,-124.543 71.2926,-169.723 45.7807,-45.7796 107.378,-71.3032 172.133,-71.3032 64.7552,0 126.354,25.5225 172.135,71.3032 45.1796,45.1807 70.6571,105.821 71.2914,169.723 0.00708662,0.804331 0.011811,1.60748 0.011811,2.41181 0,20.9339 -2.66221,41.7626 -7.97127,61.9819zm-235.466 -94.9005c-8.78859,0 -17.0622,3.43111 -23.276,9.64371 -6.2126,6.2126 -9.64253,14.4874 -9.64253,23.2748 0,8.78859 3.42992,17.061 9.64371,23.2736 6.2126,6.21378 14.4874,9.64371 23.2748,9.64371 8.78741,0 17.061,-3.42992 23.2736,-9.64253 6.21378,-6.21378 9.64371,-14.4862 9.64371,-23.2748 0,-8.78859 -3.42992,-17.0622 -9.64371,-23.2748 -6.2126,-6.21378 -14.4851,-9.64371 -23.2736,-9.64371z"/>
   <path id="_459593168" class="fil0" d="M876.36 920.627l133.33 -404.306c4.47992,-13.585 10.3488,-27.0662 19.3595,-38.2264 11.948,-14.7969 27.7004,-24.4063 49.3181,-24.4063l525.506 0 32.0008 0 0 32.0008 0 448.846 -64.0016 0 0 -416.846 -493.505 0 -0.068504 0.0011811 0.124016 0.100394c0.206693,0.0708662 0.479528,0.174803 0.376772,0.302362 -3.13229,3.87992 -5.88308,10.7197 -8.35867,18.228l-133.33 404.306 -60.7512 -20.0008zm201.939 -402.936c-0.167717,0.00590552 -0.0448819,0.0413386 0.124016,0.100394l-0.124016 -0.100394z"/>
   <path id="_459592976" class="fil0" d="M945.936 453.689c-17.6728,0 -32.0008,14.328 -32.0008,32.0008 0,17.6728 14.328,32.0008 32.0008,32.0008l717.749 0c17.6728,0 32.0008,-14.328 32.0008,-32.0008 0,-17.6728 -14.328,-32.0008 -32.0008,-32.0008l-717.749 0z"/>
   <polygon id="_459593288" class="fil0" points="1187.28,515.595 1187.28,934.282 1123.28,934.282 1123.28,515.595 "/>
   <path id="_459592040" class="fil2" d="M449.38 934.282l0 -332.101c0,-79.1221 64.5556,-108.555 135.118,-108.555l-29.6882 67.1268c-11.3599,0 -21.711,4.67008 -29.2347,12.1937 -7.52363,7.52363 -12.1937,17.8748 -12.1937,29.2347l0 332.101c-20.8299,13.2473 -42.1323,14.0976 -64.0016,0z"/>
   <path id="_459592640" class="fil3" d="M1792 1293.16c0,-83.1568 -33.711,-158.447 -88.2095,-212.946 -2.65276,-2.65276 -5.35512,-5.25709 -8.10591,-7.81064 -19.1788,-17.804 -40.6807,-33.1394 -64.0016,-45.502 -42.0284,-22.278 -89.9611,-34.8969 -140.839,-34.8969 -83.1579,0 -158.449,33.711 -212.947,88.2095 -54.4996,54.4985 -88.2095,129.788 -88.2095,212.946 0,30.4772 4.52835,59.8973 12.9484,87.6249 6.85394,22.5697 16.2862,44.0185 27.9544,64.0016 13.1091,22.4516 29.0398,43.0536 47.3067,61.3205 54.4985,54.4985 129.789,88.2095 212.947,88.2095 83.1579,0 158.449,-33.711 212.947,-88.2095 54.4985,-54.4985 88.2095,-129.789 88.2095,-212.947zm-301.157 -95.5843c26.3906,0 50.2878,10.6996 67.5863,27.9981 17.2973,17.2984 27.9981,41.1957 27.9981,67.5863 0,26.3906 -10.7008,50.2878 -27.9981,67.5863 -17.2984,17.2973 -41.1957,27.9981 -67.5863,27.9981 -26.3906,0 -50.289,-10.7008 -67.5863,-27.9981 -17.2973,-17.2984 -27.9981,-41.1957 -27.9981,-67.5863 0,-26.3906 10.6996,-50.2867 27.9981,-67.5863 17.2973,-17.2973 41.1957,-27.9981 67.5863,-27.9981z"/>
   <path id="_459592544" class="fil3" d="M769.647 1380.78c-0.557481,-57.5528 -24.1158,-109.608 -61.9205,-147.413 -38.2642,-38.263 -91.1245,-61.9311 -149.508,-61.9311 -58.3831,0 -111.242,23.6681 -149.506,61.9311 -37.8059,37.8059 -61.363,89.8607 -61.9205,147.413 -0.00708662,0.696851 -0.0106299,1.39488 -0.0106299,2.0941 0,21.5398 3.22087,42.3272 9.20906,61.9075 10.2413,33.4925 28.5744,63.4512 52.7221,87.5989 38.2642,38.2642 91.1233,61.9311 149.506,61.9311 58.3831,0 111.243,-23.6669 149.508,-61.9311 24.1465,-24.1477 42.4807,-54.1063 52.7221,-87.5989 5.98701,-19.5803 9.20906,-40.3677 9.20906,-61.9075 0,-0.699213 -0.00354331,-1.39725 -0.0106299,-2.0941zm-211.427 -62.8241c17.9244,0 34.154,7.26851 45.9012,19.0158 11.7473,11.7473 19.0158,27.978 19.0158,45.9024 0,17.9244 -7.26851,34.1528 -19.0158,45.9012 -11.7473,11.7473 -27.978,19.0158 -45.9012,19.0158 -17.9232,0 -34.154,-7.26851 -45.9024,-19.0158 -11.7473,-11.7484 -19.0158,-27.9768 -19.0158,-45.9012 0,-17.9244 7.26851,-34.1551 19.0158,-45.9024 11.7484,-11.7473 27.9792,-19.0158 45.9024,-19.0158z"/>
   <circle id="_459592472" class="fil4" cx="558.22" cy="1382.87" r="81.7808"/>
   <circle id="_459591992" class="fil4" cx="1490.85" cy="1293.16" r="173.156"/>
   <polygon id="_459592208" class="fil5" points="1571.87,902.281 1571.87,517.691 1187.28,517.691 1187.28,902.281 "/>
   <path id="_459592256" class="fil5" d="M1123.28 902.281l0 -384.591 -44.9126 0 -0.068504 0.0011811 0.124016 0.100394c0.206693,0.0708662 0.479528,0.174803 0.376772,0.302362 -3.13229,3.87992 -5.88308,10.7197 -8.35867,18.228l-120.684 365.959 173.523 0z"/>
   <rect id="_459624176" class="fil6" x="424.022" y="649.163" width="114.718" height="180.469" rx="19.2579" ry="19.2579"/>
  </g>
 </g>
 <rect class="fil7" width="2048" height="2048"/>
</svg>
