<?xml version="1.0" encoding="UTF-8"?>
<!DOCTYPE svg PUBLIC "-//W3C//DTD SVG 1.1//EN" "http://www.w3.org/Graphics/SVG/1.1/DTD/svg11.dtd">
<!-- Creator: CorelDRAW -->
<svg xmlns="http://www.w3.org/2000/svg" xml:space="preserve" width="2048px" height="2048px" style="shape-rendering:geometricPrecision; text-rendering:geometricPrecision; image-rendering:optimizeQuality; fill-rule:evenodd; clip-rule:evenodd"
viewBox="0 0 2048 2048"
 xmlns:xlink="http://www.w3.org/1999/xlink">
 <defs>
  <style type="text/css">
   <![CDATA[
    .fil3 {fill:none}
    .fil0 {fill:#43A047;fill-rule:nonzero}
    .fil2 {fill:#5D4037;fill-rule:nonzero}
    .fil1 {fill:#66BB6A;fill-rule:nonzero}
   ]]>
  </style>
 </defs>
 <g id="Layer_x0020_1">
  <metadata id="CorelCorpID_0Corel-Layer"/>
  <g id="_459594080">
   <path id="_258795352" class="fil0" d="M1102.71 579.697c-8.58072,110.815 -45.5906,168.77 -85.3796,192.268 -38.7933,22.911 -80.0008,15.5114 -107.361,-8.14134 -27.3071,-23.6079 -40.5473,-63.2646 -23.498,-104.936 17.5134,-42.7985 69.489,-87.8198 177.806,-112.31l41.7284 -9.43465 -3.29528 42.554z"/>
   <path id="_258795544" class="fil0" d="M558.315 676.928c87.3946,-68.6493 155.082,-80.6138 199.275,-67.2249 43.1091,13.0618 65.5394,48.4689 66.6367,84.6934 1.09252,36.1028 -19.1858,72.7158 -61.4823,88.3831 -43.2402,16.0169 -111.462,8.15552 -202.821,-55.0607l-35.2311 -24.378 33.6236 -26.413z"/>
   <path id="_258795760" class="fil1" d="M1357.58 707.076c81.717,75.0036 98.4851,146.982 86.4438,199.043 -9.84686,42.5705 -39.2492,72.5658 -70.754,83.067 -36.8374,12.2764 -75.6627,0.843308 -96.0367,-42.437 -18.9307,-40.2166 -18.4335,-113.7 29.928,-228.675l17.3811 -41.3209 33.0378 30.3225z"/>
   <path id="_258795808" class="fil1" d="M1660.19 1144.71c-89.1178,66.0071 -162.977,68.8182 -211.823,47.1213 -39.9756,-17.7579 -63.8705,-52.2567 -68.1969,-85.0926 -5.07874,-38.5477 13.5236,-74.5453 59.928,-86.3564 43.0406,-10.9559 115.083,3.48189 218.855,72.7949l37.2319 24.8705 -35.9953 26.6622z"/>
   <path id="_258795472" class="fil1" d="M901.016 883.404c86.1213,8.88898 128.547,51.3189 143.783,97.6099 13.2957,40.3902 4.57796,83.9753 -14.2429,111.554 -25.0205,36.6603 -64.6347,50.6174 -103.082,16.2756 -27.3331,-24.4122 -52.4847,-82.2544 -61.1847,-191.578l-3.00355 -37.7551 37.7303 3.8941z"/>
   <path id="_459616352" class="fil1" d="M1201.45 1233.56c14.2465,46.5768 4.0878,105.656 -61.0382,162.51l-28.5945 24.9603 -19.3524 -32.6221c-55.9654,-94.3418 -68.8028,-156.043 -60.5752,-191.678 11.5949,-50.2193 52.0217,-61.6583 93.6237,-46.1386 31.2449,11.6563 63.4831,42.2492 75.9367,82.9678z"/>
   <path id="_459592760" class="fil0" d="M546.064 1235.59c-45.2552,18.0579 -104.995,12.8197 -167.08,-47.4142l-27.1677 -26.3587 30.874 -21.9603c89.4544,-63.6272 149.867,-81.5505 186.012,-76.3075 51.0662,7.40788 65.8382,46.7599 53.8099,89.5123 -9.02363,32.0811 -36.8587,66.7312 -76.4481,82.5284z"/>
   <path id="_459619112" class="fil0" d="M528.707 948.59c-12.8776,-48.4063 9.61064,-108.11 116.974,-136.671l32.2087 -8.5689 6.71693 32.7886c25.4445,124.186 -10.6028,174.734 -54.0437,183.633 -22.148,4.5378 -45.4146,-2.30079 -64.2662,-16.3311 -17.4189,-12.965 -31.6536,-32.5382 -37.5898,-54.8504z"/>
   <path id="_459613784" class="fil0" d="M814.547 1228.82c-0.976772,48.7347 -29.0693,101.75 -108.752,135.512l-34.7929 14.7425 -8.21339 -36.9862c-23.7992,-107.183 -16.8036,-169.8 2.08701,-201.044 26.6847,-44.1343 68.6646,-42.4217 103.355,-14.7142 26.0646,20.8193 47.1721,59.9327 46.317,102.49z"/>
   <path id="_459610400" class="fil0" d="M701.099 959.434c-7.27087,-48.189 11.4567,-105.186 84.2953,-151.937l31.8414 -20.4366 14.3776 35.1414c41.5654,101.594 45.2552,164.479 31.9217,198.456 -18.8433,48.0142 -60.5056,53.4248 -99.3721,31.9843 -29.2595,-16.1445 -56.7166,-51.1394 -63.0638,-93.2079z"/>
   <path id="_459605912" class="fil2" d="M1295.27 553.368c0,-17.4036 -14.1083,-31.5118 -31.513,-31.5118 -17.4036,0 -31.5118,14.1083 -31.5118,31.5118 0.140551,231.475 -76.7422,342.999 -160.439,464.407 -106.043,153.821 -222.391,322.59 -222.391,742.589 0,17.4709 14.165,31.6359 31.6359,31.6359 17.4721,0 31.637,-14.165 31.637,-31.6359 0,-400.654 110.4,-560.795 211.019,-706.752 89.5016,-129.827 171.716,-249.084 171.562,-500.244z"/>
   <path id="_459596744" class="fil2" d="M470.984 842.442c0,-17.4036 -14.1083,-31.513 -31.5118,-31.513 -17.4047,0 -31.513,14.1095 -31.513,31.513 -0.11811,192.673 112.023,216.123 234.097,241.644 118.076,24.6862 247.624,51.7713 247.624,310.271 0,17.4709 14.165,31.6359 31.637,31.6359 17.4709,0 31.6359,-14.165 31.6359,-31.6359 0,-309.744 -155.927,-342.345 -298.047,-372.058 -95.9056,-20.0516 -184.009,-38.4733 -183.923,-179.857z"/>
   <path id="_459593720" class="fil2" d="M882.4 567.657c2.45669,-17.2654 -9.5504,-33.2575 -26.8158,-35.7142 -17.2665,-2.45669 -33.2575,9.5504 -35.7142,26.8169 -34.9229,241.762 59.5678,272.333 164.946,306.424 49.2331,15.9272 101.476,32.8299 134.869,82.9997 9.62245,14.5382 29.2099,18.5209 43.7469,8.89843 14.537,-9.62245 18.5197,-29.2099 8.89725,-43.7481 -45.6201,-68.5418 -108.745,-88.9642 -168.235,-108.209 -78.5741,-25.4197 -149.03,-48.2162 -121.694,-237.468z"/>
   <path id="_459593864" class="fil2" d="M1558 854.181c6.48308,-16.174 -1.37362,-34.5449 -17.5477,-41.0268 -16.1752,-6.48308 -34.5461,1.37362 -41.028,17.5477 -66.7725,166.932 -176.306,188.603 -281.825,209.478 -73.702,14.5795 -145.701,28.8248 -207.118,83.6103 -13.0347,11.6008 -14.1969,31.5768 -2.59488,44.6115 11.602,13.0335 31.5768,14.1957 44.6115,2.5937 48.5788,-43.3323 112.143,-55.9087 177.213,-68.7804 122.061,-24.1477 248.763,-49.2142 328.29,-248.034z"/>
   <path id="_459593816" class="fil0" d="M958.233 342.995c27.0331,107.686 10.337,174.354 -19.9252,209.271 -29.517,34.0583 -70.93,40.1422 -104.365,26.4154 -33.4441,-13.7327 -58.6359,-47.1307 -55.7079,-92.0245 3.00709,-46.089 38.0185,-105.256 133.039,-162.94l36.5504 -22.187 10.4079 41.465z"/>
   <path id="_459593456" class="fil1" d="M1391.07 297.466c31.154,124.109 12.2787,200.525 -22.1764,240.278 -32.8784,37.9347 -78.9414,44.739 -116.106,29.478 -37.1717,-15.2634 -65.1686,-52.4398 -61.9063,-102.454 3.42402,-52.4752 43.7351,-120.112 153.229,-186.58l36.5492 -22.1882 10.4102 41.4662z"/>
   <path id="_459594176" class="fil1" d="M1592.25 594.211c64.2556,90.4241 65.6091,164.345 42.9449,212.772 -18.5398,39.6154 -53.5087,62.8241 -86.432,66.5032 -38.6185,4.31575 -74.23,-15.0142 -85.1327,-61.6819 -10.1197,-43.3087 5.69646,-115.07 76.9654,-217.347l25.6606 -36.8256 25.9937 36.5788z"/>
  </g>
 </g>
 <rect class="fil3" width="2048" height="2048"/>
</svg>
