<?xml version="1.0" encoding="UTF-8"?>
<!DOCTYPE svg PUBLIC "-//W3C//DTD SVG 1.1//EN" "http://www.w3.org/Graphics/SVG/1.1/DTD/svg11.dtd">
<!-- Creator: CorelDRAW -->
<svg xmlns="http://www.w3.org/2000/svg" xml:space="preserve" width="2048px" height="2048px" style="shape-rendering:geometricPrecision; text-rendering:geometricPrecision; image-rendering:optimizeQuality; fill-rule:evenodd; clip-rule:evenodd"
viewBox="0 0 2048 2048"
 xmlns:xlink="http://www.w3.org/1999/xlink">
 <defs>
  <style type="text/css">
   <![CDATA[
    .fil6 {fill:none}
    .fil2 {fill:#2E7D32;fill-rule:nonzero}
    .fil3 {fill:#388E3C;fill-rule:nonzero}
    .fil1 {fill:#43A047;fill-rule:nonzero}
    .fil0 {fill:#6E1E59;fill-rule:nonzero}
    .fil4 {fill:#F57F17;fill-rule:nonzero}
    .fil5 {fill:#FFA000;fill-rule:nonzero}
   ]]>
  </style>
 </defs>
 <g id="Layer_x0020_1">
  <metadata id="CorelCorpID_0Corel-Layer"/>
  <g id="_258796048">
   <g>
    <path id="_258797560" class="fil0" d="M1090.49 652.268c4.31103,6.91182 21.4748,66.7595 25.0855,73.963 16.4055,32.7319 25.3618,68.0115 25.3618,104.737 0,83.5831 -45.6166,158.641 -119.368,212.423 -71.0363,51.8044 -168.569,83.8453 -275.755,83.8453 -107.185,0 -204.719,-32.041 -275.756,-83.8453 -73.7516,-53.7815 -119.368,-128.839 -119.368,-212.423 0,-27.1193 35.2311,-156.741 49.2083,-178.538l144.251 -4.38426 437.113 14.7791 98.5442 -8.4626 10.6831 -2.0941z"/>
    <path id="_258797776" class="fil1" d="M570.455 703.382l-178.541 -31.187c-9.06497,-1.22717 -17.4602,-6.56575 -22.2449,-15.1772 -8.05394,-14.4945 -2.83229,-32.7768 11.6634,-40.8307l0.0472441 0.0862205c123.064,-144.005 622.675,-172.036 742.986,-0.680315 8.01497,4.0252 14.1496,11.5807 16.0075,21.0626 3.19134,16.2732 -7.41379,32.054 -23.687,35.2441l-5.77796 -29.4662 5.74725 29.4414 -158.323 31.0488 40.1233 160.492c2.77559,9.03898 1.24961,19.2414 -4.99607,27.2729 -10.1811,13.0902 -29.0469,15.4465 -42.137,5.26654l0.011811 -0.0153543 -198.766 -154.596 -172.204 129.154c-7.42914,6.66615 -18.0177,9.48544 -28.3252,6.54095 -15.9449,-4.55552 -25.1776,-21.176 -20.6232,-37.1209l0.0271654 0.00826772 39.0118 -136.544z"/>
    <path id="_258796768" class="fil1" d="M725.143 581.393c-5.5063,15.6118 2.68583,32.7319 18.2977,38.2382 15.6106,5.5063 32.7319,-2.68701 38.2382,-18.2977 15.5268,-43.7729 26.811,-88.2698 28.6087,-134.367 1.82953,-46.9382 -6.30237,-94.7363 -29.8984,-143.86 -7.1256,-14.8984 -24.9827,-21.2008 -39.8811,-14.0752 -14.8984,7.12441 -21.2008,24.9815 -14.0752,39.88 18.9756,39.5044 25.513,78.0379 24.0343,115.943 -1.51063,38.7449 -11.5169,77.6162 -25.324,116.538z"/>
    <path id="_258797248" class="fil0" d="M1629.96 1038.95c-31.6973,150.38 -98.9292,416.658 -166.921,530.772 -90.4926,151.88 -217.497,228.8 -397.028,123.663 -134.682,-78.8705 -122.8,-176.623 -52.2355,-297.122 29.1272,-49.7386 68.3953,-102.776 111.043,-160.377 51.6981,-69.8268 129.749,-255.038 177.692,-338.693 11.7508,1.53898 23.8382,-0.43937 34.8177,-5.67638l148.823 -70.9926 103.239 172.384 -0.0720473 0.0625985 13.0819 21.8469c6.6626,11.126 16.4351,19.3158 27.5599,24.1323z"/>
    <path id="_258797056" class="fil1" d="M1335 788.162l-91.3146 -102.163c-3.82914,-3.55985 -6.77835,-8.16379 -8.35158,-13.5449 -4.65473,-15.9165 4.4752,-32.5937 20.3917,-37.2485l8.42835 28.8189 -8.32796 -28.7362c35.7603,-10.4575 72.0579,-21.9532 103.606,-31.9429 97.9418,-31.0146 150.435,-47.6374 203.347,-29.8902 59.3067,19.891 103.71,79.4103 199.386,207.662 28.7481,38.5359 -9.72284,-12.7902 22.1268,29.7933 2.51929,2.79921 4.55197,6.12166 5.91142,9.88347 5.63268,15.5965 -2.44488,32.8087 -18.0425,38.4402l-10.1988 -28.2414 10.0878 28.1516 -104.844 37.8662 -4.57559 193.553c0.679134,10.8496 -4.57441,21.691 -14.5441,27.6603 -14.2264,8.5193 -32.6681,3.89292 -41.1874,-10.3347l0.0732284 -0.0614174 -130.358 -217.668 -173.476 82.754c-8.23111,4.24725 -18.3083,4.64292 -27.2256,0.18189 -14.8299,-7.41969 -20.8382,-25.4587 -13.4197,-40.2886l0.114567 0.056693 72.3934 -144.702z"/>
    <path id="_258797416" class="fil1" d="M1553.81 609.115l75.326 -281.124c24.6295,-11.2913 43.578,-4.99489 57.9437,15.4831l-75.326 281.124 -57.9437 -15.4831z"/>
   </g>
   <g>
    <path id="_243194936" class="fil2" d="M1067.42 1126.38c-12.2327,9.4878 -15.6945,25.154 -7.73268,34.9902 7.96182,9.83741 24.3355,10.1197 36.5693,0.63189 37.9878,-29.3835 75.7914,-48.1217 113.398,-55.8709 37.5048,-7.72796 75.5304,-4.67599 114.084,9.48544 12.561,4.60512 28.7658,-2.08819 36.1949,-14.9528 7.42914,-12.8634 3.27166,-27.026 -9.2882,-31.6299 -47.4437,-17.4295 -94.9725,-21.0307 -142.577,-11.2217 -47.504,9.7878 -94.3808,32.7815 -140.648,68.569l0 -0.0011811z"/>
    <path id="_243200000" class="fil2" d="M977.977 1021.39c-11.9693,9.81497 -14.8878,25.4918 -6.51733,35.0138 8.37048,9.52205 24.8599,9.28347 36.8292,-0.531496 45.1784,-36.9485 77.6316,-77.0646 96.9461,-120.447 19.3311,-43.4174 25.1445,-89.4296 17.0197,-138.106 -2.11063,-12.8929 -15.5221,-19.6973 -29.9504,-15.2008 -14.4295,4.49764 -24.4146,18.5953 -22.304,31.487 6.60827,39.5977 2.12126,76.4835 -13.128,110.732 -15.2646,34.2827 -41.6811,66.6154 -78.8965,97.0513l0.0011811 0.0011811z"/>
    <path id="_243197528" class="fil2" d="M1043.96 1083.88c-11.9705,9.81733 -14.889,25.4941 -6.51851,35.0162 8.37048,9.52087 24.8599,9.28347 36.8292,-0.532678 19.2118,-15.7122 38.8796,-29.4059 57.4772,-42.3555 69.306,-48.2563 126.155,-87.8434 112.317,-170.756 -2.11063,-12.8906 -15.5209,-19.6949 -29.9504,-15.1996 -14.4295,4.49646 -24.4158,18.5965 -22.3051,31.487 8.50631,50.9646 -34.076,80.6162 -85.9902,116.763 -20.0445,13.9559 -41.2406,28.7162 -61.8591,45.5776l0 0z"/>
    <path id="_243201080" class="fil3" d="M1009.73 1043.15c-11.9705,9.81615 -14.8878,25.4929 -6.51851,35.0162 8.37048,9.52087 24.8599,9.28347 36.8303,-0.532678 42.6803,-34.9063 75.1926,-65.6067 101.787,-97.0654 27.0047,-31.9406 47.4496,-64.089 65.6634,-101.489 6.38268,-13.2071 0.908268,-26.7862 -12.2256,-30.3272 -13.135,-3.54095 -28.9583,4.29449 -35.3422,17.5004 -16.0193,32.8949 -33.7914,60.9213 -57.0402,88.4221 -23.6563,27.9803 -53.4426,55.9985 -93.1548,88.4753l0 0z"/>
    <path id="_243200144" class="fil4" d="M869.37 1050.95c61.7363,-29.5973 118.326,-37.2213 165.457,-13.4965 11.3055,5.69174 21.9319,13.1965 31.7988,22.6429l1.30866 1.25315 1.17874 1.71732c10.8366,15.7866 18.098,31.8768 22.1043,48.2008 12.1547,49.5473 -4.68662,100.184 -42.1512,150.393 -143.985,192.953 -564.25,358.292 -793.067,444.305 140.023,-198.708 393.708,-549.711 613.369,-655.016l0.0011811 0z"/>
    <path id="_243203000" class="fil5" d="M1019.43 1296.96c-6.88229,7.38426 -14.1532,14.7177 -21.7512,22.0063 -61.2048,-10.9713 -108.93,-36.9 -142.648,-78.3627 -30.2055,-37.1422 -48.9343,-86.6079 -55.8059,-148.802 8.34686,-5.65276 16.6665,-11.0162 24.9543,-16.0925 5.59371,62.726 23.276,111.91 52.63,148.005 32.8122,40.35 80.5548,64.5508 142.621,73.2461l0 0z"/>
    <path id="_243195776" class="fil5" d="M922.322 1351.94c-104.88,51.7182 -226.85,-113.746 -174.966,-198.265 -2.05394,110.754 45.1748,186.98 174.966,198.265z"/>
    <path id="_243196832" class="fil5" d="M510.026 1573.03c-44.1839,21.789 -95.569,-47.9209 -73.7115,-83.5264 -0.864568,46.6595 19.0323,78.7737 73.7115,83.5264z"/>
   </g>
  </g>
 </g>
 <rect class="fil6" width="2048" height="2048"/>
</svg>
