<?xml version="1.0" encoding="UTF-8"?>
<!DOCTYPE svg PUBLIC "-//W3C//DTD SVG 1.1//EN" "http://www.w3.org/Graphics/SVG/1.1/DTD/svg11.dtd">
<!-- Creator: CorelDRAW -->
<svg xmlns="http://www.w3.org/2000/svg" xml:space="preserve" width="2048px" height="2048px" style="shape-rendering:geometricPrecision; text-rendering:geometricPrecision; image-rendering:optimizeQuality; fill-rule:evenodd; clip-rule:evenodd"
viewBox="0 0 2048 2048"
 xmlns:xlink="http://www.w3.org/1999/xlink">
 <defs>
  <style type="text/css">
   <![CDATA[
    .fil8 {fill:none}
    .fil0 {fill:#3F1D15}
    .fil6 {fill:#661804}
    .fil3 {fill:#D59706}
    .fil4 {fill:#E66400}
    .fil2 {fill:#FFB300}
    .fil5 {fill:#FFC399}
    .fil7 {fill:#661804;fill-rule:nonzero}
    .fil1 {fill:#752F1D;fill-rule:nonzero}
   ]]>
  </style>
 </defs>
 <g id="Layer_x0020_1">
  <metadata id="CorelCorpID_0Corel-Layer"/>
  <g id="_258765520">
   <rect id="_258770872" class="fil0" x="512.001" y="968.975" width="998.399" height="691.2"/>
   <polygon id="_258770992" class="fil1" points="1585.96,1660.17 1483.79,1660.17 1458.34,1660.17 1458.34,1634.72 1458.34,1071.36 589.665,1071.36 589.665,1634.72 589.665,1660.17 564.213,1660.17 462.039,1660.17 436.588,1660.17 436.588,1634.72 436.588,916.661 436.588,904.567 446.133,896.878 1008.09,444.188 1024,431.376 1039.91,444.188 1601.87,896.878 1611.41,904.567 1611.41,916.661 1611.41,1634.72 1611.41,1660.17 "/>
   <g>
    <rect id="_258770128" class="fil2" x="1205.57" y="1454.05" width="222.4" height="206.124" rx="10.7232" ry="10.7232"/>
    <path id="_258770440" class="fil3" d="M1427.97 1469.08l0 16.3335 -142.872 0c-4.49174,0 -8.16615,-3.67441 -8.16615,-8.16733l0 0c0,-4.49174 3.67441,-8.16615 8.16615,-8.16615l142.872 0z"/>
    <path id="_258770416" class="fil3" d="M1205.57 1517.36l0 -16.3323 142.871 0c4.49292,0 8.16733,3.67441 8.16733,8.16733l0 0c0,4.49055 -3.67441,8.16497 -8.16733,8.16497l-142.871 0z"/>
    <path id="_258770008" class="fil3" d="M1427.97 1532.97l0 16.3335 -142.872 0c-4.49174,0 -8.16615,-3.67441 -8.16615,-8.16733l0 0c0,-4.49174 3.67441,-8.16615 8.16615,-8.16615l142.872 0z"/>
    <path id="_258769336" class="fil3" d="M1205.57 1581.25l0 -16.3311 142.871 0c4.49292,0 8.16733,3.67323 8.16733,8.16615l0 0c0,4.49174 -3.67441,8.16497 -8.16733,8.16497l-142.871 0z"/>
    <path id="_258769480" class="fil3" d="M1427.97 1596.86l0 16.3335 -142.872 0c-4.49174,0 -8.16615,-3.67441 -8.16615,-8.16615l0 0c0,-4.49292 3.67441,-8.16733 8.16615,-8.16733l142.872 0z"/>
    <path id="_258769624" class="fil3" d="M1205.57 1645.14l0 -16.3323 142.871 0c4.49292,0 8.16733,3.67441 8.16733,8.16733l0 0c0,4.49055 -3.67441,8.16497 -8.16733,8.16497l-142.871 0z"/>
    <polygon id="_258769816" class="fil4" points="1299.84,1454.05 1333.7,1454.05 1333.7,1660.17 1299.84,1660.17 "/>
   </g>
   <g>
    <rect id="_258769792" class="fil2" x="1205.57" y="1231.92" width="222.4" height="206.124" rx="10.7232" ry="10.7232"/>
    <path id="_258768904" class="fil3" d="M1427.97 1246.96l0 16.3335 -142.872 0c-4.49174,0 -8.16615,-3.67441 -8.16615,-8.16615l0 0c0,-4.49292 3.67441,-8.16733 8.16615,-8.16733l142.872 0z"/>
    <path id="_258768352" class="fil3" d="M1205.57 1295.23l0 -16.3323 142.871 0c4.49292,0 8.16733,3.67441 8.16733,8.16733l0 0c0,4.49055 -3.67441,8.16497 -8.16733,8.16497l-142.871 0z"/>
    <path id="_258768856" class="fil3" d="M1427.97 1310.85l0 16.3335 -142.872 0c-4.49174,0 -8.16615,-3.67441 -8.16615,-8.16615l0 0c0,-4.49292 3.67441,-8.16733 8.16615,-8.16733l142.872 0z"/>
    <path id="_258769072" class="fil3" d="M1205.57 1359.12l0 -16.3311 142.871 0c4.49292,0 8.16733,3.67323 8.16733,8.16615l0 0c0,4.49174 -3.67441,8.16497 -8.16733,8.16497l-142.871 0z"/>
    <path id="_258767896" class="fil3" d="M1427.97 1374.74l0 16.3323 -142.872 0c-4.49174,0 -8.16615,-3.67441 -8.16615,-8.16615l0 0c0,-4.49174 3.67441,-8.16615 8.16615,-8.16615l142.872 0z"/>
    <path id="_258767704" class="fil3" d="M1205.57 1423.01l0 -16.3323 142.871 0c4.49292,0 8.16733,3.67441 8.16733,8.16733l0 0c0,4.49055 -3.67441,8.16497 -8.16733,8.16497l-142.871 0z"/>
    <polygon id="_258767872" class="fil4" points="1299.84,1231.92 1333.7,1231.92 1333.7,1438.05 1299.84,1438.05 "/>
   </g>
   <g>
    <rect id="_258768088" class="fil2" x="967.171" y="1454.05" width="222.4" height="206.124" rx="10.7232" ry="10.7232"/>
    <path id="_258768112" class="fil3" d="M1189.57 1469.08l0 16.3335 -142.871 0c-4.49174,0 -8.16615,-3.67441 -8.16615,-8.16733l0 0c0,-4.49174 3.67441,-8.16615 8.16615,-8.16615l142.871 0z"/>
    <path id="_258766912" class="fil3" d="M967.17 1517.36l0 -16.3323 142.871 0c4.49292,0 8.16733,3.67441 8.16733,8.16733l0 0c0,4.49055 -3.67441,8.16497 -8.16733,8.16497l-142.871 0z"/>
    <path id="_258767416" class="fil3" d="M1189.57 1532.97l0 16.3335 -142.871 0c-4.49174,0 -8.16615,-3.67441 -8.16615,-8.16733l0 0c0,-4.49174 3.67441,-8.16615 8.16615,-8.16615l142.871 0z"/>
    <path id="_258767296" class="fil3" d="M967.17 1581.25l0 -16.3311 142.871 0c4.49292,0 8.16733,3.67323 8.16733,8.16615l0 0c0,4.49174 -3.67441,8.16497 -8.16733,8.16497l-142.871 0z"/>
    <path id="_258766648" class="fil3" d="M1189.57 1596.86l0 16.3335 -142.871 0c-4.49174,0 -8.16615,-3.67441 -8.16615,-8.16615l0 0c0,-4.49292 3.67441,-8.16733 8.16615,-8.16733l142.871 0z"/>
    <path id="_258766744" class="fil3" d="M967.17 1645.14l0 -16.3323 142.871 0c4.49292,0 8.16733,3.67441 8.16733,8.16733l0 0c0,4.49055 -3.67441,8.16497 -8.16733,8.16497l-142.871 0z"/>
    <polygon id="_258766552" class="fil4" points="1061.44,1454.05 1095.3,1454.05 1095.3,1660.17 1061.44,1660.17 "/>
   </g>
   <rect id="_258766768" class="fil5" x="905.876" y="642.71" width="236.25" height="236.25"/>
   <rect id="_258766168" class="fil6" x="922.821" y="659.656" width="202.358" height="202.358"/>
   <rect id="_258765544" class="fil5" transform="matrix(0.617289 0.617288 -4.4695 4.4695 1121.29 651.565)" width="19.4114" height="46.2154"/>
   <rect id="_258765832" class="fil5" transform="matrix(-0.617289 0.617288 4.4695 4.4695 926.712 651.565)" width="19.4114" height="46.2154"/>
   <polygon id="_258765736" class="fil7" points="1642.35,1006.49 1041.71,522.637 1024,508.374 1006.29,522.637 405.648,1006.49 255.999,1006.49 267.376,997.326 1003.17,404.602 1024,387.825 1044.83,404.602 1780.62,997.326 1792,1006.49 "/>
  </g>
 </g>
 <rect class="fil8" width="2048" height="2048"/>
</svg>
