<?xml version="1.0" encoding="UTF-8"?>
<!DOCTYPE svg PUBLIC "-//W3C//DTD SVG 1.1//EN" "http://www.w3.org/Graphics/SVG/1.1/DTD/svg11.dtd">
<!-- Creator: CorelDRAW -->
<svg xmlns="http://www.w3.org/2000/svg" xml:space="preserve" width="2048px" height="2048px" style="shape-rendering:geometricPrecision; text-rendering:geometricPrecision; image-rendering:optimizeQuality; fill-rule:evenodd; clip-rule:evenodd"
viewBox="0 0 2048 2048"
 xmlns:xlink="http://www.w3.org/1999/xlink">
 <defs>
  <style type="text/css">
   <![CDATA[
    .str0 {stroke:#0D47A1;stroke-width:15;stroke-linecap:round;stroke-linejoin:round;stroke-dasharray:15.000012 60.000046}
    .fil3 {fill:none}
    .fil2 {fill:none;fill-rule:nonzero}
    .fil0 {fill:#E6A100;fill-rule:nonzero}
    .fil1 {fill:#FFB300;fill-rule:nonzero}
   ]]>
  </style>
 </defs>
 <g id="Layer_x0020_1">
  <metadata id="CorelCorpID_0Corel-Layer"/>
  <g id="_258771208">
   <path id="_258771424" class="fil0" d="M417.25 846.954c-9.55749,-0.549213 -19.1941,-1.99134 -28.787,-4.29567 -9.62481,-2.31142 -18.854,-5.39646 -27.5646,-9.22324 -41.3611,-18.1725 -71.4461,-51.3993 -86.6469,-90.4229 -15.1642,-38.9315 -15.4807,-83.6386 2.64095,-124.886 18.1725,-41.3611 51.3993,-71.4449 90.4241,-86.6457 38.9315,-15.1642 83.6375,-15.4807 124.885,2.64095 15.3709,6.75355 29.5205,15.7914 42.0059,26.7272 12.4158,10.8768 23.2264,23.7177 31.9866,38.1331l-54.5008 33c-5.25237,-8.64331 -11.8394,-16.4339 -19.4858,-23.1331 -7.57796,-6.6378 -16.1705,-12.1252 -25.5059,-16.2272 -25.2484,-11.0929 -52.5922,-10.9087 -76.3843,-1.64173 -23.6988,9.23032 -43.8803,27.5103 -54.9248,52.6465 -11.0929,25.2496 -10.9087,52.5945 -1.64173,76.3855 9.23032,23.6977 27.5103,43.8792 52.6477,54.9237 5.63622,2.47677 11.2654,4.39016 16.8142,5.72245 5.58308,1.34055 11.4532,2.19567 17.5382,2.54528l-3.50079 63.7512z"/>
   <polygon id="_258771808" class="fil0" points="903.97,1014.55 1133.62,1049.77 1248.11,969.226 1313.31,923.35 1297.86,1001.48 1250.8,1239.37 1240.76,1290.12 1199.92,1258.5 1121.45,1197.73 882.325,1175.61 888.075,1112.11 "/>
   <path id="_258772120" class="fil1" d="M589.735 562.117l393.832 173.034c14.165,6.22323 23.9386,17.2571 29.0528,30.3862 4.89213,12.5658 5.22993,27.0036 0.713386,40.4811l-167.726 500.574c-6.17599,18.4323 -18.8398,27.4583 -34.3855,31.6583 -9.56103,2.58307 -18.9992,2.5441 -27.9815,2.35866 -99.2871,-2.04213 -190.753,-21.8799 -274.635,-58.9548 -83.9056,-37.0843 -160.147,-91.3217 -228.965,-162.156 -6.27166,-6.45473 -12.7347,-13.4646 -17.4496,-22.591 -7.37245,-14.2701 -9.2504,-29.6681 0.0590552,-46.5272l255.244 -462.123c6.88465,-12.4665 17.8276,-22.024 30.5315,-26.9705 13.0358,-5.07756 27.6591,-5.34331 41.7107,0.830316z"/>
   <path id="_258771592" class="fil2 str0" d="M1337.96 1120.9c93.9485,18.8445 164.137,50.6244 210.223,103.417 46.8331,53.6493 67.0252,126.364 59.8571,225.945"/>
   <path id="_258771760" class="fil2 str0" d="M1346.46 1048.86c109.146,21.8929 200.144,76.4788 261.44,154.426 59.7898,76.0335 91.0288,173.802 83.0481,284.679"/>
   <path id="_258772000" class="fil2 str0" d="M1368.71 971.744c123.441,13.865 225.507,84.0461 298.523,180.951 79.6938,105.771 124.824,244.081 124.823,375.003"/>
   <path id="_258772072" class="fil2 str0" d="M1330.78 1209.32c70.3512,14.1118 122.91,37.9099 157.422,77.4426 35.0705,40.174 50.191,94.6253 44.8229,169.195"/>
  </g>
 </g>
 <rect class="fil3" width="2048" height="2048"/>
</svg>
