<?xml version="1.0" encoding="UTF-8"?>
<!DOCTYPE svg PUBLIC "-//W3C//DTD SVG 1.1//EN" "http://www.w3.org/Graphics/SVG/1.1/DTD/svg11.dtd">
<!-- Creator: CorelDRAW -->
<svg xmlns="http://www.w3.org/2000/svg" xml:space="preserve" width="2048px" height="2048px" style="shape-rendering:geometricPrecision; text-rendering:geometricPrecision; image-rendering:optimizeQuality; fill-rule:evenodd; clip-rule:evenodd"
viewBox="0 0 2048 2048"
 xmlns:xlink="http://www.w3.org/1999/xlink">
 <defs>
  <style type="text/css">
   <![CDATA[
    .fil5 {fill:none}
    .fil3 {fill:#5D4037}
    .fil4 {fill:#B89A7F}
    .fil1 {fill:#3B2F2B;fill-rule:nonzero}
    .fil2 {fill:#5D4037;fill-rule:nonzero}
    .fil0 {fill:#78909C;fill-rule:nonzero}
   ]]>
  </style>
 </defs>
 <g id="Layer_x0020_1">
  <metadata id="CorelCorpID_0Corel-Layer"/>
  <g id="_258772576">
   <path id="_258780760" class="fil0" d="M288 577.999c-17.6728,0 -32.0008,14.328 -32.0008,32.0008 0,17.6728 14.328,32.0008 32.0008,32.0008l260.058 0c17.6728,0 32.0008,-14.328 32.0008,-32.0008 0,-17.6728 -14.328,-32.0008 -32.0008,-32.0008l-260.058 0zm1043.97 0c-17.6728,0 -32.0008,14.328 -32.0008,32.0008 0,17.6728 14.328,32.0008 32.0008,32.0008l273.358 0 0 213.333c0,17.6728 14.328,32.0008 32.0008,32.0008l122.666 0c17.6728,0 32.0008,-14.328 32.0008,-32.0008 0,-17.6728 -14.328,-32.0008 -32.0008,-32.0008l-90.665 0 0 -213.333c0,-17.6728 -14.328,-32.0008 -32.0008,-32.0008l-305.359 0z"/>
   <polygon id="_258780904" class="fil1" points="1065.77,730.531 1065.77,1315.98 1044.8,1315.98 1044.8,730.531 "/>
   <path id="_258780976" class="fil2" d="M1453.22 1683.33c0,17.6728 14.328,32.0008 32.0008,32.0008 17.6728,0 32.0008,-14.328 32.0008,-32.0008l0 -1318.67c0,-17.6728 -14.328,-32.0008 -32.0008,-32.0008l-1104 0c-17.6728,0 -32.0008,14.328 -32.0008,32.0008l0 1318.67c0,17.6728 14.328,32.0008 32.0008,32.0008 17.6728,0 32.0008,-14.328 32.0008,-32.0008l0 -1286.67 1040 0 0 1286.67z"/>
   <path id="_258781336" class="fil2" d="M1196.92 485.999l87.1394 0c21.0414,0 40.4315,7.69371 54.7158,20.0858 15.548,13.4882 25.2012,32.4024 25.2012,53.4815l0 103.088c0,21.078 -9.65198,39.9933 -25.2012,53.4827 -14.2843,12.3921 -33.6756,20.0858 -54.7158,20.0858l-87.1394 0 -600.945 0c-21.0402,0 -40.4315,-7.69371 -54.7158,-20.0858 -15.5492,-13.4894 -25.2012,-32.4047 -25.2012,-53.4827l0 -103.088c0,-21.0792 9.65316,-39.9957 25.2012,-53.4815 14.2843,-12.3921 33.6744,-20.0858 54.7158,-20.0858l600.945 0z"/>
   <path id="_258780928" class="fil3" d="M1409.89 1652.67l0 -631.046c0,-20.8288 -8.49922,-39.7429 -22.1894,-53.4331 -13.6902,-13.6902 -32.6044,-22.1894 -53.4319,-22.1894 -254.9,0 -485.025,0 -802.093,0 -20.8299,0 -39.7429,8.49922 -53.4319,22.1894 -13.6902,13.6902 -22.1894,32.6044 -22.1894,53.4331l0 631.046 0.0011811 32.0008 31.9996 0 889.334 0 32.0008 0 0 -32.0008z"/>
   <g>
    <g>
     <rect id="_258779872" class="fil4" x="489.272" y="984.32" width="132.033" height="66.0166" rx="7.36772" ry="7.36772"/>
     <rect id="_258780304" class="fil4" x="640.444" y="984.32" width="132.033" height="66.0166" rx="7.36772" ry="7.36772"/>
     <rect id="_258779944" class="fil4" x="791.616" y="984.32" width="132.033" height="66.0166" rx="7.36772" ry="7.36772"/>
     <rect id="_258780472" class="fil4" x="942.787" y="984.32" width="132.033" height="66.0166" rx="7.36772" ry="7.36772"/>
     <rect id="_258780376" class="fil4" x="1093.96" y="984.32" width="132.033" height="66.0166" rx="7.36772" ry="7.36772"/>
     <rect id="_258780016" class="fil4" x="1245.13" y="984.32" width="132.033" height="66.0166" rx="7.36772" ry="7.36772"/>
    </g>
    <g>
     <rect id="_258779680" class="fil4" x="564.858" y="1069.46" width="132.033" height="66.0166" rx="7.36772" ry="7.36772"/>
     <path id="_258779560" class="fil4" d="M538.349 1069.46l-41.7095 0c-4.05,0 -7.36772,3.31772 -7.36772,7.36772l0 51.2811c0,4.05 3.31536,7.36772 7.36772,7.36772l41.7095 0c4.05237,0 7.36772,-3.31536 7.36772,-7.36772l0 -51.2811c0,-4.05237 -3.31772,-7.36772 -7.36772,-7.36772z"/>
     <path id="_258779464" class="fil4" d="M1369.8 1069.46l-41.7095 0c-4.05,0 -7.36772,3.31772 -7.36772,7.36772l0 51.2811c0,4.05 3.31536,7.36772 7.36772,7.36772l41.7095 0c4.05237,0 7.36772,-3.31536 7.36772,-7.36772l0 -51.2811c0,-4.05237 -3.31772,-7.36772 -7.36772,-7.36772z"/>
     <rect id="_258779512" class="fil4" x="716.03" y="1069.46" width="132.033" height="66.0166" rx="7.36772" ry="7.36772"/>
     <rect id="_258779728" class="fil4" x="867.201" y="1069.46" width="132.033" height="66.0166" rx="7.36772" ry="7.36772"/>
     <rect id="_258778984" class="fil4" x="1018.37" y="1069.46" width="132.033" height="66.0166" rx="7.36772" ry="7.36772"/>
     <rect id="_258778792" class="fil4" x="1169.54" y="1069.46" width="132.033" height="66.0166" rx="7.36772" ry="7.36772"/>
    </g>
    <g>
     <g>
      <rect id="_258778624" class="fil4" x="489.272" y="1154.61" width="132.033" height="66.0166" rx="7.36772" ry="7.36772"/>
      <rect id="_258779056" class="fil4" x="640.444" y="1154.61" width="132.033" height="66.0166" rx="7.36772" ry="7.36772"/>
      <rect id="_258778528" class="fil4" x="791.616" y="1154.61" width="132.033" height="66.0166" rx="7.36772" ry="7.36772"/>
      <rect id="_258778576" class="fil4" x="942.787" y="1154.61" width="132.033" height="66.0166" rx="7.36772" ry="7.36772"/>
      <rect id="_258778120" class="fil4" x="1093.96" y="1154.61" width="132.033" height="66.0166" rx="7.36772" ry="7.36772"/>
      <rect id="_258778048" class="fil4" x="1245.13" y="1154.61" width="132.033" height="66.0166" rx="7.36772" ry="7.36772"/>
     </g>
     <g>
      <rect id="_258777760" class="fil4" x="564.858" y="1239.75" width="132.033" height="66.0166" rx="7.36772" ry="7.36772"/>
      <path id="_258777880" class="fil4" d="M538.349 1239.75l-41.7095 0c-4.05,0 -7.36772,3.31772 -7.36772,7.36772l0 51.2811c0,4.05 3.31536,7.36772 7.36772,7.36772l41.7095 0c4.05237,0 7.36772,-3.31536 7.36772,-7.36772l0 -51.2811c0,-4.05237 -3.31772,-7.36772 -7.36772,-7.36772z"/>
      <path id="_258777928" class="fil4" d="M1369.8 1239.75l-41.7095 0c-4.05,0 -7.36772,3.31772 -7.36772,7.36772l0 51.2811c0,4.05 3.31536,7.36772 7.36772,7.36772l41.7095 0c4.05237,0 7.36772,-3.31536 7.36772,-7.36772l0 -51.2811c0,-4.05237 -3.31772,-7.36772 -7.36772,-7.36772z"/>
      <rect id="_258777496" class="fil4" x="716.03" y="1239.75" width="132.033" height="66.0166" rx="7.36772" ry="7.36772"/>
      <rect id="_258777280" class="fil4" x="867.201" y="1239.75" width="132.033" height="66.0166" rx="7.36772" ry="7.36772"/>
      <rect id="_258777208" class="fil4" x="1018.37" y="1239.75" width="132.033" height="66.0166" rx="7.36772" ry="7.36772"/>
      <rect id="_258776920" class="fil4" x="1169.54" y="1239.75" width="132.033" height="66.0166" rx="7.36772" ry="7.36772"/>
     </g>
    </g>
    <g>
     <g>
      <rect id="_258776800" class="fil4" x="489.272" y="1324.9" width="132.033" height="66.0166" rx="7.36772" ry="7.36772"/>
      <rect id="_258776896" class="fil4" x="640.444" y="1324.9" width="132.033" height="66.0166" rx="7.36772" ry="7.36772"/>
      <rect id="_258776152" class="fil4" x="791.616" y="1324.9" width="132.033" height="66.0166" rx="7.36772" ry="7.36772"/>
      <rect id="_258776704" class="fil4" x="942.787" y="1324.9" width="132.033" height="66.0166" rx="7.36772" ry="7.36772"/>
      <rect id="_258776680" class="fil4" x="1093.96" y="1324.9" width="132.033" height="66.0166" rx="7.36772" ry="7.36772"/>
      <rect id="_258776416" class="fil4" x="1245.13" y="1324.9" width="132.033" height="66.0166" rx="7.36772" ry="7.36772"/>
     </g>
     <g>
      <rect id="_258776368" class="fil4" x="564.858" y="1410.04" width="132.033" height="66.0166" rx="7.36772" ry="7.36772"/>
      <path id="_258775504" class="fil4" d="M538.349 1410.04l-41.7095 0c-4.05,0 -7.36772,3.31772 -7.36772,7.36772l0 51.2811c0,4.05 3.31536,7.36772 7.36772,7.36772l41.7095 0c4.05237,0 7.36772,-3.31536 7.36772,-7.36772l0 -51.2811c0,-4.05237 -3.31772,-7.36772 -7.36772,-7.36772z"/>
      <path id="_258775768" class="fil4" d="M1369.8 1410.04l-41.7095 0c-4.05,0 -7.36772,3.31772 -7.36772,7.36772l0 51.2811c0,4.05 3.31536,7.36772 7.36772,7.36772l41.7095 0c4.05237,0 7.36772,-3.31536 7.36772,-7.36772l0 -51.2811c0,-4.05237 -3.31772,-7.36772 -7.36772,-7.36772z"/>
      <rect id="_258775600" class="fil4" x="716.03" y="1410.04" width="132.033" height="66.0166" rx="7.36772" ry="7.36772"/>
      <rect id="_258775984" class="fil4" x="867.201" y="1410.04" width="132.033" height="66.0166" rx="7.36772" ry="7.36772"/>
      <rect id="_258775312" class="fil4" x="1018.37" y="1410.04" width="132.033" height="66.0166" rx="7.36772" ry="7.36772"/>
      <rect id="_258775816" class="fil4" x="1169.54" y="1410.04" width="132.033" height="66.0166" rx="7.36772" ry="7.36772"/>
     </g>
    </g>
    <g>
     <g>
      <rect id="_258774808" class="fil4" x="489.272" y="1495.19" width="132.033" height="66.0166" rx="7.36772" ry="7.36772"/>
      <rect id="_258775168" class="fil4" x="640.444" y="1495.19" width="132.033" height="66.0166" rx="7.36772" ry="7.36772"/>
      <rect id="_258775072" class="fil4" x="791.616" y="1495.19" width="132.033" height="66.0166" rx="7.36772" ry="7.36772"/>
      <rect id="_258775024" class="fil4" x="942.787" y="1495.19" width="132.033" height="66.0166" rx="7.36772" ry="7.36772"/>
      <rect id="_258774496" class="fil4" x="1093.96" y="1495.19" width="132.033" height="66.0166" rx="7.36772" ry="7.36772"/>
      <rect id="_258774976" class="fil4" x="1245.13" y="1495.19" width="132.033" height="66.0166" rx="7.36772" ry="7.36772"/>
     </g>
     <g>
      <rect id="_258774208" class="fil4" x="564.858" y="1580.33" width="132.033" height="66.0166" rx="7.36772" ry="7.36772"/>
      <path id="_258774040" class="fil4" d="M538.349 1580.33l-41.7095 0c-4.05,0 -7.36772,3.31772 -7.36772,7.36772l0 51.2811c0,4.05 3.31536,7.36772 7.36772,7.36772l41.7095 0c4.05237,0 7.36772,-3.31536 7.36772,-7.36772l0 -51.2811c0,-4.05237 -3.31772,-7.36772 -7.36772,-7.36772z"/>
      <path id="_258773848" class="fil4" d="M1369.8 1580.33l-41.7095 0c-4.05,0 -7.36772,3.31772 -7.36772,7.36772l0 51.2811c0,4.05 3.31536,7.36772 7.36772,7.36772l41.7095 0c4.05237,0 7.36772,-3.31536 7.36772,-7.36772l0 -51.2811c0,-4.05237 -3.31772,-7.36772 -7.36772,-7.36772z"/>
      <rect id="_258774184" class="fil4" x="716.03" y="1580.33" width="132.033" height="66.0166" rx="7.36772" ry="7.36772"/>
      <rect id="_258774064" class="fil4" x="867.201" y="1580.33" width="132.033" height="66.0166" rx="7.36772" ry="7.36772"/>
      <rect id="_258773032" class="fil4" x="1018.37" y="1580.33" width="132.033" height="66.0166" rx="7.36772" ry="7.36772"/>
      <rect id="_258773008" class="fil4" x="1169.54" y="1580.33" width="132.033" height="66.0166" rx="7.36772" ry="7.36772"/>
     </g>
    </g>
   </g>
   <g>
    <path id="_258773104" class="fil1" d="M819.371 736.223l-20.4603 0c-12.5811,-54.8457 -31.8697,-184.153 45.2918,-250.224l35.3079 0c-97.5036,52.7611 -72.9473,197.34 -60.1394,250.224z"/>
    <path id="_258773320" class="fil1" d="M868.932 736.223l-20.4603 0c-12.5811,-54.8457 -31.8697,-184.153 45.2918,-250.224l35.3079 0c-97.5036,52.7611 -72.9473,197.34 -60.1394,250.224z"/>
    <path id="_258772792" class="fil1" d="M918.492 736.223l-20.4603 0c-12.5811,-54.8457 -31.8697,-184.153 45.2918,-250.224l35.3079 0c-97.5036,52.7611 -72.9473,197.34 -60.1394,250.224z"/>
    <path id="_258772504" class="fil1" d="M968.052 736.223l-20.4603 0c-12.5811,-54.8457 -31.8697,-184.153 45.2918,-250.224l35.3079 0c-97.5036,52.7611 -72.9473,197.34 -60.1394,250.224z"/>
    <path id="_258772744" class="fil1" d="M1017.61 736.223l-20.4603 0c-12.5811,-54.8457 -31.8697,-184.153 45.2918,-250.224l35.3079 0c-97.5036,52.7611 -72.9473,197.34 -60.1394,250.224z"/>
    <path id="_258772312" class="fil1" d="M1067.17 736.223l-20.4603 0c-12.5811,-54.8457 -31.8697,-184.153 45.2918,-250.224l35.3079 0c-97.5036,52.7611 -72.9473,197.34 -60.1394,250.224z"/>
   </g>
  </g>
 </g>
 <rect class="fil5" width="2048" height="2048"/>
</svg>
