<?xml version="1.0" encoding="UTF-8"?>
<!DOCTYPE svg PUBLIC "-//W3C//DTD SVG 1.1//EN" "http://www.w3.org/Graphics/SVG/1.1/DTD/svg11.dtd">
<!-- Creator: CorelDRAW -->
<svg xmlns="http://www.w3.org/2000/svg" xml:space="preserve" width="2048px" height="2048px" style="shape-rendering:geometricPrecision; text-rendering:geometricPrecision; image-rendering:optimizeQuality; fill-rule:evenodd; clip-rule:evenodd"
viewBox="0 0 2048 2048"
 xmlns:xlink="http://www.w3.org/1999/xlink">
 <defs>
  <style type="text/css">
   <![CDATA[
    .fil4 {fill:none}
    .fil1 {fill:#DD7000}
    .fil3 {fill:#FAA730}
    .fil0 {fill:#DD7000;fill-rule:nonzero}
    .fil2 {fill:#FAA730;fill-rule:nonzero}
   ]]>
  </style>
 </defs>
 <g id="Layer_x0020_1">
  <metadata id="CorelCorpID_0Corel-Layer"/>
  <g id="_258782368">
   <g>
    <path id="_258784168" class="fil0" d="M600.913 628.248c-2.14488,-8.00906 14.2406,-19.3595 36.6012,-25.35 22.3583,-5.99174 42.2256,-4.35591 44.3729,3.65433l341.923 1276.08c2.14488,8.00788 -14.2429,19.3595 -36.6,25.35 -22.3595,5.99056 -42.2268,4.35473 -44.3729,-3.65315l-341.925 -1276.08z"/>
    <path id="_258784192" class="fil1" d="M817.906 567.571c-36.5776,-9.80079 -85.2497,53.2394 -108.712,140.808 -23.465,87.5682 -12.8339,166.499 23.7437,176.3 36.5776,9.80198 85.2497,-53.2394 108.713,-140.808 23.4638,-87.5682 12.8339,-166.498 -23.7449,-176.3z"/>
    <path id="_258784360" class="fil1" d="M463.63 662.5c26.7756,-26.778 100.448,3.48189 164.551,67.5863 64.1056,64.1032 94.3631,137.776 67.5863,164.552 -26.7768,26.7768 -100.449,-3.48189 -164.552,-67.5851 -64.1056,-64.1056 -94.3631,-137.777 -67.5851,-164.554z"/>
    <path id="_258784072" class="fil1" d="M882.634 809.136c-36.5776,-9.80079 -85.2497,53.2418 -108.713,140.809 -23.4638,87.567 -12.8339,166.499 23.7449,176.301 36.5776,9.80079 85.2497,-53.2418 108.713,-140.809 23.4638,-87.5682 12.8327,-166.5 -23.7449,-176.301z"/>
    <path id="_258783856" class="fil1" d="M528.357 904.066c26.7756,-26.778 100.449,3.48071 164.552,67.5851 64.1044,64.1044 94.3631,137.777 67.5851,164.552 -26.7756,26.7768 -100.448,-3.48071 -164.552,-67.5851 -64.1044,-64.1056 -94.3631,-137.776 -67.5851,-164.552z"/>
    <path id="_258784216" class="fil1" d="M949.29 1057.9c-36.5776,-9.80079 -85.252,53.2406 -108.716,140.809 -23.4638,87.5682 -12.8315,166.5 23.7461,176.301 36.5788,9.80079 85.2497,-53.2394 108.715,-140.809 23.4626,-87.567 12.8327,-166.5 -23.7449,-176.301z"/>
    <path id="_258783880" class="fil1" d="M595.011 1152.83c26.778,-26.7768 100.45,3.48307 164.555,67.5863 64.1032,64.1044 94.3631,137.777 67.5851,164.554 -26.7756,26.7756 -100.449,-3.48189 -164.552,-67.5863 -64.1044,-64.1056 -94.3631,-137.776 -67.5875,-164.554z"/>
    <path id="_258783784" class="fil1" d="M545.099 258c36.5788,-9.80079 85.252,53.2394 108.716,140.809 23.4626,87.567 12.8315,166.499 -23.7461,176.299 -36.5776,9.80198 -85.2509,-53.2382 -108.713,-140.808 -23.465,-87.567 -12.8339,-166.499 23.7437,-176.3z"/>
    <path id="_258783688" class="fil1" d="M753.76 328.172c-36.5776,-9.80198 -85.2509,53.2406 -108.713,140.808 -23.465,87.5694 -12.8339,166.5 23.7437,176.301 36.5788,9.80079 85.2497,-53.2394 108.713,-140.809 23.4638,-87.567 12.8339,-166.499 -23.7437,-176.3z"/>
    <path id="_258783592" class="fil1" d="M399.483 423.101c26.7756,-26.7768 100.448,3.48189 164.551,67.5851 64.1056,64.1056 94.3631,137.778 67.5863,164.555 -26.7756,26.7756 -100.449,-3.48307 -164.552,-67.5875 -64.1056,-64.1032 -94.3631,-137.776 -67.5851,-164.552z"/>
    <path id="_258783496" class="fil0" d="M678.177 164.904c-0.816142,-3.04134 0.989765,-6.17008 4.03111,-6.98504 3.04134,-0.816142 6.17126,0.990946 6.98504,4.03111l59.0374 220.335c0.816142,3.04134 -0.989765,6.1689 -4.03111,6.98504 -3.0437,0.814961 -6.17126,-0.992127 -6.98623,-4.03465l-59.0363 -220.331z"/>
    <path id="_258783208" class="fil0" d="M372.288 246.867c-0.814961,-3.0437 0.990946,-6.17126 4.03229,-6.98623 3.04134,-0.814961 6.17126,0.992127 6.98504,4.03347l59.0386 220.332c0.814961,3.04134 -0.990946,6.17008 -4.03229,6.98504 -3.04252,0.814961 -6.17126,-0.990946 -6.98623,-4.03229l-59.0374 -220.332z"/>
   </g>
   <g>
    <path id="_258783616" class="fil0" d="M1447.09 628.248c2.14488,-8.00906 -14.2406,-19.3595 -36.6012,-25.35 -22.3583,-5.99174 -42.2256,-4.35591 -44.3729,3.65433l-341.923 1276.08c-2.14488,8.00788 14.2429,19.3595 36.6,25.35 22.3595,5.99056 42.2268,4.35473 44.3729,-3.65315l341.925 -1276.08z"/>
    <path id="_258783160" class="fil1" d="M1230.09 567.571c36.5776,-9.80079 85.2497,53.2394 108.712,140.808 23.465,87.5682 12.8339,166.499 -23.7437,176.3 -36.5776,9.80198 -85.2497,-53.2394 -108.713,-140.808 -23.4638,-87.5682 -12.8339,-166.498 23.7449,-176.3z"/>
    <path id="_258782968" class="fil1" d="M1584.37 662.5c-26.7756,-26.778 -100.448,3.48189 -164.551,67.5863 -64.1056,64.1032 -94.3631,137.776 -67.5863,164.552 26.7768,26.7768 100.449,-3.48189 164.552,-67.5851 64.1056,-64.1056 94.3631,-137.777 67.5851,-164.554z"/>
    <path id="_258783040" class="fil1" d="M1165.37 809.136c36.5776,-9.80079 85.2497,53.2418 108.713,140.809 23.4638,87.567 12.8339,166.499 -23.7449,176.301 -36.5776,9.80079 -85.2497,-53.2418 -108.713,-140.809 -23.4638,-87.5682 -12.8327,-166.5 23.7449,-176.301z"/>
    <path id="_258783664" class="fil1" d="M1519.64 904.066c-26.7756,-26.778 -100.449,3.48071 -164.552,67.5851 -64.1044,64.1044 -94.3631,137.777 -67.5851,164.552 26.7756,26.7768 100.448,-3.48071 164.552,-67.5851 64.1044,-64.1056 94.3631,-137.776 67.5851,-164.552z"/>
    <path id="_258783424" class="fil1" d="M1098.71 1057.9c36.5776,-9.80079 85.252,53.2406 108.716,140.809 23.4638,87.5682 12.8315,166.5 -23.7461,176.301 -36.5788,9.80079 -85.2497,-53.2394 -108.715,-140.809 -23.4626,-87.567 -12.8327,-166.5 23.7449,-176.301z"/>
    <path id="_258783112" class="fil1" d="M1452.99 1152.83c-26.778,-26.7768 -100.45,3.48307 -164.555,67.5863 -64.1032,64.1044 -94.3631,137.777 -67.5851,164.554 26.7756,26.7756 100.449,-3.48189 164.552,-67.5863 64.1044,-64.1056 94.3631,-137.776 67.5875,-164.554z"/>
    <path id="_258782872" class="fil1" d="M1502.9 258c-36.5788,-9.80079 -85.252,53.2394 -108.716,140.809 -23.4626,87.567 -12.8315,166.499 23.7461,176.299 36.5776,9.80198 85.2509,-53.2382 108.713,-140.808 23.465,-87.567 12.8339,-166.499 -23.7437,-176.3z"/>
    <path id="_258782800" class="fil1" d="M1294.24 328.172c36.5776,-9.80198 85.2509,53.2406 108.713,140.808 23.465,87.5694 12.8339,166.5 -23.7437,176.301 -36.5788,9.80079 -85.2497,-53.2394 -108.713,-140.809 -23.4638,-87.567 -12.8339,-166.499 23.7437,-176.3z"/>
    <path id="_258782632" class="fil1" d="M1648.52 423.101c-26.7756,-26.7768 -100.448,3.48189 -164.551,67.5851 -64.1056,64.1056 -94.3631,137.778 -67.5863,164.555 26.7756,26.7756 100.449,-3.48307 164.552,-67.5875 64.1056,-64.1032 94.3631,-137.776 67.5851,-164.552z"/>
    <path id="_258782584" class="fil0" d="M1369.82 164.904c0.816142,-3.04134 -0.989765,-6.17008 -4.03111,-6.98504 -3.04134,-0.816142 -6.17126,0.990946 -6.98504,4.03111l-59.0374 220.335c-0.816142,3.04134 0.989765,6.1689 4.03111,6.98504 3.0437,0.814961 6.17126,-0.992127 6.98623,-4.03465l59.0363 -220.331z"/>
    <path id="_258782896" class="fil0" d="M1675.71 246.867c0.814961,-3.0437 -0.990946,-6.17126 -4.03229,-6.98623 -3.04134,-0.814961 -6.17126,0.992127 -6.98504,4.03347l-59.0386 220.332c-0.814961,3.04134 0.990946,6.17008 4.03229,6.98504 3.04252,0.814961 6.17126,-0.990946 6.98623,-4.03229l59.0374 -220.332z"/>
   </g>
  </g>
  <g id="_258781624">
   <path id="_258782704" class="fil2" d="M982.085 572.576c0,-8.29016 18.7654,-15.013 41.9138,-15.0118 23.1473,-0.0011811 41.915,6.72048 41.9162,15.013l-0.0011811 1321.09c0,8.29016 -18.7677,15.0142 -41.9138,15.0142 -23.1484,-0.0011811 -41.915,-6.72284 -41.915,-15.0142l0 -1321.1z"/>
   <path id="_258782344" class="fil3" d="M1207.39 570.13c-32.7945,-18.9343 -96.1241,29.361 -141.452,107.871 -45.3284,78.5127 -55.4894,157.505 -22.6949,176.439 32.7957,18.9343 96.1253,-29.361 141.454,-107.874 45.3284,-78.5103 55.4882,-157.504 22.6937,-176.437z"/>
   <path id="_258782248" class="fil3" d="M840.614 570.129c32.7945,-18.9343 96.1241,29.3622 141.452,107.874 45.3296,78.5103 55.4894,157.504 22.6937,176.438 -32.7945,18.9343 -96.1253,-29.3622 -141.454,-107.871 -45.3284,-78.5127 -55.4882,-157.506 -22.6925,-176.44z"/>
   <path id="_258782176" class="fil3" d="M1207.39 820.216c-32.7945,-18.9331 -96.1241,29.3634 -141.452,107.874 -45.3284,78.5103 -55.4894,157.505 -22.6949,176.439 32.7945,18.9343 96.1253,-29.3634 141.454,-107.874 45.3284,-78.5103 55.4894,-157.505 22.6937,-176.439z"/>
   <path id="_258782152" class="fil3" d="M840.614 820.217c32.7945,-18.9343 96.1253,29.361 141.452,107.873 45.3296,78.5115 55.4882,157.505 22.6937,176.438 -32.7945,18.9343 -96.1253,-29.361 -141.452,-107.873 -45.3296,-78.5115 -55.4894,-157.504 -22.6937,-176.438z"/>
   <path id="_258781672" class="fil3" d="M1207.39 1077.76c-32.7945,-18.9331 -96.1265,29.3622 -141.455,107.874 -45.3296,78.5115 -55.4882,157.505 -22.6925,176.439 32.7945,18.9343 96.1241,-29.361 141.452,-107.874 45.3284,-78.5103 55.4894,-157.505 22.6949,-176.439z"/>
   <path id="_258781576" class="fil3" d="M840.612 1077.76c32.7957,-18.9343 96.1253,29.3622 141.455,107.873 45.3272,78.5115 55.4882,157.505 22.6925,176.439 -32.7933,18.9331 -96.1253,-29.3622 -141.452,-107.873 -45.3296,-78.5127 -55.4894,-157.505 -22.6949,-176.439z"/>
   <path id="_258781408" class="fil3" d="M1024 200.501c37.8685,-0.0011811 68.5666,73.4894 68.5666,164.147 0,90.6556 -30.6981,164.146 -68.5666,164.146 -37.8685,0 -68.5666,-73.4894 -68.5654,-164.147 -0.0011811,-90.6568 30.6969,-164.147 68.5654,-164.146z"/>
   <path id="_258781984" class="fil3" d="M1207.39 322.285c-32.7945,-18.9343 -96.1241,29.3622 -141.452,107.874 -45.3296,78.5115 -55.4894,157.504 -22.6949,176.438 32.7945,18.9343 96.1241,-29.361 141.454,-107.873 45.3284,-78.5115 55.4894,-157.505 22.6937,-176.439z"/>
   <path id="_258781888" class="fil3" d="M840.614 322.286c32.7945,-18.9354 96.1241,29.361 141.452,107.871 45.3296,78.5127 55.4882,157.506 22.6925,176.439 -32.7933,18.9331 -96.1241,-29.361 -141.451,-107.873 -45.3307,-78.5103 -55.4894,-157.505 -22.6937,-176.438z"/>
   <path id="_258782080" class="fil2" d="M1176.64 145.018c0,-3.14882 2.55355,-5.70237 5.70237,-5.70355 3.14882,0 5.70473,2.55473 5.70355,5.70237l0 228.106c0,3.14882 -2.55355,5.70355 -5.70237,5.70355 -3.15,0 -5.70355,-2.55591 -5.70473,-5.70473l0.0011811 -228.104z"/>
   <path id="_258781384" class="fil2" d="M859.959 145.019c0,-3.15118 2.55473,-5.70473 5.70355,-5.70473 3.14764,0 5.70237,2.55473 5.70237,5.70355l0 228.105c0,3.14882 -2.55473,5.70355 -5.70237,5.70237 -3.15,0 -5.70355,-2.55355 -5.70473,-5.70237l0.0011811 -228.104z"/>
  </g>
 </g>
 <rect class="fil4" width="2048" height="2048"/>
</svg>
