<?xml version="1.0" encoding="UTF-8"?>
<!DOCTYPE svg PUBLIC "-//W3C//DTD SVG 1.1//EN" "http://www.w3.org/Graphics/SVG/1.1/DTD/svg11.dtd">
<!-- Creator: CorelDRAW -->
<svg xmlns="http://www.w3.org/2000/svg" xml:space="preserve" width="2048px" height="2048px" style="shape-rendering:geometricPrecision; text-rendering:geometricPrecision; image-rendering:optimizeQuality; fill-rule:evenodd; clip-rule:evenodd"
viewBox="0 0 2048 2048"
 xmlns:xlink="http://www.w3.org/1999/xlink">
 <defs>
  <style type="text/css">
   <![CDATA[
    .fil3 {fill:none}
    .fil1 {fill:#5D4037}
    .fil0 {fill:#795548}
    .fil2 {fill:#5D4037;fill-rule:nonzero}
   ]]>
  </style>
 </defs>
 <g id="Layer_x0020_1">
  <metadata id="CorelCorpID_0Corel-Layer"/>
  <g id="_258784456">
   <path id="_258785920" class="fil0" d="M1082.75 319.999l0 493.333c-18.6969,-5.20512 -38.3977,-7.99016 -58.7516,-7.99016 -20.354,0 -40.0548,2.78504 -58.7516,7.99016l0 -493.333 117.503 0zm0 914.67l0 493.333 -117.503 0 0 -493.333c18.6969,5.20512 38.3977,7.99016 58.7516,7.99016 20.354,0 40.0548,-2.78504 58.7516,-7.99016z"/>
   <path id="_258785440" class="fil0" d="M319.999 965.248l493.333 0c-5.20512,18.6969 -7.99016,38.3977 -7.99016,58.7516 0,20.354 2.78504,40.0548 7.99016,58.7516l-493.333 0 0 -117.503zm914.67 0l493.333 0 0 117.503 -493.333 0c5.20512,-18.6969 7.99016,-38.3977 7.99016,-58.7516 0,-20.354 -2.78504,-40.0548 -7.99016,-58.7516z"/>
   <path id="_258784480" class="fil0" d="M1563.34 567.737l-348.851 348.852c-9.80079,-17.341 -21.8977,-33.215 -35.8831,-47.2004 -13.9854,-13.9854 -29.8595,-26.0823 -47.2004,-35.8831l348.852 -348.851 83.0823 83.0823zm-646.756 646.757l-348.852 348.851 -83.0823 -83.0823 348.851 -348.852c9.80079,17.341 21.8977,33.215 35.8831,47.2004 13.9854,13.9854 29.8595,26.0823 47.2004,35.8831z"/>
   <path id="_258785032" class="fil0" d="M1480.26 1563.34l-348.852 -348.851c17.341,-9.80079 33.215,-21.8977 47.2004,-35.8831 13.9854,-13.9854 26.0823,-29.8595 35.8831,-47.2004l348.851 348.852 -83.0823 83.0823zm-646.757 -646.756l-348.851 -348.852 83.0823 -83.0823 348.852 348.851c-17.341,9.80079 -33.215,21.8977 -47.2004,35.8831 -13.9854,13.9854 -26.0823,29.8595 -35.8831,47.2004z"/>
  </g>
  <path class="fil1" d="M1024 255.999c204.356,0 398.577,80.4674 543.056,224.945 144.477,144.478 224.945,338.7 224.945,543.056 0,204.356 -80.4674,398.577 -224.945,543.056 -144.478,144.477 -338.7,224.945 -543.056,224.945 -204.356,0 -398.577,-80.4674 -543.056,-224.945 -144.477,-144.478 -224.945,-338.7 -224.945,-543.056 0,-204.356 80.4674,-398.577 224.945,-543.056 144.478,-144.477 338.7,-224.945 543.056,-224.945zm456.17 311.83c-121.399,-121.4 -284.46,-188.949 -456.17,-188.949 -171.71,0 -334.772,67.5497 -456.17,188.949 -121.4,121.399 -188.949,284.46 -188.949,456.17 0,171.71 67.5497,334.772 188.949,456.17 121.399,121.4 284.46,188.949 456.17,188.949 171.71,0 334.772,-67.5497 456.17,-188.949 121.4,-121.399 188.949,-284.46 188.949,-456.17 0,-171.71 -67.5497,-334.772 -188.949,-456.17z"/>
  <path class="fil2" d="M1024 795.337c63.1371,0 120.304,25.5969 161.685,66.978 41.3811,41.3811 66.978,98.5477 66.978,161.685 0,63.1371 -25.5969,120.304 -66.978,161.685 -41.3811,41.3811 -98.5477,66.978 -161.685,66.978 -63.1371,0 -120.304,-25.5969 -161.685,-66.978 -41.3811,-41.3811 -66.978,-98.5477 -66.978,-161.685 0,-63.1371 25.5969,-120.304 66.978,-161.685 41.3811,-41.3811 98.5477,-66.978 161.685,-66.978zm101.588 127.075c-25.9937,-25.9937 -61.9123,-42.0733 -101.588,-42.0733 -39.6756,0 -75.5942,16.0795 -101.588,42.0733 -25.9937,25.9937 -42.0733,61.9123 -42.0733,101.588 0,39.6756 16.0795,75.5942 42.0733,101.588 25.9937,25.9937 61.9123,42.0733 101.588,42.0733 39.6756,0 75.5942,-16.0795 101.588,-42.0733 25.9937,-25.9937 42.0733,-61.9123 42.0733,-101.588 0,-39.6756 -16.0795,-75.5942 -42.0733,-101.588z"/>
 </g>
 <rect class="fil3" width="2048" height="2048"/>
</svg>
