<?xml version="1.0" encoding="UTF-8"?>
<!DOCTYPE svg PUBLIC "-//W3C//DTD SVG 1.1//EN" "http://www.w3.org/Graphics/SVG/1.1/DTD/svg11.dtd">
<!-- Creator: CorelDRAW -->
<svg xmlns="http://www.w3.org/2000/svg" xml:space="preserve" width="2048px" height="2048px" style="shape-rendering:geometricPrecision; text-rendering:geometricPrecision; image-rendering:optimizeQuality; fill-rule:evenodd; clip-rule:evenodd"
viewBox="0 0 2048 2048"
 xmlns:xlink="http://www.w3.org/1999/xlink">
 <defs>
  <style type="text/css">
   <![CDATA[
    .fil6 {fill:none}
    .fil5 {fill:#FFEBEE}
    .fil2 {fill:#37474F;fill-rule:nonzero}
    .fil4 {fill:#AF332F;fill-rule:nonzero}
    .fil3 {fill:#E53935;fill-rule:nonzero}
    .fil1 {fill:#FFAB00;fill-rule:nonzero}
    .fil0 {fill:#FFC400;fill-rule:nonzero}
   ]]>
  </style>
 </defs>
 <g id="Layer_x0020_1">
  <metadata id="CorelCorpID_0Corel-Layer"/>
  <g id="_258786280">
   <g>
    <g>
     <path id="_258787096" class="fil0" d="M1324.44 633.404c52.6937,0 99.8186,27.704 133.409,72.4926 31.6772,42.2363 51.2729,100.002 51.2729,163.273 0,7.85552 -0.317717,15.691 -0.937796,23.4815l-174.565 0c4.06181,-22.7244 6.08504,-45.8079 6.08504,-68.8926 0,-64.5485 -15.9095,-130.584 -48.9792,-186.429 10.9831,-2.57835 22.2508,-3.92599 33.7146,-3.92599z"/>
     <path id="_258786880" class="fil0" d="M938.94 633.404c12.5528,0 24.8504,1.6063 36.7855,4.67244 -32.7697,55.6867 -48.5374,121.422 -48.5374,185.682 0,23.0847 2.02323,46.1681 6.08504,68.8926l-178.075 0c-0.620079,-7.79056 -0.937796,-15.626 -0.937796,-23.4815 0,-63.2717 19.5945,-121.037 51.2717,-163.273 33.5906,-44.7886 80.7154,-72.4926 133.408,-72.4926z"/>
    </g>
    <path id="_258786952" class="fil1" d="M1131.69 542.582c62.0977,0 117.737,32.7874 157.491,85.793 37.8414,50.4556 61.2473,119.573 61.2473,195.384 0,23.641 -2.30197,46.7339 -6.62717,68.8926l-424.222 0c-4.3252,-22.1587 -6.62717,-45.2516 -6.62717,-68.8926 0,-75.8115 23.4071,-144.928 61.2473,-195.384 39.7536,-53.0056 95.393,-85.793 157.491,-85.793z"/>
    <path id="_258786856" class="fil1" d="M1091.07 568.895c6.49843,-25.1162 7.90158,-49.0205 2.51221,-71.2997 -5.3126,-21.9579 -17.4933,-43.1552 -38.2571,-63.3969 -3.70866,-29.9055 9.35198,-46.1067 43.6914,-44.9209 29.7142,28.9666 47.3929,60.3237 55.441,93.5906 7.97008,32.9445 6.24213,66.9461 -2.75788,101.737l-60.6296 -15.7099z"/>
   </g>
   <path id="_258787312" class="fil2" d="M818.051 1377.07c0,-17.3528 -14.0681,-31.4197 -31.4209,-31.4197 -17.3516,0 -31.4197,14.0669 -31.4197,31.4197l0 231.673c0,17.3528 14.0681,31.4209 31.4197,31.4209 17.3528,0 31.4209,-14.0681 31.4209,-31.4209l0 -231.673z"/>
   <path id="_258786832" class="fil2" d="M1016.84 1374.92c0,-17.3516 -14.0681,-31.4197 -31.4197,-31.4197 -17.3528,0 -31.4197,14.0681 -31.4197,31.4197l-188.515 231.675c0,17.3516 14.0681,31.4197 31.4197,31.4197 24.7134,0 191.99,-228.751 219.934,-263.094z"/>
   <path id="_258786520" class="fil3" d="M561.808 885.051l1163.76 0c12.7063,0 27.0839,4.8626 38.4201,12.0508 7.41024,4.69607 14.1673,10.8059 19.0772,17.6894 7.44095,10.428 10.8036,22.5036 7.88741,35.4071 -1.66536,7.35591 -5.25473,14.1768 -11.1201,20.1685l-293.849 300.154 -0.0673229 -0.0307087 -104.489 106.583 -192.189 13.5685 -457.731 0c-14.4685,0 -26.6492,-9.78072 -30.3012,-23.0906l-169.172 -439.855 -0.137008 0.0531496c-6.22914,-16.1953 1.85079,-34.3748 18.0461,-40.604 3.90473,-1.50236 7.92402,-2.17087 11.863,-2.0941z"/>
   <path id="_258786448" class="fil4" d="M1485.43 1270.99l-104.003 106.087 -191.465 13.5177c10.9004,-27.9177 27.5374,-53.5536 49.2272,-75.2434 41.2217,-41.2229 96.6898,-64.206 154.997,-64.206 31.8851,0 62.9209,6.87402 91.2438,19.8449z"/>
   <path id="_258786424" class="fil2" d="M1394.19 1281.9c52.0323,0 99.143,21.0957 133.245,55.1953 34.102,34.1032 55.1953,81.2138 55.1953,133.245 0,52.0311 -21.0933,99.1418 -55.1953,133.244 -34.102,34.102 -81.2127,55.1965 -133.245,55.1965 -52.0311,0 -99.1418,-21.0933 -133.244,-55.1953 -34.102,-34.102 -55.1965,-81.2138 -55.1965,-133.245 0,-52.0323 21.0945,-99.1418 55.1965,-133.245 34.102,-34.102 81.2127,-55.1953 133.244,-55.1953z"/>
   <path id="_258786376" class="fil3" d="M532.015 927.885l-85.8012 -218.399 -169.927 0c-25.865,-21.4276 -28.2107,-42.4158 0,-62.8406l191.277 0 21.3496 0 7.85906 20.0055 93.6603 238.405 -58.4185 22.8295z"/>
   <path id="_258786544" class="fil5" d="M1394.19 1380.17c-24.9036,0 -47.4485,10.0925 -63.7654,26.4095 -16.3169,16.3158 -26.4095,38.8618 -26.4095,63.7642 0,24.9024 10.0925,47.4485 26.4095,63.7654 16.3169,16.3169 38.8618,26.4095 63.7654,26.4095 24.9024,0 47.4485,-10.0937 63.7642,-26.4107 16.3169,-16.3169 26.4107,-38.8618 26.4107,-63.7642 0,-24.9024 -10.0937,-47.4485 -26.4107,-63.7642 -16.3158,-16.3169 -38.8618,-26.4095 -63.7642,-26.4095z"/>
  </g>
 </g>
 <rect class="fil6" width="2048" height="2048"/>
</svg>
