<?xml version="1.0" encoding="UTF-8"?>
<!DOCTYPE svg PUBLIC "-//W3C//DTD SVG 1.1//EN" "http://www.w3.org/Graphics/SVG/1.1/DTD/svg11.dtd">
<!-- Creator: CorelDRAW -->
<svg xmlns="http://www.w3.org/2000/svg" xml:space="preserve" width="2048px" height="2048px" style="shape-rendering:geometricPrecision; text-rendering:geometricPrecision; image-rendering:optimizeQuality; fill-rule:evenodd; clip-rule:evenodd"
viewBox="0 0 2048 2048"
 xmlns:xlink="http://www.w3.org/1999/xlink">
 <defs>
  <style type="text/css">
   <![CDATA[
    .fil3 {fill:none}
    .fil0 {fill:#D59706}
    .fil1 {fill:#FAB649}
    .fil2 {fill:#FBD89E}
   ]]>
  </style>
 </defs>
 <g id="Layer_x0020_1">
  <metadata id="CorelCorpID_0Corel-Layer"/>
  <g id="_258787648">
   <g>
    <path id="_258789280" class="fil0" d="M1781.08 477.398c0,-65.9375 -54.2351,-123.367 -141.917,-162.911 -80.1249,-36.1382 -190.078,-58.4882 -310.865,-58.4882 -120.786,0 -230.739,22.35 -310.864,58.4882 -87.6827,39.5433 -141.918,96.9733 -141.918,162.911 0,28.813 10.3524,56.0304 29.4118,80.9552 14.8748,19.4516 35.25,37.4681 60.2008,53.6374l0 550.067c0,20.0516 8.18386,38.2607 21.3614,51.4406 13.1788,13.1776 31.389,21.3614 51.4406,21.3614l580.735 0c20.0528,0 38.2607,-8.18386 51.4382,-21.3614 13.1788,-13.1799 21.3603,-31.389 21.3603,-51.4406l0 -550.067c24.952,-16.1705 45.3296,-34.1847 60.2032,-53.6374 19.0606,-24.9236 29.4118,-52.1422 29.4118,-80.9552zm-393.958 10.3323c13.1858,-16.8496 31.9359,-27.0532 53.1307,-26.6173 21.2303,0.434646 39.554,11.3847 52.0134,28.7303 10.4197,14.5039 16.6925,33.8327 16.3984,54.6166l0.119291 0.0011811 -0.12874 0.637796c-0.432284,21.0673 -7.513,40.3725 -18.6095,54.5516 -13.1858,16.8484 -31.9406,27.0508 -53.1284,26.6173 -21.2315,-0.437008 -39.5563,-11.3882 -52.0158,-28.7292 -10.5248,-14.6551 -16.8177,-34.2319 -16.3866,-55.2591 0.429922,-21.0662 7.51182,-40.3748 18.6071,-54.5493zm-233.21 342.283l0 0zm0.12874 -0.637796c0.539764,-26.3173 9.31418,-50.341 23.0599,-67.9052 15.7028,-20.0622 37.8177,-32.2807 62.6859,-31.9819l0.0011811 -0.121654 0.637796 0.12874c25.1658,0.519685 47.0103,13.6665 61.9808,34.5048 12.9295,18 20.6977,42.1146 20.2961,68.1438l0.119291 0.0011811 -0.12874 0.636615c-0.538583,26.3173 -9.31536,50.3422 -23.0599,67.904 -15.8351,20.237 -38.2004,32.4957 -63.3249,31.9796 -25.1681,-0.516142 -47.0126,-13.6677 -61.9808,-34.5048 -12.9295,-17.9988 -20.6977,-42.1134 -20.2961,-68.1438l-0.119291 -0.00354331 0.12874 -0.637796zm326.794 99.3473l0.638977 0.126378c20.9374,0.429922 39.0024,11.2169 51.2764,28.304 10.2331,14.2417 16.3937,33.215 16.1067,53.6126l0.119291 0 -0.12874 0.64252c-0.422835,20.674 -7.37953,39.6307 -18.2788,53.5559 -12.8563,16.4291 -31.0961,26.4437 -51.7323,26.2264l0 0.120473 -0.641339 -0.129921c-20.9374,-0.429922 -39.0012,-11.2158 -51.2741,-28.2992 -10.2343,-14.2417 -16.3961,-33.2185 -16.1091,-53.6126l-0.119291 0 0.12874 -0.64252c0.424016,-20.6776 7.3819,-39.6319 18.2799,-53.5583 12.8563,-16.4268 31.0984,-26.4425 51.73,-26.2264l0.00354331 -0.119291z"/>
    <path id="_258788656" class="fil1" d="M1749.34 477.398c0,-64.9158 -71.2548,-110.536 -123.222,-133.973 -89.5288,-40.3784 -200.309,-55.6808 -297.814,-55.6808 -97.5048,0 -208.282,15.3024 -297.812,55.6808 -51.9674,23.4366 -123.225,69.0567 -123.225,133.973 0,23.0114 9.04489,43.5744 22.8839,61.6737 14.0551,18.3791 32.9209,33.7536 52.2461,46.2768l14.4827 9.38505 0 567.324c0,10.9382 4.33583,21.2658 12.0626,28.9925 7.72678,7.72796 18.0567,12.0638 28.9937,12.0638l580.735 0c10.9382,0 21.2634,-4.33583 28.9902,-12.0638 7.72796,-7.72678 12.0638,-18.0532 12.0638,-28.9925l0 -567.323 14.4803 -9.38505c19.3276,-12.5244 38.1957,-27.8988 52.252,-46.2792 13.839,-18.098 22.8815,-38.6611 22.8815,-61.6725z"/>
    <path id="_258788992" class="fil2" d="M1492.27 489.844c-12.4595,-17.3469 -30.7843,-28.2945 -52.0146,-28.7303 -21.1937,-0.435827 -39.9426,9.76772 -53.1296,26.6173 -11.0953,14.1744 -18.176,33.4843 -18.6083,54.5504 -0.429922,21.026 5.863,40.6016 16.3878,55.2579 12.4595,17.341 30.7843,28.2933 52.0158,28.7292 21.1878,0.433465 39.9426,-9.76891 53.1296,-26.6185 11.0953,-14.1768 18.176,-33.4819 18.6083,-54.5493l0.12874 -0.638977 -0.119291 -0.0011811c0.294095,-20.7839 -5.97874,-40.1126 -16.3984,-54.6166z"/>
    <path id="_258788416" class="fil2" d="M1302.41 764c-14.9693,-20.8382 -36.8162,-33.9851 -61.9808,-34.5048l-0.637796 -0.12874 -0.00236221 0.121654c-24.8669,-0.298819 -46.9819,11.9197 -62.6835,31.9819 -13.7469,17.5654 -22.5213,41.5878 -23.061,67.9052l-0.12874 0.637796 0.119291 0.00354331c-0.401575,26.0303 7.36654,50.1437 20.2973,68.1438 14.9669,20.837 36.8114,33.9886 61.9796,34.5048 25.1244,0.516142 47.4898,-11.7425 63.3249,-31.9796 13.7445,-17.5618 22.5213,-41.5878 23.0599,-67.904l0.129921 -0.637796 -0.120473 -0.0011811c0.402756,-26.028 -7.36654,-50.1426 -20.2961,-68.1426z"/>
    <path id="_258788512" class="fil2" d="M1480.83 928.842c-20.6315,-0.217323 -38.8737,9.79843 -51.73,26.2264 -10.898,13.9264 -17.8559,32.8807 -18.2799,53.5583l-0.129921 0.64252 0.119291 0c-0.287008,20.3941 5.87599,39.3709 16.1102,53.6126 12.2728,17.0835 30.3366,27.8693 51.2741,28.2992l0.64252 0.12874 0 -0.11811c20.6351,0.216142 38.8748,-9.79843 51.7311,-26.2276 10.898,-13.9252 17.8559,-32.8819 18.2788,-53.5559l0.12874 -0.64252 -0.119291 0c0.287008,-20.3977 -5.87363,-39.3709 -16.1067,-53.6126 -12.274,-17.087 -30.339,-27.874 -51.2764,-28.304l-0.640158 -0.126378 -0.00236221 0.119291z"/>
   </g>
   <g>
    <path id="_258788608" class="fil0" d="M1172.48 1034.54c0,-65.9386 -54.2351,-123.369 -141.917,-162.912 -80.1249,-36.137 -190.078,-58.4882 -310.865,-58.4882 -120.786,0 -230.738,22.3512 -310.864,58.4882 -87.6816,39.5433 -141.917,96.9733 -141.917,162.912 0,28.813 10.3512,56.0292 29.4107,80.9552 14.8748,19.4504 35.25,37.467 60.2008,53.6363l0 550.067c0,20.0528 8.18386,38.2607 21.3614,51.4406 13.1799,13.1776 31.389,21.3614 51.4406,21.3614l580.735 0c20.054,0 38.2607,-8.18386 51.4382,-21.3614 13.1788,-13.1799 21.3603,-31.3878 21.3603,-51.4406l0 -550.067c24.952,-16.1705 45.3296,-34.1847 60.2044,-53.6363 19.0595,-24.9248 29.4107,-52.1422 29.4107,-80.9552zm-393.958 10.3311c13.1858,-16.8484 31.9359,-27.0532 53.1307,-26.6173 21.2303,0.435827 39.5551,11.3847 52.0146,28.7303 10.4185,14.5051 16.6914,33.8327 16.3973,54.6166l0.119291 0.0011811 -0.12874 0.637796c-0.432284,21.0685 -7.513,40.3737 -18.6095,54.5516 -13.1858,16.8496 -31.9406,27.0508 -53.1284,26.6173 -21.2315,-0.435827 -39.5563,-11.3882 -52.0158,-28.7292 -10.5248,-14.6551 -16.8177,-34.2319 -16.3866,-55.2579 0.429922,-21.0662 7.51182,-40.3748 18.6071,-54.5504zm-233.21 342.283l0 0zm0.12874 -0.637796c0.539764,-26.3173 9.31418,-50.3398 23.061,-67.9052 15.7016,-20.0622 37.8177,-32.2807 62.6847,-31.9807l0.0011811 -0.122835 0.637796 0.129921c25.1658,0.518504 47.0115,13.6654 61.9808,34.5036 12.9295,18 20.6988,42.1146 20.2961,68.1438l0.120473 0.0011811 -0.129921 0.636615c-0.538583,26.3173 -9.31536,50.3422 -23.0599,67.9052 -15.8351,20.2358 -38.2004,32.4957 -63.3249,31.9784 -25.1681,-0.516142 -47.0126,-13.6677 -61.9796,-34.5048 -12.9307,-17.9988 -20.6988,-42.1134 -20.2973,-68.1438l-0.119291 -0.00354331 0.12874 -0.637796zm326.794 99.3473l0.638977 0.126378c20.9374,0.431103 39.0024,11.2169 51.2764,28.304 10.2331,14.2429 16.3937,33.2162 16.1067,53.6126l0.119291 0 -0.12874 0.64252c-0.421654,20.6752 -7.37953,39.6307 -18.2788,53.5559 -12.8563,16.4303 -31.0961,26.4449 -51.7323,26.2276l0 0.119291 -0.641339 -0.12874c-20.9374,-0.431103 -39.0012,-11.2169 -51.2741,-28.2992 -10.2331,-14.2429 -16.3961,-33.2197 -16.1091,-53.6126l-0.119291 0 0.12874 -0.643701c0.424016,-20.6776 7.3819,-39.6319 18.2799,-53.5583 12.8563,-16.4268 31.0984,-26.4425 51.7311,-26.2264l0.00236221 -0.119291z"/>
    <path id="_258788800" class="fil1" d="M1140.74 1034.54c0,-64.9158 -71.256,-110.535 -123.223,-133.973 -89.5288,-40.3784 -200.309,-55.6808 -297.813,-55.6808 -97.506,0 -208.283,15.3024 -297.813,55.6808 -51.9674,23.4378 -123.223,69.0567 -123.223,133.973 0,23.0114 9.04371,43.5756 22.8827,61.6737 14.0551,18.3791 32.9209,33.7548 52.2473,46.278l14.4815 9.38387 0 567.324c0,10.9382 4.33583,21.2658 12.0626,28.9925 7.72678,7.72796 18.0567,12.0638 28.9949,12.0638l580.735 0c10.937,0 21.2622,-4.33583 28.989,-12.0638 7.72796,-7.72678 12.0638,-18.0532 12.0638,-28.9925l0 -567.323 14.4815 -9.38387c19.3264,-12.5244 38.1945,-27.9 52.2508,-46.2804 13.839,-18.0969 22.8827,-38.6611 22.8827,-61.6725z"/>
    <path id="_258788944" class="fil2" d="M883.667 1046.98c-12.4606,-17.3457 -30.7843,-28.2945 -52.0146,-28.7303 -21.1937,-0.435827 -39.9437,9.76891 -53.1307,26.6173 -11.0941,14.1744 -18.176,33.4843 -18.6071,54.5504 -0.429922,21.026 5.86182,40.6016 16.3866,55.2579 12.4595,17.341 30.7843,28.2933 52.0158,28.7292 21.1878,0.433465 39.9426,-9.76891 53.1296,-26.6173 11.0953,-14.178 18.176,-33.4831 18.6083,-54.5504l0.12874 -0.638977 -0.119291 -0.0011811c0.294095,-20.7839 -5.97874,-40.1114 -16.3973,-54.6166z"/>
    <path id="_258787792" class="fil2" d="M693.806 1321.14c-14.9693,-20.837 -36.8162,-33.9851 -61.9808,-34.5048l-0.637796 -0.12874 -0.00236221 0.121654c-24.8669,-0.298819 -46.9819,11.9197 -62.6835,31.9819 -13.7469,17.5654 -22.5213,41.5878 -23.061,67.9052l-0.12874 0.637796 0.119291 0.00354331c-0.401575,26.0303 7.36654,50.1449 20.2973,68.1438 14.9669,20.837 36.8114,33.9898 61.9796,34.5048 25.1244,0.517323 47.491,-11.7425 63.3249,-31.9796 13.7445,-17.5618 22.5213,-41.5866 23.061,-67.904l0.12874 -0.636615 -0.119291 -0.0011811c0.401575,-26.0292 -7.36654,-50.1437 -20.2973,-68.1438z"/>
    <path id="_258788032" class="fil2" d="M872.231 1485.98c-20.6315,-0.216142 -38.8737,9.79961 -51.73,26.2264 -10.898,13.9276 -17.8547,32.8807 -18.2799,53.5595l-0.129921 0.641339 0.119291 0c-0.287008,20.3941 5.87717,39.3709 16.1102,53.6126 12.2728,17.0835 30.3366,27.8693 51.2741,28.2992l0.64252 0.12874 0 -0.11811c20.6351,0.217323 38.8748,-9.79725 51.7323,-26.2276 10.898,-13.924 17.8547,-32.8819 18.2788,-53.5548l0.12874 -0.643701 -0.120473 0c0.287008,-20.3965 -5.87363,-39.3709 -16.1067,-53.6126 -12.274,-17.087 -30.339,-27.874 -51.2764,-28.304l-0.640158 -0.126378 -0.00236221 0.119291z"/>
   </g>
  </g>
 </g>
 <rect class="fil3" width="2048" height="2048"/>
</svg>
