<?xml version="1.0" encoding="UTF-8"?>
<!DOCTYPE svg PUBLIC "-//W3C//DTD SVG 1.1//EN" "http://www.w3.org/Graphics/SVG/1.1/DTD/svg11.dtd">
<!-- Creator: CorelDRAW -->
<svg xmlns="http://www.w3.org/2000/svg" xml:space="preserve" width="2048px" height="2048px" style="shape-rendering:geometricPrecision; text-rendering:geometricPrecision; image-rendering:optimizeQuality; fill-rule:evenodd; clip-rule:evenodd"
viewBox="0 0 2048 2048"
 xmlns:xlink="http://www.w3.org/1999/xlink">
 <defs>
  <style type="text/css">
   <![CDATA[
    .fil5 {fill:none}
    .fil4 {fill:#212121}
    .fil0 {fill:#E9A403}
    .fil1 {fill:#FFE082}
    .fil3 {fill:#FFFFFE}
    .fil2 {fill:#E9BB77;fill-rule:nonzero}
   ]]>
  </style>
 </defs>
 <g id="Layer_x0020_1">
  <metadata id="CorelCorpID_0Corel-Layer"/>
  <polygon class="fil0" points="709.043,501.86 576,616.241 749.842,639.96 729.443,570.91 "/>
  <path class="fil1" d="M1319.17 645.505c2.83819,-84.1973 -24.8622,-158.884 -52.6453,-233.784l-0.0413386 0.0153543 -4.50237 -12.1559c-39.7725,-107.616 -135.943,-148.25 -238.356,-143.113 -65.1497,3.26811 -132.94,25.5461 -189.112,60.926 -57.5481,36.2469 -103.61,86.6304 -123.643,145.206 -3.81496,11.1567 -6.70512,22.5555 -8.57245,34.1551 -3.64134,22.6028 -3.40276,45.9638 1.42205,69.7678 8.95158,44.1615 33.6886,89.8453 78.7335,135.031l-10.3665 16.4504c-49.4457,45.1063 -64.8579,104.802 -65.204,181.595l-42.4902 174.314 103.604 142.087 192 0 128 0 143.45 13.852 112.551 -109.852 96.0001 -63.9993 64.0004 -256.001c-14.6469,-22.1292 -59.6351,-79.5095 -77.2867,-96.0568 -31.1079,-29.1591 -66.7418,-49.0737 -107.541,-58.4374z"/>
  <path class="fil2" d="M1547.77 797.376c23.9032,48.8091 42.567,101.251 55.1233,156.356 12.2126,53.5937 18.7122,109.512 18.7122,166.85 0,184.519 -66.4134,351.855 -173.788,473.236 -108.298,122.423 -258.129,198.145 -423.819,198.145 -165.69,0 -315.521,-75.7229 -423.819,-198.145 -107.374,-121.381 -173.788,-288.717 -173.788,-473.236 0,-69.717 9.55985,-137.171 27.2858,-200.766 18.3307,-65.7756 45.4359,-127.208 79.7575,-182.555l29.8937 -48.2044 25.7315 50.4544 183.689 360.175 143.107 -126.271 17.3658 -15.3213 19.8851 11.6965 150.926 88.7812 113.13 -133.093 29.6173 -34.8437 22.5083 39.7193 61.3477 108.261 161.882 -244.865 30.7181 -46.4646 24.5327 50.0906z"/>
  <circle class="fil3" cx="917.313" cy="491.626" r="50.7768"/>
  <circle class="fil4" cx="917.312" cy="491.627" r="25.98"/>
 </g>
 <rect class="fil5" width="2048" height="2048"/>
</svg>
