<?xml version="1.0" encoding="UTF-8"?>
<!DOCTYPE svg PUBLIC "-//W3C//DTD SVG 1.1//EN" "http://www.w3.org/Graphics/SVG/1.1/DTD/svg11.dtd">
<!-- Creator: CorelDRAW -->
<svg xmlns="http://www.w3.org/2000/svg" xml:space="preserve" width="2048px" height="2048px" style="shape-rendering:geometricPrecision; text-rendering:geometricPrecision; image-rendering:optimizeQuality; fill-rule:evenodd; clip-rule:evenodd"
viewBox="0 0 2048 2048"
 xmlns:xlink="http://www.w3.org/1999/xlink">
 <defs>
  <style type="text/css">
   <![CDATA[
    .fil5 {fill:none}
    .fil3 {fill:#AF962E}
    .fil4 {fill:#D0B130}
    .fil2 {fill:#E3C132}
    .fil1 {fill:#F9D334}
    .fil0 {fill:#E3C132;fill-rule:nonzero}
   ]]>
  </style>
 </defs>
 <g id="Layer_x0020_1">
  <metadata id="CorelCorpID_0Corel-Layer"/>
  <g id="_258791296">
   <path id="_258794416" class="fil0" d="M268.406 997.609l872.62 -672.968c9.94371,-9.19016 25.1362,-11.387 37.604,-4.40433l-15.763 27.5599 15.75 -27.4618 594.994 333.278c8.54174,3.98268 15.2303,11.648 17.5441,21.4536 4.01929,17.0303 -6.67441,34.0618 -23.8831,38.0398l-0.0283465 -0.0354331 -1470.23 339.821c-12.2268,3.54449 -25.9406,-0.381496 -34.2473,-10.9311 -10.8626,-13.7941 -8.36812,-33.6945 5.57126,-44.4449l0.0732284 0.0933072z"/>
   <path id="_258793240" class="fil1" d="M1790.06 1365.78l0 -670.223 -9.11812 2.12953c-0.740552,0.201969 -1.48819,0.389764 -2.24173,0.565748l-31.402 7.33465 -0.00944883 -0.0401575 -1450.22 338.711c-11.2028,2.61614 -22.6902,2.42953 -33.3933,-0.419292l0 647.934 0 40.102 39.1772 -8.73544 1461.88 -325.994 25.3193 -5.64567 0 -25.7197z"/>
   <ellipse id="_258793120" class="fil2" cx="553.5" cy="1184.18" rx="122.816" ry="137.2"/>
   <ellipse id="_258793528" class="fil3" cx="518.072" cy="1177.01" rx="87.3887" ry="97.6235"/>
   <g>
    <ellipse id="_258793312" class="fil2" cx="979.702" cy="1204.97" rx="73.9951" ry="82.6612"/>
    <ellipse id="_258793288" class="fil3" cx="958.358" cy="1200.64" rx="52.6504" ry="58.8167"/>
   </g>
   <g>
    <ellipse id="_258793024" class="fil2" cx="1312.58" cy="993.315" rx="106.242" ry="82.6612"/>
    <ellipse id="_258792928" class="fil3" cx="1281.93" cy="988.993" rx="75.5953" ry="58.8167"/>
   </g>
   <ellipse id="_258792592" class="fil2" transform="matrix(1.15441 0.410228 -0.285715 0.804018 1612.3 1297.62)" rx="86.719" ry="96.8753"/>
   <ellipse id="_258792208" class="fil3" transform="matrix(0.821405 0.291894 -0.203297 0.572091 1584.87 1283.29)" rx="86.719" ry="96.8753"/>
   <g>
    <ellipse id="_258792184" class="fil2" cx="1657.79" cy="878.407" rx="73.9951" ry="82.6612"/>
    <ellipse id="_258792304" class="fil3" cx="1636.45" cy="874.085" rx="52.6504" ry="58.8167"/>
   </g>
   <g>
    <ellipse id="_258792784" class="fil2" transform="matrix(1.06797 -0.600322 0.418111 0.743815 709.379 1491.1)" rx="86.719" ry="96.8753"/>
    <ellipse id="_258792664" class="fil3" transform="matrix(0.7599 -0.427153 0.297503 0.529254 680.546 1502.35)" rx="86.719" ry="96.8753"/>
   </g>
   <g>
    <ellipse id="_258792640" class="fil4" transform="matrix(0.802242 -0.463415 0.59779 0.621909 1134.44 424.643)" rx="96.0001" ry="48"/>
    <ellipse id="_258791440" class="fil3" transform="matrix(0.483655 -0.279383 0.360395 0.374936 1165.03 406.976)" rx="96.0001" ry="48"/>
   </g>
   <g>
    <ellipse id="_258791968" class="fil4" transform="matrix(0.296901 0.836232 -1.33366 0.54698 1170 617.263)" rx="96.0001" ry="48"/>
    <ellipse id="_258791632" class="fil3" transform="matrix(0.178995 0.504147 -0.804034 0.329763 1181.32 649.143)" rx="96.0001" ry="48"/>
   </g>
   <g>
    <ellipse id="_258791560" class="fil4" transform="matrix(1.27788 0.0713935 0.220366 1.17112 802.471 768.733)" rx="96.0001" ry="48"/>
    <ellipse id="_258791776" class="fil3" transform="matrix(0.770405 0.0430416 0.132854 0.706044 851.189 771.455)" rx="96.0001" ry="48"/>
   </g>
   <g>
    <ellipse id="_258791824" class="fil4" transform="matrix(0.562443 0.031423 0.0969917 0.515456 535.904 917.336)" rx="96.0001" ry="48"/>
    <ellipse id="_258790600" class="fil3" transform="matrix(0.339085 0.0189443 0.0584742 0.310757 557.346 918.534)" rx="96.0001" ry="48"/>
   </g>
   <g>
    <ellipse id="_258790720" class="fil4" transform="matrix(-0.871526 -0.166964 0.202909 -1.42712 1558.05 644.47)" rx="96.0001" ry="48"/>
    <ellipse id="_258790696" class="fil3" transform="matrix(-0.525425 -0.100659 0.122329 -0.860378 1524.83 638.104)" rx="96.0001" ry="48"/>
   </g>
  </g>
 </g>
 <rect class="fil5" width="2048" height="2048"/>
</svg>
