<?xml version="1.0" encoding="UTF-8"?>
<!DOCTYPE svg PUBLIC "-//W3C//DTD SVG 1.1//EN" "http://www.w3.org/Graphics/SVG/1.1/DTD/svg11.dtd">
<!-- Creator: CorelDRAW -->
<svg xmlns="http://www.w3.org/2000/svg" xml:space="preserve" width="2048px" height="2048px" style="shape-rendering:geometricPrecision; text-rendering:geometricPrecision; image-rendering:optimizeQuality; fill-rule:evenodd; clip-rule:evenodd"
viewBox="0 0 2048 2048"
 xmlns:xlink="http://www.w3.org/1999/xlink">
 <defs>
  <style type="text/css">
   <![CDATA[
    .fil7 {fill:none}
    .fil6 {fill:#212121}
    .fil0 {fill:#5D4037}
    .fil1 {fill:#B89A7F}
    .fil4 {fill:#DB9C46}
    .fil5 {fill:#F0AA4A}
    .fil3 {fill:#B3800B;fill-rule:nonzero}
    .fil2 {fill:#FFB300;fill-rule:nonzero}
   ]]>
  </style>
 </defs>
 <g id="Layer_x0020_1">
  <metadata id="CorelCorpID_0Corel-Layer"/>
  <g id="_358592152">
   <path id="_358588096" class="fil0" d="M852.034 1792l343.931 0 83.3032 0c29.3114,0 53.2902,-23.9799 53.2902,-53.2902l0 -86.0717c0,-1.41732 -0.0578741,-2.82047 -0.166536,-4.21063l0 -931.932 0 -71.8678 0 -0.266929 0 -28.1138c1.86024,-37.3099 -10.8662,-75.2847 -38.1862,-103.632l-177.232 -183.892c-51.1359,-53.0587 -134.785,-53.0882 -185.886,-0.0661418l-177.358 184.024c-25.5449,26.5051 -38.3044,61.4481 -38.2985,96.3981l-0.00236221 0 0 107.417 0.177165 0 0 931.946c-0.108662,1.38425 -0.165354,2.78504 -0.165354,4.19646l0 86.0717c0,29.3103 23.9799,53.2902 53.2926,53.2902l83.2997 0z"/>
   <g>
    <path id="_358587640" class="fil1" d="M746.673 1348.08l74.5134 0c2.57362,0 4.67835,2.10473 4.67835,4.67953l0 32.576c0,2.57481 -2.10473,4.67953 -4.67835,4.67953l-74.5134 0c-2.03977,0 -3.78425,-1.32047 -4.42087,-3.15l0 -35.6351c0.636615,-1.82953 2.3811,-3.15 4.42087,-3.15z"/>
    <path id="_358587808" class="fil1" d="M842.702 1348.08l74.5134 0c2.57362,0 4.67835,2.10473 4.67835,4.67953l0 32.576c0,2.57481 -2.10473,4.67953 -4.67835,4.67953l-74.5134 0c-2.57481,0 -4.67953,-2.10473 -4.67953,-4.67953l0 -32.576c0,-2.57481 2.10473,-4.67953 4.67953,-4.67953z"/>
    <path id="_358587160" class="fil1" d="M938.73 1348.08l74.5123 0c2.57481,0 4.67953,2.10473 4.67953,4.67953l0 32.576c0,2.57481 -2.10473,4.67953 -4.67953,4.67953l-74.5123 0c-2.57481,0 -4.67953,-2.10473 -4.67953,-4.67953l0 -32.576c0,-2.57481 2.10473,-4.67953 4.67953,-4.67953z"/>
    <path id="_358586968" class="fil1" d="M1034.76 1348.08l74.5123 0c2.57481,0 4.67953,2.10473 4.67953,4.67953l0 32.576c0,2.57481 -2.10473,4.67953 -4.67953,4.67953l-74.5123 0c-2.57481,0 -4.67953,-2.10473 -4.67953,-4.67953l0 -32.576c0,-2.57481 2.10473,-4.67953 4.67953,-4.67953z"/>
    <path id="_358587520" class="fil1" d="M1130.79 1348.08l74.5123 0c2.57481,0 4.67953,2.10473 4.67953,4.67953l0 32.576c0,2.57481 -2.10473,4.67953 -4.67953,4.67953l-74.5123 0c-2.57481,0 -4.67953,-2.10473 -4.67953,-4.67953l0 -32.576c0,-2.57481 2.10473,-4.67953 4.67953,-4.67953z"/>
    <path id="_358586992" class="fil1" d="M1226.81 1348.08l74.5134 0c2.0374,0 3.77953,1.31811 4.41851,3.14173l0 35.6516c-0.638977,1.82362 -2.3811,3.14173 -4.41851,3.14173l-74.5134 0c-2.57362,0 -4.67835,-2.10473 -4.67835,-4.67953l0 -32.576c0,-2.57481 2.10473,-4.67953 4.67835,-4.67953z"/>
    <path id="_358586824" class="fil1" d="M794.688 1402.17l74.5134 0c2.57362,0 4.67835,2.10473 4.67835,4.67835l0 32.5772c0,2.57481 -2.10473,4.67953 -4.67835,4.67953l-74.5134 0c-2.57481,0 -4.67953,-2.10473 -4.67953,-4.67953l0 -32.5772c0,-2.57362 2.10473,-4.67835 4.67953,-4.67835z"/>
    <path id="_358586704" class="fil1" d="M773.168 1402.17l-26.4933 0c-2.03977,0 -3.78544,1.32284 -4.42205,3.15118l0 35.6339c0.636615,1.82835 2.3811,3.15118 4.42205,3.15118l26.4933 0c2.57599,0 4.68071,-2.10591 4.68071,-4.68071l0 -32.576c0,-2.57362 -2.10591,-4.67953 -4.68071,-4.67953z"/>
    <path id="_358586416" class="fil1" d="M1301.33 1402.17l-26.4933 0c-2.57481,0 -4.68071,2.10709 -4.68071,4.67953l0 32.576c0,2.57362 2.10473,4.68071 4.68071,4.68071l26.4933 0c2.03858,0 3.78071,-1.31811 4.41969,-3.1441l0 -35.6481c-0.638977,-1.8248 -2.38347,-3.1441 -4.41969,-3.1441z"/>
    <path id="_358586632" class="fil1" d="M890.716 1402.17l74.5123 0c2.57481,0 4.67953,2.10473 4.67953,4.67835l0 32.5772c0,2.57481 -2.10473,4.67953 -4.67953,4.67953l-74.5123 0c-2.57481,0 -4.67953,-2.10473 -4.67953,-4.67953l0 -32.5772c0,-2.57362 2.10473,-4.67835 4.67953,-4.67835z"/>
    <path id="_358586200" class="fil1" d="M986.744 1402.17l74.5123 0c2.57481,0 4.67953,2.10473 4.67953,4.67835l0 32.5772c0,2.57481 -2.10473,4.67953 -4.67953,4.67953l-74.5123 0c-2.57481,0 -4.67953,-2.10473 -4.67953,-4.67953l0 -32.5772c0,-2.57362 2.10473,-4.67835 4.67953,-4.67835z"/>
    <path id="_358585648" class="fil1" d="M1082.77 1402.17l74.5123 0c2.57481,0 4.67953,2.10473 4.67953,4.67835l0 32.5772c0,2.57481 -2.10473,4.67953 -4.67953,4.67953l-74.5123 0c-2.57481,0 -4.67953,-2.10473 -4.67953,-4.67953l0 -32.5772c0,-2.57362 2.10473,-4.67835 4.67953,-4.67835z"/>
    <path id="_358585936" class="fil1" d="M1178.8 1402.17l74.5134 0c2.57481,0 4.67953,2.10473 4.67953,4.67835l0 32.5772c0,2.57481 -2.10473,4.67953 -4.67953,4.67953l-74.5134 0c-2.57362,0 -4.67835,-2.10473 -4.67835,-4.67953l0 -32.5772c0,-2.57362 2.10473,-4.67835 4.67835,-4.67835z"/>
    <path id="_358585672" class="fil1" d="M746.673 1456.25l74.5134 0c2.57362,0 4.67835,2.10473 4.67835,4.67953l0 32.576c0,2.57481 -2.10473,4.67953 -4.67835,4.67953l-74.5134 0c-2.03977,0 -3.78425,-1.32047 -4.42087,-3.15l0 -35.6351c0.636615,-1.82953 2.3811,-3.15 4.42087,-3.15z"/>
    <path id="_358585864" class="fil1" d="M842.702 1456.25l74.5134 0c2.57362,0 4.67835,2.10473 4.67835,4.67953l0 32.576c0,2.57481 -2.10473,4.67953 -4.67835,4.67953l-74.5134 0c-2.57481,0 -4.67953,-2.10473 -4.67953,-4.67953l0 -32.576c0,-2.57481 2.10473,-4.67953 4.67953,-4.67953z"/>
    <path id="_358585024" class="fil1" d="M938.73 1456.25l74.5123 0c2.57481,0 4.67953,2.10473 4.67953,4.67953l0 32.576c0,2.57481 -2.10473,4.67953 -4.67953,4.67953l-74.5123 0c-2.57481,0 -4.67953,-2.10473 -4.67953,-4.67953l0 -32.576c0,-2.57481 2.10473,-4.67953 4.67953,-4.67953z"/>
    <path id="_358584856" class="fil1" d="M1034.76 1456.25l74.5123 0c2.57481,0 4.67953,2.10473 4.67953,4.67953l0 32.576c0,2.57481 -2.10473,4.67953 -4.67953,4.67953l-74.5123 0c-2.57481,0 -4.67953,-2.10473 -4.67953,-4.67953l0 -32.576c0,-2.57481 2.10473,-4.67953 4.67953,-4.67953z"/>
    <path id="_358585264" class="fil1" d="M1130.79 1456.25l74.5123 0c2.57481,0 4.67953,2.10473 4.67953,4.67953l0 32.576c0,2.57481 -2.10473,4.67953 -4.67953,4.67953l-74.5123 0c-2.57481,0 -4.67953,-2.10473 -4.67953,-4.67953l0 -32.576c0,-2.57481 2.10473,-4.67953 4.67953,-4.67953z"/>
    <path id="_358585288" class="fil1" d="M1226.81 1456.25l74.5134 0c2.0374,0 3.77953,1.31811 4.41851,3.14173l0 35.6516c-0.638977,1.82362 -2.3811,3.14173 -4.41851,3.14173l-74.5134 0c-2.57362,0 -4.67835,-2.10473 -4.67835,-4.67953l0 -32.576c0,-2.57481 2.10473,-4.67953 4.67835,-4.67953z"/>
    <path id="_358584688" class="fil1" d="M794.688 1510.34l74.5134 0c2.57362,0 4.67835,2.10473 4.67835,4.67835l0 32.5772c0,2.57481 -2.10473,4.67953 -4.67835,4.67953l-74.5134 0c-2.57481,0 -4.67953,-2.10473 -4.67953,-4.67953l0 -32.5772c0,-2.57362 2.10473,-4.67835 4.67953,-4.67835z"/>
    <path id="_358584040" class="fil1" d="M773.168 1510.34l-26.4933 0c-2.03977,0 -3.78544,1.32284 -4.42205,3.15118l0 35.6327c0.636615,1.82953 2.3811,3.15118 4.42205,3.15118l26.4933 0c2.57599,0 4.68071,-2.10473 4.68071,-4.68071l0 -32.5748c0,-2.57362 -2.10591,-4.67953 -4.68071,-4.67953z"/>
    <path id="_358583968" class="fil1" d="M1301.33 1510.34l-26.4933 0c-2.57481,0 -4.68071,2.10709 -4.68071,4.67953l0 32.5748c0,2.57481 2.10473,4.68071 4.68071,4.68071l26.4933 0c2.03858,0 3.78071,-1.31811 4.41969,-3.1441l0 -35.6469c-0.638977,-1.8248 -2.38347,-3.1441 -4.41969,-3.1441z"/>
    <path id="_358584136" class="fil1" d="M890.716 1510.34l74.5123 0c2.57481,0 4.67953,2.10473 4.67953,4.67835l0 32.5772c0,2.57481 -2.10473,4.67953 -4.67953,4.67953l-74.5123 0c-2.57481,0 -4.67953,-2.10473 -4.67953,-4.67953l0 -32.5772c0,-2.57362 2.10473,-4.67835 4.67953,-4.67835z"/>
    <path id="_358583800" class="fil1" d="M986.744 1510.34l74.5123 0c2.57481,0 4.67953,2.10473 4.67953,4.67835l0 32.5772c0,2.57481 -2.10473,4.67953 -4.67953,4.67953l-74.5123 0c-2.57481,0 -4.67953,-2.10473 -4.67953,-4.67953l0 -32.5772c0,-2.57362 2.10473,-4.67835 4.67953,-4.67835z"/>
    <path id="_358583368" class="fil1" d="M1082.77 1510.34l74.5123 0c2.57481,0 4.67953,2.10473 4.67953,4.67835l0 32.5772c0,2.57481 -2.10473,4.67953 -4.67953,4.67953l-74.5123 0c-2.57481,0 -4.67953,-2.10473 -4.67953,-4.67953l0 -32.5772c0,-2.57362 2.10473,-4.67835 4.67953,-4.67835z"/>
    <path id="_358583104" class="fil1" d="M1178.8 1510.34l74.5134 0c2.57481,0 4.67953,2.10473 4.67953,4.67835l0 32.5772c0,2.57481 -2.10473,4.67953 -4.67953,4.67953l-74.5134 0c-2.57362,0 -4.67835,-2.10473 -4.67835,-4.67953l0 -32.5772c0,-2.57362 2.10473,-4.67835 4.67835,-4.67835z"/>
    <path id="_358583752" class="fil1" d="M746.673 1564.43l74.5134 0c2.57362,0 4.67835,2.10473 4.67835,4.67953l0 32.576c0,2.57481 -2.10473,4.67953 -4.67835,4.67953l-74.5134 0c-2.03977,0 -3.78425,-1.32047 -4.42087,-3.15l0 -35.6351c0.636615,-1.82953 2.3811,-3.15 4.42087,-3.15z"/>
    <path id="_358583536" class="fil1" d="M842.702 1564.43l74.5134 0c2.57362,0 4.67835,2.10473 4.67835,4.67953l0 32.576c0,2.57481 -2.10473,4.67953 -4.67835,4.67953l-74.5134 0c-2.57481,0 -4.67953,-2.10473 -4.67953,-4.67953l0 -32.576c0,-2.57481 2.10473,-4.67953 4.67953,-4.67953z"/>
    <path id="_358583152" class="fil1" d="M938.73 1564.43l74.5123 0c2.57481,0 4.67953,2.10473 4.67953,4.67953l0 32.576c0,2.57481 -2.10473,4.67953 -4.67953,4.67953l-74.5123 0c-2.57481,0 -4.67953,-2.10473 -4.67953,-4.67953l0 -32.576c0,-2.57481 2.10473,-4.67953 4.67953,-4.67953z"/>
    <path id="_358582528" class="fil1" d="M1034.76 1564.43l74.5123 0c2.57481,0 4.67953,2.10473 4.67953,4.67953l0 32.576c0,2.57481 -2.10473,4.67953 -4.67953,4.67953l-74.5123 0c-2.57481,0 -4.67953,-2.10473 -4.67953,-4.67953l0 -32.576c0,-2.57481 2.10473,-4.67953 4.67953,-4.67953z"/>
    <path id="_358582504" class="fil1" d="M1130.79 1564.43l74.5123 0c2.57481,0 4.67953,2.10473 4.67953,4.67953l0 32.576c0,2.57481 -2.10473,4.67953 -4.67953,4.67953l-74.5123 0c-2.57481,0 -4.67953,-2.10473 -4.67953,-4.67953l0 -32.576c0,-2.57481 2.10473,-4.67953 4.67953,-4.67953z"/>
    <path id="_358582672" class="fil1" d="M1226.81 1564.43l74.5134 0c2.0374,0 3.77953,1.31811 4.41851,3.14173l0 35.6516c-0.638977,1.82362 -2.3811,3.14173 -4.41851,3.14173l-74.5134 0c-2.57362,0 -4.67835,-2.10473 -4.67835,-4.67953l0 -32.576c0,-2.57481 2.10473,-4.67953 4.67835,-4.67953z"/>
    <path id="_358582432" class="fil1" d="M794.688 1618.51l74.5134 0c2.57362,0 4.67835,2.10473 4.67835,4.67835l0 32.5772c0,2.57481 -2.10473,4.67953 -4.67835,4.67953l-74.5134 0c-2.57481,0 -4.67953,-2.10473 -4.67953,-4.67953l0 -32.5772c0,-2.57362 2.10473,-4.67835 4.67953,-4.67835z"/>
    <path id="_358582048" class="fil1" d="M773.168 1618.51l-26.4933 0c-2.03977,0 -3.78544,1.32284 -4.42205,3.15118l0 26.7792c0,1.45984 -0.116929,2.86181 -0.166536,4.30512l0 3.94016c0.431103,2.13662 2.32795,3.75945 4.58859,3.75945l26.4933 0c2.57599,0 4.68071,-2.10473 4.68071,-4.68071l0 -32.5748c0,-2.57362 -2.10591,-4.67953 -4.68071,-4.67953z"/>
    <path id="_358581904" class="fil1" d="M1301.33 1618.51l-26.4933 0c-2.57481,0 -4.68071,2.10709 -4.68071,4.67953l0 32.5748c0,2.57481 2.10473,4.68071 4.68071,4.68071l26.4933 0c2.25827,0 4.15394,-1.61811 4.58741,-3.75355l0 -3.94607c-0.0496063,-1.44921 -0.167717,-2.85236 -0.167717,-4.31929l0 -26.7721c-0.638977,-1.8248 -2.38347,-3.1441 -4.41969,-3.1441z"/>
    <path id="_358581880" class="fil1" d="M890.716 1618.51l74.5123 0c2.57481,0 4.67953,2.10473 4.67953,4.67835l0 32.5772c0,2.57481 -2.10473,4.67953 -4.67953,4.67953l-74.5123 0c-2.57481,0 -4.67953,-2.10473 -4.67953,-4.67953l0 -32.5772c0,-2.57362 2.10473,-4.67835 4.67953,-4.67835z"/>
    <path id="_358581592" class="fil1" d="M986.744 1618.51l74.5123 0c2.57481,0 4.67953,2.10473 4.67953,4.67835l0 32.5772c0,2.57481 -2.10473,4.67953 -4.67953,4.67953l-74.5123 0c-2.57481,0 -4.67953,-2.10473 -4.67953,-4.67953l0 -32.5772c0,-2.57362 2.10473,-4.67835 4.67953,-4.67835z"/>
    <path id="_358581928" class="fil1" d="M1082.77 1618.51l74.5123 0c2.57481,0 4.67953,2.10473 4.67953,4.67835l0 32.5772c0,2.57481 -2.10473,4.67953 -4.67953,4.67953l-74.5123 0c-2.57481,0 -4.67953,-2.10473 -4.67953,-4.67953l0 -32.5772c0,-2.57362 2.10473,-4.67835 4.67953,-4.67835z"/>
    <path id="_358581208" class="fil1" d="M1178.8 1618.51l74.5134 0c2.57481,0 4.67953,2.10473 4.67953,4.67835l0 32.5772c0,2.57481 -2.10473,4.67953 -4.67953,4.67953l-74.5134 0c-2.57362,0 -4.67835,-2.10473 -4.67835,-4.67953l0 -32.5772c0,-2.57362 2.10473,-4.67835 4.67835,-4.67835z"/>
    <path id="_358581088" class="fil1" d="M746.673 1672.6l74.5134 0c2.57362,0 4.67835,2.10473 4.67835,4.67953l0 32.576c0,2.57481 -2.10473,4.67953 -4.67835,4.67953l-74.5134 0c-2.25945,0 -4.1563,-1.62165 -4.58741,-3.75709l0 -34.4197c0.431103,-2.13662 2.32795,-3.75827 4.58741,-3.75827z"/>
    <path id="_358581424" class="fil1" d="M842.702 1672.6l74.5134 0c2.57362,0 4.67835,2.10473 4.67835,4.67953l0 32.576c0,2.57481 -2.10473,4.67953 -4.67835,4.67953l-74.5134 0c-2.57481,0 -4.67953,-2.10473 -4.67953,-4.67953l0 -32.576c0,-2.57481 2.10473,-4.67953 4.67953,-4.67953z"/>
    <path id="_358580872" class="fil1" d="M938.73 1672.6l74.5123 0c2.57481,0 4.67953,2.10473 4.67953,4.67953l0 32.576c0,2.57481 -2.10473,4.67953 -4.67953,4.67953l-74.5123 0c-2.57481,0 -4.67953,-2.10473 -4.67953,-4.67953l0 -32.576c0,-2.57481 2.10473,-4.67953 4.67953,-4.67953z"/>
    <path id="_358580248" class="fil1" d="M1034.76 1672.6l74.5123 0c2.57481,0 4.67953,2.10473 4.67953,4.67953l0 32.576c0,2.57481 -2.10473,4.67953 -4.67953,4.67953l-74.5123 0c-2.57481,0 -4.67953,-2.10473 -4.67953,-4.67953l0 -32.576c0,-2.57481 2.10473,-4.67953 4.67953,-4.67953z"/>
    <path id="_358580368" class="fil1" d="M1130.79 1672.6l74.5123 0c2.57481,0 4.67953,2.10473 4.67953,4.67953l0 32.576c0,2.57481 -2.10473,4.67953 -4.67953,4.67953l-74.5123 0c-2.57481,0 -4.67953,-2.10473 -4.67953,-4.67953l0 -32.576c0,-2.57481 2.10473,-4.67953 4.67953,-4.67953z"/>
    <path id="_358580296" class="fil1" d="M1226.81 1672.6l74.5134 0c2.25709,0 4.15276,1.61811 4.58622,3.75118l0 34.4327c-0.433465,2.13425 -2.32914,3.75118 -4.58622,3.75118l-74.5134 0c-2.57362,0 -4.67835,-2.10473 -4.67835,-4.67953l0 -32.576c0,-2.57481 2.10473,-4.67953 4.67835,-4.67953z"/>
    <path id="_358580536" class="fil1" d="M794.688 1726.68l74.5134 0c2.57362,0 4.67835,2.10473 4.67835,4.67835l0 32.5772c0,0.493701 -0.0767717,0.969686 -0.219685,1.41614l-83.4308 0c-0.144095,-0.446457 -0.220866,-0.922442 -0.220866,-1.41614l0 -32.5772c0,-2.57362 2.10473,-4.67835 4.67953,-4.67835z"/>
    <path id="_358580416" class="fil1" d="M773.168 1726.68l-26.4933 0c-2.25827,0 -4.15748,1.62165 -4.58859,3.75827l0 8.26772c0,14.6043 12.0437,26.6457 26.6481,26.6457l8.89489 0c0.142913,-0.447638 0.219685,-0.923623 0.219685,-1.41732l0 -32.5748c0,-2.57481 -2.10591,-4.67953 -4.68071,-4.67953z"/>
    <path id="_358579696" class="fil1" d="M1301.33 1726.68l-26.4933 0c-2.57481,0 -4.68071,2.10591 -4.68071,4.67953l0 32.5748c0,0.493701 0.0791339,0.969686 0.220866,1.41732l8.89489 0c14.6032,0 26.6457,-12.0425 26.6457,-26.6457l0 -8.27363c-0.434646,-2.13543 -2.33268,-3.75237 -4.58741,-3.75237z"/>
    <path id="_358579888" class="fil1" d="M890.716 1726.68l74.5123 0c2.57481,0 4.67953,2.10473 4.67953,4.67835l0 32.5772c0,0.493701 -0.0767717,0.969686 -0.219685,1.41614l-83.4308 0c-0.144095,-0.446457 -0.220866,-0.922442 -0.220866,-1.41614l0 -32.5772c0,-2.57362 2.10473,-4.67835 4.67953,-4.67835z"/>
    <path id="_358579912" class="fil1" d="M986.744 1726.68l74.5123 0c2.57481,0 4.67953,2.10473 4.67953,4.67835l0 32.5772c0,0.493701 -0.0767717,0.969686 -0.219685,1.41614l-83.432 0c-0.142913,-0.446457 -0.219685,-0.922442 -0.219685,-1.41614l0 -32.5772c0,-2.57362 2.10473,-4.67835 4.67953,-4.67835z"/>
    <path id="_358579312" class="fil1" d="M1082.77 1726.68l74.5123 0c2.57481,0 4.67953,2.10473 4.67953,4.67835l0 32.5772c0,0.493701 -0.0767717,0.969686 -0.220866,1.41614l-83.4308 0c-0.142913,-0.446457 -0.219685,-0.922442 -0.219685,-1.41614l0 -32.5772c0,-2.57362 2.10473,-4.67835 4.67953,-4.67835z"/>
    <path id="_358578760" class="fil1" d="M1178.8 1726.68l74.5134 0c2.57481,0 4.67953,2.10473 4.67953,4.67835l0 32.5772c0,0.493701 -0.0767717,0.969686 -0.220866,1.41614l-83.4308 0c-0.142913,-0.446457 -0.219685,-0.922442 -0.219685,-1.41614l0 -32.5772c0,-2.57362 2.10473,-4.67835 4.67835,-4.67835z"/>
    <path id="_358578400" class="fil1" d="M746.673 915.817l74.5134 0c2.57362,0 4.67835,2.10473 4.67835,4.67953l0 32.5772c0,2.57362 -2.10473,4.67835 -4.67835,4.67835l-74.5134 0c-2.03977,0 -3.78425,-1.32047 -4.42087,-3.14882l0 -35.6362c0.636615,-1.82953 2.3811,-3.15 4.42087,-3.15z"/>
    <path id="_358579000" class="fil1" d="M842.702 915.817l74.5134 0c2.57362,0 4.67835,2.10473 4.67835,4.67953l0 32.5772c0,2.57362 -2.10473,4.67835 -4.67835,4.67835l-74.5134 0c-2.57481,0 -4.67953,-2.10473 -4.67953,-4.67835l0 -32.5772c0,-2.57481 2.10473,-4.67953 4.67953,-4.67953z"/>
    <path id="_358579120" class="fil1" d="M938.73 915.817l74.5123 0c2.57481,0 4.67953,2.10473 4.67953,4.67953l0 32.5772c0,2.57362 -2.10473,4.67835 -4.67953,4.67835l-74.5123 0c-2.57481,0 -4.67953,-2.10473 -4.67953,-4.67835l0 -32.5772c0,-2.57481 2.10473,-4.67953 4.67953,-4.67953z"/>
    <path id="_358578424" class="fil1" d="M1034.76 915.817l74.5123 0c2.57481,0 4.67953,2.10473 4.67953,4.67953l0 32.5772c0,2.57362 -2.10473,4.67835 -4.67953,4.67835l-74.5123 0c-2.57481,0 -4.67953,-2.10473 -4.67953,-4.67835l0 -32.5772c0,-2.57481 2.10473,-4.67953 4.67953,-4.67953z"/>
    <path id="_358577656" class="fil1" d="M1130.79 915.817l74.5123 0c2.57481,0 4.67953,2.10473 4.67953,4.67953l0 32.5772c0,2.57362 -2.10473,4.67835 -4.67953,4.67835l-74.5123 0c-2.57481,0 -4.67953,-2.10473 -4.67953,-4.67835l0 -32.5772c0,-2.57481 2.10473,-4.67953 4.67953,-4.67953z"/>
    <path id="_358577800" class="fil1" d="M1226.81 915.817l74.5134 0c2.0374,0 3.77953,1.31811 4.41851,3.14292l0 35.6504c-0.638977,1.8248 -2.3811,3.14173 -4.41851,3.14173l-74.5134 0c-2.57362,0 -4.67835,-2.10473 -4.67835,-4.67835l0 -32.5772c0,-2.57481 2.10473,-4.67953 4.67835,-4.67953z"/>
    <path id="_358577776" class="fil1" d="M794.688 969.903l74.5134 0c2.57362,0 4.67835,2.10473 4.67835,4.67953l0 32.576c0,2.57481 -2.10473,4.67953 -4.67835,4.67953l-74.5134 0c-2.57481,0 -4.67953,-2.10473 -4.67953,-4.67953l0 -32.576c0,-2.57481 2.10473,-4.67953 4.67953,-4.67953z"/>
    <path id="_358578064" class="fil1" d="M773.17 969.903l-26.4957 0c-2.03977,0 -3.78544,1.32402 -4.42205,3.15355l0 35.6303c0.636615,1.82953 2.38229,3.15236 4.42205,3.15236l26.4957 0c2.57244,0 4.67835,-2.10591 4.67835,-4.68071l0 -32.5748c0,-2.57481 -2.10709,-4.68071 -4.67835,-4.68071z"/>
    <path id="_358577368" class="fil1" d="M1301.33 969.903l-26.4945 0c-2.57244,0 -4.67953,2.10827 -4.67953,4.68071l0 32.5748c0,2.57362 2.10591,4.68071 4.67953,4.68071l26.4945 0c2.0374,0 3.78189,-1.31929 4.41969,-3.1441l0 -35.6481c-0.638977,-1.8248 -2.38347,-3.1441 -4.41969,-3.1441z"/>
    <path id="_358577584" class="fil1" d="M890.716 969.903l74.5123 0c2.57481,0 4.67953,2.10473 4.67953,4.67953l0 32.576c0,2.57481 -2.10473,4.67953 -4.67953,4.67953l-74.5123 0c-2.57481,0 -4.67953,-2.10473 -4.67953,-4.67953l0 -32.576c0,-2.57481 2.10473,-4.67953 4.67953,-4.67953z"/>
    <path id="_358576960" class="fil1" d="M986.744 969.903l74.5123 0c2.57481,0 4.67953,2.10473 4.67953,4.67953l0 32.576c0,2.57481 -2.10473,4.67953 -4.67953,4.67953l-74.5123 0c-2.57481,0 -4.67953,-2.10473 -4.67953,-4.67953l0 -32.576c0,-2.57481 2.10473,-4.67953 4.67953,-4.67953z"/>
    <path id="_358576936" class="fil1" d="M1082.77 969.903l74.5123 0c2.57481,0 4.67953,2.10473 4.67953,4.67953l0 32.576c0,2.57481 -2.10473,4.67953 -4.67953,4.67953l-74.5123 0c-2.57481,0 -4.67953,-2.10473 -4.67953,-4.67953l0 -32.576c0,-2.57481 2.10473,-4.67953 4.67953,-4.67953z"/>
    <path id="_358577608" class="fil1" d="M1178.8 969.903l74.5134 0c2.57481,0 4.67953,2.10473 4.67953,4.67953l0 32.576c0,2.57481 -2.10473,4.67953 -4.67953,4.67953l-74.5134 0c-2.57362,0 -4.67835,-2.10473 -4.67835,-4.67953l0 -32.576c0,-2.57481 2.10473,-4.67953 4.67835,-4.67953z"/>
    <path id="_358576312" class="fil1" d="M746.673 1023.99l74.5134 0c2.57362,0 4.67835,2.10473 4.67835,4.67953l0 32.5772c0,2.57362 -2.10473,4.67835 -4.67835,4.67835l-74.5134 0c-2.03977,0 -3.78425,-1.32047 -4.42087,-3.14882l0 -35.6362c0.636615,-1.82953 2.3811,-3.15 4.42087,-3.15z"/>
    <path id="_358576840" class="fil1" d="M842.702 1023.99l74.5134 0c2.57362,0 4.67835,2.10473 4.67835,4.67953l0 32.5772c0,2.57362 -2.10473,4.67835 -4.67835,4.67835l-74.5134 0c-2.57481,0 -4.67953,-2.10473 -4.67953,-4.67835l0 -32.5772c0,-2.57481 2.10473,-4.67953 4.67953,-4.67953z"/>
    <path id="_358576768" class="fil1" d="M938.73 1023.99l74.5123 0c2.57481,0 4.67953,2.10473 4.67953,4.67953l0 32.5772c0,2.57362 -2.10473,4.67835 -4.67953,4.67835l-74.5123 0c-2.57481,0 -4.67953,-2.10473 -4.67953,-4.67835l0 -32.5772c0,-2.57481 2.10473,-4.67953 4.67953,-4.67953z"/>
    <path id="_358576264" class="fil1" d="M1034.76 1023.99l74.5123 0c2.57481,0 4.67953,2.10473 4.67953,4.67953l0 32.5772c0,2.57362 -2.10473,4.67835 -4.67953,4.67835l-74.5123 0c-2.57481,0 -4.67953,-2.10473 -4.67953,-4.67835l0 -32.5772c0,-2.57481 2.10473,-4.67953 4.67953,-4.67953z"/>
    <path id="_358575568" class="fil1" d="M1130.79 1023.99l74.5123 0c2.57481,0 4.67953,2.10473 4.67953,4.67953l0 32.5772c0,2.57362 -2.10473,4.67835 -4.67953,4.67835l-74.5123 0c-2.57481,0 -4.67953,-2.10473 -4.67953,-4.67835l0 -32.5772c0,-2.57481 2.10473,-4.67953 4.67953,-4.67953z"/>
    <path id="_358575976" class="fil1" d="M1226.81 1023.99l74.5134 0c2.0374,0 3.77953,1.31811 4.41851,3.14292l0 35.6504c-0.638977,1.8248 -2.3811,3.14173 -4.41851,3.14173l-74.5134 0c-2.57362,0 -4.67835,-2.10473 -4.67835,-4.67835l0 -32.5772c0,-2.57481 2.10473,-4.67953 4.67835,-4.67953z"/>
    <path id="_358575856" class="fil1" d="M794.688 1078.08l74.5134 0c2.57362,0 4.67835,2.10473 4.67835,4.67953l0 32.576c0,2.57481 -2.10473,4.67953 -4.67835,4.67953l-74.5134 0c-2.57481,0 -4.67953,-2.10473 -4.67953,-4.67953l0 -32.576c0,-2.57481 2.10473,-4.67953 4.67953,-4.67953z"/>
    <path id="_358575616" class="fil1" d="M773.17 1078.08l-26.4957 0c-2.03977,0 -3.78544,1.32284 -4.42205,3.15236l0 35.6303c0.636615,1.82953 2.38229,3.15355 4.42205,3.15355l26.4957 0c2.57244,0 4.67835,-2.10591 4.67835,-4.68071l0 -32.5748c0,-2.57481 -2.10709,-4.68071 -4.67835,-4.68071z"/>
    <path id="_358575832" class="fil1" d="M1301.33 1078.08l-26.4945 0c-2.57244,0 -4.67953,2.10709 -4.67953,4.68071l0 32.5748c0,2.57244 2.10591,4.68071 4.67953,4.68071l26.4945 0c2.0374,0 3.78189,-1.31929 4.41969,-3.1441l0 -35.6481c-0.638977,-1.8248 -2.38347,-3.1441 -4.41969,-3.1441z"/>
    <path id="_358574608" class="fil1" d="M890.716 1078.08l74.5123 0c2.57481,0 4.67953,2.10473 4.67953,4.67953l0 32.576c0,2.57481 -2.10473,4.67953 -4.67953,4.67953l-74.5123 0c-2.57481,0 -4.67953,-2.10473 -4.67953,-4.67953l0 -32.576c0,-2.57481 2.10473,-4.67953 4.67953,-4.67953z"/>
    <path id="_358574800" class="fil1" d="M986.744 1078.08l74.5123 0c2.57481,0 4.67953,2.10473 4.67953,4.67953l0 32.576c0,2.57481 -2.10473,4.67953 -4.67953,4.67953l-74.5123 0c-2.57481,0 -4.67953,-2.10473 -4.67953,-4.67953l0 -32.576c0,-2.57481 2.10473,-4.67953 4.67953,-4.67953z"/>
    <path id="_358575160" class="fil1" d="M1082.77 1078.08l74.5123 0c2.57481,0 4.67953,2.10473 4.67953,4.67953l0 32.576c0,2.57481 -2.10473,4.67953 -4.67953,4.67953l-74.5123 0c-2.57481,0 -4.67953,-2.10473 -4.67953,-4.67953l0 -32.576c0,-2.57481 2.10473,-4.67953 4.67953,-4.67953z"/>
    <path id="_358575136" class="fil1" d="M1178.8 1078.08l74.5134 0c2.57481,0 4.67953,2.10473 4.67953,4.67953l0 32.576c0,2.57481 -2.10473,4.67953 -4.67953,4.67953l-74.5134 0c-2.57362,0 -4.67835,-2.10473 -4.67835,-4.67953l0 -32.576c0,-2.57481 2.10473,-4.67953 4.67835,-4.67953z"/>
    <path id="_358574440" class="fil1" d="M746.673 1132.16l74.5134 0c2.57362,0 4.67835,2.10473 4.67835,4.67953l0 32.5772c0,2.57362 -2.10473,4.67835 -4.67835,4.67835l-74.5134 0c-2.03977,0 -3.78425,-1.32047 -4.42087,-3.14882l0 -35.6362c0.636615,-1.82953 2.3811,-3.15 4.42087,-3.15z"/>
    <path id="_358574488" class="fil1" d="M842.702 1132.16l74.5134 0c2.57362,0 4.67835,2.10473 4.67835,4.67953l0 32.5772c0,2.57362 -2.10473,4.67835 -4.67835,4.67835l-74.5134 0c-2.57481,0 -4.67953,-2.10473 -4.67953,-4.67835l0 -32.5772c0,-2.57481 2.10473,-4.67953 4.67953,-4.67953z"/>
    <path id="_358573960" class="fil1" d="M938.73 1132.16l74.5123 0c2.57481,0 4.67953,2.10473 4.67953,4.67953l0 32.5772c0,2.57362 -2.10473,4.67835 -4.67953,4.67835l-74.5123 0c-2.57481,0 -4.67953,-2.10473 -4.67953,-4.67835l0 -32.5772c0,-2.57481 2.10473,-4.67953 4.67953,-4.67953z"/>
    <path id="_358574032" class="fil1" d="M1034.76 1132.16l74.5123 0c2.57481,0 4.67953,2.10473 4.67953,4.67953l0 32.5772c0,2.57362 -2.10473,4.67835 -4.67953,4.67835l-74.5123 0c-2.57481,0 -4.67953,-2.10473 -4.67953,-4.67835l0 -32.5772c0,-2.57481 2.10473,-4.67953 4.67953,-4.67953z"/>
    <path id="_358574296" class="fil1" d="M1130.79 1132.16l74.5123 0c2.57481,0 4.67953,2.10473 4.67953,4.67953l0 32.5772c0,2.57362 -2.10473,4.67835 -4.67953,4.67835l-74.5123 0c-2.57481,0 -4.67953,-2.10473 -4.67953,-4.67835l0 -32.5772c0,-2.57481 2.10473,-4.67953 4.67953,-4.67953z"/>
    <path id="_358573048" class="fil1" d="M1226.81 1132.16l74.5134 0c2.0374,0 3.77953,1.31811 4.41851,3.14292l0 35.6504c-0.638977,1.8248 -2.3811,3.14173 -4.41851,3.14173l-74.5134 0c-2.57362,0 -4.67835,-2.10473 -4.67835,-4.67835l0 -32.5772c0,-2.57481 2.10473,-4.67953 4.67835,-4.67953z"/>
    <path id="_358573672" class="fil1" d="M794.688 1186.25l74.5134 0c2.57362,0 4.67835,2.10473 4.67835,4.67953l0 32.576c0,2.57481 -2.10473,4.67953 -4.67835,4.67953l-74.5134 0c-2.57481,0 -4.67953,-2.10473 -4.67953,-4.67953l0 -32.576c0,-2.57481 2.10473,-4.67953 4.67953,-4.67953z"/>
    <path id="_358573336" class="fil1" d="M773.17 1186.25l-26.4957 0c-2.03977,0 -3.78544,1.32284 -4.42205,3.15236l0 35.6303c0.636615,1.82953 2.38229,3.15236 4.42205,3.15236l26.4957 0c2.57244,0 4.67835,-2.10591 4.67835,-4.67953l0 -32.5748c0,-2.57481 -2.10709,-4.68071 -4.67835,-4.68071z"/>
    <path id="_358573600" class="fil1" d="M1301.33 1186.25l-26.4945 0c-2.57244,0 -4.67953,2.10709 -4.67953,4.68071l0 32.5748c0,2.57244 2.10591,4.67953 4.67953,4.67953l26.4945 0c2.0374,0 3.78189,-1.31929 4.41969,-3.14528l0 -35.6457c-0.638977,-1.8248 -2.38347,-3.1441 -4.41969,-3.1441z"/>
    <path id="_358572304" class="fil1" d="M890.716 1186.25l74.5123 0c2.57481,0 4.67953,2.10473 4.67953,4.67953l0 32.576c0,2.57481 -2.10473,4.67953 -4.67953,4.67953l-74.5123 0c-2.57481,0 -4.67953,-2.10473 -4.67953,-4.67953l0 -32.576c0,-2.57481 2.10473,-4.67953 4.67953,-4.67953z"/>
    <path id="_358573000" class="fil1" d="M986.744 1186.25l74.5123 0c2.57481,0 4.67953,2.10473 4.67953,4.67953l0 32.576c0,2.57481 -2.10473,4.67953 -4.67953,4.67953l-74.5123 0c-2.57481,0 -4.67953,-2.10473 -4.67953,-4.67953l0 -32.576c0,-2.57481 2.10473,-4.67953 4.67953,-4.67953z"/>
    <path id="_358572520" class="fil1" d="M1082.77 1186.25l74.5123 0c2.57481,0 4.67953,2.10473 4.67953,4.67953l0 32.576c0,2.57481 -2.10473,4.67953 -4.67953,4.67953l-74.5123 0c-2.57481,0 -4.67953,-2.10473 -4.67953,-4.67953l0 -32.576c0,-2.57481 2.10473,-4.67953 4.67953,-4.67953z"/>
    <path id="_358572784" class="fil1" d="M1178.8 1186.25l74.5134 0c2.57481,0 4.67953,2.10473 4.67953,4.67953l0 32.576c0,2.57481 -2.10473,4.67953 -4.67953,4.67953l-74.5134 0c-2.57362,0 -4.67835,-2.10473 -4.67835,-4.67953l0 -32.576c0,-2.57481 2.10473,-4.67953 4.67835,-4.67953z"/>
    <path id="_358572856" class="fil1" d="M746.673 1240.33l74.5134 0c2.57362,0 4.67835,2.10473 4.67835,4.67953l0 32.5772c0,2.57362 -2.10473,4.67835 -4.67835,4.67835l-74.5134 0c-2.03977,0 -3.78425,-1.32047 -4.42087,-3.14882l0 -35.6362c0.636615,-1.82953 2.3811,-3.15 4.42087,-3.15z"/>
    <path id="_358572112" class="fil1" d="M842.702 1240.33l74.5134 0c2.57362,0 4.67835,2.10473 4.67835,4.67953l0 32.5772c0,2.57362 -2.10473,4.67835 -4.67835,4.67835l-74.5134 0c-2.57481,0 -4.67953,-2.10473 -4.67953,-4.67835l0 -32.5772c0,-2.57481 2.10473,-4.67953 4.67953,-4.67953z"/>
    <path id="_358571704" class="fil1" d="M938.73 1240.33l74.5123 0c2.57481,0 4.67953,2.10473 4.67953,4.67953l0 32.5772c0,2.57362 -2.10473,4.67835 -4.67953,4.67835l-74.5123 0c-2.57481,0 -4.67953,-2.10473 -4.67953,-4.67835l0 -32.5772c0,-2.57481 2.10473,-4.67953 4.67953,-4.67953z"/>
    <path id="_358571560" class="fil1" d="M1034.76 1240.33l74.5123 0c2.57481,0 4.67953,2.10473 4.67953,4.67953l0 32.5772c0,2.57362 -2.10473,4.67835 -4.67953,4.67835l-74.5123 0c-2.57481,0 -4.67953,-2.10473 -4.67953,-4.67835l0 -32.5772c0,-2.57481 2.10473,-4.67953 4.67953,-4.67953z"/>
    <path id="_358572232" class="fil1" d="M1130.79 1240.33l74.5123 0c2.57481,0 4.67953,2.10473 4.67953,4.67953l0 32.5772c0,2.57362 -2.10473,4.67835 -4.67953,4.67835l-74.5123 0c-2.57481,0 -4.67953,-2.10473 -4.67953,-4.67835l0 -32.5772c0,-2.57481 2.10473,-4.67953 4.67953,-4.67953z"/>
    <path id="_358571464" class="fil1" d="M1226.81 1240.33l74.5134 0c2.0374,0 3.77953,1.31811 4.41851,3.14292l0 35.6504c-0.638977,1.82362 -2.3811,3.14173 -4.41851,3.14173l-74.5134 0c-2.57362,0 -4.67835,-2.10473 -4.67835,-4.67835l0 -32.5772c0,-2.57481 2.10473,-4.67953 4.67835,-4.67953z"/>
    <path id="_358570720" class="fil1" d="M794.688 1294.42l74.5134 0c2.57362,0 4.67835,2.10473 4.67835,4.67953l0 32.576c0,2.57481 -2.10473,4.67953 -4.67835,4.67953l-74.5134 0c-2.57481,0 -4.67953,-2.10473 -4.67953,-4.67953l0 -32.576c0,-2.57481 2.10473,-4.67953 4.67953,-4.67953z"/>
    <path id="_358571392" class="fil1" d="M773.17 1294.42l-26.4957 0c-2.03977,0 -3.78544,1.32284 -4.42205,3.15236l0 35.6303c0.636615,1.82953 2.38229,3.15236 4.42205,3.15236l26.4957 0c2.57244,0 4.67835,-2.10591 4.67835,-4.68071l0 -32.5736c0,-2.57481 -2.10709,-4.68071 -4.67835,-4.68071z"/>
    <path id="_358570888" class="fil1" d="M1301.33 1294.42l-26.4945 0c-2.57244,0 -4.67953,2.10709 -4.67953,4.68071l0 32.5736c0,2.57362 2.10591,4.68071 4.67953,4.68071l26.4945 0c2.0374,0 3.78189,-1.31929 4.41969,-3.14528l0 -35.6457c-0.638977,-1.8248 -2.38347,-3.1441 -4.41969,-3.1441z"/>
    <path id="_358570768" class="fil1" d="M890.716 1294.42l74.5123 0c2.57481,0 4.67953,2.10473 4.67953,4.67953l0 32.576c0,2.57481 -2.10473,4.67953 -4.67953,4.67953l-74.5123 0c-2.57481,0 -4.67953,-2.10473 -4.67953,-4.67953l0 -32.576c0,-2.57481 2.10473,-4.67953 4.67953,-4.67953z"/>
    <path id="_358570288" class="fil1" d="M986.744 1294.42l74.5123 0c2.57481,0 4.67953,2.10473 4.67953,4.67953l0 32.576c0,2.57481 -2.10473,4.67953 -4.67953,4.67953l-74.5123 0c-2.57481,0 -4.67953,-2.10473 -4.67953,-4.67953l0 -32.576c0,-2.57481 2.10473,-4.67953 4.67953,-4.67953z"/>
    <path id="_358570240" class="fil1" d="M1082.77 1294.42l74.5123 0c2.57481,0 4.67953,2.10473 4.67953,4.67953l0 32.576c0,2.57481 -2.10473,4.67953 -4.67953,4.67953l-74.5123 0c-2.57481,0 -4.67953,-2.10473 -4.67953,-4.67953l0 -32.576c0,-2.57481 2.10473,-4.67953 4.67953,-4.67953z"/>
    <path id="_358570216" class="fil1" d="M1178.8 1294.42l74.5134 0c2.57481,0 4.67953,2.10473 4.67953,4.67953l0 32.576c0,2.57481 -2.10473,4.67953 -4.67953,4.67953l-74.5134 0c-2.57362,0 -4.67835,-2.10473 -4.67835,-4.67953l0 -32.576c0,-2.57481 2.10473,-4.67953 4.67835,-4.67953z"/>
    <path id="_358570000" class="fil1" d="M778.391 525.492l42.7961 0c2.57362,0 4.67835,-2.10473 4.67835,-4.67953l0 -32.576c0,-2.57481 -2.10473,-4.67953 -4.67835,-4.67953l-2.3811 0 -40.415 41.9351z"/>
    <path id="_358569568" class="fil1" d="M842.702 483.557l74.5134 0c2.57362,0 4.67835,2.10473 4.67835,4.67953l0 32.576c0,2.57481 -2.10473,4.67953 -4.67835,4.67953l-74.5134 0c-2.57481,0 -4.67953,-2.10473 -4.67953,-4.67953l0 -32.576c0,-2.57481 2.10473,-4.67953 4.67953,-4.67953z"/>
    <path id="_358569448" class="fil1" d="M938.73 483.557l74.5123 0c2.57481,0 4.67953,2.10473 4.67953,4.67953l0 32.576c0,2.57481 -2.10473,4.67953 -4.67953,4.67953l-74.5123 0c-2.57481,0 -4.67953,-2.10473 -4.67953,-4.67953l0 -32.576c0,-2.57481 2.10473,-4.67953 4.67953,-4.67953z"/>
    <path id="_358569328" class="fil1" d="M1034.76 483.557l74.5123 0c2.57481,0 4.67953,2.10473 4.67953,4.67953l0 32.576c0,2.57481 -2.10473,4.67953 -4.67953,4.67953l-74.5123 0c-2.57481,0 -4.67953,-2.10473 -4.67953,-4.67953l0 -32.576c0,-2.57481 2.10473,-4.67953 4.67953,-4.67953z"/>
    <path id="_358569544" class="fil1" d="M1130.79 483.557l74.5123 0c2.57481,0 4.67953,2.10473 4.67953,4.67953l0 32.576c0,2.57481 -2.10473,4.67953 -4.67953,4.67953l-74.5123 0c-2.57481,0 -4.67953,-2.10473 -4.67953,-4.67953l0 -32.576c0,-2.57481 2.10473,-4.67953 4.67953,-4.67953z"/>
    <path id="_358569832" class="fil1" d="M1229.19 483.557l-2.37874 0c-2.57362,0 -4.67835,2.10473 -4.67835,4.67953l0 32.576c0,2.57481 2.10473,4.67953 4.67835,4.67953l42.7949 0 -40.4162 -41.9351z"/>
    <path id="_358568776" class="fil1" d="M794.688 537.642l74.5134 0c2.57362,0 4.67835,2.10473 4.67835,4.67953l0 32.5772c0,2.57362 -2.10473,4.67835 -4.67835,4.67835l-74.5134 0c-2.57481,0 -4.67953,-2.10473 -4.67953,-4.67835l0 -32.5772c0,-2.57481 2.10473,-4.67953 4.67953,-4.67953z"/>
    <path id="_358569160" class="fil1" d="M773.17 537.642l-6.00355 0c-10.0949,12.3201 -17.2536,26.6268 -21.2752,41.8713 0.253937,0.0425197 0.516142,0.0649607 0.783071,0.0649607l26.4957 0c2.57244,0 4.67835,-2.10591 4.67835,-4.67953l0 -32.576c0,-2.57481 -2.10709,-4.68071 -4.67835,-4.68071z"/>
    <path id="_358569064" class="fil1" d="M1280.78 537.642l-5.94922 0c-2.57244,0 -4.67953,2.10945 -4.67953,4.68071l0 32.576c0,2.57244 2.10591,4.67953 4.67953,4.67953l26.4744 0c-3.90473,-15.1937 -10.5425,-29.5488 -20.5252,-41.9363z"/>
    <path id="_358568848" class="fil1" d="M890.716 537.642l74.5123 0c2.57481,0 4.67953,2.10473 4.67953,4.67953l0 32.5772c0,2.57362 -2.10473,4.67835 -4.67953,4.67835l-74.5123 0c-2.57481,0 -4.67953,-2.10473 -4.67953,-4.67835l0 -32.5772c0,-2.57481 2.10473,-4.67953 4.67953,-4.67953z"/>
    <path id="_358567696" class="fil1" d="M986.744 537.642l74.5123 0c2.57481,0 4.67953,2.10473 4.67953,4.67953l0 32.5772c0,2.57362 -2.10473,4.67835 -4.67953,4.67835l-74.5123 0c-2.57481,0 -4.67953,-2.10473 -4.67953,-4.67835l0 -32.5772c0,-2.57481 2.10473,-4.67953 4.67953,-4.67953z"/>
    <path id="_358568200" class="fil1" d="M1082.77 537.642l74.5123 0c2.57481,0 4.67953,2.10473 4.67953,4.67953l0 32.5772c0,2.57362 -2.10473,4.67835 -4.67953,4.67835l-74.5123 0c-2.57481,0 -4.67953,-2.10473 -4.67953,-4.67835l0 -32.5772c0,-2.57481 2.10473,-4.67953 4.67953,-4.67953z"/>
    <path id="_358568320" class="fil1" d="M1178.8 537.642l74.5134 0c2.57481,0 4.67953,2.10473 4.67953,4.67953l0 32.5772c0,2.57362 -2.10473,4.67835 -4.67953,4.67835l-74.5134 0c-2.57362,0 -4.67835,-2.10473 -4.67835,-4.67835l0 -32.5772c0,-2.57481 2.10473,-4.67953 4.67835,-4.67953z"/>
    <path id="_358568152" class="fil1" d="M746.673 591.729l74.5134 0c2.57362,0 4.67835,2.10473 4.67835,4.67953l0 32.576c0,2.57481 -2.10473,4.67953 -4.67835,4.67953l-74.5134 0c-2.27599,0 -4.18583,-1.64528 -4.59804,-3.80551l0.00236221 -20.7791c0,-5.28662 0.357874,-10.5437 1.06299,-15.7323 0.858662,-0.989765 2.12599,-1.61811 3.53268,-1.61811z"/>
    <path id="_358567744" class="fil1" d="M842.702 591.729l74.5134 0c2.57362,0 4.67835,2.10473 4.67835,4.67953l0 32.576c0,2.57481 -2.10473,4.67953 -4.67835,4.67953l-74.5134 0c-2.57481,0 -4.67953,-2.10473 -4.67953,-4.67953l0 -32.576c0,-2.57481 2.10473,-4.67953 4.67953,-4.67953z"/>
    <path id="_358567288" class="fil1" d="M938.73 591.729l74.5123 0c2.57481,0 4.67953,2.10473 4.67953,4.67953l0 32.576c0,2.57481 -2.10473,4.67953 -4.67953,4.67953l-74.5123 0c-2.57481,0 -4.67953,-2.10473 -4.67953,-4.67953l0 -32.576c0,-2.57481 2.10473,-4.67953 4.67953,-4.67953z"/>
    <path id="_358567264" class="fil1" d="M1034.76 591.729l74.5123 0c2.57481,0 4.67953,2.10473 4.67953,4.67953l0 32.576c0,2.57481 -2.10473,4.67953 -4.67953,4.67953l-74.5123 0c-2.57481,0 -4.67953,-2.10473 -4.67953,-4.67953l0 -32.576c0,-2.57481 2.10473,-4.67953 4.67953,-4.67953z"/>
    <path id="_358567216" class="fil1" d="M1130.79 591.729l74.5123 0c2.57481,0 4.67953,2.10473 4.67953,4.67953l0 32.576c0,2.57481 -2.10473,4.67953 -4.67953,4.67953l-74.5123 0c-2.57481,0 -4.67953,-2.10473 -4.67953,-4.67953l0 -32.576c0,-2.57481 2.10473,-4.67953 4.67953,-4.67953z"/>
    <path id="_358567096" class="fil1" d="M1226.81 591.729l74.5134 0c0.975591,0 1.88386,0.303544 2.63504,0.818505 1.21299,7.81536 1.78347,15.763 1.78347,23.7l0 14.2748c-0.638977,1.82362 -2.3811,3.14173 -4.41851,3.14173l-74.5134 0c-2.57362,0 -4.67835,-2.10473 -4.67835,-4.67953l0 -32.576c0,-2.57481 2.10473,-4.67953 4.67835,-4.67953z"/>
    <path id="_358566424" class="fil1" d="M794.688 645.814l74.5134 0c2.57362,0 4.67835,2.10473 4.67835,4.67953l0 32.5772c0,2.57362 -2.10473,4.67835 -4.67835,4.67835l-74.5134 0c-2.57481,0 -4.67953,-2.10473 -4.67953,-4.67835l0 -32.5772c0,-2.57481 2.10473,-4.67953 4.67953,-4.67953z"/>
    <path id="_358566520" class="fil1" d="M773.17 645.814l-26.4957 0c-2.27599,0 -4.18819,1.65 -4.59922,3.81142l-0.0011811 34.3087c0.409843,2.1626 2.32205,3.81614 4.6004,3.81614l26.4957 0c2.57244,0 4.67835,-2.10591 4.67835,-4.67953l0 -32.576c0,-2.57481 -2.10709,-4.68071 -4.67835,-4.68071z"/>
    <path id="_358566760" class="fil1" d="M1301.33 645.814l-26.4945 0c-2.57244,0 -4.67953,2.10709 -4.67953,4.68071l0 32.576c0,2.57126 2.10591,4.67953 4.67953,4.67953l26.4945 0c2.0374,0 3.78189,-1.31929 4.41969,-3.1441l0 -35.6469c-0.638977,-1.82599 -2.38347,-3.14528 -4.41969,-3.14528z"/>
    <path id="_358566112" class="fil1" d="M890.716 645.814l74.5123 0c2.57481,0 4.67953,2.10473 4.67953,4.67953l0 32.5772c0,2.57362 -2.10473,4.67835 -4.67953,4.67835l-74.5123 0c-2.57481,0 -4.67953,-2.10473 -4.67953,-4.67835l0 -32.5772c0,-2.57481 2.10473,-4.67953 4.67953,-4.67953z"/>
    <path id="_358566232" class="fil1" d="M986.744 645.814l74.5123 0c2.57481,0 4.67953,2.10473 4.67953,4.67953l0 32.5772c0,2.57362 -2.10473,4.67835 -4.67953,4.67835l-74.5123 0c-2.57481,0 -4.67953,-2.10473 -4.67953,-4.67835l0 -32.5772c0,-2.57481 2.10473,-4.67953 4.67953,-4.67953z"/>
    <path id="_358565536" class="fil1" d="M1082.77 645.814l74.5123 0c2.57481,0 4.67953,2.10473 4.67953,4.67953l0 32.5772c0,2.57362 -2.10473,4.67835 -4.67953,4.67835l-74.5123 0c-2.57481,0 -4.67953,-2.10473 -4.67953,-4.67835l0 -32.5772c0,-2.57481 2.10473,-4.67953 4.67953,-4.67953z"/>
    <path id="_358565896" class="fil1" d="M1178.8 645.814l74.5134 0c2.57481,0 4.67953,2.10473 4.67953,4.67953l0 32.5772c0,2.57362 -2.10473,4.67835 -4.67953,4.67835l-74.5134 0c-2.57362,0 -4.67835,-2.10473 -4.67835,-4.67835l0 -32.5772c0,-2.57481 2.10473,-4.67953 4.67835,-4.67953z"/>
    <path id="_358565392" class="fil1" d="M746.673 699.902l74.5134 0c2.57362,0 4.67835,2.10473 4.67835,4.67953l0 32.576c0,2.57481 -2.10473,4.67953 -4.67835,4.67953l-74.5134 0c-2.03977,0 -3.78425,-1.32047 -4.42087,-3.15l0 -35.6351c0.636615,-1.82953 2.3811,-3.15 4.42087,-3.15z"/>
    <path id="_358565512" class="fil1" d="M842.702 699.902l74.5134 0c2.57362,0 4.67835,2.10473 4.67835,4.67953l0 32.576c0,2.57481 -2.10473,4.67953 -4.67835,4.67953l-74.5134 0c-2.57481,0 -4.67953,-2.10473 -4.67953,-4.67953l0 -32.576c0,-2.57481 2.10473,-4.67953 4.67953,-4.67953z"/>
    <path id="_358564648" class="fil1" d="M938.73 699.902l74.5123 0c2.57481,0 4.67953,2.10473 4.67953,4.67953l0 32.576c0,2.57481 -2.10473,4.67953 -4.67953,4.67953l-74.5123 0c-2.57481,0 -4.67953,-2.10473 -4.67953,-4.67953l0 -32.576c0,-2.57481 2.10473,-4.67953 4.67953,-4.67953z"/>
    <path id="_358565320" class="fil1" d="M1034.76 699.902l74.5123 0c2.57481,0 4.67953,2.10473 4.67953,4.67953l0 32.576c0,2.57481 -2.10473,4.67953 -4.67953,4.67953l-74.5123 0c-2.57481,0 -4.67953,-2.10473 -4.67953,-4.67953l0 -32.576c0,-2.57481 2.10473,-4.67953 4.67953,-4.67953z"/>
    <path id="_358564984" class="fil1" d="M1130.79 699.902l74.5123 0c2.57481,0 4.67953,2.10473 4.67953,4.67953l0 32.576c0,2.57481 -2.10473,4.67953 -4.67953,4.67953l-74.5123 0c-2.57481,0 -4.67953,-2.10473 -4.67953,-4.67953l0 -32.576c0,-2.57481 2.10473,-4.67953 4.67953,-4.67953z"/>
    <path id="_358564600" class="fil1" d="M1226.81 699.902l74.5134 0c2.0374,0 3.77953,1.31811 4.41851,3.14173l0 35.6516c-0.638977,1.82362 -2.3811,3.14173 -4.41851,3.14173l-74.5134 0c-2.57362,0 -4.67835,-2.10473 -4.67835,-4.67953l0 -32.576c0,-2.57481 2.10473,-4.67953 4.67835,-4.67953z"/>
    <path id="_358564912" class="fil1" d="M794.688 753.987l74.5134 0c2.57362,0 4.67835,2.10473 4.67835,4.67953l0 32.5772c0,2.57362 -2.10473,4.67835 -4.67835,4.67835l-74.5134 0c-2.57481,0 -4.67953,-2.10473 -4.67953,-4.67835l0 -32.5772c0,-2.57481 2.10473,-4.67953 4.67953,-4.67953z"/>
    <path id="_358564480" class="fil1" d="M773.17 753.987l-26.4957 0c-2.03977,0 -3.78544,1.32284 -4.42205,3.15236l0 35.6303c0.636615,1.82953 2.38229,3.15236 4.42205,3.15236l26.4957 0c2.57244,0 4.67835,-2.10591 4.67835,-4.67835l0 -32.576c0,-2.57481 -2.10709,-4.68071 -4.67835,-4.68071z"/>
    <path id="_358564264" class="fil1" d="M1301.33 753.987l-26.4945 0c-2.57244,0 -4.67953,2.10709 -4.67953,4.68071l0 32.576c0,2.57126 2.10591,4.67835 4.67953,4.67835l26.4945 0c2.0374,0 3.78189,-1.31929 4.41969,-3.1441l0 -35.6457c-0.638977,-1.82599 -2.38347,-3.14528 -4.41969,-3.14528z"/>
    <path id="_358563832" class="fil1" d="M890.716 753.987l74.5123 0c2.57481,0 4.67953,2.10473 4.67953,4.67953l0 32.5772c0,2.57362 -2.10473,4.67835 -4.67953,4.67835l-74.5123 0c-2.57481,0 -4.67953,-2.10473 -4.67953,-4.67835l0 -32.5772c0,-2.57481 2.10473,-4.67953 4.67953,-4.67953z"/>
    <path id="_358564000" class="fil1" d="M986.744 753.987l74.5123 0c2.57481,0 4.67953,2.10473 4.67953,4.67953l0 32.5772c0,2.57362 -2.10473,4.67835 -4.67953,4.67835l-74.5123 0c-2.57481,0 -4.67953,-2.10473 -4.67953,-4.67835l0 -32.5772c0,-2.57481 2.10473,-4.67953 4.67953,-4.67953z"/>
    <path id="_358563424" class="fil1" d="M1082.77 753.987l74.5123 0c2.57481,0 4.67953,2.10473 4.67953,4.67953l0 32.5772c0,2.57362 -2.10473,4.67835 -4.67953,4.67835l-74.5123 0c-2.57481,0 -4.67953,-2.10473 -4.67953,-4.67835l0 -32.5772c0,-2.57481 2.10473,-4.67953 4.67953,-4.67953z"/>
    <path id="_358563784" class="fil1" d="M1178.8 753.987l74.5134 0c2.57481,0 4.67953,2.10473 4.67953,4.67953l0 32.5772c0,2.57362 -2.10473,4.67835 -4.67953,4.67835l-74.5134 0c-2.57362,0 -4.67835,-2.10473 -4.67835,-4.67835l0 -32.5772c0,-2.57481 2.10473,-4.67953 4.67835,-4.67953z"/>
    <path id="_358563712" class="fil1" d="M746.673 808.073l74.5134 0c2.57362,0 4.67835,2.10473 4.67835,4.67835l0 32.5772c0,2.57481 -2.10473,4.67953 -4.67835,4.67953l-74.5134 0c-2.03977,0 -3.78425,-1.32047 -4.42087,-3.15l0 -35.6362c0.636615,-1.82835 2.3811,-3.14882 4.42087,-3.14882z"/>
    <path id="_358563496" class="fil1" d="M842.702 808.073l74.5134 0c2.57362,0 4.67835,2.10473 4.67835,4.67835l0 32.5772c0,2.57481 -2.10473,4.67953 -4.67835,4.67953l-74.5134 0c-2.57481,0 -4.67953,-2.10473 -4.67953,-4.67953l0 -32.5772c0,-2.57362 2.10473,-4.67835 4.67953,-4.67835z"/>
    <path id="_358563088" class="fil1" d="M938.73 808.073l74.5123 0c2.57481,0 4.67953,2.10473 4.67953,4.67835l0 32.5772c0,2.57481 -2.10473,4.67953 -4.67953,4.67953l-74.5123 0c-2.57481,0 -4.67953,-2.10473 -4.67953,-4.67953l0 -32.5772c0,-2.57362 2.10473,-4.67835 4.67953,-4.67835z"/>
    <path id="_358562488" class="fil1" d="M1034.76 808.073l74.5123 0c2.57481,0 4.67953,2.10473 4.67953,4.67835l0 32.5772c0,2.57481 -2.10473,4.67953 -4.67953,4.67953l-74.5123 0c-2.57481,0 -4.67953,-2.10473 -4.67953,-4.67953l0 -32.5772c0,-2.57362 2.10473,-4.67835 4.67953,-4.67835z"/>
    <path id="_358562824" class="fil1" d="M1130.79 808.073l74.5123 0c2.57481,0 4.67953,2.10473 4.67953,4.67835l0 32.5772c0,2.57481 -2.10473,4.67953 -4.67953,4.67953l-74.5123 0c-2.57481,0 -4.67953,-2.10473 -4.67953,-4.67953l0 -32.5772c0,-2.57362 2.10473,-4.67835 4.67953,-4.67835z"/>
    <path id="_358562776" class="fil1" d="M1226.81 808.073l74.5134 0c2.0374,0 3.77953,1.31811 4.41851,3.14173l0 35.6504c-0.638977,1.8248 -2.3811,3.14292 -4.41851,3.14292l-74.5134 0c-2.57362,0 -4.67835,-2.10473 -4.67835,-4.67953l0 -32.5772c0,-2.57362 2.10473,-4.67835 4.67835,-4.67835z"/>
    <path id="_358562368" class="fil1" d="M794.688 862.159l74.5134 0c2.57362,0 4.67835,2.10473 4.67835,4.67953l0 32.5772c0,2.57362 -2.10473,4.67835 -4.67835,4.67835l-74.5134 0c-2.57481,0 -4.67953,-2.10473 -4.67953,-4.67835l0 -32.5772c0,-2.57481 2.10473,-4.67953 4.67953,-4.67953z"/>
    <path id="_358561720" class="fil1" d="M773.17 862.159l-26.4957 0c-2.03977,0 -3.78544,1.32284 -4.42205,3.15236l0 35.6315c0.636615,1.82835 2.38229,3.15118 4.42205,3.15118l26.4957 0c2.57244,0 4.67835,-2.10591 4.67835,-4.67953l0 -32.5748c0,-2.57481 -2.10709,-4.68071 -4.67835,-4.68071z"/>
    <path id="_358561840" class="fil1" d="M1301.33 862.159l-26.4945 0c-2.57244,0 -4.67953,2.10827 -4.67953,4.68071l0 32.5748c0,2.57244 2.10591,4.67953 4.67953,4.67953l26.4945 0c2.0374,0 3.78189,-1.31929 4.41969,-3.1441l0 -35.6457c-0.638977,-1.82599 -2.38347,-3.14528 -4.41969,-3.14528z"/>
    <path id="_358561816" class="fil1" d="M890.716 862.159l74.5123 0c2.57481,0 4.67953,2.10473 4.67953,4.67953l0 32.5772c0,2.57362 -2.10473,4.67835 -4.67953,4.67835l-74.5123 0c-2.57481,0 -4.67953,-2.10473 -4.67953,-4.67835l0 -32.5772c0,-2.57481 2.10473,-4.67953 4.67953,-4.67953z"/>
    <path id="_358561336" class="fil1" d="M986.744 862.159l74.5123 0c2.57481,0 4.67953,2.10473 4.67953,4.67953l0 32.5772c0,2.57362 -2.10473,4.67835 -4.67953,4.67835l-74.5123 0c-2.57481,0 -4.67953,-2.10473 -4.67953,-4.67835l0 -32.5772c0,-2.57481 2.10473,-4.67953 4.67953,-4.67953z"/>
    <path id="_358561408" class="fil1" d="M1082.77 862.159l74.5123 0c2.57481,0 4.67953,2.10473 4.67953,4.67953l0 32.5772c0,2.57362 -2.10473,4.67835 -4.67953,4.67835l-74.5123 0c-2.57481,0 -4.67953,-2.10473 -4.67953,-4.67835l0 -32.5772c0,-2.57481 2.10473,-4.67953 4.67953,-4.67953z"/>
    <path id="_358561120" class="fil1" d="M1178.8 862.159l74.5134 0c2.57481,0 4.67953,2.10473 4.67953,4.67953l0 32.5772c0,2.57362 -2.10473,4.67835 -4.67953,4.67835l-74.5134 0c-2.57362,0 -4.67835,-2.10473 -4.67835,-4.67835l0 -32.5772c0,-2.57481 2.10473,-4.67953 4.67835,-4.67953z"/>
    <path id="_358561384" class="fil1" d="M934.358 363.662l30.8705 0c2.57481,0 4.67953,-2.10473 4.67953,-4.67953l0 -27.8209c-6.99686,4.39961 -13.598,9.72402 -19.6347,15.9862l-15.9154 16.5142z"/>
    <path id="_358560832" class="fil1" d="M989.12 321.727l69.7123 0c2.2441,0.820867 4.46811,1.72205 6.66497,2.70591 0.281103,0.601182 0.43937,1.26969 0.43937,1.97244l0 32.5772c0,2.57481 -2.10473,4.67953 -4.67953,4.67953l-74.5123 0c-2.57481,0 -4.67953,-2.10473 -4.67953,-4.67953l0 -32.5772c0,-0.713386 0.161811,-1.39016 0.451181,-1.99725 2.17559,-0.97441 4.37953,-1.86851 6.60355,-2.6811z"/>
    <path id="_358560304" class="fil1" d="M1078.09 331.181l0 27.8008c0,2.57481 2.10473,4.67953 4.67953,4.67953l30.8693 0 -15.8528 -16.448c-6.05315,-6.28111 -12.6768,-11.6197 -19.6961,-16.0323z"/>
    <path id="_358560112" class="fil1" d="M882.231 417.747l34.9843 0c2.57362,0 4.67835,-2.10473 4.67835,-4.67835l0 -32.5772c0,-1.07953 -0.369685,-2.07638 -0.988583,-2.87008l-38.674 40.1256z"/>
    <path id="_358560520" class="fil1" d="M938.73 375.812l74.5123 0c2.57481,0 4.67953,2.10473 4.67953,4.67953l0 32.5772c0,2.57362 -2.10473,4.67835 -4.67953,4.67835l-74.5123 0c-2.57481,0 -4.67953,-2.10473 -4.67953,-4.67835l0 -32.5772c0,-2.57481 2.10473,-4.67953 4.67953,-4.67953z"/>
    <path id="_358560688" class="fil1" d="M1034.76 375.812l74.5123 0c2.57481,0 4.67953,2.10473 4.67953,4.67953l0 32.5772c0,2.57362 -2.10473,4.67835 -4.67953,4.67835l-74.5123 0c-2.57481,0 -4.67953,-2.10473 -4.67953,-4.67835l0 -32.5772c0,-2.57481 2.10473,-4.67953 4.67953,-4.67953z"/>
    <path id="_358560136" class="fil1" d="M1127.09 377.622c-0.617717,0.79252 -0.987402,1.78937 -0.987402,2.8689l0 32.5772c0,2.57362 2.10473,4.67835 4.67953,4.67835l34.9807 0 -38.6729 -40.1244z"/>
    <path id="_358592272" class="fil1" d="M830.104 471.834l39.0969 0c2.57362,0 4.67835,-2.10473 4.67835,-4.67953l0 -32.5772c0,-2.16851 -1.4941,-4.00276 -3.50433,-4.52717l-40.2709 41.7839z"/>
    <path id="_358592032" class="fil1" d="M890.716 429.899l74.5123 0c2.57481,0 4.67953,2.10473 4.67953,4.67835l0 32.5772c0,2.57481 -2.10473,4.67953 -4.67953,4.67953l-74.5123 0c-2.57481,0 -4.67953,-2.10473 -4.67953,-4.67953l0 -32.5772c0,-2.57362 2.10473,-4.67835 4.67953,-4.67835z"/>
    <path id="_358591912" class="fil1" d="M986.744 429.899l74.5123 0c2.57481,0 4.67953,2.10473 4.67953,4.67835l0 32.5772c0,2.57481 -2.10473,4.67953 -4.67953,4.67953l-74.5123 0c-2.57481,0 -4.67953,-2.10473 -4.67953,-4.67953l0 -32.5772c0,-2.57362 2.10473,-4.67835 4.67953,-4.67835z"/>
    <path id="_358591504" class="fil1" d="M1082.77 429.899l74.5123 0c2.57481,0 4.67953,2.10473 4.67953,4.67835l0 32.5772c0,2.57481 -2.10473,4.67953 -4.67953,4.67953l-74.5123 0c-2.57481,0 -4.67953,-2.10473 -4.67953,-4.67953l0 -32.5772c0,-2.57362 2.10473,-4.67835 4.67953,-4.67835z"/>
    <path id="_358591936" class="fil1" d="M1177.62 430.05c-2.01024,0.523229 -3.50315,2.35866 -3.50315,4.52717l0 32.5772c0,2.57481 2.10473,4.67953 4.67835,4.67953l39.0957 0 -40.2709 -41.7839z"/>
   </g>
  </g>
  <g id="_258795040">
   <path id="_258773272" class="fil2" d="M1349.34 292.596l23.0457 -24.3437 23.5819 23.5795 96.2753 96.2765 24.4394 24.4382 -25.8402 22.9524c-519.886,468.946 -629.018,368.445 -141.502,-142.903z"/>
   <path id="_258795304" class="fil2" d="M1480.09 1074.03l24.3437 23.0457 -23.5795 23.5819 -96.2765 96.2765 -24.4382 24.4382 -22.9524 -25.8402c-468.946,-519.886 -368.445,-629.018 142.903,-141.502z"/>
   <path id="_258794800" class="fil2" d="M698.657 1204.77l-23.0457 24.3437 -23.5819 -23.5795 -96.2753 -96.2765 -24.4394 -24.4382 25.8402 -22.9524c519.886,-468.946 629.018,-368.445 141.502,142.903z"/>
   <path id="_258794920" class="fil2" d="M567.911 423.342l-24.3437 -23.0457 23.5795 -23.5819 96.2765 -96.2765 24.4382 -24.4382 22.9524 25.8402c468.946,519.886 368.445,629.018 -142.903,141.502z"/>
  </g>
  <path class="fil3" d="M1024 649.352c27.4264,0 52.2603,11.1201 70.2355,29.0977 17.9776,17.9752 29.0977,42.8091 29.0977,70.2355 0,27.424 -11.1201,52.2603 -29.0977,70.2355 -17.9764,17.9764 -42.8091,29.0977 -70.2355,29.0977 -27.4264,0 -52.2591,-11.1213 -70.2355,-29.0977 -17.9776,-17.9752 -29.0977,-42.8115 -29.0977,-70.2355 0,-27.4264 11.1201,-52.2603 29.0977,-70.2355 17.9752,-17.9776 42.8091,-29.0977 70.2355,-29.0977z"/>
  <polygon class="fil4" points="682.43,1348.08 1338.93,1348.08 1456.17,1521.65 565.192,1521.65 "/>
  <rect class="fil5" x="565.192" y="1518.49" width="890.973" height="273.513"/>
  <path class="fil0" d="M1010.68 1414.17l0.0011811 0c79.9264,0 145.318,65.3941 145.318,145.321l0 232.512 -290.639 0 0 -232.512c0,-79.9264 65.393,-145.321 145.319,-145.321z"/>
  <path class="fil6" d="M899.464 1792l222.428 0 0 -198.406c0,-61.1032 -50.113,-111.213 -111.215,-111.213 -61.0997,0 -111.213,50.1118 -111.213,111.213l0 198.406z"/>
 </g>
 <rect class="fil7" width="2048" height="2048"/>
</svg>
