<svg id="Capa_1" enable-background="new 0 0 512 512" height="512" viewBox="0 0 512 512" width="512" xmlns="http://www.w3.org/2000/svg"><g><g><path clip-rule="evenodd" d="m325.231 332.051c-6.438 12.085-23.38 20.689-43.278 20.689v80.794c0 29.35 28.208 53.141 63.001 53.141.673 0 1.346-.029 2.019-.029 29.174-.615 47.902-14.69 56.973-33.564 3.307-6.847 5.326-14.309 6.116-22.005 1.843-17.85-2.955-36.871-13.899-51.853-14.955-20.427-48.137-37.487-70.932-47.173z" fill="#c6805d" fill-rule="evenodd"/></g><g><path clip-rule="evenodd" d="m228.754 147.842c-33.007 10.535-82.109 52.702-74.208 121.352 3.775 33.096-3.687 61.978-16.065 75.761-6.438 7.199-12.963 11.998-19.342 14.778 0 24.434 8.779 49.893 34.734 71.342-1.844-17.85 2.955-36.871 13.899-51.853 14.953-20.425 48.136-37.485 70.931-47.171-1.814-3.365-2.809-7.023-2.809-10.827 0-17.382 20.63-31.487 46.058-31.487 25.458 0 46.058 14.105 46.058 31.487 0 3.804-.966 7.462-2.78 10.827 22.795 9.686 55.978 26.746 70.931 47.171 10.944 14.982 15.743 34.003 13.899 51.853 25.955-21.449 34.734-46.908 34.734-71.342-6.379-2.78-12.904-7.579-19.371-14.778-12.378-13.783-19.84-42.665-16.035-75.761 7.901-68.65-41.23-110.818-74.208-121.352-34.5-11.032-71.926-11.032-106.426 0z" fill="#f4aa73" fill-rule="evenodd"/></g><g><path clip-rule="evenodd" d="m238.703 332.051c-22.795 9.686-55.978 26.746-70.931 47.171-10.944 14.982-15.743 34.003-13.899 51.853.79 7.696 2.809 15.158 6.116 22.005 9.071 18.845 27.799 32.95 56.973 33.564.673 0 1.346.029 2.019.029 34.792 0 62.971-23.79 62.971-53.141v-80.794c-19.868.001-36.811-8.602-43.249-20.687z" fill="#c6805d" fill-rule="evenodd"/></g><g><path clip-rule="evenodd" d="m228.754 147.842c-121.612-107.803-227.657 104.409-150.727 200.215 10.3 12.876 25.224 18.582 41.113 11.676 6.379-2.78 12.904-7.579 19.342-14.778 12.378-13.783 19.84-42.665 16.065-75.761-7.901-68.65 41.2-110.817 74.207-121.352z" fill="#c6805d" fill-rule="evenodd"/></g><g><path clip-rule="evenodd" d="m335.18 147.842c32.978 10.535 82.109 52.702 74.208 121.352-3.804 33.096 3.658 61.978 16.035 75.761 6.467 7.199 12.992 11.998 19.371 14.778 15.889 6.906 30.783 1.2 41.113-11.676 76.93-95.806-29.145-308.018-150.727-200.215z" fill="#c6805d" fill-rule="evenodd"/></g><g><path clip-rule="evenodd" d="m281.952 433.533c0 29.35-28.179 53.141-62.971 53.141-.673 0-1.346-.029-2.019-.029 30.227 33.623 99.754 33.623 130.01 0-.673 0-1.346.029-2.019.029-34.792 0-63.001-23.79-63.001-53.141z" fill="#af5d41" fill-rule="evenodd"/></g><g><path clip-rule="evenodd" d="m325.231 332.051c-3.19 5.97-8.954 11.12-16.387 14.778 20.659 9.979 44.302 24.171 56.271 40.529 10.973 14.982 15.743 34.003 13.899 51.883-.79 7.667-2.809 15.129-6.086 21.976-5.004 10.388-12.934 19.313-23.907 25.371 28.004-1.229 46.087-15.1 54.924-33.506 3.307-6.847 5.326-14.309 6.116-22.005 1.843-17.85-2.955-36.871-13.899-51.853-14.954-20.427-48.136-37.487-70.931-47.173z" fill="#ba6e4d" fill-rule="evenodd"/></g><g><path clip-rule="evenodd" d="m124.026 253.539c3.804 33.096-3.658 61.978-16.035 75.761-6.467 7.199-12.992 11.998-19.371 14.778-3.892 1.697-7.754 2.634-11.471 2.897.293.351.585.732.878 1.083 10.3 12.876 25.224 18.582 41.113 11.676 6.379-2.78 12.904-7.579 19.342-14.778 12.378-13.783 19.84-42.665 16.065-75.761-7.901-68.65 41.201-110.818 74.208-121.352-14.777-13.11-29.32-21.479-43.337-25.897 4.243 3.014 8.515 6.438 12.817 10.242-32.979 10.534-82.109 52.701-74.209 121.351z" fill="#ba6e4d" fill-rule="evenodd"/></g><g><path clip-rule="evenodd" d="m392.504 118.755c74.091 23.761 115.818 156.204 59.519 226.346-3.921 4.858-8.486 8.72-13.519 11.237 2.107 1.346 4.214 2.487 6.291 3.394 15.889 6.906 30.783 1.2 41.113-11.676 64.434-80.237.497-242.118-93.404-229.301z" fill="#ba6e4d" fill-rule="evenodd"/></g><g><path clip-rule="evenodd" d="m293.013 149.481c33.007 10.535 82.109 52.702 74.237 121.352-3.102 27.009-.644 66.69 7.111 87.905 8.72 6.262 16.445 13.168 21.8 20.484 1.288 1.756 2.458 3.57 3.599 5.414 8.369 14.017 11.939 30.696 10.3 46.44 25.955-21.449 34.734-46.908 34.734-71.342-2.078-.907-4.184-2.048-6.291-3.394-4.331-2.78-8.72-6.555-13.08-11.383-12.378-13.783-19.84-42.665-16.035-75.761 7.901-68.65-41.23-110.818-74.208-121.352-26.189-8.369-54.047-10.388-81.026-6.057 13.138 1.081 26.218 3.627 38.859 7.694z" fill="#e29a6c" fill-rule="evenodd"/></g><g><path clip-rule="evenodd" d="m281.952 289.737c-25.429 0-46.058 14.105-46.058 31.487 0 3.804.995 7.462 2.809 10.827 6.438 12.085 23.38 20.689 43.249 20.689 19.898 0 36.841-8.603 43.278-20.689 1.814-3.365 2.78-7.023 2.78-10.827 0-17.383-20.6-31.487-46.058-31.487z" fill="#736572" fill-rule="evenodd"/></g><g><path clip-rule="evenodd" d="m275.164 290.088c15.421 5.062 26.072 15.86 26.072 28.385 0 3.775-.995 7.433-2.809 10.798-5.677 10.681-19.576 18.64-36.46 20.338 6.057 2.019 12.846 3.131 19.986 3.131 10.037 0 19.313-2.195 26.892-5.911 7.432-3.658 13.197-8.808 16.387-14.778 1.814-3.365 2.78-7.023 2.78-10.827 0-17.382-20.6-31.487-46.058-31.487-2.313 0-4.567.117-6.79.351z" fill="#615260" fill-rule="evenodd"/></g><g><path d="m349.459 406.583c-4.268 0-7.726-3.459-7.726-7.726 0-4.268 3.459-7.756 7.726-7.756s7.726 3.43 7.726 7.697v.058c.001 4.269-3.458 7.727-7.726 7.727z" fill="#615260"/></g><g><path d="m328.004 436.902c-1.161 0-2.34-.263-3.45-.818-3.816-1.908-5.363-6.549-3.455-10.366 1.909-3.816 6.568-5.391 10.38-3.484 3.817 1.908 5.378 6.52 3.47 10.337l-.029.058c-1.352 2.707-4.082 4.273-6.916 4.273z" fill="#615260"/></g><g><path d="m370.879 436.9c-4.268 0-7.726-3.459-7.726-7.726 0-4.268 3.459-7.756 7.726-7.756 4.268 0 7.726 3.43 7.726 7.697v.058c0 4.268-3.458 7.727-7.726 7.727z" fill="#615260"/></g><g><path d="m214.475 406.583c-4.268 0-7.726-3.459-7.726-7.726 0-4.268 3.459-7.756 7.726-7.756 4.268 0 7.726 3.43 7.726 7.697v.058c0 4.269-3.459 7.727-7.726 7.727z" fill="#615260"/></g><g><path d="m235.894 436.9c-4.268 0-7.726-3.459-7.726-7.726 0-4.268 3.459-7.756 7.726-7.756 4.268 0 7.726 3.43 7.726 7.697v.058c.001 4.268-3.458 7.727-7.726 7.727z" fill="#615260"/></g><g><path d="m193.055 436.9c-4.268 0-7.726-3.459-7.726-7.726 0-4.268 3.459-7.756 7.726-7.756s7.726 3.43 7.726 7.697v.058c0 4.268-3.459 7.727-7.726 7.727z" fill="#615260"/></g><g><path clip-rule="evenodd" d="m281.952 433.533v-80.794c-7.14 0-13.929-1.112-19.986-3.131-.176-.059-.351-.117-.527-.176v68.709c0 29.35-28.208 53.141-63.001 53.141l-1.99-.029c-11.032-.234-20.571-2.4-28.647-5.999 10.446 12.466 26.716 20.923 49.16 21.391l2.019.029c34.793 0 62.972-23.79 62.972-53.141z" fill="#ba6e4d" fill-rule="evenodd"/></g><g><path clip-rule="evenodd" d="m77.149 191.093 43.542-43.162.176-.176c16.679-17.265 16.679-45.357 0-62.651-14.982-15.509-38.187-13.08-54.164-.849-16.006-12.232-39.211-14.661-54.193.849-16.679 17.294-16.679 45.386 0 62.651l.176.176 43.542 43.162c.293.293.527.497.849.761 2.897 2.283 5.296 4.097 9.276 4.243h.702c3.95-.146 6.35-1.961 9.247-4.243.32-.264.583-.469.847-.761z" fill="#ff7e92" fill-rule="evenodd"/></g><g><path clip-rule="evenodd" d="m330.79 203.12c26.892 1.727 60.426 6.409 86.439-25.576 13.578-16.68 16.65-24.668 33.066-39.563l55.015-49.851c1.284-1.163 1.361-3.154.171-4.413l-50.532-53.452c-1.131-1.197-3.002-1.296-4.254-.226l-52.076 44.501c-20.074 15.743-28.998 16.855-54.105 21.098l-72.394 12.202c-15.567 2.634-27.214 8.106-39.269 17.558l-55.715 43.66c-19.342 15.129-4.448 45.328 21.42 33.213l78.948-32.013c-.907 2.312-1.463 4.828-1.58 7.462-.439 12.32 9.305 22.474 21.624 23.264z" fill="#ffd18d" fill-rule="evenodd"/></g><g><path clip-rule="evenodd" d="m354.99 204.378c12.202.088 24.873-1.229 36.987-6.789 8.837-4.068 17.382-10.359 25.253-20.045 7.14-8.779 11.383-15.158 16.182-21.391 2.341-3.043 4.828-6.057 7.842-9.306 2.546-2.721 5.472-5.618 9.042-8.867l55.013-49.85c1.284-1.164 1.361-3.155.17-4.414l-17.289-18.277-53.374 48.371c-13.519 12.261-17.996 19.84-26.745 31.457-1.873 2.487-3.95 5.179-6.35 8.106-11.734 14.456-24.99 21.391-38.509 24.551-14.514 3.365-29.291 2.312-42.722 1.375-1.756-.117-3.482-.263-5.179-.351l-33.271-2.136c-2.048-.146-4.038-.527-5.94-1.141-.088.673-.146 1.346-.176 2.048-.439 12.32 9.305 22.474 21.624 23.264l33.241 2.136c7.639.469 15.803 1.2 24.201 1.259z" fill="#fbbd80" fill-rule="evenodd"/></g><g><path d="m362.162 264.104c-2.122 0-4.233-.868-5.76-2.573-4.073-4.549-9.668-7.057-15.755-7.061-.004 0-.01 0-.014 0-6.097 0-11.705 2.51-15.797 7.07-2.851 3.176-7.736 3.438-10.912.59-3.175-2.85-3.44-7.736-.59-10.912 6.96-7.754 16.909-12.2 27.299-12.2h.023c10.384.007 20.319 4.457 27.258 12.208 2.846 3.179 2.577 8.063-.604 10.91-1.472 1.318-3.314 1.968-5.148 1.968z" fill="#615260"/></g><g><path d="m202.123 264.104c-1.835 0-3.676-.65-5.15-1.97-3.18-2.846-3.45-7.73-.604-10.911 6.94-7.751 16.874-12.2 27.259-12.207h.023c10.389 0 20.338 4.447 27.298 12.2 2.85 3.176 2.586 8.061-.59 10.912-3.178 2.85-8.062 2.585-10.912-.59-4.091-4.559-9.701-7.07-15.796-7.07-.005 0-.009 0-.014 0-6.087.004-11.682 2.512-15.756 7.061-1.524 1.707-3.637 2.575-5.758 2.575z" fill="#615260"/></g><g><path clip-rule="evenodd" d="m331.083 139.795-36.899-1.405c-20.074-1.053-31.281 21.918-25.282 35.349l8.603-3.482c.468-1.171 1.024-2.283 1.697-3.336 1.258-2.107 2.897-3.98 4.77-5.56 2.165-1.785 4.653-3.19 7.374-4.097 2.458-.849 5.121-1.258 7.871-1.17l38.421 1.258c9.393-1.433 13.606-17.557-6.555-17.557z" fill="#fbbd80" fill-rule="evenodd"/></g><g><path clip-rule="evenodd" d="m192.938 71.233 26.482-26.278.117-.088c10.154-10.535 10.154-27.624 0-38.129-9.13-9.452-23.234-7.959-32.978-.527-9.715-7.433-23.848-8.925-32.949.527-10.154 10.505-10.154 27.595 0 38.129l.088.088 26.511 26.278c.146.146.322.293.497.439 1.756 1.405 3.219 2.517 5.648 2.575.146.029.263.029.439 0 2.399-.059 3.863-1.171 5.618-2.575.205-.146.351-.293.527-.439z" fill="#ff7e92" fill-rule="evenodd"/></g><g><path clip-rule="evenodd" d="m132.863 123.379c2.048-13.519-1.961-27.858-11.997-38.275-9.832-10.154-23.175-12.641-35.729-9.657 2.136 1.405 4.155 3.073 6.057 5.033 16.709 17.294 16.709 45.386 0 62.681l-.146.146-41.522 41.143 6.701 6.643c.293.293.527.497.849.761 2.897 2.283 5.296 4.097 9.276 4.243h.702c3.95-.146 6.35-1.961 9.247-4.243.322-.263.585-.468.849-.761l43.542-43.162.176-.176c6.64-6.848 10.62-15.451 11.995-24.376z" fill="#ff5f7a" fill-rule="evenodd"/></g><g><path clip-rule="evenodd" d="m219.537 44.867c10.154-10.535 10.154-27.624 0-38.129-.41-.41-.819-.819-1.229-1.17-6.086-5.414-14.046-6.496-21.42-4.477 1.2 1.405 2.253 2.897 3.131 4.477 5.735 10.3 4.36 23.732-4.155 32.54l-.088.088-24.463 24.229 8.896 8.808c.146.146.322.293.497.439 1.756 1.405 3.219 2.517 5.648 2.575.146.029.263.029.439 0 2.399-.059 3.863-1.171 5.618-2.575.205-.146.351-.293.527-.439l26.482-26.278z" fill="#ff5f7a" fill-rule="evenodd"/></g></g></svg>