<?xml version="1.0" encoding="iso-8859-1"?>
<!-- Generator: Adobe Illustrator 19.0.0, SVG Export Plug-In . SVG Version: 6.00 Build 0)  -->
<svg version="1.1" id="Capa_1" xmlns="http://www.w3.org/2000/svg" xmlns:xlink="http://www.w3.org/1999/xlink" x="0px" y="0px"
	 viewBox="0 0 511.998 511.998" style="enable-background:new 0 0 511.998 511.998;" xml:space="preserve">
<path style="fill:#FFC66C;" d="M442.807,300.583h39.209c11.044,0,19.995-8.956,19.989-20l-0.027-49.448
	c-0.006-11.035-8.954-19.978-19.989-19.978h-39.245c-4.773-19.952-12.657-38.692-23.117-55.681l27.716-27.716
	c7.809-7.809,7.806-20.469-0.005-28.274L412.36,64.533c-7.807-7.802-20.46-7.799-28.263,0.005l-27.732,27.734
	c-16.984-10.433-35.714-18.294-55.651-23.049V29.996c0-11.04-8.949-19.989-19.989-19.989h-49.447
	c-11.04,0-19.989,8.949-19.989,19.989v39.227c-19.937,4.755-38.668,12.616-55.651,23.049L127.904,64.54
	c-7.804-7.804-20.457-7.807-28.263-0.005L64.663,99.486c-7.811,7.806-7.814,20.466-0.005,28.274l27.716,27.716
	c-10.459,16.989-18.344,35.729-23.117,55.681H30.011c-11.035,0-19.983,8.943-19.989,19.978l-0.027,49.447
	c-0.006,11.044,8.945,20,19.989,20h39.209c4.752,19.986,12.625,38.76,23.08,55.78l-27.733,27.733
	c-7.804,7.804-7.807,20.457-0.005,28.263l34.952,34.978c7.806,7.811,20.466,7.814,28.273,0.005l27.716-27.716
	c17.026,10.482,35.81,18.378,55.81,23.148v39.227c0,11.04,8.949,19.989,19.989,19.989h49.447c11.04,0,19.989-8.949,19.989-19.989
	v-39.227c20-4.77,38.785-12.666,55.81-23.148l27.716,27.716c7.809,7.809,20.469,7.806,28.274-0.005l34.952-34.978
	c7.802-7.807,7.799-20.46-0.005-28.263l-27.733-27.733C430.182,339.342,438.055,320.568,442.807,300.583z"/>
<circle style="fill:#B3B6C3;" cx="256" cy="255.998" r="123.932"/>
<circle style="fill:#FFFFFF;" cx="256" cy="255.998" r="79.956"/>
<path d="M256,389.925c-35.773,0-69.405-13.93-94.7-39.226s-39.226-58.927-39.226-94.7s13.93-69.405,39.226-94.7
	c40.047-40.047,101.281-50.579,152.373-26.21c4.982,2.377,7.094,8.341,4.718,13.324c-2.377,4.981-8.341,7.092-13.324,4.718
	c-43.466-20.734-95.562-11.77-129.634,22.302c-21.52,21.519-33.372,50.131-33.372,80.566c0,30.434,11.852,59.047,33.372,80.566
	c21.52,21.52,50.132,33.372,80.566,33.372s59.047-11.852,80.566-33.372c35.37-35.37,43.613-88.906,20.514-133.219
	c-2.552-4.894-0.652-10.931,4.243-13.483c4.895-2.553,10.931-0.652,13.483,4.243c13.074,25.08,17.815,53.201,13.712,81.324
	c-4.186,28.687-17.262,54.714-37.816,75.27C325.405,375.994,291.774,389.925,256,389.925z"/>
<path d="M344.045,178.773c-2.577,0-5.15-0.989-7.105-2.965l-0.374-0.375c-3.903-3.903-3.903-10.231,0-14.135
	c3.903-3.903,10.231-3.903,14.135,0l0.449,0.452c3.882,3.924,3.849,10.251-0.076,14.134
	C349.125,177.811,346.585,178.773,344.045,178.773z"/>
<path d="M256.194,346.018c-9.638,0-19.382-1.557-28.895-4.751c-5.232-1.757-8.05-7.424-6.293-12.656
	c1.757-5.233,7.424-8.052,12.656-6.293c25.377,8.52,52.891,2.066,71.807-16.849c13.215-13.214,20.492-30.782,20.492-49.47
	s-7.277-36.256-20.491-49.47c-13.215-13.215-30.783-20.492-49.471-20.492s-36.256,7.277-49.47,20.491
	c-18.739,18.738-25.264,46.04-17.033,71.251c1.713,5.247-1.151,10.89-6.398,12.603c-5.247,1.714-10.89-1.15-12.603-6.398
	c-10.58-32.406-2.189-67.501,21.901-91.59c16.99-16.99,39.577-26.346,63.604-26.346s46.615,9.357,63.605,26.347
	c16.99,16.99,26.346,39.577,26.346,63.604s-9.357,46.615-26.347,63.605C302.379,336.829,279.606,346.018,256.194,346.018z"/>
<path d="M199.771,322.839c-2.542,0-5.084-0.963-7.033-2.894l-0.343-0.342c-3.903-3.903-3.903-10.231,0-14.135
	c3.903-3.903,10.231-3.903,14.135,0l0.276,0.275c3.922,3.885,3.952,10.212,0.067,14.134
	C204.919,321.851,202.346,322.839,199.771,322.839z"/>
<path d="M280.724,511.986h-49.448c-16.533,0-29.984-13.451-29.984-29.984v-31.497c-15.421-4.327-30.238-10.473-44.219-18.342
	l-22.245,22.246c-5.664,5.663-13.194,8.782-21.202,8.782c-0.002,0-0.003,0-0.005,0c-8.011-0.001-15.541-3.123-21.203-8.789
	l-34.952-34.979c-11.682-11.69-11.679-30.708,0.008-42.395l22.267-22.268c-7.846-13.97-13.972-28.776-18.284-44.184H29.984
	c-8.012,0-15.543-3.121-21.207-8.788S-0.004,288.588,0,280.576l0.027-49.448c0.009-16.524,13.46-29.967,29.984-29.967h31.52
	c4.326-15.375,10.459-30.15,18.305-44.09l-22.246-22.245c-5.664-5.665-8.783-13.197-8.782-21.207
	c0.001-8.012,3.123-15.541,8.789-21.204l34.978-34.952c11.69-11.684,30.708-11.679,42.395,0.008l22.268,22.267
	c13.93-7.823,28.693-13.937,44.055-18.248V29.996c0-16.533,13.451-29.984,29.984-29.984h49.448
	c16.533,0,29.984,13.451,29.984,29.984v31.497c15.362,4.311,30.124,10.425,44.055,18.248l22.268-22.268
	c11.687-11.687,30.705-11.69,42.395-0.007l34.978,34.951c5.667,5.663,8.788,13.193,8.789,21.204
	c0.001,8.011-3.117,15.542-8.782,21.207l-22.246,22.245c7.846,13.939,13.979,28.715,18.305,44.09h31.52
	c16.524,0,29.975,13.444,29.984,29.967l0.027,49.448c0.005,8.012-3.112,15.545-8.776,21.212s-13.196,8.788-21.207,8.788h-31.474
	c-4.312,15.408-10.438,30.212-18.284,44.184l22.268,22.268c11.687,11.687,11.69,30.705,0.007,42.395l-34.951,34.978
	c-5.663,5.667-13.194,8.788-21.204,8.789c-0.001,0-0.003,0-0.005,0c-8.01,0-15.538-3.118-21.202-8.782l-22.245-22.246
	c-13.98,7.869-28.798,14.015-44.219,18.342v31.497C310.707,498.535,297.257,511.986,280.724,511.986z M155.481,409.631
	c1.803,0,3.616,0.486,5.236,1.483c16.403,10.098,34.197,17.479,52.889,21.938c4.5,1.073,7.676,5.095,7.676,9.722v39.227
	c0,5.511,4.484,9.995,9.995,9.995h49.448c5.511,0,9.995-4.484,9.995-9.995v-39.227c0-4.626,3.175-8.648,7.676-9.722
	c18.692-4.459,36.486-11.84,52.889-21.938c3.941-2.427,9.034-1.829,12.307,1.443l27.716,27.716c1.888,1.888,4.399,2.927,7.069,2.927
	s5.18-1.041,7.068-2.929l34.952-34.978c3.894-3.897,3.893-10.236-0.003-14.131l-27.733-27.734c-3.27-3.27-3.87-8.357-1.448-12.298
	c10.072-16.396,17.431-34.18,21.873-52.861c1.07-4.504,5.094-7.683,9.724-7.683h39.209c2.671,0,5.181-1.04,7.069-2.929
	s2.926-4.4,2.925-7.07l-0.027-49.448c-0.003-5.508-4.487-9.989-9.995-9.989h-39.245c-4.623,0-8.644-3.172-9.721-7.669
	c-4.462-18.65-11.832-36.403-21.908-52.767c-2.427-3.942-1.829-9.034,1.443-12.307l27.716-27.716
	c1.888-1.888,2.927-4.399,2.927-7.069c0-2.671-1.041-5.18-2.929-7.068l-34.978-34.952c-3.897-3.894-10.236-3.894-14.131,0.003
	L363.431,99.34c-3.269,3.271-8.356,3.871-12.298,1.448c-16.357-10.048-34.101-17.397-52.739-21.843
	c-4.5-1.073-7.676-5.095-7.676-9.722V29.996c0-5.511-4.484-9.995-9.995-9.995h-49.448c-5.511,0-9.995,4.484-9.995,9.995v39.227
	c0,4.626-3.175,8.648-7.676,9.722c-18.637,4.446-36.381,11.795-52.739,21.843c-3.942,2.421-9.029,1.821-12.298-1.448l-27.733-27.733
	c-3.897-3.897-10.235-3.897-14.131-0.003l-34.979,34.952c-1.889,1.888-2.929,4.398-2.929,7.068s1.039,5.181,2.927,7.069
	l27.716,27.716c3.272,3.273,3.871,8.365,1.443,12.307c-10.075,16.365-17.446,34.118-21.908,52.767
	c-1.076,4.497-5.096,7.669-9.721,7.669H30.011c-5.508,0-9.992,4.481-9.995,9.99l-0.027,49.446c-0.001,2.671,1.037,5.182,2.925,7.071
	c1.888,1.889,4.399,2.929,7.069,2.929h39.209c4.629,0,8.652,3.179,9.724,7.683c4.442,18.68,11.802,36.465,21.873,52.861
	c2.421,3.941,1.822,9.028-1.448,12.298l-27.733,27.733c-3.896,3.896-3.897,10.235-0.003,14.131l34.952,34.979
	c1.888,1.889,4.398,2.929,7.068,2.929c0,0,0.001,0,0.002,0c2.67,0,5.179-1.039,7.067-2.927l27.716-27.716
	C150.337,410.63,152.897,409.631,155.481,409.631z"/>
<g>
</g>
<g>
</g>
<g>
</g>
<g>
</g>
<g>
</g>
<g>
</g>
<g>
</g>
<g>
</g>
<g>
</g>
<g>
</g>
<g>
</g>
<g>
</g>
<g>
</g>
<g>
</g>
<g>
</g>
</svg>
