<svg id="Capa_1" enable-background="new 0 0 512 512" height="512" viewBox="0 0 512 512" width="512" xmlns="http://www.w3.org/2000/svg"><g><g><g><path d="m492.96 172.597v196.802c0 5.519-4.48 9.999-9.999 9.999h-267.545c-5.52 0-9.999-4.48-9.999-9.999v-196.802c0-5.52 4.48-9.999 9.999-9.999h267.545c5.519 0 9.999 4.479 9.999 9.999z" fill="#fcb44d"/><path d="m311.914 204.399s28.601 13.24 45.462 39.575c2.644 4.129-1.571 9.219-6.101 7.343-10.611-4.393-27.477-8.28-51.082-4.808z" fill="#fb9927"/><path d="m482.961 162.598h-26.128c5.519 0 9.999 4.48 9.999 9.999v107.241l-261.415 13.018v15.019l247.82-12.341c7.397-.368 13.596 5.53 13.596 12.935v60.929c0 5.519-4.48 9.999-9.999 9.999h26.128c5.522 0 9.999-4.477 9.999-9.999v-196.801c-.001-5.523-4.478-9.999-10-9.999z" fill="#fb9927"/><g><path d="m438.28 164.052-5.47 117.48-.71 15.05-3.82 82.06c-.18 4.02-3.5 7.15-7.48 7.15h-.36c-4.14-.2-7.33-3.71-7.14-7.84l3.76-80.62.7-15.05 5.54-118.93c.19-4.14 3.69-7.31 7.84-7.14 4.14.19 7.33 3.7 7.14 7.84z" fill="#158f5e"/></g><g><path d="m329.183 286.994c-3.96 0-7.271-3.103-7.483-7.104-.219-4.137 2.957-7.667 7.094-7.886l160.602-8.494c4.14-.239 7.667 2.957 7.886 7.093.219 4.137-2.958 7.667-7.094 7.886l-160.602 8.494c-.135.009-.27.011-.403.011z" fill="#158f5e"/></g><g><g><path d="m472.096 192.098s18.185 8.418 31.181 25.171c3.418 4.406-.782 10.566-6.115 8.936-8.071-2.466-14.351-4.028-29.04-1.867z" fill="#fb9927"/><g><path d="m498.86 233.963c-1.292 0-2.6-.19-3.888-.584-7.408-2.264-12.614-3.554-25.758-1.62-4.099.604-7.91-2.231-8.512-6.329-.603-4.098 2.231-7.909 6.329-8.511 12.421-1.827 19.726-1.169 26.556.497-11.209-12.203-24.493-18.442-24.641-18.512-3.759-1.739-5.396-6.198-3.655-9.957 1.74-3.76 6.2-5.396 9.958-3.655.81.375 20.002 9.392 33.956 27.38 3.553 4.581 3.737 10.854.458 15.608-2.506 3.631-6.56 5.682-10.803 5.683zm-1.509-12.097h.01z" fill="#f48d25"/></g></g></g></g><g><path d="m327.486 142.6v226.799c0 5.519-4.48 9.999-9.999 9.999h-267.545c-5.52 0-9.999-4.48-9.999-9.999v-226.799c0-5.52 4.48-9.999 9.999-9.999h267.545c5.519-.001 9.999 4.479 9.999 9.999z" fill="#ffd597"/><path d="m317.487 132.6h-30.987c5.53 0 9.999 4.48 9.999 9.999v117.589h-256.556v14.999h103.682c8.576 0 15.54 6.98 15.453 15.555-.061 6.012.145 13.006.751 21.109.366 4.899 6.822 6.419 9.297 2.175 5.248-9 13.352-21.163 24.674-33.716 2.936-3.255 7.116-5.122 11.499-5.122h75.745c8.535 0 15.454 6.919 15.454 15.454v78.757c0 5.519-4.47 9.999-9.999 9.999h30.987c5.522 0 9.999-4.477 9.999-9.999v-226.799c.001-5.523-4.476-10-9.998-10z" fill="#fcc16d"/><path d="m327.485 142.596v226.801c0 5.52-4.48 10.001-10 10.001h-30.982c5.53 0 10.001-4.48 10.001-10.001v-78.754c0-8.54-6.92-15.461-15.461-15.461h-75.744c-4.38 0-8.56 1.87-11.501 5.13-11.321 12.551-19.421 24.711-24.671 33.712-2.48 4.24-8.93 2.73-9.3-2.17-.6-8.11-.81-15.101-.75-21.111.09-8.58-6.88-15.561-15.451-15.561h-103.685v-14.991h256.563v-117.595c0-5.52-4.47-9.99-10.001-9.99h30.982c5.52-.001 10 4.47 10 9.99z" fill="#fcc16d"/><g><g><path d="m348.074 365.33c-1.525 0-3.064-.464-4.393-1.427-15.174-10.989-34.675-13.834-34.87-13.861-4.097-.576-6.96-4.363-6.39-8.461.57-4.099 4.354-6.952 8.444-6.399.944.13 23.329 3.329 41.615 16.572 3.355 2.43 4.105 7.118 1.675 10.474-1.467 2.026-3.757 3.102-6.081 3.102z" fill="#f4aa4a"/></g><g><path d="m360.463 343.772c-1.208 0-2.432-.292-3.568-.908-13.364-7.245-32.215-9.297-32.404-9.317-4.119-.434-7.108-4.125-6.674-8.245.435-4.119 4.132-7.104 8.245-6.674.892.094 22.03 2.4 37.983 11.049 3.642 1.974 4.993 6.527 3.019 10.168-1.36 2.507-3.938 3.927-6.601 3.927z" fill="#f4aa4a"/></g></g><g><g><path d="m72.211 236.964c-1.823 0-3.651-.66-5.094-1.997-3.039-2.814-3.222-7.56-.408-10.599 15.172-16.385 41.796-25.805 42.921-26.198 3.911-1.364 8.188.698 9.553 4.61 1.365 3.909-.698 8.185-4.606 9.552-.308.107-24.271 8.63-36.861 22.228-1.477 1.596-3.488 2.404-5.505 2.404z" fill="#fcc16d"/></g><g><path d="m80.656 202.056c-3.256 0-6.253-2.136-7.202-5.42-1.15-3.98 1.144-8.138 5.124-9.288 17.943-5.184 33.36-4.264 34.008-4.221 4.134.267 7.268 3.834 7.002 7.967-.267 4.13-3.841 7.254-7.955 7.003-.222-.015-13.625-.748-28.891 3.661-.696.203-1.397.298-2.086.298z" fill="#fcc16d"/></g></g><g><path d="m53.771 277.683s-28.601 13.24-45.462 39.575c-2.644 4.129 1.571 9.219 6.101 7.343 10.611-4.393 27.477-8.28 51.082-4.808" fill="#ffd597"/><g><path d="m15.799 356.16c-1.203.001-2.422-.289-3.555-.9-3.645-1.967-5.006-6.517-3.039-10.163 14.555-26.976 30.502-33.105 32.273-33.716l4.887 14.182.12-.043c-.122.047-12.334 4.933-24.078 26.7-1.357 2.513-3.94 3.94-6.608 3.94z" fill="#fcb44d"/></g><g><path d="m12.478 332.491c-3.607 0-7.114-1.572-9.546-4.478-3.53-4.216-3.908-10.164-.94-14.8 17.836-27.858 47.379-41.759 48.628-42.337 3.761-1.741 8.218-.103 9.958 3.655 1.739 3.756.106 8.209-3.646 9.953-.243.113-22.241 10.535-37.825 30.501 11.103-3.338 26.948-5.633 47.477-2.612 4.098.603 6.932 4.413 6.329 8.512-.603 4.098-4.417 6.929-8.512 6.328-22.375-3.289-37.976.532-47.122 4.318-1.563.646-3.192.96-4.801.96z" fill="#fcc16d"/></g></g><g><path d="m311.914 180.739s28.601 13.24 45.462 39.575c2.644 4.129-1.571 9.219-6.101 7.343-10.611-4.393-27.477-8.28-51.082-4.808z" fill="#fcc16d"/><g><path d="m355.445 194.041c-.26 0-.522-.014-.785-.041-19.601-2.038-29.638-.128-29.738-.109-4.048.801-8.001-1.821-8.82-5.867-.819-4.045 1.766-7.989 5.806-8.828.483-.101 12.073-2.43 34.304-.117 4.12.429 7.113 4.116 6.684 8.236-.402 3.857-3.658 6.725-7.451 6.726z" fill="#ea9c47"/></g><g><path d="m353.207 235.547c-1.609 0-3.238-.313-4.801-.96-9.145-3.786-24.743-7.605-47.121-4.318-4.097.609-7.909-2.231-8.512-6.328-.603-4.099 2.231-7.91 6.329-8.512 20.527-3.019 36.374-.725 47.476 2.611-15.584-19.965-37.582-30.386-37.825-30.5-3.75-1.749-5.38-6.207-3.636-9.96 1.743-3.753 6.192-5.389 9.948-3.648 1.249.578 30.792 14.479 48.628 42.337 2.968 4.636 2.59 10.584-.94 14.8-2.432 2.906-5.939 4.478-9.546 4.478zm-2.147-11.189h.01z" fill="#f4aa4a"/></g></g><g><g><path d="m146.216 343.969c-.406 0-.816-.033-1.229-.101-4.087-.674-6.854-4.533-6.181-8.621l1.522-9.235c.674-4.088 4.534-6.848 8.621-6.181 4.087.674 6.854 4.533 6.181 8.621l-1.522 9.235c-.606 3.674-3.787 6.282-7.392 6.282z" fill="#fcc16d"/></g><g><path d="m167.368 343.969c-.387 0-.778-.03-1.172-.092-4.092-.642-6.889-4.48-6.247-8.573l1.139-7.26c.642-4.091 4.48-6.887 8.572-6.246 4.092.642 6.889 4.48 6.247 8.573l-1.139 7.26c-.58 3.697-3.771 6.338-7.4 6.338z" fill="#fcc16d"/></g></g><g><g><path d="m210.155 182.836c-3.606 0-6.785-2.608-7.391-6.282l-1.522-9.234c-.674-4.087 2.093-7.947 6.18-8.621 4.083-.669 7.946 2.094 8.62 6.181l1.523 9.234c.673 4.087-2.094 7.947-6.181 8.621-.412.068-.823.101-1.229.101z" fill="#fcc16d"/></g><g><path d="m189.003 182.836c-3.63 0-6.82-2.641-7.4-6.339l-1.139-7.26c-.642-4.092 2.155-7.93 6.248-8.572 4.095-.64 7.93 2.155 8.572 6.247l1.139 7.26c.642 4.092-2.155 7.93-6.248 8.572-.394.062-.785.092-1.172.092z" fill="#fcc16d"/></g></g><g><g><path d="m284.684 304.275c-3.606 0-6.785-2.608-7.391-6.282l-1.522-9.235c-.673-4.087 2.094-7.947 6.181-8.621 4.086-.669 7.946 2.094 8.621 6.181l1.522 9.235c.673 4.087-2.094 7.947-6.181 8.621-.414.068-.825.101-1.23.101z" fill="#fcc16d"/></g></g></g><g><path d="m323.431 171.733c-1.72 0-3.447-.588-4.858-1.79-3.149-2.684-3.534-7.405-.856-10.558.587-.691 14.609-17.02 33.933-23.785 3.911-1.368 8.189.693 9.557 4.601 1.369 3.91-.691 8.189-4.601 9.558-15.406 5.393-27.345 19.207-27.463 19.346-1.485 1.735-3.592 2.628-5.712 2.628z" fill="#f4aa4a"/></g><g><g><path d="m375.239 248.802c-.406 0-.816-.033-1.229-.101-4.087-.674-6.854-4.533-6.18-8.621l1.522-9.234c.674-4.088 4.535-6.849 8.621-6.181 4.087.674 6.854 4.533 6.181 8.621l-1.523 9.234c-.606 3.674-3.787 6.282-7.392 6.282z" fill="#fb9927"/></g><g><path d="m396.391 248.802c-.387 0-.778-.03-1.172-.092-4.092-.642-6.889-4.48-6.247-8.573l1.139-7.26c.642-4.092 4.478-6.884 8.572-6.246 4.092.642 6.889 4.48 6.247 8.573l-1.139 7.26c-.58 3.697-3.771 6.338-7.4 6.338z" fill="#fb9927"/></g></g></g><g><g><path d="m124.6 134.012-5.16 126.18-.61 14.99-4.23 103.42c-.16 4.03-3.48 7.19-7.49 7.19h-.31c-4.14-.17-7.35-3.66-7.18-7.8l4.2-102.81.61-14.99 5.18-126.79c.17-4.14 3.69-7.33 7.8-7.19 4.14.17 7.36 3.66 7.19 7.8z" fill="#158f5e"/></g><path d="m104.43 260.192h15.01l-.61 14.99h-15.01z" fill="#0f7a4f"/><g><path d="m262.82 377.992c.17 4.14-3.05 7.63-7.19 7.8h-.31c-4 0-7.32-3.16-7.49-7.19l-4.23-103.42-.61-14.99-5.16-126.18c-.17-4.14 3.05-7.63 7.19-7.8 4.13-.14 7.63 3.05 7.8 7.19l5.18 126.79.62 14.99z" fill="#158f5e"/></g><path d="m258.62 275.182h-15.02l-.61-14.99h15.01z" fill="#0f7a4f"/><g><path d="m324.325 263.502h-131.336c-4.142 0-7.5-3.357-7.5-7.5s3.358-7.5 7.5-7.5h131.335c4.142 0 7.5 3.357 7.5 7.5.001 4.143-3.357 7.5-7.499 7.5z" fill="#158f5e"/></g><g><path d="m152.846 263.502h-109.739c-4.142 0-7.5-3.357-7.5-7.5s3.358-7.5 7.5-7.5h109.739c4.142 0 7.5 3.357 7.5 7.5s-3.358 7.5-7.5 7.5z" fill="#158f5e"/></g></g><g><path d="m159.411 234.532s-7.422 12.47-4.312 54.043c.366 4.899 6.822 6.419 9.297 2.175 8.409-14.42 24.109-36.967 48.694-56.218z" fill="#ffd597"/><g><path d="m160.127 300.728c-.939 0-1.889-.105-2.838-.324-5.373-1.239-9.259-5.768-9.67-11.269-1.898-25.371.035-40.699 2.102-49.274 1.162-4.821 6.618-7.174 10.906-4.683.064.037.128.074.191.111 2.833 1.644 4.232 4.948 3.468 8.133-1.418 5.909-3.087 17.315-2.19 36.693 9.623-15.118 24.679-34.505 46.369-51.489 3.329-2.607 8.17-1.955 10.685 1.486 2.405 3.29 1.566 7.967-1.639 10.484-23.153 18.183-38.137 39.354-46.637 53.932-2.278 3.908-6.38 6.2-10.747 6.2z" fill="#fcb44d"/></g></g><path d="m432.81 281.532-.71 15.05-15.04.75.7-15.05z" fill="#0f7a4f"/></g></svg>