<svg height="512" viewBox="0 0 58 50" width="512" xmlns="http://www.w3.org/2000/svg"><g id="Page-1" fill="none" fill-rule="evenodd"><g id="006---Add-to-Favourites" fill-rule="nonzero"><path id="Shape" d="m50.76 20.85c-.5798495 1.2776501-1.3336613 2.4689419-2.24 3.54-.6463138.8115535-1.3733775 1.5553698-2.17 2.22-15.11 14.2-18.83 17.71-18.98 17.85-.7714606.7199364-1.9685394.7199364-2.74 0-21.32-20.1-20.38-19.07-21.15-20.07-.9063387-1.0710581-1.6601505-2.2623499-2.24-3.54-4.28-9.46 2.97-20.85 14.77-20.85 3.5993516-.02003574 7.1069158 1.13510803 9.99 3.29 2.8830842-2.15489197 6.3906484-3.31003574 9.99-3.29 11.8 0 19.05 11.39 14.77 20.85z" fill="#df4d60"/><path id="Shape" d="m50.76 20.85c-5.4 5.53-14.48 9.15-24.76 9.15s-19.36-3.62-24.76-9.15c-4.28-9.46 2.97-20.85 14.77-20.85 3.5993516-.02003574 7.1069158 1.13510803 9.99 3.29 2.8830842-2.15489197 6.3906484-3.31003574 9.99-3.29 11.8 0 19.05 11.39 14.77 20.85z" fill="#ff5364"/><path id="Shape" d="m12 5.6c-.4950079.00168945-.9167611-.35903334-.991843-.84831693-.0750819-.48928358.2191048-.95986927.691843-1.10668307 1.3949555-.43383756 2.8481525-.65136184 4.309-.645.5522847 0 1 .44771525 1 1s-.4477153 1-1 1c-1.2571045-.00668888-2.5077483.18016567-3.708.554-.0974734.03027782-.1989326.04578321-.301.046z" fill="#fb7b76"/><path id="Shape" d="m6.72 23.04c-.30724047.0000113-.59743263-.1412131-.787-.383l-.181-.23c-2.91842551-3.3472064-3.57391545-8.1064797-1.669-12.118.55427779-1.1795657 1.2936118-2.26290947 2.19-3.209.24395234-.26592246.61225602-.37977963.9637203-.29792389.35146427.08185574.63156282.34672526.7329187.69306972s.00824469.72043183-.243639.97885417c-.74748529.79077991-1.36391151 1.6958394-1.826 2.681-1.56683297 3.3201706-1.01286962 7.2537032 1.41 10.012l.2.256c.23642592.3015498.2797481.7116848.11154174 1.0559756-.16820637.3442907-.51836013.5621895-.90154174.5610244z" fill="#fb7b76"/><circle id="Oval" cx="42" cy="34" fill="#802f34" r="16"/><path id="Shape" d="m49 33h-6v-6c0-.5522847-.4477153-1-1-1s-1 .4477153-1 1v6h-6c-.5522847 0-1 .4477153-1 1s.4477153 1 1 1h6v6c0 .5522847.4477153 1 1 1s1-.4477153 1-1v-6h6c.5522847 0 1-.4477153 1-1s-.4477153-1-1-1z" fill="#ecf0f1"/></g></g></svg>