<svg id="Layer_1" enable-background="new 0 0 497 497" height="512" viewBox="0 0 497 497" width="512" xmlns="http://www.w3.org/2000/svg"><g><g><g><path d="m199.006 39.997s-57.606-6.139-71.907 53.989c-4.28 17.996-29.105 25.709-45.37 19.71 0 0 29.961 74.557 120.701 22.281" fill="#ffdec2"/><path d="m358.582 497-78.627-167.678c-10.103-21.967-35.453-32.352-58.058-23.817-14.956 5.647-30.559 11.257-39.848 13.792-22.067 6.024-56.829 7.054-82.343-6.782l-16.774 12.347c-22.879 16.842-55.066 11.913-71.871-11.005-16.084-21.936-12.324-52.617 8.581-70.009l161.075-134.014c12.129-10.091 19.145-25.06 19.145-40.846v-46.13c26.963 0 48.89 21.52 49.615 48.337 37.268 0 72.137 18.408 93.188 49.195l154.335 323.11v53.5" fill="#bf7341"/><path d="m99.706 312.515c5.691-81.526-59.895-84.936-59.895-84.936l-21.184 17.322c-20.484 16.925-24.655 46.714-9.608 68.625 16.372 23.84 49.187 29.418 72.502 12.324z" fill="#9b4f1d"/><g><g><path d="m51.123 305.117c-4.143 0-7.5-3.358-7.5-7.5 0-11.67-8.189-13.419-10.699-13.677 0 0-8.174.341-8.174-7.19 0-9 9.402-7.759 9.402-7.759 8.464.642 24.471 7.451 24.471 28.626 0 4.142-3.357 7.5-7.5 7.5z" fill="#bf7341"/></g></g><g><path d="m239.334 169.372c-4.143 0-7.5-3.358-7.5-7.5 0-8.319-7.046-15.087-15.707-15.087s-15.707 6.768-15.707 15.087c0 4.142-3.357 7.5-7.5 7.5s-7.5-3.358-7.5-7.5c0-16.59 13.775-30.087 30.707-30.087s30.707 13.497 30.707 30.087c0 4.142-3.357 7.5-7.5 7.5z" fill="#9b4f1d"/></g></g><path d="m497 129.691s-63.664-121.7-169.861-129.37c-58.558-4.229-94.376 34.724-94.376 34.724s15.712 11.06 16.715 36.149c0 0 53.74 13.538 69.712 83.632 7.382 32.397-1.704 68.205-1.704 68.205s27.256-11.652 34.922-38.934c0 0-14.555 130.179 65.687 196.441 0 0-6.018-28.111 11.702-52.206 0 0 10.365 74.963 67.203 121.48z" fill="#ffdec2"/><g fill="#facfaa"><path d="m322.408 184.098c-.108.383-.233.751-.348 1.128-.026 1.751-.08 3.473-.156 5.159.254-4.034.504-6.287.504-6.287z"/><path d="m467 129.691 30 45.24v-45.24s-63.664-121.7-169.861-129.37c-8.394-.606-16.318-.322-23.739.604 102.43 11.86 163.6 128.766 163.6 128.766z"/><path d="m321.712 193.866c-1.088 16.784-4.226 29.166-4.226 29.166"/></g></g><g><path d="m401.257 82.5c-2.365 0-4.692-1.115-6.151-3.2-19.658-28.082-66.695-41.734-91.41-33.21-3.917 1.351-8.186-.73-9.535-4.646-1.351-3.916.729-8.185 4.645-9.535 15.688-5.409 36.791-4.314 57.902 3.004 21.514 7.458 39.988 20.501 50.688 35.786 2.375 3.393 1.55 8.07-1.844 10.445-1.31.917-2.811 1.356-4.295 1.356z" fill="#f0b86c"/></g></g></svg>