<svg xmlns="http://www.w3.org/2000/svg" xmlns:xlink="http://www.w3.org/1999/xlink" viewBox="0 0 115.92 106.54"><defs><linearGradient id="Unbenannter_Verlauf_151" x1="57.96" y1="106.54" x2="57.96" gradientUnits="userSpaceOnUse"><stop offset="0" stop-color="#fff" stop-opacity="0"/><stop offset="0" stop-color="#fffdfe" stop-opacity="0.01"/><stop offset="0" stop-color="#fef7fa" stop-opacity="0.05"/><stop offset="0" stop-color="#fcecf3" stop-opacity="0.12"/><stop offset="0" stop-color="#faddea" stop-opacity="0.21"/><stop offset="0" stop-color="#f8cade" stop-opacity="0.33"/><stop offset="0" stop-color="#f4b2d0" stop-opacity="0.48"/><stop offset="0" stop-color="#f095be" stop-opacity="0.66"/><stop offset="0" stop-color="#ec75ab" stop-opacity="0.86"/><stop offset="0" stop-color="#e95f9d"/><stop offset="1" stop-color="#e73279"/></linearGradient><linearGradient id="Unbenannter_Verlauf_90" x1="108.03" y1="12.49" x2="63.84" y2="56.68" gradientUnits="userSpaceOnUse"><stop offset="0" stop-color="#fff" stop-opacity="0"/><stop offset="0" stop-color="#e73279" stop-opacity="0.5"/><stop offset="1" stop-color="#e73279"/></linearGradient><radialGradient id="Unbenannter_Verlauf_46" cx="137.91" cy="-25.57" r="131.36" gradientUnits="userSpaceOnUse"><stop offset="0" stop-color="#fff"/><stop offset="0.5" stop-color="#38a7a2"/><stop offset="1" stop-color="#38a7a2" stop-opacity="0.5"/></radialGradient><linearGradient id="Unbenannter_Verlauf_155" x1="60.17" y1="106.54" x2="60.17" y2="55.1" gradientUnits="userSpaceOnUse"><stop offset="0" stop-color="#fff" stop-opacity="0"/><stop offset="0" stop-color="#cbe8e7" stop-opacity="0.26"/><stop offset="0" stop-color="#62b9b6" stop-opacity="0.79"/><stop offset="0" stop-color="#38a7a2"/><stop offset="0.8" stop-color="#38a7a2"/><stop offset="1" stop-color="#38a7a2"/></linearGradient><linearGradient id="Unbenannter_Verlauf_19" x1="87.11" y1="-7.1" x2="28.71" y2="74.66" gradientUnits="userSpaceOnUse"><stop offset="0.5" stop-color="#38a7a2"/><stop offset="1" stop-color="#fff" stop-opacity="0"/></linearGradient><linearGradient id="Unbenannter_Verlauf_19-2" x1="24.34" y1="53.04" x2="79.28" y2="53.04" xlink:href="#Unbenannter_Verlauf_19"/><linearGradient id="Unbenannter_Verlauf_40" x1="17.02" y1="28.5" x2="46.12" y2="10.32" gradientUnits="userSpaceOnUse"><stop offset="0" stop-color="#fff" stop-opacity="0"/><stop offset="0.8" stop-color="#38a7a2"/></linearGradient><linearGradient id="Unbenannter_Verlauf_44" x1="34.8" y1="24.54" x2="55.58" y2="11.55" xlink:href="#Unbenannter_Verlauf_40"/></defs><g id="Ebene_2" data-name="Ebene 2"><g id="Layer_1" data-name="Layer 1"><path d="M111.19,55.19C100,78,58,92,58,106.54c0-4.71-4.41-9.36-10.78-14.28C28.64,75.63,31.41,59.85,41.73,55.1a18.68,18.68,0,0,0,7.32-2c6.14,1.83,12,4,13.91,8.92,5.52-2,11-1.14,14.11-6.09,1.86-3-.95-7.76-2.27-11.89q-13-3-17.35-17.83c-3.6-1.62-7.1-4.17-10.83-5.72,4.42-2,4.21-7,6.2-10.52-3.48.29-7,1.46-9.21,4.26.54-2.83.35-6.05,1.55-9C37.34,8.35,32.57,12.39,31.1,17.39,18.4,18.31,5,27.59.59,42.58-5.47,7.24,37-17.19,58,15,81.39-20.9,131.48,13.63,111.19,55.19ZM52,32.31a71.6,71.6,0,0,0,7.32,8.25,69.68,69.68,0,0,1-6-10L44.7,27.81C46.09,31.57,50.12,33.77,52,32.31ZM72.7,47.39c-3.17-1.74-6.76-1.11-4.94,2.56C67.87,47.9,70.82,47.28,72.7,47.39Z" style="fill:url(#Unbenannter_Verlauf_151)"/><path d="M58,15C85.68-4.69,121.88,45.37,86.74,79.58c10-7.08,19.86-15,24.45-24.39C131.48,13.63,81.39-20.9,58,15Z" style="fill-rule:evenodd;fill:url(#Unbenannter_Verlauf_90)"/><path d="M51.69,12.65a18.59,18.59,0,0,1,3.5-.62c-1.85,3.23-1.81,7.82-5.33,10a35.71,35.71,0,0,0-3.24-1.57C50,19,50.66,15.68,51.69,12.65Zm-7.41-4c-.28,1.9-.33,3.8-.67,5.54a9.56,9.56,0,0,1,2.9-2.48,16.84,16.84,0,0,1,1-4.5C46.37,7.71,45.3,8.19,44.28,8.7ZM66.45,40.3a27.55,27.55,0,0,1-6.63-12c-.69-.29-1.37-.63-2-1Q60.54,35.93,66.45,40.3Zm8.89,5.32c1.4,3.73,3.38,7.72,1.73,10.32C74.15,60.6,69.13,60.16,64,61.7a9.84,9.84,0,0,1,1.37,2.38c5.51-1.94,11-1.13,14.11-6.09,1.86-3-1-7.76-2.29-11.89C76.54,46,75.93,45.79,75.34,45.62Z" style="fill-rule:evenodd;fill:url(#Unbenannter_Verlauf_46)"/><path d="M41.73,55.1c-10.32,4.75-13.09,20.53,5.44,37.16C53.54,97.18,58,101.83,58,106.54c0-8.52,14.55-16.88,28.79-27C60.9,92.9,26.42,73.65,41.73,55.1Z" style="fill-rule:evenodd;fill:url(#Unbenannter_Verlauf_155)"/><path d="M41.73,55.1c-8.55.42-16-5.85-15.5-17.6a38.77,38.77,0,0,0-14.9,27.11c9.85,10.85,25.44,19.61,35.84,27.65C28.64,75.63,31.41,59.85,41.73,55.1Z" style="fill-rule:evenodd;fill:url(#Unbenannter_Verlauf_19)"/><path d="M66.64,57.3a20.27,20.27,0,0,0-10.3-7.13l1.38-4c-2.83,2.78-5,5.17-8.67,7,6.14,1.83,12,4,13.91,8.92,5.52-2,11-1.14,14.11-6.09,1.86-3-.95-7.76-2.27-11.89C78.59,57.47,71.72,54.8,66.64,57.3Z" style="fill-rule:evenodd;fill:url(#Unbenannter_Verlauf_19-2)"/><path d="M36.09,21.42A11.82,11.82,0,0,0,41,19.16c4-3.42,2.21-9,4.2-13.95C40.08,9.65,36.71,14.89,36.09,21.42Z" style="fill-rule:evenodd;fill:url(#Unbenannter_Verlauf_40)"/><path d="M44.1,19.63a20.27,20.27,0,0,1,2.52.87c4.42-2,4.21-7,6.2-10.52C48.55,12.15,45.25,15.08,44.1,19.63Z" style="fill-rule:evenodd;fill:url(#Unbenannter_Verlauf_44)"/></g></g></svg>