<svg id="Capa_1" enable-background="new 0 0 512 512" height="512" viewBox="0 0 512 512" width="512" xmlns="http://www.w3.org/2000/svg"><g><path d="m391.521 136.301c-22.129 22.129-43.948 22.614-57.106 9.456s-12.673-34.976 9.456-57.106c22.129-22.129 65.46-28.252 70.681-23.032s-.902 48.552-23.031 70.682z" fill="#ffc344"/><path d="m414.553 65.62c-2.672-2.672-15.334-2.363-30.022 1.534 3.451 9.349-3.253 48.485-23.915 69.147-6.709 6.709-13.388 11.417-19.808 14.37 13.239 7.617 31.861 4.482 50.713-14.37 22.129-22.13 28.252-65.461 23.032-70.681z" fill="#feb237"/><path d="m377.121 104.389c-2.372-3.396-7.048-4.226-10.443-1.853-.582.406-14.392 10.161-26.731 28.07-16.475 23.91-22.524 51.121-17.495 78.691.661 3.62 3.816 6.155 7.37 6.155.447 0 .9-.04 1.355-.123 4.075-.744 6.775-4.649 6.032-8.725-4.332-23.745.646-46.307 14.795-67.059 10.793-15.83 23.154-24.636 23.277-24.723 3.385-2.373 4.21-7.042 1.84-10.433z" fill="#ac5e2e"/><path d="m346.54 373.435c0 41.251-28.866 74.693-64.479 74.693h-217.575v-149.375h217.574c35.614 0 64.48 33.442 64.48 74.682z" fill="#ac5e2e"/><ellipse cx="64.484" cy="373.44" fill="#e8ad8c" rx="64.484" ry="74.687"/><path d="m416.765 308.353c-13.928 38.719-52.382 60.339-85.893 48.284l-204.731-73.647 50.437-140.209 204.731 73.647c33.511 12.054 49.381 53.215 35.456 91.925z" fill="#d77f4a"/><path d="m381.309 216.427-204.731-73.647-3.541 9.844 177.366 63.803c33.511 12.055 49.381 53.216 35.456 91.925-9.179 25.517-29.011 43.6-51.058 49.52 32.535 9.095 68.577-12.305 81.964-49.52 13.925-38.709-1.945-79.87-35.456-91.925z" fill="#c86d36"/><g fill="#ac5e2e"><path d="m298.804 241.241c3.074 0 5.958-1.904 7.058-4.963 1.402-3.897-.621-8.194-4.519-9.596l-93.292-33.56c-3.899-1.404-8.194.621-9.596 4.519-1.402 3.897.621 8.194 4.519 9.596l93.292 33.56c.839.301 1.695.444 2.538.444z"/><path d="m328.184 298.713-97.047-34.911c-3.9-1.403-8.194.62-9.596 4.519-1.402 3.897.621 8.194 4.519 9.596l97.047 34.911c.839.302 1.695.445 2.538.445 3.074 0 5.958-1.904 7.058-4.963 1.402-3.898-.621-8.195-4.519-9.597z"/><path d="m379.688 254.865-42.888-15.428c-3.899-1.403-8.194.62-9.596 4.519-1.402 3.897.621 8.194 4.519 9.596l42.888 15.428c.839.302 1.695.445 2.538.445 3.074 0 5.958-1.904 7.058-4.963 1.402-3.899-.621-8.195-4.519-9.597z"/></g><path d="m65.01 417.672c-18.201 0-33.578-20.014-33.578-43.704s15.377-43.704 33.578-43.704c18.202 0 33.579 20.014 33.579 43.704s-15.377 43.704-33.579 43.704z" fill="#f4d7c8"/><ellipse cx="151.358" cy="212.883" fill="#e8ad8c" rx="74.501" ry="64.484" transform="matrix(.339 -.941 .941 .339 -100.192 283.248)"/><path d="m136.601 253.905c-17.127-6.161-24.839-30.152-16.84-52.388s29.226-35.817 46.353-29.656 24.839 30.152 16.84 52.388c-7.998 22.237-29.225 35.818-46.353 29.656z" fill="#f4d7c8"/><path d="m512 373.435c0 41.251-28.866 74.693-64.479 74.693h-217.574v-149.375h217.574c35.613 0 64.479 33.442 64.479 74.682z" fill="#c86d36"/><g fill="#ac5e2e"><path d="m447.521 298.753h-30.905c35.613 0 64.479 33.442 64.479 74.683 0 41.251-28.866 74.693-64.479 74.693h30.905c35.613 0 64.479-33.443 64.479-74.693 0-41.241-28.866-74.683-64.479-74.683z"/><path d="m509.98 354.81h-145.97c-4.14 0-7.5-3.36-7.5-7.5s3.36-7.5 7.5-7.5h141.09c2.07 4.73 3.71 9.75 4.88 15z"/><g><path d="m465.919 397.335h-60.175c-4.142 0-7.5 3.358-7.5 7.5s3.358 7.5 7.5 7.5h60.175c4.142 0 7.5-3.358 7.5-7.5s-3.357-7.5-7.5-7.5z"/><path d="m352.139 397.335h-77.293c-4.142 0-7.5 3.358-7.5 7.5s3.358 7.5 7.5 7.5h77.293c4.142 0 7.5-3.358 7.5-7.5s-3.358-7.5-7.5-7.5z"/></g></g><ellipse cx="229.945" cy="373.44" fill="#e8ad8c" rx="64.484" ry="74.687"/><path d="m229.012 417.672c-18.201 0-33.578-20.014-33.578-43.704s15.377-43.704 33.578-43.704c18.202 0 33.579 20.014 33.579 43.704s-15.377 43.704-33.579 43.704z" fill="#f4d7c8"/></g></svg>