<svg id="Capa_1" enable-background="new 0 0 512 512" height="512" viewBox="0 0 512 512" width="512" xmlns="http://www.w3.org/2000/svg"><g><g><path d="m151 512h-136c-8.284 0-15-6.716-15-15v-121c0-8.284 6.716-15 15-15h151c8.284 0 15 6.716 15 15v106c0 16.569-13.431 30-30 30z" fill="#e63950"/></g><g><g><path d="m497 512h-136c-16.569 0-30-13.431-30-30v-76c0-8.284 6.716-15 15-15h151c8.284 0 15 6.716 15 15v91c0 8.284-6.716 15-15 15z" fill="#ae2538"/></g></g><g id="Podium_2_"><g><path d="m361 512h-210v-196c0-8.284 6.716-15 15-15h45c16.569 0 30 13.431 30 30v76.274c9.609-2.959 20.391-2.959 30 0v-76.274c0-16.569 13.431-30 30-30h45c8.284 0 15 6.716 15 15z" fill="#ff6c6c"/></g><g><path d="m323.793 265.356-67.793-35.2-67.793 35.2c-5.01 2.593-11.133 2.168-15.732-1.187-4.6-3.34-6.914-8.979-5.977-14.59l12.51-75.337-54.404-53.599c-4.043-3.999-5.508-9.932-3.75-15.322 1.758-5.405 6.416-9.36 12.041-10.21l75.176-11.323 34.248-75.747c4.863-10.723 22.5-10.723 27.363 0l34.248 75.747 75.176 11.323c5.625.85 10.283 4.805 12.041 10.21 1.758 5.391.293 11.323-3.75 15.322l-54.404 53.599 12.51 75.337c.938 5.61-1.377 11.25-5.977 14.59-4.618 3.373-10.745 3.783-15.733 1.187z" fill="#fed843"/></g></g><path d="m361 512v-196c0-8.284-6.716-15-15-15h-45c-16.569 0-30 13.431-30 30v76.274c-4.805-1.479-9.902-2.219-15-2.219v106.945z" fill="#e63950"/><path d="m323.793 265.356c4.988 2.595 11.115 2.186 15.732-1.187 4.6-3.34 6.914-8.979 5.977-14.59l-12.51-75.337 54.404-53.599c4.043-3.999 5.508-9.932 3.75-15.322-1.758-5.405-6.416-9.36-12.041-10.21l-75.175-11.322-34.248-75.747c-2.432-5.361-8.058-8.042-13.682-8.042v230.156z" fill="#fabe2c"/><g><path d="m273.578 444.408c-8.086-11.924-27.07-11.924-35.156 0-3.721 5.464-10.459 7.852-16.816 5.933-6.299-1.934-10.606-7.749-10.606-14.341v-135h90v135c0 6.592-4.307 12.407-10.605 14.341-6.547 1.964-13.23-.626-16.817-5.933z" fill="#fed843"/></g><path d="m290.395 450.341c6.298-1.934 10.605-7.749 10.605-14.341v-135h-45v134.465c6.768 0 13.535 2.981 17.578 8.943 3.587 5.307 10.271 7.898 16.817 5.933z" fill="#fabe2c"/></g></svg>