<svg id="Capa_1" enable-background="new 0 0 488.891 488.891" height="512" viewBox="0 0 488.891 488.891" width="512" xmlns="http://www.w3.org/2000/svg"><path d="m322.35 118.399h-137.905l281.757 220.693 18.808-10.369c4.119-2.271 5.156-7.73 2.155-11.352z" fill="#ff7a3c"/><path d="m283.395 118.399h-91.449v298.556l52.5 43.329c1.247 0 2.494-.311 3.621-.932l218.136-120.26z" fill="#ff9a42"/><path d="m244.445 118.399h-77.905l-164.815 198.972c-3.001 3.623-1.965 9.081 2.155 11.352l236.944 130.629c1.127.621 2.374.932 3.621.932z" fill="#ffba48"/><path d="m250.221 31.322c-1.5-1.811-3.638-2.716-5.776-2.716l-23.953 42.772 49.534 61.765h25.581l26.743-14.744z" fill="#ff9a42"/><path d="m295.607 133.143-51.162-61.765-20 44.985 20 44.986z" fill="#ffba48"/><path d="m238.67 31.322-72.129 87.077 77.905 42.95v-132.743c-2.139 0-4.277.906-5.776 2.716z" fill="#ffd185"/><g fill="#ff9a42"><circle cx="42.168" cy="315.575" r="7.5"/><circle cx="184.445" cy="333.064" r="7.5"/><circle cx="214.445" cy="303.064" r="7.5"/></g></svg>