<svg id="Capa_1" enable-background="new 0 0 512 512" height="512" viewBox="0 0 512 512" width="512" xmlns="http://www.w3.org/2000/svg"><g><g><g><g><path d="m446.48 251.45v48.41l-20.697 35.811-.181 57.069 20.878 41.29v47.97l-15.61 15h-148.08l-26.82-15-27.74-115.05 27.74-115.5 25.29-31.75h145.27z" fill="#ffb555"/><g><path d="m329.34 313.619h117.14v106.213h-117.14z" fill="#9de1f7"/><path d="m347.26 329.86v74.17h99.22v30h-129.22v-134.17h129.22v30z" fill="#04303e"/></g></g><g><path d="m160.745 220.689 29.37-12.109 41.694 12.109 24.141 30.761v230.55l-12.737 15h-67.404l-15.064-15-47.602-129.21z" fill="#9de1f7"/><path d="m160.745 220.689-29.37-12.109-41.694 12.109-24.141 30.761v230.55l12.737 15h67.404l15.064-15z" fill="#bdeaf9"/></g><g><g><g><path d="m200.747 381.725h-39.989l-11.005-15 11.005-15h39.989z" fill="#04303e"/></g></g><g><g><path d="m120.743 351.725h39.989v30h-39.989z" fill="#09607d"/></g></g></g></g><g><path d="m512 482v30h-256l-12.787-15 12.787-15z" fill="#58b354"/><path d="m0 482h256v30h-256z" fill="#70d940"/></g></g><g><g><g><path d="m256 131.87-12.787 56.066 12.787 63.514c17.53 0 31.74-14.22 31.74-31.75l13.047-20.53v-44.936l-13.047-22.364-10.953-15h-12.596z" fill="#dcd6d4"/><path d="m256 131.87v119.58c-17.53 0-31.74-14.22-31.74-31.75l-13.047-20.53v-44.936l13.047-22.364 10.953-15h12.596z" fill="#f4f3f2"/></g><g><path d="m351.23 131.87-14.017 18.96v47.66l14.017 21.21c0 17.53 14.21 31.75 31.74 31.75 17.54 0 31.75-14.22 31.75-31.75l14.748-21.977v-48.936l-14.748-16.917-14.869-15h-38.468z" fill="#dcd6d4"/><g fill="#ff4c04"><path d="m287.74 131.87v87.83c0 17.53 14.22 31.75 31.75 31.75s31.74-14.22 31.74-31.75v-87.83l-12.485-15h-42.723z"/><path d="m414.72 131.87v87.83c0 17.53 14.21 31.75 31.74 31.75s31.74-14.22 31.74-31.75v-87.83l-13.668-15h-40.17z"/></g></g><g><path d="m160.77 131.87 14.017 18.96v47.66l-14.017 21.21c0 17.53-14.21 31.75-31.74 31.75-17.54 0-31.75-14.22-31.75-31.75l-14.748-21.977v-48.936l14.748-16.917 14.869-15h38.468z" fill="#f4f3f2"/><g fill="#ff7c48"><path d="m97.28 131.87v87.83c0 17.53-14.21 31.75-31.74 31.75s-31.74-14.22-31.74-31.75v-87.83l13.668-15h40.17z"/><path d="m224.26 131.87v87.83c0 17.53-14.22 31.75-31.75 31.75s-31.74-14.22-31.74-31.75v-87.83l12.485-15h42.723z"/></g></g></g><g><g><path d="m256 30-18.404 35.935 18.404 35.935 25.286 15h137.969l25.735-15-53.63-71.87-23.875-15h-97.002z" fill="#ff4c04"/><path d="m256 30v71.87l-25.286 15h-137.969l-25.735-15 53.63-71.87 23.875-15h97.002z" fill="#ff7c48"/></g><g><g><g><path d="m256 0-10.745 15 10.745 15h183.34v-30z" fill="#04303e"/></g></g><g><g><path d="m72.66 0h183.34v30h-183.34z" fill="#09607d"/></g></g></g><g><path d="m256 101.87-8.191 15 8.191 15h256v-30z" fill="#04303e"/><path d="m0 101.87h256v30h-256z" fill="#09607d"/></g></g></g></g></svg>