<svg height="512pt" viewBox="-88 0 512 512" width="512pt" xmlns="http://www.w3.org/2000/svg"><path d="m288.902344 337.1875c-21.71875-44.722656-63.644532-69.152344-92.078125-81.195312 39.871093-16.882813 106.285156-58.117188 106.285156-145.519532v-46.695312l-155.625-20.019532 20.015625 358.21875c55.722656-7.367187 113.796875-54.496093 121.402344-64.789062zm0 0" fill="#efe2dd"/><path d="m31.894531 63.773438v46.699218c0 87.402344 66.414063 128.636719 106.285157 145.519532-32.695313 13.84375-83.230469 44.074218-100.367188 102.695312 14.023438 19.316406 70.699219 49.660156 126.808594 43.636719.957031-.105469 1.917968-.222657 2.878906-.347657v-358.21875zm0 0" fill="#fff5f5"/><path d="m303.109375 448.210938v-46.699219c0-25.070313-5.472656-46.335938-14.207031-64.324219-23.097656-3.457031-35.304688-14.054688-72.257813-8.421875-25.382812 3.875-37.335937 11.578125-49.144531 19.320313l-20.015625 120.140624zm0 0" fill="#9b9696"/><path d="m37.816406 358.6875c-3.761718 12.867188-5.921875 27.09375-5.921875 42.824219v46.699219l135.605469 20.015624v-120.140624c-12.066406 7.917968-23.976562 15.875-49.917969 19.832031-40.75 6.214843-51.414062-7.308594-79.765625-9.230469zm0 0" fill="#cdbfba"/><path d="m335.003906 448.210938h-167.503906l-20.015625 31.894531 20.015625 31.894531h167.503906zm0 0" fill="#0051bf"/><path d="m335.003906 0h-167.503906l-20.015625 31.894531 20.015625 31.894531h167.503906zm0 0" fill="#0051bf"/><g fill="#046eff"><path d="m0 0h167.5v63.789062h-167.5zm0 0"/><path d="m0 448.210938h167.5v63.789062h-167.5zm0 0"/></g></svg>