<svg id="Capa_1" enable-background="new 0 0 512 512" height="512" viewBox="0 0 512 512" width="512" xmlns="http://www.w3.org/2000/svg"><g id="XMLID_381_"><path id="XMLID_354_" d="m512 256-43.059-57.066 8.795-70.975-65.883-27.811-27.811-65.884-70.976 8.794-57.066-43.058-57.066 43.058-70.975-8.794-27.811 65.883-65.884 27.811 8.794 70.976-43.058 57.066 43.058 57.066-8.794 70.975 65.883 27.811 27.811 65.884 70.976-8.794 57.066 43.058 57.066-43.058 70.975 8.794 27.812-65.883 65.883-27.811-8.795-70.976z" fill="#ffda2e"/><path id="XMLID_4020_" d="m512 256-43.059-57.066 8.795-70.975-65.883-27.811-27.811-65.884-70.976 8.794-57.066-43.058v512l57.066-43.058 70.975 8.794 27.812-65.883 65.883-27.811-8.795-70.976z" fill="#fdbf00"/><ellipse id="XMLID_3856_" cx="256" cy="256" fill="#ffeb95" rx="152.013" ry="152.013" transform="matrix(.707 -.707 .707 .707 -106.039 256)"/><path id="XMLID_4007_" d="m256 103.987v304.026c83.82 0 152.013-68.193 152.013-152.013s-68.193-152.013-152.013-152.013z" fill="#ffda2e"/><path id="XMLID_3897_" d="m194.156 267.031v15.012c0 34.19 27.815 62.005 62.004 62.005s62.005-27.815 62.005-62.005v-15.012z" fill="#ff9f00"/><path id="XMLID_3858_" d="m193.835 192.279h30.025v40.682h-30.025z" fill="#ff8700"/><path id="XMLID_3857_" d="m288.141 192.279h30.025v40.682h-30.025z" fill="#ff641a"/><path id="XMLID_4009_" d="m256 267.031v77.013c.054 0 .107.004.16.004 34.189 0 62.005-27.815 62.005-62.005v-15.012z" fill="#ff8700"/></g></svg>